<?xml version="1.0" encoding="UTF-8" standalone="no"?>
<svg
   width="589.55664"
   height="442.56155"
   overflow="hidden"
   version="1.1"
   id="svg443"
   xmlns="http://www.w3.org/2000/svg"
   xmlns:svg="http://www.w3.org/2000/svg">
  <defs
     id="defs443" />
  <g
     id="g443"
     transform="translate(-345.22168,-140.29556)">
    <rect
       x="345.22168"
       y="140.29556"
       width="589.55664"
       height="442.56155"
       fill="#ffffff"
       id="rect1"
       style="stroke-width:0.532081" />
    <rect
       x="365"
       y="158"
       width="550"
       height="404"
       fill="#ffffff"
       id="rect2"
       style="stroke:#000000;stroke-opacity:1" />
    <rect
       x="385"
       y="169"
       width="504"
       height="361"
       fill="#ffffff"
       id="rect3" />
    <rect
       x="385.5"
       y="169.5"
       width="504"
       height="361"
       stroke="#000000"
       stroke-width="0"
       stroke-miterlimit="8"
       fill="none"
       id="rect4"
       style="stroke-width:1;stroke-dasharray:none" />
    <path
       d="m 385.5,169.5 v 361"
       stroke="#000000"
       stroke-width="0"
       stroke-linejoin="round"
       stroke-miterlimit="10"
       fill="none"
       fill-rule="evenodd"
       id="path4" />
    <path
       d="m 385.5,530.5 h 504"
       stroke="#000000"
       stroke-width="0"
       stroke-linejoin="round"
       stroke-miterlimit="10"
       fill="none"
       fill-rule="evenodd"
       id="path5" />
    <path
       d="m 889.5,535.5 10e-5,-5"
       stroke="#000000"
       stroke-width="0"
       stroke-linejoin="round"
       stroke-miterlimit="10"
       fill="none"
       fill-rule="evenodd"
       id="path6"
       style="fill:none;fill-opacity:1;stroke:#000000;stroke-opacity:1;stroke-width:1;stroke-dasharray:none" />
    <path
       d="m 809.5,535.5 10e-5,-5"
       stroke="#000000"
       stroke-width="0"
       stroke-linejoin="round"
       stroke-miterlimit="10"
       fill="none"
       fill-rule="evenodd"
       id="path7"
       style="fill:none;fill-opacity:1;stroke:#000000;stroke-opacity:1;stroke-width:1;stroke-dasharray:none" />
    <path
       d="m 729.5,535.5 10e-5,-5"
       stroke="#000000"
       stroke-width="0"
       stroke-linejoin="round"
       stroke-miterlimit="10"
       fill="none"
       fill-rule="evenodd"
       id="path8"
       style="fill:none;fill-opacity:1;stroke:#000000;stroke-opacity:1;stroke-width:1;stroke-dasharray:none" />
    <path
       d="m 649.5,535.5 10e-5,-5"
       stroke="#000000"
       stroke-width="0"
       stroke-linejoin="round"
       stroke-miterlimit="10"
       fill="none"
       fill-rule="evenodd"
       id="path9"
       style="fill:none;fill-opacity:1;stroke:#000000;stroke-opacity:1;stroke-width:1;stroke-dasharray:none" />
    <path
       d="m 569.5,535.5 10e-5,-5"
       stroke="#000000"
       stroke-width="0"
       stroke-linejoin="round"
       stroke-miterlimit="10"
       fill="none"
       fill-rule="evenodd"
       id="path10"
       style="fill:none;fill-opacity:1;stroke:#000000;stroke-opacity:1;stroke-width:1;stroke-dasharray:none" />
    <path
       d="m 489.5,535.5 10e-5,-5"
       stroke="#000000"
       stroke-width="0"
       stroke-linejoin="round"
       stroke-miterlimit="10"
       fill="none"
       fill-rule="evenodd"
       id="path11"
       style="fill:none;fill-opacity:1;stroke:#000000;stroke-opacity:1;stroke-width:1;stroke-dasharray:none" />
    <path
       d="m 409.5,535.5 10e-5,-5"
       stroke="#000000"
       stroke-width="0"
       stroke-linejoin="round"
       stroke-miterlimit="10"
       fill="none"
       fill-rule="evenodd"
       id="path12"
       style="fill:none;fill-opacity:1;stroke:#000000;stroke-opacity:1;stroke-width:1;stroke-dasharray:none" />
    <path
       d="m 409.5,345.5 h 80.069 L 569.5,431.546 649.569,474.5 H 729.5 809.569 889.5"
       stroke="#000000"
       stroke-width="1.16672"
       stroke-linejoin="round"
       stroke-miterlimit="10"
       fill="none"
       fill-rule="evenodd"
       id="path13" />
    <path
       d="m 409.5,345.5 h 80.069 l 79.931,86 80.069,-42.931 H 729.5 809.569 889.5"
       stroke="#000000"
       stroke-width="1.16672"
       stroke-linejoin="round"
       stroke-miterlimit="10"
       fill="none"
       fill-rule="evenodd"
       id="path19" />
    <path
       d="m 409.5,345.5 h 80.069 l 79.931,-86 80.069,43 H 729.5 809.569 889.5"
       stroke="#000000"
       stroke-width="1.16672"
       stroke-linejoin="round"
       stroke-miterlimit="10"
       fill="none"
       fill-rule="evenodd"
       id="path25" />
    <path
       d="m 409.5,345.5 h 80.069 L 569.5,259.592 649.569,216.5 H 729.5 809.569 889.5"
       stroke="#000000"
       stroke-width="1.16672"
       stroke-linejoin="round"
       stroke-miterlimit="10"
       fill="none"
       fill-rule="evenodd"
       id="path31" />
    <g
       id="g445">
      <rect
         x="520"
         y="528"
         width="1"
         height="2"
         id="rect36" />
      <rect
         x="520"
         y="522"
         width="1"
         height="2"
         id="rect37" />
      <rect
         x="520"
         y="515"
         width="1"
         height="2"
         id="rect38" />
      <rect
         x="520"
         y="508"
         width="1"
         height="3"
         id="rect39" />
      <rect
         x="520"
         y="502"
         width="1"
         height="2"
         id="rect40" />
      <rect
         x="520"
         y="495"
         width="1"
         height="2"
         id="rect41" />
      <rect
         x="520"
         y="489"
         width="1"
         height="2"
         id="rect42" />
      <rect
         x="520"
         y="482"
         width="1"
         height="2"
         id="rect43" />
      <rect
         x="520"
         y="475"
         width="1"
         height="3"
         id="rect44" />
      <rect
         x="520"
         y="469"
         width="1"
         height="2"
         id="rect45" />
      <rect
         x="520"
         y="462"
         width="1"
         height="2"
         id="rect46" />
      <rect
         x="520"
         y="455"
         width="1"
         height="3"
         id="rect47" />
      <rect
         x="520"
         y="449"
         width="1"
         height="2"
         id="rect48" />
      <rect
         x="520"
         y="442"
         width="1"
         height="2"
         id="rect49" />
      <rect
         x="520"
         y="436"
         width="1"
         height="2"
         id="rect50" />
      <rect
         x="520"
         y="429"
         width="1"
         height="2"
         id="rect51" />
      <rect
         x="520"
         y="422"
         width="1"
         height="3"
         id="rect52" />
      <rect
         x="520"
         y="416"
         width="1"
         height="2"
         id="rect53" />
      <rect
         x="520"
         y="409"
         width="1"
         height="2"
         id="rect54" />
      <rect
         x="520"
         y="402"
         width="1"
         height="3"
         id="rect55" />
      <rect
         x="520"
         y="396"
         width="1"
         height="2"
         id="rect56" />
      <rect
         x="520"
         y="389"
         width="1"
         height="2"
         id="rect57" />
      <rect
         x="520"
         y="383"
         width="1"
         height="2"
         id="rect58" />
      <rect
         x="520"
         y="376"
         width="1"
         height="2"
         id="rect59" />
      <rect
         x="520"
         y="369"
         width="1"
         height="3"
         id="rect60" />
      <rect
         x="520"
         y="363"
         width="1"
         height="2"
         id="rect61" />
      <rect
         x="520"
         y="356"
         width="1"
         height="2"
         id="rect62" />
      <rect
         x="520"
         y="350"
         width="1"
         height="2"
         id="rect63" />
      <rect
         x="520"
         y="343"
         width="1"
         height="2"
         id="rect64" />
      <rect
         x="520"
         y="336"
         width="1"
         height="3"
         id="rect65" />
      <rect
         x="520"
         y="330"
         width="1"
         height="2"
         id="rect66" />
      <rect
         x="520"
         y="323"
         width="1"
         height="2"
         id="rect67" />
      <rect
         x="520"
         y="316"
         width="1"
         height="3"
         id="rect68" />
      <rect
         x="520"
         y="310"
         width="1"
         height="2"
         id="rect69" />
      <rect
         x="520"
         y="303"
         width="1"
         height="2"
         id="rect70" />
      <rect
         x="520"
         y="297"
         width="1"
         height="2"
         id="rect71" />
      <rect
         x="520"
         y="290"
         width="1"
         height="2"
         id="rect72" />
      <rect
         x="520"
         y="283"
         width="1"
         height="3"
         id="rect73" />
      <rect
         x="520"
         y="277"
         width="1"
         height="2"
         id="rect74" />
      <rect
         x="520"
         y="270"
         width="1"
         height="2"
         id="rect75" />
      <rect
         x="520"
         y="263"
         width="1"
         height="3"
         id="rect76" />
      <rect
         x="520"
         y="257"
         width="1"
         height="2"
         id="rect77" />
      <rect
         x="520"
         y="250"
         width="1"
         height="2"
         id="rect78" />
      <rect
         x="520"
         y="244"
         width="1"
         height="2"
         id="rect79" />
      <rect
         x="520"
         y="237"
         width="1"
         height="2"
         id="rect80" />
      <rect
         x="520"
         y="230"
         width="1"
         height="3"
         id="rect81" />
      <rect
         x="520"
         y="224"
         width="1"
         height="2"
         id="rect82" />
      <rect
         x="520"
         y="217"
         width="1"
         height="2"
         id="rect83" />
      <rect
         x="520"
         y="211"
         width="1"
         height="2"
         id="rect84" />
      <rect
         x="520"
         y="204"
         width="1"
         height="2"
         id="rect85" />
      <rect
         x="520"
         y="197"
         width="1"
         height="3"
         id="rect86" />
      <rect
         x="520"
         y="191"
         width="1"
         height="2"
         id="rect87" />
      <rect
         x="520"
         y="184"
         width="1"
         height="2"
         id="rect88" />
      <rect
         x="520"
         y="177"
         width="1"
         height="3"
         id="rect89" />
      <rect
         x="520"
         y="171"
         width="1"
         height="2"
         id="rect90" />
      <rect
         x="520"
         y="164"
         width="1"
         height="2"
         id="rect91" />
    </g>
    <g
       id="g444">
      <rect
         x="608"
         y="528"
         width="1"
         height="2"
         id="rect204" />
      <rect
         x="608"
         y="522"
         width="1"
         height="2"
         id="rect205" />
      <rect
         x="608"
         y="515"
         width="1"
         height="2"
         id="rect206" />
      <rect
         x="608"
         y="508"
         width="1"
         height="3"
         id="rect207" />
      <rect
         x="608"
         y="502"
         width="1"
         height="2"
         id="rect208" />
      <rect
         x="608"
         y="495"
         width="1"
         height="2"
         id="rect209" />
      <rect
         x="608"
         y="489"
         width="1"
         height="2"
         id="rect210" />
      <rect
         x="608"
         y="482"
         width="1"
         height="2"
         id="rect211" />
      <rect
         x="608"
         y="475"
         width="1"
         height="3"
         id="rect212" />
      <rect
         x="608"
         y="469"
         width="1"
         height="2"
         id="rect213" />
      <rect
         x="608"
         y="462"
         width="1"
         height="2"
         id="rect214" />
      <rect
         x="608"
         y="455"
         width="1"
         height="3"
         id="rect215" />
      <rect
         x="608"
         y="449"
         width="1"
         height="2"
         id="rect216" />
      <rect
         x="608"
         y="442"
         width="1"
         height="2"
         id="rect217" />
      <rect
         x="608"
         y="436"
         width="1"
         height="2"
         id="rect218" />
      <rect
         x="608"
         y="429"
         width="1"
         height="2"
         id="rect219" />
      <rect
         x="608"
         y="422"
         width="1"
         height="3"
         id="rect220" />
      <rect
         x="608"
         y="416"
         width="1"
         height="2"
         id="rect221" />
      <rect
         x="608"
         y="409"
         width="1"
         height="2"
         id="rect222" />
      <rect
         x="608"
         y="402"
         width="1"
         height="3"
         id="rect223" />
      <rect
         x="608"
         y="396"
         width="1"
         height="2"
         id="rect224" />
      <rect
         x="608"
         y="389"
         width="1"
         height="2"
         id="rect225" />
      <rect
         x="608"
         y="383"
         width="1"
         height="2"
         id="rect226" />
      <rect
         x="608"
         y="376"
         width="1"
         height="2"
         id="rect227" />
      <rect
         x="608"
         y="369"
         width="1"
         height="3"
         id="rect228" />
      <rect
         x="608"
         y="363"
         width="1"
         height="2"
         id="rect229" />
      <rect
         x="608"
         y="356"
         width="1"
         height="2"
         id="rect230" />
      <rect
         x="608"
         y="350"
         width="1"
         height="2"
         id="rect231" />
      <rect
         x="608"
         y="343"
         width="1"
         height="2"
         id="rect232" />
      <rect
         x="608"
         y="336"
         width="1"
         height="3"
         id="rect233" />
      <rect
         x="608"
         y="330"
         width="1"
         height="2"
         id="rect234" />
      <rect
         x="608"
         y="323"
         width="1"
         height="2"
         id="rect235" />
      <rect
         x="608"
         y="316"
         width="1"
         height="3"
         id="rect236" />
      <rect
         x="608"
         y="310"
         width="1"
         height="2"
         id="rect237" />
      <rect
         x="608"
         y="303"
         width="1"
         height="2"
         id="rect238" />
      <rect
         x="608"
         y="297"
         width="1"
         height="2"
         id="rect239" />
      <rect
         x="608"
         y="290"
         width="1"
         height="2"
         id="rect240" />
      <rect
         x="608"
         y="283"
         width="1"
         height="3"
         id="rect241" />
      <rect
         x="608"
         y="277"
         width="1"
         height="2"
         id="rect242" />
      <rect
         x="608"
         y="270"
         width="1"
         height="2"
         id="rect243" />
      <rect
         x="608"
         y="263"
         width="1"
         height="3"
         id="rect244" />
      <rect
         x="608"
         y="257"
         width="1"
         height="2"
         id="rect245" />
      <rect
         x="608"
         y="250"
         width="1"
         height="2"
         id="rect246" />
      <rect
         x="608"
         y="244"
         width="1"
         height="2"
         id="rect247" />
      <rect
         x="608"
         y="237"
         width="1"
         height="2"
         id="rect248" />
      <rect
         x="608"
         y="230"
         width="1"
         height="3"
         id="rect249" />
      <rect
         x="608"
         y="224"
         width="1"
         height="2"
         id="rect250" />
      <rect
         x="608"
         y="217"
         width="1"
         height="2"
         id="rect251" />
      <rect
         x="608"
         y="211"
         width="1"
         height="2"
         id="rect252" />
      <rect
         x="608"
         y="204"
         width="1"
         height="2"
         id="rect253" />
      <rect
         x="608"
         y="197"
         width="1"
         height="3"
         id="rect254" />
      <rect
         x="608"
         y="191"
         width="1"
         height="2"
         id="rect255" />
      <rect
         x="608"
         y="184"
         width="1"
         height="2"
         id="rect256" />
      <rect
         x="608"
         y="177"
         width="1"
         height="3"
         id="rect257" />
      <rect
         x="608"
         y="171"
         width="1"
         height="2"
         id="rect258" />
      <rect
         x="608"
         y="164"
         width="1"
         height="2"
         id="rect259" />
    </g>
    <path
       d="m 639.5,475 c 0,-5.799 4.477,-10.5 10,-10.5 5.523,0 10,4.701 10,10.5 0,5.799 -4.477,10.5 -10,10.5 -5.523,0 -10,-4.701 -10,-10.5 z"
       stroke="#000000"
       stroke-width="1.16672"
       stroke-linejoin="round"
       stroke-miterlimit="10"
       fill="#ccffcc"
       fill-rule="evenodd"
       id="path297" />
    <path
       d="m 719.5,475 c 0,-5.799 4.477,-10.5 10,-10.5 5.523,0 10,4.701 10,10.5 0,5.799 -4.477,10.5 -10,10.5 -5.523,0 -10,-4.701 -10,-10.5 z"
       stroke="#000000"
       stroke-width="1.16672"
       stroke-linejoin="round"
       stroke-miterlimit="10"
       fill="#ccffcc"
       fill-rule="evenodd"
       id="path298" />
    <path
       d="m 799.5,475 c 0,-5.799 4.477,-10.5 10,-10.5 5.523,0 10,4.701 10,10.5 0,5.799 -4.477,10.5 -10,10.5 -5.523,0 -10,-4.701 -10,-10.5 z"
       stroke="#000000"
       stroke-width="1.16672"
       stroke-linejoin="round"
       stroke-miterlimit="10"
       fill="#ccffcc"
       fill-rule="evenodd"
       id="path299" />
    <path
       d="m 879.5,475 c 0,-5.799 4.477,-10.5 10,-10.5 5.523,0 10,4.701 10,10.5 0,5.799 -4.477,10.5 -10,10.5 -5.523,0 -10,-4.701 -10,-10.5 z"
       stroke="#000000"
       stroke-width="1.16672"
       stroke-linejoin="round"
       stroke-miterlimit="10"
       fill="#ccffcc"
       fill-rule="evenodd"
       id="path300" />
    <path
       d="m 398.5,345.5 c 0,-5.523 4.701,-10 10.5,-10 5.799,0 10.5,4.477 10.5,10 0,5.523 -4.701,10 -10.5,10 -5.799,0 -10.5,-4.477 -10.5,-10 z"
       stroke="#000000"
       stroke-width="1.16672"
       stroke-linejoin="round"
       stroke-miterlimit="10"
       fill="#ccffcc"
       fill-rule="evenodd"
       id="path336" />
    <path
       d="m 479.5,345.5 c 0,-5.523 4.477,-10 10,-10 5.523,0 10,4.477 10,10 0,5.523 -4.477,10 -10,10 -5.523,0 -10,-4.477 -10,-10 z"
       stroke="#000000"
       stroke-width="1.16672"
       stroke-linejoin="round"
       stroke-miterlimit="10"
       fill="#ccffcc"
       fill-rule="evenodd"
       id="path337" />
    <path
       d="m 559.5,432 c 0,-5.799 4.477,-10.5 10,-10.5 5.523,0 10,4.701 10,10.5 0,5.799 -4.477,10.5 -10,10.5 -5.523,0 -10,-4.701 -10,-10.5 z"
       stroke="#000000"
       stroke-width="1.16672"
       stroke-linejoin="round"
       stroke-miterlimit="10"
       fill="#ccffcc"
       fill-rule="evenodd"
       id="path338" />
    <path
       d="m 639.5,389 c 0,-5.799 4.477,-10.5 10,-10.5 5.523,0 10,4.701 10,10.5 0,5.799 -4.477,10.5 -10,10.5 -5.523,0 -10,-4.701 -10,-10.5 z"
       stroke="#000000"
       stroke-width="1.16672"
       stroke-linejoin="round"
       stroke-miterlimit="10"
       fill="#ccffcc"
       fill-rule="evenodd"
       id="path339" />
    <path
       d="m 719.5,389 c 0,-5.799 4.477,-10.5 10,-10.5 5.523,0 10,4.701 10,10.5 0,5.799 -4.477,10.5 -10,10.5 -5.523,0 -10,-4.701 -10,-10.5 z"
       stroke="#000000"
       stroke-width="1.16672"
       stroke-linejoin="round"
       stroke-miterlimit="10"
       fill="#ccffcc"
       fill-rule="evenodd"
       id="path340" />
    <path
       d="m 799.5,389 c 0,-5.799 4.477,-10.5 10,-10.5 5.523,0 10,4.701 10,10.5 0,5.799 -4.477,10.5 -10,10.5 -5.523,0 -10,-4.701 -10,-10.5 z"
       stroke="#000000"
       stroke-width="1.16672"
       stroke-linejoin="round"
       stroke-miterlimit="10"
       fill="#ccffcc"
       fill-rule="evenodd"
       id="path341" />
    <path
       d="m 879.5,389 c 0,-5.799 4.477,-10.5 10,-10.5 5.523,0 10,4.701 10,10.5 0,5.799 -4.477,10.5 -10,10.5 -5.523,0 -10,-4.701 -10,-10.5 z"
       stroke="#000000"
       stroke-width="1.16672"
       stroke-linejoin="round"
       stroke-miterlimit="10"
       fill="#ccffcc"
       fill-rule="evenodd"
       id="path342" />
    <path
       d="m 559.5,259.5 c 0,-5.523 4.477,-10 10,-10 5.523,0 10,4.477 10,10 0,5.523 -4.477,10 -10,10 -5.523,0 -10,-4.477 -10,-10 z"
       stroke="#000000"
       stroke-width="1.16672"
       stroke-linejoin="round"
       stroke-miterlimit="10"
       fill="#ccffcc"
       fill-rule="evenodd"
       id="path380" />
    <path
       d="m 639.5,302.5 c 0,-5.523 4.477,-10 10,-10 5.523,0 10,4.477 10,10 0,5.523 -4.477,10 -10,10 -5.523,0 -10,-4.477 -10,-10 z"
       stroke="#000000"
       stroke-width="1.16672"
       stroke-linejoin="round"
       stroke-miterlimit="10"
       fill="#ccffcc"
       fill-rule="evenodd"
       id="path381" />
    <path
       d="m 719.5,302.5 c 0,-5.523 4.477,-10 10,-10 5.523,0 10,4.477 10,10 0,5.523 -4.477,10 -10,10 -5.523,0 -10,-4.477 -10,-10 z"
       stroke="#000000"
       stroke-width="1.16672"
       stroke-linejoin="round"
       stroke-miterlimit="10"
       fill="#ccffcc"
       fill-rule="evenodd"
       id="path382" />
    <path
       d="m 799.5,302.5 c 0,-5.523 4.477,-10 10,-10 5.523,0 10,4.477 10,10 0,5.523 -4.477,10 -10,10 -5.523,0 -10,-4.477 -10,-10 z"
       stroke="#000000"
       stroke-width="1.16672"
       stroke-linejoin="round"
       stroke-miterlimit="10"
       fill="#ccffcc"
       fill-rule="evenodd"
       id="path383" />
    <path
       d="m 879.5,302.5 c 0,-5.523 4.477,-10 10,-10 5.523,0 10,4.477 10,10 0,5.523 -4.477,10 -10,10 -5.523,0 -10,-4.477 -10,-10 z"
       stroke="#000000"
       stroke-width="1.16672"
       stroke-linejoin="round"
       stroke-miterlimit="10"
       fill="#ccffcc"
       fill-rule="evenodd"
       id="path384" />
    <path
       d="m 639.5,216.5 c 0,-5.523 4.477,-10 10,-10 5.523,0 10,4.477 10,10 0,5.523 -4.477,10 -10,10 -5.523,0 -10,-4.477 -10,-10 z"
       stroke="#000000"
       stroke-width="1.16672"
       stroke-linejoin="round"
       stroke-miterlimit="10"
       fill="#ccffcc"
       fill-rule="evenodd"
       id="path423" />
    <path
       d="m 719.5,216.5 c 0,-5.523 4.477,-10 10,-10 5.523,0 10,4.477 10,10 0,5.523 -4.477,10 -10,10 -5.523,0 -10,-4.477 -10,-10 z"
       stroke="#000000"
       stroke-width="1.16672"
       stroke-linejoin="round"
       stroke-miterlimit="10"
       fill="#ccffcc"
       fill-rule="evenodd"
       id="path424" />
    <path
       d="m 799.5,216.5 c 0,-5.523 4.477,-10 10,-10 5.523,0 10,4.477 10,10 0,5.523 -4.477,10 -10,10 -5.523,0 -10,-4.477 -10,-10 z"
       stroke="#000000"
       stroke-width="1.16672"
       stroke-linejoin="round"
       stroke-miterlimit="10"
       fill="#ccffcc"
       fill-rule="evenodd"
       id="path425" />
    <path
       d="m 879.5,216.5 c 0,-5.523 4.477,-10 10,-10 5.523,0 10,4.477 10,10 0,5.523 -4.477,10 -10,10 -5.523,0 -10,-4.477 -10,-10 z"
       stroke="#000000"
       stroke-width="1.16672"
       stroke-linejoin="round"
       stroke-miterlimit="10"
       fill="#ccffcc"
       fill-rule="evenodd"
       id="path426" />
    <g
       id="g446">
      <text
         font-family="Arial, Arial_MSFontService, sans-serif"
         font-weight="700"
         font-size="12px"
         transform="translate(474,428)"
         id="text426">Low mitigation</text>
      <text
         font-family="Arial, Arial_MSFontService, sans-serif"
         font-weight="700"
         font-size="12px"
         transform="translate(504.833,444)"
         id="text427">50%</text>
    </g>
    <text
       font-family="Arial, Arial_MSFontService, sans-serif"
       font-weight="700"
       font-size="12px"
       id="text428"
       x="614.30011"
       y="454.03311"
       style="stroke-width:1">Low growth 50%</text>
    <text
       font-family="Arial, Arial_MSFontService, sans-serif"
       font-weight="700"
       font-size="12px"
       id="text429"
       x="614.34277"
       y="418.03189">High growth 50%</text>
    <text
       font-family="Arial, Arial_MSFontService, sans-serif"
       font-weight="700"
       font-size="12px"
       id="text430"
       x="614.30176"
       y="282.03189">Low growth 60%</text>
    <g
       id="g447">
      <text
         font-family="Arial, Arial_MSFontService, sans-serif"
         font-weight="700"
         font-size="12px"
         transform="translate(471.5,256)"
         id="text431">High mitigation</text>
      <text
         font-family="Arial, Arial_MSFontService, sans-serif"
         font-weight="700"
         font-size="12px"
         transform="translate(503.667,272)"
         id="text432">50%</text>
    </g>
    <text
       font-family="Arial, Arial_MSFontService, sans-serif"
       font-weight="700"
       font-size="12px"
       id="text433"
       x="614.34277"
       y="245.03189">High growth 40%</text>
    <rect
       x="431.5"
       y="501.5"
       width="46"
       height="24"
       stroke="#000000"
       stroke-width="0"
       stroke-miterlimit="8"
       fill="#ccffff"
       id="rect433"
       style="stroke-width:1;stroke-dasharray:none" />
    <text
       font-family="'Arial Narrow', 'Arial Narrow_MSFontService', sans-serif"
       font-style="italic"
       font-weight="700"
       font-stretch="condensed"
       font-size="13px"
       id="text434"
       x="434.55014"
       y="518">Stage 1</text>
    <rect
       x="540.5"
       y="501.5"
       width="46"
       height="24"
       stroke="#000000"
       stroke-width="0"
       stroke-miterlimit="8"
       fill="#ccffff"
       id="rect434"
       style="stroke-width:1;stroke-dasharray:none" />
    <text
       font-family="'Arial Narrow', 'Arial Narrow_MSFontService', sans-serif"
       font-style="italic"
       font-weight="700"
       font-stretch="condensed"
       font-size="13px"
       id="text435"
       x="543.55011"
       y="518">Stage 2</text>
    <rect
       x="639.5"
       y="501.5"
       width="46"
       height="24"
       stroke="#000000"
       stroke-width="0"
       stroke-miterlimit="8"
       fill="#ccffff"
       id="rect435"
       style="stroke-width:1;stroke-dasharray:none" />
    <text
       font-family="'Arial Narrow', 'Arial Narrow_MSFontService', sans-serif"
       font-style="italic"
       font-weight="700"
       font-stretch="condensed"
       font-size="13px"
       id="text436"
       x="642.55011"
       y="518">Stage 3</text>
    <text
       font-family="Arial, Arial_MSFontService, sans-serif"
       font-weight="400"
       font-size="13px"
       transform="translate(873.667,555)"
       id="text437">2060</text>
    <text
       font-family="Arial, Arial_MSFontService, sans-serif"
       font-weight="400"
       font-size="13px"
       transform="translate(793.667,555)"
       id="text438">2050</text>
    <text
       font-family="Arial, Arial_MSFontService, sans-serif"
       font-weight="400"
       font-size="13px"
       transform="translate(713.5,555)"
       id="text439">2040</text>
    <text
       font-family="Arial, Arial_MSFontService, sans-serif"
       font-weight="400"
       font-size="13px"
       transform="translate(633.5,555)"
       id="text440">2030</text>
    <text
       font-family="Arial, Arial_MSFontService, sans-serif"
       font-weight="400"
       font-size="13px"
       transform="translate(553.333,555)"
       id="text441">2020</text>
    <text
       font-family="Arial, Arial_MSFontService, sans-serif"
       font-weight="400"
       font-size="13px"
       transform="translate(473.5,555)"
       id="text442">2010</text>
    <text
       font-family="Arial, Arial_MSFontService, sans-serif"
       font-weight="400"
       font-size="13px"
       transform="translate(393.333,555)"
       id="text443">2000</text>
  </g>
</svg>
