<?xml version="1.0" encoding="UTF-8" standalone="no"?>
<svg
   width="1928.7931"
   height="1343.5715"
   xml:space="preserve"
   overflow="hidden"
   version="1.1"
   id="svg110"
   xmlns="http://www.w3.org/2000/svg"
   xmlns:svg="http://www.w3.org/2000/svg"><defs
     id="defs110" /><g
     id="g110"
     transform="translate(-19.507389,-87.783249)"><rect
       x="19.507389"
       y="87.783249"
       width="1928.7931"
       height="1343.5715"
       fill="#ffffff"
       id="rect1"
       style="stroke-width:0.938808" /><rect
       x="77.499802"
       y="451.5"
       width="1809"
       height="0.99966401"
       stroke="#000000"
       stroke-width="0"
       stroke-miterlimit="8"
       id="rect2" /><rect
       x="408.5"
       y="160.5"
       width="0.99966401"
       height="291"
       stroke="#000000"
       stroke-width="0"
       stroke-miterlimit="8"
       id="rect3" /><rect
       x="469.5"
       y="160.5"
       width="1"
       height="291"
       stroke="#000000"
       stroke-width="0"
       stroke-miterlimit="8"
       id="rect4" /><rect
       x="1153.5"
       y="160.5"
       width="6"
       height="291"
       stroke="#000000"
       stroke-width="0"
       stroke-miterlimit="8"
       id="rect5" /><rect
       x="1533.5"
       y="160.5"
       width="1"
       height="291"
       stroke="#000000"
       stroke-width="0"
       stroke-miterlimit="8"
       id="rect6" /><rect
       x="529.5"
       y="160.5"
       width="1"
       height="291"
       stroke="#000000"
       stroke-width="0"
       stroke-miterlimit="8"
       id="rect7" /><rect
       x="590.5"
       y="160.5"
       width="6"
       height="291"
       stroke="#000000"
       stroke-width="0"
       stroke-miterlimit="8"
       id="rect8" /><rect
       x="656.5"
       y="160.5"
       width="1.00006"
       height="291"
       stroke="#000000"
       stroke-width="0"
       stroke-miterlimit="8"
       id="rect9" /><rect
       x="717.5"
       y="160.5"
       width="1"
       height="291"
       stroke="#000000"
       stroke-width="0"
       stroke-miterlimit="8"
       id="rect10" /><rect
       x="783.5"
       y="160.5"
       width="0.999695"
       height="291"
       stroke="#000000"
       stroke-width="0"
       stroke-miterlimit="8"
       id="rect11" /><rect
       x="844.5"
       y="160.5"
       width="0.999695"
       height="291"
       stroke="#000000"
       stroke-width="0"
       stroke-miterlimit="8"
       id="rect12" /><rect
       x="905.5"
       y="160.5"
       width="1"
       height="291"
       stroke="#000000"
       stroke-width="0"
       stroke-miterlimit="8"
       id="rect13" /><rect
       x="971.5"
       y="160.5"
       width="0.999695"
       height="291"
       stroke="#000000"
       stroke-width="0"
       stroke-miterlimit="8"
       id="rect14" /><rect
       x="1031.5"
       y="160.5"
       width="1"
       height="291"
       stroke="#000000"
       stroke-width="0"
       stroke-miterlimit="8"
       id="rect15" /><rect
       x="1092.5"
       y="160.5"
       width="1"
       height="291"
       stroke="#000000"
       stroke-width="0"
       stroke-miterlimit="8"
       id="rect16" /><rect
       x="1467.5"
       y="160.5"
       width="1"
       height="291"
       stroke="#000000"
       stroke-width="0"
       stroke-miterlimit="8"
       id="rect17" /><rect
       x="1219.5"
       y="160.5"
       width="0.99963403"
       height="291"
       stroke="#000000"
       stroke-width="0"
       stroke-miterlimit="8"
       id="rect18" /><rect
       x="1280.5"
       y="160.5"
       width="1"
       height="291"
       stroke="#000000"
       stroke-width="0"
       stroke-miterlimit="8"
       id="rect19" /><rect
       x="1346.5"
       y="160.5"
       width="0.99963403"
       height="291"
       stroke="#000000"
       stroke-width="0"
       stroke-miterlimit="8"
       id="rect20" /><rect
       x="1406.5"
       y="160.5"
       width="1"
       height="291"
       stroke="#000000"
       stroke-width="0"
       stroke-miterlimit="8"
       id="rect21" /><rect
       x="1655.5"
       y="160.5"
       width="6"
       height="291"
       stroke="#000000"
       stroke-width="0"
       stroke-miterlimit="8"
       id="rect22" /><rect
       x="1594.5"
       y="160.5"
       width="0.99963403"
       height="291"
       stroke="#000000"
       stroke-width="0"
       stroke-miterlimit="8"
       id="rect23" /><rect
       x="281.5"
       y="160.5"
       width="5.9998498"
       height="291"
       stroke="#000000"
       stroke-width="0"
       stroke-miterlimit="8"
       id="rect24" /><rect
       x="342.5"
       y="160.5"
       width="1"
       height="291"
       stroke="#000000"
       stroke-width="0"
       stroke-miterlimit="8"
       id="rect25" /><path
       d="m 312.00739,484.5 v 0 0 h 249 v 0 0 83 0 0 h -249 v 0 0 z m 0,83 v 0 h 249 v 0 -83 0 h -249 v 0 z"
       stroke="#000000"
       stroke-width="0"
       stroke-linejoin="round"
       stroke-miterlimit="10"
       fill-rule="evenodd"
       id="path25"
       style="stroke-width:1;stroke-dasharray:none" /><text
       font-family="Calibri, Calibri_MSFontService, sans-serif"
       font-weight="400"
       font-size="50px"
       id="text25"
       style="font-style:normal;font-variant:normal;font-weight:normal;font-stretch:normal;font-size:50px;font-family:Calibri, Calibri_MSFontService, sans-serif;-inkscape-font-specification:'Calibri, Calibri_MSFontService, sans-serif, Normal';font-variant-ligatures:normal;font-variant-caps:normal;font-variant-numeric:normal;font-variant-east-asian:normal"
       x="332.30817"
       y="544"><tspan
         id="tspan113"
         x="332.30817"
         y="544">Period n-1</tspan></text><path
       style="stroke-width:1;stroke-dasharray:none;fill:none;stroke:#000000;stroke-opacity:1"
       d="m 770.00739,484.5 v 0 0 h 209.276 v 0 h 5.724 v 83 h -5.724 v 0 h -209.276 v 0 0 z"
       id="path28" /><text
       font-family="Calibri, Calibri_MSFontService, sans-serif"
       font-weight="400"
       font-size="50px"
       id="text29"
       style="font-style:normal;font-variant:normal;font-weight:normal;font-stretch:normal;font-size:50px;font-family:Calibri, Calibri_MSFontService, sans-serif;-inkscape-font-specification:'Calibri, Calibri_MSFontService, sans-serif, Normal';font-variant-ligatures:normal;font-variant-caps:normal;font-variant-numeric:normal;font-variant-east-asian:normal"
       x="790.30817"
       y="544"><tspan
         id="tspan114"
         x="790.30817"
         y="544">Period n</tspan></text><path
       d="m 1280.0074,484.5 v 0 0 h 259 v 0 83 0 0 h -259 v 0 0 z m 0,83 v 0 h 259 v 0 -83 0 h -259 v 0 z"
       stroke="#000000"
       stroke-width="0"
       stroke-linejoin="round"
       stroke-miterlimit="10"
       fill-rule="evenodd"
       id="path30"
       style="stroke-width:1;stroke-dasharray:none" /><text
       font-family="Calibri, Calibri_MSFontService, sans-serif"
       font-weight="400"
       font-size="50px"
       id="text31"
       style="font-style:normal;font-variant:normal;font-weight:normal;font-stretch:normal;font-size:50px;font-family:Calibri, Calibri_MSFontService, sans-serif;-inkscape-font-specification:'Calibri, Calibri_MSFontService, sans-serif, Normal';font-variant-ligatures:normal;font-variant-caps:normal;font-variant-numeric:normal;font-variant-east-asian:normal"
       x="1300.3082"
       y="544"><tspan
         id="tspan115"
         x="1300.3082"
         y="544">Period n+1</tspan></text><rect
       x="77.499802"
       y="1094.5"
       width="1809"
       height="1"
       stroke="#000000"
       stroke-width="0"
       stroke-miterlimit="8"
       id="rect32" /><rect
       x="408.5"
       y="797.5"
       width="0.99966401"
       height="297"
       stroke="#000000"
       stroke-width="0"
       stroke-miterlimit="8"
       id="rect33" /><rect
       x="469.5"
       y="797.5"
       width="1"
       height="297"
       stroke="#000000"
       stroke-width="0"
       stroke-miterlimit="8"
       id="rect34" /><rect
       x="1153.5"
       y="797.5"
       width="6"
       height="297"
       stroke="#000000"
       stroke-width="0"
       stroke-miterlimit="8"
       id="rect35" /><rect
       x="1533.5"
       y="797.5"
       width="1"
       height="297"
       stroke="#000000"
       stroke-width="0"
       stroke-miterlimit="8"
       id="rect36" /><rect
       x="529.5"
       y="797.5"
       width="1"
       height="297"
       stroke="#000000"
       stroke-width="0"
       stroke-miterlimit="8"
       id="rect37" /><rect
       x="590.5"
       y="797.5"
       width="6"
       height="297"
       stroke="#000000"
       stroke-width="0"
       stroke-miterlimit="8"
       id="rect38" /><rect
       x="656.5"
       y="797.5"
       width="1.00006"
       height="297"
       stroke="#000000"
       stroke-width="0"
       stroke-miterlimit="8"
       id="rect39" /><rect
       x="717.5"
       y="797.5"
       width="1"
       height="297"
       stroke="#000000"
       stroke-width="0"
       stroke-miterlimit="8"
       id="rect40" /><rect
       x="783.5"
       y="797.5"
       width="0.999695"
       height="297"
       stroke="#000000"
       stroke-width="0"
       stroke-miterlimit="8"
       id="rect41" /><rect
       x="844.5"
       y="797.5"
       width="0.999695"
       height="297"
       stroke="#000000"
       stroke-width="0"
       stroke-miterlimit="8"
       id="rect42" /><rect
       x="905.5"
       y="797.5"
       width="1"
       height="297"
       stroke="#000000"
       stroke-width="0"
       stroke-miterlimit="8"
       id="rect43" /><rect
       x="971.5"
       y="797.5"
       width="0.999695"
       height="297"
       stroke="#000000"
       stroke-width="0"
       stroke-miterlimit="8"
       id="rect44" /><rect
       x="1031.5"
       y="797.5"
       width="1"
       height="297"
       stroke="#000000"
       stroke-width="0"
       stroke-miterlimit="8"
       id="rect45" /><rect
       x="1092.5"
       y="797.5"
       width="1"
       height="297"
       stroke="#000000"
       stroke-width="0"
       stroke-miterlimit="8"
       id="rect46" /><rect
       x="1467.5"
       y="797.5"
       width="1"
       height="297"
       stroke="#000000"
       stroke-width="0"
       stroke-miterlimit="8"
       id="rect47" /><rect
       x="1219.5"
       y="797.5"
       width="0.99963403"
       height="297"
       stroke="#000000"
       stroke-width="0"
       stroke-miterlimit="8"
       id="rect48" /><rect
       x="1280.5"
       y="797.5"
       width="1"
       height="297"
       stroke="#000000"
       stroke-width="0"
       stroke-miterlimit="8"
       id="rect49" /><rect
       x="1346.5"
       y="797.5"
       width="0.99963403"
       height="297"
       stroke="#000000"
       stroke-width="0"
       stroke-miterlimit="8"
       id="rect50" /><rect
       x="1406.5"
       y="797.5"
       width="1"
       height="297"
       stroke="#000000"
       stroke-width="0"
       stroke-miterlimit="8"
       id="rect51" /><rect
       x="1655.5"
       y="797.5"
       width="6"
       height="297"
       stroke="#000000"
       stroke-width="0"
       stroke-miterlimit="8"
       id="rect52" /><rect
       x="1594.5"
       y="797.5"
       width="0.99963403"
       height="297"
       stroke="#000000"
       stroke-width="0"
       stroke-miterlimit="8"
       id="rect53" /><rect
       x="281.5"
       y="797.5"
       width="5.9998498"
       height="297"
       stroke="#000000"
       stroke-width="0"
       stroke-miterlimit="8"
       id="rect54" /><rect
       x="342.5"
       y="797.5"
       width="1"
       height="297"
       stroke="#000000"
       stroke-width="0"
       stroke-miterlimit="8"
       id="rect55" /><path
       style="stroke-width:1;stroke-dasharray:none;stroke:#000000;stroke-opacity:1;fill:none"
       d="m 311.00739,1127.5 v 0 0 h 249 v 0 0 83 0 0 h -249 v 0 0 z"
       id="path55" /><text
       font-family="Calibri, Calibri_MSFontService, sans-serif"
       font-weight="400"
       font-size="50px"
       id="text55"
       style="font-style:normal;font-variant:normal;font-weight:normal;font-stretch:normal;font-size:50px;font-family:Calibri, Calibri_MSFontService, sans-serif;-inkscape-font-specification:'Calibri, Calibri_MSFontService, sans-serif, Normal';font-variant-ligatures:normal;font-variant-caps:normal;font-variant-numeric:normal;font-variant-east-asian:normal"
       x="332.30817"
       y="1182"><tspan
         id="tspan118"
         x="332.30817"
         y="1182">Period n-1</tspan></text><path
       d="m 769.50739,1127.5 v 0 0 h 209.276 v 0 h 5.724 v 83 h -5.724 v 0 h -209.276 v 0 0 z"
       id="path58"
       style="fill:none;stroke:#000000;stroke-opacity:1" /><text
       font-family="Calibri, Calibri_MSFontService, sans-serif"
       font-weight="400"
       font-size="50px"
       id="text59"
       style="font-style:normal;font-variant:normal;font-weight:normal;font-stretch:normal;font-size:50px;font-family:Calibri, Calibri_MSFontService, sans-serif;-inkscape-font-specification:'Calibri, Calibri_MSFontService, sans-serif, Normal';font-variant-ligatures:normal;font-variant-caps:normal;font-variant-numeric:normal;font-variant-east-asian:normal"
       x="790.30817"
       y="1182"><tspan
         id="tspan117"
         x="790.30817"
         y="1182">Period n</tspan></text><path
       style="stroke-width:1;stroke-dasharray:none;fill:none;stroke:#000000;stroke-opacity:1"
       d="m 1279.5074,1127.5 v 0 0 h 259 v 0 0 83 0 h -259 v 0 0 z"
       id="path60" /><text
       font-family="Calibri, Calibri_MSFontService, sans-serif"
       font-weight="400"
       font-size="50px"
       id="text61"
       style="font-style:normal;font-variant:normal;font-weight:normal;font-stretch:normal;font-size:50px;font-family:Calibri, Calibri_MSFontService, sans-serif;-inkscape-font-specification:'Calibri, Calibri_MSFontService, sans-serif, Normal';font-variant-ligatures:normal;font-variant-caps:normal;font-variant-numeric:normal;font-variant-east-asian:normal"
       x="1300.3082"
       y="1182"><tspan
         id="tspan116"
         x="1300.3082"
         y="1182">Period n+1</tspan></text><text
       font-family="Calibri,Calibri_MSFontService,sans-serif"
       font-weight="400"
       font-size="50"
       transform="translate(281.187,648)"
       id="text63"
       style="font-style:normal;font-variant:normal;font-weight:normal;font-stretch:normal;font-size:50px;font-family:Calibri, Calibri_MSFontService, sans-serif;-inkscape-font-specification:'Calibri, Calibri_MSFontService, sans-serif, Normal';font-variant-ligatures:normal;font-variant-caps:normal;font-variant-numeric:normal;font-variant-east-asian:normal"><tspan
         id="tspan112"
         x="0"
         y="0">Figure M.a) The activity is considered constant in each period</tspan></text><text
       font-family="Calibri,Calibri_MSFontService,sans-serif"
       font-weight="400"
       font-size="50"
       transform="translate(159.958,1314)"
       id="text72"
       style="font-style:normal;font-variant:normal;font-weight:normal;font-stretch:normal;font-size:50px;font-family:Calibri, Calibri_MSFontService, sans-serif;-inkscape-font-specification:'Calibri, Calibri_MSFontService, sans-serif, Normal';font-variant-ligatures:normal;font-variant-caps:normal;font-variant-numeric:normal;font-variant-east-asian:normal"><tspan
         id="tspan111"
         x="0"
         y="0">Figure M.b) The activity is linearly interpolated between the middle-points of</tspan></text><text
       font-family="Calibri,Calibri_MSFontService,sans-serif"
       font-weight="400"
       font-size="50"
       transform="translate(159.958,1374)"
       id="text83"
       style="font-style:normal;font-variant:normal;font-weight:normal;font-stretch:normal;font-size:50px;font-family:Calibri, Calibri_MSFontService, sans-serif;-inkscape-font-specification:'Calibri, Calibri_MSFontService, sans-serif, Normal';font-variant-ligatures:normal;font-variant-caps:normal;font-variant-numeric:normal;font-variant-east-asian:normal"><tspan
         id="tspan110"
         x="0"
         y="0">successive periods</tspan></text><rect
       x="281.5"
       y="281.5"
       width="315"
       height="11"
       stroke="#000000"
       stroke-width="0"
       stroke-miterlimit="8"
       id="rect84" /><rect
       x="596.5"
       y="209.5"
       width="562"
       height="11"
       stroke="#000000"
       stroke-width="0"
       stroke-miterlimit="8"
       id="rect85" /><rect
       x="1158.5"
       y="352.5"
       width="497"
       height="11"
       stroke="#000000"
       stroke-width="0"
       stroke-miterlimit="8"
       id="rect86" /><rect
       x="408.5"
       y="913.5"
       width="61.000198"
       height="11"
       stroke="#000000"
       stroke-width="0"
       stroke-miterlimit="8"
       id="rect87" /><rect
       x="844.5"
       y="841.5"
       width="66"
       height="11"
       stroke="#000000"
       stroke-width="0"
       stroke-miterlimit="8"
       id="rect88" /><rect
       x="1406.5"
       y="995.5"
       width="60.999901"
       height="11"
       stroke="#000000"
       stroke-width="0"
       stroke-miterlimit="8"
       id="rect89" /><path
       d="m 430.5,918.5 h 5.501 v 0 z m 11.003,-5.462 h 11.003 v 5.462 h -11.003 z m 16.734,0 h 5.501 v 0 z m 16.504,0 5.502,-5.461 v 5.461 z m 11.003,-5.461 h 11.003 v 0 l -11.003,5.461 z m 16.505,0 h 5.501 v 0 z m 11.003,-5.462 h 11.003 v 5.462 h -11.003 z m 16.504,0 h 5.502 v 0 z m 11.232,0 11.003,-5.461 v 5.461 h -5.501 z m 16.505,-5.461 h 11.003 v 0 l -11.003,5.461 z m 16.504,0 h 5.502 v 0 z M 585,891.192 h 11.003 v 5.462 H 585 Z m 16.505,0 h 5.501 v 0 z m 11.003,0 11.232,-5.461 v 5.461 z m 16.734,-5.461 h 5.501 5.502 l -11.003,5.461 z m 16.504,0 h 5.502 v 0 z m 11.003,0 11.003,-5.462 v 5.462 z m 16.505,-5.462 h 5.501 v 0 z m 11.003,0 11.003,-5.461 v 5.461 z m 16.504,-5.461 h 5.731 v 0 l -5.731,5.461 z m 16.734,0 h 5.502 v 0 z m 11.003,0 11.003,-5.462 v 5.462 z m 16.505,-5.462 h 5.501 v 0 z m 11.003,0 11.003,-5.462 v 5.462 z m 16.504,-5.462 h 5.502 v 0 l -5.502,5.462 z m 16.734,0 h 5.501 v 0 z m 11.003,0 11.003,-5.461 v 5.461 z m 16.504,-5.461 h 5.502 v 0 z m 11.003,0 11.003,-5.462 v 5.462 z m 16.505,-5.462 h 5.501 v 0 l -5.501,5.462 z m 11.003,0 h 11.003 v 0 h -5.502 z m 16.734,0 11.003,-5.461 v 5.461 z M 888.5,847.5 v 0 0 z"
       stroke="#000000"
       stroke-width="0"
       stroke-linejoin="round"
       stroke-miterlimit="10"
       fill-rule="evenodd"
       id="path89" /><path
       d="m 866.5,847.5 h 11.223 l -5.497,5.5 z m 16.72,5.5 h 5.496 v 5.5 z m 10.993,0 10.994,5.5 v 0 h -10.994 z m 16.491,5.5 h 5.497 v 5.5 z m 10.994,5.5 h 10.993 v 5.5 z m 16.49,0 5.497,5.5 v 0 h -5.497 z m 10.994,5.5 h 11.222 v 5.5 z m 16.719,5.5 h 5.497 v 5.5 z m 10.994,0 10.994,5.5 v 0 h -10.994 z m 16.49,5.5 h 5.497 v 5.5 z m 10.995,5.5 h 10.99 v 5.5 z m 16.49,0 5.5,5.5 v 0 h -5.5 z m 11.22,5.5 h 11 v 5.5 z m 16.49,5.5 h 5.5 v 0 z m 16.49,0 5.5,5.5 v 0 h -10.99 z m 11,5.5 h 10.99 l -5.5,5.5 z m 16.49,5.5 h 5.49 v 0 z m 10.99,0 11.22,5.5 v 0 h -11.22 z m 16.72,5.5 h 5.5 v 5.5 z m 10.99,5.5 h 11 v 0 z m 16.49,0 5.5,5.5 v 0 h -5.5 z m 11,5.5 h 10.99 v 5.5 z m 16.49,5.5 h 5.5 v 0 z m 10.99,0 11.23,5.5 v 0 h -11.23 z m 16.72,5.5 h 5.5 v 5.5 z m 11,5.5 h 10.99 v 0 z m 16.49,0 5.49,5.5 v 0 h -5.49 z m 16.49,5.5 h 5.49 v 5.5 l -10.99,-5.5 z m 10.99,5.5 h 10.99 -5.49 z m 16.49,0 5.73,5.5 v 0 h -5.73 z m 11.22,5.5 h 11 v 5.5 z m 16.49,5.5 h 5.5 v 0 z m 11,0 10.99,5.5 v 0 h -10.99 z m 16.49,5.5 h 5.5 v 5.5 z m 10.99,5.5 h 11 v 0 z m 16.49,0 5.73,5.5 v 0 h -5.73 z m 11.23,5.5 h 10.99 v 5.5 z m 16.49,5.5 h 5.49 v 0 z m 10.99,0 10.99,5.5 v 0 h -10.99 z m 16.49,5.5 h 5.5 v 5.5 z m 10.99,5.5 h 11 v 0 z m 16.49,0 5.73,5.5 v 0 h -5.73 z"
       stroke="#000000"
       stroke-width="0"
       stroke-linejoin="round"
       stroke-miterlimit="10"
       fill-rule="evenodd"
       id="path90" /><path
       d="m 1451.5,1001.5 5.49,-5.539 v 5.539 z m 10.99,-5.539 h 10.98 v 0 l -10.98,5.539 z m 16.48,0 5.49,-5.538 v 5.538 z m 10.98,-5.538 h 10.99 v 0 l -10.99,5.538 z m 16.48,0 5.5,-5.538 v 5.538 z m 16.48,-5.538 h 5.73 v 0 l -5.73,5.538 z m 11.22,0 10.99,-5.539 v 5.539 z m 16.48,-5.539 h 5.49 v 0 l -5.49,5.539 z m 10.99,0 10.98,-5.538 v 5.538 z m 16.48,-5.538 h 5.49 v 0 l -5.49,5.538 z m 10.98,0 10.99,-5.539 v 5.539 z m 16.48,-5.539 h 5.73 v 0 l -5.73,5.539 z m 16.71,0 5.5,-5.538 v 5.538 z m 10.99,-5.538 h 10.99 v 0 l -10.99,5.538 z m 16.48,0 5.49,-5.539 v 5.539 z m 10.99,-5.539 h 10.98 v 0 z m 16.48,0 5.49,-5.538 v 5.538 z m 10.98,-5.538 h 11.22 v 0 z m 16.71,0 5.5,-5.539 v 5.539 z m 16.48,-5.539 h 5.5 v 0 z m 10.99,0 10.99,-5.538 v 5.538 z m 16.48,-5.538 h 5.49 v 0 z m 10.99,0 10.98,-5.539 v 5.539 z m 16.71,-5.539 h 5.49 v 0 z m 10.98,0 10.99,-5.538 v 5.538 z"
       stroke="#000000"
       stroke-width="0"
       stroke-linejoin="round"
       stroke-miterlimit="10"
       fill-rule="evenodd"
       id="path91" /><path
       d="m 116.5,1023.5 h 11.232 v 0 z m 16.734,-5.53 h 5.501 v 0 l -5.501,5.53 z m 11.003,-5.52 h 5.501 5.502 l -11.003,5.52 z m 16.504,0 5.502,-5.53 v 0 z m 11.003,-5.53 5.502,-5.53 5.501,5.53 z m 16.505,-5.53 5.501,-5.522 v 5.522 z m 11.003,-5.522 h 5.501 5.731 z m 11.232,-5.526 h 11.003 v 0 l -5.502,5.526 z m 16.504,-5.526 h 5.502 v 0 l -5.502,5.526 z m 11.003,-5.527 h 11.003 v 0 l -5.501,5.527 z m 16.505,0 5.501,-5.526 v 5.526 z m 11.003,-5.526 11.003,-5.526 v 5.526 H 271 Z m 16.504,-5.526 5.502,-5.527 v 5.527 z m 11.232,-5.527 h 11.003 v 0 z m 16.505,-5.526 h 5.501 v 0 l -5.501,5.526 z m 11.003,-5.526 h 11.003 v 0 l -11.003,5.526 z m 16.504,0 5.502,-5.526 v 0 z m 11.003,-5.526 11.003,-5.527 v 5.527 z m 16.505,-5.527 5.501,-5.526 v 5.526 z m 11.232,-5.526 h 11.003 v 0 z m 16.504,-5.526 h 5.502 v 0 l -5.502,5.526 z m 11.003,-5.527 h 11.003 v 0 l -11.003,5.527 z m 16.505,0 5.501,-5.526 v 0 z"
       stroke="#000000"
       stroke-width="0"
       stroke-linejoin="round"
       stroke-miterlimit="10"
       fill-rule="evenodd"
       id="path92" /><rect
       x="910.5"
       y="863.5"
       width="60.999802"
       height="11"
       stroke="#000000"
       stroke-width="0"
       stroke-miterlimit="8"
       id="rect92" /><rect
       x="971.5"
       y="880.5"
       width="60.000198"
       height="11"
       stroke="#000000"
       stroke-width="0"
       stroke-miterlimit="8"
       id="rect93" /><rect
       x="1031.5"
       y="902.5"
       width="66"
       height="11"
       stroke="#000000"
       stroke-width="0"
       stroke-miterlimit="8"
       id="rect94" /><rect
       x="1097.5"
       y="913.5"
       width="60.999901"
       height="11"
       stroke="#000000"
       stroke-width="0"
       stroke-miterlimit="8"
       id="rect95" /><rect
       x="1158.5"
       y="924.5"
       width="61.000198"
       height="11"
       stroke="#000000"
       stroke-width="0"
       stroke-miterlimit="8"
       id="rect96" /><rect
       x="1219.5"
       y="946.5"
       width="66"
       height="11"
       stroke="#000000"
       stroke-width="0"
       stroke-miterlimit="8"
       id="rect97" /><rect
       x="1285.5"
       y="957.5"
       width="60.999901"
       height="11"
       stroke="#000000"
       stroke-width="0"
       stroke-miterlimit="8"
       id="rect98" /><rect
       x="1346.5"
       y="979.5"
       width="60.000099"
       height="11"
       stroke="#000000"
       stroke-width="0"
       stroke-miterlimit="8"
       id="rect99" /><rect
       x="783.5"
       y="852.5"
       width="61.000198"
       height="11"
       stroke="#000000"
       stroke-width="0"
       stroke-miterlimit="8"
       id="rect100" /><rect
       x="723.5"
       y="863.5"
       width="59.999802"
       height="11"
       stroke="#000000"
       stroke-width="0"
       stroke-miterlimit="8"
       id="rect101" /><rect
       x="656.5"
       y="880.5"
       width="67.000099"
       height="11"
       stroke="#000000"
       stroke-width="0"
       stroke-miterlimit="8"
       id="rect102" /><rect
       x="596.5"
       y="885.5"
       width="60.000198"
       height="11"
       stroke="#000000"
       stroke-width="0"
       stroke-miterlimit="8"
       id="rect103" /><rect
       x="529.5"
       y="891.5"
       width="61.000198"
       height="11"
       stroke="#000000"
       stroke-width="0"
       stroke-miterlimit="8"
       id="rect104" /><rect
       x="469.5"
       y="902.5"
       width="66"
       height="11"
       stroke="#000000"
       stroke-width="0"
       stroke-miterlimit="8"
       id="rect105" /><rect
       x="347.5"
       y="929.5"
       width="60.999802"
       height="11"
       stroke="#000000"
       stroke-width="0"
       stroke-miterlimit="8"
       id="rect106" /><rect
       x="281.5"
       y="946.5"
       width="66"
       height="11"
       stroke="#000000"
       stroke-width="0"
       stroke-miterlimit="8"
       id="rect107" /><rect
       x="1467.5"
       y="984.5"
       width="66"
       height="11"
       stroke="#000000"
       stroke-width="0"
       stroke-miterlimit="8"
       id="rect108" /><rect
       x="1533.5"
       y="973.5"
       width="61.000198"
       height="11"
       stroke="#000000"
       stroke-width="0"
       stroke-miterlimit="8"
       id="rect109" /><rect
       x="1594.5"
       y="957.5"
       width="60.999901"
       height="11"
       stroke="#000000"
       stroke-width="0"
       stroke-miterlimit="8"
       id="rect110" /></g></svg>
