<?xml version="1.0" encoding="UTF-8" standalone="no"?>
<svg
   width="510.89069"
   height="443.56656"
   overflow="hidden"
   version="1.1"
   id="svg200"
   xmlns="http://www.w3.org/2000/svg"
   xmlns:svg="http://www.w3.org/2000/svg">
  <defs
     id="defs200" />
  <g
     id="g200"
     transform="translate(-385.66928,-140.44604)">
    <rect
       x="385.66928"
       y="140.44604"
       width="510.89069"
       height="443.56656"
       fill="#ffffff"
       id="rect1"
       style="stroke-width:0.495875" />
    <rect
       x="392.5"
       y="149.5"
       width="496"
       height="423"
       stroke="#000000"
       stroke-width="0"
       stroke-miterlimit="8"
       fill="#ffffff"
       id="rect2"
       style="stroke-width:1;stroke-dasharray:none" />
    <rect
       x="461.5"
       y="216.5"
       width="319"
       height="289"
       stroke="#000000"
       stroke-width="0.500052"
       stroke-miterlimit="8"
       fill="none"
       id="rect3" />
    <path
       d="m 461.5,216.5 v 289"
       stroke="#000000"
       stroke-width="0"
       stroke-linejoin="round"
       stroke-miterlimit="10"
       fill="none"
       fill-rule="evenodd"
       id="path3" />
    <path
       d="m 456.5,505.5 h 5"
       stroke="#000000"
       stroke-width="0"
       stroke-linejoin="round"
       stroke-miterlimit="10"
       fill="none"
       fill-rule="evenodd"
       id="path4"
       style="stroke-width:1;stroke-dasharray:none" />
    <path
       d="m 456.5,456.5 h 5"
       stroke="#000000"
       stroke-width="0"
       stroke-linejoin="round"
       stroke-miterlimit="10"
       fill="none"
       fill-rule="evenodd"
       id="path5"
       style="stroke-width:1;stroke-dasharray:none" />
    <path
       d="m 456.5,408.5 h 5"
       stroke="#000000"
       stroke-width="0"
       stroke-linejoin="round"
       stroke-miterlimit="10"
       fill="none"
       fill-rule="evenodd"
       id="path6"
       style="stroke-width:1;stroke-dasharray:none" />
    <path
       d="m 456.5,360.5 h 5"
       stroke="#000000"
       stroke-width="0"
       stroke-linejoin="round"
       stroke-miterlimit="10"
       fill="none"
       fill-rule="evenodd"
       id="path7"
       style="stroke-width:1;stroke-dasharray:none" />
    <path
       d="m 456.5,312.5 h 5"
       stroke="#000000"
       stroke-width="0"
       stroke-linejoin="round"
       stroke-miterlimit="10"
       fill="none"
       fill-rule="evenodd"
       id="path8"
       style="stroke-width:1;stroke-dasharray:none" />
    <path
       d="m 456.5,264.5 h 5"
       stroke="#000000"
       stroke-width="0"
       stroke-linejoin="round"
       stroke-miterlimit="10"
       fill="none"
       fill-rule="evenodd"
       id="path9"
       style="stroke-width:1;stroke-dasharray:none" />
    <path
       d="m 456.5,216.5 h 5"
       stroke="#000000"
       stroke-width="0"
       stroke-linejoin="round"
       stroke-miterlimit="10"
       fill="none"
       fill-rule="evenodd"
       id="path10"
       style="stroke-width:1;stroke-dasharray:none" />
    <path
       d="m 461.5,505.5 h 319"
       stroke="#000000"
       stroke-width="0"
       stroke-linejoin="round"
       stroke-miterlimit="10"
       fill="none"
       fill-rule="evenodd"
       id="path11" />
    <path
       d="M 0,0 1.04987e-4,5"
       stroke="#000000"
       stroke-width="0"
       stroke-linejoin="round"
       stroke-miterlimit="10"
       fill="none"
       fill-rule="evenodd"
       transform="matrix(1,0,0,-1,461.5,510.5)"
       id="path12"
       style="stroke-width:1;stroke-dasharray:none" />
    <path
       d="M 0,0 1.04987e-4,5"
       stroke="#000000"
       stroke-width="0"
       stroke-linejoin="round"
       stroke-miterlimit="10"
       fill="none"
       fill-rule="evenodd"
       transform="matrix(1,0,0,-1,540.5,510.5)"
       id="path13"
       style="stroke-width:1;stroke-dasharray:none" />
    <path
       d="M 0,0 1.04987e-4,5"
       stroke="#000000"
       stroke-width="0"
       stroke-linejoin="round"
       stroke-miterlimit="10"
       fill="none"
       fill-rule="evenodd"
       transform="matrix(1,0,0,-1,621.5,510.5)"
       id="path14"
       style="stroke-width:1;stroke-dasharray:none" />
    <path
       d="M 0,0 1.04987e-4,5"
       stroke="#000000"
       stroke-width="0"
       stroke-linejoin="round"
       stroke-miterlimit="10"
       fill="none"
       fill-rule="evenodd"
       transform="matrix(1,0,0,-1,700.5,510.5)"
       id="path15"
       style="stroke-width:1;stroke-dasharray:none" />
    <path
       d="M 0,0 1.04987e-4,5"
       stroke="#000000"
       stroke-width="0"
       stroke-linejoin="round"
       stroke-miterlimit="10"
       fill="none"
       fill-rule="evenodd"
       transform="matrix(1,0,0,-1,780.5,510.5)"
       id="path16"
       style="stroke-width:1;stroke-dasharray:none" />
    <path
       d="m 525,461.2 3.4,-3.2 0.6,0.6 -3.2,3.4 z"
       fill="#000080"
       fill-rule="evenodd"
       id="path17" />
    <path
       d="m 530,457.4 3.4,-2.4 0.6,0.45 -3.4,2.55 z"
       fill="#000080"
       fill-rule="evenodd"
       id="path18" />
    <path
       d="M 535,453.429 535.5,453 536,453.429 535.5,454 Z"
       fill="#000080"
       fill-rule="evenodd"
       id="path19" />
    <path
       d="M 535,452.625 538.2,451 539,451.375 535.6,453 Z"
       fill="#000080"
       fill-rule="evenodd"
       id="path20" />
    <path
       d="M 540,449.438 542.55,447 543,447.562 540.45,450 Z"
       fill="#000080"
       fill-rule="evenodd"
       id="path21" />
    <path
       d="m 544,445.4 1.333,-1.4 0.667,0.8 -1.333,1.2 z"
       fill="#000080"
       fill-rule="evenodd"
       id="path22" />
    <path
       d="M 545,444.143 546.538,442 547,442.857 545.462,445 Z"
       fill="#000080"
       fill-rule="evenodd"
       id="path23" />
    <path
       d="m 549,441.55 2.609,-2.55 0.391,0.6 -2.609,2.4 z"
       fill="#000080"
       fill-rule="evenodd"
       id="path24" />
    <path
       d="M 554,437.538 555.538,436 556,436.462 554.462,438 Z"
       fill="#000080"
       fill-rule="evenodd"
       id="path25" />
    <path
       d="m 555,435.7 1.333,-0.7 0.667,0.4 -1.333,0.6 z"
       fill="#000080"
       fill-rule="evenodd"
       id="path26" />
    <path
       d="M 558,433.294 561.478,431 562,431.706 558.522,434 Z"
       fill="#000080"
       fill-rule="evenodd"
       id="path27" />
    <path
       d="M 563,429.294 565.438,427 566,427.529 563.562,430 Z"
       fill="#000080"
       fill-rule="evenodd"
       id="path28" />
    <path
       d="m 565,427.5 0.5,-0.5 0.5,0.5 -0.5,0.5 z"
       fill="#000080"
       fill-rule="evenodd"
       id="path29" />
    <path
       d="m 567,425.4 3.478,-2.4 0.522,0.45 -3.478,2.55 z"
       fill="#000080"
       fill-rule="evenodd"
       id="path30" />
    <path
       d="M 572,421.438 575.2,419 576,419.562 572.6,422 Z"
       fill="#000080"
       fill-rule="evenodd"
       id="path31" />
    <path
       d="m 577,417.4 2.609,-3.4 0.391,0.8 -2.609,3.2 z"
       fill="#000080"
       fill-rule="evenodd"
       id="path32" />
    <path
       d="m 582,413.55 2.4,-2.55 0.6,0.6 -2.55,2.4 z"
       fill="#000080"
       fill-rule="evenodd"
       id="path33" />
    <path
       d="M 587,409.55 589.526,407 590,407.45 587.474,410 Z"
       fill="#000080"
       fill-rule="evenodd"
       id="path34" />
    <path
       d="M 591,405.294 593.4,403 594,403.529 591.45,406 Z"
       fill="#000080"
       fill-rule="evenodd"
       id="path35" />
    <path
       d="m 595,401.4 3.4,-2.4 0.6,0.45 -3.2,2.55 z"
       fill="#000080"
       fill-rule="evenodd"
       id="path36" />
    <path
       d="M 600,397.526 603.2,395 604,395.474 600.6,398 Z"
       fill="#000080"
       fill-rule="evenodd"
       id="path37" />
    <path
       d="m 605,393.5 0.571,-0.5 0.429,0.5 -0.429,0.5 z"
       fill="#000080"
       fill-rule="evenodd"
       id="path38" />
    <path
       d="M 605,393.438 607.526,391 608,391.562 605.474,394 Z"
       fill="#000080"
       fill-rule="evenodd"
       id="path39" />
    <path
       d="M 610,389.438 612.4,387 613,387.562 610.45,390 Z"
       fill="#000080"
       fill-rule="evenodd"
       id="path40" />
    <path
       d="m 614,385.4 1.4,-1.4 0.6,0.6 -1.2,1.4 z"
       fill="#000080"
       fill-rule="evenodd"
       id="path41" />
    <path
       d="M 615,384.538 616.538,383 617,383.462 615.462,385 Z"
       fill="#000080"
       fill-rule="evenodd"
       id="path42" />
    <path
       d="m 618,381.55 3.2,-2.55 0.8,0.45 -3.4,2.55 z"
       fill="#000080"
       fill-rule="evenodd"
       id="path43" />
    <path
       d="M 623,377.143 625.294,375 626,375.857 623.529,378 Z"
       fill="#000080"
       fill-rule="evenodd"
       id="path44" />
    <path
       d="M 626,375.429 627,375 v 0.429 L 626,376 Z"
       fill="#000080"
       fill-rule="evenodd"
       id="path45" />
    <path
       d="M 628,373.438 630.4,371 631,371.562 628.45,374 Z"
       fill="#000080"
       fill-rule="evenodd"
       id="path46" />
    <path
       d="M 632,369.438 635.478,367 636,367.562 632.696,370 Z"
       fill="#000080"
       fill-rule="evenodd"
       id="path47" />
    <path
       d="M 637,365.438 639.4,363 640,363.562 637.45,366 Z"
       fill="#000080"
       fill-rule="evenodd"
       id="path48" />
    <path
       d="m 641,361.55 3.478,-2.55 0.522,0.6 -3.304,2.4 z"
       fill="#000080"
       fill-rule="evenodd"
       id="path49" />
    <path
       d="m 646,357.55 3.2,-2.55 0.8,0.6 -3.4,2.4 z"
       fill="#000080"
       fill-rule="evenodd"
       id="path50" />
    <path
       d="m 651,354.4 3.478,-3.4 0.522,0.8 -3.304,3.2 z"
       fill="#000080"
       fill-rule="evenodd"
       id="path51" />
    <path
       d="M 656,349.294 658.55,347 659,347.706 656.45,350 Z"
       fill="#000080"
       fill-rule="evenodd"
       id="path52" />
    <path
       d="m 660,345.4 2.55,-2.4 0.45,0.45 -2.4,2.55 z"
       fill="#000080"
       fill-rule="evenodd"
       id="path53" />
    <path
       d="M 665,341.857 665.5,341 666,341.857 665.5,343 Z"
       fill="#000080"
       fill-rule="evenodd"
       id="path54" />
    <path
       d="M 665,341.438 667.55,339 668,339.562 665.45,342 Z"
       fill="#000080"
       fill-rule="evenodd"
       id="path55" />
    <path
       d="M 669,337.438 672.4,335 673,335.562 669.8,338 Z"
       fill="#000080"
       fill-rule="evenodd"
       id="path56" />
    <path
       d="m 674,333.7 1.2,-0.7 0.8,0.4 -1.4,0.6 z"
       fill="#000080"
       fill-rule="evenodd"
       id="path57" />
    <path
       d="M 675,332.429 676.429,331 677,331.571 675.571,333 Z"
       fill="#000080"
       fill-rule="evenodd"
       id="path58" />
    <path
       d="m 678,329.55 3.478,-2.55 0.522,0.6 -3.304,2.4 z"
       fill="#000080"
       fill-rule="evenodd"
       id="path59" />
    <path
       d="M 683,326.308 684.538,324 685,324.692 683.462,327 Z"
       fill="#000080"
       fill-rule="evenodd"
       id="path60" />
    <path
       d="m 685,324.4 1.2,-1.4 0.8,0.8 -1.4,1.2 z"
       fill="#000080"
       fill-rule="evenodd"
       id="path61" />
    <path
       d="M 688,321.294 690.609,319 691,319.529 688.522,322 Z"
       fill="#000080"
       fill-rule="evenodd"
       id="path62" />
    <path
       d="M 693,317.529 694.625,316 695,316.353 693.375,318 Z"
       fill="#000080"
       fill-rule="evenodd"
       id="path63" />
    <path
       d="m 695,315.5 0.429,-0.5 0.571,0.5 -0.571,0.5 z"
       fill="#000080"
       fill-rule="evenodd"
       id="path64" />
    <path
       d="M 697,313.526 700.478,311 701,311.474 697.696,314 Z"
       fill="#000080"
       fill-rule="evenodd"
       id="path65" />
    <path
       d="M 702,309.438 704.55,307 705,307.562 702.45,310 Z"
       fill="#000080"
       fill-rule="evenodd"
       id="path66" />
    <path
       d="m 706,305.55 3.478,-2.55 0.522,0.6 -3.304,2.4 z"
       fill="#000080"
       fill-rule="evenodd"
       id="path67" />
    <path
       d="m 711,301.55 3.4,-2.55 0.6,0.45 -3.4,2.55 z"
       fill="#000080"
       fill-rule="evenodd"
       id="path68" />
    <path
       d="m 716,298.4 3.2,-3.4 0.8,0.6 -3.4,3.4 z"
       fill="#000080"
       fill-rule="evenodd"
       id="path69" />
    <path
       d="M 721,293.294 723.55,291 724,291.529 721.45,294 Z"
       fill="#000080"
       fill-rule="evenodd"
       id="path70" />
    <path
       d="M 725,289.526 727.526,287 728,287.474 725.474,290 Z"
       fill="#000080"
       fill-rule="evenodd"
       id="path71" />
    <path
       d="M 730,285.526 732.55,283 733,283.474 730.6,286 Z"
       fill="#000080"
       fill-rule="evenodd"
       id="path72" />
    <path
       d="m 734,282.5 0.5,-0.5 0.5,0.5 -0.5,0.5 z"
       fill="#000080"
       fill-rule="evenodd"
       id="path73" />
    <path
       d="M 735,281.438 737.4,279 738,279.562 735.45,282 Z"
       fill="#000080"
       fill-rule="evenodd"
       id="path74" />
    <path
       d="M 739,277.471 742.4,275 743,275.706 739.8,278 Z"
       fill="#000080"
       fill-rule="evenodd"
       id="path75" />
    <path
       d="m 744,273.7 0.6,-0.7 0.4,0.3 -0.7,0.7 z"
       fill="#000080"
       fill-rule="evenodd"
       id="path76" />
    <path
       d="M 745,272.538 746.538,271 747,271.462 745.615,273 Z"
       fill="#000080"
       fill-rule="evenodd"
       id="path77" />
    <path
       d="m 748,270.4 2.55,-3.4 0.45,0.6 -2.55,3.4 z"
       fill="#000080"
       fill-rule="evenodd"
       id="path78" />
    <path
       d="M 752,265.538 754.471,264 755,264.615 752.706,266 Z"
       fill="#000080"
       fill-rule="evenodd"
       id="path79" />
    <path
       d="M 755,263.857 756,263 v 0.857 L 755,265 Z"
       fill="#000080"
       fill-rule="evenodd"
       id="path80" />
    <path
       d="M 757,261.625 760.4,260 761,260.375 757.6,262 Z"
       fill="#000080"
       fill-rule="evenodd"
       id="path81" />
    <path
       d="M 762,257.625 765.333,256 766,256.375 762.667,258 Z"
       fill="#000080"
       fill-rule="evenodd"
       id="path82" />
    <path
       d="M 767,254.438 769.55,252 770,252.562 767.45,255 Z"
       fill="#000080"
       fill-rule="evenodd"
       id="path83" />
    <path
       d="m 771,250.4 3.304,-3.4 0.696,0.8 -3.478,3.2 z"
       fill="#000080"
       fill-rule="evenodd"
       id="path84" />
    <path
       d="m 526,471.5 1,-0.5 v 0.5 l -1,0.5 z"
       fill-rule="evenodd"
       id="path85" />
    <path
       d="m 528,469.5 0.429,-0.5 0.571,0.5 -0.571,0.5 z"
       fill-rule="evenodd"
       id="path86" />
    <path
       d="M 531,467.571 532,467 v 0.571 L 531,468 Z"
       fill-rule="evenodd"
       id="path87" />
    <path
       d="M 534,465.143 535,464 v 1.143 L 534,466 Z"
       fill-rule="evenodd"
       id="path88" />
    <path
       d="M 536,462.429 536.429,462 537,462.429 536.429,463 Z"
       fill-rule="evenodd"
       id="path89" />
    <path
       d="m 539,460.5 1,-0.5 v 0.5 l -1,0.5 z"
       fill-rule="evenodd"
       id="path90" />
    <path
       d="m 541,458.5 0.5,-0.5 0.5,0.5 -0.5,0.5 z"
       fill-rule="evenodd"
       id="path91" />
    <path
       d="m 544,456.5 1,-0.5 v 0.5 l -1,0.5 z"
       fill-rule="evenodd"
       id="path92" />
    <path
       d="M 546,454.143 546.571,453 547,454.143 546.571,455 Z"
       fill-rule="evenodd"
       id="path93" />
    <path
       d="M 549,451.429 550,451 v 0.429 L 549,452 Z"
       fill-rule="evenodd"
       id="path94" />
    <path
       d="m 551,450.4 0.7,-1.4 0.3,0.6 -0.7,1.4 z"
       fill-rule="evenodd"
       id="path95" />
    <path
       d="m 554,449 0.5,-2 h 0.5 l -0.5,2 z"
       fill-rule="evenodd"
       id="path96" />
    <path
       d="m 556,446 0.429,-1 H 557 l -0.571,1 z"
       fill-rule="evenodd"
       id="path97" />
    <path
       d="m 558,443.4 1.4,-1.4 0.6,0.8 -1.2,1.2 z"
       fill-rule="evenodd"
       id="path98" />
    <path
       d="m 561,442 0.5,-1 h 0.5 l -0.5,1 z"
       fill-rule="evenodd"
       id="path99" />
    <path
       d="m 563,439.4 1.4,-1.4 0.6,0.6 -1.4,1.4 z"
       fill-rule="evenodd"
       id="path100" />
    <path
       d="m 566,438 0.571,-2 H 567 l -0.429,2 z"
       fill-rule="evenodd"
       id="path101" />
    <path
       d="m 568,434.6 1.2,-0.6 0.8,0.3 -1.4,0.7 z"
       fill-rule="evenodd"
       id="path102" />
    <path
       d="M 571,432.667 572.4,432 573,432.333 571.6,433 Z"
       fill-rule="evenodd"
       id="path103" />
    <path
       d="m 574,431 0.5,-1 h 0.5 l -0.5,1 z"
       fill-rule="evenodd"
       id="path104" />
    <path
       d="m 577,429 0.429,-1 H 578 l -0.571,1 z"
       fill-rule="evenodd"
       id="path105" />
    <path
       d="m 579,426.4 0.7,-1.4 0.3,0.6 -0.6,1.4 z"
       fill-rule="evenodd"
       id="path106" />
    <path
       d="M 582,423.429 583,423 v 0.429 L 582,424 Z"
       fill-rule="evenodd"
       id="path107" />
    <path
       d="m 584,421.5 0.571,-0.5 0.429,0.5 -0.429,0.5 z"
       fill-rule="evenodd"
       id="path108" />
    <path
       d="m 587,419.5 1,-0.5 v 0.5 l -1,0.5 z"
       fill-rule="evenodd"
       id="path109" />
    <path
       d="m 589,417.5 0.429,-0.5 0.571,0.5 -0.571,0.5 z"
       fill-rule="evenodd"
       id="path110" />
    <path
       d="M 592,415.143 593,414 v 1.143 L 592,416 Z"
       fill-rule="evenodd"
       id="path111" />
    <path
       d="M 594,412.429 594.5,412 595,412.429 594.5,413 Z"
       fill-rule="evenodd"
       id="path112" />
    <path
       d="M 597,410.429 598,410 v 0.429 L 597,411 Z"
       fill-rule="evenodd"
       id="path113" />
    <path
       d="m 600,408.5 1,-0.5 v 0.5 l -1,0.5 z"
       fill-rule="evenodd"
       id="path114" />
    <path
       d="m 602,406.5 0.5,-0.5 0.5,0.5 -0.5,0.5 z"
       fill-rule="evenodd"
       id="path115" />
    <path
       d="M 605,404.143 606,403 v 1.143 L 605,405 Z"
       fill-rule="evenodd"
       id="path116" />
    <path
       d="M 607,401.571 608,401 v 0.571 L 607,402 Z"
       fill-rule="evenodd"
       id="path117" />
    <path
       d="M 610,399.429 610.429,399 611,399.429 610.429,400 Z"
       fill-rule="evenodd"
       id="path118" />
    <path
       d="m 612,397.5 1,-0.5 v 0.5 l -1,0.5 z"
       fill-rule="evenodd"
       id="path119" />
    <path
       d="m 615,395.5 0.5,-0.5 0.5,0.5 -0.5,0.5 z"
       fill-rule="evenodd"
       id="path120" />
    <path
       d="M 617,393.143 618,392 v 1.143 L 617,394 Z"
       fill-rule="evenodd"
       id="path121" />
    <path
       d="M 619,390.571 620.143,390 621,390.571 620.143,391 Z"
       fill-rule="evenodd"
       id="path122" />
    <path
       d="M 622,388.429 623,388 v 0.429 L 622,389 Z"
       fill-rule="evenodd"
       id="path123" />
    <path
       d="M 624,386.429 624.857,386 626,386.429 624.857,387 Z"
       fill-rule="evenodd"
       id="path124" />
    <path
       d="m 627,384.5 1,-0.5 v 0.5 l -1,0.5 z"
       fill-rule="evenodd"
       id="path125" />
    <path
       d="M 629,382.667 630.2,382 631,382.333 629.6,383 Z"
       fill-rule="evenodd"
       id="path126" />
    <path
       d="m 632,380.5 0.571,-0.5 0.429,0.5 -0.429,0.5 z"
       fill-rule="evenodd"
       id="path127" />
    <path
       d="m 635,378.5 1,-0.5 v 0.5 l -1,0.5 z"
       fill-rule="evenodd"
       id="path128" />
    <path
       d="M 638,376.143 639,375 v 1.143 L 638,377 Z"
       fill-rule="evenodd"
       id="path129" />
    <path
       d="M 640,373.429 640.571,373 641,373.429 640.571,374 Z"
       fill-rule="evenodd"
       id="path130" />
    <path
       d="M 643,371.429 644,371 v 0.429 L 643,372 Z"
       fill-rule="evenodd"
       id="path131" />
    <path
       d="m 645,369.5 0.429,-0.5 0.571,0.5 -0.571,0.5 z"
       fill-rule="evenodd"
       id="path132" />
    <path
       d="m 648,367.5 1,-0.5 v 0.5 l -1,0.5 z"
       fill-rule="evenodd"
       id="path133" />
    <path
       d="M 650,365.143 650.5,364 651,365.143 650.5,366 Z"
       fill-rule="evenodd"
       id="path134" />
    <path
       d="M 652,362.571 654,362 v 0.571 L 652,363 Z"
       fill-rule="evenodd"
       id="path135" />
    <path
       d="M 655,360.429 655.571,360 656,360.429 655.571,361 Z"
       fill-rule="evenodd"
       id="path136" />
    <path
       d="m 657,358.5 2,-0.5 v 0.5 l -2,0.5 z"
       fill-rule="evenodd"
       id="path137" />
    <path
       d="m 660,356.5 0.429,-0.5 0.571,0.5 -0.571,0.5 z"
       fill-rule="evenodd"
       id="path138" />
    <path
       d="m 662,355 0.5,-1 h 0.5 l -0.5,1 z"
       fill-rule="evenodd"
       id="path139" />
    <path
       d="m 665,352.5 0.5,-0.5 0.5,0.5 -0.5,0.5 z"
       fill-rule="evenodd"
       id="path140" />
    <path
       d="M 665,351.571 665.429,351 666,351.571 665.429,352 Z"
       fill-rule="evenodd"
       id="path141" />
    <path
       d="m 667,351 0.571,-1 H 668 l -0.429,1 z"
       fill-rule="evenodd"
       id="path142" />
    <path
       d="m 669,348.4 1.4,-1.4 0.6,0.6 -1.2,1.4 z"
       fill-rule="evenodd"
       id="path143" />
    <path
       d="m 672,346 0.429,-1 H 673 l -0.571,1 z"
       fill-rule="evenodd"
       id="path144" />
    <path
       d="m 674,343.5 0.857,-0.5 1.143,0.5 -1.143,0.5 z"
       fill-rule="evenodd"
       id="path145" />
    <path
       d="m 675,343.5 0.571,-0.5 0.429,0.5 -0.429,0.5 z"
       fill-rule="evenodd"
       id="path146" />
    <path
       d="m 677,342 0.5,-1 h 0.5 l -0.5,1 z"
       fill-rule="evenodd"
       id="path147" />
    <path
       d="M 680,339.571 680.429,339 681,339.571 680.429,340 Z"
       fill-rule="evenodd"
       id="path148" />
    <path
       d="M 683,337.143 684,336 v 1.143 L 683,338 Z"
       fill-rule="evenodd"
       id="path149" />
    <path
       d="M 685,334.429 687,334 v 0.429 L 685,335 Z"
       fill-rule="evenodd"
       id="path150" />
    <path
       d="M 688,332.429 688.571,332 689,332.429 688.571,333 Z"
       fill-rule="evenodd"
       id="path151" />
    <path
       d="m 690,330.5 1,-0.5 v 0.5 l -1,0.5 z"
       fill-rule="evenodd"
       id="path152" />
    <path
       d="m 693,328.5 0.429,-0.5 0.571,0.5 -0.571,0.5 z"
       fill-rule="evenodd"
       id="path153" />
    <path
       d="M 695,326.143 696,325 v 1.143 L 695,327 Z"
       fill-rule="evenodd"
       id="path154" />
    <path
       d="M 698,323.571 698.5,323 699,323.571 698.5,324 Z"
       fill-rule="evenodd"
       id="path155" />
    <path
       d="M 700,321.429 700.429,321 701,321.429 700.429,322 Z"
       fill-rule="evenodd"
       id="path156" />
    <path
       d="m 703,319.5 1,-0.5 v 0.5 l -1,0.5 z"
       fill-rule="evenodd"
       id="path157" />
    <path
       d="m 706,317.5 1,-0.5 v 0.5 l -1,0.5 z"
       fill-rule="evenodd"
       id="path158" />
    <path
       d="M 708,315.143 708.571,314 709,315.143 708.571,316 Z"
       fill-rule="evenodd"
       id="path159" />
    <path
       d="M 711,312.571 712,312 v 0.571 L 711,313 Z"
       fill-rule="evenodd"
       id="path160" />
    <path
       d="M 713,310.429 715,310 v 0.429 L 713,311 Z"
       fill-rule="evenodd"
       id="path161" />
    <path
       d="M 716,308.429 716.571,308 717,308.429 716.571,309 Z"
       fill-rule="evenodd"
       id="path162" />
    <path
       d="m 718,306.5 2,-0.5 v 0.5 l -2,0.5 z"
       fill-rule="evenodd"
       id="path163" />
    <path
       d="m 721,304.5 0.429,-0.5 0.571,0.5 -0.571,0.5 z"
       fill-rule="evenodd"
       id="path164" />
    <path
       d="M 723,301.571 724,301 v 0.571 L 723,302 Z"
       fill-rule="evenodd"
       id="path165" />
    <path
       d="M 726,299.429 726.5,299 727,299.429 726.5,300 Z"
       fill-rule="evenodd"
       id="path166" />
    <path
       d="M 728,297.429 729,297 v 0.429 L 728,298 Z"
       fill-rule="evenodd"
       id="path167" />
    <path
       d="m 731,295.6 0.667,-0.6 0.333,0.3 -0.667,0.7 z"
       fill-rule="evenodd"
       id="path168" />
    <path
       d="m 733,294 0.429,-1 H 734 l -0.571,1 z"
       fill-rule="evenodd"
       id="path169" />
    <path
       d="m 736,292 0.571,-1 H 737 l -0.429,1 z"
       fill-rule="evenodd"
       id="path170" />
    <path
       d="m 738,289.4 1.2,-1.4 0.8,0.8 -1.4,1.2 z"
       fill-rule="evenodd"
       id="path171" />
    <path
       d="m 741,288 0.429,-2 H 742 l -0.571,2 z"
       fill-rule="evenodd"
       id="path172" />
    <path
       d="m 743,284.6 1.4,-0.6 0.6,0.3 -1.2,0.7 z"
       fill-rule="evenodd"
       id="path173" />
    <path
       d="m 746,283 0.5,-1 h 0.5 l -0.5,1 z"
       fill-rule="evenodd"
       id="path174" />
    <path
       d="M 748,280.333 749.4,279 750,279.667 748.6,281 Z"
       fill-rule="evenodd"
       id="path175" />
    <path
       d="m 751,279 0.5,-1 h 0.5 l -0.5,1 z"
       fill-rule="evenodd"
       id="path176" />
    <path
       d="m 753,276.4 1.2,-1.4 0.8,0.6 -1.4,1.4 z"
       fill-rule="evenodd"
       id="path177" />
    <path
       d="m 756,274 0.429,-1 H 757 l -0.571,1 z"
       fill-rule="evenodd"
       id="path178" />
    <path
       d="M 759,271.429 760,271 v 0.429 L 759,272 Z"
       fill-rule="evenodd"
       id="path179" />
    <path
       d="M 761,269.429 762,269 v 0.429 L 761,270 Z"
       fill-rule="evenodd"
       id="path180" />
    <path
       d="m 763,267.5 1.143,-0.5 0.857,0.5 -0.857,0.5 z"
       fill-rule="evenodd"
       id="path181" />
    <path
       d="m 766,266 0.5,-1 h 0.5 l -0.5,1 z"
       fill-rule="evenodd"
       id="path182" />
    <path
       d="m 768,263.4 1.4,-1.4 0.6,0.8 -1.4,1.2 z"
       fill-rule="evenodd"
       id="path183" />
    <path
       d="m 771,262 0.5,-1 h 0.5 l -0.5,1 z"
       fill-rule="evenodd"
       id="path184" />
    <path
       d="m 773,259.4 1.2,-1.4 0.8,0.6 -1.4,1.4 z"
       fill-rule="evenodd"
       id="path185" />
    <path
       d="m 526.5,472.5 9.912,-10.448 9.912,-9.897 9.912,-9.898 9.912,-9.898 10.462,-9.897 9.912,-9.348 9.912,-9.348 9.912,-9.348 9.912,-8.798 9.912,-8.798 10.462,-8.798 9.912,-8.798 9.912,-8.248 9.912,-8.798 9.912,-8.248 9.912,-7.698 9.912,-8.248 10.462,-7.698 9.912,-8.248 9.912,-7.699 9.912,-7.148 9.912,-7.698 9.912,-7.698 10.462,-7.149 9.912,-7.148"
       stroke="#000000"
       stroke-width="0.500052"
       stroke-linejoin="round"
       stroke-miterlimit="10"
       fill="none"
       fill-rule="evenodd"
       id="path186" />
    <text
       font-family="Arial, Arial_MSFontService, sans-serif"
       font-weight="700"
       font-size="17px"
       transform="translate(451.833,179)"
       id="text186">The two linear estimates of the forcing curve</text>
    <text
       font-family="Arial, Arial_MSFontService, sans-serif"
       font-weight="400"
       font-size="15px"
       transform="translate(427.5,510)"
       id="text187">1.5</text>
    <text
       font-family="Arial, Arial_MSFontService, sans-serif"
       font-weight="400"
       font-size="15px"
       transform="translate(440.167,461)"
       id="text188">2</text>
    <text
       font-family="Arial, Arial_MSFontService, sans-serif"
       font-weight="400"
       font-size="15px"
       transform="translate(427.5,414)"
       id="text189">2.5</text>
    <text
       font-family="Arial, Arial_MSFontService, sans-serif"
       font-weight="400"
       font-size="15px"
       transform="translate(440.167,365)"
       id="text190">3</text>
    <text
       font-family="Arial, Arial_MSFontService, sans-serif"
       font-weight="400"
       font-size="15px"
       transform="translate(427.5,317)"
       id="text191">3.5</text>
    <text
       font-family="Arial, Arial_MSFontService, sans-serif"
       font-weight="400"
       font-size="15px"
       transform="translate(440.167,269)"
       id="text192">4</text>
    <text
       font-family="Arial, Arial_MSFontService, sans-serif"
       font-weight="400"
       font-size="15px"
       transform="translate(427.5,221)"
       id="text193">4.5</text>
    <text
       font-family="Arial, Arial_MSFontService, sans-serif"
       font-weight="400"
       font-size="15px"
       transform="translate(450.167,532)"
       id="text194">1.2</text>
    <text
       font-family="Arial, Arial_MSFontService, sans-serif"
       font-weight="400"
       font-size="15px"
       transform="translate(529.833,532)"
       id="text195">1.4</text>
    <text
       font-family="Arial, Arial_MSFontService, sans-serif"
       font-weight="400"
       font-size="15px"
       transform="translate(610,532)"
       id="text196">1.6</text>
    <text
       font-family="Arial, Arial_MSFontService, sans-serif"
       font-weight="400"
       font-size="15px"
       transform="translate(689.667,532)"
       id="text197">1.8</text>
    <text
       font-family="Arial, Arial_MSFontService, sans-serif"
       font-weight="400"
       font-size="15px"
       transform="translate(776,532)"
       id="text198">2</text>
    <text
       font-family="Arial, Arial_MSFontService, sans-serif"
       font-weight="700"
       font-size="15px"
       transform="translate(601.833,559)"
       id="text199">M/Mo</text>
    <text
       font-family="Arial, Arial_MSFontService, sans-serif"
       font-weight="700"
       font-size="15px"
       transform="rotate(-90,418.1665,1.8335)"
       id="text200">forcing (W/sq.m)</text>
  </g>
</svg>
