<?xml version="1.0" encoding="UTF-8" standalone="no"?>
<svg
   width="644.72906"
   height="475.66501"
   overflow="hidden"
   version="1.1"
   id="svg137"
   xmlns="http://www.w3.org/2000/svg"
   xmlns:svg="http://www.w3.org/2000/svg">
  <defs
     id="defs137" />
  <g
     id="g137"
     transform="translate(-324.72906,-182.85715)">
    <rect
       x="324.72906"
       y="182.85715"
       width="644.72906"
       height="475.66501"
       fill="#ffffff"
       id="rect1"
       style="stroke-width:0.576857" />
    <path
       d="m 364.5,221.5 v 395"
       stroke="#000000"
       stroke-width="0.666667"
       stroke-linejoin="round"
       stroke-miterlimit="10"
       fill="none"
       fill-rule="evenodd"
       id="path1" />
    <path
       d="m 380.5,221.5 v 395"
       stroke="#000000"
       stroke-width="0.666667"
       stroke-linejoin="round"
       stroke-miterlimit="10"
       fill="none"
       fill-rule="evenodd"
       id="path2"
       style="fill:none;fill-opacity:1" />
    <path
       d="m 348.5,221.5 v 395"
       stroke="#000000"
       stroke-width="0.666667"
       stroke-linejoin="round"
       stroke-miterlimit="10"
       fill="none"
       fill-rule="evenodd"
       id="path3" />
    <path
       d="m 396.5,221.5 v 395"
       stroke="#000000"
       stroke-width="0.666667"
       stroke-linejoin="round"
       stroke-miterlimit="10"
       fill="none"
       fill-rule="evenodd"
       id="path4" />
    <rect
       x="427"
       y="274"
       width="64"
       height="37"
       fill="#bbe0e3"
       id="rect4"
       style="stroke:#000000;stroke-opacity:1" />
    <g
       id="g151">
      <text
         font-family="Arial, Arial_MSFontService, sans-serif"
         font-weight="400"
         font-size="12px"
         transform="translate(447.5,291)"
         id="text5">Gas</text>
      <text
         font-family="Arial, Arial_MSFontService, sans-serif"
         font-weight="400"
         font-size="12px"
         transform="translate(432.167,306)"
         id="text6">extraction</text>
    </g>
    <rect
       x="427"
       y="354"
       width="64"
       height="37"
       fill="#bbe0e3"
       id="rect6"
       style="stroke:#000000;stroke-opacity:1" />
    <g
       id="g150">
      <text
         font-family="Arial, Arial_MSFontService, sans-serif"
         font-weight="400"
         font-size="12px"
         transform="translate(444.333,371)"
         id="text7">Coal</text>
      <text
         font-family="Arial, Arial_MSFontService, sans-serif"
         font-weight="400"
         font-size="12px"
         transform="translate(432.167,386)"
         id="text8">extraction</text>
    </g>
    <rect
       x="427"
       y="434"
       width="64"
       height="38"
       fill="#bbe0e3"
       id="rect8"
       style="stroke:#000000;stroke-opacity:1" />
    <g
       id="g149">
      <text
         font-family="Arial, Arial_MSFontService, sans-serif"
         font-weight="400"
         font-size="12px"
         transform="translate(449.667,451)"
         id="text9">Oil</text>
      <text
         font-family="Arial, Arial_MSFontService, sans-serif"
         font-weight="400"
         font-size="12px"
         transform="translate(432.167,466)"
         id="text10">extraction</text>
    </g>
    <rect
       x="427"
       y="520"
       width="64"
       height="37"
       fill="#bbe0e3"
       id="rect10"
       style="stroke:#000000;stroke-opacity:1" />
    <g
       id="g148">
      <text
         font-family="Arial, Arial_MSFontService, sans-serif"
         font-weight="400"
         font-size="12px"
         transform="translate(449.667,536)"
         id="text11">Oil</text>
      <text
         font-family="Arial, Arial_MSFontService, sans-serif"
         font-weight="400"
         font-size="12px"
         transform="translate(441.333,551)"
         id="text12">Import</text>
    </g>
    <rect
       x="732"
       y="269"
       width="70"
       height="37"
       fill="#bbe0e3"
       id="rect12"
       style="stroke-width:1.04583;stroke:#000000;stroke-opacity:1" />
    <g
       id="g147"
       transform="translate(3.0002788)">
      <text
         font-family="Arial, Arial_MSFontService, sans-serif"
         font-weight="400"
         font-size="12px"
         transform="translate(739,285)"
         id="text13">Gas fired</text>
      <text
         font-family="Arial, Arial_MSFontService, sans-serif"
         font-weight="400"
         font-size="12px"
         transform="translate(731.5,300)"
         id="text14">Power plant</text>
    </g>
    <rect
       x="732"
       y="349"
       width="70"
       height="37"
       fill="#bbe0e3"
       id="rect14"
       style="stroke-width:1.04583;stroke:#000000;stroke-opacity:1" />
    <g
       id="g146"
       transform="translate(3.0002788)">
      <text
         font-family="Arial, Arial_MSFontService, sans-serif"
         font-weight="400"
         font-size="12px"
         transform="translate(737.667,365)"
         id="text15">Coal fired</text>
      <text
         font-family="Arial, Arial_MSFontService, sans-serif"
         font-weight="400"
         font-size="12px"
         transform="translate(731.5,380)"
         id="text16">Power plant</text>
    </g>
    <rect
       x="732"
       y="418"
       width="70"
       height="37"
       fill="#bbe0e3"
       id="rect16"
       style="stroke-width:1.04583;stroke:#000000;stroke-opacity:1" />
    <g
       id="g145"
       transform="translate(3.0002788)">
      <text
         font-family="Arial, Arial_MSFontService, sans-serif"
         font-weight="400"
         font-size="12px"
         transform="translate(742.667,435)"
         id="text17">Oil fired</text>
      <text
         font-family="Arial, Arial_MSFontService, sans-serif"
         font-weight="400"
         font-size="12px"
         transform="translate(731.5,450)"
         id="text18">Power plant</text>
    </g>
    <rect
       x="647"
       y="488"
       width="48"
       height="37"
       fill="#bbe0e3"
       id="rect18"
       style="stroke:#000000;stroke-opacity:1" />
    <g
       id="g144">
      <text
         font-family="Arial, Arial_MSFontService, sans-serif"
         font-weight="400"
         font-size="12px"
         transform="translate(661.5,504)"
         id="text19">Oil</text>
      <text
         font-family="Arial, Arial_MSFontService, sans-serif"
         font-weight="400"
         font-size="12px"
         transform="translate(650.167,519)"
         id="text20">refinery</text>
    </g>
    <path
       d="m 529.5,221.5 v 395"
       stroke="#000000"
       stroke-width="0.666667"
       stroke-linejoin="round"
       stroke-miterlimit="10"
       fill="none"
       fill-rule="evenodd"
       id="path20" />
    <path
       d="m 545.5,221.5 v 395"
       stroke="#000000"
       stroke-width="0.666667"
       stroke-linejoin="round"
       stroke-miterlimit="10"
       fill="none"
       fill-rule="evenodd"
       id="path21" />
    <path
       d="m 513.5,221.5 v 395"
       stroke="#000000"
       stroke-width="0.666667"
       stroke-linejoin="round"
       stroke-miterlimit="10"
       fill="none"
       fill-rule="evenodd"
       id="path22" />
    <rect
       x="583"
       y="290"
       width="64"
       height="37"
       fill="#bbe0e3"
       id="rect22"
       style="stroke:#000000;stroke-opacity:1" />
    <g
       id="g143">
      <text
         font-family="Arial, Arial_MSFontService, sans-serif"
         font-weight="400"
         font-size="12px"
         transform="translate(603.333,307)"
         id="text23">Gas</text>
      <text
         font-family="Arial, Arial_MSFontService, sans-serif"
         font-weight="400"
         font-size="12px"
         transform="translate(600.5,322)"
         id="text24">Plant</text>
    </g>
    <rect
       x="556"
       y="450"
       width="64"
       height="38"
       fill="#bbe0e3"
       id="rect24"
       style="stroke:#000000;stroke-opacity:1" />
    <text
       font-family="Arial, Arial_MSFontService, sans-serif"
       font-weight="400"
       font-size="12px"
       transform="translate(566,474)"
       id="text25">Pipeline</text>
    <path
       d="m 668.5,221.5 v 170"
       stroke="#000000"
       stroke-width="0.666667"
       stroke-linejoin="round"
       stroke-miterlimit="10"
       fill="none"
       fill-rule="evenodd"
       id="path25" />
    <path
       d="m 631.5,386.5 v 256"
       stroke="#000000"
       stroke-width="0.666667"
       stroke-linejoin="round"
       stroke-miterlimit="10"
       fill="none"
       fill-rule="evenodd"
       id="path26" />
    <rect
       x="850"
       y="466"
       width="64"
       height="38"
       fill="#bbe0e3"
       id="rect26"
       style="stroke:#000000;stroke-opacity:1" />
    <g
       id="g142">
      <text
         font-family="Arial, Arial_MSFontService, sans-serif"
         font-weight="400"
         font-size="12px"
         transform="translate(874,483)"
         id="text27">Oil</text>
      <text
         font-family="Arial, Arial_MSFontService, sans-serif"
         font-weight="400"
         font-size="12px"
         transform="translate(858.833,498)"
         id="text28">Furnace</text>
    </g>
    <path
       d="m 812.5,221.5 v 395"
       stroke="#000000"
       stroke-width="0.666667"
       stroke-linejoin="round"
       stroke-miterlimit="10"
       fill="none"
       fill-rule="evenodd"
       id="path28" />
    <path
       d="m 946.5,221.5 v 395"
       stroke="#000000"
       stroke-width="0.666667"
       stroke-linejoin="round"
       stroke-miterlimit="10"
       fill="none"
       fill-rule="evenodd"
       id="path29" />
    <path
       d="m 348.188,293.766 h 80.625 0.168 l 0.084,0.078 v 0.078 l 0.083,0.078 -0.083,0.156 v 0.078 l -0.084,0.079 h -0.168 -80.625 -0.252 l -0.084,-0.079 v -0.078 l -0.084,-0.156 0.084,-0.078 v -0.078 l 0.084,-0.078 z m 0,2.734 h -0.336 l -0.336,-0.078 -0.42,-0.078 -0.42,-0.235 -0.42,-0.39 -0.336,-0.313 -0.336,-0.39 -0.084,-0.469 v -0.313 -0.234 -0.234 -0.235 l 0.084,-0.468 0.336,-0.469 0.336,-0.391 0.42,-0.312 0.42,-0.157 0.42,-0.234 h 0.336 0.336 0.168 0.335 l 0.42,0.234 0.588,0.157 0.252,0.312 0.336,0.391 0.336,0.469 0.084,0.468 v 0.235 l 0.168,0.234 -0.168,0.234 v 0.313 l -0.084,0.469 -0.336,0.39 -0.336,0.313 -0.252,0.39 -0.588,0.235 -0.42,0.078 -0.335,0.078 z m 80.625,-5 h 0.252 0.335 l 0.42,0.234 0.504,0.157 0.336,0.312 0.336,0.391 0.336,0.469 0.084,0.468 v 0.235 l 0.084,0.234 -0.084,0.234 v 0.313 l -0.084,0.469 -0.336,0.39 -0.336,0.313 -0.336,0.39 -0.504,0.235 -0.42,0.078 -0.335,0.078 h -0.252 -0.252 l -0.336,-0.078 -0.42,-0.078 -0.504,-0.235 -0.42,-0.39 -0.336,-0.313 -0.252,-0.39 -0.168,-0.469 v -0.313 -0.234 -0.234 -0.235 l 0.168,-0.468 0.252,-0.469 0.336,-0.391 0.42,-0.312 0.504,-0.157 0.42,-0.234 h 0.336 z"
       stroke="#000000"
       stroke-width="0.166719"
       stroke-linejoin="round"
       stroke-miterlimit="10"
       fill-rule="evenodd"
       id="path30" />
    <path
       d="m 364.192,375.609 h 64.616 l 0.168,0.079 h 0.084 v 0.156 l 0.084,0.156 -0.084,0.156 v 0.078 h -0.084 l -0.168,0.079 h -64.616 l -0.252,-0.079 h -0.084 v -0.078 l -0.084,-0.156 0.084,-0.156 v -0.156 h 0.084 z m 0,2.891 -0.336,-0.078 h -0.337 l -0.42,-0.078 -0.421,-0.313 -0.421,-0.312 -0.336,-0.313 -0.337,-0.468 -0.084,-0.391 v -0.313 -0.234 -0.312 -0.235 l 0.084,-0.39 0.337,-0.469 0.336,-0.391 0.421,-0.312 0.421,-0.235 0.42,-0.156 h 0.337 0.336 0.169 0.336 l 0.421,0.156 0.589,0.235 0.336,0.312 0.253,0.391 0.336,0.469 0.169,0.39 v 0.235 l 0.084,0.312 -0.084,0.234 v 0.313 l -0.169,0.391 -0.336,0.468 -0.253,0.313 -0.336,0.312 -0.589,0.313 -0.421,0.078 h -0.336 z m 64.616,-5 h 0.252 0.337 l 0.42,0.156 0.505,0.235 0.337,0.312 0.336,0.391 0.337,0.469 0.084,0.39 v 0.235 l 0.084,0.312 -0.084,0.234 v 0.313 l -0.084,0.391 -0.337,0.468 -0.336,0.313 -0.337,0.312 -0.505,0.313 -0.42,0.078 h -0.337 l -0.252,0.078 -0.253,-0.078 h -0.336 l -0.421,-0.078 -0.505,-0.313 -0.42,-0.312 -0.337,-0.313 -0.252,-0.468 -0.169,-0.391 v -0.313 -0.234 -0.312 -0.235 l 0.169,-0.39 0.252,-0.469 0.337,-0.391 0.42,-0.312 0.505,-0.235 0.421,-0.156 h 0.336 z"
       stroke="#000000"
       stroke-width="0.166719"
       stroke-linejoin="round"
       stroke-miterlimit="10"
       fill-rule="evenodd"
       id="path31" />
    <path
       d="m 380.2,450.031 h 48.6 l 0.169,0.094 h 0.084 v 0.094 l 0.085,0.281 -0.085,0.094 v 0.094 h -0.084 l -0.169,0.187 h -48.6 l -0.253,-0.187 h -0.084 v -0.094 l -0.085,-0.094 0.085,-0.281 v -0.094 h 0.084 z m 0,3.469 -0.337,-0.094 h -0.338 l -0.422,-0.187 -0.422,-0.281 -0.422,-0.375 -0.337,-0.375 -0.338,-0.657 -0.084,-0.468 v -0.375 -0.188 -0.375 -0.375 l 0.084,-0.469 0.338,-0.468 0.337,-0.469 0.422,-0.375 0.422,-0.375 0.422,-0.094 h 0.338 0.337 0.169 0.337 l 0.422,0.094 0.591,0.375 0.337,0.375 0.338,0.469 0.253,0.468 0.169,0.469 v 0.375 l 0.084,0.375 -0.084,0.188 v 0.375 l -0.169,0.468 -0.253,0.657 -0.338,0.375 -0.337,0.375 -0.591,0.281 -0.422,0.187 h -0.337 z m 48.6,-6 h 0.253 0.338 l 0.422,0.094 0.506,0.375 0.337,0.375 0.338,0.469 0.337,0.468 0.085,0.469 v 0.375 l 0.084,0.375 -0.084,0.188 v 0.375 l -0.085,0.468 -0.337,0.657 -0.338,0.375 -0.337,0.375 -0.506,0.281 -0.422,0.187 h -0.338 l -0.253,0.094 -0.253,-0.094 h -0.338 l -0.421,-0.187 -0.507,-0.281 -0.422,-0.375 -0.337,-0.375 -0.253,-0.657 -0.169,-0.468 v -0.375 -0.188 -0.375 -0.375 l 0.169,-0.469 0.253,-0.468 0.337,-0.469 0.422,-0.375 0.507,-0.375 0.421,-0.094 h 0.338 z"
       stroke="#000000"
       stroke-width="0.166719"
       stroke-linejoin="round"
       stroke-miterlimit="10"
       fill-rule="evenodd"
       id="path32" />
    <path
       d="m 396.214,541.031 h 32.572 l 0.169,0.094 h 0.085 v 0.094 l 0.085,0.281 -0.085,0.094 v 0.094 h -0.085 l -0.169,0.093 h -32.572 l -0.169,-0.093 h -0.17 v -0.094 l -0.085,-0.094 0.085,-0.281 v -0.094 h 0.17 z m 0,3.469 -0.339,-0.187 h -0.339 l -0.424,-0.094 -0.424,-0.375 -0.425,-0.375 -0.339,-0.281 -0.339,-0.657 -0.085,-0.468 v -0.375 -0.188 -0.375 -0.375 l 0.085,-0.469 0.339,-0.468 0.339,-0.469 0.425,-0.375 0.424,-0.375 0.424,-0.094 h 0.339 0.339 0.255 0.254 l 0.509,0.094 0.509,0.375 0.339,0.375 0.34,0.469 0.339,0.468 0.085,0.469 v 0.375 l 0.085,0.375 -0.085,0.188 v 0.375 l -0.085,0.468 -0.339,0.657 -0.34,0.281 -0.339,0.375 -0.509,0.375 -0.509,0.094 h -0.254 z m 32.572,-6 h 0.254 0.34 l 0.424,0.094 0.509,0.375 0.339,0.375 0.339,0.469 0.339,0.468 0.085,0.469 v 0.375 l 0.085,0.375 -0.085,0.188 v 0.375 l -0.085,0.468 -0.339,0.657 -0.339,0.281 -0.339,0.375 -0.509,0.375 -0.424,0.094 h -0.34 l -0.254,0.187 -0.255,-0.187 h -0.339 l -0.424,-0.094 -0.509,-0.375 -0.424,-0.375 -0.339,-0.281 -0.255,-0.657 -0.17,-0.468 v -0.375 -0.188 -0.375 -0.375 l 0.17,-0.469 0.255,-0.468 0.339,-0.469 0.424,-0.375 0.509,-0.375 0.424,-0.094 h 0.339 z"
       stroke="#000000"
       stroke-width="0.166719"
       stroke-linejoin="round"
       stroke-miterlimit="10"
       fill-rule="evenodd"
       id="path33" />
    <path
       d="m 492.2,290.031 h 21.6 l 0.084,0.094 h 0.169 v 0.094 l 0.085,0.281 -0.085,0.094 v 0.094 h -0.169 l -0.084,0.093 h -21.6 l -0.253,-0.093 h -0.084 v -0.094 l -0.085,-0.094 0.085,-0.281 v -0.094 h 0.084 z m 0,3.469 -0.337,-0.187 h -0.338 l -0.422,-0.094 -0.422,-0.375 -0.422,-0.375 -0.337,-0.281 -0.338,-0.657 -0.084,-0.468 v -0.375 -0.188 -0.375 -0.375 l 0.084,-0.469 0.338,-0.468 0.337,-0.469 0.422,-0.375 0.422,-0.375 0.422,-0.094 h 0.338 0.337 0.253 0.253 l 0.422,0.094 0.591,0.375 0.337,0.375 0.338,0.469 0.253,0.468 0.169,0.469 v 0.375 l 0.084,0.375 -0.084,0.188 v 0.375 l -0.169,0.468 -0.253,0.657 -0.338,0.281 -0.337,0.375 -0.591,0.375 -0.422,0.094 h -0.253 z m 21.6,-6 h 0.253 0.338 l 0.422,0.094 0.506,0.375 0.337,0.375 0.338,0.469 0.337,0.468 0.085,0.469 v 0.375 l 0.084,0.375 -0.084,0.188 v 0.375 l -0.085,0.468 -0.337,0.657 -0.338,0.281 -0.337,0.375 -0.506,0.375 -0.422,0.094 h -0.338 l -0.253,0.187 -0.337,-0.187 h -0.338 l -0.422,-0.094 -0.422,-0.375 -0.422,-0.375 -0.337,-0.281 -0.338,-0.657 -0.084,-0.468 v -0.375 -0.188 -0.375 -0.375 l 0.084,-0.469 0.338,-0.468 0.337,-0.469 0.422,-0.375 0.422,-0.375 0.422,-0.094 h 0.338 z"
       stroke="#000000"
       stroke-width="0.166719"
       stroke-linejoin="round"
       stroke-miterlimit="10"
       fill-rule="evenodd"
       id="path34" />
    <path
       d="m 492.188,375.609 h 37.625 l 0.168,0.079 h 0.084 v 0.156 l 0.083,0.156 -0.083,0.156 v 0.078 h -0.084 l -0.168,0.079 h -37.625 l -0.252,-0.079 h -0.084 v -0.078 l -0.084,-0.156 0.084,-0.156 v -0.156 h 0.084 z m 0,2.891 -0.336,-0.078 h -0.336 l -0.42,-0.078 -0.42,-0.313 -0.42,-0.312 -0.336,-0.313 -0.336,-0.468 -0.084,-0.391 v -0.313 -0.234 -0.312 -0.235 l 0.084,-0.39 0.336,-0.469 0.336,-0.391 0.42,-0.312 0.42,-0.235 0.42,-0.156 h 0.336 0.336 0.252 0.251 l 0.42,0.156 0.588,0.235 0.336,0.312 0.336,0.391 0.252,0.469 0.168,0.39 v 0.235 l 0.084,0.312 -0.084,0.234 v 0.313 l -0.168,0.391 -0.252,0.468 -0.336,0.313 -0.336,0.312 -0.588,0.313 -0.42,0.078 h -0.251 z m 37.625,-5 h 0.252 0.335 l 0.42,0.156 0.504,0.235 0.336,0.312 0.336,0.391 0.336,0.469 0.084,0.39 v 0.235 l 0.084,0.312 -0.084,0.234 v 0.313 l -0.084,0.391 -0.336,0.468 -0.336,0.313 -0.336,0.312 -0.504,0.313 -0.42,0.078 h -0.335 l -0.252,0.078 -0.336,-0.078 h -0.252 l -0.504,-0.078 -0.42,-0.313 -0.42,-0.312 -0.336,-0.313 -0.252,-0.468 -0.168,-0.391 v -0.313 -0.234 -0.312 -0.235 l 0.168,-0.39 0.252,-0.469 0.336,-0.391 0.42,-0.312 0.42,-0.235 0.504,-0.156 h 0.252 z"
       stroke="#000000"
       stroke-width="0.166719"
       stroke-linejoin="round"
       stroke-miterlimit="10"
       fill-rule="evenodd"
       id="path35" />
    <path
       d="m 492.182,450.031 h 53.636 l 0.168,0.094 h 0.084 v 0.094 l 0.083,0.281 -0.083,0.094 v 0.094 h -0.084 l -0.168,0.187 h -53.636 l -0.252,-0.187 h -0.083 v -0.094 l -0.084,-0.094 0.084,-0.281 v -0.094 h 0.083 z m 0,3.469 -0.335,-0.094 h -0.336 l -0.419,-0.187 -0.419,-0.281 -0.419,-0.375 -0.335,-0.375 -0.335,-0.657 -0.084,-0.468 v -0.375 -0.188 -0.375 -0.375 l 0.084,-0.469 0.335,-0.468 0.335,-0.469 0.419,-0.375 0.419,-0.375 0.419,-0.094 h 0.336 0.335 0.251 0.252 l 0.419,0.094 0.586,0.375 0.336,0.375 0.335,0.469 0.251,0.468 0.168,0.469 v 0.375 l 0.084,0.375 -0.084,0.188 v 0.375 l -0.168,0.468 -0.251,0.657 -0.335,0.375 -0.336,0.375 -0.586,0.281 -0.419,0.187 h -0.252 z m 53.636,-6 h 0.252 0.335 l 0.419,0.094 0.503,0.375 0.335,0.375 0.335,0.469 0.335,0.468 0.084,0.469 v 0.375 l 0.084,0.375 -0.084,0.188 v 0.375 l -0.084,0.468 -0.335,0.657 -0.335,0.375 -0.335,0.375 -0.503,0.281 -0.419,0.187 h -0.335 l -0.252,0.094 -0.251,-0.094 h -0.335 l -0.419,-0.187 -0.503,-0.281 -0.419,-0.375 -0.252,-0.375 -0.335,-0.657 -0.168,-0.468 v -0.375 -0.188 -0.375 -0.375 l 0.168,-0.469 0.335,-0.468 0.252,-0.469 0.419,-0.375 0.503,-0.375 0.419,-0.094 h 0.335 z"
       stroke="#000000"
       stroke-width="0.166719"
       stroke-linejoin="round"
       stroke-miterlimit="10"
       fill-rule="evenodd"
       id="path36" />
    <path
       d="m 647.192,309.731 h 21.616 0.085 l 0.084,0.077 v 0.077 l 0.084,0.077 -0.084,0.153 v 0.077 l -0.084,0.077 h -0.085 -21.616 -0.169 l -0.168,-0.077 v -0.077 l -0.084,-0.153 0.084,-0.077 v -0.077 l 0.168,-0.077 z m 0,2.769 h -0.337 l -0.252,-0.154 -0.421,-0.077 -0.504,-0.23 -0.421,-0.385 -0.336,-0.308 -0.253,-0.384 -0.168,-0.462 v -0.308 -0.23 -0.231 -0.231 l 0.168,-0.461 0.253,-0.385 0.336,-0.462 0.421,-0.23 0.504,-0.231 0.421,-0.231 h 0.252 0.337 0.252 0.336 l 0.421,0.231 0.505,0.231 0.336,0.23 0.337,0.462 0.336,0.385 0.084,0.461 v 0.231 l 0.084,0.231 -0.084,0.23 v 0.308 l -0.084,0.462 -0.336,0.384 -0.337,0.308 -0.336,0.385 -0.505,0.23 -0.421,0.077 -0.336,0.154 z m 21.616,-5 h 0.169 0.336 l 0.421,0.231 0.504,0.231 0.337,0.23 0.336,0.462 0.337,0.385 0.084,0.461 v 0.231 l 0.168,0.231 -0.168,0.23 v 0.308 l -0.084,0.462 -0.337,0.384 -0.336,0.308 -0.337,0.385 -0.504,0.23 -0.421,0.077 -0.336,0.154 h -0.169 -0.336 l -0.336,-0.154 -0.421,-0.077 -0.421,-0.23 -0.504,-0.385 -0.253,-0.308 -0.336,-0.384 -0.084,-0.462 v -0.308 -0.23 -0.231 -0.231 l 0.084,-0.461 0.336,-0.385 0.253,-0.462 0.504,-0.23 0.421,-0.231 0.421,-0.231 h 0.336 z"
       stroke="#000000"
       stroke-width="0.166719"
       stroke-linejoin="round"
       stroke-miterlimit="10"
       fill-rule="evenodd"
       id="path37" />
    <path
       d="m 621.167,466.609 h 10.666 l 0.084,0.079 h 0.166 v 0.078 l 0.084,0.234 -0.084,0.078 v 0.156 h -0.166 l -0.084,0.079 H 621.167 L 621,467.234 h -0.167 v -0.156 L 620.75,467 l 0.083,-0.234 v -0.078 H 621 Z m 0,2.891 -0.334,-0.078 H 620.5 l -0.417,-0.078 -0.416,-0.313 -0.417,-0.312 -0.333,-0.313 -0.334,-0.468 -0.083,-0.469 v -0.235 -0.234 -0.312 -0.313 l 0.083,-0.391 0.334,-0.39 0.333,-0.391 0.417,-0.312 0.416,-0.313 0.417,-0.078 h 0.333 0.334 0.25 0.333 l 0.417,0.078 0.5,0.313 0.333,0.312 0.333,0.391 0.334,0.39 0.083,0.391 v 0.313 l 0.083,0.312 -0.083,0.234 v 0.235 l -0.083,0.469 -0.334,0.468 -0.333,0.313 -0.333,0.312 -0.5,0.313 -0.417,0.078 h -0.333 z m 10.666,-5 h 0.25 0.334 l 0.416,0.078 0.5,0.313 0.334,0.312 0.333,0.391 0.333,0.39 0.084,0.391 v 0.313 l 0.083,0.312 -0.083,0.234 v 0.235 l -0.084,0.469 -0.333,0.468 -0.333,0.313 -0.334,0.312 -0.5,0.313 -0.416,0.078 h -0.334 l -0.25,0.078 -0.333,-0.078 h -0.25 l -0.5,-0.078 -0.417,-0.313 -0.416,-0.312 -0.334,-0.313 -0.333,-0.468 -0.083,-0.469 v -0.235 -0.234 -0.312 -0.313 l 0.083,-0.391 0.333,-0.39 0.334,-0.391 0.416,-0.312 0.417,-0.313 0.5,-0.078 h 0.25 z"
       stroke="#000000"
       stroke-width="0.166719"
       stroke-linejoin="round"
       stroke-miterlimit="10"
       fill-rule="evenodd"
       id="path38" />
    <path
       d="m 514.14,311.609 h 68.72 l 0.083,0.079 h 0.082 v 0.078 l 0.165,0.234 -0.165,0.078 v 0.078 h -0.082 l -0.083,0.157 h -68.72 l -0.165,-0.157 h -0.165 v -0.078 l -0.083,-0.078 0.083,-0.234 v -0.078 h 0.165 z m 0,2.891 -0.33,-0.078 h -0.33 l -0.412,-0.156 -0.413,-0.313 -0.412,-0.234 -0.33,-0.313 -0.33,-0.547 -0.083,-0.39 v -0.313 -0.156 -0.312 -0.313 l 0.083,-0.391 0.33,-0.39 0.33,-0.391 0.412,-0.312 0.413,-0.313 0.412,-0.078 h 0.33 0.33 0.247 0.33 l 0.413,0.078 0.495,0.313 0.33,0.312 0.33,0.391 0.33,0.39 0.082,0.391 v 0.313 l 0.083,0.312 -0.083,0.156 v 0.313 l -0.082,0.39 -0.33,0.547 -0.33,0.313 -0.33,0.234 -0.495,0.313 -0.413,0.156 h -0.33 z m 68.72,-5 h 0.165 0.33 l 0.413,0.078 0.577,0.313 0.33,0.312 0.248,0.391 0.33,0.39 0.165,0.391 v 0.313 l 0.082,0.312 -0.082,0.156 v 0.313 l -0.165,0.39 -0.33,0.547 -0.248,0.313 -0.33,0.234 -0.577,0.313 -0.413,0.156 h -0.33 l -0.165,0.078 -0.33,-0.078 h -0.33 l -0.412,-0.156 -0.413,-0.313 -0.412,-0.234 -0.33,-0.313 -0.33,-0.547 -0.083,-0.39 v -0.313 -0.156 -0.312 -0.313 l 0.083,-0.391 0.33,-0.39 0.33,-0.391 0.412,-0.312 0.413,-0.313 0.412,-0.078 h 0.33 z"
       stroke="#000000"
       stroke-width="0.166719"
       stroke-linejoin="round"
       stroke-miterlimit="10"
       fill-rule="evenodd"
       id="path39" />
    <path
       d="m 546.153,471.609 h 10.694 l 0.083,0.079 h 0.083 v 0.156 l 0.083,0.156 -0.083,0.078 v 0.156 h -0.083 l -0.083,0.079 h -10.694 l -0.166,-0.079 h -0.083 v -0.156 l -0.166,-0.078 0.166,-0.156 v -0.156 h 0.083 z m 0,2.891 -0.249,-0.078 h -0.331 l -0.415,-0.078 -0.497,-0.313 -0.415,-0.312 -0.249,-0.313 -0.331,-0.468 -0.166,-0.469 v -0.235 -0.234 -0.312 -0.313 l 0.166,-0.391 0.331,-0.39 0.249,-0.391 0.415,-0.312 0.497,-0.313 0.415,-0.078 h 0.331 0.249 0.249 0.331 l 0.415,0.078 0.497,0.313 0.332,0.312 0.331,0.391 0.332,0.39 0.083,0.391 v 0.313 l 0.083,0.312 -0.083,0.234 v 0.235 l -0.083,0.469 -0.332,0.468 -0.331,0.313 -0.332,0.312 -0.497,0.313 -0.415,0.078 h -0.331 z m 10.694,-5 h 0.166 0.332 l 0.414,0.078 0.498,0.313 0.331,0.312 0.332,0.391 0.331,0.39 0.083,0.391 v 0.313 l 0.166,0.312 -0.166,0.234 v 0.235 l -0.083,0.469 -0.331,0.468 -0.332,0.313 -0.331,0.312 -0.498,0.313 -0.414,0.078 h -0.332 l -0.166,0.078 -0.331,-0.078 h -0.332 l -0.415,-0.078 -0.414,-0.313 -0.497,-0.312 -0.249,-0.313 -0.332,-0.468 -0.166,-0.469 v -0.235 -0.234 -0.312 -0.313 l 0.166,-0.391 0.332,-0.39 0.249,-0.391 0.497,-0.312 0.414,-0.313 0.415,-0.078 h 0.332 z"
       stroke="#000000"
       stroke-width="0.166719"
       stroke-linejoin="round"
       stroke-miterlimit="10"
       fill-rule="evenodd"
       id="path40" />
    <path
       d="m 631.25,509.031 h 16.5 l 0.172,0.188 h 0.086 v 0.094 l 0.086,0.187 -0.086,0.188 v 0.093 h -0.086 l -0.172,0.094 h -16.5 l -0.172,-0.094 h -0.172 v -0.093 l -0.086,-0.188 0.086,-0.187 v -0.094 h 0.172 z m 0,3.469 -0.344,-0.094 h -0.258 l -0.515,-0.093 -0.43,-0.375 -0.43,-0.375 -0.343,-0.375 -0.344,-0.563 -0.086,-0.469 v -0.375 -0.281 -0.281 -0.375 l 0.086,-0.469 0.344,-0.562 0.343,-0.469 0.43,-0.375 0.43,-0.281 0.515,-0.188 h 0.258 0.344 0.258 0.344 l 0.429,0.188 0.516,0.281 0.344,0.375 0.343,0.469 0.344,0.562 0.086,0.469 v 0.375 l 0.086,0.281 -0.086,0.281 v 0.375 l -0.086,0.469 -0.344,0.563 -0.343,0.375 -0.344,0.375 -0.516,0.375 -0.429,0.093 h -0.344 z m 16.5,-6 h 0.258 0.344 l 0.429,0.188 0.516,0.281 0.344,0.375 0.343,0.469 0.344,0.562 0.086,0.469 v 0.375 l 0.086,0.281 -0.086,0.281 v 0.375 l -0.086,0.469 -0.344,0.563 -0.343,0.375 -0.344,0.375 -0.516,0.375 -0.429,0.093 h -0.344 l -0.258,0.094 -0.344,-0.094 h -0.258 l -0.429,-0.093 -0.516,-0.375 -0.43,-0.375 -0.343,-0.375 -0.258,-0.563 -0.172,-0.469 v -0.375 -0.281 -0.281 -0.375 l 0.172,-0.469 0.258,-0.562 0.343,-0.469 0.43,-0.375 0.516,-0.281 0.429,-0.188 h 0.258 z"
       stroke="#000000"
       stroke-width="0.166719"
       stroke-linejoin="round"
       stroke-miterlimit="10"
       fill-rule="evenodd"
       id="path41" />
    <path
       d="m 492.184,541.031 h 139.632 l 0.084,0.094 h 0.168 v 0.094 l 0.084,0.281 -0.084,0.094 v 0.094 H 631.9 l -0.084,0.093 H 492.184 l -0.252,-0.093 h -0.084 v -0.094 l -0.084,-0.094 0.084,-0.281 v -0.094 h 0.084 z m 0,3.469 -0.336,-0.187 h -0.335 l -0.42,-0.094 -0.419,-0.375 -0.419,-0.375 -0.336,-0.281 -0.335,-0.657 -0.084,-0.468 v -0.375 -0.188 -0.375 -0.375 l 0.084,-0.469 0.335,-0.468 0.336,-0.469 0.419,-0.375 0.419,-0.375 0.42,-0.094 h 0.335 0.336 0.251 0.252 l 0.419,0.094 0.587,0.375 0.336,0.375 0.335,0.469 0.252,0.468 0.167,0.469 v 0.375 l 0.084,0.375 -0.084,0.188 v 0.375 l -0.167,0.468 -0.252,0.657 -0.335,0.281 -0.336,0.375 -0.587,0.375 -0.419,0.094 h -0.252 z m 139.632,-6 h 0.252 0.335 l 0.42,0.094 0.503,0.375 0.335,0.375 0.336,0.469 0.335,0.468 0.084,0.469 v 0.375 l 0.084,0.375 -0.084,0.188 v 0.375 l -0.084,0.468 -0.335,0.657 -0.336,0.281 -0.335,0.375 -0.503,0.375 -0.42,0.094 h -0.335 l -0.252,0.187 -0.335,-0.187 h -0.252 l -0.503,-0.094 -0.419,-0.375 -0.419,-0.375 -0.336,-0.281 -0.335,-0.657 -0.084,-0.468 v -0.375 -0.188 -0.375 -0.375 l 0.084,-0.469 0.335,-0.468 0.336,-0.469 0.419,-0.375 0.419,-0.375 0.503,-0.094 h 0.252 z"
       stroke="#000000"
       stroke-width="0.166719"
       stroke-linejoin="round"
       stroke-miterlimit="10"
       fill-rule="evenodd"
       id="path42" />
    <path
       d="m 669.154,284.531 h 63.692 l 0.083,0.157 h 0.166 v 0.078 l 0.083,0.234 -0.083,0.078 v 0.078 h -0.166 l -0.083,0.078 h -63.692 l -0.249,-0.078 h -0.083 v -0.078 l -0.166,-0.078 0.166,-0.234 v -0.078 h 0.083 z m 0,2.969 -0.332,-0.156 h -0.332 l -0.414,-0.078 -0.415,-0.313 -0.497,-0.312 -0.249,-0.235 -0.332,-0.547 -0.083,-0.39 v -0.313 -0.156 -0.312 -0.313 l 0.083,-0.391 0.332,-0.39 0.249,-0.391 0.497,-0.312 0.415,-0.313 0.414,-0.078 h 0.332 0.332 0.166 0.331 l 0.415,0.078 0.498,0.313 0.332,0.312 0.331,0.391 0.332,0.39 0.083,0.391 v 0.313 l 0.166,0.312 -0.166,0.156 v 0.313 l -0.083,0.39 -0.332,0.547 -0.331,0.235 -0.332,0.312 -0.498,0.313 -0.415,0.078 h -0.331 z m 63.692,-5 h 0.249 0.332 l 0.414,0.078 0.498,0.313 0.332,0.312 0.331,0.391 0.332,0.39 0.083,0.391 v 0.313 l 0.083,0.312 -0.083,0.156 v 0.313 l -0.083,0.39 -0.332,0.547 -0.331,0.235 -0.332,0.312 -0.498,0.313 -0.414,0.078 h -0.332 l -0.249,0.156 -0.332,-0.156 h -0.331 l -0.415,-0.078 -0.415,-0.313 -0.414,-0.312 -0.332,-0.235 -0.332,-0.547 -0.083,-0.39 v -0.313 -0.156 -0.312 -0.313 l 0.083,-0.391 0.332,-0.39 0.332,-0.391 0.414,-0.312 0.415,-0.313 0.415,-0.078 h 0.331 z"
       stroke="#000000"
       stroke-width="0.166719"
       stroke-linejoin="round"
       stroke-miterlimit="10"
       fill-rule="evenodd"
       id="path43" />
    <rect
       x="850"
       y="381"
       width="64"
       height="37"
       fill="#bbe0e3"
       id="rect43"
       style="stroke:#000000;stroke-opacity:1" />
    <g
       id="g141">
      <text
         font-family="Arial, Arial_MSFontService, sans-serif"
         font-weight="400"
         font-size="12px"
         transform="translate(861.167,397)"
         id="text44">Electric</text>
      <text
         font-family="Arial, Arial_MSFontService, sans-serif"
         font-weight="400"
         font-size="12px"
         transform="translate(863,412)"
         id="text45">Heater</text>
    </g>
    <rect
       x="850"
       y="301"
       width="64"
       height="37"
       fill="#bbe0e3"
       id="rect45"
       style="stroke:#000000;stroke-opacity:1" />
    <g
       id="g140">
      <text
         font-family="Arial, Arial_MSFontService, sans-serif"
         font-weight="400"
         font-size="12px"
         transform="translate(870.167,317)"
         id="text46">Gas</text>
      <text
         font-family="Arial, Arial_MSFontService, sans-serif"
         font-weight="400"
         font-size="12px"
         transform="translate(858.833,332)"
         id="text47">Furnace</text>
    </g>
    <path
       d="m 669.156,322.125 h 180.688 0.083 0.166 l 0.083,0.094 v 0.281 0.094 l -0.083,0.094 -0.166,0.187 h -0.083 -180.688 -0.249 l -0.083,-0.187 v -0.094 -0.094 -0.281 -0.094 h 0.083 z m 0,3.375 -0.332,-0.094 h -0.332 l -0.415,-0.187 -0.415,-0.281 -0.498,-0.375 -0.249,-0.375 -0.332,-0.657 -0.083,-0.468 v -0.375 -0.188 -0.375 -0.375 l 0.083,-0.469 0.332,-0.468 0.249,-0.469 0.498,-0.375 0.415,-0.375 0.415,-0.094 h 0.332 0.332 0.166 0.332 l 0.415,0.094 0.498,0.375 0.332,0.375 0.332,0.469 0.332,0.468 0.083,0.469 v 0.375 l 0.166,0.375 -0.166,0.188 v 0.375 l -0.083,0.468 -0.332,0.657 -0.332,0.375 -0.332,0.375 -0.498,0.281 -0.415,0.187 h -0.332 z m 180.688,-6 h 0.249 0.332 l 0.415,0.094 0.498,0.375 0.332,0.375 0.332,0.469 0.332,0.468 0.083,0.469 v 0.375 l 0.083,0.375 -0.083,0.188 v 0.375 l -0.083,0.468 -0.332,0.657 -0.332,0.375 -0.332,0.375 -0.498,0.281 -0.415,0.187 h -0.332 l -0.249,0.094 -0.332,-0.094 h -0.332 l -0.415,-0.187 -0.415,-0.281 -0.415,-0.375 -0.332,-0.375 -0.332,-0.657 -0.083,-0.468 v -0.375 -0.188 -0.375 -0.375 l 0.083,-0.469 0.332,-0.468 0.332,-0.469 0.415,-0.375 0.415,-0.375 0.415,-0.094 h 0.332 z"
       stroke="#000000"
       stroke-width="0.166719"
       stroke-linejoin="round"
       stroke-miterlimit="10"
       fill-rule="evenodd"
       id="path47" />
    <path
       d="m 722.158,485.688 h 127.684 0.083 l 0.166,0.078 0.083,0.156 v 0.078 0.078 l -0.083,0.078 -0.166,0.157 h -0.083 -127.684 -0.249 l -0.083,-0.157 v -0.078 -0.078 -0.078 -0.156 l 0.083,-0.078 z m 0,2.812 h -0.332 l -0.332,-0.078 -0.416,-0.156 -0.415,-0.157 -0.415,-0.312 -0.333,-0.391 -0.332,-0.39 -0.083,-0.547 v -0.313 -0.156 -0.312 -0.235 l 0.083,-0.469 0.332,-0.39 0.333,-0.391 0.415,-0.312 0.415,-0.235 0.416,-0.156 h 0.332 0.332 0.25 0.249 l 0.498,0.156 0.499,0.235 0.332,0.312 0.332,0.391 0.25,0.39 0.166,0.469 v 0.235 l 0.083,0.312 -0.083,0.156 v 0.313 l -0.166,0.547 -0.25,0.39 -0.332,0.391 -0.332,0.312 -0.499,0.157 -0.498,0.156 -0.249,0.078 z m 127.684,-5 h 0.249 0.332 l 0.416,0.156 0.498,0.235 0.332,0.312 0.333,0.391 0.332,0.39 0.083,0.469 v 0.235 l 0.083,0.312 -0.083,0.156 v 0.313 l -0.083,0.547 -0.332,0.39 -0.333,0.391 -0.332,0.312 -0.498,0.157 -0.416,0.156 -0.332,0.078 h -0.249 -0.333 l -0.332,-0.078 -0.415,-0.156 -0.416,-0.157 -0.415,-0.312 -0.332,-0.391 -0.333,-0.39 -0.083,-0.547 v -0.313 -0.156 -0.312 -0.235 l 0.083,-0.469 0.333,-0.39 0.332,-0.391 0.415,-0.312 0.416,-0.235 0.415,-0.156 h 0.332 z"
       stroke="#000000"
       stroke-width="0.166719"
       stroke-linejoin="round"
       stroke-miterlimit="10"
       fill-rule="evenodd"
       id="path50" />
    <path
       d="m 530.165,364.609 h 202.671 l 0.083,0.079 h 0.166 v 0.156 l 0.084,0.156 -0.084,0.156 v 0.078 h -0.166 l -0.083,0.079 H 530.165 l -0.167,-0.079 h -0.166 v -0.078 l -0.084,-0.156 0.084,-0.156 v -0.156 h 0.166 z m 0,2.891 -0.333,-0.078 h -0.25 l -0.5,-0.078 -0.416,-0.313 -0.417,-0.312 -0.333,-0.313 -0.249,-0.468 -0.167,-0.391 v -0.313 -0.234 -0.312 -0.235 l 0.167,-0.469 0.249,-0.39 0.333,-0.391 0.417,-0.312 0.416,-0.235 0.5,-0.156 h 0.25 0.333 0.249 0.333 l 0.417,0.156 0.499,0.235 0.333,0.312 0.334,0.391 0.333,0.39 0.083,0.469 v 0.235 l 0.083,0.312 -0.083,0.234 v 0.313 l -0.083,0.391 -0.333,0.468 -0.334,0.313 -0.333,0.312 -0.499,0.313 -0.417,0.078 h -0.333 z m 202.671,-5 h 0.249 0.333 l 0.417,0.156 0.499,0.235 0.333,0.312 0.333,0.391 0.333,0.39 0.084,0.469 v 0.235 l 0.083,0.312 -0.083,0.234 v 0.313 l -0.084,0.391 -0.333,0.468 -0.333,0.313 -0.333,0.312 -0.499,0.313 -0.417,0.078 h -0.333 l -0.249,0.078 -0.334,-0.078 h -0.333 l -0.416,-0.078 -0.416,-0.313 -0.417,-0.312 -0.333,-0.313 -0.333,-0.468 -0.083,-0.391 v -0.313 -0.234 -0.312 -0.235 l 0.083,-0.469 0.333,-0.39 0.333,-0.391 0.417,-0.312 0.416,-0.235 0.416,-0.156 h 0.333 z"
       stroke="#000000"
       stroke-width="0.166719"
       stroke-linejoin="round"
       stroke-miterlimit="10"
       fill-rule="evenodd"
       id="path51" />
    <path
       d="m 914.143,316.688 h 31.714 0.083 0.165 l 0.083,0.078 v 0.234 0.078 l -0.083,0.078 -0.165,0.157 h -0.083 -31.714 -0.248 l -0.082,-0.157 v -0.078 -0.078 -0.234 -0.078 h 0.082 z m 0,2.812 -0.33,-0.078 h -0.331 l -0.413,-0.156 -0.413,-0.313 -0.413,-0.234 -0.33,-0.313 -0.33,-0.547 -0.083,-0.39 v -0.313 -0.156 -0.312 -0.313 l 0.083,-0.391 0.33,-0.39 0.33,-0.391 0.413,-0.312 0.413,-0.313 0.413,-0.078 h 0.331 0.33 0.165 0.33 l 0.413,0.078 0.579,0.313 0.33,0.312 0.248,0.391 0.33,0.39 0.083,0.391 v 0.313 l 0.165,0.312 -0.165,0.156 v 0.313 l -0.083,0.39 -0.33,0.547 -0.248,0.313 -0.33,0.234 -0.579,0.313 -0.413,0.156 h -0.33 z m 31.714,-5 h 0.248 0.248 l 0.495,0.078 0.496,0.313 0.33,0.312 0.331,0.391 0.33,0.39 0.082,0.391 v 0.313 l 0.083,0.312 -0.083,0.156 v 0.313 l -0.082,0.39 -0.33,0.547 -0.331,0.313 -0.33,0.234 -0.496,0.313 -0.495,0.156 h -0.248 l -0.248,0.078 -0.33,-0.078 h -0.331 l -0.412,-0.156 -0.413,-0.313 -0.413,-0.234 -0.331,-0.313 -0.33,-0.547 -0.083,-0.39 v -0.313 -0.156 -0.312 -0.313 l 0.083,-0.391 0.33,-0.39 0.331,-0.391 0.413,-0.312 0.413,-0.313 0.412,-0.078 h 0.331 z"
       stroke="#000000"
       stroke-width="0.166719"
       stroke-linejoin="round"
       stroke-miterlimit="10"
       fill-rule="evenodd"
       id="path52" />
    <path
       d="m 914.143,485.688 h 31.714 0.083 l 0.165,0.078 0.083,0.156 v 0.078 0.078 l -0.083,0.078 -0.165,0.157 h -0.083 -31.714 -0.248 l -0.082,-0.157 v -0.078 -0.078 -0.078 -0.156 l 0.082,-0.078 z m 0,2.812 h -0.33 l -0.331,-0.078 -0.413,-0.156 -0.413,-0.157 -0.413,-0.312 -0.33,-0.391 -0.33,-0.39 -0.083,-0.547 v -0.313 -0.156 -0.312 -0.235 l 0.083,-0.469 0.33,-0.39 0.33,-0.391 0.413,-0.312 0.413,-0.235 0.413,-0.156 h 0.331 0.33 0.165 0.33 l 0.413,0.156 0.579,0.235 0.33,0.312 0.248,0.391 0.33,0.39 0.083,0.469 v 0.235 l 0.165,0.312 -0.165,0.156 v 0.313 l -0.083,0.547 -0.33,0.39 -0.248,0.391 -0.33,0.312 -0.579,0.157 -0.413,0.156 -0.33,0.078 z m 31.714,-5 h 0.248 0.248 l 0.495,0.156 0.496,0.235 0.33,0.312 0.331,0.391 0.33,0.39 0.082,0.469 v 0.235 l 0.083,0.312 -0.083,0.156 v 0.313 l -0.082,0.547 -0.33,0.39 -0.331,0.391 -0.33,0.312 -0.496,0.157 -0.495,0.156 -0.248,0.078 h -0.248 -0.33 l -0.331,-0.078 -0.412,-0.156 -0.413,-0.157 -0.413,-0.312 -0.331,-0.391 -0.33,-0.39 -0.083,-0.547 v -0.313 -0.156 -0.312 -0.235 l 0.083,-0.469 0.33,-0.39 0.331,-0.391 0.413,-0.312 0.413,-0.235 0.412,-0.156 h 0.331 z"
       stroke="#000000"
       stroke-width="0.166719"
       stroke-linejoin="round"
       stroke-miterlimit="10"
       fill-rule="evenodd"
       id="path53" />
    <path
       d="m 914.143,400.125 h 31.714 0.083 l 0.165,0.188 0.083,0.093 v 0.094 0.094 l -0.083,0.187 -0.165,0.094 h -0.083 -31.714 -0.248 l -0.082,-0.094 v -0.187 -0.094 -0.094 -0.093 l 0.082,-0.188 z m 0,3.375 h -0.33 l -0.331,-0.094 -0.413,-0.093 -0.413,-0.282 -0.413,-0.375 -0.33,-0.468 -0.33,-0.469 -0.083,-0.563 v -0.375 -0.281 -0.375 -0.187 l 0.083,-0.657 0.33,-0.468 0.33,-0.469 0.413,-0.375 0.413,-0.188 0.413,-0.281 h 0.331 0.33 0.165 0.33 l 0.413,0.281 0.579,0.188 0.33,0.375 0.248,0.469 0.33,0.468 0.083,0.657 v 0.187 l 0.165,0.375 -0.165,0.281 v 0.375 l -0.083,0.563 -0.33,0.469 -0.248,0.468 -0.33,0.375 -0.579,0.282 -0.413,0.093 -0.33,0.094 z m 31.714,-6 h 0.248 0.248 l 0.495,0.281 0.496,0.188 0.33,0.375 0.331,0.469 0.33,0.468 0.082,0.657 v 0.187 l 0.083,0.375 -0.083,0.281 v 0.375 l -0.082,0.563 -0.33,0.469 -0.331,0.468 -0.33,0.375 -0.496,0.282 -0.495,0.093 -0.248,0.094 h -0.248 -0.33 l -0.331,-0.094 -0.412,-0.093 -0.413,-0.282 -0.413,-0.375 -0.331,-0.468 -0.33,-0.469 -0.083,-0.563 v -0.375 -0.281 -0.375 -0.187 l 0.083,-0.657 0.33,-0.468 0.331,-0.469 0.413,-0.375 0.413,-0.188 0.412,-0.281 h 0.331 z"
       stroke="#000000"
       stroke-width="0.166719"
       stroke-linejoin="round"
       stroke-miterlimit="10"
       fill-rule="evenodd"
       id="path54" />
    <text
       font-family="Arial, Arial_MSFontService, sans-serif"
       font-weight="400"
       font-size="12px"
       transform="rotate(-90)"
       id="text54"
       x="-281.37082"
       y="344.46539">Gas in ground</text>
    <text
       font-family="Arial, Arial_MSFontService, sans-serif"
       font-weight="400"
       font-size="12px"
       transform="rotate(-90)"
       id="text55"
       x="-281"
       y="361.46539">Coal in ground</text>
    <text
       font-family="Arial, Arial_MSFontService, sans-serif"
       font-weight="400"
       font-size="12px"
       transform="rotate(-90)"
       id="text56"
       x="-281"
       y="377.47125">Oil in ground</text>
    <text
       font-family="Arial, Arial_MSFontService, sans-serif"
       font-weight="400"
       font-size="12px"
       transform="rotate(-90)"
       id="text57"
       x="-281"
       y="393.47125">Imported Oil</text>
    <path
       d="m 813.125,400.125 h 36.75 0.082 l 0.164,0.188 0.082,0.093 v 0.094 0.094 l -0.082,0.187 -0.164,0.094 h -0.082 -36.75 -0.246 l -0.082,-0.094 v -0.187 -0.094 -0.094 -0.093 l 0.082,-0.188 z m 0,3.375 h -0.328 l -0.328,-0.094 -0.41,-0.093 -0.411,-0.282 -0.41,-0.375 -0.328,-0.468 -0.328,-0.469 -0.082,-0.563 v -0.375 -0.281 -0.375 -0.187 l 0.082,-0.657 0.328,-0.468 0.328,-0.469 0.41,-0.375 0.411,-0.188 0.41,-0.281 h 0.328 0.328 0.164 0.328 l 0.41,0.281 0.575,0.188 0.328,0.375 0.246,0.469 0.328,0.468 0.164,0.657 v 0.187 l 0.082,0.375 -0.082,0.281 v 0.375 l -0.164,0.563 -0.328,0.469 -0.246,0.468 -0.328,0.375 -0.575,0.282 -0.41,0.093 -0.328,0.094 z m 36.75,-6 h 0.246 0.328 l 0.41,0.281 0.493,0.188 0.328,0.375 0.328,0.469 0.328,0.468 0.082,0.657 v 0.187 l 0.082,0.375 -0.082,0.281 v 0.375 l -0.082,0.563 -0.328,0.469 -0.328,0.468 -0.328,0.375 -0.493,0.282 -0.41,0.093 -0.328,0.094 h -0.246 -0.328 l -0.328,-0.094 -0.41,-0.093 -0.411,-0.282 -0.41,-0.375 -0.328,-0.468 -0.328,-0.469 -0.082,-0.563 v -0.375 -0.281 -0.375 -0.187 l 0.082,-0.657 0.328,-0.468 0.328,-0.469 0.41,-0.375 0.411,-0.188 0.41,-0.281 h 0.328 z"
       stroke="#000000"
       stroke-width="0.166719"
       stroke-linejoin="round"
       stroke-miterlimit="10"
       fill-rule="evenodd"
       id="path57" />
    <text
       font-family="Arial, Arial_MSFontService, sans-serif"
       font-weight="400"
       font-size="12px"
       transform="rotate(-90)"
       id="text58"
       x="-641"
       y="642.46539">Delivered Crude</text>
    <text
       font-family="Arial, Arial_MSFontService, sans-serif"
       font-weight="400"
       font-size="12px"
       transform="rotate(-90,457.2085,-206.2085)"
       id="text59">Dry Gas</text>
    <text
       font-family="Arial, Arial_MSFontService, sans-serif"
       font-weight="400"
       font-size="12px"
       transform="rotate(-90,388.5835,-137.5835)"
       id="text60">Coal</text>
    <text
       font-family="Arial, Arial_MSFontService, sans-serif"
       font-weight="400"
       font-size="12px"
       transform="rotate(-90)"
       id="text61"
       x="-250.85324"
       y="510.66699">Wet Gas</text>
    <text
       font-family="Arial, Arial_MSFontService, sans-serif"
       font-weight="400"
       font-size="12px"
       transform="rotate(-90)"
       id="text62"
       x="-251.03683"
       y="541.75">Crude oil</text>
    <path
       d="m 621.167,466.609 h 10.666 l 0.084,0.079 h 0.166 v 0.078 l 0.084,0.234 -0.084,0.078 v 0.156 h -0.166 l -0.084,0.079 H 621.167 L 621,467.234 h -0.167 v -0.156 L 620.75,467 l 0.083,-0.234 v -0.078 H 621 Z m 0,2.891 -0.334,-0.078 H 620.5 l -0.417,-0.078 -0.416,-0.313 -0.417,-0.312 -0.333,-0.313 -0.334,-0.468 -0.083,-0.469 v -0.235 -0.234 -0.312 -0.313 l 0.083,-0.391 0.334,-0.39 0.333,-0.391 0.417,-0.312 0.416,-0.313 0.417,-0.078 h 0.333 0.334 0.25 0.333 l 0.417,0.078 0.5,0.313 0.333,0.312 0.333,0.391 0.334,0.39 0.083,0.391 v 0.313 l 0.083,0.312 -0.083,0.234 v 0.235 l -0.083,0.469 -0.334,0.468 -0.333,0.313 -0.333,0.312 -0.5,0.313 -0.417,0.078 h -0.333 z m 10.666,-5 h 0.25 0.334 l 0.416,0.078 0.5,0.313 0.334,0.312 0.333,0.391 0.333,0.39 0.084,0.391 v 0.313 l 0.083,0.312 -0.083,0.234 v 0.235 l -0.084,0.469 -0.333,0.468 -0.333,0.313 -0.334,0.312 -0.5,0.313 -0.416,0.078 h -0.334 l -0.25,0.078 -0.333,-0.078 h -0.25 l -0.5,-0.078 -0.417,-0.313 -0.416,-0.312 -0.334,-0.313 -0.333,-0.468 -0.083,-0.469 v -0.235 -0.234 -0.312 -0.313 l 0.083,-0.391 0.333,-0.39 0.334,-0.391 0.416,-0.312 0.417,-0.313 0.5,-0.078 h 0.25 z"
       stroke="#000000"
       stroke-width="0.166719"
       stroke-linejoin="round"
       stroke-miterlimit="10"
       fill-rule="evenodd"
       id="path62" />
    <path
       d="m 706.5,386.5 v 256"
       stroke="#000000"
       stroke-width="0.666667"
       stroke-linejoin="round"
       stroke-miterlimit="10"
       fill="none"
       fill-rule="evenodd"
       id="path63" />
    <text
       font-family="Arial, Arial_MSFontService, sans-serif"
       font-weight="400"
       font-size="12px"
       transform="rotate(-90,676.0415,-43.0415)"
       id="text63">LFO</text>
    <text
       font-family="Arial, Arial_MSFontService, sans-serif"
       font-weight="400"
       font-size="12px"
       transform="rotate(-90,666.9165,-32.9165)"
       id="text64">HFO</text>
    <path
       d="m 695.167,498.609 h 10.666 l 0.084,0.079 H 706 v 0.156 L 706.167,499 706,499.156 v 0.078 h -0.083 l -0.084,0.079 h -10.666 l -0.25,-0.079 h -0.084 v -0.078 L 694.75,499 l 0.083,-0.156 v -0.156 h 0.084 z m 0,2.891 -0.334,-0.078 H 694.5 l -0.417,-0.078 -0.416,-0.313 -0.417,-0.312 -0.333,-0.313 -0.334,-0.468 -0.083,-0.391 v -0.313 -0.234 -0.312 -0.235 l 0.083,-0.469 0.334,-0.39 0.333,-0.391 0.417,-0.312 0.416,-0.235 0.417,-0.156 h 0.333 0.334 0.166 0.334 l 0.416,0.156 0.584,0.235 0.333,0.312 0.25,0.391 0.333,0.39 0.167,0.469 v 0.235 l 0.083,0.312 -0.083,0.234 v 0.313 l -0.167,0.391 -0.333,0.468 -0.25,0.313 -0.333,0.312 -0.584,0.313 -0.416,0.078 h -0.334 z m 10.666,-5 h 0.167 0.333 l 0.417,0.156 0.583,0.235 0.334,0.312 0.25,0.391 0.333,0.39 0.167,0.469 v 0.235 l 0.083,0.312 -0.083,0.234 v 0.313 l -0.167,0.391 -0.333,0.468 -0.25,0.313 -0.334,0.312 -0.583,0.313 -0.417,0.078 H 706 l -0.167,0.078 -0.333,-0.078 h -0.333 l -0.417,-0.078 -0.417,-0.313 -0.416,-0.312 -0.334,-0.313 -0.333,-0.468 -0.083,-0.391 v -0.313 -0.234 -0.312 -0.235 l 0.083,-0.469 0.333,-0.39 0.334,-0.391 0.416,-0.312 0.417,-0.235 0.417,-0.156 h 0.333 z"
       stroke="#000000"
       stroke-width="0.166719"
       stroke-linejoin="round"
       stroke-miterlimit="10"
       fill-rule="evenodd"
       id="path64" />
    <path
       d="m 802.50442,364.60851 h 10.666 l 0.084,0.079 h 0.083 v 0.156 l 0.167,0.156 -0.167,0.156 v 0.078 h -0.083 l -0.084,0.079 h -10.666 l -0.25,-0.079 h -0.084 v -0.078 l -0.083,-0.156 0.083,-0.156 v -0.156 h 0.084 z m 0,2.891 -0.334,-0.078 h -0.333 l -0.417,-0.078 -0.416,-0.313 -0.417,-0.312 -0.333,-0.313 -0.334,-0.468 -0.083,-0.391 v -0.313 -0.234 -0.312 -0.235 l 0.083,-0.469 0.334,-0.39 0.333,-0.391 0.417,-0.312 0.416,-0.235 0.417,-0.156 h 0.333 0.334 0.166 0.334 l 0.416,0.156 0.584,0.235 0.333,0.312 0.25,0.391 0.333,0.39 0.167,0.469 v 0.235 l 0.083,0.312 -0.083,0.234 v 0.313 l -0.167,0.391 -0.333,0.468 -0.25,0.313 -0.333,0.312 -0.584,0.313 -0.416,0.078 h -0.334 z m 10.666,-5 h 0.167 0.333 l 0.417,0.156 0.583,0.235 0.334,0.312 0.25,0.391 0.333,0.39 0.167,0.469 v 0.235 l 0.083,0.312 -0.083,0.234 v 0.313 l -0.167,0.391 -0.333,0.468 -0.25,0.313 -0.334,0.312 -0.583,0.313 -0.417,0.078 h -0.333 l -0.167,0.078 -0.333,-0.078 h -0.333 l -0.417,-0.078 -0.417,-0.313 -0.416,-0.312 -0.334,-0.313 -0.333,-0.468 -0.083,-0.391 v -0.313 -0.234 -0.312 -0.235 l 0.083,-0.469 0.333,-0.39 0.334,-0.391 0.416,-0.312 0.417,-0.235 0.417,-0.156 h 0.333 z"
       stroke="#000000"
       stroke-width="0.166719"
       stroke-linejoin="round"
       stroke-miterlimit="10"
       fill-rule="evenodd"
       id="path64-5-2" />
    <path
       d="m 802.50442,289.60851 h 10.666 l 0.084,0.079 h 0.083 v 0.156 l 0.167,0.156 -0.167,0.156 v 0.078 h -0.083 l -0.084,0.079 h -10.666 l -0.25,-0.079 h -0.084 v -0.078 l -0.083,-0.156 0.083,-0.156 v -0.156 h 0.084 z m 0,2.891 -0.334,-0.078 h -0.333 l -0.417,-0.078 -0.416,-0.313 -0.417,-0.312 -0.333,-0.313 -0.334,-0.468 -0.083,-0.391 v -0.313 -0.234 -0.312 -0.235 l 0.083,-0.469 0.334,-0.39 0.333,-0.391 0.417,-0.312 0.416,-0.235 0.417,-0.156 h 0.333 0.334 0.166 0.334 l 0.416,0.156 0.584,0.235 0.333,0.312 0.25,0.391 0.333,0.39 0.167,0.469 v 0.235 l 0.083,0.312 -0.083,0.234 v 0.313 l -0.167,0.391 -0.333,0.468 -0.25,0.313 -0.333,0.312 -0.584,0.313 -0.416,0.078 h -0.334 z m 10.666,-5 h 0.167 0.333 l 0.417,0.156 0.583,0.235 0.334,0.312 0.25,0.391 0.333,0.39 0.167,0.469 v 0.235 l 0.083,0.312 -0.083,0.234 v 0.313 l -0.167,0.391 -0.333,0.468 -0.25,0.313 -0.334,0.312 -0.583,0.313 -0.417,0.078 h -0.333 l -0.167,0.078 -0.333,-0.078 h -0.333 l -0.417,-0.078 -0.417,-0.313 -0.416,-0.312 -0.334,-0.313 -0.333,-0.468 -0.083,-0.391 v -0.313 -0.234 -0.312 -0.235 l 0.083,-0.469 0.333,-0.39 0.334,-0.391 0.416,-0.312 0.417,-0.235 0.417,-0.156 h 0.333 z"
       stroke="#000000"
       stroke-width="0.166719"
       stroke-linejoin="round"
       stroke-miterlimit="10"
       fill-rule="evenodd"
       id="path64-5-0" />
    <path
       d="m 802.50405,439.60851 h 10.666 l 0.084,0.079 h 0.083 v 0.156 l 0.167,0.156 -0.167,0.156 v 0.078 h -0.083 l -0.084,0.079 h -10.666 l -0.25,-0.079 h -0.084 v -0.078 l -0.083,-0.156 0.083,-0.156 v -0.156 h 0.084 z m 0,2.891 -0.334,-0.078 h -0.333 l -0.417,-0.078 -0.416,-0.313 -0.417,-0.312 -0.333,-0.313 -0.334,-0.468 -0.083,-0.391 v -0.313 -0.234 -0.312 -0.235 l 0.083,-0.469 0.334,-0.39 0.333,-0.391 0.417,-0.312 0.416,-0.235 0.417,-0.156 h 0.333 0.334 0.166 0.334 l 0.416,0.156 0.584,0.235 0.333,0.312 0.25,0.391 0.333,0.39 0.167,0.469 v 0.235 l 0.083,0.312 -0.083,0.234 v 0.313 l -0.167,0.391 -0.333,0.468 -0.25,0.313 -0.333,0.312 -0.584,0.313 -0.416,0.078 h -0.334 z m 10.666,-5 h 0.167 0.333 l 0.417,0.156 0.583,0.235 0.334,0.312 0.25,0.391 0.333,0.39 0.167,0.469 v 0.235 l 0.083,0.312 -0.083,0.234 v 0.313 l -0.167,0.391 -0.333,0.468 -0.25,0.313 -0.334,0.312 -0.583,0.313 -0.417,0.078 h -0.333 l -0.167,0.078 -0.333,-0.078 h -0.333 l -0.417,-0.078 -0.417,-0.313 -0.416,-0.312 -0.334,-0.313 -0.333,-0.468 -0.083,-0.391 v -0.313 -0.234 -0.312 -0.235 l 0.083,-0.469 0.333,-0.39 0.334,-0.391 0.416,-0.312 0.417,-0.235 0.417,-0.156 h 0.333 z"
       stroke="#000000"
       stroke-width="0.166719"
       stroke-linejoin="round"
       stroke-miterlimit="10"
       fill-rule="evenodd"
       id="path64-5" />
    <path
       d="m 722.5,386.5 v 256"
       stroke="#000000"
       stroke-width="0.666667"
       stroke-linejoin="round"
       stroke-miterlimit="10"
       fill="none"
       fill-rule="evenodd"
       id="path65" />
    <path
       d="m 706.167,434.031 h 26.666 l 0.084,0.094 h 0.166 v 0.094 l 0.084,0.281 -0.084,0.094 v 0.094 h -0.166 l -0.084,0.187 h -26.666 l -0.25,-0.187 h -0.084 v -0.094 l -0.083,-0.094 0.083,-0.281 v -0.094 h 0.084 z m 0,3.469 -0.334,-0.094 H 705.5 l -0.417,-0.187 -0.416,-0.375 -0.417,-0.281 -0.333,-0.375 -0.334,-0.657 -0.083,-0.468 v -0.375 -0.188 -0.375 -0.375 l 0.083,-0.469 0.334,-0.468 0.333,-0.469 0.417,-0.375 0.416,-0.375 0.417,-0.094 h 0.333 0.334 0.166 0.334 l 0.416,0.094 0.584,0.375 0.333,0.375 0.25,0.469 0.333,0.468 0.167,0.469 v 0.375 l 0.083,0.375 -0.083,0.188 v 0.375 l -0.167,0.468 -0.333,0.657 -0.25,0.375 -0.333,0.281 -0.584,0.375 -0.416,0.187 h -0.334 z m 26.666,-6 h 0.25 0.334 l 0.416,0.094 0.5,0.375 0.334,0.375 0.333,0.469 0.333,0.468 0.084,0.469 v 0.375 l 0.083,0.375 -0.083,0.188 v 0.375 l -0.084,0.468 -0.333,0.657 -0.333,0.375 -0.334,0.281 -0.5,0.375 -0.416,0.187 h -0.334 l -0.25,0.094 -0.333,-0.094 h -0.333 l -0.417,-0.187 -0.417,-0.375 -0.416,-0.281 -0.334,-0.375 -0.333,-0.657 -0.083,-0.468 v -0.375 -0.188 -0.375 -0.375 l 0.083,-0.469 0.333,-0.468 0.334,-0.469 0.416,-0.375 0.417,-0.375 0.417,-0.094 h 0.333 z"
       stroke="#000000"
       stroke-width="0.166719"
       stroke-linejoin="round"
       stroke-miterlimit="10"
       fill-rule="evenodd"
       id="path66" />
    <path
       d="m 695.167,519.609 h 26.666 l 0.084,0.157 h 0.166 v 0.078 l 0.084,0.156 -0.084,0.156 v 0.078 h -0.166 l -0.084,0.079 h -26.666 l -0.25,-0.079 h -0.084 v -0.078 L 694.75,520 l 0.083,-0.156 v -0.078 h 0.084 z m 0,2.891 -0.334,-0.078 H 694.5 l -0.417,-0.078 -0.416,-0.313 -0.417,-0.312 -0.333,-0.313 -0.334,-0.468 -0.083,-0.391 v -0.313 -0.234 -0.234 -0.313 l 0.083,-0.39 0.334,-0.391 0.333,-0.469 0.417,-0.234 0.416,-0.313 0.417,-0.156 h 0.333 0.334 0.166 0.334 l 0.416,0.156 0.584,0.313 0.333,0.234 0.25,0.469 0.333,0.391 0.167,0.39 v 0.313 l 0.083,0.234 -0.083,0.234 v 0.313 l -0.167,0.391 -0.333,0.468 -0.25,0.313 -0.333,0.312 -0.584,0.313 -0.416,0.078 h -0.334 z m 26.666,-5 h 0.25 0.25 l 0.5,0.156 0.5,0.313 0.334,0.234 0.333,0.469 0.25,0.391 0.167,0.39 v 0.313 l 0.083,0.234 -0.083,0.234 v 0.313 l -0.167,0.391 -0.25,0.468 -0.333,0.313 -0.334,0.312 -0.5,0.313 -0.5,0.078 h -0.25 l -0.25,0.078 -0.333,-0.078 h -0.333 l -0.417,-0.078 -0.417,-0.313 -0.416,-0.312 -0.334,-0.313 -0.333,-0.468 -0.083,-0.391 v -0.313 -0.234 -0.234 -0.313 l 0.083,-0.39 0.333,-0.391 0.334,-0.469 0.416,-0.234 0.417,-0.313 0.417,-0.156 h 0.333 z"
       stroke="#000000"
       stroke-width="0.166719"
       stroke-linejoin="round"
       stroke-miterlimit="10"
       fill-rule="evenodd"
       id="path67" />
    <text
       font-family="Arial, Arial_MSFontService, sans-serif"
       font-weight="400"
       font-size="12px"
       transform="rotate(-90,528.7085,-277.7085)"
       id="text67">Electricity</text>
    <text
       font-family="Arial, Arial_MSFontService, sans-serif"
       font-weight="400"
       font-size="12px"
       transform="rotate(-90)"
       id="text68"
       x="-280.00034"
       y="926.08301">Home space</text>
    <text
       font-family="Arial, Arial_MSFontService, sans-serif"
       font-weight="400"
       font-size="12px"
       transform="rotate(-90)"
       id="text69"
       x="-279.99976"
       y="940.91699">Heating</text>
    <g
       id="g139">
      <text
         font-family="Arial, Arial_MSFontService, sans-serif"
         font-weight="400"
         font-size="12px"
         transform="translate(874,483)"
         id="text95">Oil</text>
      <text
         font-family="Arial, Arial_MSFontService, sans-serif"
         font-weight="400"
         font-size="12px"
         transform="translate(858.833,498)"
         id="text96">Furnace</text>
    </g>
    <path
       d="m 621.167,466.609 h 10.666 l 0.084,0.079 h 0.166 v 0.078 l 0.084,0.234 -0.084,0.078 v 0.156 h -0.166 l -0.084,0.079 H 621.167 L 621,467.234 h -0.167 v -0.156 L 620.75,467 l 0.083,-0.234 v -0.078 H 621 Z m 0,2.891 -0.334,-0.078 H 620.5 l -0.417,-0.078 -0.416,-0.313 -0.417,-0.312 -0.333,-0.313 -0.334,-0.468 -0.083,-0.469 v -0.235 -0.234 -0.312 -0.313 l 0.083,-0.391 0.334,-0.39 0.333,-0.391 0.417,-0.312 0.416,-0.313 0.417,-0.078 h 0.333 0.334 0.25 0.333 l 0.417,0.078 0.5,0.313 0.333,0.312 0.333,0.391 0.334,0.39 0.083,0.391 v 0.313 l 0.083,0.312 -0.083,0.234 v 0.235 l -0.083,0.469 -0.334,0.468 -0.333,0.313 -0.333,0.312 -0.5,0.313 -0.417,0.078 h -0.333 z m 10.666,-5 h 0.25 0.334 l 0.416,0.078 0.5,0.313 0.334,0.312 0.333,0.391 0.333,0.39 0.084,0.391 v 0.313 l 0.083,0.312 -0.083,0.234 v 0.235 l -0.084,0.469 -0.333,0.468 -0.333,0.313 -0.334,0.312 -0.5,0.313 -0.416,0.078 h -0.334 l -0.25,0.078 -0.333,-0.078 h -0.25 l -0.5,-0.078 -0.417,-0.313 -0.416,-0.312 -0.334,-0.313 -0.333,-0.468 -0.083,-0.469 v -0.235 -0.234 -0.312 -0.313 l 0.083,-0.391 0.333,-0.39 0.334,-0.391 0.416,-0.312 0.417,-0.313 0.5,-0.078 h 0.25 z"
       stroke="#000000"
       stroke-width="0.166719"
       stroke-linejoin="round"
       stroke-miterlimit="10"
       fill-rule="evenodd"
       id="path106" />
    <path
       d="m 621.167,466.609 h 10.666 l 0.084,0.079 h 0.166 v 0.078 l 0.084,0.234 -0.084,0.078 v 0.156 h -0.166 l -0.084,0.079 H 621.167 L 621,467.234 h -0.167 v -0.156 L 620.75,467 l 0.083,-0.234 v -0.078 H 621 Z m 0,2.891 -0.334,-0.078 H 620.5 l -0.417,-0.078 -0.416,-0.313 -0.417,-0.312 -0.333,-0.313 -0.334,-0.468 -0.083,-0.469 v -0.235 -0.234 -0.312 -0.313 l 0.083,-0.391 0.334,-0.39 0.333,-0.391 0.417,-0.312 0.416,-0.313 0.417,-0.078 h 0.333 0.334 0.25 0.333 l 0.417,0.078 0.5,0.313 0.333,0.312 0.333,0.391 0.334,0.39 0.083,0.391 v 0.313 l 0.083,0.312 -0.083,0.234 v 0.235 l -0.083,0.469 -0.334,0.468 -0.333,0.313 -0.333,0.312 -0.5,0.313 -0.417,0.078 h -0.333 z m 10.666,-5 h 0.25 0.334 l 0.416,0.078 0.5,0.313 0.334,0.312 0.333,0.391 0.333,0.39 0.084,0.391 v 0.313 l 0.083,0.312 -0.083,0.234 v 0.235 l -0.084,0.469 -0.333,0.468 -0.333,0.313 -0.334,0.312 -0.5,0.313 -0.416,0.078 h -0.334 l -0.25,0.078 -0.333,-0.078 h -0.25 l -0.5,-0.078 -0.417,-0.313 -0.416,-0.312 -0.334,-0.313 -0.333,-0.468 -0.083,-0.469 v -0.235 -0.234 -0.312 -0.313 l 0.083,-0.391 0.333,-0.39 0.334,-0.391 0.416,-0.312 0.417,-0.313 0.5,-0.078 h 0.25 z"
       stroke="#000000"
       stroke-width="0.166719"
       stroke-linejoin="round"
       stroke-miterlimit="10"
       fill-rule="evenodd"
       id="path130" />
  </g>
</svg>
