<svg width="960" height="720" xmlns="http://www.w3.org/2000/svg" xmlns:xlink="http://www.w3.org/1999/xlink" overflow="hidden"><g><rect x="0" y="0" width="960" height="720" fill="#FFFFFF"/><rect x="96.5001" y="64.5001" width="816" height="544" stroke="#385D8A" stroke-width="1.33333" stroke-linejoin="round" stroke-miterlimit="10" fill="none"/><path d="M273.541 472.709 223.015 112.709 225.986 112.292 276.512 472.292ZM279.483 471.875C279.828 474.336 278.113 476.611 275.652 476.956 273.191 477.302 270.916 475.587 270.57 473.126 270.225 470.664 271.94 468.389 274.401 468.044 276.862 467.698 279.137 469.413 279.483 471.875ZM220.044 113.126C219.698 110.664 221.413 108.389 223.875 108.044 226.336 107.698 228.611 109.413 228.956 111.875 229.302 114.336 227.587 116.611 225.126 116.956 222.664 117.302 220.389 115.587 220.044 113.126Z" fill="#4A7EBB"/><path d="M341.835 537.588 274.467 473.588 276.533 471.413 343.902 535.413ZM345.968 533.238C347.77 534.949 347.843 537.798 346.131 539.599 344.419 541.401 341.571 541.474 339.769 539.763 337.967 538.051 337.894 535.203 339.606 533.401 341.318 531.599 344.166 531.526 345.968 533.238ZM272.401 475.763C270.599 474.051 270.526 471.203 272.238 469.401 273.949 467.599 276.798 467.526 278.599 469.238 280.401 470.949 280.474 473.798 278.763 475.599 277.051 477.401 274.203 477.474 272.401 475.763Z" fill="#4A7EBB"/><path d="M476.661 593.885 341.924 537.885 343.076 535.115 477.813 591.115ZM478.964 588.345C481.259 589.299 482.346 591.932 481.392 594.227 480.438 596.522 477.805 597.609 475.51 596.655 473.215 595.702 472.128 593.068 473.081 590.773 474.035 588.478 476.669 587.391 478.964 588.345ZM340.773 540.655C338.478 539.702 337.391 537.068 338.345 534.773 339.299 532.478 341.932 531.391 344.227 532.345 346.522 533.299 347.609 535.932 346.655 538.227 345.702 540.522 343.068 541.609 340.773 540.655Z" fill="#4A7EBB"/><path d="M544.522 609.959 477.153 593.959 477.847 591.041 545.215 607.041ZM545.908 604.122C548.326 604.696 549.821 607.122 549.247 609.54 548.672 611.958 546.247 613.453 543.829 612.878 541.411 612.304 539.916 609.878 540.49 607.46 541.065 605.042 543.49 603.548 545.908 604.122ZM476.46 596.878C474.042 596.304 472.548 593.878 473.122 591.46 473.696 589.042 476.122 587.548 478.54 588.122 480.958 588.696 482.453 591.122 481.878 593.54 481.304 595.958 478.878 597.453 476.46 596.878Z" fill="#4A7EBB"/><path d="M0 0 128 0.000104987" stroke="#4A7EBB" stroke-linejoin="round" stroke-miterlimit="10" stroke-dasharray="4 3" fill="none" fill-rule="evenodd" transform="matrix(-1 0 0 1 224.5 112.5)"/><path d="M0 0 184 0.000104987" stroke="#4A7EBB" stroke-linejoin="round" stroke-miterlimit="10" stroke-dasharray="4 3" fill="none" fill-rule="evenodd" transform="matrix(-1 0 0 1 280.5 472.5)"/><path d="M0 0 232 0.000104987" stroke="#4A7EBB" stroke-linejoin="round" stroke-miterlimit="10" stroke-dasharray="4 3" fill="none" fill-rule="evenodd" transform="matrix(-1 0 0 1 328.5 536.5)"/><path d="M0 0 392 0.000104987" stroke="#4A7EBB" stroke-linejoin="round" stroke-miterlimit="10" stroke-dasharray="4 3" fill="none" fill-rule="evenodd" transform="matrix(-1 0 0 1 488.5 592.5)"/><path d="M0 0 0.000104987 480" stroke="#4A7EBB" stroke-linejoin="round" stroke-miterlimit="10" stroke-dasharray="4 3" fill="none" fill-rule="evenodd" transform="matrix(1 0 0 -1 224.5 608.5)"/><path d="M0 0 0.000104987 136" stroke="#4A7EBB" stroke-linejoin="round" stroke-miterlimit="10" stroke-dasharray="4 3" fill="none" fill-rule="evenodd" transform="matrix(1 0 0 -1 275.5 608.5)"/><path d="M0 0 0.000104987 72" stroke="#4A7EBB" stroke-linejoin="round" stroke-miterlimit="10" stroke-dasharray="4 3" fill="none" fill-rule="evenodd" transform="matrix(1 0 0 -1 341.5 608.5)"/><path d="M0 0 0.000104987 16" stroke="#4A7EBB" stroke-linejoin="round" stroke-miterlimit="10" stroke-dasharray="4 3" fill="none" fill-rule="evenodd" transform="matrix(1 0 0 -1 477.5 608.5)"/><text font-family="Calibri,Calibri_MSFontService,sans-serif" font-weight="400" font-size="24" transform="translate(209.6 643)">R</text><text font-family="Calibri,Calibri_MSFontService,sans-serif" font-weight="400" font-size="16" transform="translate(222.6 648)">4</text><text font-family="Calibri,Calibri_MSFontService,sans-serif" font-weight="400" font-size="24" transform="translate(529.6 643)">R</text><text font-family="Calibri,Calibri_MSFontService,sans-serif" font-weight="400" font-size="16" transform="translate(542.6 648)">0</text><text font-family="Calibri,Calibri_MSFontService,sans-serif" font-weight="400" font-size="24" transform="translate(33.6 628)">OBJZ*</text><text font-family="Calibri,Calibri_MSFontService,sans-serif" font-weight="400" font-size="24" transform="translate(265.6 643)">R</text><text font-family="Calibri,Calibri_MSFontService,sans-serif" font-weight="400" font-size="16" transform="translate(278.6 648)">3</text><text font-family="Calibri,Calibri_MSFontService,sans-serif" font-weight="400" font-size="24" transform="translate(337.6 643)">R</text><text font-family="Calibri,Calibri_MSFontService,sans-serif" font-weight="400" font-size="16" transform="translate(350.6 648)">2</text><text font-family="Calibri,Calibri_MSFontService,sans-serif" font-weight="400" font-size="24" transform="translate(457.6 643)">R</text><text font-family="Calibri,Calibri_MSFontService,sans-serif" font-weight="400" font-size="16" transform="translate(470.6 648)">1</text><text font-family="Calibri,Calibri_MSFontService,sans-serif" font-weight="400" font-size="24" transform="translate(33.6 587)">OBJZ</text><text font-family="Calibri,Calibri_MSFontService,sans-serif" font-weight="400" font-size="16" transform="translate(81.2667 592)">1</text><text font-family="Calibri,Calibri_MSFontService,sans-serif" font-weight="400" font-size="24" transform="translate(33.6 539)">OBJZ</text><text font-family="Calibri,Calibri_MSFontService,sans-serif" font-weight="400" font-size="16" transform="translate(81.2667 544)">2</text><text font-family="Calibri,Calibri_MSFontService,sans-serif" font-weight="400" font-size="24" transform="translate(33.6 475)">OBJZ</text><text font-family="Calibri,Calibri_MSFontService,sans-serif" font-weight="400" font-size="16" transform="translate(81.2667 480)">3</text><text font-family="Calibri,Calibri_MSFontService,sans-serif" font-weight="400" font-size="24" transform="translate(33.6 116)">OBJZ</text><text font-family="Calibri,Calibri_MSFontService,sans-serif" font-weight="400" font-size="16" transform="translate(81.2667 121)">4</text></g></svg>