<svg width="960" height="720" xmlns="http://www.w3.org/2000/svg" xmlns:xlink="http://www.w3.org/1999/xlink" overflow="hidden"><g><rect x="0" y="0" width="960" height="720" fill="#FFFFFF"/><rect x="184.5" y="112.5" width="616" height="496" stroke="#000000" stroke-miterlimit="8" fill="none"/><path d="M0 0 190 115" stroke="#000000" stroke-linejoin="round" stroke-miterlimit="10" stroke-dasharray="4 3" fill="none" fill-rule="evenodd" transform="matrix(1 0 0 -1 184.5 416.5)"/><path d="M0.501424-0.865202 176.501 101.135 175.499 102.865-0.501424 0.865202ZM-2.0057 3.46081C-3.91705 2.35309-4.56852-0.0943479-3.46081-2.0057-2.35309-3.91705 0.0943479-4.56852 2.0057-3.46081 3.91705-2.35309 4.56852 0.0943479 3.46081 2.0057 2.35309 3.91705-0.0943479 4.56852-2.0057 3.46081ZM178.006 98.5392C179.917 99.6469 180.569 102.094 179.461 104.006 178.353 105.917 175.906 106.569 173.994 105.461 172.083 104.353 171.431 101.906 172.539 99.9943 173.647 98.0829 176.094 97.4315 178.006 98.5392Z" transform="matrix(1 0 0 -1 368 303)"/><path d="M368.5 304.5 368.5 608.5" stroke="#000000" stroke-linejoin="round" stroke-miterlimit="10" stroke-dasharray="4 3" fill="none" fill-rule="evenodd"/><path d="M544.5 200.5 544.5 608.5" stroke="#000000" stroke-linejoin="round" stroke-miterlimit="10" stroke-dasharray="4 3" fill="none" fill-rule="evenodd"/><path d="M0 0 184 0.000104987" stroke="#000000" stroke-linejoin="round" stroke-miterlimit="10" stroke-dasharray="4 3" fill="none" fill-rule="evenodd" transform="matrix(-1 0 0 1 368.5 304.5)"/><path d="M0 0 360 0.000104987" stroke="#000000" stroke-linejoin="round" stroke-miterlimit="10" stroke-dasharray="4 3" fill="none" fill-rule="evenodd" transform="matrix(-1 0 0 1 544.5 200.5)"/><path d="M424.5 272.5 480.5 272.5" stroke="#000000" stroke-linejoin="round" stroke-miterlimit="10" fill="none" fill-rule="evenodd"/><path d="M464.5 248.5C468.918 248.5 472.5 259.244 472.5 272.5" stroke="#000000" stroke-linejoin="round" stroke-miterlimit="10" fill="none" fill-rule="evenodd"/><text font-family="Times New Roman,Times New Roman_MSFontService,sans-serif" font-weight="400" font-size="32" transform="translate(487.933 264)">b</text><text font-family="Times New Roman,Times New Roman_MSFontService,sans-serif" font-weight="400" font-size="21" transform="translate(503.933 271)">i</text><text font-family="Times New Roman,Times New Roman_MSFontService,sans-serif" font-weight="400" font-size="32" transform="translate(353.6 644)">C</text><text font-family="Times New Roman,Times New Roman_MSFontService,sans-serif" font-weight="400" font-size="21" transform="translate(374.933 651)">i</text><text font-family="Times New Roman,Times New Roman_MSFontService,sans-serif" font-weight="400" font-size="21" transform="translate(380.933 651)">-</text><text font-family="Times New Roman,Times New Roman_MSFontService,sans-serif" font-weight="400" font-size="21" transform="translate(388.1 651)">1</text><text font-family="Times New Roman,Times New Roman_MSFontService,sans-serif" font-weight="400" font-size="32" transform="translate(542.767 644)">C</text><text font-family="Times New Roman,Times New Roman_MSFontService,sans-serif" font-weight="400" font-size="21" transform="translate(564.1 651)">i</text><text font-family="Times New Roman,Times New Roman_MSFontService,sans-serif" font-weight="400" font-size="32" transform="translate(112.767 203)">TC</text><text font-family="Times New Roman,Times New Roman_MSFontService,sans-serif" font-weight="400" font-size="21" transform="translate(153.6 210)">i</text><text font-family="Times New Roman,Times New Roman_MSFontService,sans-serif" font-weight="400" font-size="32" transform="translate(112.767 318)">TC</text><text font-family="Times New Roman,Times New Roman_MSFontService,sans-serif" font-weight="400" font-size="21" transform="translate(153.6 325)">i</text><text font-family="Times New Roman,Times New Roman_MSFontService,sans-serif" font-weight="400" font-size="21" transform="translate(159.6 325)">-</text><text font-family="Times New Roman,Times New Roman_MSFontService,sans-serif" font-weight="400" font-size="21" transform="translate(166.767 325)">1</text><text font-family="Times New Roman,Times New Roman_MSFontService,sans-serif" font-weight="400" font-size="32" transform="translate(143.933 448)">a</text><text font-family="Times New Roman,Times New Roman_MSFontService,sans-serif" font-weight="400" font-size="21" transform="translate(158.1 455)">i</text></g></svg>