<svg width="960" height="720" xmlns="http://www.w3.org/2000/svg" xmlns:xlink="http://www.w3.org/1999/xlink" overflow="hidden"><g><rect x="0" y="0" width="960" height="720" fill="#FFFFFF"/><path d="M0.5-1.00949e-07 0.500104 513.337-0.499896 513.337-0.5 1.00949e-07ZM4.0001 512 0.000104987 520-3.9999 512Z" transform="matrix(1 0 0 -1 208.5 552.5)"/><path d="M208.5 552 817.833 552 817.833 553 208.5 553ZM816.5 548.5 824.5 552.5 816.5 556.5Z"/><path d="M0 0 144 0.000104987" stroke="#000000" stroke-linejoin="round" stroke-miterlimit="10" stroke-dasharray="4 3" fill="none" fill-rule="evenodd" transform="matrix(-1 0 0 1 351.5 280.5)"/><text font-family="Times New Roman,Times New Roman_MSFontService,sans-serif" font-weight="700" font-size="21" transform="translate(745.6 582)">x=DM</text><text font-family="Times New Roman,Times New Roman_MSFontService,sans-serif" font-weight="700" font-size="14" transform="translate(803.933 586)">i</text><text font-family="Times New Roman,Times New Roman_MSFontService,sans-serif" font-weight="700" font-size="21" transform="translate(807.933 582)">(t)</text><text font-family="Times New Roman,Times New Roman_MSFontService,sans-serif" font-weight="700" font-size="21" transform="translate(217.267 66)">F(x) = x</text><text font-family="Times New Roman,Times New Roman_MSFontService,sans-serif" font-weight="700" font-size="14" transform="translate(294.1 60)">(1/Ei)</text><text font-family="Times New Roman,Times New Roman_MSFontService,sans-serif" font-weight="700" font-size="21" transform="translate(153.6 285)">A</text><text font-family="Times New Roman,Times New Roman_MSFontService,sans-serif" font-weight="700" font-size="14" transform="translate(168.933 289)">i,j</text><text font-family="Times New Roman,Times New Roman_MSFontService,sans-serif" font-weight="700" font-size="21" transform="translate(181.1 285)">(t)</text><path d="M327.166 608 665.834 608 665.834 609 327.166 609ZM328.5 612.5 320.5 608.5 328.5 604.5ZM664.5 604.5 672.5 608.5 664.5 612.5Z"/><text font-family="Times New Roman,Times New Roman_MSFontService,sans-serif" font-weight="400" font-size="21" transform="translate(437.267 632)">Range = R</text><text font-family="Times New Roman,Times New Roman_MSFontService,sans-serif" font-weight="400" font-size="14" transform="translate(528.6 636)">i</text><text font-family="Times New Roman,Times New Roman_MSFontService,sans-serif" font-weight="400" font-size="21" transform="translate(532.6 632)">(t)</text><text font-family="Symbol,Symbol_MSFontService,sans-serif" font-weight="400" font-size="21" transform="translate(353.6 582)"></text><text font-family="Times New Roman,Times New Roman_MSFontService,sans-serif" font-weight="400" font-size="14" transform="translate(365.267 586)">i</text><text font-family="Times New Roman,Times New Roman_MSFontService,sans-serif" font-weight="400" font-size="21" transform="translate(369.267 582)">(t)</text><path d="M351.5 280.5 351.5 240.5" stroke="#000000" stroke-width="3" stroke-linejoin="round" stroke-miterlimit="10" stroke-dasharray="3 3" fill="none" fill-rule="evenodd"/><path d="M320.5 240.5 352.5 240.5" stroke="#000000" stroke-width="3" stroke-linejoin="round" stroke-miterlimit="10" fill="none" fill-rule="evenodd"/><path d="M772.618 527.402C510.037 446.03 314.457 282.919 282.066 118.286" stroke="#FF6600" stroke-width="3" stroke-linejoin="round" stroke-miterlimit="10" fill="none" fill-rule="evenodd"/><path d="M0 0 1 384" stroke="#000000" stroke-linejoin="round" stroke-miterlimit="10" stroke-dasharray="4 3" fill="none" fill-rule="evenodd" transform="matrix(-1 0 0 1 320.5 240.5)"/><path d="M351.5 288.5 351.5 552.5" stroke="#000000" stroke-linejoin="round" stroke-miterlimit="10" stroke-dasharray="4 3" fill="none" fill-rule="evenodd"/><path d="M383.5 280.5 383.5 552.5" stroke="#000000" stroke-linejoin="round" stroke-miterlimit="10" stroke-dasharray="4 3" fill="none" fill-rule="evenodd"/><path d="M352.5 280.5 384.5 280.5" stroke="#000000" stroke-width="3" stroke-linejoin="round" stroke-miterlimit="10" fill="none" fill-rule="evenodd"/><path d="M384.5 318.5 416.5 318.5" stroke="#000000" stroke-width="3" stroke-linejoin="round" stroke-miterlimit="10" fill="none" fill-rule="evenodd"/><path d="M416.5 346.5 448.5 346.5" stroke="#000000" stroke-width="3" stroke-linejoin="round" stroke-miterlimit="10" fill="none" fill-rule="evenodd"/><path d="M449.5 373.5 481.5 373.5" stroke="#000000" stroke-width="3" stroke-linejoin="round" stroke-miterlimit="10" fill="none" fill-rule="evenodd"/><path d="M480.5 395.5 512.5 395.5" stroke="#000000" stroke-width="3" stroke-linejoin="round" stroke-miterlimit="10" fill="none" fill-rule="evenodd"/><path d="M512.5 416.5 544.5 416.5" stroke="#000000" stroke-width="3" stroke-linejoin="round" stroke-miterlimit="10" fill="none" fill-rule="evenodd"/><path d="M544.5 436.5 576.5 436.5" stroke="#000000" stroke-width="3" stroke-linejoin="round" stroke-miterlimit="10" fill="none" fill-rule="evenodd"/><path d="M576.5 453.5 608.5 453.5" stroke="#000000" stroke-width="3" stroke-linejoin="round" stroke-miterlimit="10" fill="none" fill-rule="evenodd"/><path d="M608.5 468.5 640.5 468.5" stroke="#000000" stroke-width="3" stroke-linejoin="round" stroke-miterlimit="10" fill="none" fill-rule="evenodd"/><path d="M640.5 483.5 672.5 483.5" stroke="#000000" stroke-width="3" stroke-linejoin="round" stroke-miterlimit="10" fill="none" fill-rule="evenodd"/><path d="M416.5 320.5 416.5 552.5" stroke="#000000" stroke-linejoin="round" stroke-miterlimit="10" stroke-dasharray="4 3" fill="none" fill-rule="evenodd"/><path d="M448.5 344.5 448.5 552.5" stroke="#000000" stroke-linejoin="round" stroke-miterlimit="10" stroke-dasharray="4 3" fill="none" fill-rule="evenodd"/><path d="M480.5 376.5 480.5 552.5" stroke="#000000" stroke-linejoin="round" stroke-miterlimit="10" stroke-dasharray="4 3" fill="none" fill-rule="evenodd"/><path d="M352.49 560 382.51 560 382.51 561 352.49 561ZM360.238 565.599 351.498 560.5 360.238 555.402C360.477 555.262 360.783 555.343 360.922 555.581 361.061 555.82 360.981 556.126 360.742 556.265L352.742 560.932 352.742 560.068 360.742 564.735C360.98 564.874 361.061 565.18 360.922 565.419 360.783 565.657 360.477 565.738 360.238 565.599ZM374.762 555.402 383.502 560.5 374.762 565.599C374.523 565.738 374.217 565.657 374.078 565.419 373.939 565.18 374.02 564.874 374.258 564.735L382.258 560.068 382.258 560.932 374.258 556.265C374.02 556.126 373.939 555.82 374.078 555.582 374.217 555.343 374.523 555.262 374.762 555.402Z"/><path d="M512.5 395.5 512.5 555.5" stroke="#000000" stroke-linejoin="round" stroke-miterlimit="10" stroke-dasharray="4 3" fill="none" fill-rule="evenodd"/><path d="M544.5 416.5 544.5 552.5" stroke="#000000" stroke-linejoin="round" stroke-miterlimit="10" stroke-dasharray="4 3" fill="none" fill-rule="evenodd"/><path d="M576.5 432.5 576.5 552.5" stroke="#000000" stroke-linejoin="round" stroke-miterlimit="10" stroke-dasharray="4 3" fill="none" fill-rule="evenodd"/><path d="M608.5 456.5 608.5 552.5" stroke="#000000" stroke-linejoin="round" stroke-miterlimit="10" stroke-dasharray="4 3" fill="none" fill-rule="evenodd"/><path d="M640.5 464.5 640.5 552.5" stroke="#000000" stroke-linejoin="round" stroke-miterlimit="10" stroke-dasharray="4 3" fill="none" fill-rule="evenodd"/><path d="M672.5 483.5 672.5 619.5" stroke="#000000" stroke-linejoin="round" stroke-miterlimit="10" stroke-dasharray="4 3" fill="none" fill-rule="evenodd"/></g></svg>