<svg width="960" height="720" xmlns="http://www.w3.org/2000/svg" xmlns:xlink="http://www.w3.org/1999/xlink" overflow="hidden"><g><rect x="0" y="0" width="960" height="720" fill="#FFFFFF"/><path d="M129 94.667 129 632 127 632 127 94.667ZM124 96 128 88 132 96Z"/><path d="M128 631 841.334 631 841.334 633 128 633ZM840 628 848 632 840 636Z"/><path d="M0 0 112 0.000104987" stroke="#000000" stroke-width="2" stroke-linejoin="round" stroke-miterlimit="10" fill="none" fill-rule="evenodd" transform="matrix(-1 0 0 1 240 576)"/><path d="M240 576 240 528" stroke="#000000" stroke-width="2" stroke-linejoin="round" stroke-miterlimit="10" fill="none" fill-rule="evenodd"/><path d="M0 0 72 0.000104987" stroke="#000000" stroke-width="2" stroke-linejoin="round" stroke-miterlimit="10" fill="none" fill-rule="evenodd" transform="matrix(-1 0 0 1 312 528)"/><path d="M312 528 312 480" stroke="#000000" stroke-width="2" stroke-linejoin="round" stroke-miterlimit="10" fill="none" fill-rule="evenodd"/><path d="M0 0 112 0.000104987" stroke="#000000" stroke-width="2" stroke-linejoin="round" stroke-miterlimit="10" fill="none" fill-rule="evenodd" transform="matrix(-1 0 0 1 424 480)"/><path d="M424 480 424 432" stroke="#000000" stroke-width="2" stroke-linejoin="round" stroke-miterlimit="10" fill="none" fill-rule="evenodd"/><path d="M0 0 72 0.000104987" stroke="#000000" stroke-width="2" stroke-linejoin="round" stroke-miterlimit="10" fill="none" fill-rule="evenodd" transform="matrix(-1 0 0 1 496 432)"/><path d="M496 432 496 384" stroke="#000000" stroke-width="2" stroke-linejoin="round" stroke-miterlimit="10" fill="none" fill-rule="evenodd"/><path d="M0 0 112 0.000104987" stroke="#000000" stroke-width="2" stroke-linejoin="round" stroke-miterlimit="10" fill="none" fill-rule="evenodd" transform="matrix(-1 0 0 1 608 384)"/><path d="M608 384 608 336" stroke="#000000" stroke-width="2" stroke-linejoin="round" stroke-miterlimit="10" fill="none" fill-rule="evenodd"/><path d="M0 0 72 0.000104987" stroke="#000000" stroke-width="2" stroke-linejoin="round" stroke-miterlimit="10" fill="none" fill-rule="evenodd" transform="matrix(-1 0 0 1 680 336)"/><path d="M680 336 680 288" stroke="#000000" stroke-width="2" stroke-linejoin="round" stroke-miterlimit="10" fill="none" fill-rule="evenodd"/><path d="M0 0 72 1" stroke="#000000" stroke-width="2" stroke-linejoin="round" stroke-miterlimit="10" fill="none" fill-rule="evenodd" transform="matrix(1.83697e-16 1 1 -1.83697e-16 720 456)"/><path d="M720 456 576 457" stroke="#000000" stroke-width="2" stroke-linejoin="round" stroke-miterlimit="10" fill="none" fill-rule="evenodd"/><path d="M0 0 48 0.000104987" stroke="#000000" stroke-width="2" stroke-linejoin="round" stroke-miterlimit="10" fill="none" fill-rule="evenodd" transform="matrix(1.83697e-16 1 1 -1.83697e-16 576 408)"/><path d="M576 408 528 409" stroke="#000000" stroke-width="2" stroke-linejoin="round" stroke-miterlimit="10" fill="none" fill-rule="evenodd"/><path d="M0 0 48 0.000104987" stroke="#000000" stroke-width="2" stroke-linejoin="round" stroke-miterlimit="10" fill="none" fill-rule="evenodd" transform="matrix(1.83697e-16 1 1 -1.83697e-16 528 336)"/><path d="M528 336 480 337" stroke="#000000" stroke-width="2" stroke-linejoin="round" stroke-miterlimit="10" fill="none" fill-rule="evenodd"/><path d="M0 0 112 1" stroke="#000000" stroke-width="2" stroke-linejoin="round" stroke-miterlimit="10" fill="none" fill-rule="evenodd" transform="matrix(1.83697e-16 1 1 -1.83697e-16 480 224)"/><path d="M480 224 384 225" stroke="#000000" stroke-width="2" stroke-linejoin="round" stroke-miterlimit="10" fill="none" fill-rule="evenodd"/><path d="M0 0 72 1" stroke="#000000" stroke-width="2" stroke-linejoin="round" stroke-miterlimit="10" fill="none" fill-rule="evenodd" transform="matrix(1.83697e-16 1 1 -1.83697e-16 384 152)"/><path d="M384 152 128 153" stroke="#000000" stroke-width="2" stroke-linejoin="round" stroke-miterlimit="10" fill="none" fill-rule="evenodd"/><path d="M0 0 72 0.000104987" stroke="#000000" stroke-width="2" stroke-linejoin="round" stroke-miterlimit="10" fill="none" fill-rule="evenodd" transform="matrix(-1 0 0 1 792 528)"/><path d="M0 0 112 0.000104987" stroke="#000000" stroke-width="2" stroke-linejoin="round" stroke-miterlimit="10" fill="none" fill-rule="evenodd" transform="matrix(-1 0 0 1 792 288)"/><text font-family="Times New Roman,Times New Roman_MSFontService,sans-serif" font-weight="400" font-size="27" transform="translate(57.6 103)">Price</text><text font-family="Times New Roman,Times New Roman_MSFontService,sans-serif" font-weight="400" font-size="27" transform="translate(761.1 661)">Quantity</text><path d="M528.5 384.5 528.5 632.5" stroke="#000000" stroke-width="3" stroke-linejoin="round" stroke-miterlimit="10" stroke-dasharray="12 9" fill="none" fill-rule="evenodd"/><text font-family="Times New Roman,Times New Roman_MSFontService,sans-serif" font-weight="400" font-size="27" transform="translate(513.6 661)">Q</text><text font-family="Times New Roman,Times New Roman_MSFontService,sans-serif" font-weight="400" font-size="18" transform="translate(532.933 667)">E</text><text font-family="Times New Roman,Times New Roman_MSFontService,sans-serif" font-weight="400" font-size="27" transform="translate(623.933 272)">Supply Curve</text><text font-family="Times New Roman,Times New Roman_MSFontService,sans-serif" font-weight="400" font-size="27" transform="translate(633.6 439)">Demand Curve</text><path d="M0 0 400 0.000104987" stroke="#000000" stroke-width="3" stroke-linejoin="round" stroke-miterlimit="10" stroke-dasharray="12 9" fill="none" fill-rule="evenodd" transform="matrix(-1 0 0 1 528.5 384.5)"/><path d="M528.5 384.5 528.5 408.5" stroke="#000000" stroke-linejoin="round" stroke-miterlimit="10" fill="none" fill-rule="evenodd"/><text font-family="Times New Roman,Times New Roman_MSFontService,sans-serif" font-weight="400" font-size="27" transform="translate(89.6 389)">P</text><text font-family="Times New Roman,Times New Roman_MSFontService,sans-serif" font-weight="400" font-size="18" transform="translate(104.433 395)">E</text><path d="M448.5 224.5 448.5 632.5" stroke="#000000" stroke-linejoin="round" stroke-miterlimit="10" stroke-dasharray="4 3" fill="none" fill-rule="evenodd"/><path d="M0 0 320 0.000104987" stroke="#000000" stroke-linejoin="round" stroke-miterlimit="10" stroke-dasharray="1 1" fill="none" fill-rule="evenodd" transform="matrix(-1 0 0 1 448.5 224.5)"/><path d="M0 0 320 0.000104987" stroke="#000000" stroke-linejoin="round" stroke-miterlimit="10" stroke-dasharray="1 1" fill="none" fill-rule="evenodd" transform="matrix(-1 0 0 1 448.5 432.5)"/><text font-family="Times New Roman,Times New Roman_MSFontService,sans-serif" font-weight="400" font-size="27" transform="translate(433.6 661)">Q</text><text font-family="Times New Roman,Times New Roman_MSFontService,sans-serif" font-weight="400" font-size="27" transform="translate(89.6 231)">C’</text><text font-family="Times New Roman,Times New Roman_MSFontService,sans-serif" font-weight="400" font-size="27" transform="translate(94.6 439)">S’</text><text font-family="Times New Roman,Times New Roman_MSFontService,sans-serif" font-weight="400" font-size="27" transform="translate(417.6 221)">C</text><text font-family="Times New Roman,Times New Roman_MSFontService,sans-serif" font-weight="400" font-size="27" transform="translate(425.6 431)">S</text><path d="M523.5 384.5C523.5 382.291 525.291 380.5 527.5 380.5 529.709 380.5 531.5 382.291 531.5 384.5 531.5 386.709 529.709 388.5 527.5 388.5 525.291 388.5 523.5 386.709 523.5 384.5Z" stroke="#000000" stroke-linejoin="round" stroke-miterlimit="10" fill-rule="evenodd"/><path d="M444.5 224.5C444.5 222.291 446.291 220.5 448.5 220.5 450.709 220.5 452.5 222.291 452.5 224.5 452.5 226.709 450.709 228.5 448.5 228.5 446.291 228.5 444.5 226.709 444.5 224.5Z" stroke="#000000" stroke-linejoin="round" stroke-miterlimit="10" fill-rule="evenodd"/><path d="M444.5 432.5C444.5 430.291 446.291 428.5 448.5 428.5 450.709 428.5 452.5 430.291 452.5 432.5 452.5 434.709 450.709 436.5 448.5 436.5 446.291 436.5 444.5 434.709 444.5 432.5Z" stroke="#000000" stroke-linejoin="round" stroke-miterlimit="10" fill-rule="evenodd"/><text font-family="Times New Roman,Times New Roman_MSFontService,sans-serif" font-weight="700" font-size="27" transform="translate(545.6 375)">Equilibrium</text><path d="M124.5 224.5C124.5 222.291 126.291 220.5 128.5 220.5 130.709 220.5 132.5 222.291 132.5 224.5 132.5 226.709 130.709 228.5 128.5 228.5 126.291 228.5 124.5 226.709 124.5 224.5Z" stroke="#000000" stroke-linejoin="round" stroke-miterlimit="10" fill-rule="evenodd"/><path d="M124.5 432.5C124.5 430.291 126.291 428.5 128.5 428.5 130.709 428.5 132.5 430.291 132.5 432.5 132.5 434.709 130.709 436.5 128.5 436.5 126.291 436.5 124.5 434.709 124.5 432.5Z" stroke="#000000" stroke-linejoin="round" stroke-miterlimit="10" fill-rule="evenodd"/></g></svg>