<?xml version="1.0" encoding="UTF-8" standalone="no"?>
<svg
   width="1951.3201"
   height="1578.2832"
   xml:space="preserve"
   overflow="hidden"
   version="1.1"
   id="svg174"
   xmlns="http://www.w3.org/2000/svg"
   xmlns:svg="http://www.w3.org/2000/svg"><defs
     id="defs1"><clipPath
       id="clip0"><rect
         x="0"
         y="0"
         width="2785"
         height="1999"
         id="rect1" /></clipPath></defs><g
     clip-path="url(#clip0)"
     id="g174"
     transform="translate(-264.33252,-33.149216)"><rect
       x="264.33252"
       y="33.149216"
       width="1951.3201"
       height="1578.2832"
       fill="#ffffff"
       id="rect2"
       style="stroke-width:0.765404" /><rect
       x="1098.5"
       y="87.500198"
       width="274"
       height="106"
       stroke="#000000"
       stroke-width="2.75"
       stroke-miterlimit="8"
       fill="#ffffff"
       id="rect3" /><g
       id="g206"
       transform="translate(-74.999691)"><text
         font-family="Arial,Arial_MSFontService,sans-serif"
         font-weight="400"
         font-size="37"
         transform="translate(1189.37,132)"
         id="text3"
         style="font-style:normal;font-variant:normal;font-weight:normal;font-stretch:normal;font-size:37px;font-family:Arial, Arial_MSFontService, sans-serif;-inkscape-font-specification:'Arial, Arial_MSFontService, sans-serif, Normal';font-variant-ligatures:normal;font-variant-caps:normal;font-variant-numeric:normal;font-variant-east-asian:normal"><tspan
           id="tspan206"
           x="0"
           y="0">User constraint</tspan></text><text
         font-family="Arial,Arial_MSFontService,sans-serif"
         font-weight="400"
         font-size="37"
         transform="translate(1272.79,176)"
         id="text5"
         style="font-style:normal;font-variant:normal;font-weight:normal;font-stretch:normal;font-size:37px;font-family:Arial, Arial_MSFontService, sans-serif;-inkscape-font-specification:'Arial, Arial_MSFontService, sans-serif, Normal';font-variant-ligatures:normal;font-variant-caps:normal;font-variant-numeric:normal;font-variant-east-asian:normal"><tspan
           id="tspan205"
           x="0"
           y="0">uc_n</tspan></text></g><rect
       x="311.5"
       y="963.5"
       width="106"
       height="273"
       stroke="#000000"
       stroke-width="2.75"
       stroke-miterlimit="8"
       fill="#ffff00"
       id="rect6" /><text
       font-family="Arial,Arial_MSFontService,sans-serif"
       font-weight="400"
       font-size="37"
       transform="rotate(-90)"
       id="text7"
       style="font-style:normal;font-variant:normal;font-weight:normal;font-stretch:normal;font-size:37px;font-family:Arial, Arial_MSFontService, sans-serif;-inkscape-font-specification:'Arial, Arial_MSFontService, sans-serif, Normal';font-variant-ligatures:normal;font-variant-caps:normal;font-variant-numeric:normal;font-variant-east-asian:normal"
       x="-1219.0001"
       y="369.32135"><tspan
         id="tspan204"
         x="-1219.0001"
         y="369.32135">Each timeslice</tspan></text><rect
       x="536.5"
       y="963.5"
       width="107"
       height="273"
       stroke="#000000"
       stroke-width="2.75"
       stroke-miterlimit="8"
       fill="#ffff00"
       id="rect8" /><g
       id="g208"><text
         font-family="Arial,Arial_MSFontService,sans-serif"
         font-weight="400"
         font-size="37"
         transform="rotate(-90)"
         id="text9"
         style="font-style:normal;font-variant:normal;font-weight:normal;font-stretch:normal;font-size:37px;font-family:Arial, Arial_MSFontService, sans-serif;-inkscape-font-specification:'Arial, Arial_MSFontService, sans-serif, Normal';font-variant-ligatures:normal;font-variant-caps:normal;font-variant-numeric:normal;font-variant-east-asian:normal"
         x="-1220.0004"
         y="572.82153"><tspan
           id="tspan203"
           x="-1220.0004"
           y="572.82153">Summing over</tspan></text><text
         font-family="Arial, Arial_MSFontService, sans-serif"
         font-weight="400"
         font-size="37px"
         transform="rotate(-90)"
         id="text11"
         x="-1176.0001"
         y="621.7699">timeslices</text></g><g
       id="g203"><path
         d="M 0,0 97.625,174.396"
         stroke="#000000"
         stroke-width="2.75"
         stroke-linejoin="round"
         stroke-miterlimit="10"
         fill="none"
         fill-rule="evenodd"
         transform="matrix(-1,0,0,1,466.125,765.5)"
         id="path11" /><path
         d="M 356.831,931 355,963 382,945.171 Z"
         fill-rule="evenodd"
         id="path12" /></g><g
       id="g202"><path
         d="M 465.5,765.5 583.292,940.813"
         stroke="#000000"
         stroke-width="2.75"
         stroke-linejoin="round"
         stroke-miterlimit="10"
         fill="none"
         fill-rule="evenodd"
         id="path13" /><path
         d="M 570,947.275 598,963 594.267,932 Z"
         fill-rule="evenodd"
         id="path14" /></g><rect
       x="819"
       y="963"
       width="106"
       height="273"
       fill="#c0c0c0"
       id="rect14"
       style="stroke:#000000;stroke-width:2;stroke-dasharray:16, 2;stroke-dashoffset:0;stroke-opacity:1" /><text
       font-family="Arial,Arial_MSFontService,sans-serif"
       font-weight="400"
       font-size="37"
       transform="rotate(-90)"
       id="text50"
       style="font-style:normal;font-variant:normal;font-weight:normal;font-stretch:normal;font-size:37px;font-family:Arial, Arial_MSFontService, sans-serif;-inkscape-font-specification:'Arial, Arial_MSFontService, sans-serif, Normal';font-variant-ligatures:normal;font-variant-caps:normal;font-variant-numeric:normal;font-variant-east-asian:normal"
       x="-1218.9999"
       y="877.38043"><tspan
         id="tspan202"
         x="-1218.9999"
         y="877.38043">Each timeslice</tspan></text><rect
       x="1044.5"
       y="963.5"
       width="107"
       height="273"
       stroke="#000000"
       stroke-width="2.75"
       stroke-miterlimit="8"
       fill="#ffff00"
       id="rect51" /><g
       id="g209"><text
         font-family="Arial,Arial_MSFontService,sans-serif"
         font-weight="400"
         font-size="37"
         transform="rotate(-90)"
         id="text52"
         style="font-style:normal;font-variant:normal;font-weight:normal;font-stretch:normal;font-size:37px;font-family:Arial, Arial_MSFontService, sans-serif;-inkscape-font-specification:'Arial, Arial_MSFontService, sans-serif, Normal';font-variant-ligatures:normal;font-variant-caps:normal;font-variant-numeric:normal;font-variant-east-asian:normal"
         x="-1220.0004"
         y="1080.8805"><tspan
           id="tspan201"
           x="-1220.0004"
           y="1080.8805">Summing over</tspan></text><text
         font-family="Arial, Arial_MSFontService, sans-serif"
         font-weight="400"
         font-size="37px"
         transform="rotate(-90)"
         id="text54"
         x="-1176.0001"
         y="1129.8308">timeslices</text></g><g
       id="g201"><path
         d="m 975,766.222 v -0.889 0 l -0.445,-0.444 -0.444,-0.444 -0.444,-0.445 v 0 l -0.445,0.445 -0.444,0.444 -5.334,8.889 -0.444,0.444 v 0.445 l 0.444,0.444 0.445,0.444 0.444,0.445 h 0.445 l 0.444,-0.445 0.445,-0.444 z"
         fill-rule="evenodd"
         id="path54" /><path
         d="m 965.5,782.778 0.5,-0.445 v -0.444 L 965.5,781.444 965,781 h -0.5 -0.5 -0.5 l -0.5,0.444 -6,9.334 v 0.444 0.445 0.444 l 0.5,0.445 0.5,0.444 h 0.5 l 0.5,-0.444 0.5,-0.445 z"
         fill-rule="evenodd"
         id="path55" /><path
         d="m 956,799.408 v -0.482 -0.481 -0.482 l -0.432,-0.481 -0.433,-0.482 h -0.432 l -0.433,0.482 -0.432,0.481 -5.406,10.111 -0.432,0.481 v 0.482 l 0.432,0.481 0.433,0.482 h 0.432 0.433 0.432 l 0.433,-0.482 z"
         fill-rule="evenodd"
         id="path56" /><path
         d="m 946.5,816.407 0.5,-0.481 v -0.482 L 946.5,814.963 946,814.482 945.5,814 H 945 l -0.5,0.482 -0.5,0.481 -6,9.63 v 0.481 0.482 0.481 l 0.5,0.482 0.5,0.481 h 0.5 l 0.5,-0.481 0.5,-0.482 z"
         fill-rule="evenodd"
         id="path57" /><path
         d="m 937,832.926 v -0.482 -0.481 -0.482 L 936.556,831 h -0.445 -0.444 -0.445 l -0.444,0.481 -5.333,10.111 -0.445,0.482 v 0.481 l 0.445,0.482 0.444,0.481 0.444,0.482 h 0.445 l 0.444,-0.482 0.445,-0.481 z"
         fill-rule="evenodd"
         id="path58" /><path
         d="M 927.556,850.222 928,849.778 v -0.445 l -0.444,-0.444 -0.445,-0.444 -0.444,-0.445 h -0.445 l -0.444,0.445 -0.445,0.444 -5.333,9.333 v 0.445 0.444 0.445 l 0.444,0.444 h 0.445 0.444 0.445 l 0.444,-0.444 z"
         fill-rule="evenodd"
         id="path59" /><path
         d="m 918,867.182 v -0.437 -0.436 -0.436 l -0.47,-0.437 -0.471,-0.436 h -0.471 l -0.47,0.436 -0.471,0.437 -5.647,9.381 v 0.437 0.436 0.437 l 0.47,0.436 h 0.471 0.471 0.47 l 0.471,-0.436 z"
         fill-rule="evenodd"
         id="path60" /><path
         d="M 908.555,883.778 909,883.333 v -0.444 l -0.445,-0.444 -0.444,-0.445 h -0.444 -0.445 -0.444 l -0.445,0.445 -4.889,9.333 -0.444,0.444 v 0.445 l 0.444,0.444 0.445,0.445 0.444,0.444 h 0.445 l 0.444,-0.444 0.445,-0.445 z"
         fill-rule="evenodd"
         id="path61" /><path
         d="m 899,900.407 v -0.481 -0.482 -0.481 l -0.457,-0.482 -0.457,-0.481 h -0.458 l -0.457,0.481 -0.457,0.482 -5.714,10.111 v 0.481 0.482 0.481 l 0.457,0.482 h 0.457 0.457 0.458 l 0.457,-0.482 z"
         fill-rule="evenodd"
         id="path62" /><path
         d="M 889.556,917.407 890,916.926 v -0.481 l -0.444,-0.482 -0.445,-0.481 -0.444,-0.482 h -0.445 l -0.444,0.482 -0.445,0.481 -4.888,10.111 -0.445,0.482 v 0.481 l 0.445,0.482 0.444,0.481 h 0.444 0.445 0.444 l 0.445,-0.481 z"
         fill-rule="evenodd"
         id="path63" /><path
         d="m 880,933.895 v -0.474 -0.474 -0.473 L 879.615,932 h -0.384 -0.385 -0.385 l -0.384,0.474 -2.693,6.631 -0.384,0.474 v 0 l 0.384,0.473 0.385,0.474 0.385,0.474 v 0 l 0.384,-0.474 h 0.77 z"
         fill-rule="evenodd"
         id="path64" /><path
         d="M 864.831,931 863,963 890,945.171 Z"
         fill-rule="evenodd"
         id="path65" /></g><g
       id="g200"><path
         d="m 974.5,765.5 117.79,175.313"
         stroke="#000000"
         stroke-width="2.75"
         stroke-linejoin="round"
         stroke-miterlimit="10"
         fill="none"
         fill-rule="evenodd"
         id="path66" /><path
         d="m 1078,947.275 28,15.725 -3.73,-31 z"
         fill-rule="evenodd"
         id="path67" /></g><g
       id="g199"><path
         d="M 0,0 243.146,182.417"
         stroke="#000000"
         stroke-width="2.75"
         stroke-linejoin="round"
         stroke-miterlimit="10"
         fill="none"
         fill-rule="evenodd"
         transform="matrix(-1,0,0,1,730.646,457.5)"
         id="path68" /><path
         d="M 480.086,627 465,655 l 33,-5.419 z"
         fill-rule="evenodd"
         id="path69" /></g><g
       id="g198"><path
         d="M 731.5,457.5 953.333,639"
         stroke="#000000"
         stroke-width="2.75"
         stroke-linejoin="round"
         stroke-miterlimit="10"
         fill="none"
         fill-rule="evenodd"
         id="path70" /><path
         d="M 942,648.203 974,655 960.452,626 Z"
         fill-rule="evenodd"
         id="path71" /></g><rect
       x="1327.5"
       y="963.5"
       width="106"
       height="273"
       stroke="#000000"
       stroke-width="2.75"
       stroke-miterlimit="8"
       fill="#ffff00"
       id="rect71" /><text
       font-family="Arial,Arial_MSFontService,sans-serif"
       font-weight="400"
       font-size="37"
       transform="rotate(-90)"
       id="text71"
       style="font-style:normal;font-variant:normal;font-weight:normal;font-stretch:normal;font-size:37px;font-family:Arial, Arial_MSFontService, sans-serif;-inkscape-font-specification:'Arial, Arial_MSFontService, sans-serif, Normal';font-variant-ligatures:normal;font-variant-caps:normal;font-variant-numeric:normal;font-variant-east-asian:normal"
       x="-1218.9999"
       y="1385.4504"><tspan
         id="tspan198"
         x="-1218.9999"
         y="1385.4504">Each timeslice</tspan></text><rect
       x="1552.5"
       y="963.5"
       width="107"
       height="273"
       stroke="#000000"
       stroke-width="2.75"
       stroke-miterlimit="8"
       fill="#ffff00"
       id="rect72" /><g
       id="g210"><text
         font-family="Arial,Arial_MSFontService,sans-serif"
         font-weight="400"
         font-size="37"
         transform="rotate(-90)"
         id="text73"
         style="font-style:normal;font-variant:normal;font-weight:normal;font-stretch:normal;font-size:37px;font-family:Arial, Arial_MSFontService, sans-serif;-inkscape-font-specification:'Arial, Arial_MSFontService, sans-serif, Normal';font-variant-ligatures:normal;font-variant-caps:normal;font-variant-numeric:normal;font-variant-east-asian:normal"
         x="-1220.0004"
         y="1588.9506"><tspan
           id="tspan197"
           x="-1220.0004"
           y="1588.9506">Summing over</tspan></text><text
         font-family="Arial, Arial_MSFontService, sans-serif"
         font-weight="400"
         font-size="37px"
         transform="rotate(-90)"
         id="text75"
         x="-1176.0001"
         y="1637.8909">timeslices</text></g><g
       id="g197"><path
         d="M 0,0 97.625,174.396"
         stroke="#000000"
         stroke-width="2.75"
         stroke-linejoin="round"
         stroke-miterlimit="10"
         fill="none"
         fill-rule="evenodd"
         transform="matrix(-1,0,0,1,1482.13,765.5)"
         id="path75" /><path
         d="m 1372.83,931 -1.83,32 27,-17.829 z"
         fill-rule="evenodd"
         id="path76" /></g><g
       id="g196"><path
         d="m 1482.5,765.5 117.79,175.313"
         stroke="#000000"
         stroke-width="2.75"
         stroke-linejoin="round"
         stroke-miterlimit="10"
         fill="none"
         fill-rule="evenodd"
         id="path77" /><path
         d="m 1587,947.275 27,15.725 -3.6,-31 z"
         fill-rule="evenodd"
         id="path78" /></g><rect
       x="1835"
       y="963"
       width="106"
       height="273"
       fill="#c0c0c0"
       id="rect78"
       style="stroke:#000000;stroke-width:2;stroke-dasharray:16, 2;stroke-dashoffset:0;stroke-opacity:1" /><text
       font-family="Arial,Arial_MSFontService,sans-serif"
       font-weight="400"
       font-size="37"
       transform="rotate(-90)"
       id="text114"
       style="font-style:normal;font-variant:normal;font-weight:normal;font-stretch:normal;font-size:37px;font-family:Arial, Arial_MSFontService, sans-serif;-inkscape-font-specification:'Arial, Arial_MSFontService, sans-serif, Normal';font-variant-ligatures:normal;font-variant-caps:normal;font-variant-numeric:normal;font-variant-east-asian:normal"
       x="-1218.9999"
       y="1893.2804"><tspan
         id="tspan196"
         x="-1218.9999"
         y="1893.2804">Each timeslice</tspan></text><rect
       x="2060.5"
       y="963.5"
       width="107"
       height="273"
       stroke="#000000"
       stroke-width="2.75"
       stroke-miterlimit="8"
       fill="#ffff00"
       id="rect115" /><g
       id="g207"><text
         font-family="Arial,Arial_MSFontService,sans-serif"
         font-weight="400"
         font-size="37"
         transform="rotate(-90)"
         id="text116"
         style="font-style:normal;font-variant:normal;font-weight:normal;font-stretch:normal;font-size:37px;font-family:Arial, Arial_MSFontService, sans-serif;-inkscape-font-specification:'Arial, Arial_MSFontService, sans-serif, Normal';font-variant-ligatures:normal;font-variant-caps:normal;font-variant-numeric:normal;font-variant-east-asian:normal"
         x="-1220.0004"
         y="2097.0105"><tspan
           id="tspan195"
           x="-1220.0004"
           y="2097.0105">Summing over</tspan></text><text
         font-family="Arial, Arial_MSFontService, sans-serif"
         font-weight="400"
         font-size="37px"
         transform="rotate(-90)"
         id="text118"
         x="-1176.0001"
         y="2145.9604">timeslices</text></g><g
       id="g195"><path
         d="m 1991,766.222 v -0.889 0 l -0.44,-0.444 -0.45,-0.444 -0.44,-0.445 v 0 l -0.45,0.445 -0.44,0.444 -5.34,8.889 -0.44,0.444 v 0.445 l 0.44,0.444 0.45,0.444 0.44,0.445 h 0.45 l 0.44,-0.445 0.45,-0.444 z"
         fill-rule="evenodd"
         id="path118" /><path
         d="m 1981.56,782.778 0.44,-0.445 v -0.444 l -0.44,-0.445 -0.45,-0.444 h -0.44 -0.45 -0.44 l -0.45,0.444 -5.33,9.334 v 0.444 0.445 0.444 l 0.44,0.445 0.45,0.444 h 0.44 l 0.45,-0.444 0.44,-0.445 z"
         fill-rule="evenodd"
         id="path119" /><path
         d="m 1972,799.408 v -0.482 -0.481 -0.482 l -0.43,-0.481 -0.43,-0.482 h -0.44 l -0.43,0.482 -0.43,0.481 -5.41,10.111 -0.43,0.481 v 0.482 l 0.43,0.481 0.43,0.482 h 0.44 0.43 0.43 l 0.43,-0.482 z"
         fill-rule="evenodd"
         id="path120" /><path
         d="m 1962.56,816.407 0.44,-0.481 v -0.482 l -0.44,-0.481 -0.45,-0.481 -0.44,-0.482 h -0.45 l -0.44,0.482 -0.45,0.481 -5.33,9.63 v 0.481 0.482 0.481 l 0.44,0.482 0.45,0.481 h 0.44 l 0.45,-0.481 0.44,-0.482 z"
         fill-rule="evenodd"
         id="path121" /><path
         d="m 1953,832.926 v -0.482 -0.481 -0.482 L 1952.56,831 h -0.45 -0.44 -0.45 l -0.44,0.481 -5.34,10.111 -0.44,0.482 v 0.481 l 0.44,0.482 0.45,0.481 0.44,0.482 h 0.45 l 0.44,-0.482 0.45,-0.481 z"
         fill-rule="evenodd"
         id="path122" /><path
         d="m 1943.56,850.222 0.44,-0.444 v -0.445 l -0.44,-0.444 -0.45,-0.444 -0.44,-0.445 h -0.45 l -0.44,0.445 -0.45,0.444 -5.33,9.333 v 0.445 0.444 0.445 l 0.44,0.444 h 0.45 0.44 0.45 l 0.44,-0.444 z"
         fill-rule="evenodd"
         id="path123" /><path
         d="m 1934,867.182 v -0.437 -0.436 -0.436 l -0.41,-0.437 -0.41,-0.436 h -0.42 l -0.41,0.436 -0.41,0.437 -4.94,9.381 v 0.437 0.436 0.437 l 0.41,0.436 h 0.41 0.42 0.41 l 0.41,-0.436 z"
         fill-rule="evenodd"
         id="path124" /><path
         d="m 1924.56,883.778 0.44,-0.445 v -0.444 l -0.44,-0.444 -0.45,-0.445 h -0.44 -0.45 -0.44 l -0.45,0.445 -4.89,9.333 -0.44,0.444 v 0.445 l 0.44,0.444 0.45,0.445 0.44,0.444 h 0.45 l 0.44,-0.444 0.45,-0.445 z"
         fill-rule="evenodd"
         id="path125" /><path
         d="m 1916,900.407 v -0.481 -0.482 -0.481 l -0.46,-0.482 -0.45,-0.481 h -0.46 l -0.46,0.481 -0.46,0.482 -5.71,10.111 v 0.481 0.482 0.481 l 0.46,0.482 h 0.45 0.46 0.46 l 0.46,-0.482 z"
         fill-rule="evenodd"
         id="path126" /><path
         d="m 1905.56,917.407 0.44,-0.481 v -0.481 l -0.44,-0.482 -0.45,-0.481 -0.44,-0.482 h -0.45 l -0.44,0.482 -0.45,0.481 -4.89,10.111 -0.44,0.482 v 0.481 l 0.44,0.482 0.45,0.481 h 0.44 0.45 0.44 l 0.45,-0.481 z"
         fill-rule="evenodd"
         id="path127" /><path
         d="m 1897,933.895 v -0.474 -0.474 -0.473 L 1896.54,932 h -0.46 -0.46 -0.47 l -0.46,0.474 -3.23,6.631 -0.46,0.474 v 0 l 0.46,0.473 0.46,0.474 0.46,0.474 v 0 l 0.47,-0.474 h 0.92 z"
         fill-rule="evenodd"
         id="path128" /><path
         d="m 1880.83,931 -1.83,32 27,-17.829 z"
         fill-rule="evenodd"
         id="path129" /></g><g
       id="g194"><path
         d="m 1990.5,765.5 117.79,175.313"
         stroke="#000000"
         stroke-width="2.75"
         stroke-linejoin="round"
         stroke-miterlimit="10"
         fill="none"
         fill-rule="evenodd"
         id="path130" /><path
         d="m 2095,947.275 27,15.725 -3.6,-31 z"
         fill-rule="evenodd"
         id="path131" /></g><g
       id="g193"><path
         d="M 0,0 243.146,182.417"
         stroke="#000000"
         stroke-width="2.75"
         stroke-linejoin="round"
         stroke-miterlimit="10"
         fill="none"
         fill-rule="evenodd"
         transform="matrix(-1,0,0,1,1747.65,457.5)"
         id="path132" /><path
         d="m 1496.63,627 -14.63,28 32,-5.419 z"
         fill-rule="evenodd"
         id="path133" /></g><g
       id="g192"><path
         d="M 1747.5,457.5 1969.33,639"
         stroke="#000000"
         stroke-width="2.75"
         stroke-linejoin="round"
         stroke-miterlimit="10"
         fill="none"
         fill-rule="evenodd"
         id="path134" /><path
         d="m 1958,648.203 32,6.797 -13.55,-29 z"
         fill-rule="evenodd"
         id="path135" /></g><g
       id="g191"><path
         d="m 1239.5,192.5 481.71,145.979"
         stroke="#000000"
         stroke-width="2.75"
         stroke-linejoin="round"
         stroke-miterlimit="10"
         fill="none"
         fill-rule="evenodd"
         id="path136" /><path
         d="m 1715,352 32,-5.554 L 1723.29,324 Z"
         fill-rule="evenodd"
         id="path137" /></g><g
       id="g190"><path
         d="M 0,0 481.938,145.979"
         stroke="#000000"
         stroke-width="2.75"
         stroke-linejoin="round"
         stroke-miterlimit="10"
         fill="none"
         fill-rule="evenodd"
         transform="matrix(-1,0,0,1,1239.44,192.5)"
         id="path138" /><path
         d="M 754.772,324 731,346.446 763,352 Z"
         fill-rule="evenodd"
         id="path139" /></g><text
       font-family="Arial,Arial_MSFontService,sans-serif"
       font-weight="700"
       font-size="46"
       transform="rotate(-90)"
       id="text139"
       style="font-style:normal;font-variant:normal;font-weight:bold;font-stretch:normal;font-size:46px;font-family:Arial, Arial_MSFontService, sans-serif;-inkscape-font-specification:'Arial, Arial_MSFontService, sans-serif, Bold';font-variant-ligatures:normal;font-variant-caps:normal;font-variant-numeric:normal;font-variant-east-asian:normal"
       x="-1542.9996"
       y="376.16925"><tspan
         id="tspan180"
         x="-1542.9996"
         y="376.16925">EQl_UCRTS</tspan></text><text
       font-family="Arial,Arial_MSFontService,sans-serif"
       font-weight="700"
       font-size="46"
       transform="rotate(-90)"
       id="text141"
       style="font-style:normal;font-variant:normal;font-weight:bold;font-stretch:normal;font-size:46px;font-family:Arial, Arial_MSFontService, sans-serif;-inkscape-font-specification:'Arial, Arial_MSFontService, sans-serif, Bold';font-variant-ligatures:normal;font-variant-caps:normal;font-variant-numeric:normal;font-variant-east-asian:normal"
       x="-1542.9996"
       y="596.85626"><tspan
         id="tspan181"
         x="-1542.9996"
         y="596.85626">EQl_UCRT</tspan></text><text
       fill="#C0C0C0"
       font-family="Arial,Arial_MSFontService,sans-serif"
       font-weight="700"
       font-size="46"
       transform="rotate(-90)"
       id="text143"
       style="font-style:normal;font-variant:normal;font-weight:bold;font-stretch:normal;font-size:46px;font-family:Arial, Arial_MSFontService, sans-serif;-inkscape-font-specification:'Arial, Arial_MSFontService, sans-serif, Bold';font-variant-ligatures:normal;font-variant-caps:normal;font-variant-numeric:normal;font-variant-east-asian:normal;fill:#c0c0c0"
       x="-1544.9996"
       y="886.06024"><tspan
         id="tspan182"
         x="-1544.9996"
         y="886.06024">EQl_UCRS</tspan></text><text
       font-family="Arial,Arial_MSFontService,sans-serif"
       font-weight="700"
       font-size="46"
       transform="rotate(-90)"
       id="text147"
       style="font-style:normal;font-variant:normal;font-weight:bold;font-stretch:normal;font-size:46px;font-family:Arial, Arial_MSFontService, sans-serif;-inkscape-font-specification:'Arial, Arial_MSFontService, sans-serif, Bold';font-variant-ligatures:normal;font-variant-caps:normal;font-variant-numeric:normal;font-variant-east-asian:normal"
       x="-1542.9996"
       y="1104.9203"><tspan
         id="tspan183"
         x="-1542.9996"
         y="1104.9203">EQl_UCR</tspan></text><text
       font-family="Arial,Arial_MSFontService,sans-serif"
       font-weight="700"
       font-size="46"
       transform="rotate(-90)"
       id="text149"
       style="font-style:normal;font-variant:normal;font-weight:bold;font-stretch:normal;font-size:46px;font-family:Arial, Arial_MSFontService, sans-serif;-inkscape-font-specification:'Arial, Arial_MSFontService, sans-serif, Bold';font-variant-ligatures:normal;font-variant-caps:normal;font-variant-numeric:normal;font-variant-east-asian:normal"
       x="-1542.9996"
       y="1392.7502"><tspan
         id="tspan184"
         x="-1542.9996"
         y="1392.7502">EQl_UCTS</tspan></text><text
       font-family="Arial,Arial_MSFontService,sans-serif"
       font-weight="700"
       font-size="46"
       transform="rotate(-90)"
       id="text151"
       style="font-style:normal;font-variant:normal;font-weight:bold;font-stretch:normal;font-size:46px;font-family:Arial, Arial_MSFontService, sans-serif;-inkscape-font-specification:'Arial, Arial_MSFontService, sans-serif, Bold';font-variant-ligatures:normal;font-variant-caps:normal;font-variant-numeric:normal;font-variant-east-asian:normal"
       x="-1542.9996"
       y="1612.9802"><tspan
         id="tspan185"
         x="-1542.9996"
         y="1612.9802">EQl_UCT</tspan></text><text
       fill="#C0C0C0"
       font-family="Arial,Arial_MSFontService,sans-serif"
       font-weight="700"
       font-size="46"
       transform="rotate(-90)"
       id="text153"
       style="font-style:normal;font-variant:normal;font-weight:bold;font-stretch:normal;font-size:46px;font-family:Arial, Arial_MSFontService, sans-serif;-inkscape-font-specification:'Arial, Arial_MSFontService, sans-serif, Bold';font-variant-ligatures:normal;font-variant-caps:normal;font-variant-numeric:normal;font-variant-east-asian:normal;fill:#c0c0c0"
       x="-1544.9996"
       y="1910.6703"><tspan
         id="tspan186"
         x="-1544.9996"
         y="1910.6703">EQl_UCS</tspan></text><text
       font-family="Arial,Arial_MSFontService,sans-serif"
       font-weight="700"
       font-size="46"
       transform="rotate(-90)"
       id="text157"
       style="font-style:normal;font-variant:normal;font-weight:bold;font-stretch:normal;font-size:46px;font-family:Arial, Arial_MSFontService, sans-serif;-inkscape-font-specification:'Arial, Arial_MSFontService, sans-serif, Bold';font-variant-ligatures:normal;font-variant-caps:normal;font-variant-numeric:normal;font-variant-east-asian:normal"
       x="-1542.9996"
       y="2129.9802"><tspan
         id="tspan187"
         x="-1542.9996"
         y="2129.9802">EQl_UC</tspan></text><rect
       x="590.5"
       y="347.5"
       width="274"
       height="105"
       stroke="#000000"
       stroke-width="2.75"
       stroke-miterlimit="8"
       fill="#ff6600"
       id="rect158" /><text
       font-family="Arial,Arial_MSFontService,sans-serif"
       font-weight="400"
       font-size="37"
       id="text159"
       style="font-style:normal;font-variant:normal;font-weight:normal;font-stretch:normal;font-size:37px;font-family:Arial, Arial_MSFontService, sans-serif;-inkscape-font-specification:'Arial, Arial_MSFontService, sans-serif, Normal';font-variant-ligatures:normal;font-variant-caps:normal;font-variant-numeric:normal;font-variant-east-asian:normal"
       x="624.87524"
       y="414"><tspan
         id="tspan179"
         x="624.87524"
         y="414">Each Region</tspan></text><rect
       x="1606.5"
       y="347.5"
       width="274"
       height="105"
       stroke="#000000"
       stroke-width="2.75"
       stroke-miterlimit="8"
       fill="#ff6600"
       id="rect160" /><g
       id="g189"
       transform="translate(-75.000109)"><text
         font-family="Arial,Arial_MSFontService,sans-serif"
         font-weight="400"
         font-size="37"
         transform="translate(1702.48,392)"
         id="text161"
         style="font-style:normal;font-variant:normal;font-weight:normal;font-stretch:normal;font-size:37px;font-family:Arial, Arial_MSFontService, sans-serif;-inkscape-font-specification:'Arial, Arial_MSFontService, sans-serif, Normal';font-variant-ligatures:normal;font-variant-caps:normal;font-variant-numeric:normal;font-variant-east-asian:normal"><tspan
           id="tspan178"
           x="0"
           y="0">Summing over</tspan></text><text
         font-family="Arial, Arial_MSFontService, sans-serif"
         font-weight="400"
         font-size="37px"
         transform="translate(1760.46,436)"
         id="text163">regions</text></g><rect
       x="333.5"
       y="660.5"
       width="273"
       height="106"
       stroke="#000000"
       stroke-width="2.75"
       stroke-miterlimit="8"
       fill="#3366ff"
       id="rect163" /><text
       font-family="Arial,Arial_MSFontService,sans-serif"
       font-weight="400"
       font-size="37"
       id="text164"
       style="font-style:normal;font-variant:normal;font-weight:normal;font-stretch:normal;font-size:37px;font-family:Arial, Arial_MSFontService, sans-serif;-inkscape-font-specification:'Arial, Arial_MSFontService, sans-serif, Normal';font-variant-ligatures:normal;font-variant-caps:normal;font-variant-numeric:normal;font-variant-east-asian:normal"
       x="372.56226"
       y="727"><tspan
         id="tspan177"
         x="372.56226"
         y="727">Each Period</tspan></text><rect
       x="841.5"
       y="660.5"
       width="273"
       height="106"
       stroke="#000000"
       stroke-width="2.75"
       stroke-miterlimit="8"
       fill="#3366ff"
       id="rect165" /><g
       id="g188"
       transform="translate(-75.000109)"><text
         font-family="Arial,Arial_MSFontService,sans-serif"
         font-weight="400"
         font-size="37"
         transform="translate(927.208,705)"
         id="text166"
         style="font-style:normal;font-variant:normal;font-weight:normal;font-stretch:normal;font-size:37px;font-family:Arial, Arial_MSFontService, sans-serif;-inkscape-font-specification:'Arial, Arial_MSFontService, sans-serif, Normal';font-variant-ligatures:normal;font-variant-caps:normal;font-variant-numeric:normal;font-variant-east-asian:normal"><tspan
           id="tspan176"
           x="0"
           y="0">Summing over</tspan></text><text
         font-family="Arial, Arial_MSFontService, sans-serif"
         font-weight="400"
         font-size="37px"
         transform="translate(995.271,749)"
         id="text168">periods</text></g><rect
       x="1349.5"
       y="660.5"
       width="273"
       height="106"
       stroke="#000000"
       stroke-width="2.75"
       stroke-miterlimit="8"
       fill="#3366ff"
       id="rect168" /><text
       font-family="Arial,Arial_MSFontService,sans-serif"
       font-weight="400"
       font-size="37"
       id="text169"
       style="font-style:normal;font-variant:normal;font-weight:normal;font-stretch:normal;font-size:37px;font-family:Arial, Arial_MSFontService, sans-serif;-inkscape-font-specification:'Arial, Arial_MSFontService, sans-serif, Normal';font-variant-ligatures:normal;font-variant-caps:normal;font-variant-numeric:normal;font-variant-east-asian:normal"
       x="1388.6902"
       y="727"><tspan
         id="tspan175"
         x="1388.6902"
         y="727">Each Period</tspan></text><rect
       x="1857.5"
       y="660.5"
       width="273"
       height="106"
       stroke="#000000"
       stroke-width="2.75"
       stroke-miterlimit="8"
       fill="#3366ff"
       id="rect170" /><g
       id="g187"
       transform="translate(-75.000109)"><text
         font-family="Arial,Arial_MSFontService,sans-serif"
         font-weight="400"
         font-size="37"
         transform="translate(1943.33,705)"
         id="text171"
         style="font-style:normal;font-variant:normal;font-weight:normal;font-stretch:normal;font-size:37px;font-family:Arial, Arial_MSFontService, sans-serif;-inkscape-font-specification:'Arial, Arial_MSFontService, sans-serif, Normal';font-variant-ligatures:normal;font-variant-caps:normal;font-variant-numeric:normal;font-variant-east-asian:normal"><tspan
           id="tspan174"
           x="0"
           y="0">Summing over</tspan></text><text
         font-family="Arial, Arial_MSFontService, sans-serif"
         font-weight="400"
         font-size="37px"
         transform="translate(2011.4,749)"
         id="text173">periods</text></g><path
       d="m 1794.85,984 -6.85,2.751 198.15,551.249 6.85,-2.98 z"
       fill-rule="evenodd"
       id="path173" /><path
       d="M 777.882,984 771,986.751 970.118,1538 977,1535.02 Z"
       fill-rule="evenodd"
       id="path174" /></g></svg>
