<?xml version="1.0" encoding="UTF-8" standalone="no"?>
<svg
   width="1578.6078"
   height="944.43872"
   xml:space="preserve"
   overflow="hidden"
   version="1.1"
   id="svg29"
   xmlns="http://www.w3.org/2000/svg"
   xmlns:svg="http://www.w3.org/2000/svg"><defs
     id="defs29" /><g
     id="g29"
     transform="translate(-125.14693,-278.83615)"><rect
       x="125.14693"
       y="278.83615"
       width="1578.6078"
       height="944.43872"
       fill="#ffffff"
       id="rect1"
       style="stroke-width:0.678986" /><rect
       x="381.5"
       y="585.5"
       width="433"
       height="190"
       stroke="#000000"
       stroke-width="2.97917"
       stroke-linecap="round"
       stroke-miterlimit="8"
       fill="none"
       id="rect2" /><path
       d="m 311.5,671.5 h 69.437"
       stroke="#000000"
       stroke-width="2.97917"
       stroke-linejoin="round"
       stroke-miterlimit="10"
       fill="none"
       fill-rule="evenodd"
       id="path2" /><path
       d="M 311.5,498.5 V 844.542"
       stroke="#000000"
       stroke-width="2.97917"
       stroke-linejoin="round"
       stroke-miterlimit="10"
       fill="none"
       fill-rule="evenodd"
       id="path3" /><path
       d="m 814,636 h 346.27"
       stroke="#0066ff"
       stroke-width="5.72917"
       stroke-linejoin="round"
       stroke-miterlimit="10"
       fill="none"
       fill-rule="evenodd"
       id="path4" /><path
       d="m 814,723 h 415.48"
       stroke="#0066ff"
       stroke-width="5.72917"
       stroke-linejoin="round"
       stroke-miterlimit="10"
       fill="none"
       fill-rule="evenodd"
       id="path5" /><path
       d="M 1160.5,498.5 V 844.542"
       stroke="#000000"
       stroke-width="2.97917"
       stroke-linejoin="round"
       stroke-miterlimit="10"
       fill="none"
       fill-rule="evenodd"
       id="path6" /><path
       d="M 1229.5,498.5 V 844.542"
       stroke="#000000"
       stroke-width="2.97917"
       stroke-linejoin="round"
       stroke-miterlimit="10"
       fill="none"
       fill-rule="evenodd"
       id="path7" /><text
       font-family="Arial, Arial_MSFontService, sans-serif"
       font-weight="400"
       font-size="41px"
       transform="translate(1220.31,482)"
       id="text7">GSL</text><text
       font-family="Arial, Arial_MSFontService, sans-serif"
       font-weight="400"
       font-size="41px"
       transform="translate(1106.19,482)"
       id="text8">DSL</text><text
       font-family="Arial, Arial_MSFontService, sans-serif"
       font-weight="400"
       font-size="41px"
       transform="translate(280.729,482)"
       id="text9">OIL</text><text
       font-family="Arial, Arial_MSFontService, sans-serif"
       font-weight="400"
       font-size="41px"
       transform="translate(526.029,670)"
       id="text10">Refinery </text><text
       font-family="Arial, Arial_MSFontService, sans-serif"
       font-weight="400"
       font-size="41px"
       transform="translate(560.404,724)"
       id="text11">SRE</text><text
       font-family="Arial, Arial_MSFontService, sans-serif"
       font-style="italic"
       font-weight="400"
       font-size="41px"
       transform="translate(1302.12,657)"
       id="text12">All commodities </text><text
       font-family="Arial, Arial_MSFontService, sans-serif"
       font-style="italic"
       font-weight="400"
       font-size="41px"
       transform="translate(1302.12,710)"
       id="text13">in PJ </text><text
       font-family="Arial, Arial_MSFontService, sans-serif"
       font-style="italic"
       font-weight="400"
       font-size="41px"
       transform="translate(453.75,534)"
       id="text14">Activity in PJ</text><text
       fill="#333399"
       font-family="Arial, Arial_MSFontService, sans-serif"
       font-style="italic"
       font-weight="400"
       font-size="41px"
       transform="translate(765.829,449)"
       id="text15">Commodity group </text><text
       fill="#333399"
       font-family="Arial, Arial_MSFontService, sans-serif"
       font-style="italic"
       font-weight="400"
       font-size="41px"
       transform="translate(843.746,502)"
       id="text16">CG_SRE</text><path
       d="m 918.603,514.5 5.609,5.963 5.375,5.962 2.571,2.981 2.57,3.211 2.571,2.981 2.337,3.21 2.337,3.44 2.337,3.211 2.103,3.44 1.87,3.44 1.635,3.439 1.636,3.67 1.402,3.669 1.403,3.898 0.467,1.835 0.467,2.293 0.468,2.064 0.233,2.293 0.234,2.293 0.234,2.294 0.234,4.815 0.233,5.046 v 5.045 l -0.233,5.274 -0.234,5.045 -0.234,5.045 -0.234,4.587 -0.233,2.522 -0.234,2.064 -0.234,2.293 -0.233,2.064 -0.234,4.128 -2.804,-0.229 0.233,-4.128 0.234,-2.064 v -2.293 l 0.234,-2.064 0.233,-2.293 0.234,-4.816 0.468,-5.045 0.233,-4.816 v -5.274 -4.816 -5.045 l -0.233,-4.816 -0.234,-2.293 -0.234,-2.064 -0.467,-2.293 -0.234,-2.064 -0.467,-1.835 -0.468,-2.064 -1.168,-3.669 -1.402,-3.44 -1.636,-3.44 -1.636,-3.44 -1.87,-3.439 -2.103,-3.211 -2.103,-3.21 -2.337,-3.211 -2.337,-3.211 -2.571,-2.981 -2.337,-2.981 -2.804,-3.21 -5.375,-5.963 -5.375,-5.962 z m 40.897,110.993 -6.777,11.007 -4.908,-11.695 z"
       stroke="#000000"
       stroke-width="0.229167"
       stroke-linejoin="bevel"
       stroke-miterlimit="10"
       fill-rule="evenodd"
       id="path16" /><path
       d="m 935.879,514.5 11.26,4.813 11.26,5.041 11.26,4.813 11.03,5.041 5.285,2.521 5.515,2.521 5.285,2.521 5.056,2.521 5.06,2.521 5.05,2.52 4.83,2.75 4.82,2.521 4.6,2.75 4.59,2.521 4.37,2.75 4.14,2.75 4.13,2.979 3.91,2.75 3.68,2.75 3.44,2.979 3.45,2.98 2.99,2.979 2.98,2.979 2.76,2.979 2.53,3.208 2.3,3.209 2.07,3.208 1.83,3.208 0.69,1.834 0.92,1.833 0.46,1.833 0.46,1.834 0.46,1.833 0.46,1.833 0.23,2.063 0.23,1.833 v 2.063 l 0.23,2.062 -0.23,2.063 v 2.062 l -0.46,4.354 -0.69,4.125 -0.69,4.355 -1.15,4.583 -1.15,4.354 -1.6,4.583 -1.38,4.355 -1.84,4.583 -1.84,4.583 -1.84,4.354 -1.84,4.355 -2.07,4.354 -2.06,4.125 -1.84,4.354 -2.07,3.896 -2.07,4.125 -1.84,3.666 -1.83,3.667 -1.84,3.667 -1.61,3.208 -1.61,3.208 -2.07,4.355 -2.53,-0.917 2.07,-4.813 1.38,-2.979 1.84,-3.437 1.61,-3.438 2.07,-3.666 1.83,-3.896 2.07,-3.896 1.84,-4.125 2.07,-4.125 2.07,-4.125 1.84,-4.354 2.06,-4.354 1.84,-4.355 1.84,-4.354 1.61,-4.583 1.38,-4.354 1.38,-4.354 1.38,-4.355 0.91,-4.354 0.92,-4.125 0.69,-4.354 0.23,-4.125 0.23,-1.833 v -2.063 -1.833 l -0.23,-1.833 v -2.063 l -0.46,-1.833 -0.23,-1.604 -0.46,-1.834 -0.46,-1.604 -0.46,-1.833 -0.68,-1.604 -0.69,-1.605 -1.84,-2.979 -1.84,-3.208 -2.3,-2.979 -2.3,-2.979 -2.75,-2.98 -2.76,-2.979 -2.99,-2.979 -3.45,-2.75 -3.44,-2.979 -3.68,-2.75 -3.68,-2.75 -4.13,-2.75 -4.14,-2.75 -4.36,-2.75 -4.37,-2.521 -4.6,-2.75 -4.82,-2.521 -4.83,-2.75 -4.82,-2.521 -5.06,-2.52 -5.285,-2.521 -5.285,-2.521 -5.285,-2.521 -5.285,-2.521 -11.03,-4.812 -11.26,-5.042 -11.26,-4.812 -11.49,-4.813 z m 113.291,200.521 -9.88,8.479 -0.92,-12.833 z"
       stroke="#000000"
       stroke-width="0.229167"
       stroke-linejoin="bevel"
       stroke-miterlimit="10"
       fill-rule="evenodd"
       id="path17" /><text
       fill="#003300"
       font-family="Arial, Arial_MSFontService, sans-serif"
       font-style="italic"
       font-weight="400"
       font-size="41px"
       transform="translate(280.729,399)"
       id="text17">Oil</text><text
       fill="#003300"
       font-family="Arial, Arial_MSFontService, sans-serif"
       font-style="italic"
       font-weight="400"
       font-size="41px"
       transform="translate(1025.06,347)"
       id="text18">Diesel</text><text
       fill="#003300"
       font-family="Arial, Arial_MSFontService, sans-serif"
       font-style="italic"
       font-weight="400"
       font-size="41px"
       transform="translate(1284.71,347)"
       id="text19">Gasoline</text><path
       d="m 1108,363 17.42,69.208"
       stroke="#000000"
       stroke-width="2.0625"
       stroke-linecap="round"
       stroke-linejoin="round"
       stroke-miterlimit="10"
       fill="none"
       fill-rule="evenodd"
       id="path19" /><path
       d="M 0,0 86.625,69.2083"
       stroke="#000000"
       stroke-width="2.0625"
       stroke-linecap="round"
       stroke-linejoin="round"
       stroke-miterlimit="10"
       fill="none"
       fill-rule="evenodd"
       transform="matrix(-1,0,0,1,1350.62,363)"
       id="path20" /><text
       fill="#333399"
       font-family="Arial, Arial_MSFontService, sans-serif"
       font-style="italic"
       font-weight="400"
       font-size="41px"
       transform="translate(592.167,1005)"
       id="text20">PRC_CAPUNT(r,p,cg,u) = {UTOPIA.SRE.CG_SRE.MTOE}</text><text
       fill="#333399"
       font-family="Arial, Arial_MSFontService, sans-serif"
       font-style="italic"
       font-weight="400"
       font-size="41px"
       transform="translate(592.167,1161)"
       id="text21">PRC_CAPACT </text><text
       fill="#333399"
       font-family="Arial, Arial_MSFontService, sans-serif"
       font-style="italic"
       font-weight="700"
       font-size="18px"
       transform="translate(881.031,1167)"
       id="text22">UTOPIA, SRE</text><text
       fill="#333399"
       font-family="Arial, Arial_MSFontService, sans-serif"
       font-style="italic"
       font-weight="400"
       font-size="41px"
       transform="translate(1005.84,1161)"
       id="text23">= 41.868</text><text
       fill="#003300"
       font-family="Arial, Arial_MSFontService, sans-serif"
       font-style="italic"
       font-weight="400"
       font-size="41px"
       transform="translate(245.896,972)"
       id="text24">Definition of </text><text
       fill="#003300"
       font-family="Arial, Arial_MSFontService, sans-serif"
       font-style="italic"
       font-weight="400"
       font-size="41px"
       transform="translate(245.896,1025)"
       id="text25">capacity unit </text><text
       fill="#003300"
       font-family="Arial, Arial_MSFontService, sans-serif"
       font-style="italic"
       font-weight="400"
       font-size="41px"
       transform="translate(149.417,1124)"
       id="text26">Conversion factor from </text><text
       fill="#003300"
       font-family="Arial, Arial_MSFontService, sans-serif"
       font-style="italic"
       font-weight="400"
       font-size="41px"
       transform="translate(149.417,1177)"
       id="text27">capacity to activity unit</text><text
       font-family="Arial, Arial_MSFontService, sans-serif"
       font-style="italic"
       font-weight="400"
       font-size="41px"
       transform="translate(453.75,830)"
       id="text28">Capacity in </text><text
       font-family="Arial, Arial_MSFontService, sans-serif"
       font-style="italic"
       font-weight="400"
       font-size="41px"
       transform="translate(453.75,883)"
       id="text29">mtoe/a</text></g></svg>
