<?xml version="1.0" encoding="UTF-8" standalone="no"?>
<svg
   width="1687.6044"
   height="903.13892"
   xml:space="preserve"
   overflow="hidden"
   version="1.1"
   id="svg107"
   xmlns:xlink="http://www.w3.org/1999/xlink"
   xmlns="http://www.w3.org/2000/svg"
   xmlns:svg="http://www.w3.org/2000/svg"><defs
     id="defs1"><pattern
       xlink:href="#pattern129"
       preserveAspectRatio="xMidYMid"
       id="pattern145"
       patternTransform="scale(5)"
       x="0"
       y="0" /><pattern
       xlink:href="#pattern129"
       preserveAspectRatio="xMidYMid"
       id="pattern144"
       patternTransform="scale(5)"
       x="0"
       y="0" /><pattern
       xlink:href="#pattern129"
       preserveAspectRatio="xMidYMid"
       id="pattern143"
       patternTransform="scale(5)"
       x="0"
       y="0" /><pattern
       xlink:href="#pattern129"
       preserveAspectRatio="xMidYMid"
       id="pattern142"
       patternTransform="scale(5)"
       x="0"
       y="0" /><pattern
       xlink:href="#pattern129"
       preserveAspectRatio="xMidYMid"
       id="pattern141"
       patternTransform="scale(5)"
       x="0"
       y="0" /><pattern
       xlink:href="#pattern129"
       preserveAspectRatio="xMidYMid"
       id="pattern140"
       patternTransform="scale(5)"
       x="0"
       y="0" /><pattern
       xlink:href="#pattern129"
       preserveAspectRatio="xMidYMid"
       id="pattern139"
       patternTransform="scale(5)"
       x="0"
       y="0" /><pattern
       xlink:href="#pattern129"
       preserveAspectRatio="xMidYMid"
       id="pattern138"
       patternTransform="scale(5)"
       x="0"
       y="0" /><pattern
       xlink:href="#pattern129"
       preserveAspectRatio="xMidYMid"
       id="pattern137"
       patternTransform="scale(5)"
       x="0"
       y="0" /><pattern
       xlink:href="#pattern129"
       preserveAspectRatio="xMidYMid"
       id="pattern136"
       patternTransform="scale(5)"
       x="0"
       y="0" /><pattern
       xlink:href="#pattern129"
       preserveAspectRatio="xMidYMid"
       id="pattern135"
       patternTransform="scale(5)"
       x="0"
       y="0" /><pattern
       xlink:href="#pattern129"
       preserveAspectRatio="xMidYMid"
       id="pattern134"
       patternTransform="scale(5)"
       x="0"
       y="0" /><pattern
       xlink:href="#pattern129"
       preserveAspectRatio="xMidYMid"
       id="pattern133"
       patternTransform="scale(5)"
       x="0"
       y="0" /><pattern
       xlink:href="#pattern129"
       preserveAspectRatio="xMidYMid"
       id="pattern132"
       patternTransform="scale(5)"
       x="0"
       y="0" /><pattern
       xlink:href="#pattern129"
       preserveAspectRatio="xMidYMid"
       id="pattern131"
       patternTransform="scale(5)"
       x="0"
       y="0" /><pattern
       xlink:href="#pattern129"
       preserveAspectRatio="xMidYMid"
       id="pattern130"
       patternTransform="scale(5)"
       x="0"
       y="0" /><pattern
       style="fill:#000000"
       patternUnits="userSpaceOnUse"
       width="2"
       height="2"
       patternTransform="translate(0,0) scale(10,10)"
       id="pattern129"
       preserveAspectRatio="xMidYMid">
      <rect
   style="stroke:none"
   x="0"
   y="0"
   width="1"
   height="1"
   id="rect128" />
      <rect
   style="stroke:none"
   x="1"
   y="1"
   width="1"
   height="1"
   id="rect129" />
    </pattern><pattern
       xlink:href="#Checkerboard"
       preserveAspectRatio="xMidYMid"
       id="pattern127"
       patternTransform="scale(5)"
       x="0"
       y="0" /><pattern
       style="fill:#000000"
       patternUnits="userSpaceOnUse"
       width="2"
       height="2"
       patternTransform="translate(0,0) scale(10,10)"
       id="Checkerboard"
       preserveAspectRatio="xMidYMid">
      <rect
   style="stroke:none"
   x="0"
   y="0"
   width="1"
   height="1"
   id="rect209" />
      <rect
   style="stroke:none"
   x="1"
   y="1"
   width="1"
   height="1"
   id="rect211" />
    </pattern><pattern
       xlink:href="#pattern116"
       preserveAspectRatio="xMidYMid"
       id="pattern125"
       patternTransform="matrix(3.5355339,3.5355339,-3.5355339,3.5355339,0,0)"
       x="0"
       y="0" /><pattern
       xlink:href="#pattern116"
       preserveAspectRatio="xMidYMid"
       id="pattern124"
       patternTransform="matrix(3.5355339,3.5355339,-3.5355339,3.5355339,0,0)"
       x="0"
       y="0" /><pattern
       xlink:href="#pattern116"
       preserveAspectRatio="xMidYMid"
       id="pattern123"
       patternTransform="matrix(3.5355339,3.5355339,-3.5355339,3.5355339,0,0)"
       x="0"
       y="0" /><pattern
       xlink:href="#pattern116"
       preserveAspectRatio="xMidYMid"
       id="pattern122"
       patternTransform="matrix(3.5355339,3.5355339,-3.5355339,3.5355339,0,0)"
       x="0"
       y="0" /><pattern
       xlink:href="#pattern116"
       preserveAspectRatio="xMidYMid"
       id="pattern121"
       patternTransform="matrix(3.5355339,3.5355339,-3.5355339,3.5355339,0,0)"
       x="0"
       y="0" /><pattern
       xlink:href="#pattern116"
       preserveAspectRatio="xMidYMid"
       id="pattern120"
       patternTransform="matrix(3.5355339,3.5355339,-3.5355339,3.5355339,0,0)"
       x="0"
       y="0" /><pattern
       xlink:href="#pattern116"
       preserveAspectRatio="xMidYMid"
       id="pattern119"
       patternTransform="matrix(3.5355339,3.5355339,-3.5355339,3.5355339,0,0)"
       x="0"
       y="0" /><pattern
       xlink:href="#pattern116"
       preserveAspectRatio="xMidYMid"
       id="pattern118"
       patternTransform="matrix(3.5355339,3.5355339,-3.5355339,3.5355339,0,0)"
       x="0"
       y="0" /><pattern
       xlink:href="#pattern116"
       preserveAspectRatio="xMidYMid"
       id="pattern117"
       patternTransform="matrix(3.5355339,3.5355339,-3.5355339,3.5355339,0,0)"
       x="0"
       y="0" /><pattern
       patternUnits="userSpaceOnUse"
       width="2.5"
       height="1"
       patternTransform="translate(0,0) scale(2,2)"
       preserveAspectRatio="xMidYMid"
       id="pattern116"
       style="fill:#000000">
      <rect
   style="stroke:none"
   x="0"
   y="-0.5"
   width="1"
   height="2"
   id="rect115" />
    </pattern><clipPath
       id="clip0"><rect
         x="-1"
         y="-1"
         width="2006"
         height="1308"
         id="rect1" /></clipPath></defs><g
     clip-path="url(#clip0)"
     transform="translate(-176.72609,-75.43791)"
     id="g107"><rect
       x="177.5992"
       y="76.31102"
       width="1685.8582"
       height="901.3927"
       stroke="#000000"
       stroke-width="1.74622"
       stroke-miterlimit="8"
       fill="none"
       id="rect2" /><path
       d="M 371,888 H 1573.21"
       stroke="#000000"
       stroke-width="4.125"
       stroke-linejoin="round"
       stroke-miterlimit="10"
       fill="none"
       fill-rule="evenodd"
       id="path3" /><rect
       x="521.5"
       y="816.5"
       width="83.000198"
       height="72.000198"
       stroke="#000000"
       stroke-width="3.4375"
       stroke-linecap="round"
       stroke-miterlimit="8"
       fill="none"
       id="rect5"
       style="fill:url(#pattern121);fill-opacity:1" /><rect
       x="604.5"
       y="816.5"
       width="83.999901"
       height="72.000198"
       stroke="#000000"
       stroke-width="3.4375"
       stroke-linecap="round"
       stroke-miterlimit="8"
       fill="none"
       id="rect7"
       style="fill:url(#pattern133);fill-opacity:1" /><rect
       x="688.5"
       y="816.5"
       width="82.999802"
       height="72.000198"
       stroke="#000000"
       stroke-width="3.4375"
       stroke-linecap="round"
       stroke-miterlimit="8"
       fill="none"
       id="rect9"
       style="fill:url(#pattern137);fill-opacity:1" /><rect
       x="604.5"
       y="743.5"
       width="83.999901"
       height="72.999901"
       stroke="#000000"
       stroke-width="3.4375"
       stroke-linecap="round"
       stroke-miterlimit="8"
       fill="none"
       id="rect11"
       style="fill:url(#pattern120);fill-opacity:1" /><rect
       x="688.5"
       y="743.5"
       width="82.999802"
       height="72.999901"
       stroke="#000000"
       stroke-width="3.4375"
       stroke-linecap="round"
       stroke-miterlimit="8"
       fill="none"
       id="rect56"
       style="fill:url(#pattern132);fill-opacity:1" /><rect
       x="771.5"
       y="743.5"
       width="84.000198"
       height="72.999901"
       stroke="#000000"
       stroke-width="3.4375"
       stroke-linecap="round"
       stroke-miterlimit="8"
       fill="none"
       id="rect14"
       style="fill:url(#pattern136);fill-opacity:1" /><rect
       x="688.5"
       y="671.5"
       width="82.999802"
       height="72.000198"
       stroke="#000000"
       stroke-width="3.4375"
       stroke-linecap="round"
       stroke-miterlimit="8"
       fill="none"
       id="rect16"
       style="fill:url(#pattern119);fill-opacity:1" /><rect
       x="771.5"
       y="671.5"
       width="84.000198"
       height="72.000198"
       stroke="#000000"
       stroke-width="3.4375"
       stroke-linecap="round"
       stroke-miterlimit="8"
       fill="none"
       id="rect18"
       style="fill:url(#pattern131);fill-opacity:1" /><rect
       x="855.5"
       y="671.5"
       width="82.999802"
       height="72.000198"
       stroke="#000000"
       stroke-width="3.4375"
       stroke-linecap="round"
       stroke-miterlimit="8"
       fill="none"
       id="rect20"
       style="fill:url(#pattern135);fill-opacity:1" /><rect
       x="771.5"
       y="598.5"
       width="84.000198"
       height="72.999901"
       stroke="#000000"
       stroke-width="3.4375"
       stroke-linecap="round"
       stroke-miterlimit="8"
       fill="none"
       id="rect22"
       style="fill:url(#pattern118);fill-opacity:1" /><rect
       x="855.5"
       y="598.5"
       width="82.999802"
       height="72.999901"
       stroke="#000000"
       stroke-width="3.4375"
       stroke-linecap="round"
       stroke-miterlimit="8"
       fill="none"
       id="rect24"
       style="fill:url(#pattern130);fill-opacity:1" /><rect
       x="938.5"
       y="598.5"
       width="84.000198"
       height="72.999901"
       stroke="#000000"
       stroke-width="3.4375"
       stroke-linecap="round"
       stroke-miterlimit="8"
       fill="none"
       id="rect26"
       style="fill:url(#pattern134);fill-opacity:1" /><path
       d="M 0,0 3.60892e-4,522.271"
       stroke="#000000"
       stroke-width="4.125"
       stroke-linejoin="round"
       stroke-miterlimit="10"
       fill="none"
       fill-rule="evenodd"
       transform="matrix(1,0,0,-1,521,947.271)"
       id="path26" /><path
       d="M 1606,425 V 947.271"
       stroke="#000000"
       stroke-width="4.125"
       stroke-linejoin="round"
       stroke-miterlimit="10"
       fill="none"
       fill-rule="evenodd"
       id="path27" /><path
       d="m 529.846,481 v 0 c 0.835,0 1.669,0.75 1.669,1.5 0,0.937 -0.834,1.5 -1.669,1.5 v 0 c -1.043,0 -1.669,-0.563 -1.669,-1.5 0,-0.75 0.626,-1.5 1.669,-1.5 z m 6.677,0 v 0 c 0.835,0 1.669,0.75 1.669,1.5 0,0.937 -0.834,1.5 -1.669,1.5 v 0 c -1.043,0 -1.669,-0.563 -1.669,-1.5 0,-0.75 0.626,-1.5 1.669,-1.5 z m 6.677,0 v 0 c 0.835,0 1.669,0.75 1.669,1.5 0,0.937 -0.834,1.5 -1.669,1.5 v 0 c -1.043,0 -1.669,-0.563 -1.669,-1.5 0,-0.75 0.626,-1.5 1.669,-1.5 z m 6.677,0 v 0 c 0.834,0 1.669,0.75 1.669,1.5 0,0.937 -0.835,1.5 -1.669,1.5 v 0 c -1.043,0 -1.669,-0.563 -1.669,-1.5 0,-0.75 0.626,-1.5 1.669,-1.5 z m 6.677,0 v 0 c 0.834,0 1.669,0.75 1.669,1.5 0,0.937 -0.835,1.5 -1.669,1.5 v 0 c -1.044,0 -1.669,-0.563 -1.669,-1.5 0,-0.75 0.625,-1.5 1.669,-1.5 z m 6.677,0 v 0 c 0.834,0 1.669,0.75 1.669,1.5 0,0.937 -0.835,1.5 -1.669,1.5 v 0 c -1.044,0 -1.67,-0.563 -1.67,-1.5 0,-0.75 0.626,-1.5 1.67,-1.5 z m 6.677,0 v 0 c 0.834,0 1.669,0.75 1.669,1.5 0,0.937 -0.835,1.5 -1.669,1.5 v 0 c -0.835,0 -1.67,-0.563 -1.67,-1.5 0,-0.75 0.835,-1.5 1.67,-1.5 z m 6.677,0 v 0 c 0.834,0 1.669,0.75 1.669,1.5 0,0.937 -0.835,1.5 -1.669,1.5 v 0 c -0.835,0 -1.67,-0.563 -1.67,-1.5 0,-0.75 0.835,-1.5 1.67,-1.5 z m 6.676,0 v 0 c 0.835,0 1.67,0.75 1.67,1.5 0,0.937 -0.835,1.5 -1.67,1.5 v 0 c -0.834,0 -1.669,-0.563 -1.669,-1.5 0,-0.75 0.835,-1.5 1.669,-1.5 z m 6.677,0 v 0 c 0.835,0 1.67,0.75 1.67,1.5 0,0.937 -0.835,1.5 -1.67,1.5 v 0 c -0.834,0 -1.669,-0.563 -1.669,-1.5 0,-0.75 0.835,-1.5 1.669,-1.5 z m 6.677,0 v 0 c 0.835,0 1.67,0.75 1.67,1.5 0,0.937 -0.835,1.5 -1.67,1.5 v 0 c -0.834,0 -1.669,-0.563 -1.669,-1.5 0,-0.75 0.835,-1.5 1.669,-1.5 z m 6.677,0 v 0 c 0.835,0 1.669,0.75 1.669,1.5 0,0.937 -0.834,1.5 -1.669,1.5 v 0 c -0.834,0 -1.669,-0.563 -1.669,-1.5 0,-0.75 0.835,-1.5 1.669,-1.5 z m 6.677,0 v 0 c 0.835,0 1.669,0.75 1.669,1.5 0,0.937 -0.834,1.5 -1.669,1.5 v 0 c -0.834,0 -1.669,-0.563 -1.669,-1.5 0,-0.75 0.835,-1.5 1.669,-1.5 z m 6.677,0 v 0 c 0.835,0 1.669,0.75 1.669,1.5 0,0.937 -0.834,1.5 -1.669,1.5 v 0 c -0.835,0 -1.669,-0.563 -1.669,-1.5 0,-0.75 0.834,-1.5 1.669,-1.5 z m 6.677,0 v 0 c 0.835,0 1.669,0.75 1.669,1.5 0,0.937 -0.834,1.5 -1.669,1.5 v 0 c -0.835,0 -1.669,-0.563 -1.669,-1.5 0,-0.75 0.834,-1.5 1.669,-1.5 z m 6.677,0 v 0 c 0.835,0 1.669,0.75 1.669,1.5 0,0.937 -0.834,1.5 -1.669,1.5 v 0 c -0.835,0 -1.669,-0.563 -1.669,-1.5 0,-0.75 0.834,-1.5 1.669,-1.5 z m 6.677,0 v 0 c 1.043,0 1.669,0.75 1.669,1.5 0,0.937 -0.626,1.5 -1.669,1.5 v 0 c -0.835,0 -1.669,-0.563 -1.669,-1.5 0,-0.75 0.834,-1.5 1.669,-1.5 z m 6.677,0 v 0 c 1.043,0 1.669,0.75 1.669,1.5 0,0.937 -0.626,1.5 -1.669,1.5 v 0 c -0.835,0 -1.669,-0.563 -1.669,-1.5 0,-0.75 0.834,-1.5 1.669,-1.5 z m 6.677,0 v 0 c 1.043,0 1.669,0.75 1.669,1.5 0,0.937 -0.626,1.5 -1.669,1.5 v 0 c -0.835,0 -1.67,-0.563 -1.67,-1.5 0,-0.75 0.835,-1.5 1.67,-1.5 z m 6.677,0 v 0 c 1.043,0 1.669,0.75 1.669,1.5 0,0.937 -0.626,1.5 -1.669,1.5 v 0 c -0.835,0 -1.67,-0.563 -1.67,-1.5 0,-0.75 0.835,-1.5 1.67,-1.5 z m 6.677,0 v 0 c 1.043,0 1.669,0.75 1.669,1.5 0,0.937 -0.626,1.5 -1.669,1.5 v 0 c -0.835,0 -1.67,-0.563 -1.67,-1.5 0,-0.75 0.835,-1.5 1.67,-1.5 z m 6.676,0 v 0 c 1.044,0 1.67,0.75 1.67,1.5 0,0.937 -0.626,1.5 -1.67,1.5 v 0 c -0.834,0 -1.669,-0.563 -1.669,-1.5 0,-0.75 0.835,-1.5 1.669,-1.5 z m 6.677,0 v 0 c 1.044,0 1.67,0.75 1.67,1.5 0,0.937 -0.626,1.5 -1.67,1.5 v 0 c -0.834,0 -1.669,-0.563 -1.669,-1.5 0,-0.75 0.835,-1.5 1.669,-1.5 z m 6.677,0 v 0 c 1.044,0 1.67,0.75 1.67,1.5 0,0.937 -0.626,1.5 -1.67,1.5 v 0 c -0.834,0 -1.669,-0.563 -1.669,-1.5 0,-0.75 0.835,-1.5 1.669,-1.5 z m 6.677,0 v 0 c 1.043,0 1.669,0.75 1.669,1.5 0,0.937 -0.626,1.5 -1.669,1.5 v 0 c -0.834,0 -1.669,-0.563 -1.669,-1.5 0,-0.75 0.835,-1.5 1.669,-1.5 z m 6.677,0 v 0 c 1.043,0 1.669,0.75 1.669,1.5 0,0.937 -0.626,1.5 -1.669,1.5 v 0 c -0.834,0 -1.669,-0.563 -1.669,-1.5 0,-0.75 0.835,-1.5 1.669,-1.5 z m 6.677,0 v 0 c 1.043,0 1.669,0.75 1.669,1.5 0,0.937 -0.626,1.5 -1.669,1.5 v 0 c -0.835,0 -1.669,-0.563 -1.669,-1.5 0,-0.75 0.834,-1.5 1.669,-1.5 z m 6.677,0 v 0 c 1.043,0 1.669,0.75 1.669,1.5 0,0.937 -0.626,1.5 -1.669,1.5 v 0 c -0.835,0 -1.669,-0.563 -1.669,-1.5 0,-0.75 0.834,-1.5 1.669,-1.5 z m 6.677,0 v 0 c 1.043,0 1.669,0.75 1.669,1.5 0,0.937 -0.626,1.5 -1.669,1.5 v 0 c -0.835,0 -1.669,-0.563 -1.669,-1.5 0,-0.75 0.834,-1.5 1.669,-1.5 z m 6.677,0 v 0 c 1.043,0 1.669,0.75 1.669,1.5 0,0.937 -0.626,1.5 -1.669,1.5 v 0 c -0.835,0 -1.669,-0.563 -1.669,-1.5 0,-0.75 0.834,-1.5 1.669,-1.5 z m 6.677,0 v 0 c 1.043,0 1.669,0.75 1.669,1.5 0,0.937 -0.626,1.5 -1.669,1.5 v 0 c -0.835,0 -1.67,-0.563 -1.67,-1.5 0,-0.75 0.835,-1.5 1.67,-1.5 z m 6.677,0 v 0 c 1.043,0 1.669,0.75 1.669,1.5 0,0.937 -0.626,1.5 -1.669,1.5 v 0 c -0.835,0 -1.67,-0.563 -1.67,-1.5 0,-0.75 0.835,-1.5 1.67,-1.5 z m 6.677,0 v 0 c 1.043,0 1.669,0.75 1.669,1.5 0,0.937 -0.626,1.5 -1.669,1.5 v 0 c -0.835,0 -1.67,-0.563 -1.67,-1.5 0,-0.75 0.835,-1.5 1.67,-1.5 z m 6.677,0 v 0 c 1.043,0 1.669,0.75 1.669,1.5 0,0.937 -0.626,1.5 -1.669,1.5 v 0 c -0.835,0 -1.67,-0.563 -1.67,-1.5 0,-0.75 0.835,-1.5 1.67,-1.5 z m 6.676,0 v 0 c 1.044,0 1.67,0.75 1.67,1.5 0,0.937 -0.626,1.5 -1.67,1.5 v 0 c -0.834,0 -1.669,-0.563 -1.669,-1.5 0,-0.75 0.835,-1.5 1.669,-1.5 z m 6.677,0 v 0 c 1.044,0 1.67,0.75 1.67,1.5 0,0.937 -0.626,1.5 -1.67,1.5 v 0 c -0.834,0 -1.669,-0.563 -1.669,-1.5 0,-0.75 0.835,-1.5 1.669,-1.5 z m 6.677,0 v 0 c 1.044,0 1.67,0.75 1.67,1.5 0,0.937 -0.626,1.5 -1.67,1.5 v 0 c -0.834,0 -1.669,-0.563 -1.669,-1.5 0,-0.75 0.835,-1.5 1.669,-1.5 z m 6.677,0 v 0 c 1.043,0 1.669,0.75 1.669,1.5 0,0.937 -0.626,1.5 -1.669,1.5 v 0 c -0.834,0 -1.669,-0.563 -1.669,-1.5 0,-0.75 0.835,-1.5 1.669,-1.5 z m 6.677,0 v 0 c 1.043,0 1.669,0.75 1.669,1.5 0,0.937 -0.626,1.5 -1.669,1.5 v 0 c -0.835,0 -1.669,-0.563 -1.669,-1.5 0,-0.75 0.834,-1.5 1.669,-1.5 z m 6.677,0 v 0 c 1.043,0 1.669,0.75 1.669,1.5 0,0.937 -0.626,1.5 -1.669,1.5 v 0 c -0.835,0 -1.669,-0.563 -1.669,-1.5 0,-0.75 0.834,-1.5 1.669,-1.5 z m 6.677,0 v 0 c 1.043,0 1.669,0.75 1.669,1.5 0,0.937 -0.626,1.5 -1.669,1.5 v 0 c -0.835,0 -1.669,-0.563 -1.669,-1.5 0,-0.75 0.834,-1.5 1.669,-1.5 z m 6.677,0 v 0 c 1.043,0 1.669,0.75 1.669,1.5 0,0.937 -0.626,1.5 -1.669,1.5 v 0 c -0.835,0 -1.669,-0.563 -1.669,-1.5 0,-0.75 0.834,-1.5 1.669,-1.5 z m 6.677,0 h 0.208 c 0.835,0 1.67,0.75 1.67,1.5 0,0.937 -0.835,1.5 -1.67,1.5 h -0.208 c -0.835,0 -1.669,-0.563 -1.669,-1.5 0,-0.75 0.834,-1.5 1.669,-1.5 z m 6.885,0 v 0 c 0.835,0 1.67,0.75 1.67,1.5 0,0.937 -0.835,1.5 -1.67,1.5 v 0 c -1.043,0 -1.669,-0.563 -1.669,-1.5 0,-0.75 0.626,-1.5 1.669,-1.5 z m 6.677,0 v 0 c 0.835,0 1.67,0.75 1.67,1.5 0,0.937 -0.835,1.5 -1.67,1.5 v 0 c -1.043,0 -1.669,-0.563 -1.669,-1.5 0,-0.75 0.626,-1.5 1.669,-1.5 z m 6.677,0 v 0 c 0.835,0 1.669,0.75 1.669,1.5 0,0.937 -0.834,1.5 -1.669,1.5 v 0 c -1.043,0 -1.669,-0.563 -1.669,-1.5 0,-0.75 0.626,-1.5 1.669,-1.5 z m 6.677,0 v 0 c 0.835,0 1.669,0.75 1.669,1.5 0,0.937 -0.834,1.5 -1.669,1.5 v 0 c -1.043,0 -1.669,-0.563 -1.669,-1.5 0,-0.75 0.626,-1.5 1.669,-1.5 z m 6.677,0 v 0 c 0.835,0 1.669,0.75 1.669,1.5 0,0.937 -0.834,1.5 -1.669,1.5 v 0 c -1.043,0 -1.669,-0.563 -1.669,-1.5 0,-0.75 0.626,-1.5 1.669,-1.5 z m 6.677,0 v 0 c 0.835,0 1.669,0.75 1.669,1.5 0,0.937 -0.834,1.5 -1.669,1.5 v 0 c -1.043,0 -1.669,-0.563 -1.669,-1.5 0,-0.75 0.626,-1.5 1.669,-1.5 z m 6.677,0 v 0 c 0.835,0 1.669,0.75 1.669,1.5 0,0.937 -0.834,1.5 -1.669,1.5 v 0 c -1.043,0 -1.669,-0.563 -1.669,-1.5 0,-0.75 0.626,-1.5 1.669,-1.5 z m 6.677,0 v 0 c 0.834,0 1.669,0.75 1.669,1.5 0,0.937 -0.835,1.5 -1.669,1.5 v 0 c -1.043,0 -1.669,-0.563 -1.669,-1.5 0,-0.75 0.626,-1.5 1.669,-1.5 z m 6.677,0 v 0 c 0.834,0 1.669,0.75 1.669,1.5 0,0.937 -0.835,1.5 -1.669,1.5 v 0 c -1.043,0 -1.669,-0.563 -1.669,-1.5 0,-0.75 0.626,-1.5 1.669,-1.5 z m 6.677,0 v 0 c 0.834,0 1.669,0.75 1.669,1.5 0,0.937 -0.835,1.5 -1.669,1.5 v 0 c -1.044,0 -1.67,-0.563 -1.67,-1.5 0,-0.75 0.626,-1.5 1.67,-1.5 z m 6.677,0 v 0 c 0.834,0 1.669,0.75 1.669,1.5 0,0.937 -0.835,1.5 -1.669,1.5 v 0 c -1.044,0 -1.67,-0.563 -1.67,-1.5 0,-0.75 0.626,-1.5 1.67,-1.5 z m 6.677,0 v 0 c 0.834,0 1.669,0.75 1.669,1.5 0,0.937 -0.835,1.5 -1.669,1.5 v 0 c -1.044,0 -1.67,-0.563 -1.67,-1.5 0,-0.75 0.626,-1.5 1.67,-1.5 z m 6.676,0 v 0 c 0.835,0 1.67,0.75 1.67,1.5 0,0.937 -0.835,1.5 -1.67,1.5 v 0 c -1.043,0 -1.669,-0.563 -1.669,-1.5 0,-0.75 0.626,-1.5 1.669,-1.5 z m 6.677,0 v 0 c 0.835,0 1.67,0.75 1.67,1.5 0,0.937 -0.835,1.5 -1.67,1.5 v 0 c -1.043,0 -1.669,-0.563 -1.669,-1.5 0,-0.75 0.626,-1.5 1.669,-1.5 z m 6.677,0 v 0 c 0.835,0 1.67,0.75 1.67,1.5 0,0.937 -0.835,1.5 -1.67,1.5 v 0 c -1.043,0 -1.669,-0.563 -1.669,-1.5 0,-0.75 0.626,-1.5 1.669,-1.5 z m 6.677,0 v 0 c 0.835,0 1.669,0.75 1.669,1.5 0,0.937 -0.834,1.5 -1.669,1.5 v 0 c -1.043,0 -1.669,-0.563 -1.669,-1.5 0,-0.75 0.626,-1.5 1.669,-1.5 z m 6.677,0 v 0 c 0.835,0 1.669,0.75 1.669,1.5 0,0.937 -0.834,1.5 -1.669,1.5 v 0 c -1.043,0 -1.669,-0.563 -1.669,-1.5 0,-0.75 0.626,-1.5 1.669,-1.5 z m 6.677,0 v 0 c 0.835,0 1.669,0.75 1.669,1.5 0,0.937 -0.834,1.5 -1.669,1.5 v 0 c -1.043,0 -1.669,-0.563 -1.669,-1.5 0,-0.75 0.626,-1.5 1.669,-1.5 z m 6.677,0 v 0 c 0.835,0 1.669,0.75 1.669,1.5 0,0.937 -0.834,1.5 -1.669,1.5 v 0 c -1.043,0 -1.669,-0.563 -1.669,-1.5 0,-0.75 0.626,-1.5 1.669,-1.5 z m 6.677,0 v 0 c 0.835,0 1.669,0.75 1.669,1.5 0,0.937 -0.834,1.5 -1.669,1.5 v 0 c -1.043,0 -1.669,-0.563 -1.669,-1.5 0,-0.75 0.626,-1.5 1.669,-1.5 z m 6.677,0 v 0 c 0.834,0 1.669,0.75 1.669,1.5 0,0.937 -0.835,1.5 -1.669,1.5 v 0 c -1.043,0 -1.669,-0.563 -1.669,-1.5 0,-0.75 0.626,-1.5 1.669,-1.5 z m 6.677,0 v 0 c 0.834,0 1.669,0.75 1.669,1.5 0,0.937 -0.835,1.5 -1.669,1.5 v 0 c -1.044,0 -1.67,-0.563 -1.67,-1.5 0,-0.75 0.626,-1.5 1.67,-1.5 z m 6.677,0 v 0 c 0.834,0 1.669,0.75 1.669,1.5 0,0.937 -0.835,1.5 -1.669,1.5 v 0 c -1.044,0 -1.67,-0.563 -1.67,-1.5 0,-0.75 0.626,-1.5 1.67,-1.5 z m 6.677,0 v 0 c 0.834,0 1.669,0.75 1.669,1.5 0,0.937 -0.835,1.5 -1.669,1.5 v 0 c -1.044,0 -1.67,-0.563 -1.67,-1.5 0,-0.75 0.626,-1.5 1.67,-1.5 z m 6.677,0 v 0 c 0.834,0 1.669,0.75 1.669,1.5 0,0.937 -0.835,1.5 -1.669,1.5 v 0 c -1.044,0 -1.67,-0.563 -1.67,-1.5 0,-0.75 0.626,-1.5 1.67,-1.5 z m 6.676,0 v 0 c 0.835,0 1.67,0.75 1.67,1.5 0,0.937 -0.835,1.5 -1.67,1.5 v 0 c -1.043,0 -1.669,-0.563 -1.669,-1.5 0,-0.75 0.626,-1.5 1.669,-1.5 z m 6.677,0 v 0 c 0.835,0 1.67,0.75 1.67,1.5 0,0.937 -0.835,1.5 -1.67,1.5 v 0 c -1.043,0 -1.669,-0.563 -1.669,-1.5 0,-0.75 0.626,-1.5 1.669,-1.5 z m 6.677,0 v 0 c 0.835,0 1.67,0.75 1.67,1.5 0,0.937 -0.835,1.5 -1.67,1.5 v 0 c -0.834,0 -1.669,-0.563 -1.669,-1.5 0,-0.75 0.835,-1.5 1.669,-1.5 z m 6.681,0 v 0 c 0.83,0 1.67,0.75 1.67,1.5 0,0.937 -0.84,1.5 -1.67,1.5 v 0 c -0.84,0 -1.67,-0.563 -1.67,-1.5 0,-0.75 0.83,-1.5 1.67,-1.5 z m 6.67,0 v 0 c 0.84,0 1.67,0.75 1.67,1.5 0,0.937 -0.83,1.5 -1.67,1.5 v 0 c -0.83,0 -1.67,-0.563 -1.67,-1.5 0,-0.75 0.84,-1.5 1.67,-1.5 z m 6.68,0 v 0 c 0.83,0 1.67,0.75 1.67,1.5 0,0.937 -0.84,1.5 -1.67,1.5 v 0 c -0.83,0 -1.67,-0.563 -1.67,-1.5 0,-0.75 0.84,-1.5 1.67,-1.5 z m 6.68,0 v 0 c 0.83,0 1.67,0.75 1.67,1.5 0,0.937 -0.84,1.5 -1.67,1.5 v 0 c -0.84,0 -1.67,-0.563 -1.67,-1.5 0,-0.75 0.83,-1.5 1.67,-1.5 z m 6.67,0 v 0 c 0.84,0 1.67,0.75 1.67,1.5 0,0.937 -0.83,1.5 -1.67,1.5 v 0 c -0.83,0 -1.67,-0.563 -1.67,-1.5 0,-0.75 0.84,-1.5 1.67,-1.5 z m 6.68,0 v 0 c 0.84,0 1.67,0.75 1.67,1.5 0,0.937 -0.83,1.5 -1.67,1.5 v 0 c -0.83,0 -1.67,-0.563 -1.67,-1.5 0,-0.75 0.84,-1.5 1.67,-1.5 z m 6.68,0 v 0 c 0.83,0 1.67,0.75 1.67,1.5 0,0.937 -0.84,1.5 -1.67,1.5 v 0 c -0.84,0 -1.67,-0.563 -1.67,-1.5 0,-0.75 0.83,-1.5 1.67,-1.5 z m 6.67,0 v 0 c 0.84,0 1.67,0.75 1.67,1.5 0,0.937 -0.83,1.5 -1.67,1.5 v 0 c -0.83,0 -1.66,-0.563 -1.66,-1.5 0,-0.75 0.83,-1.5 1.66,-1.5 z m 6.68,0 v 0 c 1.04,0 1.67,0.75 1.67,1.5 0,0.937 -0.63,1.5 -1.67,1.5 v 0 c -0.83,0 -1.67,-0.563 -1.67,-1.5 0,-0.75 0.84,-1.5 1.67,-1.5 z m 6.68,0 v 0 c 1.04,0 1.67,0.75 1.67,1.5 0,0.937 -0.63,1.5 -1.67,1.5 v 0 c -0.84,0 -1.67,-0.563 -1.67,-1.5 0,-0.75 0.83,-1.5 1.67,-1.5 z m 6.68,0 v 0 c 1.04,0 1.66,0.75 1.66,1.5 0,0.937 -0.62,1.5 -1.66,1.5 v 0 c -0.84,0 -1.67,-0.563 -1.67,-1.5 0,-0.75 0.83,-1.5 1.67,-1.5 z m 6.67,0 v 0 c 1.05,0 1.67,0.75 1.67,1.5 0,0.937 -0.62,1.5 -1.67,1.5 v 0 c -0.83,0 -1.67,-0.563 -1.67,-1.5 0,-0.75 0.84,-1.5 1.67,-1.5 z m 6.68,0 v 0 c 1.04,0 1.67,0.75 1.67,1.5 0,0.937 -0.63,1.5 -1.67,1.5 v 0 c -0.84,0 -1.67,-0.563 -1.67,-1.5 0,-0.75 0.83,-1.5 1.67,-1.5 z m 6.68,0 v 0 c 1.04,0 1.67,0.75 1.67,1.5 0,0.937 -0.63,1.5 -1.67,1.5 v 0 c -0.84,0 -1.67,-0.563 -1.67,-1.5 0,-0.75 0.83,-1.5 1.67,-1.5 z m 6.67,0 v 0 c 1.05,0 1.67,0.75 1.67,1.5 0,0.937 -0.62,1.5 -1.67,1.5 v 0 c -0.83,0 -1.67,-0.563 -1.67,-1.5 0,-0.75 0.84,-1.5 1.67,-1.5 z m 6.68,0 v 0 c 1.04,0 1.67,0.75 1.67,1.5 0,0.937 -0.63,1.5 -1.67,1.5 v 0 c -0.83,0 -1.67,-0.563 -1.67,-1.5 0,-0.75 0.84,-1.5 1.67,-1.5 z m 6.68,0 v 0 c 1.04,0 1.67,0.75 1.67,1.5 0,0.937 -0.63,1.5 -1.67,1.5 v 0 c -0.84,0 -1.67,-0.563 -1.67,-1.5 0,-0.75 0.83,-1.5 1.67,-1.5 z m 6.67,0 v 0 c 1.05,0 1.67,0.75 1.67,1.5 0,0.937 -0.62,1.5 -1.67,1.5 v 0 c -0.83,0 -1.67,-0.563 -1.67,-1.5 0,-0.75 0.84,-1.5 1.67,-1.5 z m 6.68,0 v 0 c 1.04,0 1.67,0.75 1.67,1.5 0,0.937 -0.63,1.5 -1.67,1.5 v 0 c -0.83,0 -1.67,-0.563 -1.67,-1.5 0,-0.75 0.84,-1.5 1.67,-1.5 z m 6.68,0 v 0 c 1.04,0 1.67,0.75 1.67,1.5 0,0.937 -0.63,1.5 -1.67,1.5 v 0 c -0.84,0 -1.67,-0.563 -1.67,-1.5 0,-0.75 0.83,-1.5 1.67,-1.5 z m 6.67,0 v 0 c 1.05,0 1.67,0.75 1.67,1.5 0,0.937 -0.62,1.5 -1.67,1.5 v 0 c -0.83,0 -1.66,-0.563 -1.66,-1.5 0,-0.75 0.83,-1.5 1.66,-1.5 z m 6.68,0 v 0 c 1.04,0 1.67,0.75 1.67,1.5 0,0.937 -0.63,1.5 -1.67,1.5 v 0 c -0.83,0 -1.67,-0.563 -1.67,-1.5 0,-0.75 0.84,-1.5 1.67,-1.5 z m 6.68,0 v 0 c 1.04,0 1.67,0.75 1.67,1.5 0,0.937 -0.63,1.5 -1.67,1.5 v 0 c -0.84,0 -1.67,-0.563 -1.67,-1.5 0,-0.75 0.83,-1.5 1.67,-1.5 z m 6.68,0 v 0 c 1.04,0 1.66,0.75 1.66,1.5 0,0.937 -0.62,1.5 -1.66,1.5 v 0 c -0.84,0 -1.67,-0.563 -1.67,-1.5 0,-0.75 0.83,-1.5 1.67,-1.5 z m 6.67,0 v 0 c 1.05,0 1.67,0.75 1.67,1.5 0,0.937 -0.62,1.5 -1.67,1.5 v 0 c -0.83,0 -1.67,-0.563 -1.67,-1.5 0,-0.75 0.84,-1.5 1.67,-1.5 z m 6.68,0 v 0 c 1.04,0 1.67,0.75 1.67,1.5 0,0.937 -0.63,1.5 -1.67,1.5 v 0 c -0.84,0 -1.67,-0.563 -1.67,-1.5 0,-0.75 0.83,-1.5 1.67,-1.5 z m 6.68,0 v 0 c 1.04,0 1.67,0.75 1.67,1.5 0,0.937 -0.63,1.5 -1.67,1.5 v 0 c -0.84,0 -1.67,-0.563 -1.67,-1.5 0,-0.75 0.83,-1.5 1.67,-1.5 z m 6.67,0 v 0 c 1.05,0 1.67,0.75 1.67,1.5 0,0.937 -0.62,1.5 -1.67,1.5 v 0 c -0.83,0 -1.67,-0.563 -1.67,-1.5 0,-0.75 0.84,-1.5 1.67,-1.5 z m 6.68,0 v 0 c 1.04,0 1.67,0.75 1.67,1.5 0,0.937 -0.63,1.5 -1.67,1.5 v 0 c -0.83,0 -1.67,-0.563 -1.67,-1.5 0,-0.75 0.84,-1.5 1.67,-1.5 z m 6.68,0 v 0 c 1.04,0 1.67,0.75 1.67,1.5 0,0.937 -0.63,1.5 -1.67,1.5 v 0 c -0.84,0 -1.67,-0.563 -1.67,-1.5 0,-0.75 0.83,-1.5 1.67,-1.5 z m 6.67,0 v 0 c 1.05,0 1.67,0.75 1.67,1.5 0,0.937 -0.62,1.5 -1.67,1.5 v 0 c -0.83,0 -1.67,-0.563 -1.67,-1.5 0,-0.75 0.84,-1.5 1.67,-1.5 z m 6.68,0 v 0 c 1.04,0 1.67,0.75 1.67,1.5 0,0.937 -0.63,1.5 -1.67,1.5 v 0 c -0.83,0 -1.67,-0.563 -1.67,-1.5 0,-0.75 0.84,-1.5 1.67,-1.5 z m 6.68,0 v 0 c 1.04,0 1.67,0.75 1.67,1.5 0,0.937 -0.63,1.5 -1.67,1.5 v 0 c -0.84,0 -1.67,-0.563 -1.67,-1.5 0,-0.75 0.83,-1.5 1.67,-1.5 z m 6.67,0 v 0 c 1.05,0 1.67,0.75 1.67,1.5 0,0.937 -0.62,1.5 -1.67,1.5 v 0 c -0.83,0 -1.66,-0.563 -1.66,-1.5 0,-0.75 0.83,-1.5 1.66,-1.5 z m 6.68,0 v 0 c 1.04,0 1.67,0.75 1.67,1.5 0,0.937 -0.63,1.5 -1.67,1.5 v 0 c -0.83,0 -1.67,-0.563 -1.67,-1.5 0,-0.75 0.84,-1.5 1.67,-1.5 z m 6.68,0 h 0.21 c 0.83,0 1.67,0.75 1.67,1.5 0,0.937 -0.84,1.5 -1.67,1.5 h -0.21 c -0.84,0 -1.67,-0.563 -1.67,-1.5 0,-0.75 0.83,-1.5 1.67,-1.5 z m 6.88,0 v 0 c 0.84,0 1.67,0.75 1.67,1.5 0,0.937 -0.83,1.5 -1.67,1.5 v 0 c -1.04,0 -1.67,-0.563 -1.67,-1.5 0,-0.75 0.63,-1.5 1.67,-1.5 z m 6.68,0 v 0 c 0.84,0 1.67,0.75 1.67,1.5 0,0.937 -0.83,1.5 -1.67,1.5 v 0 c -1.04,0 -1.67,-0.563 -1.67,-1.5 0,-0.75 0.63,-1.5 1.67,-1.5 z m 6.68,0 v 0 c 0.83,0 1.67,0.75 1.67,1.5 0,0.937 -0.84,1.5 -1.67,1.5 v 0 c -1.05,0 -1.67,-0.563 -1.67,-1.5 0,-0.75 0.62,-1.5 1.67,-1.5 z m 6.67,0 v 0 c 0.84,0 1.67,0.75 1.67,1.5 0,0.937 -0.83,1.5 -1.67,1.5 v 0 c -1.04,0 -1.66,-0.563 -1.66,-1.5 0,-0.75 0.62,-1.5 1.66,-1.5 z m 6.68,0 v 0 c 0.84,0 1.67,0.75 1.67,1.5 0,0.937 -0.83,1.5 -1.67,1.5 v 0 c -1.04,0 -1.67,-0.563 -1.67,-1.5 0,-0.75 0.63,-1.5 1.67,-1.5 z m 6.68,0 v 0 c 0.83,0 1.67,0.75 1.67,1.5 0,0.937 -0.84,1.5 -1.67,1.5 v 0 c -1.04,0 -1.67,-0.563 -1.67,-1.5 0,-0.75 0.63,-1.5 1.67,-1.5 z m 6.68,0 v 0 c 0.83,0 1.66,0.75 1.66,1.5 0,0.937 -0.83,1.5 -1.66,1.5 v 0 c -1.05,0 -1.67,-0.563 -1.67,-1.5 0,-0.75 0.62,-1.5 1.67,-1.5 z m 6.67,0 v 0 c 0.84,0 1.67,0.75 1.67,1.5 0,0.937 -0.83,1.5 -1.67,1.5 v 0 c -1.04,0 -1.67,-0.563 -1.67,-1.5 0,-0.75 0.63,-1.5 1.67,-1.5 z m 6.68,0 v 0 c 0.83,0 1.67,0.75 1.67,1.5 0,0.937 -0.84,1.5 -1.67,1.5 v 0 c -1.04,0 -1.67,-0.563 -1.67,-1.5 0,-0.75 0.63,-1.5 1.67,-1.5 z m 6.68,0 v 0 c 0.83,0 1.67,0.75 1.67,1.5 0,0.937 -0.84,1.5 -1.67,1.5 v 0 c -1.05,0 -1.67,-0.563 -1.67,-1.5 0,-0.75 0.62,-1.5 1.67,-1.5 z m 6.67,0 v 0 c 0.84,0 1.67,0.75 1.67,1.5 0,0.937 -0.83,1.5 -1.67,1.5 v 0 c -1.04,0 -1.67,-0.563 -1.67,-1.5 0,-0.75 0.63,-1.5 1.67,-1.5 z m 6.68,0 v 0 c 0.83,0 1.67,0.75 1.67,1.5 0,0.937 -0.84,1.5 -1.67,1.5 v 0 c -1.04,0 -1.67,-0.563 -1.67,-1.5 0,-0.75 0.63,-1.5 1.67,-1.5 z m 6.68,0 v 0 c 0.83,0 1.67,0.75 1.67,1.5 0,0.937 -0.84,1.5 -1.67,1.5 v 0 c -1.05,0 -1.67,-0.563 -1.67,-1.5 0,-0.75 0.62,-1.5 1.67,-1.5 z m 6.67,0 v 0 c 0.84,0 1.67,0.75 1.67,1.5 0,0.937 -0.83,1.5 -1.67,1.5 v 0 c -1.04,0 -1.67,-0.563 -1.67,-1.5 0,-0.75 0.63,-1.5 1.67,-1.5 z m 6.68,0 v 0 c 0.84,0 1.67,0.75 1.67,1.5 0,0.937 -0.83,1.5 -1.67,1.5 v 0 c -1.04,0 -1.67,-0.563 -1.67,-1.5 0,-0.75 0.63,-1.5 1.67,-1.5 z m 6.68,0 v 0 c 0.83,0 1.67,0.75 1.67,1.5 0,0.937 -0.84,1.5 -1.67,1.5 v 0 c -1.05,0 -1.67,-0.563 -1.67,-1.5 0,-0.75 0.62,-1.5 1.67,-1.5 z m 6.67,0 v 0 c 0.84,0 1.67,0.75 1.67,1.5 0,0.937 -0.83,1.5 -1.67,1.5 v 0 c -1.04,0 -1.66,-0.563 -1.66,-1.5 0,-0.75 0.62,-1.5 1.66,-1.5 z m 6.68,0 v 0 c 0.84,0 1.67,0.75 1.67,1.5 0,0.937 -0.83,1.5 -1.67,1.5 v 0 c -1.04,0 -1.67,-0.563 -1.67,-1.5 0,-0.75 0.63,-1.5 1.67,-1.5 z m 6.68,0 v 0 c 0.83,0 1.67,0.75 1.67,1.5 0,0.937 -0.84,1.5 -1.67,1.5 v 0 c -1.04,0 -1.67,-0.563 -1.67,-1.5 0,-0.75 0.63,-1.5 1.67,-1.5 z m 6.68,0 v 0 c 0.83,0 1.66,0.75 1.66,1.5 0,0.937 -0.83,1.5 -1.66,1.5 v 0 c -1.05,0 -1.67,-0.563 -1.67,-1.5 0,-0.75 0.62,-1.5 1.67,-1.5 z m 6.67,0 v 0 c 0.84,0 1.67,0.75 1.67,1.5 0,0.937 -0.83,1.5 -1.67,1.5 v 0 c -1.04,0 -1.67,-0.563 -1.67,-1.5 0,-0.75 0.63,-1.5 1.67,-1.5 z m 6.68,0 v 0 c 0.83,0 1.67,0.75 1.67,1.5 0,0.937 -0.84,1.5 -1.67,1.5 v 0 c -1.04,0 -1.67,-0.563 -1.67,-1.5 0,-0.75 0.63,-1.5 1.67,-1.5 z m 6.68,0 v 0 c 0.83,0 1.67,0.75 1.67,1.5 0,0.937 -0.84,1.5 -1.67,1.5 v 0 c -1.05,0 -1.67,-0.563 -1.67,-1.5 0,-0.75 0.62,-1.5 1.67,-1.5 z m 6.67,0 v 0 c 0.84,0 1.67,0.75 1.67,1.5 0,0.937 -0.83,1.5 -1.67,1.5 v 0 c -1.04,0 -1.67,-0.563 -1.67,-1.5 0,-0.75 0.63,-1.5 1.67,-1.5 z m 6.68,0 v 0 c 0.83,0 1.67,0.75 1.67,1.5 0,0.937 -0.84,1.5 -1.67,1.5 v 0 c -1.04,0 -1.67,-0.563 -1.67,-1.5 0,-0.75 0.63,-1.5 1.67,-1.5 z m 6.68,0 v 0 c 0.83,0 1.67,0.75 1.67,1.5 0,0.937 -0.84,1.5 -1.67,1.5 v 0 c -0.84,0 -1.67,-0.563 -1.67,-1.5 0,-0.75 0.83,-1.5 1.67,-1.5 z m 6.67,0 v 0 c 0.84,0 1.67,0.75 1.67,1.5 0,0.937 -0.83,1.5 -1.67,1.5 v 0 c -0.83,0 -1.67,-0.563 -1.67,-1.5 0,-0.75 0.84,-1.5 1.67,-1.5 z m 6.68,0 v 0 c 0.84,0 1.67,0.75 1.67,1.5 0,0.937 -0.83,1.5 -1.67,1.5 v 0 c -0.83,0 -1.67,-0.563 -1.67,-1.5 0,-0.75 0.84,-1.5 1.67,-1.5 z m 6.68,0 v 0 c 0.83,0 1.67,0.75 1.67,1.5 0,0.937 -0.84,1.5 -1.67,1.5 v 0 c -0.84,0 -1.67,-0.563 -1.67,-1.5 0,-0.75 0.83,-1.5 1.67,-1.5 z m 6.67,0 v 0 c 0.84,0 1.67,0.75 1.67,1.5 0,0.937 -0.83,1.5 -1.67,1.5 v 0 c -0.83,0 -1.66,-0.563 -1.66,-1.5 0,-0.75 0.83,-1.5 1.66,-1.5 z m 6.68,0 v 0 c 0.84,0 1.67,0.75 1.67,1.5 0,0.937 -0.83,1.5 -1.67,1.5 v 0 c -0.83,0 -1.67,-0.563 -1.67,-1.5 0,-0.75 0.84,-1.5 1.67,-1.5 z m 6.68,0 v 0 c 0.83,0 1.67,0.75 1.67,1.5 0,0.937 -0.84,1.5 -1.67,1.5 v 0 c -0.84,0 -1.67,-0.563 -1.67,-1.5 0,-0.75 0.83,-1.5 1.67,-1.5 z m 6.68,0 v 0 c 0.83,0 1.66,0.75 1.66,1.5 0,0.937 -0.83,1.5 -1.66,1.5 v 0 c -0.84,0 -1.67,-0.563 -1.67,-1.5 0,-0.75 0.83,-1.5 1.67,-1.5 z m 6.67,0 v 0 c 0.84,0 1.67,0.75 1.67,1.5 0,0.937 -0.83,1.5 -1.67,1.5 v 0 c -0.83,0 -1.67,-0.563 -1.67,-1.5 0,-0.75 0.84,-1.5 1.67,-1.5 z m 6.68,0 v 0 c 1.04,0 1.67,0.75 1.67,1.5 0,0.937 -0.63,1.5 -1.67,1.5 v 0 c -0.84,0 -1.67,-0.563 -1.67,-1.5 0,-0.75 0.83,-1.5 1.67,-1.5 z m 6.68,0 v 0 c 1.04,0 1.67,0.75 1.67,1.5 0,0.937 -0.63,1.5 -1.67,1.5 v 0 c -0.84,0 -1.67,-0.563 -1.67,-1.5 0,-0.75 0.83,-1.5 1.67,-1.5 z m 6.67,0 v 0 c 1.05,0 1.67,0.75 1.67,1.5 0,0.937 -0.62,1.5 -1.67,1.5 v 0 c -0.83,0 -1.67,-0.563 -1.67,-1.5 0,-0.75 0.84,-1.5 1.67,-1.5 z m 6.68,0 v 0 c 1.04,0 1.67,0.75 1.67,1.5 0,0.937 -0.63,1.5 -1.67,1.5 v 0 c -0.83,0 -1.67,-0.563 -1.67,-1.5 0,-0.75 0.84,-1.5 1.67,-1.5 z m 6.68,0 v 0 c 1.04,0 1.67,0.75 1.67,1.5 0,0.937 -0.63,1.5 -1.67,1.5 v 0 c -0.84,0 -1.67,-0.563 -1.67,-1.5 0,-0.75 0.83,-1.5 1.67,-1.5 z m 6.67,0 v 0 c 1.05,0 1.67,0.75 1.67,1.5 0,0.937 -0.62,1.5 -1.67,1.5 v 0 c -0.83,0 -1.67,-0.563 -1.67,-1.5 0,-0.75 0.84,-1.5 1.67,-1.5 z m 6.68,0 v 0 c 1.04,0 1.67,0.75 1.67,1.5 0,0.937 -0.63,1.5 -1.67,1.5 v 0 c -0.83,0 -1.67,-0.563 -1.67,-1.5 0,-0.75 0.84,-1.5 1.67,-1.5 z m 6.68,0 v 0 c 1.04,0 1.67,0.75 1.67,1.5 0,0.937 -0.63,1.5 -1.67,1.5 v 0 c -0.84,0 -1.67,-0.563 -1.67,-1.5 0,-0.75 0.83,-1.5 1.67,-1.5 z m 6.67,0 v 0 c 1.05,0 1.67,0.75 1.67,1.5 0,0.937 -0.62,1.5 -1.67,1.5 v 0 c -0.83,0 -1.66,-0.563 -1.66,-1.5 0,-0.75 0.83,-1.5 1.66,-1.5 z m 6.68,0 v 0 c 1.04,0 1.67,0.75 1.67,1.5 0,0.937 -0.63,1.5 -1.67,1.5 v 0 c -0.83,0 -1.67,-0.563 -1.67,-1.5 0,-0.75 0.84,-1.5 1.67,-1.5 z m 6.68,0 v 0 c 1.04,0 1.67,0.75 1.67,1.5 0,0.937 -0.63,1.5 -1.67,1.5 v 0 c -0.84,0 -1.67,-0.563 -1.67,-1.5 0,-0.75 0.83,-1.5 1.67,-1.5 z m 6.68,0 v 0 c 1.04,0 1.66,0.75 1.66,1.5 0,0.937 -0.62,1.5 -1.66,1.5 v 0 c -0.84,0 -1.67,-0.563 -1.67,-1.5 0,-0.75 0.83,-1.5 1.67,-1.5 z m 6.67,0 v 0 c 1.05,0 1.67,0.75 1.67,1.5 0,0.937 -0.62,1.5 -1.67,1.5 v 0 c -0.83,0 -1.67,-0.563 -1.67,-1.5 0,-0.75 0.84,-1.5 1.67,-1.5 z m 6.68,0 v 0 c 1.04,0 1.67,0.75 1.67,1.5 0,0.937 -0.63,1.5 -1.67,1.5 v 0 c -0.84,0 -1.67,-0.563 -1.67,-1.5 0,-0.75 0.83,-1.5 1.67,-1.5 z m 6.68,0 v 0 c 1.04,0 1.67,0.75 1.67,1.5 0,0.937 -0.63,1.5 -1.67,1.5 v 0 c -0.84,0 -1.67,-0.563 -1.67,-1.5 0,-0.75 0.83,-1.5 1.67,-1.5 z m 6.67,0 v 0 c 1.05,0 1.67,0.75 1.67,1.5 0,0.937 -0.62,1.5 -1.67,1.5 v 0 c -0.83,0 -1.67,-0.563 -1.67,-1.5 0,-0.75 0.84,-1.5 1.67,-1.5 z m 6.68,0 v 0 c 1.04,0 1.67,0.75 1.67,1.5 0,0.937 -0.63,1.5 -1.67,1.5 v 0 c -0.83,0 -1.67,-0.563 -1.67,-1.5 0,-0.75 0.84,-1.5 1.67,-1.5 z m 6.68,0 v 0 c 1.04,0 1.67,0.75 1.67,1.5 0,0.937 -0.63,1.5 -1.67,1.5 v 0 c -0.84,0 -1.67,-0.563 -1.67,-1.5 0,-0.75 0.83,-1.5 1.67,-1.5 z m 6.67,0 v 0 c 1.05,0 1.67,0.75 1.67,1.5 0,0.937 -0.62,1.5 -1.67,1.5 v 0 c -0.83,0 -1.67,-0.563 -1.67,-1.5 0,-0.75 0.84,-1.5 1.67,-1.5 z m -1050.359,10.5 -20.031,-9 20.031,-9 z m 1044.939,-18 20.03,9 -20.03,9 z"
       stroke="#000000"
       stroke-width="3.4375"
       stroke-linejoin="bevel"
       stroke-miterlimit="10"
       fill-rule="evenodd"
       id="path28" /><text
       font-family="'Times New Roman', 'Times New Roman_MSFontService', sans-serif"
       font-weight="400"
       font-size="28px"
       id="text28"
       x="1052.5604"
       y="464">D(t)</text><text
       font-family="'Times New Roman', 'Times New Roman_MSFontService', sans-serif"
       font-weight="400"
       font-size="28px"
       id="text29"
       x="530.22913"
       y="934">B(t)</text><text
       font-family="Times New Roman,Times New Roman_MSFontService,sans-serif"
       font-weight="700"
       font-size="37"
       id="text30"
       style="font-style:normal;font-variant:normal;font-weight:bold;font-stretch:normal;font-size:37px;font-family:'Times New Roman', 'Times New Roman_MSFontService', sans-serif;-inkscape-font-specification:'Times New Roman, Times New Roman_MSFontService, sans-serif, Bold';font-variant-ligatures:normal;font-variant-caps:normal;font-variant-numeric:normal;font-variant-east-asian:normal"
       x="209.62462"
       y="164"><tspan
         id="tspan107"
         x="209.62462"
         y="164">Case 2.b Example:</tspan></text><g
       id="g114"
       transform="translate(-72.999516)"><text
         font-family="Times New Roman,Times New Roman_MSFontService,sans-serif"
         font-weight="400"
         font-size="28"
         transform="translate(284.625,235)"
         id="text34"
         style="font-style:normal;font-variant:normal;font-weight:normal;font-stretch:normal;font-size:28px;font-family:'Times New Roman', 'Times New Roman_MSFontService', sans-serif;-inkscape-font-specification:'Times New Roman, Times New Roman_MSFontService, sans-serif, Normal';font-variant-ligatures:normal;font-variant-caps:normal;font-variant-numeric:normal;font-variant-east-asian:normal"><tspan
           id="tspan108"
           x="0"
           y="0">D(t)=13, ILED=4</tspan></text><text
         font-family="Times New Roman,Times New Roman_MSFontService,sans-serif"
         font-weight="400"
         font-size="28"
         transform="translate(284.625,270)"
         id="text39"
         style="font-style:normal;font-variant:normal;font-weight:normal;font-stretch:normal;font-size:28px;font-family:'Times New Roman', 'Times New Roman_MSFontService', sans-serif;-inkscape-font-specification:'Times New Roman, Times New Roman_MSFontService, sans-serif, Normal';font-variant-ligatures:normal;font-variant-caps:normal;font-variant-numeric:normal;font-variant-east-asian:normal"><tspan
           id="tspan109"
           x="0"
           y="0">TLIFE=5, ELIFE=3</tspan></text></g><text
       font-family="Times New Roman,Times New Roman_MSFontService,sans-serif"
       font-weight="400"
       font-size="28"
       id="text43"
       style="font-style:normal;font-variant:normal;font-weight:normal;font-stretch:normal;font-size:28px;font-family:'Times New Roman', 'Times New Roman_MSFontService', sans-serif;-inkscape-font-specification:'Times New Roman, Times New Roman_MSFontService, sans-serif, Normal';font-variant-ligatures:normal;font-variant-caps:normal;font-variant-numeric:normal;font-variant-east-asian:normal"
       x="211.62527"
       y="339"><tspan
         id="tspan110"
         x="211.62527"
         y="339">C=2</tspan></text><g
       id="g113"
       transform="translate(-75.000266)"><text
         font-family="'Times New Roman', 'Times New Roman_MSFontService', sans-serif"
         font-weight="400"
         font-size="28px"
         transform="translate(1617,130)"
         id="text45">Investment</text><text
         font-family="Times New Roman,Times New Roman_MSFontService,sans-serif"
         font-weight="400"
         font-size="28"
         transform="translate(1617,165)"
         id="text46"
         style="font-style:normal;font-variant:normal;font-weight:normal;font-stretch:normal;font-size:28px;font-family:'Times New Roman', 'Times New Roman_MSFontService', sans-serif;-inkscape-font-specification:'Times New Roman, Times New Roman_MSFontService, sans-serif, Normal';font-variant-ligatures:normal;font-variant-caps:normal;font-variant-numeric:normal;font-variant-east-asian:normal"><tspan
           id="tspan111"
           x="0"
           y="0">and payment:</tspan></text></g><g
       id="g112"
       transform="translate(-74.999844)"><text
         font-family="'Times New Roman', 'Times New Roman_MSFontService', sans-serif"
         font-weight="400"
         font-size="28px"
         transform="translate(1617,270)"
         id="text49">Investment</text><text
         font-family="Times New Roman,Times New Roman_MSFontService,sans-serif"
         font-weight="400"
         font-size="28"
         transform="translate(1617,304)"
         id="text50"
         style="font-style:normal;font-variant:normal;font-weight:normal;font-stretch:normal;font-size:28px;font-family:'Times New Roman', 'Times New Roman_MSFontService', sans-serif;-inkscape-font-specification:'Times New Roman, Times New Roman_MSFontService, sans-serif, Normal';font-variant-ligatures:normal;font-variant-caps:normal;font-variant-numeric:normal;font-variant-east-asian:normal"><tspan
           id="tspan112"
           x="0"
           y="0">Payment only:</tspan></text></g><rect
       x="1741.5"
       y="109.5"
       width="84.000198"
       height="71.999802"
       stroke="#000000"
       stroke-width="3.4375"
       stroke-linecap="round"
       stroke-miterlimit="8"
       fill="none"
       id="rect52"
       style="fill:url(#pattern117);fill-opacity:1" /><rect
       x="1741.5"
       y="246.5"
       width="84.000198"
       height="72.999901"
       stroke="#000000"
       stroke-width="3.4375"
       stroke-linecap="round"
       stroke-miterlimit="8"
       fill="none"
       id="rect54"
       style="fill:url(#pattern127);fill-opacity:1" /><path
       d="m 529.85,546 v 0 c 0.835,0 1.67,0.563 1.67,1.5 0,0.75 -0.835,1.5 -1.67,1.5 v 0 c -1.044,0 -1.67,-0.75 -1.67,-1.5 0,-0.937 0.626,-1.5 1.67,-1.5 z m 6.68,0 v 0 c 0.835,0 1.67,0.563 1.67,1.5 0,0.75 -0.835,1.5 -1.67,1.5 v 0 c -1.044,0 -1.67,-0.75 -1.67,-1.5 0,-0.937 0.626,-1.5 1.67,-1.5 z m 6.68,0 v 0 c 0.835,0 1.67,0.563 1.67,1.5 0,0.75 -0.835,1.5 -1.67,1.5 v 0 c -1.044,0 -1.67,-0.75 -1.67,-1.5 0,-0.937 0.626,-1.5 1.67,-1.5 z m 6.68,0 v 0 c 0.835,0 1.67,0.563 1.67,1.5 0,0.75 -0.835,1.5 -1.67,1.5 v 0 c -1.044,0 -1.67,-0.75 -1.67,-1.5 0,-0.937 0.626,-1.5 1.67,-1.5 z m 6.68,0 v 0 c 0.835,0 1.67,0.563 1.67,1.5 0,0.75 -0.835,1.5 -1.67,1.5 v 0 c -1.044,0 -1.67,-0.75 -1.67,-1.5 0,-0.937 0.626,-1.5 1.67,-1.5 z m 6.68,0 v 0 c 0.835,0 1.67,0.563 1.67,1.5 0,0.75 -0.835,1.5 -1.67,1.5 v 0 c -1.044,0 -1.67,-0.75 -1.67,-1.5 0,-0.937 0.626,-1.5 1.67,-1.5 z m 6.68,0 v 0 c 0.835,0 1.67,0.563 1.67,1.5 0,0.75 -0.835,1.5 -1.67,1.5 v 0 c -1.044,0 -1.67,-0.75 -1.67,-1.5 0,-0.937 0.626,-1.5 1.67,-1.5 z m 6.68,0 v 0 c 0.835,0 1.67,0.563 1.67,1.5 0,0.75 -0.835,1.5 -1.67,1.5 v 0 c -1.044,0 -1.67,-0.75 -1.67,-1.5 0,-0.937 0.626,-1.5 1.67,-1.5 z m 6.68,0 v 0 c 0.835,0 1.67,0.563 1.67,1.5 0,0.75 -0.835,1.5 -1.67,1.5 v 0 c -0.835,0 -1.67,-0.75 -1.67,-1.5 0,-0.937 0.835,-1.5 1.67,-1.5 z m 6.68,0 v 0 c 0.835,0 1.67,0.563 1.67,1.5 0,0.75 -0.835,1.5 -1.67,1.5 v 0 c -0.835,0 -1.67,-0.75 -1.67,-1.5 0,-0.937 0.835,-1.5 1.67,-1.5 z m 6.68,0 v 0 c 0.835,0 1.67,0.563 1.67,1.5 0,0.75 -0.835,1.5 -1.67,1.5 v 0 c -0.835,0 -1.67,-0.75 -1.67,-1.5 0,-0.937 0.835,-1.5 1.67,-1.5 z m 6.68,0 v 0 c 0.835,0 1.67,0.563 1.67,1.5 0,0.75 -0.835,1.5 -1.67,1.5 v 0 c -0.835,0 -1.67,-0.75 -1.67,-1.5 0,-0.937 0.835,-1.5 1.67,-1.5 z m 6.68,0 v 0 c 0.835,0 1.67,0.563 1.67,1.5 0,0.75 -0.835,1.5 -1.67,1.5 v 0 c -0.835,0 -1.67,-0.75 -1.67,-1.5 0,-0.937 0.835,-1.5 1.67,-1.5 z m 6.68,0 v 0 c 0.835,0 1.67,0.563 1.67,1.5 0,0.75 -0.835,1.5 -1.67,1.5 v 0 c -0.835,0 -1.67,-0.75 -1.67,-1.5 0,-0.937 0.835,-1.5 1.67,-1.5 z m 6.68,0 v 0 c 0.835,0 1.67,0.563 1.67,1.5 0,0.75 -0.835,1.5 -1.67,1.5 v 0 c -0.835,0 -1.67,-0.75 -1.67,-1.5 0,-0.937 0.835,-1.5 1.67,-1.5 z m 6.68,0 v 0 c 0.835,0 1.67,0.563 1.67,1.5 0,0.75 -0.835,1.5 -1.67,1.5 v 0 c -0.835,0 -1.67,-0.75 -1.67,-1.5 0,-0.937 0.835,-1.5 1.67,-1.5 z m 6.68,0 v 0 c 0.835,0 1.67,0.563 1.67,1.5 0,0.75 -0.835,1.5 -1.67,1.5 v 0 c -0.835,0 -1.67,-0.75 -1.67,-1.5 0,-0.937 0.835,-1.5 1.67,-1.5 z m 6.68,0 v 0 c 1.044,0 1.67,0.563 1.67,1.5 0,0.75 -0.626,1.5 -1.67,1.5 v 0 c -0.835,0 -1.67,-0.75 -1.67,-1.5 0,-0.937 0.835,-1.5 1.67,-1.5 z m 6.68,0 v 0 c 1.044,0 1.67,0.563 1.67,1.5 0,0.75 -0.626,1.5 -1.67,1.5 v 0 c -0.835,0 -1.67,-0.75 -1.67,-1.5 0,-0.937 0.835,-1.5 1.67,-1.5 z m 6.68,0 v 0 c 1.044,0 1.67,0.563 1.67,1.5 0,0.75 -0.626,1.5 -1.67,1.5 v 0 c -0.835,0 -1.67,-0.75 -1.67,-1.5 0,-0.937 0.835,-1.5 1.67,-1.5 z m 6.68,0 v 0 c 1.044,0 1.67,0.563 1.67,1.5 0,0.75 -0.626,1.5 -1.67,1.5 v 0 c -0.835,0 -1.67,-0.75 -1.67,-1.5 0,-0.937 0.835,-1.5 1.67,-1.5 z m 6.68,0 v 0 c 1.044,0 1.67,0.563 1.67,1.5 0,0.75 -0.626,1.5 -1.67,1.5 v 0 c -0.835,0 -1.67,-0.75 -1.67,-1.5 0,-0.937 0.835,-1.5 1.67,-1.5 z m 6.68,0 v 0 c 1.044,0 1.67,0.563 1.67,1.5 0,0.75 -0.626,1.5 -1.67,1.5 v 0 c -0.835,0 -1.67,-0.75 -1.67,-1.5 0,-0.937 0.835,-1.5 1.67,-1.5 z m 6.68,0 v 0 c 1.044,0 1.67,0.563 1.67,1.5 0,0.75 -0.626,1.5 -1.67,1.5 v 0 c -0.835,0 -1.67,-0.75 -1.67,-1.5 0,-0.937 0.835,-1.5 1.67,-1.5 z m 6.68,0 v 0 c 1.044,0 1.67,0.563 1.67,1.5 0,0.75 -0.626,1.5 -1.67,1.5 v 0 c -0.835,0 -1.67,-0.75 -1.67,-1.5 0,-0.937 0.835,-1.5 1.67,-1.5 z m 6.68,0 v 0 c 1.044,0 1.67,0.563 1.67,1.5 0,0.75 -0.626,1.5 -1.67,1.5 v 0 c -0.835,0 -1.67,-0.75 -1.67,-1.5 0,-0.937 0.835,-1.5 1.67,-1.5 z m 6.68,0 v 0 c 1.044,0 1.67,0.563 1.67,1.5 0,0.75 -0.626,1.5 -1.67,1.5 v 0 c -0.835,0 -1.67,-0.75 -1.67,-1.5 0,-0.937 0.835,-1.5 1.67,-1.5 z m 6.68,0 v 0 c 1.044,0 1.67,0.563 1.67,1.5 0,0.75 -0.626,1.5 -1.67,1.5 v 0 c -0.835,0 -1.67,-0.75 -1.67,-1.5 0,-0.937 0.835,-1.5 1.67,-1.5 z m 6.68,0 v 0 c 1.044,0 1.67,0.563 1.67,1.5 0,0.75 -0.626,1.5 -1.67,1.5 v 0 c -0.835,0 -1.67,-0.75 -1.67,-1.5 0,-0.937 0.835,-1.5 1.67,-1.5 z m 6.68,0 v 0 c 1.044,0 1.67,0.563 1.67,1.5 0,0.75 -0.626,1.5 -1.67,1.5 v 0 c -0.835,0 -1.67,-0.75 -1.67,-1.5 0,-0.937 0.835,-1.5 1.67,-1.5 z m 6.68,0 v 0 c 1.044,0 1.67,0.563 1.67,1.5 0,0.75 -0.626,1.5 -1.67,1.5 v 0 c -0.835,0 -1.67,-0.75 -1.67,-1.5 0,-0.937 0.835,-1.5 1.67,-1.5 z m 6.68,0 v 0 c 1.044,0 1.67,0.563 1.67,1.5 0,0.75 -0.626,1.5 -1.67,1.5 v 0 c -0.835,0 -1.67,-0.75 -1.67,-1.5 0,-0.937 0.835,-1.5 1.67,-1.5 z m 6.68,0 v 0 c 1.044,0 1.67,0.563 1.67,1.5 0,0.75 -0.626,1.5 -1.67,1.5 v 0 c -0.835,0 -1.67,-0.75 -1.67,-1.5 0,-0.937 0.835,-1.5 1.67,-1.5 z m 6.68,0 v 0 c 1.044,0 1.67,0.563 1.67,1.5 0,0.75 -0.626,1.5 -1.67,1.5 v 0 c -0.835,0 -1.67,-0.75 -1.67,-1.5 0,-0.937 0.835,-1.5 1.67,-1.5 z m 6.68,0 v 0 c 1.044,0 1.67,0.563 1.67,1.5 0,0.75 -0.626,1.5 -1.67,1.5 v 0 c -0.835,0 -1.67,-0.75 -1.67,-1.5 0,-0.937 0.835,-1.5 1.67,-1.5 z m 6.68,0 v 0 c 1.044,0 1.67,0.563 1.67,1.5 0,0.75 -0.626,1.5 -1.67,1.5 v 0 c -0.835,0 -1.67,-0.75 -1.67,-1.5 0,-0.937 0.835,-1.5 1.67,-1.5 z m 6.68,0 v 0 c 1.044,0 1.67,0.563 1.67,1.5 0,0.75 -0.626,1.5 -1.67,1.5 v 0 c -0.835,0 -1.67,-0.75 -1.67,-1.5 0,-0.937 0.835,-1.5 1.67,-1.5 z m 6.68,0 v 0 c 1.044,0 1.67,0.563 1.67,1.5 0,0.75 -0.626,1.5 -1.67,1.5 v 0 c -0.835,0 -1.67,-0.75 -1.67,-1.5 0,-0.937 0.835,-1.5 1.67,-1.5 z m 6.68,0 v 0 c 1.044,0 1.67,0.563 1.67,1.5 0,0.75 -0.626,1.5 -1.67,1.5 v 0 c -0.835,0 -1.67,-0.75 -1.67,-1.5 0,-0.937 0.835,-1.5 1.67,-1.5 z m 6.68,0 v 0 c 1.044,0 1.67,0.563 1.67,1.5 0,0.75 -0.626,1.5 -1.67,1.5 v 0 c -0.835,0 -1.67,-0.75 -1.67,-1.5 0,-0.937 0.835,-1.5 1.67,-1.5 z m 6.68,0 v 0 c 1.044,0 1.67,0.563 1.67,1.5 0,0.75 -0.626,1.5 -1.67,1.5 v 0 c -0.835,0 -1.67,-0.75 -1.67,-1.5 0,-0.937 0.835,-1.5 1.67,-1.5 z m 6.68,0 v 0 c 1.044,0 1.67,0.563 1.67,1.5 0,0.75 -0.626,1.5 -1.67,1.5 v 0 c -0.835,0 -1.67,-0.75 -1.67,-1.5 0,-0.937 0.835,-1.5 1.67,-1.5 z m 6.68,0 v 0 c 1.044,0 1.67,0.563 1.67,1.5 0,0.75 -0.626,1.5 -1.67,1.5 v 0 c -0.835,0 -1.67,-0.75 -1.67,-1.5 0,-0.937 0.835,-1.5 1.67,-1.5 z m 6.68,0 h 0.209 c 0.835,0 1.67,0.563 1.67,1.5 0,0.75 -0.835,1.5 -1.67,1.5 h -0.209 c -0.835,0 -1.67,-0.75 -1.67,-1.5 0,-0.937 0.835,-1.5 1.67,-1.5 z m 6.889,0 v 0 c 0.835,0 1.67,0.563 1.67,1.5 0,0.75 -0.835,1.5 -1.67,1.5 v 0 c -1.044,0 -1.67,-0.75 -1.67,-1.5 0,-0.937 0.626,-1.5 1.67,-1.5 z m 6.68,0 v 0 c 0.835,0 1.67,0.563 1.67,1.5 0,0.75 -0.835,1.5 -1.67,1.5 v 0 c -1.044,0 -1.67,-0.75 -1.67,-1.5 0,-0.937 0.626,-1.5 1.67,-1.5 z m 6.68,0 v 0 c 0.835,0 1.67,0.563 1.67,1.5 0,0.75 -0.835,1.5 -1.67,1.5 v 0 c -1.044,0 -1.67,-0.75 -1.67,-1.5 0,-0.937 0.626,-1.5 1.67,-1.5 z m 6.68,0 v 0 c 0.835,0 1.67,0.563 1.67,1.5 0,0.75 -0.835,1.5 -1.67,1.5 v 0 c -1.044,0 -1.67,-0.75 -1.67,-1.5 0,-0.937 0.626,-1.5 1.67,-1.5 z m -302.479,10.5 -20.04,-9 20.04,-9 z m 293.92,-18 20.04,9 -20.04,9 z"
       stroke="#000000"
       stroke-width="3.4375"
       stroke-linejoin="bevel"
       stroke-miterlimit="10"
       fill-rule="evenodd"
       id="path56" /><text
       font-family="'Times New Roman', 'Times New Roman_MSFontService', sans-serif"
       font-weight="400"
       font-size="28px"
       id="text56"
       x="663.83276"
       y="534">ILED</text><rect
       x="771.5"
       y="816.5"
       width="84.000198"
       height="72.000198"
       stroke="#000000"
       stroke-width="3.4375"
       stroke-linecap="round"
       stroke-miterlimit="8"
       fill="none"
       id="rect57" /><rect
       x="855.5"
       y="816.5"
       width="82.999802"
       height="72.000198"
       stroke="#000000"
       stroke-width="3.4375"
       stroke-linecap="round"
       stroke-miterlimit="8"
       fill="none"
       id="rect58" /><rect
       x="855.5"
       y="743.5"
       width="82.999802"
       height="72.999901"
       stroke="#000000"
       stroke-width="3.4375"
       stroke-linecap="round"
       stroke-miterlimit="8"
       fill="none"
       id="rect59" /><rect
       x="938.5"
       y="743.5"
       width="84.000198"
       height="72.999901"
       stroke="#000000"
       stroke-width="3.4375"
       stroke-linecap="round"
       stroke-miterlimit="8"
       fill="none"
       id="rect60" /><rect
       x="938.5"
       y="671.5"
       width="84.000198"
       height="72.000198"
       stroke="#000000"
       stroke-width="3.4375"
       stroke-linecap="round"
       stroke-miterlimit="8"
       fill="none"
       id="rect61" /><rect
       x="1022.5"
       y="671.5"
       width="82.999802"
       height="72.000198"
       stroke="#000000"
       stroke-width="3.4375"
       stroke-linecap="round"
       stroke-miterlimit="8"
       fill="none"
       id="rect62" /><rect
       x="1022.5"
       y="598.5"
       width="82.999802"
       height="72.999901"
       stroke="#000000"
       stroke-width="3.4375"
       stroke-linecap="round"
       stroke-miterlimit="8"
       fill="none"
       id="rect63" /><rect
       x="1105.5"
       y="598.5"
       width="83.999901"
       height="72.999901"
       stroke="#000000"
       stroke-width="3.4375"
       stroke-linecap="round"
       stroke-miterlimit="8"
       fill="none"
       id="rect64" /><path
       d="m 863.84,568 v 0 c 0.834,0 1.668,0.75 1.668,1.5 0,0.938 -0.834,1.5 -1.668,1.5 v 0 c -1.042,0 -1.668,-0.562 -1.668,-1.5 0,-0.75 0.626,-1.5 1.668,-1.5 z m 6.672,0 v 0 c 0.834,0 1.668,0.75 1.668,1.5 0,0.938 -0.834,1.5 -1.668,1.5 v 0 c -1.042,0 -1.668,-0.562 -1.668,-1.5 0,-0.75 0.626,-1.5 1.668,-1.5 z m 6.672,0 v 0 c 0.834,0 1.668,0.75 1.668,1.5 0,0.938 -0.834,1.5 -1.668,1.5 v 0 c -1.042,0 -1.668,-0.562 -1.668,-1.5 0,-0.75 0.626,-1.5 1.668,-1.5 z m 6.672,0 v 0 c 0.834,0 1.668,0.75 1.668,1.5 0,0.938 -0.834,1.5 -1.668,1.5 v 0 c -1.042,0 -1.668,-0.562 -1.668,-1.5 0,-0.75 0.626,-1.5 1.668,-1.5 z m 6.672,0 v 0 c 0.834,0 1.668,0.75 1.668,1.5 0,0.938 -0.834,1.5 -1.668,1.5 v 0 c -1.042,0 -1.668,-0.562 -1.668,-1.5 0,-0.75 0.626,-1.5 1.668,-1.5 z m 6.672,0 v 0 c 0.834,0 1.668,0.75 1.668,1.5 0,0.938 -0.834,1.5 -1.668,1.5 v 0 c -1.042,0 -1.668,-0.562 -1.668,-1.5 0,-0.75 0.626,-1.5 1.668,-1.5 z m 6.672,0 v 0 c 0.834,0 1.668,0.75 1.668,1.5 0,0.938 -0.834,1.5 -1.668,1.5 v 0 c -1.042,0 -1.668,-0.562 -1.668,-1.5 0,-0.75 0.626,-1.5 1.668,-1.5 z m 6.672,0 v 0 c 0.834,0 1.668,0.75 1.668,1.5 0,0.938 -0.834,1.5 -1.668,1.5 v 0 c -1.042,0 -1.668,-0.562 -1.668,-1.5 0,-0.75 0.626,-1.5 1.668,-1.5 z m 6.672,0 v 0 c 0.834,0 1.668,0.75 1.668,1.5 0,0.938 -0.834,1.5 -1.668,1.5 v 0 c -0.834,0 -1.668,-0.562 -1.668,-1.5 0,-0.75 0.834,-1.5 1.668,-1.5 z m 6.672,0 v 0 c 0.834,0 1.668,0.75 1.668,1.5 0,0.938 -0.834,1.5 -1.668,1.5 v 0 c -0.834,0 -1.668,-0.562 -1.668,-1.5 0,-0.75 0.834,-1.5 1.668,-1.5 z m 6.672,0 v 0 c 0.834,0 1.668,0.75 1.668,1.5 0,0.938 -0.834,1.5 -1.668,1.5 v 0 c -0.834,0 -1.668,-0.562 -1.668,-1.5 0,-0.75 0.834,-1.5 1.668,-1.5 z m 6.672,0 v 0 c 0.834,0 1.668,0.75 1.668,1.5 0,0.938 -0.834,1.5 -1.668,1.5 v 0 c -0.834,0 -1.668,-0.562 -1.668,-1.5 0,-0.75 0.834,-1.5 1.668,-1.5 z m 6.672,0 v 0 c 0.834,0 1.668,0.75 1.668,1.5 0,0.938 -0.834,1.5 -1.668,1.5 v 0 c -0.834,0 -1.668,-0.562 -1.668,-1.5 0,-0.75 0.834,-1.5 1.668,-1.5 z m 6.672,0 v 0 c 0.834,0 1.668,0.75 1.668,1.5 0,0.938 -0.834,1.5 -1.668,1.5 v 0 c -0.834,0 -1.668,-0.562 -1.668,-1.5 0,-0.75 0.834,-1.5 1.668,-1.5 z m 6.672,0 v 0 c 0.834,0 1.668,0.75 1.668,1.5 0,0.938 -0.834,1.5 -1.668,1.5 v 0 c -0.834,0 -1.668,-0.562 -1.668,-1.5 0,-0.75 0.834,-1.5 1.668,-1.5 z m 6.672,0 v 0 c 0.834,0 1.668,0.75 1.668,1.5 0,0.938 -0.834,1.5 -1.668,1.5 v 0 c -0.834,0 -1.668,-0.562 -1.668,-1.5 0,-0.75 0.834,-1.5 1.668,-1.5 z m 6.672,0 v 0 c 0.834,0 1.668,0.75 1.668,1.5 0,0.938 -0.834,1.5 -1.668,1.5 v 0 c -0.834,0 -1.668,-0.562 -1.668,-1.5 0,-0.75 0.834,-1.5 1.668,-1.5 z m 6.672,0 v 0 c 1.043,0 1.668,0.75 1.668,1.5 0,0.938 -0.625,1.5 -1.668,1.5 v 0 c -0.834,0 -1.668,-0.562 -1.668,-1.5 0,-0.75 0.834,-1.5 1.668,-1.5 z m 6.672,0 v 0 c 1.043,0 1.668,0.75 1.668,1.5 0,0.938 -0.625,1.5 -1.668,1.5 v 0 c -0.834,0 -1.668,-0.562 -1.668,-1.5 0,-0.75 0.834,-1.5 1.668,-1.5 z m 6.672,0 v 0 c 1.043,0 1.668,0.75 1.668,1.5 0,0.938 -0.625,1.5 -1.668,1.5 v 0 c -0.834,0 -1.668,-0.562 -1.668,-1.5 0,-0.75 0.834,-1.5 1.668,-1.5 z m 6.672,0 v 0 c 1.043,0 1.668,0.75 1.668,1.5 0,0.938 -0.625,1.5 -1.668,1.5 v 0 c -0.834,0 -1.668,-0.562 -1.668,-1.5 0,-0.75 0.834,-1.5 1.668,-1.5 z m 6.67,0 v 0 c 1.04,0 1.67,0.75 1.67,1.5 0,0.938 -0.63,1.5 -1.67,1.5 v 0 c -0.83,0 -1.67,-0.562 -1.67,-1.5 0,-0.75 0.84,-1.5 1.67,-1.5 z m 6.67,0 v 0 c 1.05,0 1.67,0.75 1.67,1.5 0,0.938 -0.62,1.5 -1.67,1.5 v 0 c -0.83,0 -1.66,-0.562 -1.66,-1.5 0,-0.75 0.83,-1.5 1.66,-1.5 z m 6.68,0 v 0 c 1.04,0 1.66,0.75 1.66,1.5 0,0.938 -0.62,1.5 -1.66,1.5 v 0 c -0.84,0 -1.67,-0.562 -1.67,-1.5 0,-0.75 0.83,-1.5 1.67,-1.5 z m 6.67,0 v 0 c 1.04,0 1.67,0.75 1.67,1.5 0,0.938 -0.63,1.5 -1.67,1.5 v 0 c -0.84,0 -1.67,-0.562 -1.67,-1.5 0,-0.75 0.83,-1.5 1.67,-1.5 z m 6.67,0 v 0 c 1.04,0 1.67,0.75 1.67,1.5 0,0.938 -0.63,1.5 -1.67,1.5 v 0 c -0.83,0 -1.67,-0.562 -1.67,-1.5 0,-0.75 0.84,-1.5 1.67,-1.5 z m 6.67,0 v 0 c 1.04,0 1.67,0.75 1.67,1.5 0,0.938 -0.63,1.5 -1.67,1.5 v 0 c -0.83,0 -1.67,-0.562 -1.67,-1.5 0,-0.75 0.84,-1.5 1.67,-1.5 z m 6.67,0 v 0 c 1.05,0 1.67,0.75 1.67,1.5 0,0.938 -0.62,1.5 -1.67,1.5 v 0 c -0.83,0 -1.66,-0.562 -1.66,-1.5 0,-0.75 0.83,-1.5 1.66,-1.5 z m 6.68,0 v 0 c 1.04,0 1.66,0.75 1.66,1.5 0,0.938 -0.62,1.5 -1.66,1.5 v 0 c -0.84,0 -1.67,-0.562 -1.67,-1.5 0,-0.75 0.83,-1.5 1.67,-1.5 z m 6.67,0 v 0 c 1.04,0 1.67,0.75 1.67,1.5 0,0.938 -0.63,1.5 -1.67,1.5 v 0 c -0.84,0 -1.67,-0.562 -1.67,-1.5 0,-0.75 0.83,-1.5 1.67,-1.5 z m 6.67,0 v 0 c 1.04,0 1.67,0.75 1.67,1.5 0,0.938 -0.63,1.5 -1.67,1.5 v 0 c -0.83,0 -1.67,-0.562 -1.67,-1.5 0,-0.75 0.84,-1.5 1.67,-1.5 z m 6.67,0 v 0 c 1.04,0 1.67,0.75 1.67,1.5 0,0.938 -0.63,1.5 -1.67,1.5 v 0 c -0.83,0 -1.67,-0.562 -1.67,-1.5 0,-0.75 0.84,-1.5 1.67,-1.5 z m 6.67,0 v 0 c 1.05,0 1.67,0.75 1.67,1.5 0,0.938 -0.62,1.5 -1.67,1.5 v 0 c -0.83,0 -1.66,-0.562 -1.66,-1.5 0,-0.75 0.83,-1.5 1.66,-1.5 z m 6.68,0 v 0 c 1.04,0 1.66,0.75 1.66,1.5 0,0.938 -0.62,1.5 -1.66,1.5 v 0 c -0.84,0 -1.67,-0.562 -1.67,-1.5 0,-0.75 0.83,-1.5 1.67,-1.5 z m 6.67,0 v 0 c 1.04,0 1.67,0.75 1.67,1.5 0,0.938 -0.63,1.5 -1.67,1.5 v 0 c -0.84,0 -1.67,-0.562 -1.67,-1.5 0,-0.75 0.83,-1.5 1.67,-1.5 z m 6.67,0 v 0 c 1.04,0 1.67,0.75 1.67,1.5 0,0.938 -0.63,1.5 -1.67,1.5 v 0 c -0.83,0 -1.67,-0.562 -1.67,-1.5 0,-0.75 0.84,-1.5 1.67,-1.5 z m 6.67,0 v 0 c 1.04,0 1.67,0.75 1.67,1.5 0,0.938 -0.63,1.5 -1.67,1.5 v 0 c -0.83,0 -1.67,-0.562 -1.67,-1.5 0,-0.75 0.84,-1.5 1.67,-1.5 z m 6.67,0 v 0 c 1.05,0 1.67,0.75 1.67,1.5 0,0.938 -0.62,1.5 -1.67,1.5 v 0 c -0.83,0 -1.66,-0.562 -1.66,-1.5 0,-0.75 0.83,-1.5 1.66,-1.5 z m 6.68,0 v 0 c 1.04,0 1.66,0.75 1.66,1.5 0,0.938 -0.62,1.5 -1.66,1.5 v 0 c -0.84,0 -1.67,-0.562 -1.67,-1.5 0,-0.75 0.83,-1.5 1.67,-1.5 z m 6.67,0 v 0 c 1.04,0 1.67,0.75 1.67,1.5 0,0.938 -0.63,1.5 -1.67,1.5 v 0 c -0.84,0 -1.67,-0.562 -1.67,-1.5 0,-0.75 0.83,-1.5 1.67,-1.5 z m 6.67,0 v 0 c 1.04,0 1.67,0.75 1.67,1.5 0,0.938 -0.63,1.5 -1.67,1.5 v 0 c -0.83,0 -1.67,-0.562 -1.67,-1.5 0,-0.75 0.84,-1.5 1.67,-1.5 z m 6.67,0 v 0 c 1.04,0 1.67,0.75 1.67,1.5 0,0.938 -0.63,1.5 -1.67,1.5 v 0 c -0.83,0 -1.67,-0.562 -1.67,-1.5 0,-0.75 0.84,-1.5 1.67,-1.5 z m 6.67,0 v 0 c 1.05,0 1.67,0.75 1.67,1.5 0,0.938 -0.62,1.5 -1.67,1.5 v 0 c -0.83,0 -1.66,-0.562 -1.66,-1.5 0,-0.75 0.83,-1.5 1.66,-1.5 z m 6.68,0 v 0 c 1.04,0 1.66,0.75 1.66,1.5 0,0.938 -0.62,1.5 -1.66,1.5 v 0 c -0.84,0 -1.67,-0.562 -1.67,-1.5 0,-0.75 0.83,-1.5 1.67,-1.5 z m 6.67,0 h 0.21 c 0.83,0 1.66,0.75 1.66,1.5 0,0.938 -0.83,1.5 -1.66,1.5 h -0.21 c -0.84,0 -1.67,-0.562 -1.67,-1.5 0,-0.75 0.83,-1.5 1.67,-1.5 z m 6.88,0 v 0 c 0.83,0 1.67,0.75 1.67,1.5 0,0.938 -0.84,1.5 -1.67,1.5 v 0 c -1.04,0 -1.67,-0.562 -1.67,-1.5 0,-0.75 0.63,-1.5 1.67,-1.5 z m 6.67,0 v 0 c 0.83,0 1.67,0.75 1.67,1.5 0,0.938 -0.84,1.5 -1.67,1.5 v 0 c -1.04,0 -1.67,-0.562 -1.67,-1.5 0,-0.75 0.63,-1.5 1.67,-1.5 z m 6.67,0 v 0 c 0.84,0 1.67,0.75 1.67,1.5 0,0.938 -0.83,1.5 -1.67,1.5 v 0 c -1.04,0 -1.67,-0.562 -1.67,-1.5 0,-0.75 0.63,-1.5 1.67,-1.5 z m 6.67,0 v 0 c 0.84,0 1.67,0.75 1.67,1.5 0,0.938 -0.83,1.5 -1.67,1.5 v 0 c -1.04,0 -1.66,-0.562 -1.66,-1.5 0,-0.75 0.62,-1.5 1.66,-1.5 z m 6.68,0 v 0 c 0.83,0 1.66,0.75 1.66,1.5 0,0.938 -0.83,1.5 -1.66,1.5 v 0 c -1.05,0 -1.67,-0.562 -1.67,-1.5 0,-0.75 0.62,-1.5 1.67,-1.5 z m 6.67,0 v 0 c 0.83,0 1.67,0.75 1.67,1.5 0,0.938 -0.84,1.5 -1.67,1.5 v 0 c -1.04,0 -1.67,-0.562 -1.67,-1.5 0,-0.75 0.63,-1.5 1.67,-1.5 z m 6.67,0 v 0 c 0.83,0 1.67,0.75 1.67,1.5 0,0.938 -0.84,1.5 -1.67,1.5 v 0 c -1.04,0 -1.67,-0.562 -1.67,-1.5 0,-0.75 0.63,-1.5 1.67,-1.5 z m 6.67,0 v 0 c 0.84,0 1.67,0.75 1.67,1.5 0,0.938 -0.83,1.5 -1.67,1.5 v 0 c -1.04,0 -1.67,-0.562 -1.67,-1.5 0,-0.75 0.63,-1.5 1.67,-1.5 z m 6.67,0 v 0 c 0.84,0 1.67,0.75 1.67,1.5 0,0.938 -0.83,1.5 -1.67,1.5 v 0 c -1.04,0 -1.66,-0.562 -1.66,-1.5 0,-0.75 0.62,-1.5 1.66,-1.5 z m 6.68,0 v 0 c 0.83,0 1.66,0.75 1.66,1.5 0,0.938 -0.83,1.5 -1.66,1.5 v 0 c -1.05,0 -1.67,-0.562 -1.67,-1.5 0,-0.75 0.62,-1.5 1.67,-1.5 z m 6.67,0 v 0 c 0.83,0 1.67,0.75 1.67,1.5 0,0.938 -0.84,1.5 -1.67,1.5 v 0 c -1.04,0 -1.67,-0.562 -1.67,-1.5 0,-0.75 0.63,-1.5 1.67,-1.5 z m 6.67,0 v 0 c 0.83,0 1.67,0.75 1.67,1.5 0,0.938 -0.84,1.5 -1.67,1.5 v 0 c -1.04,0 -1.67,-0.562 -1.67,-1.5 0,-0.75 0.63,-1.5 1.67,-1.5 z m 6.67,0 v 0 c 0.84,0 1.67,0.75 1.67,1.5 0,0.938 -0.83,1.5 -1.67,1.5 v 0 c -1.04,0 -1.67,-0.562 -1.67,-1.5 0,-0.75 0.63,-1.5 1.67,-1.5 z m 6.67,0 v 0 c 0.84,0 1.67,0.75 1.67,1.5 0,0.938 -0.83,1.5 -1.67,1.5 v 0 c -1.04,0 -1.66,-0.562 -1.66,-1.5 0,-0.75 0.62,-1.5 1.66,-1.5 z m 6.68,0 v 0 c 0.83,0 1.66,0.75 1.66,1.5 0,0.938 -0.83,1.5 -1.66,1.5 v 0 c -1.05,0 -1.67,-0.562 -1.67,-1.5 0,-0.75 0.62,-1.5 1.67,-1.5 z m -382.184,10.5 -20.016,-9 20.016,-9 z m 376.964,-18 20.02,9 -20.02,9 z"
       stroke="#000000"
       stroke-width="3.4375"
       stroke-linejoin="bevel"
       stroke-miterlimit="10"
       fill-rule="evenodd"
       id="path64" /><text
       font-family="'Times New Roman', 'Times New Roman_MSFontService', sans-serif"
       font-weight="400"
       font-size="28px"
       id="text64"
       x="1047.6903"
       y="557">TLIFE</text><path
       d="M 0,0 3.60892e-4,81.3542"
       stroke="#000000"
       stroke-width="3.4375"
       stroke-linecap="round"
       stroke-linejoin="round"
       stroke-miterlimit="10"
       fill="none"
       fill-rule="evenodd"
       transform="matrix(1,0,0,-1,1189.5,670.854)"
       id="path65" /><rect
       x="938.5"
       y="816.5"
       width="84.000198"
       height="72.000198"
       stroke="#000000"
       stroke-width="3.4375"
       stroke-linecap="round"
       stroke-miterlimit="8"
       fill="none"
       id="rect66"
       style="fill:url(#pattern125);fill-opacity:1" /><rect
       x="1022.5"
       y="816.5"
       width="82.999802"
       height="72.000198"
       stroke="#000000"
       stroke-width="3.4375"
       stroke-linecap="round"
       stroke-miterlimit="8"
       fill="none"
       id="rect68"
       style="fill:url(#pattern140);fill-opacity:1" /><rect
       x="1105.5"
       y="816.5"
       width="83.999901"
       height="72.000198"
       stroke="#000000"
       stroke-width="3.4375"
       stroke-linecap="round"
       stroke-miterlimit="8"
       fill="none"
       id="rect70"
       style="fill:url(#pattern139);fill-opacity:1" /><rect
       x="1022.5"
       y="743.5"
       width="82.999802"
       height="72.999901"
       stroke="#000000"
       stroke-width="3.4375"
       stroke-linecap="round"
       stroke-miterlimit="8"
       fill="none"
       id="rect72"
       style="fill:url(#pattern124);fill-opacity:1" /><rect
       x="1189.5"
       y="743.5"
       width="83.000198"
       height="72.999901"
       stroke="#000000"
       stroke-width="3.4375"
       stroke-linecap="round"
       stroke-miterlimit="8"
       fill="none"
       id="rect73" /><rect
       x="1189.5"
       y="743.5"
       width="83.000198"
       height="72.999901"
       stroke="#000000"
       stroke-width="3.4375"
       stroke-linecap="round"
       stroke-miterlimit="8"
       fill="none"
       id="rect75"
       style="fill:url(#pattern145);fill-opacity:1" /><rect
       x="1105.5"
       y="671.5"
       width="83.999901"
       height="72.000198"
       stroke="#000000"
       stroke-width="3.4375"
       stroke-linecap="round"
       stroke-miterlimit="8"
       fill="none"
       id="rect77"
       style="fill:url(#pattern123);fill-opacity:1" /><rect
       x="1189.5"
       y="671.5"
       width="83.000198"
       height="72.000198"
       stroke="#000000"
       stroke-width="3.4375"
       stroke-linecap="round"
       stroke-miterlimit="8"
       fill="none"
       id="rect79"
       style="fill:url(#pattern141);fill-opacity:1" /><rect
       x="1272.5"
       y="671.5"
       width="83.999901"
       height="72.000198"
       stroke="#000000"
       stroke-width="3.4375"
       stroke-linecap="round"
       stroke-miterlimit="8"
       fill="none"
       id="rect81"
       style="fill:url(#pattern144);fill-opacity:1" /><rect
       x="1189.5"
       y="598.5"
       width="83.000198"
       height="72.999901"
       stroke="#000000"
       stroke-width="3.4375"
       stroke-linecap="round"
       stroke-miterlimit="8"
       fill="none"
       id="rect83"
       style="fill:url(#pattern122);fill-opacity:1" /><rect
       x="1272.5"
       y="598.5"
       width="83.999901"
       height="72.999901"
       stroke="#000000"
       stroke-width="3.4375"
       stroke-linecap="round"
       stroke-miterlimit="8"
       fill="none"
       id="rect85"
       style="fill:url(#pattern143);fill-opacity:1" /><rect
       x="1356.5"
       y="598.5"
       width="83.000198"
       height="72.999901"
       stroke="#000000"
       stroke-width="3.4375"
       stroke-linecap="round"
       stroke-miterlimit="8"
       fill="none"
       id="rect87"
       style="fill:url(#pattern138);fill-opacity:1" /><rect
       x="1105.5"
       y="743.5"
       width="83.999901"
       height="72.999901"
       stroke="#000000"
       stroke-width="3.4375"
       stroke-linecap="round"
       stroke-miterlimit="8"
       fill="none"
       id="rect89"
       style="fill:url(#pattern142);fill-opacity:1" /><rect
       x="1189.5"
       y="816.5"
       width="83.000198"
       height="72.000198"
       stroke="#000000"
       stroke-width="3.4375"
       stroke-linecap="round"
       stroke-miterlimit="8"
       fill="none"
       id="rect90" /><rect
       x="1272.5"
       y="816.5"
       width="83.999901"
       height="72.000198"
       stroke="#000000"
       stroke-width="3.4375"
       stroke-linecap="round"
       stroke-miterlimit="8"
       fill="none"
       id="rect91" /><rect
       x="1356.5"
       y="816.5"
       width="83.000198"
       height="72.000198"
       stroke="#000000"
       stroke-width="3.4375"
       stroke-linecap="round"
       stroke-miterlimit="8"
       fill="none"
       id="rect92" /><rect
       x="1272.5"
       y="743.5"
       width="83.999901"
       height="72.999901"
       stroke="#000000"
       stroke-width="3.4375"
       stroke-linecap="round"
       stroke-miterlimit="8"
       fill="none"
       id="rect93" /><rect
       x="1356.5"
       y="743.5"
       width="83.000198"
       height="72.999901"
       stroke="#000000"
       stroke-width="3.4375"
       stroke-linecap="round"
       stroke-miterlimit="8"
       fill="none"
       id="rect94" /><rect
       x="1356.5"
       y="671.5"
       width="83.000198"
       height="72.000198"
       stroke="#000000"
       stroke-width="3.4375"
       stroke-linecap="round"
       stroke-miterlimit="8"
       fill="none"
       id="rect95" /><rect
       x="1439.5"
       y="671.5"
       width="83.999901"
       height="72.000198"
       stroke="#000000"
       stroke-width="3.4375"
       stroke-linecap="round"
       stroke-miterlimit="8"
       fill="none"
       id="rect96" /><rect
       x="1439.5"
       y="598.5"
       width="83.999901"
       height="72.999901"
       stroke="#000000"
       stroke-width="3.4375"
       stroke-linecap="round"
       stroke-miterlimit="8"
       fill="none"
       id="rect97" /><rect
       x="1523.5"
       y="598.5"
       width="82.999901"
       height="72.999901"
       stroke="#000000"
       stroke-width="3.4375"
       stroke-linecap="round"
       stroke-miterlimit="8"
       fill="none"
       id="rect98" /><rect
       x="1439.5"
       y="816.5"
       width="83.999901"
       height="72.000198"
       stroke="#000000"
       stroke-width="3.4375"
       stroke-linecap="round"
       stroke-miterlimit="8"
       fill="none"
       id="rect99" /><rect
       x="1523.5"
       y="816.5"
       width="82.999901"
       height="72.000198"
       stroke="#000000"
       stroke-width="3.4375"
       stroke-linecap="round"
       stroke-miterlimit="8"
       fill="none"
       id="rect100" /><rect
       x="1439.5"
       y="743.5"
       width="83.999901"
       height="72.999901"
       stroke="#000000"
       stroke-width="3.4375"
       stroke-linecap="round"
       stroke-miterlimit="8"
       fill="none"
       id="rect101" /><rect
       x="1523.5"
       y="743.5"
       width="82.999901"
       height="72.999901"
       stroke="#000000"
       stroke-width="3.4375"
       stroke-linecap="round"
       stroke-miterlimit="8"
       fill="none"
       id="rect102" /><rect
       x="1523.5"
       y="671.5"
       width="82.999901"
       height="72.000198"
       stroke="#000000"
       stroke-width="3.4375"
       stroke-linecap="round"
       stroke-miterlimit="8"
       fill="none"
       id="rect103" /><path
       d="m 1280.86,568 v 0 c 0.84,0 1.67,0.75 1.67,1.5 0,0.938 -0.83,1.5 -1.67,1.5 v 0 c -1.04,0 -1.67,-0.562 -1.67,-1.5 0,-0.75 0.63,-1.5 1.67,-1.5 z m 6.69,0 v 0 c 0.83,0 1.67,0.75 1.67,1.5 0,0.938 -0.84,1.5 -1.67,1.5 v 0 c -1.05,0 -1.67,-0.562 -1.67,-1.5 0,-0.75 0.62,-1.5 1.67,-1.5 z m 6.69,0 v 0 c 0.83,0 1.67,0.75 1.67,1.5 0,0.938 -0.84,1.5 -1.67,1.5 v 0 c -1.05,0 -1.68,-0.562 -1.68,-1.5 0,-0.75 0.63,-1.5 1.68,-1.5 z m 6.68,0 v 0 c 0.84,0 1.68,0.75 1.68,1.5 0,0.938 -0.84,1.5 -1.68,1.5 v 0 c -1.04,0 -1.67,-0.562 -1.67,-1.5 0,-0.75 0.63,-1.5 1.67,-1.5 z m 6.69,0 v 0 c 0.84,0 1.67,0.75 1.67,1.5 0,0.938 -0.83,1.5 -1.67,1.5 v 0 c -1.04,0 -1.67,-0.562 -1.67,-1.5 0,-0.75 0.63,-1.5 1.67,-1.5 z m 6.69,0 v 0 c 0.84,0 1.67,0.75 1.67,1.5 0,0.938 -0.83,1.5 -1.67,1.5 v 0 c -1.04,0 -1.67,-0.562 -1.67,-1.5 0,-0.75 0.63,-1.5 1.67,-1.5 z m 6.69,0 v 0 c 0.83,0 1.67,0.75 1.67,1.5 0,0.938 -0.84,1.5 -1.67,1.5 v 0 c -1.05,0 -1.67,-0.562 -1.67,-1.5 0,-0.75 0.62,-1.5 1.67,-1.5 z m 6.69,0 v 0 c 0.83,0 1.67,0.75 1.67,1.5 0,0.938 -0.84,1.5 -1.67,1.5 v 0 c -1.05,0 -1.68,-0.562 -1.68,-1.5 0,-0.75 0.63,-1.5 1.68,-1.5 z m 6.68,0 v 0 c 0.84,0 1.68,0.75 1.68,1.5 0,0.938 -0.84,1.5 -1.68,1.5 v 0 c -0.83,0 -1.67,-0.562 -1.67,-1.5 0,-0.75 0.84,-1.5 1.67,-1.5 z m 6.69,0 v 0 c 0.84,0 1.67,0.75 1.67,1.5 0,0.938 -0.83,1.5 -1.67,1.5 v 0 c -0.83,0 -1.67,-0.562 -1.67,-1.5 0,-0.75 0.84,-1.5 1.67,-1.5 z m 6.69,0 v 0 c 0.84,0 1.67,0.75 1.67,1.5 0,0.938 -0.83,1.5 -1.67,1.5 v 0 c -0.84,0 -1.67,-0.562 -1.67,-1.5 0,-0.75 0.83,-1.5 1.67,-1.5 z m 6.69,0 v 0 c 0.83,0 1.67,0.75 1.67,1.5 0,0.938 -0.84,1.5 -1.67,1.5 v 0 c -0.84,0 -1.67,-0.562 -1.67,-1.5 0,-0.75 0.83,-1.5 1.67,-1.5 z m 6.69,0 v 0 c 0.83,0 1.67,0.75 1.67,1.5 0,0.938 -0.84,1.5 -1.67,1.5 v 0 c -0.84,0 -1.68,-0.562 -1.68,-1.5 0,-0.75 0.84,-1.5 1.68,-1.5 z m 6.68,0 v 0 c 0.84,0 1.68,0.75 1.68,1.5 0,0.938 -0.84,1.5 -1.68,1.5 v 0 c -0.83,0 -1.67,-0.562 -1.67,-1.5 0,-0.75 0.84,-1.5 1.67,-1.5 z m 6.69,0 v 0 c 0.84,0 1.67,0.75 1.67,1.5 0,0.938 -0.83,1.5 -1.67,1.5 v 0 c -0.83,0 -1.67,-0.562 -1.67,-1.5 0,-0.75 0.84,-1.5 1.67,-1.5 z m 6.69,0 v 0 c 0.84,0 1.67,0.75 1.67,1.5 0,0.938 -0.83,1.5 -1.67,1.5 v 0 c -0.84,0 -1.67,-0.562 -1.67,-1.5 0,-0.75 0.83,-1.5 1.67,-1.5 z m 6.69,0 v 0 c 0.83,0 1.67,0.75 1.67,1.5 0,0.938 -0.84,1.5 -1.67,1.5 v 0 c -0.84,0 -1.67,-0.562 -1.67,-1.5 0,-0.75 0.83,-1.5 1.67,-1.5 z m 6.69,0 v 0 c 1.04,0 1.67,0.75 1.67,1.5 0,0.938 -0.63,1.5 -1.67,1.5 v 0 c -0.84,0 -1.68,-0.562 -1.68,-1.5 0,-0.75 0.84,-1.5 1.68,-1.5 z m 6.68,0 v 0 c 1.05,0 1.68,0.75 1.68,1.5 0,0.938 -0.63,1.5 -1.68,1.5 v 0 c -0.83,0 -1.67,-0.562 -1.67,-1.5 0,-0.75 0.84,-1.5 1.67,-1.5 z m 6.69,0 v 0 c 1.05,0 1.67,0.75 1.67,1.5 0,0.938 -0.62,1.5 -1.67,1.5 v 0 c -0.83,0 -1.67,-0.562 -1.67,-1.5 0,-0.75 0.84,-1.5 1.67,-1.5 z m 6.69,0 v 0 c 1.05,0 1.67,0.75 1.67,1.5 0,0.938 -0.62,1.5 -1.67,1.5 v 0 c -0.84,0 -1.67,-0.562 -1.67,-1.5 0,-0.75 0.83,-1.5 1.67,-1.5 z m 6.69,0 v 0 c 1.04,0 1.67,0.75 1.67,1.5 0,0.938 -0.63,1.5 -1.67,1.5 v 0 c -0.84,0 -1.67,-0.562 -1.67,-1.5 0,-0.75 0.83,-1.5 1.67,-1.5 z m 6.69,0 v 0 c 1.04,0 1.67,0.75 1.67,1.5 0,0.938 -0.63,1.5 -1.67,1.5 v 0 c -0.84,0 -1.68,-0.562 -1.68,-1.5 0,-0.75 0.84,-1.5 1.68,-1.5 z m 6.68,0 v 0 c 1.05,0 1.68,0.75 1.68,1.5 0,0.938 -0.63,1.5 -1.68,1.5 v 0 c -0.83,0 -1.67,-0.562 -1.67,-1.5 0,-0.75 0.84,-1.5 1.67,-1.5 z m 6.69,0 v 0 c 1.05,0 1.67,0.75 1.67,1.5 0,0.938 -0.62,1.5 -1.67,1.5 v 0 c -0.83,0 -1.67,-0.562 -1.67,-1.5 0,-0.75 0.84,-1.5 1.67,-1.5 z m 6.69,0 v 0 c 1.05,0 1.67,0.75 1.67,1.5 0,0.938 -0.62,1.5 -1.67,1.5 v 0 c -0.84,0 -1.67,-0.562 -1.67,-1.5 0,-0.75 0.83,-1.5 1.67,-1.5 z m 6.69,0 v 0 c 1.04,0 1.67,0.75 1.67,1.5 0,0.938 -0.63,1.5 -1.67,1.5 v 0 c -0.84,0 -1.67,-0.562 -1.67,-1.5 0,-0.75 0.83,-1.5 1.67,-1.5 z m 6.69,0 v 0 c 1.04,0 1.67,0.75 1.67,1.5 0,0.938 -0.63,1.5 -1.67,1.5 v 0 c -0.84,0 -1.68,-0.562 -1.68,-1.5 0,-0.75 0.84,-1.5 1.68,-1.5 z m 6.68,0 v 0 c 1.05,0 1.68,0.75 1.68,1.5 0,0.938 -0.63,1.5 -1.68,1.5 v 0 c -0.83,0 -1.67,-0.562 -1.67,-1.5 0,-0.75 0.84,-1.5 1.67,-1.5 z m 6.69,0 v 0 c 1.05,0 1.67,0.75 1.67,1.5 0,0.938 -0.62,1.5 -1.67,1.5 v 0 c -0.83,0 -1.67,-0.562 -1.67,-1.5 0,-0.75 0.84,-1.5 1.67,-1.5 z m 6.69,0 v 0 c 1.05,0 1.67,0.75 1.67,1.5 0,0.938 -0.62,1.5 -1.67,1.5 v 0 c -0.84,0 -1.67,-0.562 -1.67,-1.5 0,-0.75 0.83,-1.5 1.67,-1.5 z m 6.69,0 v 0 c 1.04,0 1.67,0.75 1.67,1.5 0,0.938 -0.63,1.5 -1.67,1.5 v 0 c -0.84,0 -1.67,-0.562 -1.67,-1.5 0,-0.75 0.83,-1.5 1.67,-1.5 z m 6.69,0 v 0 c 1.04,0 1.67,0.75 1.67,1.5 0,0.938 -0.63,1.5 -1.67,1.5 v 0 c -0.84,0 -1.68,-0.562 -1.68,-1.5 0,-0.75 0.84,-1.5 1.68,-1.5 z m 6.68,0 v 0 c 1.05,0 1.68,0.75 1.68,1.5 0,0.938 -0.63,1.5 -1.68,1.5 v 0 c -0.83,0 -1.67,-0.562 -1.67,-1.5 0,-0.75 0.84,-1.5 1.67,-1.5 z m 6.69,0 v 0 c 1.05,0 1.67,0.75 1.67,1.5 0,0.938 -0.62,1.5 -1.67,1.5 v 0 c -0.83,0 -1.67,-0.562 -1.67,-1.5 0,-0.75 0.84,-1.5 1.67,-1.5 z m 6.69,0 v 0 c 1.05,0 1.67,0.75 1.67,1.5 0,0.938 -0.62,1.5 -1.67,1.5 v 0 c -0.84,0 -1.67,-0.562 -1.67,-1.5 0,-0.75 0.83,-1.5 1.67,-1.5 z m 6.69,0 v 0 c 1.04,0 1.67,0.75 1.67,1.5 0,0.938 -0.63,1.5 -1.67,1.5 v 0 c -0.84,0 -1.67,-0.562 -1.67,-1.5 0,-0.75 0.83,-1.5 1.67,-1.5 z m 6.69,0 v 0 c 1.04,0 1.67,0.75 1.67,1.5 0,0.938 -0.63,1.5 -1.67,1.5 v 0 c -0.84,0 -1.68,-0.562 -1.68,-1.5 0,-0.75 0.84,-1.5 1.68,-1.5 z m 6.68,0 v 0 c 1.05,0 1.68,0.75 1.68,1.5 0,0.938 -0.63,1.5 -1.68,1.5 v 0 c -0.83,0 -1.67,-0.562 -1.67,-1.5 0,-0.75 0.84,-1.5 1.67,-1.5 z m 6.69,0 v 0 c 1.05,0 1.67,0.75 1.67,1.5 0,0.938 -0.62,1.5 -1.67,1.5 v 0 c -0.83,0 -1.67,-0.562 -1.67,-1.5 0,-0.75 0.84,-1.5 1.67,-1.5 z m 6.69,0 v 0 c 1.05,0 1.67,0.75 1.67,1.5 0,0.938 -0.62,1.5 -1.67,1.5 v 0 c -0.84,0 -1.67,-0.562 -1.67,-1.5 0,-0.75 0.83,-1.5 1.67,-1.5 z m 6.69,0 v 0 c 1.04,0 1.67,0.75 1.67,1.5 0,0.938 -0.63,1.5 -1.67,1.5 v 0 c -0.84,0 -1.67,-0.562 -1.67,-1.5 0,-0.75 0.83,-1.5 1.67,-1.5 z m 6.69,0 v 0 c 1.04,0 1.67,0.75 1.67,1.5 0,0.938 -0.63,1.5 -1.67,1.5 v 0 c -0.84,0 -1.68,-0.562 -1.68,-1.5 0,-0.75 0.84,-1.5 1.68,-1.5 z m 6.68,0 v 0 c 1.05,0 1.68,0.75 1.68,1.5 0,0.938 -0.63,1.5 -1.68,1.5 v 0 c -0.83,0 -1.67,-0.562 -1.67,-1.5 0,-0.75 0.84,-1.5 1.67,-1.5 z m 6.69,0 h 0.21 c 0.84,0 1.67,0.75 1.67,1.5 0,0.938 -0.83,1.5 -1.67,1.5 h -0.21 c -0.83,0 -1.67,-0.562 -1.67,-1.5 0,-0.75 0.84,-1.5 1.67,-1.5 z m 6.9,0 v 0 c 0.84,0 1.67,0.75 1.67,1.5 0,0.938 -0.83,1.5 -1.67,1.5 v 0 c -1.05,0 -1.67,-0.562 -1.67,-1.5 0,-0.75 0.62,-1.5 1.67,-1.5 z m 6.69,0 v 0 c 0.83,0 1.67,0.75 1.67,1.5 0,0.938 -0.84,1.5 -1.67,1.5 v 0 c -1.05,0 -1.67,-0.562 -1.67,-1.5 0,-0.75 0.62,-1.5 1.67,-1.5 z m 6.69,0 v 0 c 0.83,0 1.67,0.75 1.67,1.5 0,0.938 -0.84,1.5 -1.67,1.5 v 0 c -1.05,0 -1.68,-0.562 -1.68,-1.5 0,-0.75 0.63,-1.5 1.68,-1.5 z m 6.68,0 v 0 c 0.84,0 1.68,0.75 1.68,1.5 0,0.938 -0.84,1.5 -1.68,1.5 v 0 c -1.04,0 -1.67,-0.562 -1.67,-1.5 0,-0.75 0.63,-1.5 1.67,-1.5 z m 6.69,0 v 0 c 0.84,0 1.67,0.75 1.67,1.5 0,0.938 -0.83,1.5 -1.67,1.5 v 0 c -1.04,0 -1.67,-0.562 -1.67,-1.5 0,-0.75 0.63,-1.5 1.67,-1.5 z m 6.69,0 v 0 c 0.84,0 1.67,0.75 1.67,1.5 0,0.938 -0.83,1.5 -1.67,1.5 v 0 c -1.05,0 -1.67,-0.562 -1.67,-1.5 0,-0.75 0.62,-1.5 1.67,-1.5 z m 6.69,0 v 0 c 0.83,0 1.67,0.75 1.67,1.5 0,0.938 -0.84,1.5 -1.67,1.5 v 0 c -1.05,0 -1.67,-0.562 -1.67,-1.5 0,-0.75 0.62,-1.5 1.67,-1.5 z m 6.69,0 v 0 c 0.83,0 1.67,0.75 1.67,1.5 0,0.938 -0.84,1.5 -1.67,1.5 v 0 c -1.05,0 -1.68,-0.562 -1.68,-1.5 0,-0.75 0.63,-1.5 1.68,-1.5 z m 6.68,0 v 0 c 0.84,0 1.68,0.75 1.68,1.5 0,0.938 -0.84,1.5 -1.68,1.5 v 0 c -1.04,0 -1.67,-0.562 -1.67,-1.5 0,-0.75 0.63,-1.5 1.67,-1.5 z m 6.69,0 v 0 c 0.84,0 1.67,0.75 1.67,1.5 0,0.938 -0.83,1.5 -1.67,1.5 v 0 c -1.04,0 -1.67,-0.562 -1.67,-1.5 0,-0.75 0.63,-1.5 1.67,-1.5 z m 6.69,0 v 0 c 0.84,0 1.67,0.75 1.67,1.5 0,0.938 -0.83,1.5 -1.67,1.5 v 0 c -1.05,0 -1.67,-0.562 -1.67,-1.5 0,-0.75 0.62,-1.5 1.67,-1.5 z m 6.69,0 v 0 c 0.83,0 1.67,0.75 1.67,1.5 0,0.938 -0.84,1.5 -1.67,1.5 v 0 c -1.05,0 -1.67,-0.562 -1.67,-1.5 0,-0.75 0.62,-1.5 1.67,-1.5 z m 6.69,0 v 0 c 0.83,0 1.67,0.75 1.67,1.5 0,0.938 -0.84,1.5 -1.67,1.5 v 0 c -1.05,0 -1.68,-0.562 -1.68,-1.5 0,-0.75 0.63,-1.5 1.68,-1.5 z m 6.68,0 v 0 c 0.84,0 1.68,0.75 1.68,1.5 0,0.938 -0.84,1.5 -1.68,1.5 v 0 c -1.04,0 -1.67,-0.562 -1.67,-1.5 0,-0.75 0.63,-1.5 1.67,-1.5 z m 6.69,0 v 0 c 0.84,0 1.67,0.75 1.67,1.5 0,0.938 -0.83,1.5 -1.67,1.5 v 0 c -1.04,0 -1.67,-0.562 -1.67,-1.5 0,-0.75 0.63,-1.5 1.67,-1.5 z m -383.1,10.5 -20.06,-9 20.06,-9 z m 377.88,-18 20.06,9 -20.06,9 z"
       stroke="#000000"
       stroke-width="3.4375"
       stroke-linejoin="bevel"
       stroke-miterlimit="10"
       fill-rule="evenodd"
       id="path103" /><text
       font-family="'Times New Roman', 'Times New Roman_MSFontService', sans-serif"
       font-weight="400"
       font-size="28px"
       id="text103"
       x="1411.8303"
       y="557">TLIFE</text><rect
       x="1606.5"
       y="598.5"
       width="84.000198"
       height="72.999901"
       stroke="#000000"
       stroke-width="3.4375"
       stroke-linecap="round"
       stroke-miterlimit="8"
       fill="none"
       id="rect104" /><rect
       x="1606.5"
       y="816.5"
       width="84.000198"
       height="72.000198"
       stroke="#000000"
       stroke-width="3.4375"
       stroke-linecap="round"
       stroke-miterlimit="8"
       fill="none"
       id="rect105" /><rect
       x="1606.5"
       y="743.5"
       width="84.000198"
       height="72.999901"
       stroke="#000000"
       stroke-width="3.4375"
       stroke-linecap="round"
       stroke-miterlimit="8"
       fill="none"
       id="rect106" /><rect
       x="1606.5"
       y="671.5"
       width="84.000198"
       height="72.000198"
       stroke="#000000"
       stroke-width="3.4375"
       stroke-linecap="round"
       stroke-miterlimit="8"
       fill="none"
       id="rect107" /><path
       d="m 853.5,599.045 v -20.363 c 0,-0.727 0.563,-1.455 1.5,-1.455 0.75,0 1.5,0.728 1.5,1.455 v 20.363 c 0,0.91 -0.75,1.455 -1.5,1.455 -0.937,0 -1.5,-0.545 -1.5,-1.455 z m 0,-31.999 v -19.091 c 0,-0.909 0.563,-1.455 1.5,-1.455 0.75,0 1.5,0.546 1.5,1.455 v 19.091 c 0,0.909 -0.75,1.454 -1.5,1.454 -0.937,0 -1.5,-0.545 -1.5,-1.454 z"
       stroke="#000000"
       stroke-width="3.4375"
       stroke-linejoin="bevel"
       stroke-miterlimit="10"
       fill-rule="evenodd"
       id="path107" /></g></svg>
