<?xml version="1.0" encoding="UTF-8" standalone="no"?>
<svg
   width="1656.0331"
   height="1048.8521"
   xml:space="preserve"
   overflow="hidden"
   version="1.1"
   id="svg114"
   xmlns:xlink="http://www.w3.org/1999/xlink"
   xmlns="http://www.w3.org/2000/svg"
   xmlns:svg="http://www.w3.org/2000/svg"><defs
     id="defs114"><pattern
       xlink:href="#pattern7"
       preserveAspectRatio="xMidYMid"
       id="pattern8"
       patternTransform="matrix(0,5,-5,0,0,0)"
       x="0"
       y="0"
       height="2.2" /><pattern
       patternUnits="userSpaceOnUse"
       width="2.5"
       height="1"
       patternTransform="translate(0,0) scale(2,2)"
       preserveAspectRatio="xMidYMid"
       id="pattern7"
       style="fill:#000000">
      <rect
   style="stroke:none"
   x="0"
   y="-0.5"
   width="1"
   height="2"
   id="rect7" />
    </pattern><pattern
       xlink:href="#Strips1_4"
       preserveAspectRatio="xMidYMid"
       id="pattern137"
       patternTransform="scale(2)" /><pattern
       xlink:href="#Strips1_4"
       preserveAspectRatio="xMidYMid"
       id="pattern136"
       patternTransform="scale(2)" /><pattern
       xlink:href="#Strips1_4"
       preserveAspectRatio="xMidYMid"
       id="pattern135"
       patternTransform="scale(2)" /><pattern
       xlink:href="#Strips1_4"
       preserveAspectRatio="xMidYMid"
       id="pattern134"
       patternTransform="scale(2)" /><pattern
       xlink:href="#Strips1_4"
       preserveAspectRatio="xMidYMid"
       id="pattern133"
       patternTransform="scale(2)" /><pattern
       xlink:href="#Strips1_4"
       preserveAspectRatio="xMidYMid"
       id="pattern132"
       patternTransform="scale(2)" /><pattern
       xlink:href="#Strips1_4"
       preserveAspectRatio="xMidYMid"
       id="pattern131"
       patternTransform="scale(2)" /><pattern
       xlink:href="#Strips1_4"
       preserveAspectRatio="xMidYMid"
       id="pattern130"
       patternTransform="scale(2)" /><pattern
       xlink:href="#Strips1_4"
       preserveAspectRatio="xMidYMid"
       id="pattern129"
       patternTransform="scale(2)"
       x="0"
       y="0" /><pattern
       patternUnits="userSpaceOnUse"
       width="5"
       height="1"
       patternTransform="translate(0,0) scale(2,2)"
       preserveAspectRatio="xMidYMid"
       id="Strips1_4"
       style="fill:#000000">
      <rect
   style="stroke:none"
   x="0"
   y="-0.5"
   width="1"
   height="2"
   id="rect158" />
    </pattern><pattern
       xlink:href="#Strips1_1.5"
       preserveAspectRatio="xMidYMid"
       id="pattern125"
       patternTransform="matrix(3.5355339,3.5355339,-3.5355339,3.5355339,0,0)"
       x="0"
       y="0" /><pattern
       xlink:href="#Strips1_1.5"
       preserveAspectRatio="xMidYMid"
       id="pattern124"
       patternTransform="matrix(3.5355339,3.5355339,-3.5355339,3.5355339,0,0)"
       x="0"
       y="0" /><pattern
       xlink:href="#Strips1_1.5"
       preserveAspectRatio="xMidYMid"
       id="pattern123"
       patternTransform="matrix(3.5355339,3.5355339,-3.5355339,3.5355339,0,0)"
       x="0"
       y="0" /><pattern
       xlink:href="#Strips1_1.5"
       preserveAspectRatio="xMidYMid"
       id="pattern122"
       patternTransform="matrix(3.5355339,3.5355339,-3.5355339,3.5355339,0,0)"
       x="0"
       y="0" /><pattern
       xlink:href="#Strips1_1.5"
       preserveAspectRatio="xMidYMid"
       id="pattern121"
       patternTransform="matrix(3.5355339,3.5355339,-3.5355339,3.5355339,0,0)"
       x="0"
       y="0" /><pattern
       patternUnits="userSpaceOnUse"
       width="2.5"
       height="1"
       patternTransform="translate(0,0) scale(2,2)"
       preserveAspectRatio="xMidYMid"
       id="Strips1_1.5"
       style="fill:#000000">
      <rect
   style="stroke:none"
   x="0"
   y="-0.5"
   width="1"
   height="2"
   id="rect140" />
    </pattern></defs><g
     transform="translate(-111.16455,-77.698994)"
     id="g114"><rect
       x="112.0918"
       y="78.626244"
       width="1654.1786"
       height="1046.9976"
       stroke="#000000"
       stroke-width="1.8545"
       stroke-miterlimit="8"
       fill="none"
       id="rect1" /><path
       d="M 376,1035 H 1504.65"
       stroke="#000000"
       stroke-width="3.89583"
       stroke-linejoin="round"
       stroke-miterlimit="10"
       fill="none"
       fill-rule="evenodd"
       id="path2" /><path
       d="M 0,0 3.60892e-4,562.375"
       stroke="#000000"
       stroke-width="3.89583"
       stroke-linejoin="round"
       stroke-miterlimit="10"
       fill="none"
       fill-rule="evenodd"
       transform="matrix(1,0,0,-1,517,1082.38)"
       id="path16" /><path
       d="m 1144,537 v 562.38"
       stroke="#000000"
       stroke-width="3.89583"
       stroke-linejoin="round"
       stroke-miterlimit="10"
       fill="none"
       fill-rule="evenodd"
       id="path17" /><path
       d="m 530.588,597.5 v 0 c 0.549,0 0.98,0.48 0.98,1 0,0.56 -0.431,1 -0.98,1 v 0 c -0.548,0 -0.979,-0.44 -0.979,-1 0,-0.52 0.431,-1 0.979,-1 z m 3.919,0 v 0 c 0.549,0 0.98,0.48 0.98,1 0,0.56 -0.431,1 -0.98,1 v 0 c -0.548,0 -0.979,-0.44 -0.979,-1 0,-0.52 0.431,-1 0.979,-1 z m 3.919,0 v 0 c 0.549,0 0.98,0.48 0.98,1 0,0.56 -0.431,1 -0.98,1 v 0 c -0.549,0 -0.98,-0.44 -0.98,-1 0,-0.52 0.431,-1 0.98,-1 z m 3.919,0 v 0 c 0.548,0 0.979,0.48 0.979,1 0,0.56 -0.431,1 -0.979,1 v 0 c -0.549,0 -0.98,-0.44 -0.98,-1 0,-0.52 0.431,-1 0.98,-1 z m 3.918,0 v 0 c 0.549,0 0.98,0.48 0.98,1 0,0.56 -0.431,1 -0.98,1 v 0 c -0.548,0 -0.979,-0.44 -0.979,-1 0,-0.52 0.431,-1 0.979,-1 z m 3.919,0 v 0 c 0.549,0 0.98,0.48 0.98,1 0,0.56 -0.431,1 -0.98,1 v 0 c -0.548,0 -0.979,-0.44 -0.979,-1 0,-0.52 0.431,-1 0.979,-1 z m 3.919,0 v 0 c 0.549,0 0.98,0.48 0.98,1 0,0.56 -0.431,1 -0.98,1 v 0 c -0.549,0 -0.98,-0.44 -0.98,-1 0,-0.52 0.431,-1 0.98,-1 z m 3.919,0 v 0 c 0.548,0 0.979,0.48 0.979,1 0,0.56 -0.431,1 -0.979,1 v 0 c -0.549,0 -0.98,-0.44 -0.98,-1 0,-0.52 0.431,-1 0.98,-1 z m 3.918,0 v 0 c 0.549,0 0.98,0.48 0.98,1 0,0.56 -0.431,1 -0.98,1 v 0 c -0.548,0 -0.979,-0.44 -0.979,-1 0,-0.52 0.431,-1 0.979,-1 z m 3.919,0 v 0 c 0.549,0 0.98,0.48 0.98,1 0,0.56 -0.431,1 -0.98,1 v 0 c -0.548,0 -0.979,-0.44 -0.979,-1 0,-0.52 0.431,-1 0.979,-1 z m 3.919,0 v 0 c 0.549,0 0.98,0.48 0.98,1 0,0.56 -0.431,1 -0.98,1 v 0 c -0.549,0 -0.98,-0.44 -0.98,-1 0,-0.52 0.431,-1 0.98,-1 z m 3.919,0 v 0 c 0.548,0 0.979,0.48 0.979,1 0,0.56 -0.431,1 -0.979,1 v 0 c -0.51,0 -0.98,-0.44 -0.98,-1 0,-0.52 0.47,-1 0.98,-1 z m 3.918,0 v 0 c 0.549,0 0.98,0.48 0.98,1 0,0.56 -0.431,1 -0.98,1 v 0 c -0.509,0 -0.979,-0.44 -0.979,-1 0,-0.52 0.47,-1 0.979,-1 z m 3.919,0 v 0 c 0.549,0 0.98,0.48 0.98,1 0,0.56 -0.431,1 -0.98,1 v 0 c -0.509,0 -0.98,-0.44 -0.98,-1 0,-0.52 0.471,-1 0.98,-1 z m 3.919,0 h 0.039 c 0.51,0 0.98,0.48 0.98,1 0,0.56 -0.47,1 -0.98,1 h -0.039 c -0.509,0 -0.98,-0.44 -0.98,-1 0,-0.52 0.471,-1 0.98,-1 z m 3.958,0 v 0 c 0.509,0 0.98,0.48 0.98,1 0,0.56 -0.471,1 -0.98,1 v 0 c -0.549,0 -0.98,-0.44 -0.98,-1 0,-0.52 0.431,-1 0.98,-1 z m 3.919,0 v 0 c 0.509,0 0.979,0.48 0.979,1 0,0.56 -0.47,1 -0.979,1 v 0 c -0.549,0 -0.98,-0.44 -0.98,-1 0,-0.52 0.431,-1 0.98,-1 z m 3.918,0 v 0 c 0.549,0 0.98,0.48 0.98,1 0,0.56 -0.431,1 -0.98,1 v 0 c -0.548,0 -0.979,-0.44 -0.979,-1 0,-0.52 0.431,-1 0.979,-1 z m 3.919,0 v 0 c 0.549,0 0.98,0.48 0.98,1 0,0.56 -0.431,1 -0.98,1 v 0 c -0.548,0 -0.98,-0.44 -0.98,-1 0,-0.52 0.432,-1 0.98,-1 z m 3.919,0 v 0 c 0.549,0 0.98,0.48 0.98,1 0,0.56 -0.431,1 -0.98,1 v 0 c -0.549,0 -0.98,-0.44 -0.98,-1 0,-0.52 0.431,-1 0.98,-1 z m 3.919,0 v 0 c 0.548,0 0.979,0.48 0.979,1 0,0.56 -0.431,1 -0.979,1 v 0 c -0.549,0 -0.98,-0.44 -0.98,-1 0,-0.52 0.431,-1 0.98,-1 z m 3.918,0 v 0 c 0.549,0 0.98,0.48 0.98,1 0,0.56 -0.431,1 -0.98,1 v 0 c -0.548,0 -0.979,-0.44 -0.979,-1 0,-0.52 0.431,-1 0.979,-1 z m 3.919,0 v 0 c 0.549,0 0.98,0.48 0.98,1 0,0.56 -0.431,1 -0.98,1 v 0 c -0.548,0 -0.98,-0.44 -0.98,-1 0,-0.52 0.432,-1 0.98,-1 z m 3.919,0 v 0 c 0.548,0 0.98,0.48 0.98,1 0,0.56 -0.432,1 -0.98,1 v 0 c -0.549,0 -0.98,-0.44 -0.98,-1 0,-0.52 0.431,-1 0.98,-1 z m 3.919,0 v 0 c 0.548,0 0.979,0.48 0.979,1 0,0.56 -0.431,1 -0.979,1 v 0 c -0.549,0 -0.98,-0.44 -0.98,-1 0,-0.52 0.431,-1 0.98,-1 z m 3.918,0 v 0 c 0.549,0 0.98,0.48 0.98,1 0,0.56 -0.431,1 -0.98,1 v 0 c -0.548,0 -0.979,-0.44 -0.979,-1 0,-0.52 0.431,-1 0.979,-1 z m 3.919,0 v 0 c 0.549,0 0.98,0.48 0.98,1 0,0.56 -0.431,1 -0.98,1 v 0 c -0.549,0 -0.98,-0.44 -0.98,-1 0,-0.52 0.431,-1 0.98,-1 z m 3.919,0 v 0 c 0.548,0 0.98,0.48 0.98,1 0,0.56 -0.432,1 -0.98,1 v 0 c -0.549,0 -0.98,-0.44 -0.98,-1 0,-0.52 0.431,-1 0.98,-1 z m 3.919,0 v 0 c 0.548,0 0.979,0.48 0.979,1 0,0.56 -0.431,1 -0.979,1 v 0 c -0.549,0 -0.98,-0.44 -0.98,-1 0,-0.52 0.431,-1 0.98,-1 z m 3.918,0 v 0 c 0.549,0 0.98,0.48 0.98,1 0,0.56 -0.431,1 -0.98,1 v 0 c -0.548,0 -0.979,-0.44 -0.979,-1 0,-0.52 0.431,-1 0.979,-1 z m 3.919,0 v 0 c 0.549,0 0.98,0.48 0.98,1 0,0.56 -0.431,1 -0.98,1 v 0 c -0.549,0 -0.98,-0.44 -0.98,-1 0,-0.52 0.431,-1 0.98,-1 z m 3.919,0 v 0 c 0.548,0 0.98,0.48 0.98,1 0,0.56 -0.432,1 -0.98,1 v 0 c -0.51,0 -0.98,-0.44 -0.98,-1 0,-0.52 0.47,-1 0.98,-1 z m 3.919,0 v 0 c 0.548,0 0.979,0.48 0.979,1 0,0.56 -0.431,1 -0.979,1 v 0 c -0.51,0 -0.98,-0.44 -0.98,-1 0,-0.52 0.47,-1 0.98,-1 z m 3.918,0 v 0 c 0.549,0 0.98,0.48 0.98,1 0,0.56 -0.431,1 -0.98,1 v 0 c -0.509,0 -0.979,-0.44 -0.979,-1 0,-0.52 0.47,-1 0.979,-1 z m 3.919,0 h 0.039 c 0.51,0 0.98,0.48 0.98,1 0,0.56 -0.47,1 -0.98,1 h -0.039 c -0.509,0 -0.98,-0.44 -0.98,-1 0,-0.52 0.471,-1 0.98,-1 z m 3.958,0 v 0 c 0.51,0 0.98,0.48 0.98,1 0,0.56 -0.47,1 -0.98,1 v 0 c -0.549,0 -0.98,-0.44 -0.98,-1 0,-0.52 0.431,-1 0.98,-1 z m 3.919,0 v 0 c 0.509,0 0.979,0.48 0.979,1 0,0.56 -0.47,1 -0.979,1 v 0 c -0.549,0 -0.98,-0.44 -0.98,-1 0,-0.52 0.431,-1 0.98,-1 z m 3.919,0 v 0 c 0.509,0 0.979,0.48 0.979,1 0,0.56 -0.47,1 -0.979,1 v 0 c -0.549,0 -0.98,-0.44 -0.98,-1 0,-0.52 0.431,-1 0.98,-1 z m 3.918,0 v 0 c 0.549,0 0.98,0.48 0.98,1 0,0.56 -0.431,1 -0.98,1 v 0 c -0.548,0 -0.979,-0.44 -0.979,-1 0,-0.52 0.431,-1 0.979,-1 z m 3.919,0 v 0 c 0.549,0 0.98,0.48 0.98,1 0,0.56 -0.431,1 -0.98,1 v 0 c -0.549,0 -0.98,-0.44 -0.98,-1 0,-0.52 0.431,-1 0.98,-1 z m 3.919,0 v 0 c 0.548,0 0.979,0.48 0.979,1 0,0.56 -0.431,1 -0.979,1 v 0 c -0.549,0 -0.98,-0.44 -0.98,-1 0,-0.52 0.431,-1 0.98,-1 z m 3.919,0 v 0 c 0.548,0 0.979,0.48 0.979,1 0,0.56 -0.431,1 -0.979,1 v 0 c -0.549,0 -0.98,-0.44 -0.98,-1 0,-0.52 0.431,-1 0.98,-1 z m 3.918,0 v 0 c 0.549,0 0.98,0.48 0.98,1 0,0.56 -0.431,1 -0.98,1 v 0 c -0.548,0 -0.979,-0.44 -0.979,-1 0,-0.52 0.431,-1 0.979,-1 z m 3.919,0 v 0 c 0.549,0 0.98,0.48 0.98,1 0,0.56 -0.431,1 -0.98,1 v 0 c -0.549,0 -0.98,-0.44 -0.98,-1 0,-0.52 0.431,-1 0.98,-1 z m 3.919,0 v 0 c 0.548,0 0.98,0.48 0.98,1 0,0.56 -0.432,1 -0.98,1 v 0 c -0.549,0 -0.98,-0.44 -0.98,-1 0,-0.52 0.431,-1 0.98,-1 z m 3.919,0 v 0 c 0.548,0 0.979,0.48 0.979,1 0,0.56 -0.431,1 -0.979,1 v 0 c -0.549,0 -0.98,-0.44 -0.98,-1 0,-0.52 0.431,-1 0.98,-1 z m 3.918,0 v 0 c 0.549,0 0.98,0.48 0.98,1 0,0.56 -0.431,1 -0.98,1 v 0 c -0.548,0 -0.979,-0.44 -0.979,-1 0,-0.52 0.431,-1 0.979,-1 z m 3.919,0 v 0 c 0.549,0 0.98,0.48 0.98,1 0,0.56 -0.431,1 -0.98,1 v 0 c -0.549,0 -0.98,-0.44 -0.98,-1 0,-0.52 0.431,-1 0.98,-1 z m 3.919,0 v 0 c 0.548,0 0.98,0.48 0.98,1 0,0.56 -0.432,1 -0.98,1 v 0 c -0.549,0 -0.98,-0.44 -0.98,-1 0,-0.52 0.431,-1 0.98,-1 z m 3.919,0 v 0 c 0.548,0 0.979,0.48 0.979,1 0,0.56 -0.431,1 -0.979,1 v 0 c -0.549,0 -0.98,-0.44 -0.98,-1 0,-0.52 0.431,-1 0.98,-1 z m 3.918,0 v 0 c 0.549,0 0.98,0.48 0.98,1 0,0.56 -0.431,1 -0.98,1 v 0 c -0.548,0 -0.979,-0.44 -0.979,-1 0,-0.52 0.431,-1 0.979,-1 z m 3.919,0 v 0 c 0.549,0 0.98,0.48 0.98,1 0,0.56 -0.431,1 -0.98,1 v 0 c -0.509,0 -0.98,-0.44 -0.98,-1 0,-0.52 0.471,-1 0.98,-1 z m 3.919,0 v 0 c 0.548,0 0.98,0.48 0.98,1 0,0.56 -0.432,1 -0.98,1 v 0 c -0.51,0 -0.98,-0.44 -0.98,-1 0,-0.52 0.47,-1 0.98,-1 z m 3.919,0 v 0 c 0.548,0 0.979,0.48 0.979,1 0,0.56 -0.431,1 -0.979,1 v 0 c -0.51,0 -0.98,-0.44 -0.98,-1 0,-0.52 0.47,-1 0.98,-1 z m 3.918,0 h 0.039 c 0.51,0 0.98,0.48 0.98,1 0,0.56 -0.47,1 -0.98,1 h -0.039 c -0.509,0 -0.979,-0.44 -0.979,-1 0,-0.52 0.47,-1 0.979,-1 z m 3.958,0 v 0 c 0.51,0 0.98,0.48 0.98,1 0,0.56 -0.47,1 -0.98,1 v 0 c -0.548,0 -0.979,-0.44 -0.979,-1 0,-0.52 0.431,-1 0.979,-1 z m 3.919,0 v 0 c 0.509,0 0.98,0.48 0.98,1 0,0.56 -0.471,1 -0.98,1 v 0 c -0.549,0 -0.98,-0.44 -0.98,-1 0,-0.52 0.431,-1 0.98,-1 z m 3.919,0 v 0 c 0.509,0 0.979,0.48 0.979,1 0,0.56 -0.47,1 -0.979,1 v 0 c -0.549,0 -0.98,-0.44 -0.98,-1 0,-0.52 0.431,-1 0.98,-1 z m 3.919,0 v 0 c 0.548,0 0.979,0.48 0.979,1 0,0.56 -0.431,1 -0.979,1 v 0 c -0.549,0 -0.98,-0.44 -0.98,-1 0,-0.52 0.431,-1 0.98,-1 z m 3.918,0 v 0 c 0.549,0 0.98,0.48 0.98,1 0,0.56 -0.431,1 -0.98,1 v 0 c -0.548,0 -0.979,-0.44 -0.979,-1 0,-0.52 0.431,-1 0.979,-1 z m 3.919,0 v 0 c 0.549,0 0.98,0.48 0.98,1 0,0.56 -0.431,1 -0.98,1 v 0 c -0.549,0 -0.98,-0.44 -0.98,-1 0,-0.52 0.431,-1 0.98,-1 z m 3.919,0 v 0 c 0.548,0 0.979,0.48 0.979,1 0,0.56 -0.431,1 -0.979,1 v 0 c -0.549,0 -0.98,-0.44 -0.98,-1 0,-0.52 0.431,-1 0.98,-1 z m 3.918,0 v 0 c 0.549,0 0.98,0.48 0.98,1 0,0.56 -0.431,1 -0.98,1 v 0 c -0.548,0 -0.979,-0.44 -0.979,-1 0,-0.52 0.431,-1 0.979,-1 z m 3.919,0 v 0 c 0.549,0 0.98,0.48 0.98,1 0,0.56 -0.431,1 -0.98,1 v 0 c -0.548,0 -0.979,-0.44 -0.979,-1 0,-0.52 0.431,-1 0.979,-1 z m 3.919,0 v 0 c 0.549,0 0.98,0.48 0.98,1 0,0.56 -0.431,1 -0.98,1 v 0 c -0.549,0 -0.98,-0.44 -0.98,-1 0,-0.52 0.431,-1 0.98,-1 z m 3.919,0 v 0 c 0.548,0 0.979,0.48 0.979,1 0,0.56 -0.431,1 -0.979,1 v 0 c -0.549,0 -0.98,-0.44 -0.98,-1 0,-0.52 0.431,-1 0.98,-1 z m 3.919,0 v 0 c 0.548,0 0.979,0.48 0.979,1 0,0.56 -0.431,1 -0.979,1 v 0 c -0.549,0 -0.98,-0.44 -0.98,-1 0,-0.52 0.431,-1 0.98,-1 z m 3.918,0 v 0 c 0.549,0 0.98,0.48 0.98,1 0,0.56 -0.431,1 -0.98,1 v 0 c -0.548,0 -0.979,-0.44 -0.979,-1 0,-0.52 0.431,-1 0.979,-1 z m 3.919,0 v 0 c 0.549,0 0.98,0.48 0.98,1 0,0.56 -0.431,1 -0.98,1 v 0 c -0.549,0 -0.98,-0.44 -0.98,-1 0,-0.52 0.431,-1 0.98,-1 z m 3.919,0 v 0 c 0.548,0 0.979,0.48 0.979,1 0,0.56 -0.431,1 -0.979,1 v 0 c -0.549,0 -0.98,-0.44 -0.98,-1 0,-0.52 0.431,-1 0.98,-1 z m 3.918,0 v 0 c 0.549,0 0.98,0.48 0.98,1 0,0.56 -0.431,1 -0.98,1 v 0 c -0.548,0 -0.979,-0.44 -0.979,-1 0,-0.52 0.431,-1 0.979,-1 z m 3.919,0 v 0 c 0.549,0 0.98,0.48 0.98,1 0,0.56 -0.431,1 -0.98,1 v 0 c -0.548,0 -0.979,-0.44 -0.979,-1 0,-0.52 0.431,-1 0.979,-1 z m 3.919,0 v 0 c 0.549,0 0.98,0.48 0.98,1 0,0.56 -0.431,1 -0.98,1 v 0 c -0.509,0 -0.98,-0.44 -0.98,-1 0,-0.52 0.471,-1 0.98,-1 z m 3.919,0 v 0 c 0.548,0 0.979,0.48 0.979,1 0,0.56 -0.431,1 -0.979,1 v 0 c -0.51,0 -0.98,-0.44 -0.98,-1 0,-0.52 0.47,-1 0.98,-1 z m 3.918,0 v 0 c 0.549,0 0.98,0.48 0.98,1 0,0.56 -0.431,1 -0.98,1 v 0 c -0.509,0 -0.979,-0.44 -0.979,-1 0,-0.52 0.47,-1 0.979,-1 z m 3.919,0 h 0.039 c 0.51,0 0.98,0.48 0.98,1 0,0.56 -0.47,1 -0.98,1 h -0.039 c -0.509,0 -0.979,-0.44 -0.979,-1 0,-0.52 0.47,-1 0.979,-1 z m 3.958,0 v 0 c 0.51,0 0.98,0.48 0.98,1 0,0.56 -0.47,1 -0.98,1 v 0 c -0.548,0 -0.979,-0.44 -0.979,-1 0,-0.52 0.431,-1 0.979,-1 z m 3.919,0 v 0 c 0.509,0 0.98,0.48 0.98,1 0,0.56 -0.471,1 -0.98,1 v 0 c -0.549,0 -0.98,-0.44 -0.98,-1 0,-0.52 0.431,-1 0.98,-1 z m 3.919,0 v 0 c 0.509,0 0.979,0.48 0.979,1 0,0.56 -0.47,1 -0.979,1 v 0 c -0.549,0 -0.98,-0.44 -0.98,-1 0,-0.52 0.431,-1 0.98,-1 z m 3.918,0 v 0 c 0.549,0 0.98,0.48 0.98,1 0,0.56 -0.431,1 -0.98,1 v 0 c -0.548,0 -0.979,-0.44 -0.979,-1 0,-0.52 0.431,-1 0.979,-1 z m 3.919,0 v 0 c 0.549,0 0.98,0.48 0.98,1 0,0.56 -0.431,1 -0.98,1 v 0 c -0.548,0 -0.979,-0.44 -0.979,-1 0,-0.52 0.431,-1 0.979,-1 z m 3.919,0 v 0 c 0.549,0 0.98,0.48 0.98,1 0,0.56 -0.431,1 -0.98,1 v 0 c -0.549,0 -0.98,-0.44 -0.98,-1 0,-0.52 0.431,-1 0.98,-1 z m 3.919,0 v 0 c 0.548,0 0.979,0.48 0.979,1 0,0.56 -0.431,1 -0.979,1 v 0 c -0.549,0 -0.98,-0.44 -0.98,-1 0,-0.52 0.431,-1 0.98,-1 z m 3.918,0 v 0 c 0.549,0 0.98,0.48 0.98,1 0,0.56 -0.431,1 -0.98,1 v 0 c -0.548,0 -0.979,-0.44 -0.979,-1 0,-0.52 0.431,-1 0.979,-1 z m 3.919,0 v 0 c 0.549,0 0.98,0.48 0.98,1 0,0.56 -0.431,1 -0.98,1 v 0 c -0.548,0 -0.979,-0.44 -0.979,-1 0,-0.52 0.431,-1 0.979,-1 z m 3.919,0 v 0 c 0.549,0 0.98,0.48 0.98,1 0,0.56 -0.431,1 -0.98,1 v 0 c -0.549,0 -0.98,-0.44 -0.98,-1 0,-0.52 0.431,-1 0.98,-1 z m 3.919,0 v 0 c 0.548,0 0.979,0.48 0.979,1 0,0.56 -0.431,1 -0.979,1 v 0 c -0.549,0 -0.98,-0.44 -0.98,-1 0,-0.52 0.431,-1 0.98,-1 z m 3.918,0 v 0 c 0.549,0 0.98,0.48 0.98,1 0,0.56 -0.431,1 -0.98,1 v 0 c -0.548,0 -0.979,-0.44 -0.979,-1 0,-0.52 0.431,-1 0.979,-1 z m 3.919,0 v 0 c 0.549,0 0.98,0.48 0.98,1 0,0.56 -0.431,1 -0.98,1 v 0 c -0.548,0 -0.98,-0.44 -0.98,-1 0,-0.52 0.432,-1 0.98,-1 z m 3.919,0 v 0 c 0.549,0 0.98,0.48 0.98,1 0,0.56 -0.431,1 -0.98,1 v 0 c -0.549,0 -0.98,-0.44 -0.98,-1 0,-0.52 0.431,-1 0.98,-1 z m 3.919,0 v 0 c 0.548,0 0.979,0.48 0.979,1 0,0.56 -0.431,1 -0.979,1 v 0 c -0.549,0 -0.98,-0.44 -0.98,-1 0,-0.52 0.431,-1 0.98,-1 z m 3.918,0 v 0 c 0.549,0 0.98,0.48 0.98,1 0,0.56 -0.431,1 -0.98,1 v 0 c -0.548,0 -0.979,-0.44 -0.979,-1 0,-0.52 0.431,-1 0.979,-1 z m 3.919,0 v 0 c 0.549,0 0.98,0.48 0.98,1 0,0.56 -0.431,1 -0.98,1 v 0 c -0.509,0 -0.979,-0.44 -0.979,-1 0,-0.52 0.47,-1 0.979,-1 z m 3.919,0 v 0 c 0.549,0 0.98,0.48 0.98,1 0,0.56 -0.431,1 -0.98,1 v 0 c -0.509,0 -0.98,-0.44 -0.98,-1 0,-0.52 0.471,-1 0.98,-1 z m 3.919,0 v 0 c 0.548,0 0.979,0.48 0.979,1 0,0.56 -0.431,1 -0.979,1 v 0 c -0.51,0 -0.98,-0.44 -0.98,-1 0,-0.52 0.47,-1 0.98,-1 z m 3.918,0 h 0.04 c 0.509,0 0.979,0.48 0.979,1 0,0.56 -0.47,1 -0.979,1 h -0.04 c -0.509,0 -0.979,-0.44 -0.979,-1 0,-0.52 0.47,-1 0.979,-1 z m 3.958,0 v 0 c 0.51,0 0.98,0.48 0.98,1 0,0.56 -0.47,1 -0.98,1 v 0 c -0.548,0 -0.979,-0.44 -0.979,-1 0,-0.52 0.431,-1 0.979,-1 z m 3.919,0 v 0 c 0.51,0 0.98,0.48 0.98,1 0,0.56 -0.47,1 -0.98,1 v 0 c -0.549,0 -0.98,-0.44 -0.98,-1 0,-0.52 0.431,-1 0.98,-1 z m 3.919,0 v 0 c 0.509,0 0.98,0.48 0.98,1 0,0.56 -0.471,1 -0.98,1 v 0 c -0.549,0 -0.98,-0.44 -0.98,-1 0,-0.52 0.431,-1 0.98,-1 z m 3.919,0 v 0 c 0.548,0 0.979,0.48 0.979,1 0,0.56 -0.431,1 -0.979,1 v 0 c -0.549,0 -0.98,-0.44 -0.98,-1 0,-0.52 0.431,-1 0.98,-1 z m 3.918,0 v 0 c 0.549,0 0.98,0.48 0.98,1 0,0.56 -0.431,1 -0.98,1 v 0 c -0.548,0 -0.979,-0.44 -0.979,-1 0,-0.52 0.431,-1 0.979,-1 z m 3.919,0 v 0 c 0.549,0 0.98,0.48 0.98,1 0,0.56 -0.431,1 -0.98,1 v 0 c -0.548,0 -0.98,-0.44 -0.98,-1 0,-0.52 0.432,-1 0.98,-1 z m 3.919,0 v 0 c 0.549,0 0.98,0.48 0.98,1 0,0.56 -0.431,1 -0.98,1 v 0 c -0.549,0 -0.98,-0.44 -0.98,-1 0,-0.52 0.431,-1 0.98,-1 z m 3.919,0 v 0 c 0.548,0 0.979,0.48 0.979,1 0,0.56 -0.431,1 -0.979,1 v 0 c -0.549,0 -0.98,-0.44 -0.98,-1 0,-0.52 0.431,-1 0.98,-1 z m 3.918,0 v 0 c 0.549,0 0.98,0.48 0.98,1 0,0.56 -0.431,1 -0.98,1 v 0 c -0.548,0 -0.979,-0.44 -0.979,-1 0,-0.52 0.431,-1 0.979,-1 z m 3.919,0 v 0 c 0.549,0 0.98,0.48 0.98,1 0,0.56 -0.431,1 -0.98,1 v 0 c -0.549,0 -0.98,-0.44 -0.98,-1 0,-0.52 0.431,-1 0.98,-1 z m 3.919,0 v 0 c 0.548,0 0.98,0.48 0.98,1 0,0.56 -0.432,1 -0.98,1 v 0 c -0.549,0 -0.98,-0.44 -0.98,-1 0,-0.52 0.431,-1 0.98,-1 z m 3.919,0 v 0 c 0.548,0 0.979,0.48 0.979,1 0,0.56 -0.431,1 -0.979,1 v 0 c -0.549,0 -0.98,-0.44 -0.98,-1 0,-0.52 0.431,-1 0.98,-1 z m 3.918,0 v 0 c 0.549,0 0.98,0.48 0.98,1 0,0.56 -0.431,1 -0.98,1 v 0 c -0.548,0 -0.979,-0.44 -0.979,-1 0,-0.52 0.431,-1 0.979,-1 z m 3.919,0 v 0 c 0.549,0 0.98,0.48 0.98,1 0,0.56 -0.431,1 -0.98,1 v 0 c -0.548,0 -0.98,-0.44 -0.98,-1 0,-0.52 0.432,-1 0.98,-1 z m 3.919,0 v 0 c 0.549,0 0.98,0.48 0.98,1 0,0.56 -0.431,1 -0.98,1 v 0 c -0.549,0 -0.98,-0.44 -0.98,-1 0,-0.52 0.431,-1 0.98,-1 z m 3.919,0 v 0 c 0.548,0 0.979,0.48 0.979,1 0,0.56 -0.431,1 -0.979,1 v 0 c -0.549,0 -0.98,-0.44 -0.98,-1 0,-0.52 0.431,-1 0.98,-1 z m 3.918,0 v 0 c 0.549,0 0.98,0.48 0.98,1 0,0.56 -0.431,1 -0.98,1 v 0 c -0.509,0 -0.979,-0.44 -0.979,-1 0,-0.52 0.47,-1 0.979,-1 z m 3.919,0 v 0 c 0.549,0 0.98,0.48 0.98,1 0,0.56 -0.431,1 -0.98,1 v 0 c -0.509,0 -0.98,-0.44 -0.98,-1 0,-0.52 0.471,-1 0.98,-1 z m 3.919,0 h 0.039 c 0.509,0 0.98,0.48 0.98,1 0,0.56 -0.471,1 -0.98,1 h -0.039 c -0.51,0 -0.98,-0.44 -0.98,-1 0,-0.52 0.47,-1 0.98,-1 z m 3.958,0 v 0 c 0.509,0 0.979,0.48 0.979,1 0,0.56 -0.47,1 -0.979,1 v 0 c -0.549,0 -0.98,-0.44 -0.98,-1 0,-0.52 0.431,-1 0.98,-1 z m 3.919,0 v 0 c 0.509,0 0.979,0.48 0.979,1 0,0.56 -0.47,1 -0.979,1 v 0 c -0.549,0 -0.98,-0.44 -0.98,-1 0,-0.52 0.431,-1 0.98,-1 z m 3.918,0 v 0 c 0.51,0 0.98,0.48 0.98,1 0,0.56 -0.47,1 -0.98,1 v 0 c -0.548,0 -0.979,-0.44 -0.979,-1 0,-0.52 0.431,-1 0.979,-1 z m 3.919,0 v 0 c 0.549,0 0.98,0.48 0.98,1 0,0.56 -0.431,1 -0.98,1 v 0 c -0.548,0 -0.98,-0.44 -0.98,-1 0,-0.52 0.432,-1 0.98,-1 z m 3.919,0 v 0 c 0.548,0 0.98,0.48 0.98,1 0,0.56 -0.432,1 -0.98,1 v 0 c -0.549,0 -0.98,-0.44 -0.98,-1 0,-0.52 0.431,-1 0.98,-1 z m 3.915,0 v 0 c 0.55,0 0.98,0.48 0.98,1 0,0.56 -0.43,1 -0.98,1 v 0 c -0.55,0 -0.98,-0.44 -0.98,-1 0,-0.52 0.43,-1 0.98,-1 z m 3.92,0 v 0 c 0.55,0 0.98,0.48 0.98,1 0,0.56 -0.43,1 -0.98,1 v 0 c -0.55,0 -0.98,-0.44 -0.98,-1 0,-0.52 0.43,-1 0.98,-1 z m 3.92,0 v 0 c 0.55,0 0.98,0.48 0.98,1 0,0.56 -0.43,1 -0.98,1 v 0 c -0.55,0 -0.98,-0.44 -0.98,-1 0,-0.52 0.43,-1 0.98,-1 z m 3.92,0 v 0 c 0.55,0 0.98,0.48 0.98,1 0,0.56 -0.43,1 -0.98,1 v 0 c -0.55,0 -0.98,-0.44 -0.98,-1 0,-0.52 0.43,-1 0.98,-1 z m 3.92,0 v 0 c 0.55,0 0.98,0.48 0.98,1 0,0.56 -0.43,1 -0.98,1 v 0 c -0.55,0 -0.98,-0.44 -0.98,-1 0,-0.52 0.43,-1 0.98,-1 z m 3.92,0 v 0 c 0.55,0 0.98,0.48 0.98,1 0,0.56 -0.43,1 -0.98,1 v 0 c -0.55,0 -0.98,-0.44 -0.98,-1 0,-0.52 0.43,-1 0.98,-1 z m 3.92,0 v 0 c 0.54,0 0.98,0.48 0.98,1 0,0.56 -0.44,1 -0.98,1 v 0 c -0.55,0 -0.98,-0.44 -0.98,-1 0,-0.52 0.43,-1 0.98,-1 z m 3.91,0 v 0 c 0.55,0 0.98,0.48 0.98,1 0,0.56 -0.43,1 -0.98,1 v 0 c -0.54,0 -0.97,-0.44 -0.97,-1 0,-0.52 0.43,-1 0.97,-1 z m 3.92,0 v 0 c 0.55,0 0.98,0.48 0.98,1 0,0.56 -0.43,1 -0.98,1 v 0 c -0.54,0 -0.98,-0.44 -0.98,-1 0,-0.52 0.44,-1 0.98,-1 z m 3.92,0 v 0 c 0.55,0 0.98,0.48 0.98,1 0,0.56 -0.43,1 -0.98,1 v 0 c -0.55,0 -0.98,-0.44 -0.98,-1 0,-0.52 0.43,-1 0.98,-1 z m 3.92,0 v 0 c 0.55,0 0.98,0.48 0.98,1 0,0.56 -0.43,1 -0.98,1 v 0 c -0.55,0 -0.98,-0.44 -0.98,-1 0,-0.52 0.43,-1 0.98,-1 z m 3.92,0 v 0 c 0.55,0 0.98,0.48 0.98,1 0,0.56 -0.43,1 -0.98,1 v 0 c -0.51,0 -0.98,-0.44 -0.98,-1 0,-0.52 0.47,-1 0.98,-1 z m 3.92,0 v 0 c 0.55,0 0.98,0.48 0.98,1 0,0.56 -0.43,1 -0.98,1 v 0 c -0.51,0 -0.98,-0.44 -0.98,-1 0,-0.52 0.47,-1 0.98,-1 z m 3.92,0 v 0 c 0.55,0 0.98,0.48 0.98,1 0,0.56 -0.43,1 -0.98,1 v 0 c -0.51,0 -0.98,-0.44 -0.98,-1 0,-0.52 0.47,-1 0.98,-1 z m 3.92,0 h 0.04 c 0.5,0 0.97,0.48 0.97,1 0,0.56 -0.47,1 -0.97,1 h -0.04 c -0.51,0 -0.98,-0.44 -0.98,-1 0,-0.52 0.47,-1 0.98,-1 z m 3.95,0 v 0 c 0.51,0 0.98,0.48 0.98,1 0,0.56 -0.47,1 -0.98,1 v 0 c -0.54,0 -0.98,-0.44 -0.98,-1 0,-0.52 0.44,-1 0.98,-1 z m 3.92,0 v 0 c 0.51,0 0.98,0.48 0.98,1 0,0.56 -0.47,1 -0.98,1 v 0 c -0.55,0 -0.98,-0.44 -0.98,-1 0,-0.52 0.43,-1 0.98,-1 z m 3.92,0 v 0 c 0.55,0 0.98,0.48 0.98,1 0,0.56 -0.43,1 -0.98,1 v 0 c -0.55,0 -0.98,-0.44 -0.98,-1 0,-0.52 0.43,-1 0.98,-1 z m 3.92,0 v 0 c 0.55,0 0.98,0.48 0.98,1 0,0.56 -0.43,1 -0.98,1 v 0 c -0.55,0 -0.98,-0.44 -0.98,-1 0,-0.52 0.43,-1 0.98,-1 z m 3.92,0 v 0 c 0.55,0 0.98,0.48 0.98,1 0,0.56 -0.43,1 -0.98,1 v 0 c -0.55,0 -0.98,-0.44 -0.98,-1 0,-0.52 0.43,-1 0.98,-1 z m 3.92,0 v 0 c 0.55,0 0.98,0.48 0.98,1 0,0.56 -0.43,1 -0.98,1 v 0 c -0.55,0 -0.98,-0.44 -0.98,-1 0,-0.52 0.43,-1 0.98,-1 z m 3.92,0 v 0 c 0.55,0 0.98,0.48 0.98,1 0,0.56 -0.43,1 -0.98,1 v 0 c -0.55,0 -0.98,-0.44 -0.98,-1 0,-0.52 0.43,-1 0.98,-1 z m 3.92,0 v 0 c 0.54,0 0.97,0.48 0.97,1 0,0.56 -0.43,1 -0.97,1 v 0 c -0.55,0 -0.98,-0.44 -0.98,-1 0,-0.52 0.43,-1 0.98,-1 z m 3.91,0 v 0 c 0.55,0 0.98,0.48 0.98,1 0,0.56 -0.43,1 -0.98,1 v 0 c -0.54,0 -0.98,-0.44 -0.98,-1 0,-0.52 0.44,-1 0.98,-1 z m 3.92,0 v 0 c 0.55,0 0.98,0.48 0.98,1 0,0.56 -0.43,1 -0.98,1 v 0 c -0.55,0 -0.98,-0.44 -0.98,-1 0,-0.52 0.43,-1 0.98,-1 z m 3.92,0 v 0 c 0.55,0 0.98,0.48 0.98,1 0,0.56 -0.43,1 -0.98,1 v 0 c -0.55,0 -0.98,-0.44 -0.98,-1 0,-0.52 0.43,-1 0.98,-1 z m 3.92,0 v 0 c 0.55,0 0.98,0.48 0.98,1 0,0.56 -0.43,1 -0.98,1 v 0 c -0.55,0 -0.98,-0.44 -0.98,-1 0,-0.52 0.43,-1 0.98,-1 z m 3.92,0 v 0 c 0.55,0 0.98,0.48 0.98,1 0,0.56 -0.43,1 -0.98,1 v 0 c -0.55,0 -0.98,-0.44 -0.98,-1 0,-0.52 0.43,-1 0.98,-1 z m 3.92,0 v 0 c 0.55,0 0.98,0.48 0.98,1 0,0.56 -0.43,1 -0.98,1 v 0 c -0.55,0 -0.98,-0.44 -0.98,-1 0,-0.52 0.43,-1 0.98,-1 z m 3.92,0 v 0 c 0.55,0 0.98,0.48 0.98,1 0,0.56 -0.43,1 -0.98,1 v 0 c -0.55,0 -0.98,-0.44 -0.98,-1 0,-0.52 0.43,-1 0.98,-1 z m 3.92,0 v 0 c 0.54,0 0.98,0.48 0.98,1 0,0.56 -0.44,1 -0.98,1 v 0 c -0.51,0 -0.98,-0.44 -0.98,-1 0,-0.52 0.47,-1 0.98,-1 z m 3.91,0 v 0 c 0.55,0 0.98,0.48 0.98,1 0,0.56 -0.43,1 -0.98,1 v 0 c -0.51,0 -0.98,-0.44 -0.98,-1 0,-0.52 0.47,-1 0.98,-1 z m 3.92,0 h 0.04 c 0.51,0 0.98,0.48 0.98,1 0,0.56 -0.47,1 -0.98,1 h -0.04 c -0.51,0 -0.98,-0.44 -0.98,-1 0,-0.52 0.47,-1 0.98,-1 z m 3.96,0 v 0 c 0.51,0 0.98,0.48 0.98,1 0,0.56 -0.47,1 -0.98,1 v 0 c -0.55,0 -0.98,-0.44 -0.98,-1 0,-0.52 0.43,-1 0.98,-1 z m -597.295,9 -15.675,-8 15.675,-8 z m 595.645,-16 15.68,8 -15.68,8 z"
       stroke="#000000"
       stroke-width="0.6875"
       stroke-linejoin="bevel"
       stroke-miterlimit="10"
       fill-rule="evenodd"
       id="path18" /><text
       font-family="'Times New Roman', 'Times New Roman_MSFontService', sans-serif"
       font-weight="400"
       font-size="32px"
       id="text18"
       x="817.60413"
       y="574">D(t)</text><text
       font-family="'Times New Roman', 'Times New Roman_MSFontService', sans-serif"
       font-weight="400"
       font-size="32px"
       id="text19"
       x="519.89575"
       y="1085">B(t)</text><text
       font-family="Times New Roman,Times New Roman_MSFontService,sans-serif"
       font-weight="700"
       font-size="37"
       id="text20"
       style="font-style:normal;font-variant:normal;font-weight:bold;font-stretch:normal;font-size:37px;font-family:'Times New Roman', 'Times New Roman_MSFontService', sans-serif;-inkscape-font-specification:'Times New Roman, Times New Roman_MSFontService, sans-serif, Bold';font-variant-ligatures:normal;font-variant-caps:normal;font-variant-numeric:normal;font-variant-east-asian:normal"
       x="144.31227"
       y="161"><tspan
         id="tspan114"
         x="144.31227"
         y="161">Example IV.2.a and IV.2.a’:</tspan></text><g
       id="g120"
       transform="translate(-74.999875)"><text
         font-family="Times New Roman,Times New Roman_MSFontService,sans-serif"
         font-weight="400"
         font-size="32"
         transform="translate(219.312,239)"
         id="text33"
         style="font-style:normal;font-variant:normal;font-weight:normal;font-stretch:normal;font-size:32px;font-family:'Times New Roman', 'Times New Roman_MSFontService', sans-serif;-inkscape-font-specification:'Times New Roman, Times New Roman_MSFontService, sans-serif, Normal';font-variant-ligatures:normal;font-variant-caps:normal;font-variant-numeric:normal;font-variant-east-asian:normal"><tspan
           id="tspan115"
           x="0"
           y="0">D(t)=8, ILED=4</tspan></text><text
         font-family="Times New Roman,Times New Roman_MSFontService,sans-serif"
         font-weight="400"
         font-size="32"
         transform="translate(219.312,276)"
         id="text38"
         style="font-style:normal;font-variant:normal;font-weight:normal;font-stretch:normal;font-size:32px;font-family:'Times New Roman', 'Times New Roman_MSFontService', sans-serif;-inkscape-font-specification:'Times New Roman, Times New Roman_MSFontService, sans-serif, Normal';font-variant-ligatures:normal;font-variant-caps:normal;font-variant-numeric:normal;font-variant-east-asian:normal"><tspan
           id="tspan116"
           x="0"
           y="0">TLIFE=6, DLAG=2</tspan></text></g><text
       font-family="'Times New Roman', 'Times New Roman_MSFontService', sans-serif"
       font-weight="400"
       font-size="32px"
       id="text43"
       x="1447.1198"
       y="178">Construction</text><g
       id="g118"
       transform="translate(-73.999625)"><text
         font-family="Times New Roman,Times New Roman_MSFontService,sans-serif"
         font-weight="400"
         font-size="32"
         transform="translate(1522.12,291)"
         id="text44"
         style="font-style:normal;font-variant:normal;font-weight:normal;font-stretch:normal;font-size:32px;font-family:'Times New Roman', 'Times New Roman_MSFontService', sans-serif;-inkscape-font-specification:'Times New Roman, Times New Roman_MSFontService, sans-serif, Normal';font-variant-ligatures:normal;font-variant-caps:normal;font-variant-numeric:normal;font-variant-east-asian:normal"><tspan
           id="tspan117"
           x="0"
           y="0">Fixed cost</tspan></text><text
         font-family="Times New Roman,Times New Roman_MSFontService,sans-serif"
         font-weight="400"
         font-size="32"
         transform="translate(1522.12,328)"
         id="text46"
         style="font-style:normal;font-variant:normal;font-weight:normal;font-stretch:normal;font-size:32px;font-family:'Times New Roman', 'Times New Roman_MSFontService', sans-serif;-inkscape-font-specification:'Times New Roman, Times New Roman_MSFontService, sans-serif, Normal';font-variant-ligatures:normal;font-variant-caps:normal;font-variant-numeric:normal;font-variant-east-asian:normal"><tspan
           id="tspan118"
           x="0"
           y="0">Payment only</tspan></text></g><g
       id="g119"
       transform="translate(-75.000125)"><text
         font-family="'Times New Roman', 'Times New Roman_MSFontService', sans-serif"
         font-weight="400"
         font-size="32px"
         transform="translate(1522.12,440)"
         id="text48">Surveillance</text><text
         font-family="Times New Roman,Times New Roman_MSFontService,sans-serif"
         font-weight="400"
         font-size="32"
         transform="translate(1522.12,477)"
         id="text49"
         style="font-style:normal;font-variant:normal;font-weight:normal;font-stretch:normal;font-size:32px;font-family:'Times New Roman', 'Times New Roman_MSFontService', sans-serif;-inkscape-font-specification:'Times New Roman, Times New Roman_MSFontService, sans-serif, Normal';font-variant-ligatures:normal;font-variant-caps:normal;font-variant-numeric:normal;font-variant-east-asian:normal"><tspan
           id="tspan119"
           x="0"
           y="0">Cost payment</tspan></text><text
         font-family="'Times New Roman', 'Times New Roman_MSFontService', sans-serif"
         font-weight="400"
         font-size="32px"
         transform="translate(1522.12,515)"
         id="text51">only</text></g><path
       d="m 530.609,667.5 v 0 c 0.55,0 0.982,0.44 0.982,1 0,0.56 -0.432,1 -0.982,1 v 0 c -0.549,0 -0.981,-0.44 -0.981,-1 0,-0.56 0.432,-1 0.981,-1 z m 3.925,0 v 0 c 0.55,0 0.982,0.44 0.982,1 0,0.56 -0.432,1 -0.982,1 v 0 c -0.549,0 -0.981,-0.44 -0.981,-1 0,-0.56 0.432,-1 0.981,-1 z m 3.925,0 v 0 c 0.55,0 0.982,0.44 0.982,1 0,0.56 -0.432,1 -0.982,1 v 0 c -0.549,0 -0.981,-0.44 -0.981,-1 0,-0.56 0.432,-1 0.981,-1 z m 3.925,0 v 0 c 0.55,0 0.982,0.44 0.982,1 0,0.56 -0.432,1 -0.982,1 v 0 c -0.549,0 -0.981,-0.44 -0.981,-1 0,-0.56 0.432,-1 0.981,-1 z m 3.925,0 v 0 c 0.55,0 0.982,0.44 0.982,1 0,0.56 -0.432,1 -0.982,1 v 0 c -0.549,0 -0.981,-0.44 -0.981,-1 0,-0.56 0.432,-1 0.981,-1 z m 3.925,0 v 0 c 0.55,0 0.982,0.44 0.982,1 0,0.56 -0.432,1 -0.982,1 v 0 c -0.549,0 -0.981,-0.44 -0.981,-1 0,-0.56 0.432,-1 0.981,-1 z m 3.925,0 v 0 c 0.55,0 0.982,0.44 0.982,1 0,0.56 -0.432,1 -0.982,1 v 0 c -0.549,0 -0.981,-0.44 -0.981,-1 0,-0.56 0.432,-1 0.981,-1 z m 3.925,0 v 0 c 0.55,0 0.982,0.44 0.982,1 0,0.56 -0.432,1 -0.982,1 v 0 c -0.549,0 -0.981,-0.44 -0.981,-1 0,-0.56 0.432,-1 0.981,-1 z m 3.925,0 v 0 c 0.55,0 0.982,0.44 0.982,1 0,0.56 -0.432,1 -0.982,1 v 0 c -0.549,0 -0.981,-0.44 -0.981,-1 0,-0.56 0.432,-1 0.981,-1 z m 3.925,0 v 0 c 0.55,0 0.982,0.44 0.982,1 0,0.56 -0.432,1 -0.982,1 v 0 c -0.549,0 -0.981,-0.44 -0.981,-1 0,-0.56 0.432,-1 0.981,-1 z m 3.925,0 v 0 c 0.55,0 0.982,0.44 0.982,1 0,0.56 -0.432,1 -0.982,1 v 0 c -0.549,0 -0.981,-0.44 -0.981,-1 0,-0.56 0.432,-1 0.981,-1 z m 3.925,0 v 0 c 0.55,0 0.982,0.44 0.982,1 0,0.56 -0.432,1 -0.982,1 v 0 c -0.51,0 -0.981,-0.44 -0.981,-1 0,-0.56 0.471,-1 0.981,-1 z m 3.925,0 v 0 c 0.55,0 0.982,0.44 0.982,1 0,0.56 -0.432,1 -0.982,1 v 0 c -0.51,0 -0.981,-0.44 -0.981,-1 0,-0.56 0.471,-1 0.981,-1 z m 3.925,0 v 0 c 0.55,0 0.982,0.44 0.982,1 0,0.56 -0.432,1 -0.982,1 v 0 c -0.51,0 -0.981,-0.44 -0.981,-1 0,-0.56 0.471,-1 0.981,-1 z m 3.925,0 h 0.04 c 0.51,0 0.981,0.44 0.981,1 0,0.56 -0.471,1 -0.981,1 h -0.04 c -0.51,0 -0.981,-0.44 -0.981,-1 0,-0.56 0.471,-1 0.981,-1 z m 3.965,0 v 0 c 0.51,0 0.981,0.44 0.981,1 0,0.56 -0.471,1 -0.981,1 v 0 c -0.55,0 -0.982,-0.44 -0.982,-1 0,-0.56 0.432,-1 0.982,-1 z m 3.925,0 v 0 c 0.51,0 0.981,0.44 0.981,1 0,0.56 -0.471,1 -0.981,1 v 0 c -0.55,0 -0.982,-0.44 -0.982,-1 0,-0.56 0.432,-1 0.982,-1 z m 3.925,0 v 0 c 0.549,0 0.981,0.44 0.981,1 0,0.56 -0.432,1 -0.981,1 v 0 c -0.55,0 -0.982,-0.44 -0.982,-1 0,-0.56 0.432,-1 0.982,-1 z m 3.925,0 v 0 c 0.549,0 0.981,0.44 0.981,1 0,0.56 -0.432,1 -0.981,1 v 0 c -0.55,0 -0.982,-0.44 -0.982,-1 0,-0.56 0.432,-1 0.982,-1 z m 3.925,0 v 0 c 0.549,0 0.981,0.44 0.981,1 0,0.56 -0.432,1 -0.981,1 v 0 c -0.55,0 -0.982,-0.44 -0.982,-1 0,-0.56 0.432,-1 0.982,-1 z m 3.925,0 v 0 c 0.549,0 0.981,0.44 0.981,1 0,0.56 -0.432,1 -0.981,1 v 0 c -0.55,0 -0.982,-0.44 -0.982,-1 0,-0.56 0.432,-1 0.982,-1 z m 3.925,0 v 0 c 0.549,0 0.981,0.44 0.981,1 0,0.56 -0.432,1 -0.981,1 v 0 c -0.55,0 -0.982,-0.44 -0.982,-1 0,-0.56 0.432,-1 0.982,-1 z m 3.925,0 v 0 c 0.549,0 0.981,0.44 0.981,1 0,0.56 -0.432,1 -0.981,1 v 0 c -0.55,0 -0.982,-0.44 -0.982,-1 0,-0.56 0.432,-1 0.982,-1 z m 3.925,0 v 0 c 0.549,0 0.981,0.44 0.981,1 0,0.56 -0.432,1 -0.981,1 v 0 c -0.55,0 -0.982,-0.44 -0.982,-1 0,-0.56 0.432,-1 0.982,-1 z m 3.925,0 v 0 c 0.549,0 0.981,0.44 0.981,1 0,0.56 -0.432,1 -0.981,1 v 0 c -0.55,0 -0.982,-0.44 -0.982,-1 0,-0.56 0.432,-1 0.982,-1 z m 3.925,0 v 0 c 0.549,0 0.981,0.44 0.981,1 0,0.56 -0.432,1 -0.981,1 v 0 c -0.55,0 -0.982,-0.44 -0.982,-1 0,-0.56 0.432,-1 0.982,-1 z m 3.925,0 v 0 c 0.549,0 0.981,0.44 0.981,1 0,0.56 -0.432,1 -0.981,1 v 0 c -0.55,0 -0.982,-0.44 -0.982,-1 0,-0.56 0.432,-1 0.982,-1 z m 3.925,0 v 0 c 0.549,0 0.981,0.44 0.981,1 0,0.56 -0.432,1 -0.981,1 v 0 c -0.55,0 -0.982,-0.44 -0.982,-1 0,-0.56 0.432,-1 0.982,-1 z m 3.925,0 v 0 c 0.549,0 0.981,0.44 0.981,1 0,0.56 -0.432,1 -0.981,1 v 0 c -0.55,0 -0.982,-0.44 -0.982,-1 0,-0.56 0.432,-1 0.982,-1 z m 3.925,0 v 0 c 0.549,0 0.981,0.44 0.981,1 0,0.56 -0.432,1 -0.981,1 v 0 c -0.55,0 -0.982,-0.44 -0.982,-1 0,-0.56 0.432,-1 0.982,-1 z m 3.925,0 v 0 c 0.549,0 0.981,0.44 0.981,1 0,0.56 -0.432,1 -0.981,1 v 0 c -0.55,0 -0.982,-0.44 -0.982,-1 0,-0.56 0.432,-1 0.982,-1 z m 3.925,0 v 0 c 0.549,0 0.981,0.44 0.981,1 0,0.56 -0.432,1 -0.981,1 v 0 c -0.511,0 -0.982,-0.44 -0.982,-1 0,-0.56 0.471,-1 0.982,-1 z m 3.925,0 v 0 c 0.549,0 0.981,0.44 0.981,1 0,0.56 -0.432,1 -0.981,1 v 0 c -0.511,0 -0.982,-0.44 -0.982,-1 0,-0.56 0.471,-1 0.982,-1 z m 3.925,0 v 0 c 0.549,0 0.981,0.44 0.981,1 0,0.56 -0.432,1 -0.981,1 v 0 c -0.511,0 -0.982,-0.44 -0.982,-1 0,-0.56 0.471,-1 0.982,-1 z m 3.925,0 h 0.039 c 0.51,0 0.981,0.44 0.981,1 0,0.56 -0.471,1 -0.981,1 h -0.039 c -0.511,0 -0.982,-0.44 -0.982,-1 0,-0.56 0.471,-1 0.982,-1 z m 3.964,0 v 0 c 0.51,0 0.981,0.44 0.981,1 0,0.56 -0.471,1 -0.981,1 v 0 c -0.55,0 -0.981,-0.44 -0.981,-1 0,-0.56 0.431,-1 0.981,-1 z m 3.925,0 v 0 c 0.51,0 0.981,0.44 0.981,1 0,0.56 -0.471,1 -0.981,1 v 0 c -0.55,0 -0.981,-0.44 -0.981,-1 0,-0.56 0.431,-1 0.981,-1 z m 3.925,0 v 0 c 0.51,0 0.981,0.44 0.981,1 0,0.56 -0.471,1 -0.981,1 v 0 c -0.55,0 -0.981,-0.44 -0.981,-1 0,-0.56 0.431,-1 0.981,-1 z m 3.925,0 v 0 c 0.549,0 0.981,0.44 0.981,1 0,0.56 -0.432,1 -0.981,1 v 0 c -0.55,0 -0.981,-0.44 -0.981,-1 0,-0.56 0.431,-1 0.981,-1 z m 3.925,0 v 0 c 0.549,0 0.981,0.44 0.981,1 0,0.56 -0.432,1 -0.981,1 v 0 c -0.55,0 -0.981,-0.44 -0.981,-1 0,-0.56 0.431,-1 0.981,-1 z m 3.925,0 v 0 c 0.549,0 0.981,0.44 0.981,1 0,0.56 -0.432,1 -0.981,1 v 0 c -0.55,0 -0.981,-0.44 -0.981,-1 0,-0.56 0.431,-1 0.981,-1 z m 3.925,0 v 0 c 0.549,0 0.981,0.44 0.981,1 0,0.56 -0.432,1 -0.981,1 v 0 c -0.55,0 -0.981,-0.44 -0.981,-1 0,-0.56 0.431,-1 0.981,-1 z m 3.925,0 v 0 c 0.549,0 0.981,0.44 0.981,1 0,0.56 -0.432,1 -0.981,1 v 0 c -0.55,0 -0.981,-0.44 -0.981,-1 0,-0.56 0.431,-1 0.981,-1 z m 3.925,0 v 0 c 0.549,0 0.981,0.44 0.981,1 0,0.56 -0.432,1 -0.981,1 v 0 c -0.55,0 -0.981,-0.44 -0.981,-1 0,-0.56 0.431,-1 0.981,-1 z m 3.925,0 v 0 c 0.549,0 0.981,0.44 0.981,1 0,0.56 -0.432,1 -0.981,1 v 0 c -0.55,0 -0.981,-0.44 -0.981,-1 0,-0.56 0.431,-1 0.981,-1 z m 3.925,0 v 0 c 0.549,0 0.981,0.44 0.981,1 0,0.56 -0.432,1 -0.981,1 v 0 c -0.55,0 -0.981,-0.44 -0.981,-1 0,-0.56 0.431,-1 0.981,-1 z m 3.925,0 v 0 c 0.549,0 0.981,0.44 0.981,1 0,0.56 -0.432,1 -0.981,1 v 0 c -0.55,0 -0.981,-0.44 -0.981,-1 0,-0.56 0.431,-1 0.981,-1 z m 3.925,0 v 0 c 0.549,0 0.981,0.44 0.981,1 0,0.56 -0.432,1 -0.981,1 v 0 c -0.55,0 -0.981,-0.44 -0.981,-1 0,-0.56 0.431,-1 0.981,-1 z m 3.925,0 v 0 c 0.549,0 0.981,0.44 0.981,1 0,0.56 -0.432,1 -0.981,1 v 0 c -0.55,0 -0.981,-0.44 -0.981,-1 0,-0.56 0.431,-1 0.981,-1 z m 3.925,0 v 0 c 0.549,0 0.981,0.44 0.981,1 0,0.56 -0.432,1 -0.981,1 v 0 c -0.55,0 -0.981,-0.44 -0.981,-1 0,-0.56 0.431,-1 0.981,-1 z m 3.925,0 v 0 c 0.549,0 0.981,0.44 0.981,1 0,0.56 -0.432,1 -0.981,1 v 0 c -0.55,0 -0.981,-0.44 -0.981,-1 0,-0.56 0.431,-1 0.981,-1 z m 3.925,0 v 0 c 0.549,0 0.981,0.44 0.981,1 0,0.56 -0.432,1 -0.981,1 v 0 c -0.51,0 -0.981,-0.44 -0.981,-1 0,-0.56 0.471,-1 0.981,-1 z m 3.925,0 v 0 c 0.549,0 0.981,0.44 0.981,1 0,0.56 -0.432,1 -0.981,1 v 0 c -0.51,0 -0.981,-0.44 -0.981,-1 0,-0.56 0.471,-1 0.981,-1 z m 3.925,0 v 0 c 0.549,0 0.981,0.44 0.981,1 0,0.56 -0.432,1 -0.981,1 v 0 c -0.51,0 -0.981,-0.44 -0.981,-1 0,-0.56 0.471,-1 0.981,-1 z m 3.925,0 h 0.039 c 0.51,0 0.981,0.44 0.981,1 0,0.56 -0.471,1 -0.981,1 h -0.039 c -0.51,0 -0.981,-0.44 -0.981,-1 0,-0.56 0.471,-1 0.981,-1 z m 3.964,0 v 0 c 0.51,0 0.981,0.44 0.981,1 0,0.56 -0.471,1 -0.981,1 v 0 c -0.549,0 -0.981,-0.44 -0.981,-1 0,-0.56 0.432,-1 0.981,-1 z m 3.925,0 v 0 c 0.51,0 0.981,0.44 0.981,1 0,0.56 -0.471,1 -0.981,1 v 0 c -0.549,0 -0.981,-0.44 -0.981,-1 0,-0.56 0.432,-1 0.981,-1 z m 3.925,0 v 0 c 0.51,0 0.981,0.44 0.981,1 0,0.56 -0.471,1 -0.981,1 v 0 c -0.549,0 -0.981,-0.44 -0.981,-1 0,-0.56 0.432,-1 0.981,-1 z m 3.925,0 v 0 c 0.55,0 0.981,0.44 0.981,1 0,0.56 -0.431,1 -0.981,1 v 0 c -0.549,0 -0.981,-0.44 -0.981,-1 0,-0.56 0.432,-1 0.981,-1 z m 3.925,0 v 0 c 0.55,0 0.981,0.44 0.981,1 0,0.56 -0.431,1 -0.981,1 v 0 c -0.549,0 -0.981,-0.44 -0.981,-1 0,-0.56 0.432,-1 0.981,-1 z m 3.925,0 v 0 c 0.55,0 0.981,0.44 0.981,1 0,0.56 -0.431,1 -0.981,1 v 0 c -0.549,0 -0.981,-0.44 -0.981,-1 0,-0.56 0.432,-1 0.981,-1 z m 3.925,0 v 0 c 0.55,0 0.981,0.44 0.981,1 0,0.56 -0.431,1 -0.981,1 v 0 c -0.549,0 -0.981,-0.44 -0.981,-1 0,-0.56 0.432,-1 0.981,-1 z m 3.925,0 v 0 c 0.55,0 0.981,0.44 0.981,1 0,0.56 -0.431,1 -0.981,1 v 0 c -0.549,0 -0.981,-0.44 -0.981,-1 0,-0.56 0.432,-1 0.981,-1 z m 3.925,0 v 0 c 0.55,0 0.981,0.44 0.981,1 0,0.56 -0.431,1 -0.981,1 v 0 c -0.549,0 -0.981,-0.44 -0.981,-1 0,-0.56 0.432,-1 0.981,-1 z m 3.925,0 v 0 c 0.55,0 0.981,0.44 0.981,1 0,0.56 -0.431,1 -0.981,1 v 0 c -0.549,0 -0.981,-0.44 -0.981,-1 0,-0.56 0.432,-1 0.981,-1 z m 3.925,0 v 0 c 0.55,0 0.981,0.44 0.981,1 0,0.56 -0.431,1 -0.981,1 v 0 c -0.549,0 -0.981,-0.44 -0.981,-1 0,-0.56 0.432,-1 0.981,-1 z m 3.925,0 v 0 c 0.55,0 0.981,0.44 0.981,1 0,0.56 -0.431,1 -0.981,1 v 0 c -0.549,0 -0.981,-0.44 -0.981,-1 0,-0.56 0.432,-1 0.981,-1 z m 3.925,0 v 0 c 0.55,0 0.981,0.44 0.981,1 0,0.56 -0.431,1 -0.981,1 v 0 c -0.549,0 -0.981,-0.44 -0.981,-1 0,-0.56 0.432,-1 0.981,-1 z m 3.925,0 v 0 c 0.55,0 0.982,0.44 0.982,1 0,0.56 -0.432,1 -0.982,1 v 0 c -0.549,0 -0.981,-0.44 -0.981,-1 0,-0.56 0.432,-1 0.981,-1 z m 3.925,0 v 0 c 0.55,0 0.982,0.44 0.982,1 0,0.56 -0.432,1 -0.982,1 v 0 c -0.549,0 -0.981,-0.44 -0.981,-1 0,-0.56 0.432,-1 0.981,-1 z m 3.925,0 v 0 c 0.55,0 0.981,0.44 0.981,1 0,0.56 -0.431,1 -0.981,1 v 0 c -0.549,0 -0.981,-0.44 -0.981,-1 0,-0.56 0.432,-1 0.981,-1 z m 3.925,0 v 0 c 0.55,0 0.982,0.44 0.982,1 0,0.56 -0.432,1 -0.982,1 v 0 c -0.51,0 -0.981,-0.44 -0.981,-1 0,-0.56 0.471,-1 0.981,-1 z m 3.925,0 v 0 c 0.55,0 0.981,0.44 0.981,1 0,0.56 -0.431,1 -0.981,1 v 0 c -0.51,0 -0.981,-0.44 -0.981,-1 0,-0.56 0.471,-1 0.981,-1 z m 3.925,0 h 0.04 c 0.51,0 0.981,0.44 0.981,1 0,0.56 -0.471,1 -0.981,1 h -0.04 c -0.51,0 -0.981,-0.44 -0.981,-1 0,-0.56 0.471,-1 0.981,-1 z m -284.052,9 -15.7,-8 15.7,-8 z m 282.6,-16 15.7,8 -15.7,8 z"
       stroke="#000000"
       stroke-width="0.6875"
       stroke-linejoin="bevel"
       stroke-miterlimit="10"
       fill-rule="evenodd"
       id="path54" /><text
       font-family="'Times New Roman', 'Times New Roman_MSFontService', sans-serif"
       font-weight="400"
       font-size="32px"
       id="text54"
       x="649.62512"
       y="654">ILED</text><path
       d="m 844.582,691.1 v 0 c 0.548,0 1.018,0.45 1.018,0.9 0,0.525 -0.47,0.975 -1.018,0.975 v 0 c -0.549,0 -0.94,-0.45 -0.94,-0.975 0,-0.45 0.391,-0.9 0.94,-0.9 z m 3.916,0 v 0 c 0.549,0 1.019,0.45 1.019,0.9 0,0.525 -0.47,0.975 -1.019,0.975 v 0 c -0.548,0 -0.94,-0.45 -0.94,-0.975 0,-0.45 0.392,-0.9 0.94,-0.9 z m 3.917,0 v 0 c 0.548,0 1.018,0.45 1.018,0.9 0,0.525 -0.47,0.975 -1.018,0.975 v 0 c -0.548,0 -0.94,-0.45 -0.94,-0.975 0,-0.45 0.392,-0.9 0.94,-0.9 z m 3.917,0 v 0 c 0.548,0 1.018,0.45 1.018,0.9 0,0.525 -0.47,0.975 -1.018,0.975 v 0 c -0.549,0 -0.94,-0.45 -0.94,-0.975 0,-0.45 0.391,-0.9 0.94,-0.9 z m 3.916,0 v 0 c 0.549,0 1.019,0.45 1.019,0.9 0,0.525 -0.47,0.975 -1.019,0.975 v 0 c -0.548,0 -0.94,-0.45 -0.94,-0.975 0,-0.45 0.392,-0.9 0.94,-0.9 z m 3.917,0 v 0 c 0.548,0 1.018,0.45 1.018,0.9 0,0.525 -0.47,0.975 -1.018,0.975 v 0 c -0.548,0 -0.94,-0.45 -0.94,-0.975 0,-0.45 0.392,-0.9 0.94,-0.9 z m 3.917,0 v 0 c 0.548,0 1.018,0.45 1.018,0.9 0,0.525 -0.47,0.975 -1.018,0.975 v 0 c -0.549,0 -0.94,-0.45 -0.94,-0.975 0,-0.45 0.391,-0.9 0.94,-0.9 z m 3.916,0 v 0 c 0.549,0 1.019,0.45 1.019,0.9 0,0.525 -0.47,0.975 -1.019,0.975 v 0 c -0.548,0 -0.94,-0.45 -0.94,-0.975 0,-0.45 0.392,-0.9 0.94,-0.9 z m 3.917,0 v 0 c 0.548,0 1.018,0.45 1.018,0.9 0,0.525 -0.47,0.975 -1.018,0.975 v 0 c -0.548,0 -0.94,-0.45 -0.94,-0.975 0,-0.45 0.392,-0.9 0.94,-0.9 z m 3.917,0 v 0 c 0.548,0 1.018,0.45 1.018,0.9 0,0.525 -0.47,0.975 -1.018,0.975 v 0 c -0.549,0 -0.94,-0.45 -0.94,-0.975 0,-0.45 0.391,-0.9 0.94,-0.9 z m 3.916,0 v 0 c 0.549,0 1.019,0.45 1.019,0.9 0,0.525 -0.47,0.975 -1.019,0.975 v 0 c -0.548,0 -0.94,-0.45 -0.94,-0.975 0,-0.45 0.392,-0.9 0.94,-0.9 z m 3.917,0 v 0 c 0.548,0 1.018,0.45 1.018,0.9 0,0.525 -0.47,0.975 -1.018,0.975 v 0 c -0.548,0 -0.94,-0.45 -0.94,-0.975 0,-0.45 0.392,-0.9 0.94,-0.9 z m 3.917,0 v 0 c 0.548,0 1.018,0.45 1.018,0.9 0,0.525 -0.47,0.975 -1.018,0.975 v 0 c -0.47,0 -0.94,-0.45 -0.94,-0.975 0,-0.45 0.47,-0.9 0.94,-0.9 z m 3.916,0 v 0 c 0.549,0 1.019,0.45 1.019,0.9 0,0.525 -0.47,0.975 -1.019,0.975 v 0 c -0.47,0 -0.94,-0.45 -0.94,-0.975 0,-0.45 0.47,-0.9 0.94,-0.9 z m 3.917,0 h 0.078 c 0.47,0 0.94,0.45 0.94,0.9 0,0.525 -0.47,0.975 -0.94,0.975 h -0.078 c -0.47,0 -0.94,-0.45 -0.94,-0.975 0,-0.45 0.47,-0.9 0.94,-0.9 z m 3.995,0 v 0 c 0.47,0 0.94,0.45 0.94,0.9 0,0.525 -0.47,0.975 -0.94,0.975 v 0 c -0.548,0 -1.018,-0.45 -1.018,-0.975 0,-0.45 0.47,-0.9 1.018,-0.9 z m 3.917,0 v 0 c 0.47,0 0.94,0.45 0.94,0.9 0,0.525 -0.47,0.975 -0.94,0.975 v 0 c -0.549,0 -1.019,-0.45 -1.019,-0.975 0,-0.45 0.47,-0.9 1.019,-0.9 z m 3.916,0 v 0 c 0.47,0 0.94,0.45 0.94,0.9 0,0.525 -0.47,0.975 -0.94,0.975 v 0 c -0.548,0 -1.018,-0.45 -1.018,-0.975 0,-0.45 0.47,-0.9 1.018,-0.9 z m 3.917,0 v 0 c 0.548,0 0.94,0.45 0.94,0.9 0,0.525 -0.392,0.975 -0.94,0.975 v 0 c -0.548,0 -1.018,-0.45 -1.018,-0.975 0,-0.45 0.47,-0.9 1.018,-0.9 z m 3.917,0 v 0 c 0.548,0 0.94,0.45 0.94,0.9 0,0.525 -0.392,0.975 -0.94,0.975 v 0 c -0.549,0 -1.019,-0.45 -1.019,-0.975 0,-0.45 0.47,-0.9 1.019,-0.9 z m 3.916,0 v 0 c 0.549,0 0.94,0.45 0.94,0.9 0,0.525 -0.391,0.975 -0.94,0.975 v 0 c -0.548,0 -1.018,-0.45 -1.018,-0.975 0,-0.45 0.47,-0.9 1.018,-0.9 z m 3.917,0 v 0 c 0.548,0 0.94,0.45 0.94,0.9 0,0.525 -0.392,0.975 -0.94,0.975 v 0 c -0.548,0 -1.018,-0.45 -1.018,-0.975 0,-0.45 0.47,-0.9 1.018,-0.9 z m 3.917,0 v 0 c 0.548,0 0.94,0.45 0.94,0.9 0,0.525 -0.392,0.975 -0.94,0.975 v 0 c -0.549,0 -1.019,-0.45 -1.019,-0.975 0,-0.45 0.47,-0.9 1.019,-0.9 z m 3.916,0 v 0 c 0.549,0 0.94,0.45 0.94,0.9 0,0.525 -0.391,0.975 -0.94,0.975 v 0 c -0.548,0 -1.018,-0.45 -1.018,-0.975 0,-0.45 0.47,-0.9 1.018,-0.9 z m 3.917,0 v 0 c 0.548,0 0.94,0.45 0.94,0.9 0,0.525 -0.392,0.975 -0.94,0.975 v 0 c -0.548,0 -1.018,-0.45 -1.018,-0.975 0,-0.45 0.47,-0.9 1.018,-0.9 z m 3.917,0 v 0 c 0.548,0 0.94,0.45 0.94,0.9 0,0.525 -0.392,0.975 -0.94,0.975 v 0 c -0.549,0 -1.019,-0.45 -1.019,-0.975 0,-0.45 0.47,-0.9 1.019,-0.9 z m 3.916,0 v 0 c 0.549,0 0.94,0.45 0.94,0.9 0,0.525 -0.391,0.975 -0.94,0.975 v 0 c -0.548,0 -1.018,-0.45 -1.018,-0.975 0,-0.45 0.47,-0.9 1.018,-0.9 z m 3.917,0 v 0 c 0.548,0 0.94,0.45 0.94,0.9 0,0.525 -0.392,0.975 -0.94,0.975 v 0 c -0.548,0 -1.018,-0.45 -1.018,-0.975 0,-0.45 0.47,-0.9 1.018,-0.9 z m 3.917,0 v 0 c 0.548,0 0.94,0.45 0.94,0.9 0,0.525 -0.392,0.975 -0.94,0.975 v 0 c -0.549,0 -1.019,-0.45 -1.019,-0.975 0,-0.45 0.47,-0.9 1.019,-0.9 z m 3.916,0 v 0 c 0.549,0 0.94,0.45 0.94,0.9 0,0.525 -0.391,0.975 -0.94,0.975 v 0 c -0.548,0 -1.018,-0.45 -1.018,-0.975 0,-0.45 0.47,-0.9 1.018,-0.9 z m 3.917,0 v 0 c 0.548,0 0.94,0.45 0.94,0.9 0,0.525 -0.392,0.975 -0.94,0.975 v 0 c -0.548,0 -1.018,-0.45 -1.018,-0.975 0,-0.45 0.47,-0.9 1.018,-0.9 z m 3.917,0 v 0 c 0.548,0 0.94,0.45 0.94,0.9 0,0.525 -0.392,0.975 -0.94,0.975 v 0 c -0.549,0 -1.019,-0.45 -1.019,-0.975 0,-0.45 0.47,-0.9 1.019,-0.9 z m 3.916,0 v 0 c 0.549,0 0.94,0.45 0.94,0.9 0,0.525 -0.391,0.975 -0.94,0.975 v 0 c -0.548,0 -1.018,-0.45 -1.018,-0.975 0,-0.45 0.47,-0.9 1.018,-0.9 z m 3.917,0 v 0 c 0.548,0 0.94,0.45 0.94,0.9 0,0.525 -0.392,0.975 -0.94,0.975 v 0 c -0.548,0 -1.018,-0.45 -1.018,-0.975 0,-0.45 0.47,-0.9 1.018,-0.9 z m 3.917,0 v 0 c 0.548,0 0.94,0.45 0.94,0.9 0,0.525 -0.392,0.975 -0.94,0.975 v 0 c -0.549,0 -1.019,-0.45 -1.019,-0.975 0,-0.45 0.47,-0.9 1.019,-0.9 z m 3.916,0 v 0 c 0.549,0 1.019,0.45 1.019,0.9 0,0.525 -0.47,0.975 -1.019,0.975 v 0 c -0.548,0 -1.018,-0.45 -1.018,-0.975 0,-0.45 0.47,-0.9 1.018,-0.9 z m 3.917,0 v 0 c 0.548,0 1.018,0.45 1.018,0.9 0,0.525 -0.47,0.975 -1.018,0.975 v 0 c -0.548,0 -0.94,-0.45 -0.94,-0.975 0,-0.45 0.392,-0.9 0.94,-0.9 z m 3.917,0 v 0 c 0.548,0 1.018,0.45 1.018,0.9 0,0.525 -0.47,0.975 -1.018,0.975 v 0 c -0.549,0 -0.94,-0.45 -0.94,-0.975 0,-0.45 0.391,-0.9 0.94,-0.9 z m 3.916,0 v 0 c 0.549,0 1.019,0.45 1.019,0.9 0,0.525 -0.47,0.975 -1.019,0.975 v 0 c -0.548,0 -0.94,-0.45 -0.94,-0.975 0,-0.45 0.392,-0.9 0.94,-0.9 z m 3.917,0 v 0 c 0.548,0 1.018,0.45 1.018,0.9 0,0.525 -0.47,0.975 -1.018,0.975 v 0 c -0.548,0 -0.94,-0.45 -0.94,-0.975 0,-0.45 0.392,-0.9 0.94,-0.9 z m 3.92,0 v 0 c 0.55,0 1.02,0.45 1.02,0.9 0,0.525 -0.47,0.975 -1.02,0.975 v 0 c -0.55,0 -0.94,-0.45 -0.94,-0.975 0,-0.45 0.39,-0.9 0.94,-0.9 z m 3.91,0 v 0 c 0.55,0 1.02,0.45 1.02,0.9 0,0.525 -0.47,0.975 -1.02,0.975 v 0 c -0.54,0 -0.94,-0.45 -0.94,-0.975 0,-0.45 0.4,-0.9 0.94,-0.9 z m 3.92,0 v 0 c 0.55,0 1.02,0.45 1.02,0.9 0,0.525 -0.47,0.975 -1.02,0.975 v 0 c -0.55,0 -0.94,-0.45 -0.94,-0.975 0,-0.45 0.39,-0.9 0.94,-0.9 z m 3.92,0 v 0 c 0.54,0 1.02,0.45 1.02,0.9 0,0.525 -0.48,0.975 -1.02,0.975 v 0 c -0.55,0 -0.94,-0.45 -0.94,-0.975 0,-0.45 0.39,-0.9 0.94,-0.9 z m 3.91,0 v 0 c 0.55,0 1.02,0.45 1.02,0.9 0,0.525 -0.47,0.975 -1.02,0.975 v 0 c -0.54,0 -0.94,-0.45 -0.94,-0.975 0,-0.45 0.4,-0.9 0.94,-0.9 z m 3.92,0 v 0 c 0.55,0 1.02,0.45 1.02,0.9 0,0.525 -0.47,0.975 -1.02,0.975 v 0 c -0.55,0 -0.94,-0.45 -0.94,-0.975 0,-0.45 0.39,-0.9 0.94,-0.9 z m 3.92,0 v 0 c 0.55,0 1.01,0.45 1.01,0.9 0,0.525 -0.46,0.975 -1.01,0.975 v 0 c -0.55,0 -0.94,-0.45 -0.94,-0.975 0,-0.45 0.39,-0.9 0.94,-0.9 z m 3.91,0 v 0 c 0.55,0 1.02,0.45 1.02,0.9 0,0.525 -0.47,0.975 -1.02,0.975 v 0 c -0.54,0 -0.94,-0.45 -0.94,-0.975 0,-0.45 0.4,-0.9 0.94,-0.9 z m 3.92,0 v 0 c 0.55,0 1.02,0.45 1.02,0.9 0,0.525 -0.47,0.975 -1.02,0.975 v 0 c -0.55,0 -0.94,-0.45 -0.94,-0.975 0,-0.45 0.39,-0.9 0.94,-0.9 z m 3.92,0 v 0 c 0.54,0 1.01,0.45 1.01,0.9 0,0.525 -0.47,0.975 -1.01,0.975 v 0 c -0.55,0 -0.94,-0.45 -0.94,-0.975 0,-0.45 0.39,-0.9 0.94,-0.9 z m 3.91,0 v 0 c 0.55,0 1.02,0.45 1.02,0.9 0,0.525 -0.47,0.975 -1.02,0.975 v 0 c -0.54,0 -0.94,-0.45 -0.94,-0.975 0,-0.45 0.4,-0.9 0.94,-0.9 z m 3.92,0 v 0 c 0.55,0 1.02,0.45 1.02,0.9 0,0.525 -0.47,0.975 -1.02,0.975 v 0 c -0.55,0 -0.94,-0.45 -0.94,-0.975 0,-0.45 0.39,-0.9 0.94,-0.9 z m 3.92,0 v 0 c 0.55,0 1.01,0.45 1.01,0.9 0,0.525 -0.46,0.975 -1.01,0.975 v 0 c -0.47,0 -0.94,-0.45 -0.94,-0.975 0,-0.45 0.47,-0.9 0.94,-0.9 z m 3.91,0 v 0 c 0.55,0 1.02,0.45 1.02,0.9 0,0.525 -0.47,0.975 -1.02,0.975 v 0 c -0.47,0 -0.94,-0.45 -0.94,-0.975 0,-0.45 0.47,-0.9 0.94,-0.9 z m 3.92,0 v 0 c 0.55,0 1.02,0.45 1.02,0.9 0,0.525 -0.47,0.975 -1.02,0.975 v 0 c -0.47,0 -0.94,-0.45 -0.94,-0.975 0,-0.45 0.47,-0.9 0.94,-0.9 z m 3.92,0 h 0.08 c 0.46,0 0.93,0.45 0.93,0.9 0,0.525 -0.47,0.975 -0.93,0.975 h -0.08 c -0.47,0 -0.94,-0.45 -0.94,-0.975 0,-0.45 0.47,-0.9 0.94,-0.9 z m 3.99,0 v 0 c 0.47,0 0.94,0.45 0.94,0.9 0,0.525 -0.47,0.975 -0.94,0.975 v 0 c -0.55,0 -1.02,-0.45 -1.02,-0.975 0,-0.45 0.47,-0.9 1.02,-0.9 z m 3.92,0 v 0 c 0.47,0 0.94,0.45 0.94,0.9 0,0.525 -0.47,0.975 -0.94,0.975 v 0 c -0.55,0 -1.02,-0.45 -1.02,-0.975 0,-0.45 0.47,-0.9 1.02,-0.9 z m 3.92,0 v 0 c 0.47,0 0.93,0.45 0.93,0.9 0,0.525 -0.46,0.975 -0.93,0.975 v 0 c -0.55,0 -1.02,-0.45 -1.02,-0.975 0,-0.45 0.47,-0.9 1.02,-0.9 z m 3.91,0 v 0 c 0.55,0 0.94,0.45 0.94,0.9 0,0.525 -0.39,0.975 -0.94,0.975 v 0 c -0.55,0 -1.02,-0.45 -1.02,-0.975 0,-0.45 0.47,-0.9 1.02,-0.9 z m 3.92,0 v 0 c 0.55,0 0.94,0.45 0.94,0.9 0,0.525 -0.39,0.975 -0.94,0.975 v 0 c -0.55,0 -1.02,-0.45 -1.02,-0.975 0,-0.45 0.47,-0.9 1.02,-0.9 z m 3.92,0 v 0 c 0.54,0 0.93,0.45 0.93,0.9 0,0.525 -0.39,0.975 -0.93,0.975 v 0 c -0.55,0 -1.02,-0.45 -1.02,-0.975 0,-0.45 0.47,-0.9 1.02,-0.9 z m 3.91,0 v 0 c 0.55,0 0.94,0.45 0.94,0.9 0,0.525 -0.39,0.975 -0.94,0.975 v 0 c -0.55,0 -1.02,-0.45 -1.02,-0.975 0,-0.45 0.47,-0.9 1.02,-0.9 z m 3.92,0 v 0 c 0.55,0 0.94,0.45 0.94,0.9 0,0.525 -0.39,0.975 -0.94,0.975 v 0 c -0.55,0 -1.02,-0.45 -1.02,-0.975 0,-0.45 0.47,-0.9 1.02,-0.9 z m 3.92,0 v 0 c 0.54,0 0.93,0.45 0.93,0.9 0,0.525 -0.39,0.975 -0.93,0.975 v 0 c -0.55,0 -1.02,-0.45 -1.02,-0.975 0,-0.45 0.47,-0.9 1.02,-0.9 z m 3.91,0 v 0 c 0.55,0 0.94,0.45 0.94,0.9 0,0.525 -0.39,0.975 -0.94,0.975 v 0 c -0.55,0 -1.02,-0.45 -1.02,-0.975 0,-0.45 0.47,-0.9 1.02,-0.9 z m 3.92,0 v 0 c 0.55,0 0.94,0.45 0.94,0.9 0,0.525 -0.39,0.975 -0.94,0.975 v 0 c -0.55,0 -1.02,-0.45 -1.02,-0.975 0,-0.45 0.47,-0.9 1.02,-0.9 z m 3.92,0 v 0 c 0.54,0 0.93,0.45 0.93,0.9 0,0.525 -0.39,0.975 -0.93,0.975 v 0 c -0.55,0 -1.02,-0.45 -1.02,-0.975 0,-0.45 0.47,-0.9 1.02,-0.9 z m 3.91,0 v 0 c 0.55,0 0.94,0.45 0.94,0.9 0,0.525 -0.39,0.975 -0.94,0.975 v 0 c -0.55,0 -1.02,-0.45 -1.02,-0.975 0,-0.45 0.47,-0.9 1.02,-0.9 z m 3.92,0 v 0 c 0.55,0 0.94,0.45 0.94,0.9 0,0.525 -0.39,0.975 -0.94,0.975 v 0 c -0.55,0 -1.02,-0.45 -1.02,-0.975 0,-0.45 0.47,-0.9 1.02,-0.9 z m 3.92,0 v 0 c 0.54,0 0.93,0.45 0.93,0.9 0,0.525 -0.39,0.975 -0.93,0.975 v 0 c -0.55,0 -1.02,-0.45 -1.02,-0.975 0,-0.45 0.47,-0.9 1.02,-0.9 z m 3.91,0 v 0 c 0.55,0 0.94,0.45 0.94,0.9 0,0.525 -0.39,0.975 -0.94,0.975 v 0 c -0.55,0 -1.02,-0.45 -1.02,-0.975 0,-0.45 0.47,-0.9 1.02,-0.9 z m 3.92,0 v 0 c 0.55,0 0.94,0.45 0.94,0.9 0,0.525 -0.39,0.975 -0.94,0.975 v 0 c -0.55,0 -1.02,-0.45 -1.02,-0.975 0,-0.45 0.47,-0.9 1.02,-0.9 z m 3.92,0 v 0 c 0.54,0 0.93,0.45 0.93,0.9 0,0.525 -0.39,0.975 -0.93,0.975 v 0 c -0.55,0 -1.02,-0.45 -1.02,-0.975 0,-0.45 0.47,-0.9 1.02,-0.9 z m 3.91,0 v 0 c 0.55,0 0.94,0.45 0.94,0.9 0,0.525 -0.39,0.975 -0.94,0.975 v 0 c -0.55,0 -1.02,-0.45 -1.02,-0.975 0,-0.45 0.47,-0.9 1.02,-0.9 z m 3.92,0 v 0 c 0.55,0 1.02,0.45 1.02,0.9 0,0.525 -0.47,0.975 -1.02,0.975 v 0 c -0.55,0 -1.02,-0.45 -1.02,-0.975 0,-0.45 0.47,-0.9 1.02,-0.9 z m 3.92,0 v 0 c 0.54,0 1.01,0.45 1.01,0.9 0,0.525 -0.47,0.975 -1.01,0.975 v 0 c -0.55,0 -0.95,-0.45 -0.95,-0.975 0,-0.45 0.4,-0.9 0.95,-0.9 z m 3.91,0 v 0 c 0.55,0 1.02,0.45 1.02,0.9 0,0.525 -0.47,0.975 -1.02,0.975 v 0 c -0.55,0 -0.94,-0.45 -0.94,-0.975 0,-0.45 0.39,-0.9 0.94,-0.9 z m 3.92,0 v 0 c 0.55,0 1.02,0.45 1.02,0.9 0,0.525 -0.47,0.975 -1.02,0.975 v 0 c -0.55,0 -0.94,-0.45 -0.94,-0.975 0,-0.45 0.39,-0.9 0.94,-0.9 z m 3.92,0 v 0 c 0.54,0 1.01,0.45 1.01,0.9 0,0.525 -0.47,0.975 -1.01,0.975 v 0 c -0.55,0 -0.95,-0.45 -0.95,-0.975 0,-0.45 0.4,-0.9 0.95,-0.9 z m 3.91,0 v 0 c 0.55,0 1.02,0.45 1.02,0.9 0,0.525 -0.47,0.975 -1.02,0.975 v 0 c -0.55,0 -0.94,-0.45 -0.94,-0.975 0,-0.45 0.39,-0.9 0.94,-0.9 z m 3.92,0 v 0 c 0.55,0 1.02,0.45 1.02,0.9 0,0.525 -0.47,0.975 -1.02,0.975 v 0 c -0.55,0 -0.94,-0.45 -0.94,-0.975 0,-0.45 0.39,-0.9 0.94,-0.9 z m 3.92,0 v 0 c 0.54,0 1.01,0.45 1.01,0.9 0,0.525 -0.47,0.975 -1.01,0.975 v 0 c -0.55,0 -0.95,-0.45 -0.95,-0.975 0,-0.45 0.4,-0.9 0.95,-0.9 z m 3.91,0 v 0 c 0.55,0 1.02,0.45 1.02,0.9 0,0.525 -0.47,0.975 -1.02,0.975 v 0 c -0.55,0 -0.94,-0.45 -0.94,-0.975 0,-0.45 0.39,-0.9 0.94,-0.9 z m 3.92,0 v 0 c 0.55,0 1.02,0.45 1.02,0.9 0,0.525 -0.47,0.975 -1.02,0.975 v 0 c -0.55,0 -0.94,-0.45 -0.94,-0.975 0,-0.45 0.39,-0.9 0.94,-0.9 z m 3.92,0 v 0 c 0.54,0 1.01,0.45 1.01,0.9 0,0.525 -0.47,0.975 -1.01,0.975 v 0 c -0.55,0 -0.95,-0.45 -0.95,-0.975 0,-0.45 0.4,-0.9 0.95,-0.9 z m 3.91,0 v 0 c 0.55,0 1.02,0.45 1.02,0.9 0,0.525 -0.47,0.975 -1.02,0.975 v 0 c -0.55,0 -0.94,-0.45 -0.94,-0.975 0,-0.45 0.39,-0.9 0.94,-0.9 z m 3.92,0 v 0 c 0.55,0 1.02,0.45 1.02,0.9 0,0.525 -0.47,0.975 -1.02,0.975 v 0 c -0.55,0 -0.94,-0.45 -0.94,-0.975 0,-0.45 0.39,-0.9 0.94,-0.9 z m 3.92,0 v 0 c 0.54,0 1.01,0.45 1.01,0.9 0,0.525 -0.47,0.975 -1.01,0.975 v 0 c -0.55,0 -0.95,-0.45 -0.95,-0.975 0,-0.45 0.4,-0.9 0.95,-0.9 z m 3.91,0 v 0 c 0.55,0 1.02,0.45 1.02,0.9 0,0.525 -0.47,0.975 -1.02,0.975 v 0 c -0.55,0 -0.94,-0.45 -0.94,-0.975 0,-0.45 0.39,-0.9 0.94,-0.9 z m 3.92,0 v 0 c 0.55,0 1.02,0.45 1.02,0.9 0,0.525 -0.47,0.975 -1.02,0.975 v 0 c -0.55,0 -0.94,-0.45 -0.94,-0.975 0,-0.45 0.39,-0.9 0.94,-0.9 z m 3.92,0 v 0 c 0.54,0 1.01,0.45 1.01,0.9 0,0.525 -0.47,0.975 -1.01,0.975 v 0 c -0.55,0 -0.95,-0.45 -0.95,-0.975 0,-0.45 0.4,-0.9 0.95,-0.9 z m 3.91,0 v 0 c 0.55,0 1.02,0.45 1.02,0.9 0,0.525 -0.47,0.975 -1.02,0.975 v 0 c -0.47,0 -0.94,-0.45 -0.94,-0.975 0,-0.45 0.47,-0.9 0.94,-0.9 z m 3.92,0 v 0 c 0.55,0 1.02,0.45 1.02,0.9 0,0.525 -0.47,0.975 -1.02,0.975 v 0 c -0.47,0 -0.94,-0.45 -0.94,-0.975 0,-0.45 0.47,-0.9 0.94,-0.9 z m 3.92,0 v 0 c 0.54,0 1.01,0.45 1.01,0.9 0,0.525 -0.47,0.975 -1.01,0.975 v 0 c -0.48,0 -0.95,-0.45 -0.95,-0.975 0,-0.45 0.47,-0.9 0.95,-0.9 z m 3.91,0 h 0.08 c 0.47,0 0.94,0.45 0.94,0.9 0,0.525 -0.47,0.975 -0.94,0.975 h -0.08 c -0.47,0 -0.94,-0.45 -0.94,-0.975 0,-0.45 0.47,-0.9 0.94,-0.9 z m 4,0 v 0 c 0.47,0 0.94,0.45 0.94,0.9 0,0.525 -0.47,0.975 -0.94,0.975 v 0 c -0.55,0 -1.02,-0.45 -1.02,-0.975 0,-0.45 0.47,-0.9 1.02,-0.9 z m 3.91,0 v 0 c 0.47,0 0.94,0.45 0.94,0.9 0,0.525 -0.47,0.975 -0.94,0.975 v 0 c -0.54,0 -1.02,-0.45 -1.02,-0.975 0,-0.45 0.48,-0.9 1.02,-0.9 z m 3.92,0 v 0 c 0.47,0 0.94,0.45 0.94,0.9 0,0.525 -0.47,0.975 -0.94,0.975 v 0 c -0.55,0 -1.02,-0.45 -1.02,-0.975 0,-0.45 0.47,-0.9 1.02,-0.9 z m 3.92,0 v 0 c 0.54,0 0.94,0.45 0.94,0.9 0,0.525 -0.4,0.975 -0.94,0.975 v 0 c -0.55,0 -1.02,-0.45 -1.02,-0.975 0,-0.45 0.47,-0.9 1.02,-0.9 z m 3.91,0 v 0 c 0.55,0 0.94,0.45 0.94,0.9 0,0.525 -0.39,0.975 -0.94,0.975 v 0 c -0.55,0 -1.02,-0.45 -1.02,-0.975 0,-0.45 0.47,-0.9 1.02,-0.9 z m 3.92,0 v 0 c 0.55,0 0.94,0.45 0.94,0.9 0,0.525 -0.39,0.975 -0.94,0.975 v 0 c -0.55,0 -1.02,-0.45 -1.02,-0.975 0,-0.45 0.47,-0.9 1.02,-0.9 z m 3.92,0 v 0 c 0.54,0 0.94,0.45 0.94,0.9 0,0.525 -0.4,0.975 -0.94,0.975 v 0 c -0.55,0 -1.02,-0.45 -1.02,-0.975 0,-0.45 0.47,-0.9 1.02,-0.9 z m 3.91,0 v 0 c 0.55,0 0.94,0.45 0.94,0.9 0,0.525 -0.39,0.975 -0.94,0.975 v 0 c -0.55,0 -1.02,-0.45 -1.02,-0.975 0,-0.45 0.47,-0.9 1.02,-0.9 z m 3.92,0 v 0 c 0.55,0 0.94,0.45 0.94,0.9 0,0.525 -0.39,0.975 -0.94,0.975 v 0 c -0.55,0 -1.02,-0.45 -1.02,-0.975 0,-0.45 0.47,-0.9 1.02,-0.9 z m 3.92,0 v 0 c 0.54,0 0.94,0.45 0.94,0.9 0,0.525 -0.4,0.975 -0.94,0.975 v 0 c -0.55,0 -1.02,-0.45 -1.02,-0.975 0,-0.45 0.47,-0.9 1.02,-0.9 z m 3.91,0 v 0 c 0.55,0 0.94,0.45 0.94,0.9 0,0.525 -0.39,0.975 -0.94,0.975 v 0 c -0.55,0 -1.02,-0.45 -1.02,-0.975 0,-0.45 0.47,-0.9 1.02,-0.9 z m 3.92,0 v 0 c 0.55,0 0.94,0.45 0.94,0.9 0,0.525 -0.39,0.975 -0.94,0.975 v 0 c -0.55,0 -1.02,-0.45 -1.02,-0.975 0,-0.45 0.47,-0.9 1.02,-0.9 z m 3.92,0 v 0 c 0.54,0 0.94,0.45 0.94,0.9 0,0.525 -0.4,0.975 -0.94,0.975 v 0 c -0.55,0 -1.02,-0.45 -1.02,-0.975 0,-0.45 0.47,-0.9 1.02,-0.9 z m 3.91,0 v 0 c 0.55,0 0.94,0.45 0.94,0.9 0,0.525 -0.39,0.975 -0.94,0.975 v 0 c -0.55,0 -1.02,-0.45 -1.02,-0.975 0,-0.45 0.47,-0.9 1.02,-0.9 z m 3.92,0 v 0 c 0.55,0 0.94,0.45 0.94,0.9 0,0.525 -0.39,0.975 -0.94,0.975 v 0 c -0.55,0 -1.02,-0.45 -1.02,-0.975 0,-0.45 0.47,-0.9 1.02,-0.9 z m 3.92,0 v 0 c 0.54,0 0.94,0.45 0.94,0.9 0,0.525 -0.4,0.975 -0.94,0.975 v 0 c -0.55,0 -1.02,-0.45 -1.02,-0.975 0,-0.45 0.47,-0.9 1.02,-0.9 z m 3.91,0 v 0 c 0.55,0 0.94,0.45 0.94,0.9 0,0.525 -0.39,0.975 -0.94,0.975 v 0 c -0.55,0 -1.02,-0.45 -1.02,-0.975 0,-0.45 0.47,-0.9 1.02,-0.9 z m 3.92,0 v 0 c 0.55,0 0.94,0.45 0.94,0.9 0,0.525 -0.39,0.975 -0.94,0.975 v 0 c -0.55,0 -1.02,-0.45 -1.02,-0.975 0,-0.45 0.47,-0.9 1.02,-0.9 z m -440.233,8.4 -15.667,-7.5 15.667,-7.5 z m 438.663,-15 15.67,7.5 -15.67,7.5 z"
       stroke="#000000"
       stroke-width="0.6875"
       stroke-linejoin="bevel"
       stroke-miterlimit="10"
       fill-rule="evenodd"
       id="path96" /><text
       font-family="'Times New Roman', 'Times New Roman_MSFontService', sans-serif"
       font-weight="400"
       font-size="32px"
       id="text96"
       x="1009.4202"
       y="677">TLIFE</text><path
       d="m 830.5,723.523 v 0 c 0,-0.508 0.48,-0.978 1,-0.978 0.56,0 1,0.47 1,0.978 v 0 c 0,0.547 -0.44,0.977 -1,0.977 -0.52,0 -1,-0.43 -1,-0.977 z m 0,-3.91 v 0 c 0,-0.508 0.48,-0.977 1,-0.977 0.56,0 1,0.469 1,0.977 v 0 c 0,0.548 -0.44,0.978 -1,0.978 -0.52,0 -1,-0.43 -1,-0.978 z m 0,-3.909 v 0 c 0,-0.508 0.48,-0.977 1,-0.977 0.56,0 1,0.469 1,0.977 v 0 c 0,0.547 -0.44,0.977 -1,0.977 -0.52,0 -1,-0.43 -1,-0.977 z m 0,-3.909 v 0 c 0,-0.548 0.48,-0.978 1,-0.978 0.56,0 1,0.43 1,0.978 v 0 c 0,0.547 -0.44,0.977 -1,0.977 -0.52,0 -1,-0.43 -1,-0.977 z m 0,-3.91 v 0 c 0,-0.547 0.48,-0.977 1,-0.977 0.56,0 1,0.43 1,0.977 v 0 c 0,0.548 -0.44,0.978 -1,0.978 -0.52,0 -1,-0.43 -1,-0.978 z m 0,-3.909 v 0 c 0,-0.547 0.48,-0.977 1,-0.977 0.56,0 1,0.43 1,0.977 v 0 c 0,0.547 -0.44,0.977 -1,0.977 -0.52,0 -1,-0.43 -1,-0.977 z m 0,-3.909 v 0 c 0,-0.548 0.48,-0.978 1,-0.978 0.56,0 1,0.43 1,0.978 v 0 c 0,0.547 -0.44,0.977 -1,0.977 -0.52,0 -1,-0.43 -1,-0.977 z m 0,-3.91 v 0 c 0,-0.547 0.48,-0.977 1,-0.977 0.56,0 1,0.43 1,0.977 v 0 c 0,0.547 -0.44,0.978 -1,0.978 -0.52,0 -1,-0.431 -1,-0.978 z m 0,-3.909 v 0 c 0,-0.547 0.48,-0.978 1,-0.978 0.56,0 1,0.431 1,0.978 v 0 c 0,0.547 -0.44,0.977 -1,0.977 -0.52,0 -1,-0.43 -1,-0.977 z m 0,-3.91 v 0 c 0,-0.547 0.48,-0.977 1,-0.977 0.56,0 1,0.43 1,0.977 v 0 c 0,0.548 -0.44,0.978 -1,0.978 -0.52,0 -1,-0.43 -1,-0.978 z m 0,-3.909 v 0 c 0,-0.547 0.48,-0.977 1,-0.977 0.56,0 1,0.43 1,0.977 v 0 c 0,0.547 -0.44,0.977 -1,0.977 -0.52,0 -1,-0.43 -1,-0.977 z m 0,-3.909 v 0 c 0,-0.548 0.48,-0.978 1,-0.978 0.56,0 1,0.43 1,0.978 v 0 c 0,0.547 -0.44,0.977 -1,0.977 -0.52,0 -1,-0.43 -1,-0.977 z m 0,-3.91 v 0 c 0,-0.547 0.48,-0.977 1,-0.977 0.56,0 1,0.43 1,0.977 v 0 c 0,0.548 -0.44,0.978 -1,0.978 -0.52,0 -1,-0.43 -1,-0.978 z m 0,-3.909 v 0 c 0,-0.547 0.48,-0.977 1,-0.977 0.56,0 1,0.43 1,0.977 v 0 c 0,0.547 -0.44,0.977 -1,0.977 -0.52,0 -1,-0.43 -1,-0.977 z m 0,-3.909 v 0 c 0,-0.548 0.48,-0.978 1,-0.978 0.56,0 1,0.43 1,0.978 v 0 c 0,0.547 -0.44,0.977 -1,0.977 -0.52,0 -1,-0.43 -1,-0.977 z m 0,-3.91 v 0 c 0,-0.547 0.48,-0.977 1,-0.977 0.56,0 1,0.43 1,0.977 v 0 c 0,0.548 -0.44,0.977 -1,0.977 -0.52,0 -1,-0.429 -1,-0.977 z m 0,-3.909 v 0 c 0,-0.548 0.48,-0.978 1,-0.978 0.56,0 1,0.43 1,0.978 v 0 c 0,0.508 -0.44,0.977 -1,0.977 -0.52,0 -1,-0.469 -1,-0.977 z m 0,-3.91 v 0 c 0,-0.547 0.48,-0.977 1,-0.977 0.56,0 1,0.43 1,0.977 v 0 c 0,0.509 -0.44,0.978 -1,0.978 -0.52,0 -1,-0.469 -1,-0.978 z m 0,-3.909 v 0 c 0,-0.547 0.48,-0.977 1,-0.977 0.56,0 1,0.43 1,0.977 v 0 c 0,0.508 -0.44,0.977 -1,0.977 -0.52,0 -1,-0.469 -1,-0.977 z m 0,-3.909 v -0.039 c 0,-0.509 0.48,-0.978 1,-0.978 0.56,0 1,0.469 1,0.978 v 0.039 c 0,0.508 -0.44,0.977 -1,0.977 -0.52,0 -1,-0.469 -1,-0.977 z m 0,-3.949 v 0 c 0,-0.508 0.48,-0.977 1,-0.977 0.56,0 1,0.469 1,0.977 v 0 c 0,0.548 -0.44,0.978 -1,0.978 -0.52,0 -1,-0.43 -1,-0.978 z m 0,-3.909 v 0 c 0,-0.508 0.48,-0.978 1,-0.978 0.56,0 1,0.47 1,0.978 v 0 c 0,0.547 -0.44,0.977 -1,0.977 -0.52,0 -1,-0.43 -1,-0.977 z m 0,-3.91 v 0 c 0,-0.508 0.48,-0.977 1,-0.977 0.56,0 1,0.469 1,0.977 v 0 c 0,0.548 -0.44,0.978 -1,0.978 -0.52,0 -1,-0.43 -1,-0.978 z"
       stroke="#000000"
       stroke-width="0.6875"
       stroke-linejoin="bevel"
       stroke-miterlimit="10"
       fill-rule="evenodd"
       id="path97" /><path
       d="m 1314.61,691.1 v 0 c 0.55,0 1.02,0.45 1.02,0.9 0,0.525 -0.47,0.975 -1.02,0.975 v 0 c -0.55,0 -0.94,-0.45 -0.94,-0.975 0,-0.45 0.39,-0.9 0.94,-0.9 z m 3.92,0 v 0 c 0.55,0 1.02,0.45 1.02,0.9 0,0.525 -0.47,0.975 -1.02,0.975 v 0 c -0.55,0 -0.94,-0.45 -0.94,-0.975 0,-0.45 0.39,-0.9 0.94,-0.9 z m 3.93,0 v 0 c 0.55,0 1.02,0.45 1.02,0.9 0,0.525 -0.47,0.975 -1.02,0.975 v 0 c -0.55,0 -0.94,-0.45 -0.94,-0.975 0,-0.45 0.39,-0.9 0.94,-0.9 z m 3.92,0 v 0 c 0.55,0 1.02,0.45 1.02,0.9 0,0.525 -0.47,0.975 -1.02,0.975 v 0 c -0.55,0 -0.94,-0.45 -0.94,-0.975 0,-0.45 0.39,-0.9 0.94,-0.9 z m 3.93,0 v 0 c 0.55,0 1.02,0.45 1.02,0.9 0,0.525 -0.47,0.975 -1.02,0.975 v 0 c -0.55,0 -0.94,-0.45 -0.94,-0.975 0,-0.45 0.39,-0.9 0.94,-0.9 z m 3.92,0 v 0 c 0.55,0 1.02,0.45 1.02,0.9 0,0.525 -0.47,0.975 -1.02,0.975 v 0 c -0.55,0 -0.94,-0.45 -0.94,-0.975 0,-0.45 0.39,-0.9 0.94,-0.9 z m 3.93,0 v 0 c 0.55,0 1.02,0.45 1.02,0.9 0,0.525 -0.47,0.975 -1.02,0.975 v 0 c -0.55,0 -0.94,-0.45 -0.94,-0.975 0,-0.45 0.39,-0.9 0.94,-0.9 z m 3.92,0 v 0 c 0.55,0 1.02,0.45 1.02,0.9 0,0.525 -0.47,0.975 -1.02,0.975 v 0 c -0.55,0 -0.94,-0.45 -0.94,-0.975 0,-0.45 0.39,-0.9 0.94,-0.9 z m 3.93,0 v 0 c 0.55,0 1.02,0.45 1.02,0.9 0,0.525 -0.47,0.975 -1.02,0.975 v 0 c -0.55,0 -0.94,-0.45 -0.94,-0.975 0,-0.45 0.39,-0.9 0.94,-0.9 z m 3.92,0 v 0 c 0.55,0 1.02,0.45 1.02,0.9 0,0.525 -0.47,0.975 -1.02,0.975 v 0 c -0.55,0 -0.94,-0.45 -0.94,-0.975 0,-0.45 0.39,-0.9 0.94,-0.9 z m 3.93,0 v 0 c 0.55,0 1.02,0.45 1.02,0.9 0,0.525 -0.47,0.975 -1.02,0.975 v 0 c -0.55,0 -0.94,-0.45 -0.94,-0.975 0,-0.45 0.39,-0.9 0.94,-0.9 z m 3.92,0 v 0 c 0.55,0 1.02,0.45 1.02,0.9 0,0.525 -0.47,0.975 -1.02,0.975 v 0 c -0.55,0 -0.94,-0.45 -0.94,-0.975 0,-0.45 0.39,-0.9 0.94,-0.9 z m 3.93,0 v 0 c 0.55,0 1.02,0.45 1.02,0.9 0,0.525 -0.47,0.975 -1.02,0.975 v 0 c -0.47,0 -0.94,-0.45 -0.94,-0.975 0,-0.45 0.47,-0.9 0.94,-0.9 z m 3.92,0 v 0 c 0.55,0 1.02,0.45 1.02,0.9 0,0.525 -0.47,0.975 -1.02,0.975 v 0 c -0.47,0 -0.94,-0.45 -0.94,-0.975 0,-0.45 0.47,-0.9 0.94,-0.9 z m 3.93,0 v 0 c 0.55,0 1.02,0.45 1.02,0.9 0,0.525 -0.47,0.975 -1.02,0.975 v 0 c -0.47,0 -0.94,-0.45 -0.94,-0.975 0,-0.45 0.47,-0.9 0.94,-0.9 z m 3.92,0 h 0.08 c 0.47,0 0.94,0.45 0.94,0.9 0,0.525 -0.47,0.975 -0.94,0.975 h -0.08 c -0.47,0 -0.94,-0.45 -0.94,-0.975 0,-0.45 0.47,-0.9 0.94,-0.9 z m 4.01,0 v 0 c 0.47,0 0.94,0.45 0.94,0.9 0,0.525 -0.47,0.975 -0.94,0.975 v 0 c -0.55,0 -1.02,-0.45 -1.02,-0.975 0,-0.45 0.47,-0.9 1.02,-0.9 z m 3.92,0 v 0 c 0.47,0 0.94,0.45 0.94,0.9 0,0.525 -0.47,0.975 -0.94,0.975 v 0 c -0.55,0 -1.02,-0.45 -1.02,-0.975 0,-0.45 0.47,-0.9 1.02,-0.9 z m 3.93,0 v 0 c 0.47,0 0.94,0.45 0.94,0.9 0,0.525 -0.47,0.975 -0.94,0.975 v 0 c -0.55,0 -1.02,-0.45 -1.02,-0.975 0,-0.45 0.47,-0.9 1.02,-0.9 z m 3.92,0 v 0 c 0.55,0 0.94,0.45 0.94,0.9 0,0.525 -0.39,0.975 -0.94,0.975 v 0 c -0.55,0 -1.02,-0.45 -1.02,-0.975 0,-0.45 0.47,-0.9 1.02,-0.9 z m 3.93,0 v 0 c 0.55,0 0.94,0.45 0.94,0.9 0,0.525 -0.39,0.975 -0.94,0.975 v 0 c -0.55,0 -1.02,-0.45 -1.02,-0.975 0,-0.45 0.47,-0.9 1.02,-0.9 z m 3.92,0 v 0 c 0.55,0 0.94,0.45 0.94,0.9 0,0.525 -0.39,0.975 -0.94,0.975 v 0 c -0.55,0 -1.02,-0.45 -1.02,-0.975 0,-0.45 0.47,-0.9 1.02,-0.9 z m 3.93,0 v 0 c 0.55,0 0.94,0.45 0.94,0.9 0,0.525 -0.39,0.975 -0.94,0.975 v 0 c -0.55,0 -1.02,-0.45 -1.02,-0.975 0,-0.45 0.47,-0.9 1.02,-0.9 z m 3.92,0 v 0 c 0.55,0 0.94,0.45 0.94,0.9 0,0.525 -0.39,0.975 -0.94,0.975 v 0 c -0.55,0 -1.02,-0.45 -1.02,-0.975 0,-0.45 0.47,-0.9 1.02,-0.9 z m 3.93,0 v 0 c 0.55,0 0.94,0.45 0.94,0.9 0,0.525 -0.39,0.975 -0.94,0.975 v 0 c -0.55,0 -1.02,-0.45 -1.02,-0.975 0,-0.45 0.47,-0.9 1.02,-0.9 z m 3.92,0 v 0 c 0.55,0 0.94,0.45 0.94,0.9 0,0.525 -0.39,0.975 -0.94,0.975 v 0 c -0.55,0 -1.02,-0.45 -1.02,-0.975 0,-0.45 0.47,-0.9 1.02,-0.9 z m 3.93,0 v 0 c 0.55,0 0.94,0.45 0.94,0.9 0,0.525 -0.39,0.975 -0.94,0.975 v 0 c -0.55,0 -1.02,-0.45 -1.02,-0.975 0,-0.45 0.47,-0.9 1.02,-0.9 z m 3.92,0 v 0 c 0.55,0 0.94,0.45 0.94,0.9 0,0.525 -0.39,0.975 -0.94,0.975 v 0 c -0.55,0 -1.02,-0.45 -1.02,-0.975 0,-0.45 0.47,-0.9 1.02,-0.9 z m 3.93,0 v 0 c 0.55,0 0.94,0.45 0.94,0.9 0,0.525 -0.39,0.975 -0.94,0.975 v 0 c -0.55,0 -1.02,-0.45 -1.02,-0.975 0,-0.45 0.47,-0.9 1.02,-0.9 z m 3.92,0 v 0 c 0.55,0 0.94,0.45 0.94,0.9 0,0.525 -0.39,0.975 -0.94,0.975 v 0 c -0.55,0 -1.02,-0.45 -1.02,-0.975 0,-0.45 0.47,-0.9 1.02,-0.9 z m 3.93,0 v 0 c 0.55,0 0.94,0.45 0.94,0.9 0,0.525 -0.39,0.975 -0.94,0.975 v 0 c -0.55,0 -1.02,-0.45 -1.02,-0.975 0,-0.45 0.47,-0.9 1.02,-0.9 z m 3.92,0 v 0 c 0.55,0 0.94,0.45 0.94,0.9 0,0.525 -0.39,0.975 -0.94,0.975 v 0 c -0.55,0 -1.02,-0.45 -1.02,-0.975 0,-0.45 0.47,-0.9 1.02,-0.9 z m 3.93,0 v 0 c 0.55,0 0.94,0.45 0.94,0.9 0,0.525 -0.39,0.975 -0.94,0.975 v 0 c -0.55,0 -1.02,-0.45 -1.02,-0.975 0,-0.45 0.47,-0.9 1.02,-0.9 z m 3.92,0 v 0 c 0.55,0 0.95,0.45 0.95,0.9 0,0.525 -0.4,0.975 -0.95,0.975 v 0 c -0.55,0 -1.02,-0.45 -1.02,-0.975 0,-0.45 0.47,-0.9 1.02,-0.9 z m -127.01,8.4 -15.7,-7.5 15.7,-7.5 z m 125.6,-15 15.7,7.5 -15.7,7.5 z"
       stroke="#000000"
       stroke-width="0.6875"
       stroke-linejoin="bevel"
       stroke-miterlimit="10"
       fill-rule="evenodd"
       id="path112" /><text
       font-family="'Times New Roman', 'Times New Roman_MSFontService', sans-serif"
       font-weight="400"
       font-size="32px"
       id="text112"
       x="1349.2701"
       y="671">DLAG</text><g
       id="g4"><g
         id="g3"><rect
           x="517"
           y="957"
           width="79.000099"
           height="78"
           stroke="#000000"
           stroke-width="2.0625"
           stroke-linecap="round"
           stroke-miterlimit="8"
           fill="none"
           id="rect4"
           style="fill:url(#pattern125);fill-opacity:1" /><rect
           x="596"
           y="879"
           width="78.000099"
           height="78.000099"
           stroke="#000000"
           stroke-width="2.0625"
           stroke-linecap="round"
           stroke-miterlimit="8"
           fill="none"
           id="rect6"
           style="fill:url(#pattern124);fill-opacity:1" /><rect
           x="674"
           y="801"
           width="78"
           height="78.000099"
           stroke="#000000"
           stroke-width="2.0625"
           stroke-linecap="round"
           stroke-miterlimit="8"
           fill="none"
           id="rect8"
           style="fill:url(#pattern122);fill-opacity:1" /><rect
           x="752"
           y="723"
           width="78.999702"
           height="78"
           stroke="#000000"
           stroke-width="2.0625"
           stroke-linecap="round"
           stroke-miterlimit="8"
           fill="none"
           id="rect12"
           style="fill:url(#pattern123);fill-opacity:1" /></g><rect
         x="1649"
         y="116"
         width="78"
         height="78"
         stroke="#000000"
         stroke-width="2.0625"
         stroke-linecap="round"
         stroke-miterlimit="8"
         fill="none"
         id="rect52"
         style="fill:url(#pattern121);fill-opacity:1" /></g><g
       id="g6"
       style="fill:url(#pattern8);fill-opacity:1"><g
         id="g5"
         style="fill:url(#pattern8);fill-opacity:1"><rect
           x="831"
           y="801"
           width="78.000099"
           height="78.000099"
           stroke="#000000"
           stroke-width="2.0625"
           stroke-linecap="round"
           stroke-miterlimit="8"
           fill="none"
           id="rect10"
           style="fill:url(#pattern8);fill-opacity:1" /><rect
           x="831"
           y="723"
           width="78.000099"
           height="78"
           stroke="#000000"
           stroke-width="2.0625"
           stroke-linecap="round"
           stroke-miterlimit="8"
           fill="none"
           id="rect14"
           style="fill:url(#pattern8);fill-opacity:1" /><rect
           x="909"
           y="723"
           width="78"
           height="78"
           stroke="#000000"
           stroke-width="2.0625"
           stroke-linecap="round"
           stroke-miterlimit="8"
           fill="none"
           id="rect16"
           style="fill:url(#pattern8);fill-opacity:1" /><rect
           x="831"
           y="957"
           width="78.000099"
           height="78"
           stroke="#000000"
           stroke-width="2.0625"
           stroke-linecap="round"
           stroke-miterlimit="8"
           fill="none"
           id="rect56"
           style="fill:url(#pattern8);fill-opacity:1" /><rect
           x="909"
           y="957"
           width="78"
           height="78"
           stroke="#000000"
           stroke-width="2.0625"
           stroke-linecap="round"
           stroke-miterlimit="8"
           fill="none"
           id="rect58"
           style="fill:url(#pattern8);fill-opacity:1" /><rect
           x="987"
           y="957"
           width="79.000099"
           height="78"
           stroke="#000000"
           stroke-width="2.0625"
           stroke-linecap="round"
           stroke-miterlimit="8"
           fill="none"
           id="rect60"
           style="fill:url(#pattern8);fill-opacity:1" /><rect
           x="1066"
           y="957"
           width="78"
           height="78"
           stroke="#000000"
           stroke-width="2.0625"
           stroke-linecap="round"
           stroke-miterlimit="8"
           fill="none"
           id="rect62"
           style="fill:url(#pattern8);fill-opacity:1" /><rect
           x="831"
           y="879"
           width="78.000099"
           height="78.000099"
           stroke="#000000"
           stroke-width="2.0625"
           stroke-linecap="round"
           stroke-miterlimit="8"
           fill="none"
           id="rect64"
           style="fill:url(#pattern8);fill-opacity:1" /><rect
           x="909"
           y="879"
           width="78"
           height="78.000099"
           stroke="#000000"
           stroke-width="2.0625"
           stroke-linecap="round"
           stroke-miterlimit="8"
           fill="none"
           id="rect66"
           style="fill:url(#pattern8);fill-opacity:1" /><rect
           x="987"
           y="879"
           width="79.000099"
           height="78.000099"
           stroke="#000000"
           stroke-width="2.0625"
           stroke-linecap="round"
           stroke-miterlimit="8"
           fill="none"
           id="rect68"
           style="fill:url(#pattern8);fill-opacity:1" /><rect
           x="1066"
           y="879"
           width="78"
           height="78.000099"
           stroke="#000000"
           stroke-width="2.0625"
           stroke-linecap="round"
           stroke-miterlimit="8"
           fill="none"
           id="rect70"
           style="fill:url(#pattern8);fill-opacity:1" /><rect
           x="909"
           y="801"
           width="78"
           height="78.000099"
           stroke="#000000"
           stroke-width="2.0625"
           stroke-linecap="round"
           stroke-miterlimit="8"
           fill="none"
           id="rect72"
           style="fill:url(#pattern8);fill-opacity:1" /><rect
           x="987"
           y="801"
           width="79.000099"
           height="78.000099"
           stroke="#000000"
           stroke-width="2.0625"
           stroke-linecap="round"
           stroke-miterlimit="8"
           fill="none"
           id="rect74"
           style="fill:url(#pattern8);fill-opacity:1" /><rect
           x="1066"
           y="801"
           width="78"
           height="78.000099"
           stroke="#000000"
           stroke-width="2.0625"
           stroke-linecap="round"
           stroke-miterlimit="8"
           fill="none"
           id="rect76"
           style="fill:url(#pattern8);fill-opacity:1" /><rect
           x="987"
           y="723"
           width="79.000099"
           height="78"
           stroke="#000000"
           stroke-width="2.0625"
           stroke-linecap="round"
           stroke-miterlimit="8"
           fill="none"
           id="rect78"
           style="fill:url(#pattern8);fill-opacity:1" /><rect
           x="1066"
           y="723"
           width="78"
           height="78"
           stroke="#000000"
           stroke-width="2.0625"
           stroke-linecap="round"
           stroke-miterlimit="8"
           fill="none"
           id="rect80"
           style="fill:url(#pattern8);fill-opacity:1" /><rect
           x="1144"
           y="957"
           width="79.000099"
           height="78"
           stroke="#000000"
           stroke-width="2.0625"
           stroke-linecap="round"
           stroke-miterlimit="8"
           fill="none"
           id="rect82"
           style="fill:url(#pattern8);fill-opacity:1" /><rect
           x="1223"
           y="957"
           width="78"
           height="78"
           stroke="#000000"
           stroke-width="2.0625"
           stroke-linecap="round"
           stroke-miterlimit="8"
           fill="none"
           id="rect84"
           style="fill:url(#pattern8);fill-opacity:1" /><rect
           x="1144"
           y="879"
           width="79.000099"
           height="78.000099"
           stroke="#000000"
           stroke-width="2.0625"
           stroke-linecap="round"
           stroke-miterlimit="8"
           fill="none"
           id="rect86"
           style="fill:url(#pattern8);fill-opacity:1" /><rect
           x="1223"
           y="879"
           width="78"
           height="78.000099"
           stroke="#000000"
           stroke-width="2.0625"
           stroke-linecap="round"
           stroke-miterlimit="8"
           fill="none"
           id="rect88"
           style="fill:url(#pattern8);fill-opacity:1" /><rect
           x="1144"
           y="801"
           width="79.000099"
           height="78.000099"
           stroke="#000000"
           stroke-width="2.0625"
           stroke-linecap="round"
           stroke-miterlimit="8"
           fill="none"
           id="rect90"
           style="fill:url(#pattern8);fill-opacity:1" /><rect
           x="1223"
           y="801"
           width="78"
           height="78.000099"
           stroke="#000000"
           stroke-width="2.0625"
           stroke-linecap="round"
           stroke-miterlimit="8"
           fill="none"
           id="rect92"
           style="fill:url(#pattern8);fill-opacity:1" /><rect
           x="1144"
           y="723"
           width="79.000099"
           height="78"
           stroke="#000000"
           stroke-width="2.0625"
           stroke-linecap="round"
           stroke-miterlimit="8"
           fill="none"
           id="rect94"
           style="fill:url(#pattern8);fill-opacity:1" /><rect
           x="1223"
           y="723"
           width="78"
           height="78"
           stroke="#000000"
           stroke-width="2.0625"
           stroke-linecap="round"
           stroke-miterlimit="8"
           fill="none"
           id="rect96"
           style="fill:url(#pattern8);fill-opacity:1" /></g><rect
         x="1649"
         y="264"
         width="78"
         height="78"
         stroke="#000000"
         stroke-width="2.0625"
         stroke-linecap="round"
         stroke-miterlimit="8"
         fill="none"
         id="rect54"
         style="fill:url(#pattern8);fill-opacity:1" /></g><g
       id="g2"><g
         id="g1"><rect
           x="1301"
           y="957"
           width="78"
           height="78"
           stroke="#000000"
           stroke-width="2.0625"
           stroke-linecap="round"
           stroke-miterlimit="8"
           fill="none"
           id="rect98"
           style="fill:url(#pattern130);fill-opacity:1" /><rect
           x="1379"
           y="957"
           width="78.999802"
           height="78"
           stroke="#000000"
           stroke-width="2.0625"
           stroke-linecap="round"
           stroke-miterlimit="8"
           fill="none"
           id="rect100"
           style="fill:url(#pattern131);fill-opacity:1" /><rect
           x="1301"
           y="879"
           width="78"
           height="78.000099"
           stroke="#000000"
           stroke-width="2.0625"
           stroke-linecap="round"
           stroke-miterlimit="8"
           fill="none"
           id="rect102"
           style="fill:url(#pattern132);fill-opacity:1" /><rect
           x="1379"
           y="879"
           width="78.999802"
           height="78.000099"
           stroke="#000000"
           stroke-width="2.0625"
           stroke-linecap="round"
           stroke-miterlimit="8"
           fill="none"
           id="rect104"
           style="fill:url(#pattern133);fill-opacity:1" /><rect
           x="1301"
           y="801"
           width="78"
           height="78.000099"
           stroke="#000000"
           stroke-width="2.0625"
           stroke-linecap="round"
           stroke-miterlimit="8"
           fill="none"
           id="rect106"
           style="fill:url(#pattern134);fill-opacity:1" /><rect
           x="1379"
           y="801"
           width="78.999802"
           height="78.000099"
           stroke="#000000"
           stroke-width="2.0625"
           stroke-linecap="round"
           stroke-miterlimit="8"
           fill="none"
           id="rect108"
           style="fill:url(#pattern135);fill-opacity:1" /><rect
           x="1301"
           y="723"
           width="78"
           height="78"
           stroke="#000000"
           stroke-width="2.0625"
           stroke-linecap="round"
           stroke-miterlimit="8"
           fill="none"
           id="rect110"
           style="fill:url(#pattern136);fill-opacity:1" /><rect
           x="1379"
           y="723"
           width="78.999802"
           height="78"
           stroke="#000000"
           stroke-width="2.0625"
           stroke-linecap="round"
           stroke-miterlimit="8"
           fill="none"
           id="rect112"
           style="fill:url(#pattern137);fill-opacity:1" /></g><rect
         x="1649"
         y="414"
         width="78"
         height="78"
         stroke="#000000"
         stroke-width="2.0625"
         stroke-linecap="round"
         stroke-miterlimit="8"
         fill="none"
         id="rect114"
         style="fill:url(#pattern129);fill-opacity:1" /></g><path
       d="m 1300.5,723.478 v 0 c 0,-0.472 0.48,-0.943 0.96,-0.943 0.56,0 1.04,0.471 1.04,0.943 v 0 c 0,0.55 -0.48,1.022 -1.04,1.022 -0.48,0 -0.96,-0.472 -0.96,-1.022 z m 0,-3.931 v 0 c 0,-0.472 0.48,-0.943 0.96,-0.943 0.56,0 1.04,0.471 1.04,0.943 v 0 c 0,0.55 -0.48,1.022 -1.04,1.022 -0.48,0 -0.96,-0.472 -0.96,-1.022 z m 0,-3.931 v 0 c 0,-0.55 0.48,-0.943 0.96,-0.943 0.56,0 1.04,0.393 1.04,0.943 v 0 c 0,0.55 -0.48,1.022 -1.04,1.022 -0.48,0 -0.96,-0.472 -0.96,-1.022 z m 0,-3.931 v 0 c 0,-0.55 0.48,-0.943 0.96,-0.943 0.56,0 1.04,0.393 1.04,0.943 v 0 c 0,0.55 -0.48,1.022 -1.04,1.022 -0.48,0 -0.96,-0.472 -0.96,-1.022 z m 0,-3.931 v 0 c 0,-0.55 0.48,-0.944 0.96,-0.944 0.56,0 1.04,0.394 1.04,0.944 v 0 c 0,0.55 -0.48,1.022 -1.04,1.022 -0.48,0 -0.96,-0.472 -0.96,-1.022 z m 0,-3.931 v 0 c 0,-0.55 0.48,-0.944 0.96,-0.944 0.56,0 1.04,0.394 1.04,0.944 v 0 c 0,0.55 -0.48,1.022 -1.04,1.022 -0.48,0 -0.96,-0.472 -0.96,-1.022 z m 0,-3.931 v 0 c 0,-0.551 0.48,-0.944 0.96,-0.944 0.56,0 1.04,0.393 1.04,0.944 v 0 c 0,0.55 -0.48,1.022 -1.04,1.022 -0.48,0 -0.96,-0.472 -0.96,-1.022 z m 0,-3.931 v 0 c 0,-0.551 0.48,-0.944 0.96,-0.944 0.56,0 1.04,0.393 1.04,0.944 v 0 c 0,0.55 -0.48,1.022 -1.04,1.022 -0.48,0 -0.96,-0.472 -0.96,-1.022 z m 0,-3.931 v 0 c 0,-0.551 0.48,-0.944 0.96,-0.944 0.56,0 1.04,0.393 1.04,0.944 v 0 c 0,0.55 -0.48,1.022 -1.04,1.022 -0.48,0 -0.96,-0.472 -0.96,-1.022 z m 0,-3.931 v 0 c 0,-0.551 0.48,-0.944 0.96,-0.944 0.56,0 1.04,0.393 1.04,0.944 v 0 c 0,0.55 -0.48,1.022 -1.04,1.022 -0.48,0 -0.96,-0.472 -0.96,-1.022 z m 0,-3.931 v 0 c 0,-0.551 0.48,-0.944 0.96,-0.944 0.56,0 1.04,0.393 1.04,0.944 v 0 c 0,0.55 -0.48,1.022 -1.04,1.022 -0.48,0 -0.96,-0.472 -0.96,-1.022 z m 0,-3.931 v 0 c 0,-0.551 0.48,-0.944 0.96,-0.944 0.56,0 1.04,0.393 1.04,0.944 v 0 c 0,0.55 -0.48,1.022 -1.04,1.022 -0.48,0 -0.96,-0.472 -0.96,-1.022 z m 0,-3.931 v 0 c 0,-0.551 0.48,-0.944 0.96,-0.944 0.56,0 1.04,0.393 1.04,0.944 v 0 c 0,0.55 -0.48,1.022 -1.04,1.022 -0.48,0 -0.96,-0.472 -0.96,-1.022 z m 0,-3.931 v 0 c 0,-0.551 0.48,-0.944 0.96,-0.944 0.56,0 1.04,0.393 1.04,0.944 v 0 c 0,0.55 -0.48,1.022 -1.04,1.022 -0.48,0 -0.96,-0.472 -0.96,-1.022 z m 0,-3.932 v 0 c 0,-0.55 0.48,-0.943 0.96,-0.943 0.56,0 1.04,0.393 1.04,0.943 v 0 c 0,0.551 -0.48,1.023 -1.04,1.023 -0.48,0 -0.96,-0.472 -0.96,-1.023 z"
       stroke="#000000"
       stroke-width="0.6875"
       stroke-linejoin="bevel"
       stroke-miterlimit="10"
       fill-rule="evenodd"
       id="path114" /></g></svg>
