<?xml version="1.0" encoding="UTF-8" standalone="no"?>
<svg
   width="980"
   height="560"
   xml:space="preserve"
   overflow="hidden"
   version="1.1"
   id="svg27"
   xmlns="http://www.w3.org/2000/svg"
   xmlns:svg="http://www.w3.org/2000/svg"><defs
     id="defs27" /><g
     id="g27"
     transform="translate(-310.35714,-141.42857)"><g
       id="g36"><path
         d="m 914.5,629.50016 202.81,10e-4"
         stroke="#000000"
         stroke-width="3.20833"
         stroke-linejoin="round"
         stroke-miterlimit="10"
         fill="none"
         fill-rule="evenodd"
         id="path1" /><path
         d="M 1116,640 1150,629.605 1116,619 Z"
         fill-rule="evenodd"
         id="path2"
         style="stroke-width:4.58258" /></g><g
       id="g35"><path
         d="M 0,0 231.687,0.458333"
         stroke="#000000"
         stroke-width="3.20833"
         stroke-linejoin="round"
         stroke-miterlimit="10"
         fill="none"
         fill-rule="evenodd"
         transform="matrix(1,0,0,-1,441.5,629.958)"
         id="path3" /><path
         d="M 672,640 706,629.272 672,619 Z"
         fill-rule="evenodd"
         id="path4" /></g><g
       id="g34"><path
         d="m 1157.5,339.5 -18.32,16.03 -19,15.113 -19.24,14.656 -19.92,13.053 -20.38,12.137 -21.06,11.22 -21.53,9.618 -21.977,9.16 -21.982,8.244 -22.44,7.328 -23.126,6.411 -22.44,4.809 -23.584,4.351 -22.897,3.435 -23.585,1.832 -23.584,1.145 -23.585,0.458 -23.126,-1.145 -23.585,-1.374 -23.355,-2.977 -23.127,-3.893 -23.126,-4.809 -22.898,-5.725 -22.668,-6.869 -21.982,-7.786 -21.981,-8.702 -21.295,-9.618 -21.524,-10.763 -20.378,-12.136 -20.379,-12.595 -19.463,-13.74 -19.463,-14.884"
         stroke="#000000"
         stroke-width="3.20833"
         stroke-linejoin="round"
         stroke-miterlimit="10"
         fill="none"
         fill-rule="evenodd"
         id="path5" /><path
         d="M 472,349.625 435,340 l 13.475,33 z"
         fill-rule="evenodd"
         id="path6" /></g><g
       id="g33"><path
         d="m 1135.5,280.252 -18.81,-14.623 -19.96,-13.937 -20.41,-12.795 -20.41,-11.423 -21.11,-11.196 -22.02,-9.824 -22.018,-8.682 -22.021,-7.769 -22.479,-6.625 -23.167,-5.941 -22.938,-4.798 -23.167,-3.884 -23.626,-2.97 -22.938,-1.371 L 806.8,163.5 h -23.626 l -23.626,1.371 -23.626,2.056 -23.167,3.199 -22.938,3.884 -23.167,5.483 -22.938,5.712 -22.709,7.312 -22.02,8.225 -21.332,9.139 -21.562,10.281 -21.103,10.967 -20.873,12.109 -19.956,13.252 -19.498,13.937 -18.809,15.08 -18.35,15.993"
         stroke="#000000"
         stroke-width="3.20833"
         stroke-linejoin="round"
         stroke-miterlimit="10"
         fill="none"
         fill-rule="evenodd"
         id="path7" /><path
         d="m 1123,292.055 37,9.945 -13.18,-33 z"
         fill-rule="evenodd"
         id="path8" /></g><path
       d="m 324.5,319 c 0,-30.1 26.639,-54.5 59.5,-54.5 32.861,0 59.5,24.4 59.5,54.5 0,30.1 -26.639,54.5 -59.5,54.5 -32.861,0 -59.5,-24.4 -59.5,-54.5 z"
       stroke="#000000"
       stroke-width="3.20833"
       stroke-linejoin="round"
       stroke-miterlimit="10"
       fill="#ffffff"
       fill-rule="evenodd"
       id="path9" /><g
       id="g32"
       transform="translate(-75.000211)"><text
         font-family="Arial, Arial_MSFontService, sans-serif"
         font-weight="400"
         font-size="46px"
         transform="translate(434.5,336)"
         id="text9">R</text><text
         font-family="Arial, Arial_MSFontService, sans-serif"
         font-weight="400"
         font-size="32px"
         transform="translate(469.104,341)"
         id="text10">1</text></g><path
       d="m 1154.5,316 c 0,-30.099 26.42,-54.5 59,-54.5 32.58,0 59,24.401 59,54.5 0,30.1 -26.42,54.5 -59,54.5 -32.58,0 -59,-24.4 -59,-54.5 z"
       stroke="#000000"
       stroke-width="3.20833"
       stroke-linejoin="round"
       stroke-miterlimit="10"
       fill="#ffffff"
       fill-rule="evenodd"
       id="path10" /><g
       id="g31"
       transform="translate(-75.000211)"><text
         font-family="Arial, Arial_MSFontService, sans-serif"
         font-weight="400"
         font-size="46px"
         transform="translate(1264.54,333)"
         id="text11">R</text><text
         font-family="Arial, Arial_MSFontService, sans-serif"
         font-weight="400"
         font-size="32px"
         transform="translate(1299.15,339)"
         id="text12">2</text></g><text
       font-family="Arial, Arial_MSFontService, sans-serif"
       font-style="italic"
       font-weight="400"
       font-size="46px"
       id="text13"
       x="553.37506"
       y="400">Import</text><text
       font-family="Arial, Arial_MSFontService, sans-serif"
       font-style="italic"
       font-weight="400"
       font-size="46px"
       id="text14"
       x="906.97906"
       y="291">Import</text><text
       font-family="Arial,Arial_MSFontService,sans-serif"
       font-style="italic"
       font-weight="400"
       font-size="46"
       id="text15"
       style="font-style:italic;font-variant:normal;font-weight:normal;font-stretch:normal;font-size:46px;font-family:Arial, Arial_MSFontService, sans-serif;-inkscape-font-specification:'Arial, Arial_MSFontService, sans-serif, Italic';font-variant-ligatures:normal;font-variant-caps:normal;font-variant-numeric:normal;font-variant-east-asian:normal"
       x="551.77057"
       y="291"><tspan
         id="tspan31"
         x="551.77057"
         y="291">Export</tspan></text><text
       font-family="Arial,Arial_MSFontService,sans-serif"
       font-style="italic"
       font-weight="400"
       font-size="46"
       id="text17"
       style="font-style:italic;font-variant:normal;font-weight:normal;font-stretch:normal;font-size:46px;font-family:Arial, Arial_MSFontService, sans-serif;-inkscape-font-specification:'Arial, Arial_MSFontService, sans-serif, Italic';font-variant-ligatures:normal;font-variant-caps:normal;font-variant-numeric:normal;font-variant-east-asian:normal"
       x="905.37457"
       y="400"><tspan
         id="tspan30"
         x="905.37457"
         y="400">Export</tspan></text><path
       d="m 324.5,629.5 c 0,-30.376 26.639,-55 59.5,-55 32.861,0 59.5,24.624 59.5,55 0,30.376 -26.639,55 -59.5,55 -32.861,0 -59.5,-24.624 -59.5,-55 z"
       stroke="#000000"
       stroke-width="3.20833"
       stroke-linejoin="round"
       stroke-miterlimit="10"
       fill="#ffffff"
       fill-rule="evenodd"
       id="path18" /><g
       id="g30"
       transform="translate(-75.000211)"><text
         font-family="Arial, Arial_MSFontService, sans-serif"
         font-weight="400"
         font-size="46px"
         transform="translate(434.5,646)"
         id="text19">R</text><text
         font-family="Arial, Arial_MSFontService, sans-serif"
         font-weight="400"
         font-size="32px"
         transform="translate(469.104,652)"
         id="text20">1</text></g><path
       d="m 700.5,630.5 c 0,-30.376 48.577,-55 108.5,-55 59.923,0 108.5,24.624 108.5,55 0,30.376 -48.577,55 -108.5,55 -59.923,0 -108.5,-24.624 -108.5,-55 z"
       stroke="#000000"
       stroke-width="3.20833"
       stroke-linejoin="round"
       stroke-miterlimit="10"
       fill="#ffffff"
       fill-rule="evenodd"
       id="path20" /><g
       id="g29"
       transform="translate(-75.000211)"><text
         font-family="Arial, Arial_MSFontService, sans-serif"
         font-weight="400"
         font-size="46px"
         transform="translate(815.375,647)"
         id="text21">R</text><text
         font-family="Arial, Arial_MSFontService, sans-serif"
         font-weight="400"
         font-size="28px"
         transform="translate(849.979,651)"
         id="text22">2</text><text
         font-family="Arial, Arial_MSFontService, sans-serif"
         font-weight="400"
         font-size="46px"
         transform="translate(866.708,647)"
         id="text23">=</text><text
         font-family="Arial, Arial_MSFontService, sans-serif"
         font-weight="400"
         font-size="46px"
         transform="translate(895.125,647)"
         id="text24">R</text><text
         font-family="Arial, Arial_MSFontService, sans-serif"
         font-weight="400"
         font-size="32px"
         transform="translate(929.729,653)"
         id="text25">M</text></g><path
       d="m 1149.5,629.5 c 0,-30.376 26.64,-55 59.5,-55 32.86,0 59.5,24.624 59.5,55 0,30.376 -26.64,55 -59.5,55 -32.86,0 -59.5,-24.624 -59.5,-55 z"
       stroke="#000000"
       stroke-width="3.20833"
       stroke-linejoin="round"
       stroke-miterlimit="10"
       fill="#ffffff"
       fill-rule="evenodd"
       id="path25" /><g
       id="g28"
       transform="translate(-75.000211)"><text
         font-family="Arial, Arial_MSFontService, sans-serif"
         font-weight="400"
         font-size="46px"
         transform="translate(1259.73,646)"
         id="text26">R</text><text
         font-family="Arial, Arial_MSFontService, sans-serif"
         font-weight="400"
         font-size="32px"
         transform="translate(1294.33,652)"
         id="text27">1</text></g><path
       d="m 804.614,490.5 33.886,14.462 h -17.172 v 43.846 H 838.5 L 804.614,563.5 770.5,548.808 h 16.714 V 504.962 H 770.5 Z"
       stroke="#000000"
       stroke-width="3.20833"
       stroke-linejoin="round"
       stroke-miterlimit="10"
       fill="#ffffff"
       fill-rule="evenodd"
       id="path27" /></g></svg>
