<?xml version="1.0" encoding="UTF-8" standalone="no"?>
<svg
   width="1618.9296"
   height="1169.4381"
   xml:space="preserve"
   overflow="hidden"
   version="1.1"
   id="svg94"
   xmlns:xlink="http://www.w3.org/1999/xlink"
   xmlns="http://www.w3.org/2000/svg"
   xmlns:svg="http://www.w3.org/2000/svg"><defs
     id="defs94"><pattern
       xlink:href="#pattern114"
       preserveAspectRatio="xMidYMid"
       id="pattern118"
       patternTransform="scale(5)"
       x="0"
       y="0"
       height="2.4" /><pattern
       xlink:href="#pattern114"
       preserveAspectRatio="xMidYMid"
       id="pattern117"
       patternTransform="scale(5)"
       x="0"
       y="0"
       height="2.4" /><pattern
       xlink:href="#pattern114"
       preserveAspectRatio="xMidYMid"
       id="pattern116"
       patternTransform="scale(5)"
       x="0"
       y="0"
       height="2.4" /><pattern
       xlink:href="#pattern114"
       preserveAspectRatio="xMidYMid"
       id="pattern115"
       patternTransform="scale(5)"
       x="0"
       y="0"
       height="2.4" /><pattern
       patternUnits="userSpaceOnUse"
       width="2.5"
       height="1"
       patternTransform="translate(0,0) scale(2,2)"
       preserveAspectRatio="xMidYMid"
       id="pattern114"
       style="fill:#000000">
      <rect
   style="stroke:none"
   x="0"
   y="-0.5"
   width="1"
   height="2"
   id="rect113" />
    </pattern><pattern
       xlink:href="#Strips1_1.5"
       preserveAspectRatio="xMidYMid"
       id="pattern110"
       patternTransform="matrix(-3.5355339,3.5355339,-3.5355339,-3.5355339,0,0)"
       x="0"
       y="0" /><pattern
       xlink:href="#Strips1_1.5"
       preserveAspectRatio="xMidYMid"
       id="pattern109"
       patternTransform="matrix(-3.5355339,3.5355339,-3.5355339,-3.5355339,0,0)"
       x="0"
       y="0" /><pattern
       xlink:href="#Strips1_1.5"
       preserveAspectRatio="xMidYMid"
       id="pattern108"
       patternTransform="matrix(-3.5355339,3.5355339,-3.5355339,-3.5355339,0,0)"
       x="0"
       y="0" /><pattern
       xlink:href="#Strips1_1.5"
       preserveAspectRatio="xMidYMid"
       id="pattern107"
       patternTransform="matrix(-3.5355339,3.5355339,-3.5355339,-3.5355339,0,0)"
       x="0"
       y="0" /><pattern
       xlink:href="#Strips1_1.5"
       preserveAspectRatio="xMidYMid"
       id="pattern106"
       patternTransform="matrix(3.5355339,3.5355339,-3.5355339,3.5355339,0,0)"
       x="0"
       y="0" /><pattern
       xlink:href="#Strips1_1.5"
       preserveAspectRatio="xMidYMid"
       id="pattern105"
       patternTransform="matrix(3.5355339,3.5355339,-3.5355339,3.5355339,0,0)"
       x="0"
       y="0" /><pattern
       xlink:href="#Strips1_1.5"
       preserveAspectRatio="xMidYMid"
       id="pattern104"
       patternTransform="matrix(3.5355339,3.5355339,-3.5355339,3.5355339,0,0)"
       x="0"
       y="0" /><pattern
       xlink:href="#Strips1_1.5"
       preserveAspectRatio="xMidYMid"
       id="pattern103"
       patternTransform="matrix(3.5355339,3.5355339,-3.5355339,3.5355339,0,0)"
       x="0"
       y="0" /><pattern
       xlink:href="#Strips1_1.5"
       preserveAspectRatio="xMidYMid"
       id="pattern102"
       patternTransform="matrix(3.5355339,3.5355339,-3.5355339,3.5355339,0,0)"
       x="0"
       y="0" /><pattern
       patternUnits="userSpaceOnUse"
       width="2.5"
       height="1"
       patternTransform="translate(0,0) scale(2,2)"
       preserveAspectRatio="xMidYMid"
       id="Strips1_1.5"
       style="fill:#000000">
      <rect
   style="stroke:none"
   x="0"
   y="-0.5"
   width="1"
   height="2"
   id="rect140" />
    </pattern></defs><g
     transform="translate(-87.974883,-8.1300276)"
     id="g94"><rect
       x="88.942978"
       y="9.0981226"
       width="1616.9934"
       height="1167.502"
       stroke="#000000"
       stroke-width="1.93619"
       stroke-miterlimit="8"
       fill="none"
       id="rect1" /><path
       d="M 127,1072 H 1621.17"
       stroke="#000000"
       stroke-width="3.89583"
       stroke-linejoin="round"
       stroke-miterlimit="10"
       fill="none"
       fill-rule="evenodd"
       id="path2" /><rect
       x="284"
       y="994"
       width="78"
       height="78"
       stroke="#000000"
       stroke-width="2.0625"
       stroke-linecap="round"
       stroke-miterlimit="8"
       fill="none"
       id="rect4"
       style="fill:url(#pattern106);fill-opacity:1" /><rect
       x="362"
       y="994"
       width="78"
       height="78"
       stroke="#000000"
       stroke-width="2.0625"
       stroke-linecap="round"
       stroke-miterlimit="8"
       fill="none"
       id="rect5" /><rect
       x="440"
       y="994"
       width="79.000099"
       height="78"
       stroke="#000000"
       stroke-width="2.0625"
       stroke-linecap="round"
       stroke-miterlimit="8"
       fill="none"
       id="rect6" /><rect
       x="362"
       y="916"
       width="78"
       height="78"
       stroke="#000000"
       stroke-width="2.0625"
       stroke-linecap="round"
       stroke-miterlimit="8"
       fill="none"
       id="rect8"
       style="fill:url(#pattern105);fill-opacity:1" /><rect
       x="440"
       y="916"
       width="79.000099"
       height="78"
       stroke="#000000"
       stroke-width="2.0625"
       stroke-linecap="round"
       stroke-miterlimit="8"
       fill="none"
       id="rect9" /><rect
       x="519"
       y="916"
       width="78.000099"
       height="78"
       stroke="#000000"
       stroke-width="2.0625"
       stroke-linecap="round"
       stroke-miterlimit="8"
       fill="none"
       id="rect10" /><rect
       x="440"
       y="838"
       width="79.000099"
       height="78.000099"
       stroke="#000000"
       stroke-width="2.0625"
       stroke-linecap="round"
       stroke-miterlimit="8"
       fill="none"
       id="rect12"
       style="fill:url(#pattern104);fill-opacity:1" /><rect
       x="519"
       y="838"
       width="78.000099"
       height="78.000099"
       stroke="#000000"
       stroke-width="2.0625"
       stroke-linecap="round"
       stroke-miterlimit="8"
       fill="none"
       id="rect13" /><rect
       x="597"
       y="838"
       width="79.000099"
       height="78.000099"
       stroke="#000000"
       stroke-width="2.0625"
       stroke-linecap="round"
       stroke-miterlimit="8"
       fill="none"
       id="rect14" /><rect
       x="519"
       y="760"
       width="78.000099"
       height="78.000099"
       stroke="#000000"
       stroke-width="2.0625"
       stroke-linecap="round"
       stroke-miterlimit="8"
       fill="none"
       id="rect16"
       style="fill:url(#pattern103);fill-opacity:1" /><rect
       x="597"
       y="760"
       width="79.000099"
       height="78.000099"
       stroke="#000000"
       stroke-width="2.0625"
       stroke-linecap="round"
       stroke-miterlimit="8"
       fill="none"
       id="rect17" /><rect
       x="676"
       y="760"
       width="77.999702"
       height="78.000099"
       stroke="#000000"
       stroke-width="2.0625"
       stroke-linecap="round"
       stroke-miterlimit="8"
       fill="none"
       id="rect18" /><path
       d="M 0,0 3.60892e-4,562.604"
       stroke="#000000"
       stroke-width="3.89583"
       stroke-linejoin="round"
       stroke-miterlimit="10"
       fill="none"
       fill-rule="evenodd"
       transform="matrix(1,0,0,-1,284,1130.6)"
       id="path18" /><path
       d="m 911,578 v 562.6"
       stroke="#000000"
       stroke-width="3.89583"
       stroke-linejoin="round"
       stroke-miterlimit="10"
       fill="none"
       fill-rule="evenodd"
       id="path19" /><path
       d="m 297.55,634.062 h 0.039 c 0.509,0 0.979,0.413 0.979,0.938 0,0.525 -0.47,0.937 -0.979,0.937 h -0.039 c -0.51,0 -0.98,-0.412 -0.98,-0.937 0,-0.525 0.47,-0.938 0.98,-0.938 z m 3.958,0 v 0 c 0.509,0 0.979,0.413 0.979,0.938 0,0.525 -0.47,0.937 -0.979,0.937 v 0 c -0.549,0 -0.98,-0.412 -0.98,-0.937 0,-0.525 0.431,-0.938 0.98,-0.938 z m 3.918,0 v 0 c 0.51,0 0.98,0.413 0.98,0.938 0,0.525 -0.47,0.937 -0.98,0.937 v 0 c -0.548,0 -0.979,-0.412 -0.979,-0.937 0,-0.525 0.431,-0.938 0.979,-0.938 z m 3.919,0 v 0 c 0.509,0 0.98,0.413 0.98,0.938 0,0.525 -0.471,0.937 -0.98,0.937 v 0 c -0.549,0 -0.98,-0.412 -0.98,-0.937 0,-0.525 0.431,-0.938 0.98,-0.938 z m 3.919,0 v 0 c 0.548,0 0.979,0.413 0.979,0.938 0,0.525 -0.431,0.937 -0.979,0.937 v 0 c -0.549,0 -0.98,-0.412 -0.98,-0.937 0,-0.525 0.431,-0.938 0.98,-0.938 z m 3.918,0 v 0 c 0.549,0 0.98,0.413 0.98,0.938 0,0.525 -0.431,0.937 -0.98,0.937 v 0 c -0.548,0 -0.979,-0.412 -0.979,-0.937 0,-0.525 0.431,-0.938 0.979,-0.938 z m 3.919,0 v 0 c 0.549,0 0.98,0.413 0.98,0.938 0,0.525 -0.431,0.937 -0.98,0.937 v 0 c -0.548,0 -0.979,-0.412 -0.979,-0.937 0,-0.525 0.431,-0.938 0.979,-0.938 z m 3.919,0 v 0 c 0.549,0 0.98,0.413 0.98,0.938 0,0.525 -0.431,0.937 -0.98,0.937 v 0 c -0.549,0 -0.98,-0.412 -0.98,-0.937 0,-0.525 0.431,-0.938 0.98,-0.938 z m 3.919,0 v 0 c 0.548,0 0.979,0.413 0.979,0.938 0,0.525 -0.431,0.937 -0.979,0.937 v 0 c -0.549,0 -0.98,-0.412 -0.98,-0.937 0,-0.525 0.431,-0.938 0.98,-0.938 z m 3.918,0 v 0 c 0.549,0 0.98,0.413 0.98,0.938 0,0.525 -0.431,0.937 -0.98,0.937 v 0 c -0.548,0 -0.979,-0.412 -0.979,-0.937 0,-0.525 0.431,-0.938 0.979,-0.938 z m 3.919,0 v 0 c 0.549,0 0.98,0.413 0.98,0.938 0,0.525 -0.431,0.937 -0.98,0.937 v 0 c -0.548,0 -0.979,-0.412 -0.979,-0.937 0,-0.525 0.431,-0.938 0.979,-0.938 z m 3.919,0 v 0 c 0.549,0 0.98,0.413 0.98,0.938 0,0.525 -0.431,0.937 -0.98,0.937 v 0 c -0.549,0 -0.98,-0.412 -0.98,-0.937 0,-0.525 0.431,-0.938 0.98,-0.938 z m 3.919,0 v 0 c 0.548,0 0.979,0.413 0.979,0.938 0,0.525 -0.431,0.937 -0.979,0.937 v 0 c -0.549,0 -0.98,-0.412 -0.98,-0.937 0,-0.525 0.431,-0.938 0.98,-0.938 z m 3.919,0 v 0 c 0.548,0 0.979,0.413 0.979,0.938 0,0.525 -0.431,0.937 -0.979,0.937 v 0 c -0.549,0 -0.98,-0.412 -0.98,-0.937 0,-0.525 0.431,-0.938 0.98,-0.938 z m 3.918,0 v 0 c 0.549,0 0.98,0.413 0.98,0.938 0,0.525 -0.431,0.937 -0.98,0.937 v 0 c -0.548,0 -0.979,-0.412 -0.979,-0.937 0,-0.525 0.431,-0.938 0.979,-0.938 z m 3.919,0 v 0 c 0.549,0 0.98,0.413 0.98,0.938 0,0.525 -0.431,0.937 -0.98,0.937 v 0 c -0.549,0 -0.98,-0.412 -0.98,-0.937 0,-0.525 0.431,-0.938 0.98,-0.938 z m 3.919,0 v 0 c 0.548,0 0.979,0.413 0.979,0.938 0,0.525 -0.431,0.937 -0.979,0.937 v 0 c -0.549,0 -0.98,-0.412 -0.98,-0.937 0,-0.525 0.431,-0.938 0.98,-0.938 z m 3.918,0 v 0 c 0.549,0 0.98,0.413 0.98,0.938 0,0.525 -0.431,0.937 -0.98,0.937 v 0 c -0.509,0 -0.979,-0.412 -0.979,-0.937 0,-0.525 0.47,-0.938 0.979,-0.938 z m 3.919,0 v 0 c 0.549,0 0.98,0.413 0.98,0.938 0,0.525 -0.431,0.937 -0.98,0.937 v 0 c -0.509,0 -0.979,-0.412 -0.979,-0.937 0,-0.525 0.47,-0.938 0.979,-0.938 z m 3.919,0 v 0 c 0.549,0 0.98,0.413 0.98,0.938 0,0.525 -0.431,0.937 -0.98,0.937 v 0 c -0.509,0 -0.98,-0.412 -0.98,-0.937 0,-0.525 0.471,-0.938 0.98,-0.938 z m 3.919,0 h 0.039 c 0.509,0 0.98,0.413 0.98,0.938 0,0.525 -0.471,0.937 -0.98,0.937 h -0.039 c -0.51,0 -0.98,-0.412 -0.98,-0.937 0,-0.525 0.47,-0.938 0.98,-0.938 z m 3.958,0 v 0 c 0.509,0 0.979,0.413 0.979,0.938 0,0.525 -0.47,0.937 -0.979,0.937 v 0 c -0.549,0 -0.98,-0.412 -0.98,-0.937 0,-0.525 0.431,-0.938 0.98,-0.938 z m 3.918,0 v 0 c 0.51,0 0.98,0.413 0.98,0.938 0,0.525 -0.47,0.937 -0.98,0.937 v 0 c -0.548,0 -0.979,-0.412 -0.979,-0.937 0,-0.525 0.431,-0.938 0.979,-0.938 z m 3.919,0 v 0 c 0.51,0 0.98,0.413 0.98,0.938 0,0.525 -0.47,0.937 -0.98,0.937 v 0 c -0.548,0 -0.98,-0.412 -0.98,-0.937 0,-0.525 0.432,-0.938 0.98,-0.938 z m 3.919,0 v 0 c 0.549,0 0.98,0.413 0.98,0.938 0,0.525 -0.431,0.937 -0.98,0.937 v 0 c -0.549,0 -0.98,-0.412 -0.98,-0.937 0,-0.525 0.431,-0.938 0.98,-0.938 z m 3.919,0 v 0 c 0.548,0 0.979,0.413 0.979,0.938 0,0.525 -0.431,0.937 -0.979,0.937 v 0 c -0.549,0 -0.98,-0.412 -0.98,-0.937 0,-0.525 0.431,-0.938 0.98,-0.938 z m 3.918,0 v 0 c 0.549,0 0.98,0.413 0.98,0.938 0,0.525 -0.431,0.937 -0.98,0.937 v 0 c -0.548,0 -0.979,-0.412 -0.979,-0.937 0,-0.525 0.431,-0.938 0.979,-0.938 z m 3.919,0 v 0 c 0.549,0 0.98,0.413 0.98,0.938 0,0.525 -0.431,0.937 -0.98,0.937 v 0 c -0.548,0 -0.98,-0.412 -0.98,-0.937 0,-0.525 0.432,-0.938 0.98,-0.938 z m 3.919,0 v 0 c 0.549,0 0.98,0.413 0.98,0.938 0,0.525 -0.431,0.937 -0.98,0.937 v 0 c -0.549,0 -0.98,-0.412 -0.98,-0.937 0,-0.525 0.431,-0.938 0.98,-0.938 z m 3.919,0 v 0 c 0.548,0 0.979,0.413 0.979,0.938 0,0.525 -0.431,0.937 -0.979,0.937 v 0 c -0.549,0 -0.98,-0.412 -0.98,-0.937 0,-0.525 0.431,-0.938 0.98,-0.938 z m 3.918,0 v 0 c 0.549,0 0.98,0.413 0.98,0.938 0,0.525 -0.431,0.937 -0.98,0.937 v 0 c -0.548,0 -0.979,-0.412 -0.979,-0.937 0,-0.525 0.431,-0.938 0.979,-0.938 z m 3.919,0 v 0 c 0.549,0 0.98,0.413 0.98,0.938 0,0.525 -0.431,0.937 -0.98,0.937 v 0 c -0.548,0 -0.979,-0.412 -0.979,-0.937 0,-0.525 0.431,-0.938 0.979,-0.938 z m 3.919,0 v 0 c 0.549,0 0.98,0.413 0.98,0.938 0,0.525 -0.431,0.937 -0.98,0.937 v 0 c -0.549,0 -0.98,-0.412 -0.98,-0.937 0,-0.525 0.431,-0.938 0.98,-0.938 z m 3.919,0 v 0 c 0.548,0 0.979,0.413 0.979,0.938 0,0.525 -0.431,0.937 -0.979,0.937 v 0 c -0.549,0 -0.98,-0.412 -0.98,-0.937 0,-0.525 0.431,-0.938 0.98,-0.938 z m 3.918,0 v 0 c 0.549,0 0.98,0.413 0.98,0.938 0,0.525 -0.431,0.937 -0.98,0.937 v 0 c -0.548,0 -0.979,-0.412 -0.979,-0.937 0,-0.525 0.431,-0.938 0.979,-0.938 z m 3.919,0 v 0 c 0.549,0 0.98,0.413 0.98,0.938 0,0.525 -0.431,0.937 -0.98,0.937 v 0 c -0.548,0 -0.979,-0.412 -0.979,-0.937 0,-0.525 0.431,-0.938 0.979,-0.938 z m 3.919,0 v 0 c 0.549,0 0.98,0.413 0.98,0.938 0,0.525 -0.431,0.937 -0.98,0.937 v 0 c -0.549,0 -0.98,-0.412 -0.98,-0.937 0,-0.525 0.431,-0.938 0.98,-0.938 z m 3.919,0 v 0 c 0.548,0 0.979,0.413 0.979,0.938 0,0.525 -0.431,0.937 -0.979,0.937 v 0 c -0.51,0 -0.98,-0.412 -0.98,-0.937 0,-0.525 0.47,-0.938 0.98,-0.938 z m 3.918,0 v 0 c 0.549,0 0.98,0.413 0.98,0.938 0,0.525 -0.431,0.937 -0.98,0.937 v 0 c -0.509,0 -0.979,-0.412 -0.979,-0.937 0,-0.525 0.47,-0.938 0.979,-0.938 z m 3.919,0 v 0 c 0.549,0 0.98,0.413 0.98,0.938 0,0.525 -0.431,0.937 -0.98,0.937 v 0 c -0.509,0 -0.98,-0.412 -0.98,-0.937 0,-0.525 0.471,-0.938 0.98,-0.938 z m 3.919,0 h 0.039 c 0.51,0 0.98,0.413 0.98,0.938 0,0.525 -0.47,0.937 -0.98,0.937 h -0.039 c -0.51,0 -0.98,-0.412 -0.98,-0.937 0,-0.525 0.47,-0.938 0.98,-0.938 z m 3.958,0 v 0 c 0.509,0 0.98,0.413 0.98,0.938 0,0.525 -0.471,0.937 -0.98,0.937 v 0 c -0.549,0 -0.98,-0.412 -0.98,-0.937 0,-0.525 0.431,-0.938 0.98,-0.938 z m 3.919,0 v 0 c 0.509,0 0.979,0.413 0.979,0.938 0,0.525 -0.47,0.937 -0.979,0.937 v 0 c -0.549,0 -0.98,-0.412 -0.98,-0.937 0,-0.525 0.431,-0.938 0.98,-0.938 z m 3.918,0 v 0 c 0.51,0 0.98,0.413 0.98,0.938 0,0.525 -0.47,0.937 -0.98,0.937 v 0 c -0.548,0 -0.979,-0.412 -0.979,-0.937 0,-0.525 0.431,-0.938 0.979,-0.938 z m 3.919,0 v 0 c 0.549,0 0.98,0.413 0.98,0.938 0,0.525 -0.431,0.937 -0.98,0.937 v 0 c -0.548,0 -0.98,-0.412 -0.98,-0.937 0,-0.525 0.432,-0.938 0.98,-0.938 z m 3.919,0 v 0 c 0.549,0 0.98,0.413 0.98,0.938 0,0.525 -0.431,0.937 -0.98,0.937 v 0 c -0.549,0 -0.98,-0.412 -0.98,-0.937 0,-0.525 0.431,-0.938 0.98,-0.938 z m 3.919,0 v 0 c 0.548,0 0.979,0.413 0.979,0.938 0,0.525 -0.431,0.937 -0.979,0.937 v 0 c -0.549,0 -0.98,-0.412 -0.98,-0.937 0,-0.525 0.431,-0.938 0.98,-0.938 z m 3.918,0 v 0 c 0.549,0 0.98,0.413 0.98,0.938 0,0.525 -0.431,0.937 -0.98,0.937 v 0 c -0.548,0 -0.979,-0.412 -0.979,-0.937 0,-0.525 0.431,-0.938 0.979,-0.938 z m 3.919,0 v 0 c 0.549,0 0.98,0.413 0.98,0.938 0,0.525 -0.431,0.937 -0.98,0.937 v 0 c -0.548,0 -0.98,-0.412 -0.98,-0.937 0,-0.525 0.432,-0.938 0.98,-0.938 z m 3.919,0 v 0 c 0.548,0 0.98,0.413 0.98,0.938 0,0.525 -0.432,0.937 -0.98,0.937 v 0 c -0.549,0 -0.98,-0.412 -0.98,-0.937 0,-0.525 0.431,-0.938 0.98,-0.938 z m 3.919,0 v 0 c 0.548,0 0.979,0.413 0.979,0.938 0,0.525 -0.431,0.937 -0.979,0.937 v 0 c -0.549,0 -0.98,-0.412 -0.98,-0.937 0,-0.525 0.431,-0.938 0.98,-0.938 z m 3.918,0 v 0 c 0.549,0 0.98,0.413 0.98,0.938 0,0.525 -0.431,0.937 -0.98,0.937 v 0 c -0.548,0 -0.979,-0.412 -0.979,-0.937 0,-0.525 0.431,-0.938 0.979,-0.938 z m 3.919,0 v 0 c 0.549,0 0.98,0.413 0.98,0.938 0,0.525 -0.431,0.937 -0.98,0.937 v 0 c -0.549,0 -0.98,-0.412 -0.98,-0.937 0,-0.525 0.431,-0.938 0.98,-0.938 z m 3.919,0 v 0 c 0.548,0 0.98,0.413 0.98,0.938 0,0.525 -0.432,0.937 -0.98,0.937 v 0 c -0.549,0 -0.98,-0.412 -0.98,-0.937 0,-0.525 0.431,-0.938 0.98,-0.938 z m 3.919,0 v 0 c 0.548,0 0.979,0.413 0.979,0.938 0,0.525 -0.431,0.937 -0.979,0.937 v 0 c -0.549,0 -0.98,-0.412 -0.98,-0.937 0,-0.525 0.431,-0.938 0.98,-0.938 z m 3.918,0 v 0 c 0.549,0 0.98,0.413 0.98,0.938 0,0.525 -0.431,0.937 -0.98,0.937 v 0 c -0.548,0 -0.979,-0.412 -0.979,-0.937 0,-0.525 0.431,-0.938 0.979,-0.938 z m 3.919,0 v 0 c 0.549,0 0.98,0.413 0.98,0.938 0,0.525 -0.431,0.937 -0.98,0.937 v 0 c -0.549,0 -0.98,-0.412 -0.98,-0.937 0,-0.525 0.431,-0.938 0.98,-0.938 z m 3.919,0 v 0 c 0.548,0 0.98,0.413 0.98,0.938 0,0.525 -0.432,0.937 -0.98,0.937 v 0 c -0.51,0 -0.98,-0.412 -0.98,-0.937 0,-0.525 0.47,-0.938 0.98,-0.938 z m 3.919,0 v 0 c 0.548,0 0.979,0.413 0.979,0.938 0,0.525 -0.431,0.937 -0.979,0.937 v 0 c -0.51,0 -0.98,-0.412 -0.98,-0.937 0,-0.525 0.47,-0.938 0.98,-0.938 z m 3.918,0 v 0 c 0.549,0 0.98,0.413 0.98,0.938 0,0.525 -0.431,0.937 -0.98,0.937 v 0 c -0.509,0 -0.979,-0.412 -0.979,-0.937 0,-0.525 0.47,-0.938 0.979,-0.938 z m 3.919,0 h 0.039 c 0.51,0 0.98,0.413 0.98,0.938 0,0.525 -0.47,0.937 -0.98,0.937 h -0.039 c -0.509,0 -0.98,-0.412 -0.98,-0.937 0,-0.525 0.471,-0.938 0.98,-0.938 z m 3.958,0 v 0 c 0.51,0 0.98,0.413 0.98,0.938 0,0.525 -0.47,0.937 -0.98,0.937 v 0 c -0.549,0 -0.98,-0.412 -0.98,-0.937 0,-0.525 0.431,-0.938 0.98,-0.938 z m 3.919,0 v 0 c 0.509,0 0.979,0.413 0.979,0.938 0,0.525 -0.47,0.937 -0.979,0.937 v 0 c -0.549,0 -0.98,-0.412 -0.98,-0.937 0,-0.525 0.431,-0.938 0.98,-0.938 z m 3.919,0 v 0 c 0.509,0 0.979,0.413 0.979,0.938 0,0.525 -0.47,0.937 -0.979,0.937 v 0 c -0.549,0 -0.98,-0.412 -0.98,-0.937 0,-0.525 0.431,-0.938 0.98,-0.938 z m 3.918,0 v 0 c 0.549,0 0.98,0.413 0.98,0.938 0,0.525 -0.431,0.937 -0.98,0.937 v 0 c -0.548,0 -0.979,-0.412 -0.979,-0.937 0,-0.525 0.431,-0.938 0.979,-0.938 z m 3.919,0 v 0 c 0.549,0 0.98,0.413 0.98,0.938 0,0.525 -0.431,0.937 -0.98,0.937 v 0 c -0.549,0 -0.98,-0.412 -0.98,-0.937 0,-0.525 0.431,-0.938 0.98,-0.938 z m 3.919,0 v 0 c 0.548,0 0.979,0.413 0.979,0.938 0,0.525 -0.431,0.937 -0.979,0.937 v 0 c -0.549,0 -0.98,-0.412 -0.98,-0.937 0,-0.525 0.431,-0.938 0.98,-0.938 z m 3.919,0 v 0 c 0.548,0 0.979,0.413 0.979,0.938 0,0.525 -0.431,0.937 -0.979,0.937 v 0 c -0.549,0 -0.98,-0.412 -0.98,-0.937 0,-0.525 0.431,-0.938 0.98,-0.938 z m 3.918,0 v 0 c 0.549,0 0.98,0.413 0.98,0.938 0,0.525 -0.431,0.937 -0.98,0.937 v 0 c -0.548,0 -0.979,-0.412 -0.979,-0.937 0,-0.525 0.431,-0.938 0.979,-0.938 z m 3.919,0 v 0 c 0.549,0 0.98,0.413 0.98,0.938 0,0.525 -0.431,0.937 -0.98,0.937 v 0 c -0.549,0 -0.98,-0.412 -0.98,-0.937 0,-0.525 0.431,-0.938 0.98,-0.938 z m 3.919,0 v 0 c 0.548,0 0.979,0.413 0.979,0.938 0,0.525 -0.431,0.937 -0.979,0.937 v 0 c -0.549,0 -0.98,-0.412 -0.98,-0.937 0,-0.525 0.431,-0.938 0.98,-0.938 z m 3.919,0 v 0 c 0.548,0 0.979,0.413 0.979,0.938 0,0.525 -0.431,0.937 -0.979,0.937 v 0 c -0.549,0 -0.98,-0.412 -0.98,-0.937 0,-0.525 0.431,-0.938 0.98,-0.938 z m 3.918,0 v 0 c 0.549,0 0.98,0.413 0.98,0.938 0,0.525 -0.431,0.937 -0.98,0.937 v 0 c -0.548,0 -0.979,-0.412 -0.979,-0.937 0,-0.525 0.431,-0.938 0.979,-0.938 z m 3.919,0 v 0 c 0.549,0 0.98,0.413 0.98,0.938 0,0.525 -0.431,0.937 -0.98,0.937 v 0 c -0.549,0 -0.98,-0.412 -0.98,-0.937 0,-0.525 0.431,-0.938 0.98,-0.938 z m 3.919,0 v 0 c 0.548,0 0.979,0.413 0.979,0.938 0,0.525 -0.431,0.937 -0.979,0.937 v 0 c -0.549,0 -0.98,-0.412 -0.98,-0.937 0,-0.525 0.431,-0.938 0.98,-0.938 z m 3.919,0 v 0 c 0.548,0 0.979,0.413 0.979,0.938 0,0.525 -0.431,0.937 -0.979,0.937 v 0 c -0.549,0 -0.98,-0.412 -0.98,-0.937 0,-0.525 0.431,-0.938 0.98,-0.938 z m 3.918,0 v 0 c 0.549,0 0.98,0.413 0.98,0.938 0,0.525 -0.431,0.937 -0.98,0.937 v 0 c -0.548,0 -0.979,-0.412 -0.979,-0.937 0,-0.525 0.431,-0.938 0.979,-0.938 z m 3.919,0 v 0 c 0.549,0 0.98,0.413 0.98,0.938 0,0.525 -0.431,0.937 -0.98,0.937 v 0 c -0.509,0 -0.98,-0.412 -0.98,-0.937 0,-0.525 0.471,-0.938 0.98,-0.938 z m 3.919,0 v 0 c 0.548,0 0.98,0.413 0.98,0.938 0,0.525 -0.432,0.937 -0.98,0.937 v 0 c -0.51,0 -0.98,-0.412 -0.98,-0.937 0,-0.525 0.47,-0.938 0.98,-0.938 z m 3.919,0 v 0 c 0.548,0 0.979,0.413 0.979,0.938 0,0.525 -0.431,0.937 -0.979,0.937 v 0 c -0.51,0 -0.98,-0.412 -0.98,-0.937 0,-0.525 0.47,-0.938 0.98,-0.938 z m 3.918,0 h 0.039 c 0.51,0 0.98,0.413 0.98,0.938 0,0.525 -0.47,0.937 -0.98,0.937 h -0.039 c -0.509,0 -0.979,-0.412 -0.979,-0.937 0,-0.525 0.47,-0.938 0.979,-0.938 z m 3.958,0 v 0 c 0.51,0 0.98,0.413 0.98,0.938 0,0.525 -0.47,0.937 -0.98,0.937 v 0 c -0.548,0 -0.979,-0.412 -0.979,-0.937 0,-0.525 0.431,-0.938 0.979,-0.938 z m 3.919,0 v 0 c 0.509,0 0.98,0.413 0.98,0.938 0,0.525 -0.471,0.937 -0.98,0.937 v 0 c -0.549,0 -0.98,-0.412 -0.98,-0.937 0,-0.525 0.431,-0.938 0.98,-0.938 z m 3.919,0 v 0 c 0.509,0 0.979,0.413 0.979,0.938 0,0.525 -0.47,0.937 -0.979,0.937 v 0 c -0.549,0 -0.98,-0.412 -0.98,-0.937 0,-0.525 0.431,-0.938 0.98,-0.938 z m 3.919,0 v 0 c 0.548,0 0.979,0.413 0.979,0.938 0,0.525 -0.431,0.937 -0.979,0.937 v 0 c -0.549,0 -0.98,-0.412 -0.98,-0.937 0,-0.525 0.431,-0.938 0.98,-0.938 z m 3.918,0 v 0 c 0.549,0 0.98,0.413 0.98,0.938 0,0.525 -0.431,0.937 -0.98,0.937 v 0 c -0.548,0 -0.979,-0.412 -0.979,-0.937 0,-0.525 0.431,-0.938 0.979,-0.938 z m 3.919,0 v 0 c 0.549,0 0.98,0.413 0.98,0.938 0,0.525 -0.431,0.937 -0.98,0.937 v 0 c -0.549,0 -0.98,-0.412 -0.98,-0.937 0,-0.525 0.431,-0.938 0.98,-0.938 z m 3.919,0 v 0 c 0.548,0 0.979,0.413 0.979,0.938 0,0.525 -0.431,0.937 -0.979,0.937 v 0 c -0.549,0 -0.98,-0.412 -0.98,-0.937 0,-0.525 0.431,-0.938 0.98,-0.938 z m 3.918,0 v 0 c 0.549,0 0.98,0.413 0.98,0.938 0,0.525 -0.431,0.937 -0.98,0.937 v 0 c -0.548,0 -0.979,-0.412 -0.979,-0.937 0,-0.525 0.431,-0.938 0.979,-0.938 z m 3.919,0 v 0 c 0.549,0 0.98,0.413 0.98,0.938 0,0.525 -0.431,0.937 -0.98,0.937 v 0 c -0.548,0 -0.979,-0.412 -0.979,-0.937 0,-0.525 0.431,-0.938 0.979,-0.938 z m 3.919,0 v 0 c 0.549,0 0.98,0.413 0.98,0.938 0,0.525 -0.431,0.937 -0.98,0.937 v 0 c -0.549,0 -0.98,-0.412 -0.98,-0.937 0,-0.525 0.431,-0.938 0.98,-0.938 z m 3.919,0 v 0 c 0.548,0 0.979,0.413 0.979,0.938 0,0.525 -0.431,0.937 -0.979,0.937 v 0 c -0.549,0 -0.98,-0.412 -0.98,-0.937 0,-0.525 0.431,-0.938 0.98,-0.938 z m 3.919,0 v 0 c 0.548,0 0.979,0.413 0.979,0.938 0,0.525 -0.431,0.937 -0.979,0.937 v 0 c -0.549,0 -0.98,-0.412 -0.98,-0.937 0,-0.525 0.431,-0.938 0.98,-0.938 z m 3.918,0 v 0 c 0.549,0 0.98,0.413 0.98,0.938 0,0.525 -0.431,0.937 -0.98,0.937 v 0 c -0.548,0 -0.979,-0.412 -0.979,-0.937 0,-0.525 0.431,-0.938 0.979,-0.938 z m 3.919,0 v 0 c 0.549,0 0.98,0.413 0.98,0.938 0,0.525 -0.431,0.937 -0.98,0.937 v 0 c -0.549,0 -0.98,-0.412 -0.98,-0.937 0,-0.525 0.431,-0.938 0.98,-0.938 z m 3.919,0 v 0 c 0.548,0 0.979,0.413 0.979,0.938 0,0.525 -0.431,0.937 -0.979,0.937 v 0 c -0.549,0 -0.98,-0.412 -0.98,-0.937 0,-0.525 0.431,-0.938 0.98,-0.938 z m 3.918,0 v 0 c 0.549,0 0.98,0.413 0.98,0.938 0,0.525 -0.431,0.937 -0.98,0.937 v 0 c -0.548,0 -0.979,-0.412 -0.979,-0.937 0,-0.525 0.431,-0.938 0.979,-0.938 z m 3.919,0 v 0 c 0.549,0 0.98,0.413 0.98,0.938 0,0.525 -0.431,0.937 -0.98,0.937 v 0 c -0.509,0 -0.979,-0.412 -0.979,-0.937 0,-0.525 0.47,-0.938 0.979,-0.938 z m 3.919,0 v 0 c 0.549,0 0.98,0.413 0.98,0.938 0,0.525 -0.431,0.937 -0.98,0.937 v 0 c -0.509,0 -0.98,-0.412 -0.98,-0.937 0,-0.525 0.471,-0.938 0.98,-0.938 z m 3.919,0 v 0 c 0.548,0 0.979,0.413 0.979,0.938 0,0.525 -0.431,0.937 -0.979,0.937 v 0 c -0.51,0 -0.98,-0.412 -0.98,-0.937 0,-0.525 0.47,-0.938 0.98,-0.938 z m 3.918,0 h 0.04 c 0.509,0 0.979,0.413 0.979,0.938 0,0.525 -0.47,0.937 -0.979,0.937 h -0.04 c -0.509,0 -0.979,-0.412 -0.979,-0.937 0,-0.525 0.47,-0.938 0.979,-0.938 z m 3.958,0 v 0 c 0.51,0 0.98,0.413 0.98,0.938 0,0.525 -0.47,0.937 -0.98,0.937 v 0 c -0.548,0 -0.979,-0.412 -0.979,-0.937 0,-0.525 0.431,-0.938 0.979,-0.938 z m 3.919,0 v 0 c 0.51,0 0.98,0.413 0.98,0.938 0,0.525 -0.47,0.937 -0.98,0.937 v 0 c -0.548,0 -0.979,-0.412 -0.979,-0.937 0,-0.525 0.431,-0.938 0.979,-0.938 z m 3.919,0 v 0 c 0.509,0 0.98,0.413 0.98,0.938 0,0.525 -0.471,0.937 -0.98,0.937 v 0 c -0.549,0 -0.98,-0.412 -0.98,-0.937 0,-0.525 0.431,-0.938 0.98,-0.938 z m 3.919,0 v 0 c 0.548,0 0.979,0.413 0.979,0.938 0,0.525 -0.431,0.937 -0.979,0.937 v 0 c -0.549,0 -0.98,-0.412 -0.98,-0.937 0,-0.525 0.431,-0.938 0.98,-0.938 z m 3.918,0 v 0 c 0.549,0 0.98,0.413 0.98,0.938 0,0.525 -0.431,0.937 -0.98,0.937 v 0 c -0.548,0 -0.979,-0.412 -0.979,-0.937 0,-0.525 0.431,-0.938 0.979,-0.938 z m 3.919,0 v 0 c 0.549,0 0.98,0.413 0.98,0.938 0,0.525 -0.431,0.937 -0.98,0.937 v 0 c -0.548,0 -0.979,-0.412 -0.979,-0.937 0,-0.525 0.431,-0.938 0.979,-0.938 z m 3.919,0 v 0 c 0.549,0 0.98,0.413 0.98,0.938 0,0.525 -0.431,0.937 -0.98,0.937 v 0 c -0.549,0 -0.98,-0.412 -0.98,-0.937 0,-0.525 0.431,-0.938 0.98,-0.938 z m 3.919,0 v 0 c 0.548,0 0.979,0.413 0.979,0.938 0,0.525 -0.431,0.937 -0.979,0.937 v 0 c -0.549,0 -0.98,-0.412 -0.98,-0.937 0,-0.525 0.431,-0.938 0.98,-0.938 z m 3.918,0 v 0 c 0.549,0 0.98,0.413 0.98,0.938 0,0.525 -0.431,0.937 -0.98,0.937 v 0 c -0.548,0 -0.979,-0.412 -0.979,-0.937 0,-0.525 0.431,-0.938 0.979,-0.938 z m 3.919,0 v 0 c 0.549,0 0.98,0.413 0.98,0.938 0,0.525 -0.431,0.937 -0.98,0.937 v 0 c -0.548,0 -0.979,-0.412 -0.979,-0.937 0,-0.525 0.431,-0.938 0.979,-0.938 z m 3.919,0 v 0 c 0.549,0 0.98,0.413 0.98,0.938 0,0.525 -0.431,0.937 -0.98,0.937 v 0 c -0.549,0 -0.98,-0.412 -0.98,-0.937 0,-0.525 0.431,-0.938 0.98,-0.938 z m 3.919,0 v 0 c 0.548,0 0.979,0.413 0.979,0.938 0,0.525 -0.431,0.937 -0.979,0.937 v 0 c -0.549,0 -0.98,-0.412 -0.98,-0.937 0,-0.525 0.431,-0.938 0.98,-0.938 z m 3.918,0 v 0 c 0.549,0 0.98,0.413 0.98,0.938 0,0.525 -0.431,0.937 -0.98,0.937 v 0 c -0.548,0 -0.979,-0.412 -0.979,-0.937 0,-0.525 0.431,-0.938 0.979,-0.938 z m 3.919,0 v 0 c 0.549,0 0.98,0.413 0.98,0.938 0,0.525 -0.431,0.937 -0.98,0.937 v 0 c -0.548,0 -0.98,-0.412 -0.98,-0.937 0,-0.525 0.432,-0.938 0.98,-0.938 z m 3.919,0 v 0 c 0.549,0 0.98,0.413 0.98,0.938 0,0.525 -0.431,0.937 -0.98,0.937 v 0 c -0.549,0 -0.98,-0.412 -0.98,-0.937 0,-0.525 0.431,-0.938 0.98,-0.938 z m 3.919,0 v 0 c 0.548,0 0.979,0.413 0.979,0.938 0,0.525 -0.431,0.937 -0.979,0.937 v 0 c -0.549,0 -0.98,-0.412 -0.98,-0.937 0,-0.525 0.431,-0.938 0.98,-0.938 z m 3.918,0 v 0 c 0.549,0 0.98,0.413 0.98,0.938 0,0.525 -0.431,0.937 -0.98,0.937 v 0 c -0.509,0 -0.979,-0.412 -0.979,-0.937 0,-0.525 0.47,-0.938 0.979,-0.938 z m 3.919,0 v 0 c 0.549,0 0.98,0.413 0.98,0.938 0,0.525 -0.431,0.937 -0.98,0.937 v 0 c -0.509,0 -0.979,-0.412 -0.979,-0.937 0,-0.525 0.47,-0.938 0.979,-0.938 z m 3.919,0 v 0 c 0.549,0 0.98,0.413 0.98,0.938 0,0.525 -0.431,0.937 -0.98,0.937 v 0 c -0.509,0 -0.98,-0.412 -0.98,-0.937 0,-0.525 0.471,-0.938 0.98,-0.938 z m 3.919,0 h 0.039 c 0.509,0 0.98,0.413 0.98,0.938 0,0.525 -0.471,0.937 -0.98,0.937 h -0.039 c -0.51,0 -0.98,-0.412 -0.98,-0.937 0,-0.525 0.47,-0.938 0.98,-0.938 z m 3.958,0 v 0 c 0.509,0 0.979,0.413 0.979,0.938 0,0.525 -0.47,0.937 -0.979,0.937 v 0 c -0.549,0 -0.98,-0.412 -0.98,-0.937 0,-0.525 0.431,-0.938 0.98,-0.938 z m 3.918,0 v 0 c 0.51,0 0.98,0.413 0.98,0.938 0,0.525 -0.47,0.937 -0.98,0.937 v 0 c -0.548,0 -0.979,-0.412 -0.979,-0.937 0,-0.525 0.431,-0.938 0.979,-0.938 z m 3.919,0 v 0 c 0.51,0 0.98,0.413 0.98,0.938 0,0.525 -0.47,0.937 -0.98,0.937 v 0 c -0.549,0 -0.98,-0.412 -0.98,-0.937 0,-0.525 0.431,-0.938 0.98,-0.938 z m 3.919,0 v 0 c 0.548,0 0.98,0.413 0.98,0.938 0,0.525 -0.432,0.937 -0.98,0.937 v 0 c -0.549,0 -0.98,-0.412 -0.98,-0.937 0,-0.525 0.431,-0.938 0.98,-0.938 z m 3.919,0 v 0 c 0.548,0 0.979,0.413 0.979,0.938 0,0.525 -0.431,0.937 -0.979,0.937 v 0 c -0.549,0 -0.98,-0.412 -0.98,-0.937 0,-0.525 0.431,-0.938 0.98,-0.938 z m 3.918,0 v 0 c 0.549,0 0.98,0.413 0.98,0.938 0,0.525 -0.431,0.937 -0.98,0.937 v 0 c -0.548,0 -0.979,-0.412 -0.979,-0.937 0,-0.525 0.431,-0.938 0.979,-0.938 z m 3.919,0 v 0 c 0.549,0 0.98,0.413 0.98,0.938 0,0.525 -0.431,0.937 -0.98,0.937 v 0 c -0.548,0 -0.98,-0.412 -0.98,-0.937 0,-0.525 0.432,-0.938 0.98,-0.938 z m 3.919,0 v 0 c 0.549,0 0.98,0.413 0.98,0.938 0,0.525 -0.431,0.937 -0.98,0.937 v 0 c -0.549,0 -0.98,-0.412 -0.98,-0.937 0,-0.525 0.431,-0.938 0.98,-0.938 z m 3.919,0 v 0 c 0.548,0 0.979,0.413 0.979,0.938 0,0.525 -0.431,0.937 -0.979,0.937 v 0 c -0.549,0 -0.98,-0.412 -0.98,-0.937 0,-0.525 0.431,-0.938 0.98,-0.938 z m 3.918,0 v 0 c 0.549,0 0.98,0.413 0.98,0.938 0,0.525 -0.431,0.937 -0.98,0.937 v 0 c -0.548,0 -0.979,-0.412 -0.979,-0.937 0,-0.525 0.431,-0.938 0.979,-0.938 z m 3.919,0 v 0 c 0.549,0 0.98,0.413 0.98,0.938 0,0.525 -0.431,0.937 -0.98,0.937 v 0 c -0.548,0 -0.98,-0.412 -0.98,-0.937 0,-0.525 0.432,-0.938 0.98,-0.938 z m 3.919,0 v 0 c 0.549,0 0.98,0.413 0.98,0.938 0,0.525 -0.431,0.937 -0.98,0.937 v 0 c -0.549,0 -0.98,-0.412 -0.98,-0.937 0,-0.525 0.431,-0.938 0.98,-0.938 z m 3.919,0 v 0 c 0.548,0 0.979,0.413 0.979,0.938 0,0.525 -0.431,0.937 -0.979,0.937 v 0 c -0.549,0 -0.98,-0.412 -0.98,-0.937 0,-0.525 0.431,-0.938 0.98,-0.938 z m 3.918,0 v 0 c 0.549,0 0.98,0.413 0.98,0.938 0,0.525 -0.431,0.937 -0.98,0.937 v 0 c -0.548,0 -0.979,-0.412 -0.979,-0.937 0,-0.525 0.431,-0.938 0.979,-0.938 z m 3.919,0 v 0 c 0.549,0 0.98,0.413 0.98,0.938 0,0.525 -0.431,0.937 -0.98,0.937 v 0 c -0.548,0 -0.98,-0.412 -0.98,-0.937 0,-0.525 0.432,-0.938 0.98,-0.938 z m 3.919,0 v 0 c 0.549,0 0.98,0.413 0.98,0.938 0,0.525 -0.431,0.937 -0.98,0.937 v 0 c -0.549,0 -0.98,-0.412 -0.98,-0.937 0,-0.525 0.431,-0.938 0.98,-0.938 z m 3.919,0 v 0 c 0.548,0 0.979,0.413 0.979,0.938 0,0.525 -0.431,0.937 -0.979,0.937 v 0 c -0.51,0 -0.98,-0.412 -0.98,-0.937 0,-0.525 0.47,-0.938 0.98,-0.938 z m 3.918,0 v 0 c 0.549,0 0.98,0.413 0.98,0.938 0,0.525 -0.431,0.937 -0.98,0.937 v 0 c -0.509,0 -0.979,-0.412 -0.979,-0.937 0,-0.525 0.47,-0.938 0.979,-0.938 z m 3.919,0 v 0 c 0.549,0 0.98,0.413 0.98,0.938 0,0.525 -0.431,0.937 -0.98,0.937 v 0 c -0.509,0 -0.98,-0.412 -0.98,-0.937 0,-0.525 0.471,-0.938 0.98,-0.938 z m 3.919,0 h 0.039 c 0.509,0 0.98,0.413 0.98,0.938 0,0.525 -0.471,0.937 -0.98,0.937 h -0.039 c -0.51,0 -0.98,-0.412 -0.98,-0.937 0,-0.525 0.47,-0.938 0.98,-0.938 z m 3.958,0 v 0 c 0.509,0 0.979,0.413 0.979,0.938 0,0.525 -0.47,0.937 -0.979,0.937 v 0 c -0.549,0 -0.98,-0.412 -0.98,-0.937 0,-0.525 0.431,-0.938 0.98,-0.938 z m 3.919,0 v 0 c 0.509,0 0.979,0.413 0.979,0.938 0,0.525 -0.47,0.937 -0.979,0.937 v 0 c -0.549,0 -0.98,-0.412 -0.98,-0.937 0,-0.525 0.431,-0.938 0.98,-0.938 z m 3.918,0 v 0 c 0.549,0 0.98,0.413 0.98,0.938 0,0.525 -0.431,0.937 -0.98,0.937 v 0 c -0.548,0 -0.979,-0.412 -0.979,-0.937 0,-0.525 0.431,-0.938 0.979,-0.938 z m 3.919,0 v 0 c 0.549,0 0.98,0.413 0.98,0.938 0,0.525 -0.431,0.937 -0.98,0.937 v 0 c -0.549,0 -0.98,-0.412 -0.98,-0.937 0,-0.525 0.431,-0.938 0.98,-0.938 z m 3.919,0 v 0 c 0.548,0 0.98,0.413 0.98,0.938 0,0.525 -0.432,0.937 -0.98,0.937 v 0 c -0.549,0 -0.98,-0.412 -0.98,-0.937 0,-0.525 0.431,-0.938 0.98,-0.938 z m 3.919,0 v 0 c 0.548,0 0.979,0.413 0.979,0.938 0,0.525 -0.431,0.937 -0.979,0.937 v 0 c -0.549,0 -0.98,-0.412 -0.98,-0.937 0,-0.525 0.431,-0.938 0.98,-0.938 z m 3.918,0 v 0 c 0.549,0 0.98,0.413 0.98,0.938 0,0.525 -0.431,0.937 -0.98,0.937 v 0 c -0.548,0 -0.979,-0.412 -0.979,-0.937 0,-0.525 0.431,-0.938 0.979,-0.938 z m 3.919,0 v 0 c 0.549,0 0.98,0.413 0.98,0.938 0,0.525 -0.431,0.937 -0.98,0.937 v 0 c -0.549,0 -0.98,-0.412 -0.98,-0.937 0,-0.525 0.431,-0.938 0.98,-0.938 z m 3.919,0 v 0 c 0.548,0 0.98,0.413 0.98,0.938 0,0.525 -0.432,0.937 -0.98,0.937 v 0 c -0.549,0 -0.98,-0.412 -0.98,-0.937 0,-0.525 0.431,-0.938 0.98,-0.938 z m 3.919,0 v 0 c 0.548,0 0.979,0.413 0.979,0.938 0,0.525 -0.431,0.937 -0.979,0.937 v 0 c -0.549,0 -0.98,-0.412 -0.98,-0.937 0,-0.525 0.431,-0.938 0.98,-0.938 z m 3.918,0 v 0 c 0.549,0 0.98,0.413 0.98,0.938 0,0.525 -0.431,0.937 -0.98,0.937 v 0 c -0.548,0 -0.979,-0.412 -0.979,-0.937 0,-0.525 0.431,-0.938 0.979,-0.938 z m 3.919,0 v 0 c 0.549,0 0.98,0.413 0.98,0.938 0,0.525 -0.431,0.937 -0.98,0.937 v 0 c -0.549,0 -0.98,-0.412 -0.98,-0.937 0,-0.525 0.431,-0.938 0.98,-0.938 z m 3.919,0 v 0 c 0.548,0 0.979,0.413 0.979,0.938 0,0.525 -0.431,0.937 -0.979,0.937 v 0 c -0.549,0 -0.98,-0.412 -0.98,-0.937 0,-0.525 0.431,-0.938 0.98,-0.938 z M 300.175,642.5 284.5,635 l 15.675,-7.5 z m 595.65,-15 15.675,7.5 -15.675,7.5 z"
       stroke="#000000"
       stroke-width="0.6875"
       stroke-linejoin="bevel"
       stroke-miterlimit="10"
       fill-rule="evenodd"
       id="path20" /><text
       font-family="'Times New Roman', 'Times New Roman_MSFontService', sans-serif"
       font-weight="400"
       font-size="32px"
       id="text20"
       x="584.31213"
       y="620">D(t)</text><text
       font-family="'Times New Roman', 'Times New Roman_MSFontService', sans-serif"
       font-weight="400"
       font-size="32px"
       id="text21"
       x="289.14575"
       y="1117">B(t)</text><text
       font-family="Times New Roman,Times New Roman_MSFontService,sans-serif"
       font-weight="700"
       font-size="37"
       id="text22"
       style="font-style:normal;font-variant:normal;font-weight:bold;font-stretch:normal;font-size:37px;font-family:'Times New Roman', 'Times New Roman_MSFontService', sans-serif;-inkscape-font-specification:'Times New Roman, Times New Roman_MSFontService, sans-serif, Bold';font-variant-ligatures:normal;font-variant-caps:normal;font-variant-numeric:normal;font-variant-east-asian:normal"
       x="288.45828"
       y="172"><tspan
         id="tspan101"
         x="288.45828"
         y="172">Example II.2.a:</tspan></text><g
       id="g100"
       transform="translate(-74.999875)"><text
         font-family="Times New Roman,Times New Roman_MSFontService,sans-serif"
         font-weight="400"
         font-size="32"
         transform="translate(363.458,250)"
         id="text29"
         style="font-style:normal;font-variant:normal;font-weight:normal;font-stretch:normal;font-size:32px;font-family:'Times New Roman', 'Times New Roman_MSFontService', sans-serif;-inkscape-font-specification:'Times New Roman, Times New Roman_MSFontService, sans-serif, Normal';font-variant-ligatures:normal;font-variant-caps:normal;font-variant-numeric:normal;font-variant-east-asian:normal"><tspan
           id="tspan100"
           x="0"
           y="0">D(t)=8, ILED=4</tspan></text><text
         font-family="Times New Roman,Times New Roman_MSFontService,sans-serif"
         font-weight="400"
         font-size="32"
         id="text34"
         style="font-style:normal;font-variant:normal;font-weight:normal;font-stretch:normal;font-size:32px;font-family:'Times New Roman', 'Times New Roman_MSFontService', sans-serif;-inkscape-font-specification:'Times New Roman, Times New Roman_MSFontService, sans-serif, Normal';font-variant-ligatures:normal;font-variant-caps:normal;font-variant-numeric:normal;font-variant-east-asian:normal"
         x="288.45825"
         y="287"
         transform="translate(74.999875)"><tspan
           id="tspan99"
           x="288.45825"
           y="287">TLIFE=6</tspan></text><text
         font-family="Times New Roman,Times New Roman_MSFontService,sans-serif"
         font-weight="400"
         font-size="32"
         id="text37"
         style="font-style:normal;font-variant:normal;font-weight:normal;font-stretch:normal;font-size:32px;font-family:'Times New Roman', 'Times New Roman_MSFontService', sans-serif;-inkscape-font-specification:'Times New Roman, Times New Roman_MSFontService, sans-serif, Normal';font-variant-ligatures:normal;font-variant-caps:normal;font-variant-numeric:normal;font-variant-east-asian:normal"
         x="288.45813"
         y="325"
         transform="translate(74.999875)"><tspan
           id="tspan98"
           x="288.45813"
           y="325">DLAG=2, DLIFE=3</tspan></text><text
         font-family="Times New Roman,Times New Roman_MSFontService,sans-serif"
         font-weight="400"
         font-size="32"
         transform="translate(363.458,362)"
         id="text42"
         style="font-style:normal;font-variant:normal;font-weight:normal;font-stretch:normal;font-size:32px;font-family:'Times New Roman', 'Times New Roman_MSFontService', sans-serif;-inkscape-font-specification:'Times New Roman, Times New Roman_MSFontService, sans-serif, Normal';font-variant-ligatures:normal;font-variant-caps:normal;font-variant-numeric:normal;font-variant-east-asian:normal"><tspan
           id="tspan97"
           x="0"
           y="0">DELIF=2</tspan></text></g><text
       font-family="Times New Roman,Times New Roman_MSFontService,sans-serif"
       font-weight="400"
       font-size="32"
       id="text44"
       style="font-style:normal;font-variant:normal;font-weight:normal;font-stretch:normal;font-size:32px;font-family:'Times New Roman', 'Times New Roman_MSFontService', sans-serif;-inkscape-font-specification:'Times New Roman, Times New Roman_MSFontService, sans-serif, Normal';font-variant-ligatures:normal;font-variant-caps:normal;font-variant-numeric:normal;font-variant-east-asian:normal"
       x="1298.6201"
       y="111"><tspan
         id="tspan96"
         x="1298.6201"
         y="111">Investment:</tspan></text><g
       id="g96"
       transform="translate(-74.999875)"><text
         font-family="'Times New Roman', 'Times New Roman_MSFontService', sans-serif"
         font-weight="400"
         font-size="32px"
         transform="translate(1373.62,261)"
         id="text46">Decommissioning</text><text
         font-family="Times New Roman,Times New Roman_MSFontService,sans-serif"
         font-weight="400"
         font-size="32"
         transform="translate(1373.62,298)"
         id="text47"
         style="font-style:normal;font-variant:normal;font-weight:normal;font-stretch:normal;font-size:32px;font-family:'Times New Roman', 'Times New Roman_MSFontService', sans-serif;-inkscape-font-specification:'Times New Roman, Times New Roman_MSFontService, sans-serif, Normal';font-variant-ligatures:normal;font-variant-caps:normal;font-variant-numeric:normal;font-variant-east-asian:normal"><tspan
           id="tspan95"
           x="0"
           y="0">and payments:</tspan></text></g><g
       id="g95"
       transform="translate(-75.00025)"><text
         font-family="'Times New Roman', 'Times New Roman_MSFontService', sans-serif"
         font-weight="400"
         font-size="32px"
         transform="translate(1373.62,448)"
         id="text49">Decommissioning</text><text
         font-family="Times New Roman,Times New Roman_MSFontService,sans-serif"
         font-weight="400"
         font-size="32"
         transform="translate(1373.62,485)"
         id="text50"
         style="font-style:normal;font-variant:normal;font-weight:normal;font-stretch:normal;font-size:32px;font-family:'Times New Roman', 'Times New Roman_MSFontService', sans-serif;-inkscape-font-specification:'Times New Roman, Times New Roman_MSFontService, sans-serif, Normal';font-variant-ligatures:normal;font-variant-caps:normal;font-variant-numeric:normal;font-variant-east-asian:normal"><tspan
           id="tspan94"
           x="0"
           y="0">Payments only:</tspan></text></g><rect
       x="1583.0002"
       y="49.000198"
       width="79.000099"
       height="77.999702"
       stroke="#000000"
       stroke-width="2.0625"
       stroke-linecap="round"
       stroke-miterlimit="8"
       fill="none"
       id="rect53"
       style="fill:url(#pattern102);fill-opacity:1" /><rect
       x="440"
       y="916"
       width="79.000099"
       height="78"
       stroke="#000000"
       stroke-width="2.0625"
       stroke-linecap="round"
       stroke-miterlimit="8"
       fill="none"
       id="rect54" /><path
       d="m 297.529,704.062 h 0.039 c 0.508,0 0.978,0.413 0.978,0.938 0,0.525 -0.47,0.938 -0.978,0.938 h -0.039 c -0.509,0 -0.978,-0.413 -0.978,-0.938 0,-0.525 0.469,-0.938 0.978,-0.938 z m 3.951,0 v 0 c 0.509,0 0.978,0.413 0.978,0.938 0,0.525 -0.469,0.938 -0.978,0.938 v 0 c -0.547,0 -0.978,-0.413 -0.978,-0.938 0,-0.525 0.431,-0.938 0.978,-0.938 z m 3.913,0 v 0 c 0.508,0 0.978,0.413 0.978,0.938 0,0.525 -0.47,0.938 -0.978,0.938 v 0 c -0.548,0 -0.978,-0.413 -0.978,-0.938 0,-0.525 0.43,-0.938 0.978,-0.938 z m 3.912,0 v 0 c 0.509,0 0.978,0.413 0.978,0.938 0,0.525 -0.469,0.938 -0.978,0.938 v 0 c -0.547,0 -0.978,-0.413 -0.978,-0.938 0,-0.525 0.431,-0.938 0.978,-0.938 z m 3.913,0 v 0 c 0.548,0 0.978,0.413 0.978,0.938 0,0.525 -0.43,0.938 -0.978,0.938 v 0 c -0.548,0 -0.978,-0.413 -0.978,-0.938 0,-0.525 0.43,-0.938 0.978,-0.938 z m 3.912,0 v 0 c 0.548,0 0.978,0.413 0.978,0.938 0,0.525 -0.43,0.938 -0.978,0.938 v 0 c -0.547,0 -0.978,-0.413 -0.978,-0.938 0,-0.525 0.431,-0.938 0.978,-0.938 z m 3.913,0 v 0 c 0.548,0 0.978,0.413 0.978,0.938 0,0.525 -0.43,0.938 -0.978,0.938 v 0 c -0.548,0 -0.978,-0.413 -0.978,-0.938 0,-0.525 0.43,-0.938 0.978,-0.938 z m 3.912,0 v 0 c 0.548,0 0.978,0.413 0.978,0.938 0,0.525 -0.43,0.938 -0.978,0.938 v 0 c -0.547,0 -0.978,-0.413 -0.978,-0.938 0,-0.525 0.431,-0.938 0.978,-0.938 z m 3.913,0 v 0 c 0.548,0 0.978,0.413 0.978,0.938 0,0.525 -0.43,0.938 -0.978,0.938 v 0 c -0.548,0 -0.978,-0.413 -0.978,-0.938 0,-0.525 0.43,-0.938 0.978,-0.938 z m 3.912,0 v 0 c 0.548,0 0.978,0.413 0.978,0.938 0,0.525 -0.43,0.938 -0.978,0.938 v 0 c -0.547,0 -0.978,-0.413 -0.978,-0.938 0,-0.525 0.431,-0.938 0.978,-0.938 z m 3.913,0 v 0 c 0.548,0 0.978,0.413 0.978,0.938 0,0.525 -0.43,0.938 -0.978,0.938 v 0 c -0.548,0 -0.978,-0.413 -0.978,-0.938 0,-0.525 0.43,-0.938 0.978,-0.938 z m 3.912,0 v 0 c 0.548,0 0.978,0.413 0.978,0.938 0,0.525 -0.43,0.938 -0.978,0.938 v 0 c -0.547,0 -0.978,-0.413 -0.978,-0.938 0,-0.525 0.431,-0.938 0.978,-0.938 z m 3.913,0 v 0 c 0.548,0 0.978,0.413 0.978,0.938 0,0.525 -0.43,0.938 -0.978,0.938 v 0 c -0.548,0 -0.978,-0.413 -0.978,-0.938 0,-0.525 0.43,-0.938 0.978,-0.938 z m 3.912,0 v 0 c 0.548,0 0.978,0.413 0.978,0.938 0,0.525 -0.43,0.938 -0.978,0.938 v 0 c -0.547,0 -0.978,-0.413 -0.978,-0.938 0,-0.525 0.431,-0.938 0.978,-0.938 z m 3.913,0 v 0 c 0.548,0 0.978,0.413 0.978,0.938 0,0.525 -0.43,0.938 -0.978,0.938 v 0 c -0.548,0 -0.978,-0.413 -0.978,-0.938 0,-0.525 0.43,-0.938 0.978,-0.938 z m 3.912,0 v 0 c 0.548,0 0.978,0.413 0.978,0.938 0,0.525 -0.43,0.938 -0.978,0.938 v 0 c -0.547,0 -0.978,-0.413 -0.978,-0.938 0,-0.525 0.431,-0.938 0.978,-0.938 z m 3.913,0 v 0 c 0.548,0 0.978,0.413 0.978,0.938 0,0.525 -0.43,0.938 -0.978,0.938 v 0 c -0.548,0 -0.978,-0.413 -0.978,-0.938 0,-0.525 0.43,-0.938 0.978,-0.938 z m 3.912,0 v 0 c 0.548,0 0.978,0.413 0.978,0.938 0,0.525 -0.43,0.938 -0.978,0.938 v 0 c -0.508,0 -0.978,-0.413 -0.978,-0.938 0,-0.525 0.47,-0.938 0.978,-0.938 z m 3.913,0 v 0 c 0.548,0 0.978,0.413 0.978,0.938 0,0.525 -0.43,0.938 -0.978,0.938 v 0 c -0.509,0 -0.978,-0.413 -0.978,-0.938 0,-0.525 0.469,-0.938 0.978,-0.938 z m 3.912,0 v 0 c 0.548,0 0.978,0.413 0.978,0.938 0,0.525 -0.43,0.938 -0.978,0.938 v 0 c -0.508,0 -0.978,-0.413 -0.978,-0.938 0,-0.525 0.47,-0.938 0.978,-0.938 z m 3.913,0 h 0.039 c 0.509,0 0.978,0.413 0.978,0.938 0,0.525 -0.469,0.938 -0.978,0.938 h -0.039 c -0.509,0 -0.978,-0.413 -0.978,-0.938 0,-0.525 0.469,-0.938 0.978,-0.938 z m 3.951,0 v 0 c 0.509,0 0.979,0.413 0.979,0.938 0,0.525 -0.47,0.938 -0.979,0.938 v 0 c -0.547,0 -0.978,-0.413 -0.978,-0.938 0,-0.525 0.431,-0.938 0.978,-0.938 z m 3.913,0 v 0 c 0.509,0 0.978,0.413 0.978,0.938 0,0.525 -0.469,0.938 -0.978,0.938 v 0 c -0.548,0 -0.978,-0.413 -0.978,-0.938 0,-0.525 0.43,-0.938 0.978,-0.938 z m 3.912,0 v 0 c 0.509,0 0.979,0.413 0.979,0.938 0,0.525 -0.47,0.938 -0.979,0.938 v 0 c -0.547,0 -0.978,-0.413 -0.978,-0.938 0,-0.525 0.431,-0.938 0.978,-0.938 z m 3.913,0 v 0 c 0.548,0 0.978,0.413 0.978,0.938 0,0.525 -0.43,0.938 -0.978,0.938 v 0 c -0.548,0 -0.978,-0.413 -0.978,-0.938 0,-0.525 0.43,-0.938 0.978,-0.938 z m 3.912,0 v 0 c 0.548,0 0.979,0.413 0.979,0.938 0,0.525 -0.431,0.938 -0.979,0.938 v 0 c -0.547,0 -0.978,-0.413 -0.978,-0.938 0,-0.525 0.431,-0.938 0.978,-0.938 z m 3.913,0 v 0 c 0.548,0 0.978,0.413 0.978,0.938 0,0.525 -0.43,0.938 -0.978,0.938 v 0 c -0.548,0 -0.978,-0.413 -0.978,-0.938 0,-0.525 0.43,-0.938 0.978,-0.938 z m 3.912,0 v 0 c 0.548,0 0.979,0.413 0.979,0.938 0,0.525 -0.431,0.938 -0.979,0.938 v 0 c -0.547,0 -0.978,-0.413 -0.978,-0.938 0,-0.525 0.431,-0.938 0.978,-0.938 z m 3.913,0 v 0 c 0.548,0 0.978,0.413 0.978,0.938 0,0.525 -0.43,0.938 -0.978,0.938 v 0 c -0.548,0 -0.978,-0.413 -0.978,-0.938 0,-0.525 0.43,-0.938 0.978,-0.938 z m 3.912,0 v 0 c 0.548,0 0.979,0.413 0.979,0.938 0,0.525 -0.431,0.938 -0.979,0.938 v 0 c -0.547,0 -0.978,-0.413 -0.978,-0.938 0,-0.525 0.431,-0.938 0.978,-0.938 z m 3.913,0 v 0 c 0.548,0 0.978,0.413 0.978,0.938 0,0.525 -0.43,0.938 -0.978,0.938 v 0 c -0.548,0 -0.978,-0.413 -0.978,-0.938 0,-0.525 0.43,-0.938 0.978,-0.938 z m 3.912,0 v 0 c 0.548,0 0.979,0.413 0.979,0.938 0,0.525 -0.431,0.938 -0.979,0.938 v 0 c -0.547,0 -0.978,-0.413 -0.978,-0.938 0,-0.525 0.431,-0.938 0.978,-0.938 z m 3.913,0 v 0 c 0.548,0 0.978,0.413 0.978,0.938 0,0.525 -0.43,0.938 -0.978,0.938 v 0 c -0.548,0 -0.978,-0.413 -0.978,-0.938 0,-0.525 0.43,-0.938 0.978,-0.938 z m 3.912,0 v 0 c 0.548,0 0.979,0.413 0.979,0.938 0,0.525 -0.431,0.938 -0.979,0.938 v 0 c -0.547,0 -0.978,-0.413 -0.978,-0.938 0,-0.525 0.431,-0.938 0.978,-0.938 z m 3.913,0 v 0 c 0.548,0 0.978,0.413 0.978,0.938 0,0.525 -0.43,0.938 -0.978,0.938 v 0 c -0.548,0 -0.978,-0.413 -0.978,-0.938 0,-0.525 0.43,-0.938 0.978,-0.938 z m 3.912,0 v 0 c 0.548,0 0.979,0.413 0.979,0.938 0,0.525 -0.431,0.938 -0.979,0.938 v 0 c -0.547,0 -0.978,-0.413 -0.978,-0.938 0,-0.525 0.431,-0.938 0.978,-0.938 z m 3.913,0 v 0 c 0.548,0 0.978,0.413 0.978,0.938 0,0.525 -0.43,0.938 -0.978,0.938 v 0 c -0.548,0 -0.978,-0.413 -0.978,-0.938 0,-0.525 0.43,-0.938 0.978,-0.938 z m 3.912,0 v 0 c 0.548,0 0.979,0.413 0.979,0.938 0,0.525 -0.431,0.938 -0.979,0.938 v 0 c -0.508,0 -0.978,-0.413 -0.978,-0.938 0,-0.525 0.47,-0.938 0.978,-0.938 z m 3.913,0 v 0 c 0.548,0 0.978,0.413 0.978,0.938 0,0.525 -0.43,0.938 -0.978,0.938 v 0 c -0.509,0 -0.978,-0.413 -0.978,-0.938 0,-0.525 0.469,-0.938 0.978,-0.938 z m 3.912,0 v 0 c 0.548,0 0.979,0.413 0.979,0.938 0,0.525 -0.431,0.938 -0.979,0.938 v 0 c -0.508,0 -0.978,-0.413 -0.978,-0.938 0,-0.525 0.47,-0.938 0.978,-0.938 z m 3.913,0 h 0.039 c 0.509,0 0.978,0.413 0.978,0.938 0,0.525 -0.469,0.938 -0.978,0.938 h -0.039 c -0.509,0 -0.978,-0.413 -0.978,-0.938 0,-0.525 0.469,-0.938 0.978,-0.938 z m 3.952,0 v 0 c 0.508,0 0.978,0.413 0.978,0.938 0,0.525 -0.47,0.938 -0.978,0.938 v 0 c -0.548,0 -0.979,-0.413 -0.979,-0.938 0,-0.525 0.431,-0.938 0.979,-0.938 z m 3.912,0 v 0 c 0.509,0 0.978,0.413 0.978,0.938 0,0.525 -0.469,0.938 -0.978,0.938 v 0 c -0.548,0 -0.978,-0.413 -0.978,-0.938 0,-0.525 0.43,-0.938 0.978,-0.938 z m 3.913,0 v 0 c 0.508,0 0.978,0.413 0.978,0.938 0,0.525 -0.47,0.938 -0.978,0.938 v 0 c -0.548,0 -0.979,-0.413 -0.979,-0.938 0,-0.525 0.431,-0.938 0.979,-0.938 z m 3.912,0 v 0 c 0.548,0 0.978,0.413 0.978,0.938 0,0.525 -0.43,0.938 -0.978,0.938 v 0 c -0.548,0 -0.978,-0.413 -0.978,-0.938 0,-0.525 0.43,-0.938 0.978,-0.938 z m 3.912,0 v 0 c 0.548,0 0.979,0.413 0.979,0.938 0,0.525 -0.431,0.938 -0.979,0.938 v 0 c -0.547,0 -0.978,-0.413 -0.978,-0.938 0,-0.525 0.431,-0.938 0.978,-0.938 z m 3.913,0 v 0 c 0.548,0 0.978,0.413 0.978,0.938 0,0.525 -0.43,0.938 -0.978,0.938 v 0 c -0.548,0 -0.978,-0.413 -0.978,-0.938 0,-0.525 0.43,-0.938 0.978,-0.938 z m 3.913,0 v 0 c 0.547,0 0.978,0.413 0.978,0.938 0,0.525 -0.431,0.938 -0.978,0.938 v 0 c -0.548,0 -0.979,-0.413 -0.979,-0.938 0,-0.525 0.431,-0.938 0.979,-0.938 z m 3.912,0 v 0 c 0.548,0 0.978,0.413 0.978,0.938 0,0.525 -0.43,0.938 -0.978,0.938 v 0 c -0.548,0 -0.978,-0.413 -0.978,-0.938 0,-0.525 0.43,-0.938 0.978,-0.938 z m 3.913,0 v 0 c 0.547,0 0.978,0.413 0.978,0.938 0,0.525 -0.431,0.938 -0.978,0.938 v 0 c -0.548,0 -0.979,-0.413 -0.979,-0.938 0,-0.525 0.431,-0.938 0.979,-0.938 z m 3.912,0 v 0 c 0.548,0 0.978,0.413 0.978,0.938 0,0.525 -0.43,0.938 -0.978,0.938 v 0 c -0.548,0 -0.978,-0.413 -0.978,-0.938 0,-0.525 0.43,-0.938 0.978,-0.938 z m 3.912,0 v 0 c 0.548,0 0.979,0.413 0.979,0.938 0,0.525 -0.431,0.938 -0.979,0.938 v 0 c -0.547,0 -0.978,-0.413 -0.978,-0.938 0,-0.525 0.431,-0.938 0.978,-0.938 z m 3.913,0 v 0 c 0.548,0 0.978,0.413 0.978,0.938 0,0.525 -0.43,0.938 -0.978,0.938 v 0 c -0.548,0 -0.978,-0.413 -0.978,-0.938 0,-0.525 0.43,-0.938 0.978,-0.938 z m 3.912,0 v 0 c 0.548,0 0.979,0.413 0.979,0.938 0,0.525 -0.431,0.938 -0.979,0.938 v 0 c -0.547,0 -0.978,-0.413 -0.978,-0.938 0,-0.525 0.431,-0.938 0.978,-0.938 z m 3.913,0 v 0 c 0.548,0 0.978,0.413 0.978,0.938 0,0.525 -0.43,0.938 -0.978,0.938 v 0 c -0.548,0 -0.978,-0.413 -0.978,-0.938 0,-0.525 0.43,-0.938 0.978,-0.938 z m 3.912,0 v 0 c 0.548,0 0.979,0.413 0.979,0.938 0,0.525 -0.431,0.938 -0.979,0.938 v 0 c -0.547,0 -0.978,-0.413 -0.978,-0.938 0,-0.525 0.431,-0.938 0.978,-0.938 z m 3.913,0 v 0 c 0.548,0 0.978,0.413 0.978,0.938 0,0.525 -0.43,0.938 -0.978,0.938 v 0 c -0.548,0 -0.978,-0.413 -0.978,-0.938 0,-0.525 0.43,-0.938 0.978,-0.938 z m 3.912,0 v 0 c 0.548,0 0.979,0.413 0.979,0.938 0,0.525 -0.431,0.938 -0.979,0.938 v 0 c -0.508,0 -0.978,-0.413 -0.978,-0.938 0,-0.525 0.47,-0.938 0.978,-0.938 z m 3.913,0 v 0 c 0.548,0 0.978,0.413 0.978,0.938 0,0.525 -0.43,0.938 -0.978,0.938 v 0 c -0.509,0 -0.978,-0.413 -0.978,-0.938 0,-0.525 0.469,-0.938 0.978,-0.938 z m 3.912,0 v 0 c 0.548,0 0.979,0.413 0.979,0.938 0,0.525 -0.431,0.938 -0.979,0.938 v 0 c -0.508,0 -0.978,-0.413 -0.978,-0.938 0,-0.525 0.47,-0.938 0.978,-0.938 z m 3.913,0 h 0.039 c 0.509,0 0.978,0.413 0.978,0.938 0,0.525 -0.469,0.938 -0.978,0.938 h -0.039 c -0.509,0 -0.978,-0.413 -0.978,-0.938 0,-0.525 0.469,-0.938 0.978,-0.938 z m 3.952,0 v 0 c 0.508,0 0.978,0.413 0.978,0.938 0,0.525 -0.47,0.938 -0.978,0.938 v 0 c -0.548,0 -0.979,-0.413 -0.979,-0.938 0,-0.525 0.431,-0.938 0.979,-0.938 z m 3.912,0 v 0 c 0.509,0 0.978,0.413 0.978,0.938 0,0.525 -0.469,0.938 -0.978,0.938 v 0 c -0.548,0 -0.978,-0.413 -0.978,-0.938 0,-0.525 0.43,-0.938 0.978,-0.938 z m 3.913,0 v 0 c 0.508,0 0.978,0.413 0.978,0.938 0,0.525 -0.47,0.938 -0.978,0.938 v 0 c -0.548,0 -0.979,-0.413 -0.979,-0.938 0,-0.525 0.431,-0.938 0.979,-0.938 z m 3.912,0 v 0 c 0.548,0 0.978,0.413 0.978,0.938 0,0.525 -0.43,0.938 -0.978,0.938 v 0 c -0.548,0 -0.978,-0.413 -0.978,-0.938 0,-0.525 0.43,-0.938 0.978,-0.938 z m 3.913,0 v 0 c 0.547,0 0.978,0.413 0.978,0.938 0,0.525 -0.431,0.938 -0.978,0.938 v 0 c -0.548,0 -0.979,-0.413 -0.979,-0.938 0,-0.525 0.431,-0.938 0.979,-0.938 z m 3.912,0 v 0 c 0.548,0 0.978,0.413 0.978,0.938 0,0.525 -0.43,0.938 -0.978,0.938 v 0 c -0.548,0 -0.978,-0.413 -0.978,-0.938 0,-0.525 0.43,-0.938 0.978,-0.938 z m 3.913,0 v 0 c 0.547,0 0.978,0.413 0.978,0.938 0,0.525 -0.431,0.938 -0.978,0.938 v 0 c -0.548,0 -0.979,-0.413 -0.979,-0.938 0,-0.525 0.431,-0.938 0.979,-0.938 z m 3.912,0 v 0 c 0.548,0 0.978,0.413 0.978,0.938 0,0.525 -0.43,0.938 -0.978,0.938 v 0 c -0.548,0 -0.978,-0.413 -0.978,-0.938 0,-0.525 0.43,-0.938 0.978,-0.938 z m 3.913,0 v 0 c 0.547,0 0.978,0.413 0.978,0.938 0,0.525 -0.431,0.938 -0.978,0.938 v 0 c -0.548,0 -0.979,-0.413 -0.979,-0.938 0,-0.525 0.431,-0.938 0.979,-0.938 z m 3.912,0 v 0 c 0.548,0 0.978,0.413 0.978,0.938 0,0.525 -0.43,0.938 -0.978,0.938 v 0 c -0.548,0 -0.978,-0.413 -0.978,-0.938 0,-0.525 0.43,-0.938 0.978,-0.938 z m 3.913,0 v 0 c 0.547,0 0.978,0.413 0.978,0.938 0,0.525 -0.431,0.938 -0.978,0.938 v 0 c -0.548,0 -0.979,-0.413 -0.979,-0.938 0,-0.525 0.431,-0.938 0.979,-0.938 z m 3.912,0 v 0 c 0.548,0 0.978,0.413 0.978,0.938 0,0.525 -0.43,0.938 -0.978,0.938 v 0 c -0.548,0 -0.978,-0.413 -0.978,-0.938 0,-0.525 0.43,-0.938 0.978,-0.938 z m 3.913,0 v 0 c 0.547,0 0.978,0.413 0.978,0.938 0,0.525 -0.431,0.938 -0.978,0.938 v 0 c -0.548,0 -0.979,-0.413 -0.979,-0.938 0,-0.525 0.431,-0.938 0.979,-0.938 z M 300.15,712.5 284.5,705 l 15.65,-7.5 z m 281.7,-15 15.65,7.5 -15.65,7.5 z"
       stroke="#000000"
       stroke-width="0.6875"
       stroke-linejoin="bevel"
       stroke-miterlimit="10"
       fill-rule="evenodd"
       id="path54" /><text
       font-family="'Times New Roman', 'Times New Roman_MSFontService', sans-serif"
       font-weight="400"
       font-size="32px"
       id="text54"
       x="416.33313"
       y="690">ILED</text><rect
       x="519"
       y="994"
       width="78.000099"
       height="78"
       stroke="#000000"
       stroke-width="2.0625"
       stroke-linecap="round"
       stroke-miterlimit="8"
       fill="none"
       id="rect55" /><rect
       x="597"
       y="994"
       width="79.000099"
       height="78"
       stroke="#000000"
       stroke-width="2.0625"
       stroke-linecap="round"
       stroke-miterlimit="8"
       fill="none"
       id="rect56" /><rect
       x="676"
       y="994"
       width="77.999702"
       height="78"
       stroke="#000000"
       stroke-width="2.0625"
       stroke-linecap="round"
       stroke-miterlimit="8"
       fill="none"
       id="rect57" /><rect
       x="754"
       y="994"
       width="78.000099"
       height="78"
       stroke="#000000"
       stroke-width="2.0625"
       stroke-linecap="round"
       stroke-miterlimit="8"
       fill="none"
       id="rect58" /><rect
       x="832"
       y="994"
       width="79.000099"
       height="78"
       stroke="#000000"
       stroke-width="2.0625"
       stroke-linecap="round"
       stroke-miterlimit="8"
       fill="none"
       id="rect59" /><rect
       x="597"
       y="916"
       width="79.000099"
       height="78"
       stroke="#000000"
       stroke-width="2.0625"
       stroke-linecap="round"
       stroke-miterlimit="8"
       fill="none"
       id="rect60" /><rect
       x="676"
       y="916"
       width="77.999702"
       height="78"
       stroke="#000000"
       stroke-width="2.0625"
       stroke-linecap="round"
       stroke-miterlimit="8"
       fill="none"
       id="rect61" /><rect
       x="754"
       y="916"
       width="78.000099"
       height="78"
       stroke="#000000"
       stroke-width="2.0625"
       stroke-linecap="round"
       stroke-miterlimit="8"
       fill="none"
       id="rect62" /><rect
       x="832"
       y="916"
       width="79.000099"
       height="78"
       stroke="#000000"
       stroke-width="2.0625"
       stroke-linecap="round"
       stroke-miterlimit="8"
       fill="none"
       id="rect63" /><rect
       x="676"
       y="838"
       width="77.999702"
       height="78.000099"
       stroke="#000000"
       stroke-width="2.0625"
       stroke-linecap="round"
       stroke-miterlimit="8"
       fill="none"
       id="rect64" /><rect
       x="754"
       y="838"
       width="78.000099"
       height="78.000099"
       stroke="#000000"
       stroke-width="2.0625"
       stroke-linecap="round"
       stroke-miterlimit="8"
       fill="none"
       id="rect65" /><rect
       x="832"
       y="838"
       width="79.000099"
       height="78.000099"
       stroke="#000000"
       stroke-width="2.0625"
       stroke-linecap="round"
       stroke-miterlimit="8"
       fill="none"
       id="rect66" /><rect
       x="754"
       y="760"
       width="78.000099"
       height="78.000099"
       stroke="#000000"
       stroke-width="2.0625"
       stroke-linecap="round"
       stroke-miterlimit="8"
       fill="none"
       id="rect67" /><rect
       x="832"
       y="760"
       width="79.000099"
       height="78.000099"
       stroke="#000000"
       stroke-width="2.0625"
       stroke-linecap="round"
       stroke-miterlimit="8"
       fill="none"
       id="rect68" /><rect
       x="911"
       y="994"
       width="78.000099"
       height="78"
       stroke="#000000"
       stroke-width="2.0625"
       stroke-linecap="round"
       stroke-miterlimit="8"
       fill="none"
       id="rect69" /><rect
       x="989"
       y="994"
       width="78.000099"
       height="78"
       stroke="#000000"
       stroke-width="2.0625"
       stroke-linecap="round"
       stroke-miterlimit="8"
       fill="none"
       id="rect70" /><rect
       x="911"
       y="916"
       width="78.000099"
       height="78"
       stroke="#000000"
       stroke-width="2.0625"
       stroke-linecap="round"
       stroke-miterlimit="8"
       fill="none"
       id="rect71" /><rect
       x="989"
       y="916"
       width="78.000099"
       height="78"
       stroke="#000000"
       stroke-width="2.0625"
       stroke-linecap="round"
       stroke-miterlimit="8"
       fill="none"
       id="rect72" /><rect
       x="911"
       y="838"
       width="78.000099"
       height="78.000099"
       stroke="#000000"
       stroke-width="2.0625"
       stroke-linecap="round"
       stroke-miterlimit="8"
       fill="none"
       id="rect73" /><rect
       x="989"
       y="838"
       width="78.000099"
       height="78.000099"
       stroke="#000000"
       stroke-width="2.0625"
       stroke-linecap="round"
       stroke-miterlimit="8"
       fill="none"
       id="rect74" /><rect
       x="911"
       y="760"
       width="78.000099"
       height="78.000099"
       stroke="#000000"
       stroke-width="2.0625"
       stroke-linecap="round"
       stroke-miterlimit="8"
       fill="none"
       id="rect75" /><rect
       x="989"
       y="760"
       width="78.000099"
       height="78.000099"
       stroke="#000000"
       stroke-width="2.0625"
       stroke-linecap="round"
       stroke-miterlimit="8"
       fill="none"
       id="rect76" /><path
       d="m 610.542,728.063 h 0.04 c 0.509,0 0.979,0.412 0.979,0.937 0,0.525 -0.47,0.938 -0.979,0.938 h -0.04 c -0.509,0 -0.979,-0.413 -0.979,-0.938 0,-0.525 0.47,-0.937 0.979,-0.937 z m 3.956,0 v 0 c 0.509,0 0.979,0.412 0.979,0.937 0,0.525 -0.47,0.938 -0.979,0.938 v 0 c -0.548,0 -0.979,-0.413 -0.979,-0.938 0,-0.525 0.431,-0.937 0.979,-0.937 z m 3.917,0 v 0 c 0.509,0 0.979,0.412 0.979,0.937 0,0.525 -0.47,0.938 -0.979,0.938 v 0 c -0.548,0 -0.979,-0.413 -0.979,-0.938 0,-0.525 0.431,-0.937 0.979,-0.937 z m 3.917,0 v 0 c 0.509,0 0.979,0.412 0.979,0.937 0,0.525 -0.47,0.938 -0.979,0.938 v 0 c -0.549,0 -0.98,-0.413 -0.98,-0.938 0,-0.525 0.431,-0.937 0.98,-0.937 z m 3.916,0 v 0 c 0.549,0 0.979,0.412 0.979,0.937 0,0.525 -0.43,0.938 -0.979,0.938 v 0 c -0.548,0 -0.979,-0.413 -0.979,-0.938 0,-0.525 0.431,-0.937 0.979,-0.937 z m 3.917,0 v 0 c 0.548,0 0.979,0.412 0.979,0.937 0,0.525 -0.431,0.938 -0.979,0.938 v 0 c -0.548,0 -0.979,-0.413 -0.979,-0.938 0,-0.525 0.431,-0.937 0.979,-0.937 z m 3.917,0 v 0 c 0.548,0 0.979,0.412 0.979,0.937 0,0.525 -0.431,0.938 -0.979,0.938 v 0 c -0.549,0 -0.98,-0.413 -0.98,-0.938 0,-0.525 0.431,-0.937 0.98,-0.937 z m 3.916,0 v 0 c 0.549,0 0.979,0.412 0.979,0.937 0,0.525 -0.43,0.938 -0.979,0.938 v 0 c -0.548,0 -0.979,-0.413 -0.979,-0.938 0,-0.525 0.431,-0.937 0.979,-0.937 z m 3.917,0 v 0 c 0.548,0 0.979,0.412 0.979,0.937 0,0.525 -0.431,0.938 -0.979,0.938 v 0 c -0.548,0 -0.979,-0.413 -0.979,-0.938 0,-0.525 0.431,-0.937 0.979,-0.937 z m 3.917,0 v 0 c 0.548,0 0.979,0.412 0.979,0.937 0,0.525 -0.431,0.938 -0.979,0.938 v 0 c -0.549,0 -0.98,-0.413 -0.98,-0.938 0,-0.525 0.431,-0.937 0.98,-0.937 z m 3.916,0 v 0 c 0.549,0 0.979,0.412 0.979,0.937 0,0.525 -0.43,0.938 -0.979,0.938 v 0 c -0.548,0 -0.979,-0.413 -0.979,-0.938 0,-0.525 0.431,-0.937 0.979,-0.937 z m 3.917,0 v 0 c 0.548,0 0.979,0.412 0.979,0.937 0,0.525 -0.431,0.938 -0.979,0.938 v 0 c -0.548,0 -0.979,-0.413 -0.979,-0.938 0,-0.525 0.431,-0.937 0.979,-0.937 z m 3.917,0 v 0 c 0.548,0 0.979,0.412 0.979,0.937 0,0.525 -0.431,0.938 -0.979,0.938 v 0 c -0.549,0 -0.98,-0.413 -0.98,-0.938 0,-0.525 0.431,-0.937 0.98,-0.937 z m 3.916,0 v 0 c 0.549,0 0.979,0.412 0.979,0.937 0,0.525 -0.43,0.938 -0.979,0.938 v 0 c -0.548,0 -0.979,-0.413 -0.979,-0.938 0,-0.525 0.431,-0.937 0.979,-0.937 z m 3.917,0 v 0 c 0.548,0 0.979,0.412 0.979,0.937 0,0.525 -0.431,0.938 -0.979,0.938 v 0 c -0.548,0 -0.979,-0.413 -0.979,-0.938 0,-0.525 0.431,-0.937 0.979,-0.937 z m 3.917,0 v 0 c 0.548,0 0.979,0.412 0.979,0.937 0,0.525 -0.431,0.938 -0.979,0.938 v 0 c -0.549,0 -0.98,-0.413 -0.98,-0.938 0,-0.525 0.431,-0.937 0.98,-0.937 z m 3.916,0 v 0 c 0.549,0 0.979,0.412 0.979,0.937 0,0.525 -0.43,0.938 -0.979,0.938 v 0 c -0.548,0 -0.979,-0.413 -0.979,-0.938 0,-0.525 0.431,-0.937 0.979,-0.937 z m 3.917,0 v 0 c 0.548,0 0.979,0.412 0.979,0.937 0,0.525 -0.431,0.938 -0.979,0.938 v 0 c -0.548,0 -0.979,-0.413 -0.979,-0.938 0,-0.525 0.431,-0.937 0.979,-0.937 z m 3.917,0 v 0 c 0.548,0 0.979,0.412 0.979,0.937 0,0.525 -0.431,0.938 -0.979,0.938 v 0 c -0.51,0 -0.98,-0.413 -0.98,-0.938 0,-0.525 0.47,-0.937 0.98,-0.937 z m 3.916,0 v 0 c 0.549,0 0.979,0.412 0.979,0.937 0,0.525 -0.43,0.938 -0.979,0.938 v 0 c -0.509,0 -0.979,-0.413 -0.979,-0.938 0,-0.525 0.47,-0.937 0.979,-0.937 z m 3.917,0 h 0.039 c 0.509,0 0.979,0.412 0.979,0.937 0,0.525 -0.47,0.938 -0.979,0.938 h -0.039 c -0.509,0 -0.979,-0.413 -0.979,-0.938 0,-0.525 0.47,-0.937 0.979,-0.937 z m 3.956,0 v 0 c 0.509,0 0.979,0.412 0.979,0.937 0,0.525 -0.47,0.938 -0.979,0.938 v 0 c -0.549,0 -0.979,-0.413 -0.979,-0.938 0,-0.525 0.43,-0.937 0.979,-0.937 z m 3.916,0 v 0 c 0.51,0 0.98,0.412 0.98,0.937 0,0.525 -0.47,0.938 -0.98,0.938 v 0 c -0.548,0 -0.979,-0.413 -0.979,-0.938 0,-0.525 0.431,-0.937 0.979,-0.937 z m 3.917,0 v 0 c 0.509,0 0.979,0.412 0.979,0.937 0,0.525 -0.47,0.938 -0.979,0.938 v 0 c -0.548,0 -0.979,-0.413 -0.979,-0.938 0,-0.525 0.431,-0.937 0.979,-0.937 z m 3.917,0 v 0 c 0.548,0 0.979,0.412 0.979,0.937 0,0.525 -0.431,0.938 -0.979,0.938 v 0 c -0.549,0 -0.979,-0.413 -0.979,-0.938 0,-0.525 0.43,-0.937 0.979,-0.937 z m 3.916,0 v 0 c 0.549,0 0.98,0.412 0.98,0.937 0,0.525 -0.431,0.938 -0.98,0.938 v 0 c -0.548,0 -0.979,-0.413 -0.979,-0.938 0,-0.525 0.431,-0.937 0.979,-0.937 z m 3.917,0 v 0 c 0.548,0 0.979,0.412 0.979,0.937 0,0.525 -0.431,0.938 -0.979,0.938 v 0 c -0.548,0 -0.979,-0.413 -0.979,-0.938 0,-0.525 0.431,-0.937 0.979,-0.937 z m 3.917,0 v 0 c 0.548,0 0.979,0.412 0.979,0.937 0,0.525 -0.431,0.938 -0.979,0.938 v 0 c -0.549,0 -0.979,-0.413 -0.979,-0.938 0,-0.525 0.43,-0.937 0.979,-0.937 z m 3.916,0 v 0 c 0.549,0 0.98,0.412 0.98,0.937 0,0.525 -0.431,0.938 -0.98,0.938 v 0 c -0.548,0 -0.979,-0.413 -0.979,-0.938 0,-0.525 0.431,-0.937 0.979,-0.937 z m 3.917,0 v 0 c 0.548,0 0.979,0.412 0.979,0.937 0,0.525 -0.431,0.938 -0.979,0.938 v 0 c -0.548,0 -0.979,-0.413 -0.979,-0.938 0,-0.525 0.431,-0.937 0.979,-0.937 z m 3.917,0 v 0 c 0.548,0 0.979,0.412 0.979,0.937 0,0.525 -0.431,0.938 -0.979,0.938 v 0 c -0.549,0 -0.979,-0.413 -0.979,-0.938 0,-0.525 0.43,-0.937 0.979,-0.937 z m 3.916,0 v 0 c 0.549,0 0.98,0.412 0.98,0.937 0,0.525 -0.431,0.938 -0.98,0.938 v 0 c -0.548,0 -0.979,-0.413 -0.979,-0.938 0,-0.525 0.431,-0.937 0.979,-0.937 z m 3.917,0 v 0 c 0.548,0 0.979,0.412 0.979,0.937 0,0.525 -0.431,0.938 -0.979,0.938 v 0 c -0.548,0 -0.979,-0.413 -0.979,-0.938 0,-0.525 0.431,-0.937 0.979,-0.937 z m 3.917,0 v 0 c 0.548,0 0.979,0.412 0.979,0.937 0,0.525 -0.431,0.938 -0.979,0.938 v 0 c -0.549,0 -0.979,-0.413 -0.979,-0.938 0,-0.525 0.43,-0.937 0.979,-0.937 z m 3.916,0 v 0 c 0.549,0 0.98,0.412 0.98,0.937 0,0.525 -0.431,0.938 -0.98,0.938 v 0 c -0.548,0 -0.979,-0.413 -0.979,-0.938 0,-0.525 0.431,-0.937 0.979,-0.937 z m 3.917,0 v 0 c 0.548,0 0.979,0.412 0.979,0.937 0,0.525 -0.431,0.938 -0.979,0.938 v 0 c -0.548,0 -0.979,-0.413 -0.979,-0.938 0,-0.525 0.431,-0.937 0.979,-0.937 z m 3.917,0 v 0 c 0.548,0 0.979,0.412 0.979,0.937 0,0.525 -0.431,0.938 -0.979,0.938 v 0 c -0.549,0 -0.979,-0.413 -0.979,-0.938 0,-0.525 0.43,-0.937 0.979,-0.937 z m 3.916,0 v 0 c 0.549,0 0.98,0.412 0.98,0.937 0,0.525 -0.431,0.938 -0.98,0.938 v 0 c -0.548,0 -0.979,-0.413 -0.979,-0.938 0,-0.525 0.431,-0.937 0.979,-0.937 z m 3.917,0 v 0 c 0.548,0 0.979,0.412 0.979,0.937 0,0.525 -0.431,0.938 -0.979,0.938 v 0 c -0.509,0 -0.979,-0.413 -0.979,-0.938 0,-0.525 0.47,-0.937 0.979,-0.937 z m 3.917,0 v 0 c 0.548,0 0.979,0.412 0.979,0.937 0,0.525 -0.431,0.938 -0.979,0.938 v 0 c -0.509,0 -0.979,-0.413 -0.979,-0.938 0,-0.525 0.47,-0.937 0.979,-0.937 z m 3.916,0 v 0 c 0.549,0 0.98,0.412 0.98,0.937 0,0.525 -0.431,0.938 -0.98,0.938 v 0 c -0.509,0 -0.979,-0.413 -0.979,-0.938 0,-0.525 0.47,-0.937 0.979,-0.937 z m 3.917,0 h 0.039 c 0.509,0 0.979,0.412 0.979,0.937 0,0.525 -0.47,0.938 -0.979,0.938 h -0.039 c -0.509,0 -0.979,-0.413 -0.979,-0.938 0,-0.525 0.47,-0.937 0.979,-0.937 z m 3.956,0 v 0 c 0.509,0 0.979,0.412 0.979,0.937 0,0.525 -0.47,0.938 -0.979,0.938 v 0 c -0.548,0 -0.979,-0.413 -0.979,-0.938 0,-0.525 0.431,-0.937 0.979,-0.937 z m 3.917,0 v 0 c 0.509,0 0.979,0.412 0.979,0.937 0,0.525 -0.47,0.938 -0.979,0.938 v 0 c -0.549,0 -0.98,-0.413 -0.98,-0.938 0,-0.525 0.431,-0.937 0.98,-0.937 z m 3.916,0 v 0 c 0.509,0 0.979,0.412 0.979,0.937 0,0.525 -0.47,0.938 -0.979,0.938 v 0 c -0.548,0 -0.979,-0.413 -0.979,-0.938 0,-0.525 0.431,-0.937 0.979,-0.937 z m 3.917,0 v 0 c 0.548,0 0.979,0.412 0.979,0.937 0,0.525 -0.431,0.938 -0.979,0.938 v 0 c -0.548,0 -0.979,-0.413 -0.979,-0.938 0,-0.525 0.431,-0.937 0.979,-0.937 z m 3.917,0 v 0 c 0.548,0 0.979,0.412 0.979,0.937 0,0.525 -0.431,0.938 -0.979,0.938 v 0 c -0.549,0 -0.98,-0.413 -0.98,-0.938 0,-0.525 0.431,-0.937 0.98,-0.937 z m 3.916,0 v 0 c 0.549,0 0.979,0.412 0.979,0.937 0,0.525 -0.43,0.938 -0.979,0.938 v 0 c -0.548,0 -0.979,-0.413 -0.979,-0.938 0,-0.525 0.431,-0.937 0.979,-0.937 z m 3.917,0 v 0 c 0.548,0 0.979,0.412 0.979,0.937 0,0.525 -0.431,0.938 -0.979,0.938 v 0 c -0.548,0 -0.979,-0.413 -0.979,-0.938 0,-0.525 0.431,-0.937 0.979,-0.937 z m 3.917,0 v 0 c 0.548,0 0.979,0.412 0.979,0.937 0,0.525 -0.431,0.938 -0.979,0.938 v 0 c -0.549,0 -0.98,-0.413 -0.98,-0.938 0,-0.525 0.431,-0.937 0.98,-0.937 z m 3.916,0 v 0 c 0.549,0 0.979,0.412 0.979,0.937 0,0.525 -0.43,0.938 -0.979,0.938 v 0 c -0.548,0 -0.979,-0.413 -0.979,-0.938 0,-0.525 0.431,-0.937 0.979,-0.937 z m 3.917,0 v 0 c 0.548,0 0.979,0.412 0.979,0.937 0,0.525 -0.431,0.938 -0.979,0.938 v 0 c -0.548,0 -0.979,-0.413 -0.979,-0.938 0,-0.525 0.431,-0.937 0.979,-0.937 z m 3.917,0 v 0 c 0.548,0 0.979,0.412 0.979,0.937 0,0.525 -0.431,0.938 -0.979,0.938 v 0 c -0.549,0 -0.98,-0.413 -0.98,-0.938 0,-0.525 0.431,-0.937 0.98,-0.937 z m 3.916,0 v 0 c 0.549,0 0.979,0.412 0.979,0.937 0,0.525 -0.43,0.938 -0.979,0.938 v 0 c -0.548,0 -0.979,-0.413 -0.979,-0.938 0,-0.525 0.431,-0.937 0.979,-0.937 z m 3.917,0 v 0 c 0.548,0 0.979,0.412 0.979,0.937 0,0.525 -0.431,0.938 -0.979,0.938 v 0 c -0.548,0 -0.979,-0.413 -0.979,-0.938 0,-0.525 0.431,-0.937 0.979,-0.937 z m 3.917,0 v 0 c 0.548,0 0.979,0.412 0.979,0.937 0,0.525 -0.431,0.938 -0.979,0.938 v 0 c -0.549,0 -0.98,-0.413 -0.98,-0.938 0,-0.525 0.431,-0.937 0.98,-0.937 z m 3.916,0 v 0 c 0.549,0 0.979,0.412 0.979,0.937 0,0.525 -0.43,0.938 -0.979,0.938 v 0 c -0.548,0 -0.979,-0.413 -0.979,-0.938 0,-0.525 0.431,-0.937 0.979,-0.937 z m 3.917,0 v 0 c 0.548,0 0.979,0.412 0.979,0.937 0,0.525 -0.431,0.938 -0.979,0.938 v 0 c -0.548,0 -0.979,-0.413 -0.979,-0.938 0,-0.525 0.431,-0.937 0.979,-0.937 z m 3.917,0 v 0 c 0.548,0 0.979,0.412 0.979,0.937 0,0.525 -0.431,0.938 -0.979,0.938 v 0 c -0.51,0 -0.98,-0.413 -0.98,-0.938 0,-0.525 0.47,-0.937 0.98,-0.937 z m 3.916,0 v 0 c 0.549,0 0.979,0.412 0.979,0.937 0,0.525 -0.43,0.938 -0.979,0.938 v 0 c -0.509,0 -0.979,-0.413 -0.979,-0.938 0,-0.525 0.47,-0.937 0.979,-0.937 z m 3.917,0 v 0 c 0.548,0 0.979,0.412 0.979,0.937 0,0.525 -0.431,0.938 -0.979,0.938 v 0 c -0.509,0 -0.979,-0.413 -0.979,-0.938 0,-0.525 0.47,-0.937 0.979,-0.937 z m 3.917,0 h 0.039 c 0.509,0 0.979,0.412 0.979,0.937 0,0.525 -0.47,0.938 -0.979,0.938 h -0.039 c -0.51,0 -0.98,-0.413 -0.98,-0.938 0,-0.525 0.47,-0.937 0.98,-0.937 z m 3.955,0 v 0 c 0.51,0 0.98,0.412 0.98,0.937 0,0.525 -0.47,0.938 -0.98,0.938 v 0 c -0.548,0 -0.979,-0.413 -0.979,-0.938 0,-0.525 0.431,-0.937 0.979,-0.937 z m 3.917,0 v 0 c 0.509,0 0.979,0.412 0.979,0.937 0,0.525 -0.47,0.938 -0.979,0.938 v 0 c -0.548,0 -0.979,-0.413 -0.979,-0.938 0,-0.525 0.431,-0.937 0.979,-0.937 z m 3.917,0 v 0 c 0.509,0 0.979,0.412 0.979,0.937 0,0.525 -0.47,0.938 -0.979,0.938 v 0 c -0.549,0 -0.979,-0.413 -0.979,-0.938 0,-0.525 0.43,-0.937 0.979,-0.937 z m 3.916,0 v 0 c 0.549,0 0.98,0.412 0.98,0.937 0,0.525 -0.431,0.938 -0.98,0.938 v 0 c -0.548,0 -0.979,-0.413 -0.979,-0.938 0,-0.525 0.431,-0.937 0.979,-0.937 z m 3.917,0 v 0 c 0.548,0 0.979,0.412 0.979,0.937 0,0.525 -0.431,0.938 -0.979,0.938 v 0 c -0.548,0 -0.979,-0.413 -0.979,-0.938 0,-0.525 0.431,-0.937 0.979,-0.937 z m 3.917,0 v 0 c 0.548,0 0.979,0.412 0.979,0.937 0,0.525 -0.431,0.938 -0.979,0.938 v 0 c -0.549,0 -0.979,-0.413 -0.979,-0.938 0,-0.525 0.43,-0.937 0.979,-0.937 z m 3.916,0 v 0 c 0.549,0 0.98,0.412 0.98,0.937 0,0.525 -0.431,0.938 -0.98,0.938 v 0 c -0.548,0 -0.979,-0.413 -0.979,-0.938 0,-0.525 0.431,-0.937 0.979,-0.937 z m 3.917,0 v 0 c 0.548,0 0.979,0.412 0.979,0.937 0,0.525 -0.431,0.938 -0.979,0.938 v 0 c -0.548,0 -0.979,-0.413 -0.979,-0.938 0,-0.525 0.431,-0.937 0.979,-0.937 z m 3.917,0 v 0 c 0.548,0 0.979,0.412 0.979,0.937 0,0.525 -0.431,0.938 -0.979,0.938 v 0 c -0.549,0 -0.979,-0.413 -0.979,-0.938 0,-0.525 0.43,-0.937 0.979,-0.937 z m 3.916,0 v 0 c 0.549,0 0.98,0.412 0.98,0.937 0,0.525 -0.431,0.938 -0.98,0.938 v 0 c -0.548,0 -0.979,-0.413 -0.979,-0.938 0,-0.525 0.431,-0.937 0.979,-0.937 z m 3.917,0 v 0 c 0.548,0 0.979,0.412 0.979,0.937 0,0.525 -0.431,0.938 -0.979,0.938 v 0 c -0.548,0 -0.979,-0.413 -0.979,-0.938 0,-0.525 0.431,-0.937 0.979,-0.937 z m 3.917,0 v 0 c 0.548,0 0.979,0.412 0.979,0.937 0,0.525 -0.431,0.938 -0.979,0.938 v 0 c -0.549,0 -0.979,-0.413 -0.979,-0.938 0,-0.525 0.43,-0.937 0.979,-0.937 z m 3.916,0 v 0 c 0.549,0 0.98,0.412 0.98,0.937 0,0.525 -0.431,0.938 -0.98,0.938 v 0 c -0.548,0 -0.979,-0.413 -0.979,-0.938 0,-0.525 0.431,-0.937 0.979,-0.937 z m 3.917,0 v 0 c 0.548,0 0.979,0.412 0.979,0.937 0,0.525 -0.431,0.938 -0.979,0.938 v 0 c -0.548,0 -0.979,-0.413 -0.979,-0.938 0,-0.525 0.431,-0.937 0.979,-0.937 z m 3.917,0 v 0 c 0.548,0 0.979,0.412 0.979,0.937 0,0.525 -0.431,0.938 -0.979,0.938 v 0 c -0.549,0 -0.979,-0.413 -0.979,-0.938 0,-0.525 0.43,-0.937 0.979,-0.937 z m 3.916,0 v 0 c 0.549,0 0.98,0.412 0.98,0.937 0,0.525 -0.431,0.938 -0.98,0.938 v 0 c -0.548,0 -0.979,-0.413 -0.979,-0.938 0,-0.525 0.431,-0.937 0.979,-0.937 z m 3.917,0 v 0 c 0.548,0 0.979,0.412 0.979,0.937 0,0.525 -0.431,0.938 -0.979,0.938 v 0 c -0.509,0 -0.979,-0.413 -0.979,-0.938 0,-0.525 0.47,-0.937 0.979,-0.937 z m 3.917,0 v 0 c 0.548,0 0.979,0.412 0.979,0.937 0,0.525 -0.431,0.938 -0.979,0.938 v 0 c -0.509,0 -0.979,-0.413 -0.979,-0.938 0,-0.525 0.47,-0.937 0.979,-0.937 z m 3.916,0 v 0 c 0.549,0 0.98,0.412 0.98,0.937 0,0.525 -0.431,0.938 -0.98,0.938 v 0 c -0.509,0 -0.979,-0.413 -0.979,-0.938 0,-0.525 0.47,-0.937 0.979,-0.937 z m 3.917,0 h 0.039 c 0.509,0 0.979,0.412 0.979,0.937 0,0.525 -0.47,0.938 -0.979,0.938 h -0.039 c -0.509,0 -0.979,-0.413 -0.979,-0.938 0,-0.525 0.47,-0.937 0.979,-0.937 z m 3.956,0 v 0 c 0.509,0 0.979,0.412 0.979,0.937 0,0.525 -0.47,0.938 -0.979,0.938 v 0 c -0.548,0 -0.979,-0.413 -0.979,-0.938 0,-0.525 0.431,-0.937 0.979,-0.937 z m 3.917,0 v 0 c 0.509,0 0.979,0.412 0.979,0.937 0,0.525 -0.47,0.938 -0.979,0.938 v 0 c -0.549,0 -0.98,-0.413 -0.98,-0.938 0,-0.525 0.431,-0.937 0.98,-0.937 z m 3.916,0 v 0 c 0.509,0 0.979,0.412 0.979,0.937 0,0.525 -0.47,0.938 -0.979,0.938 v 0 c -0.548,0 -0.979,-0.413 -0.979,-0.938 0,-0.525 0.431,-0.937 0.979,-0.937 z m 3.917,0 v 0 c 0.548,0 0.979,0.412 0.979,0.937 0,0.525 -0.431,0.938 -0.979,0.938 v 0 c -0.548,0 -0.979,-0.413 -0.979,-0.938 0,-0.525 0.431,-0.937 0.979,-0.937 z m 3.917,0 v 0 c 0.548,0 0.979,0.412 0.979,0.937 0,0.525 -0.431,0.938 -0.979,0.938 v 0 c -0.549,0 -0.98,-0.413 -0.98,-0.938 0,-0.525 0.431,-0.937 0.98,-0.937 z m 3.916,0 v 0 c 0.548,0 0.979,0.412 0.979,0.937 0,0.525 -0.431,0.938 -0.979,0.938 v 0 c -0.548,0 -0.979,-0.413 -0.979,-0.938 0,-0.525 0.431,-0.937 0.979,-0.937 z m 3.917,0 v 0 c 0.548,0 0.979,0.412 0.979,0.937 0,0.525 -0.431,0.938 -0.979,0.938 v 0 c -0.548,0 -0.979,-0.413 -0.979,-0.938 0,-0.525 0.431,-0.937 0.979,-0.937 z m 3.917,0 v 0 c 0.548,0 0.979,0.412 0.979,0.937 0,0.525 -0.431,0.938 -0.979,0.938 v 0 c -0.549,0 -0.98,-0.413 -0.98,-0.938 0,-0.525 0.431,-0.937 0.98,-0.937 z m 3.916,0 v 0 c 0.548,0 0.979,0.412 0.979,0.937 0,0.525 -0.431,0.938 -0.979,0.938 v 0 c -0.548,0 -0.979,-0.413 -0.979,-0.938 0,-0.525 0.431,-0.937 0.979,-0.937 z m 3.917,0 v 0 c 0.548,0 0.979,0.412 0.979,0.937 0,0.525 -0.431,0.938 -0.979,0.938 v 0 c -0.548,0 -0.979,-0.413 -0.979,-0.938 0,-0.525 0.431,-0.937 0.979,-0.937 z m 3.917,0 v 0 c 0.548,0 0.979,0.412 0.979,0.937 0,0.525 -0.431,0.938 -0.979,0.938 v 0 c -0.549,0 -0.98,-0.413 -0.98,-0.938 0,-0.525 0.431,-0.937 0.98,-0.937 z m 3.916,0 v 0 c 0.548,0 0.979,0.412 0.979,0.937 0,0.525 -0.431,0.938 -0.979,0.938 v 0 c -0.548,0 -0.979,-0.413 -0.979,-0.938 0,-0.525 0.431,-0.937 0.979,-0.937 z m 3.917,0 v 0 c 0.548,0 0.979,0.412 0.979,0.937 0,0.525 -0.431,0.938 -0.979,0.938 v 0 c -0.548,0 -0.979,-0.413 -0.979,-0.938 0,-0.525 0.431,-0.937 0.979,-0.937 z m 3.917,0 v 0 c 0.548,0 0.979,0.412 0.979,0.937 0,0.525 -0.431,0.938 -0.979,0.938 v 0 c -0.549,0 -0.98,-0.413 -0.98,-0.938 0,-0.525 0.431,-0.937 0.98,-0.937 z m 3.916,0 v 0 c 0.548,0 0.979,0.412 0.979,0.937 0,0.525 -0.431,0.938 -0.979,0.938 v 0 c -0.548,0 -0.979,-0.413 -0.979,-0.938 0,-0.525 0.431,-0.937 0.979,-0.937 z m 3.917,0 v 0 c 0.548,0 0.979,0.412 0.979,0.937 0,0.525 -0.431,0.938 -0.979,0.938 v 0 c -0.548,0 -0.979,-0.413 -0.979,-0.938 0,-0.525 0.431,-0.937 0.979,-0.937 z m 3.917,0 v 0 c 0.548,0 0.979,0.412 0.979,0.937 0,0.525 -0.431,0.938 -0.979,0.938 v 0 c -0.51,0 -0.98,-0.413 -0.98,-0.938 0,-0.525 0.47,-0.937 0.98,-0.937 z m 3.916,0 v 0 c 0.548,0 0.979,0.412 0.979,0.937 0,0.525 -0.431,0.938 -0.979,0.938 v 0 c -0.509,0 -0.979,-0.413 -0.979,-0.938 0,-0.525 0.47,-0.937 0.979,-0.937 z m 3.912,0 v 0 c 0.55,0 0.98,0.412 0.98,0.937 0,0.525 -0.43,0.938 -0.98,0.938 v 0 c -0.5,0 -0.97,-0.413 -0.97,-0.938 0,-0.525 0.47,-0.937 0.97,-0.937 z m 3.96,0 v 0 c 0.51,0 0.98,0.412 0.98,0.937 0,0.525 -0.47,0.938 -0.98,0.938 v 0 c -0.55,0 -0.98,-0.413 -0.98,-0.938 0,-0.525 0.43,-0.937 0.98,-0.937 z m 3.92,0 v 0 c 0.51,0 0.98,0.412 0.98,0.937 0,0.525 -0.47,0.938 -0.98,0.938 v 0 c -0.55,0 -0.98,-0.413 -0.98,-0.938 0,-0.525 0.43,-0.937 0.98,-0.937 z m 3.91,0 v 0 c 0.51,0 0.98,0.412 0.98,0.937 0,0.525 -0.47,0.938 -0.98,0.938 v 0 c -0.54,0 -0.98,-0.413 -0.98,-0.938 0,-0.525 0.44,-0.937 0.98,-0.937 z m 3.92,0 v 0 c 0.55,0 0.98,0.412 0.98,0.937 0,0.525 -0.43,0.938 -0.98,0.938 v 0 c -0.55,0 -0.98,-0.413 -0.98,-0.938 0,-0.525 0.43,-0.937 0.98,-0.937 z m 3.92,0 v 0 c 0.55,0 0.98,0.412 0.98,0.937 0,0.525 -0.43,0.938 -0.98,0.938 v 0 c -0.55,0 -0.98,-0.413 -0.98,-0.938 0,-0.525 0.43,-0.937 0.98,-0.937 z m 3.91,0 v 0 c 0.55,0 0.98,0.412 0.98,0.937 0,0.525 -0.43,0.938 -0.98,0.938 v 0 c -0.54,0 -0.98,-0.413 -0.98,-0.938 0,-0.525 0.44,-0.937 0.98,-0.937 z m 3.92,0 v 0 c 0.55,0 0.98,0.412 0.98,0.937 0,0.525 -0.43,0.938 -0.98,0.938 v 0 c -0.55,0 -0.98,-0.413 -0.98,-0.938 0,-0.525 0.43,-0.937 0.98,-0.937 z m 3.92,0 v 0 c 0.55,0 0.98,0.412 0.98,0.937 0,0.525 -0.43,0.938 -0.98,0.938 v 0 c -0.55,0 -0.98,-0.413 -0.98,-0.938 0,-0.525 0.43,-0.937 0.98,-0.937 z m 3.91,0 v 0 c 0.55,0 0.98,0.412 0.98,0.937 0,0.525 -0.43,0.938 -0.98,0.938 v 0 c -0.54,0 -0.98,-0.413 -0.98,-0.938 0,-0.525 0.44,-0.937 0.98,-0.937 z m 3.92,0 v 0 c 0.55,0 0.98,0.412 0.98,0.937 0,0.525 -0.43,0.938 -0.98,0.938 v 0 c -0.55,0 -0.98,-0.413 -0.98,-0.938 0,-0.525 0.43,-0.937 0.98,-0.937 z m 3.92,0 v 0 c 0.55,0 0.98,0.412 0.98,0.937 0,0.525 -0.43,0.938 -0.98,0.938 v 0 c -0.55,0 -0.98,-0.413 -0.98,-0.938 0,-0.525 0.43,-0.937 0.98,-0.937 z m 3.91,0 v 0 c 0.55,0 0.98,0.412 0.98,0.937 0,0.525 -0.43,0.938 -0.98,0.938 v 0 c -0.54,0 -0.98,-0.413 -0.98,-0.938 0,-0.525 0.44,-0.937 0.98,-0.937 z m 3.92,0 v 0 c 0.55,0 0.98,0.412 0.98,0.937 0,0.525 -0.43,0.938 -0.98,0.938 v 0 c -0.55,0 -0.98,-0.413 -0.98,-0.938 0,-0.525 0.43,-0.937 0.98,-0.937 z M 613.167,736.5 597.5,729 l 15.667,-7.5 z m 438.663,-15 15.67,7.5 -15.67,7.5 z"
       stroke="#000000"
       stroke-width="0.6875"
       stroke-linejoin="bevel"
       stroke-miterlimit="10"
       fill-rule="evenodd"
       id="path76" /><text
       font-family="'Times New Roman', 'Times New Roman_MSFontService', sans-serif"
       font-weight="400"
       font-size="32px"
       id="text76"
       x="776.35425"
       y="714">TLIFE</text><path
       d="M 0,0 3.60892e-4,87.7708"
       stroke="#000000"
       stroke-width="2.0625"
       stroke-linecap="round"
       stroke-linejoin="round"
       stroke-miterlimit="10"
       fill="none"
       fill-rule="evenodd"
       transform="matrix(1,0,0,-1,597,759.771)"
       id="path77" /><rect
       x="1224"
       y="762"
       width="77"
       height="104"
       stroke="#000000"
       stroke-width="2.0625"
       stroke-linecap="round"
       stroke-miterlimit="8"
       fill="none"
       id="rect78"
       style="fill:url(#pattern108);fill-opacity:1" /><rect
       x="1301"
       y="866"
       width="77"
       height="103"
       stroke="#000000"
       stroke-width="2.0625"
       stroke-linecap="round"
       stroke-miterlimit="8"
       fill="none"
       id="rect80"
       style="fill:url(#pattern109);fill-opacity:1" /><rect
       x="1455.5001"
       y="969"
       width="77"
       height="103"
       stroke="#000000"
       stroke-width="2.0625"
       stroke-linecap="round"
       stroke-miterlimit="8"
       fill="none"
       id="rect82"
       style="fill:url(#pattern118);fill-opacity:1" /><rect
       x="1378"
       y="969"
       width="77"
       height="103"
       stroke="#000000"
       stroke-width="2.0625"
       stroke-linecap="round"
       stroke-miterlimit="8"
       fill="none"
       id="rect84"
       style="fill:url(#pattern110);fill-opacity:1" /><rect
       x="1378"
       y="866"
       width="77"
       height="103"
       stroke="#000000"
       stroke-width="2.0625"
       stroke-linecap="round"
       stroke-miterlimit="8"
       fill="none"
       id="rect86"
       style="fill:url(#pattern117);fill-opacity:1" /><rect
       x="1301"
       y="762"
       width="77"
       height="104"
       stroke="#000000"
       stroke-width="2.0625"
       stroke-linecap="round"
       stroke-miterlimit="8"
       fill="none"
       id="rect88"
       style="fill:url(#pattern116);fill-opacity:1" /><path
       d="m 1080.57,728.063 h 0.04 c 0.51,0 0.98,0.412 0.98,0.937 0,0.525 -0.47,0.938 -0.98,0.938 h -0.04 c -0.51,0 -0.98,-0.413 -0.98,-0.938 0,-0.525 0.47,-0.937 0.98,-0.937 z m 3.96,0 v 0 c 0.51,0 0.99,0.412 0.99,0.937 0,0.525 -0.48,0.938 -0.99,0.938 v 0 c -0.55,0 -0.98,-0.413 -0.98,-0.938 0,-0.525 0.43,-0.937 0.98,-0.937 z m 3.93,0 v 0 c 0.51,0 0.98,0.412 0.98,0.937 0,0.525 -0.47,0.938 -0.98,0.938 v 0 c -0.55,0 -0.98,-0.413 -0.98,-0.938 0,-0.525 0.43,-0.937 0.98,-0.937 z m 3.92,0 v 0 c 0.51,0 0.99,0.412 0.99,0.937 0,0.525 -0.48,0.938 -0.99,0.938 v 0 c -0.55,0 -0.98,-0.413 -0.98,-0.938 0,-0.525 0.43,-0.937 0.98,-0.937 z m 3.93,0 v 0 c 0.55,0 0.98,0.412 0.98,0.937 0,0.525 -0.43,0.938 -0.98,0.938 v 0 c -0.55,0 -0.98,-0.413 -0.98,-0.938 0,-0.525 0.43,-0.937 0.98,-0.937 z m 3.92,0 v 0 c 0.55,0 0.99,0.412 0.99,0.937 0,0.525 -0.44,0.938 -0.99,0.938 v 0 c -0.55,0 -0.98,-0.413 -0.98,-0.938 0,-0.525 0.43,-0.937 0.98,-0.937 z m 3.93,0 v 0 c 0.55,0 0.98,0.412 0.98,0.937 0,0.525 -0.43,0.938 -0.98,0.938 v 0 c -0.55,0 -0.98,-0.413 -0.98,-0.938 0,-0.525 0.43,-0.937 0.98,-0.937 z m 3.92,0 v 0 c 0.55,0 0.99,0.412 0.99,0.937 0,0.525 -0.44,0.938 -0.99,0.938 v 0 c -0.55,0 -0.98,-0.413 -0.98,-0.938 0,-0.525 0.43,-0.937 0.98,-0.937 z m 3.93,0 v 0 c 0.55,0 0.98,0.412 0.98,0.937 0,0.525 -0.43,0.938 -0.98,0.938 v 0 c -0.55,0 -0.98,-0.413 -0.98,-0.938 0,-0.525 0.43,-0.937 0.98,-0.937 z m 3.92,0 v 0 c 0.55,0 0.99,0.412 0.99,0.937 0,0.525 -0.44,0.938 -0.99,0.938 v 0 c -0.55,0 -0.98,-0.413 -0.98,-0.938 0,-0.525 0.43,-0.937 0.98,-0.937 z m 3.93,0 v 0 c 0.55,0 0.98,0.412 0.98,0.937 0,0.525 -0.43,0.938 -0.98,0.938 v 0 c -0.55,0 -0.98,-0.413 -0.98,-0.938 0,-0.525 0.43,-0.937 0.98,-0.937 z m 3.92,0 v 0 c 0.55,0 0.99,0.412 0.99,0.937 0,0.525 -0.44,0.938 -0.99,0.938 v 0 c -0.55,0 -0.98,-0.413 -0.98,-0.938 0,-0.525 0.43,-0.937 0.98,-0.937 z m 3.93,0 v 0 c 0.55,0 0.98,0.412 0.98,0.937 0,0.525 -0.43,0.938 -0.98,0.938 v 0 c -0.55,0 -0.98,-0.413 -0.98,-0.938 0,-0.525 0.43,-0.937 0.98,-0.937 z m 3.92,0 v 0 c 0.55,0 0.99,0.412 0.99,0.937 0,0.525 -0.44,0.938 -0.99,0.938 v 0 c -0.55,0 -0.98,-0.413 -0.98,-0.938 0,-0.525 0.43,-0.937 0.98,-0.937 z m 3.93,0 v 0 c 0.55,0 0.98,0.412 0.98,0.937 0,0.525 -0.43,0.938 -0.98,0.938 v 0 c -0.55,0 -0.98,-0.413 -0.98,-0.938 0,-0.525 0.43,-0.937 0.98,-0.937 z m 3.92,0 v 0 c 0.55,0 0.99,0.412 0.99,0.937 0,0.525 -0.44,0.938 -0.99,0.938 v 0 c -0.55,0 -0.98,-0.413 -0.98,-0.938 0,-0.525 0.43,-0.937 0.98,-0.937 z m 3.93,0 v 0 c 0.55,0 0.98,0.412 0.98,0.937 0,0.525 -0.43,0.938 -0.98,0.938 v 0 c -0.55,0 -0.98,-0.413 -0.98,-0.938 0,-0.525 0.43,-0.937 0.98,-0.937 z m 3.92,0 v 0 c 0.55,0 0.99,0.412 0.99,0.937 0,0.525 -0.44,0.938 -0.99,0.938 v 0 c -0.55,0 -0.98,-0.413 -0.98,-0.938 0,-0.525 0.43,-0.937 0.98,-0.937 z m 3.93,0 v 0 c 0.55,0 0.98,0.412 0.98,0.937 0,0.525 -0.43,0.938 -0.98,0.938 v 0 c -0.51,0 -0.98,-0.413 -0.98,-0.938 0,-0.525 0.47,-0.937 0.98,-0.937 z m 3.92,0 v 0 c 0.55,0 0.99,0.412 0.99,0.937 0,0.525 -0.44,0.938 -0.99,0.938 v 0 c -0.51,0 -0.98,-0.413 -0.98,-0.938 0,-0.525 0.47,-0.937 0.98,-0.937 z m 3.93,0 v 0 c 0.55,0 0.98,0.412 0.98,0.937 0,0.525 -0.43,0.938 -0.98,0.938 v 0 c -0.51,0 -0.98,-0.413 -0.98,-0.938 0,-0.525 0.47,-0.937 0.98,-0.937 z m 3.92,0 h 0.04 c 0.51,0 0.98,0.412 0.98,0.937 0,0.525 -0.47,0.938 -0.98,0.938 h -0.04 c -0.51,0 -0.98,-0.413 -0.98,-0.938 0,-0.525 0.47,-0.937 0.98,-0.937 z m 3.97,0 v 0 c 0.51,0 0.98,0.412 0.98,0.937 0,0.525 -0.47,0.938 -0.98,0.938 v 0 c -0.55,0 -0.98,-0.413 -0.98,-0.938 0,-0.525 0.43,-0.937 0.98,-0.937 z m 3.92,0 v 0 c 0.51,0 0.98,0.412 0.98,0.937 0,0.525 -0.47,0.938 -0.98,0.938 v 0 c -0.55,0 -0.98,-0.413 -0.98,-0.938 0,-0.525 0.43,-0.937 0.98,-0.937 z m 3.93,0 v 0 c 0.55,0 0.98,0.412 0.98,0.937 0,0.525 -0.43,0.938 -0.98,0.938 v 0 c -0.55,0 -0.98,-0.413 -0.98,-0.938 0,-0.525 0.43,-0.937 0.98,-0.937 z m 3.92,0 v 0 c 0.55,0 0.98,0.412 0.98,0.937 0,0.525 -0.43,0.938 -0.98,0.938 v 0 c -0.55,0 -0.98,-0.413 -0.98,-0.938 0,-0.525 0.43,-0.937 0.98,-0.937 z m 3.93,0 v 0 c 0.55,0 0.98,0.412 0.98,0.937 0,0.525 -0.43,0.938 -0.98,0.938 v 0 c -0.55,0 -0.98,-0.413 -0.98,-0.938 0,-0.525 0.43,-0.937 0.98,-0.937 z m 3.92,0 v 0 c 0.55,0 0.98,0.412 0.98,0.937 0,0.525 -0.43,0.938 -0.98,0.938 v 0 c -0.55,0 -0.98,-0.413 -0.98,-0.938 0,-0.525 0.43,-0.937 0.98,-0.937 z m 3.93,0 v 0 c 0.55,0 0.98,0.412 0.98,0.937 0,0.525 -0.43,0.938 -0.98,0.938 v 0 c -0.55,0 -0.98,-0.413 -0.98,-0.938 0,-0.525 0.43,-0.937 0.98,-0.937 z m 3.92,0 v 0 c 0.55,0 0.98,0.412 0.98,0.937 0,0.525 -0.43,0.938 -0.98,0.938 v 0 c -0.55,0 -0.98,-0.413 -0.98,-0.938 0,-0.525 0.43,-0.937 0.98,-0.937 z m 3.93,0 v 0 c 0.55,0 0.98,0.412 0.98,0.937 0,0.525 -0.43,0.938 -0.98,0.938 v 0 c -0.55,0 -0.98,-0.413 -0.98,-0.938 0,-0.525 0.43,-0.937 0.98,-0.937 z m 3.92,0 v 0 c 0.55,0 0.98,0.412 0.98,0.937 0,0.525 -0.43,0.938 -0.98,0.938 v 0 c -0.55,0 -0.98,-0.413 -0.98,-0.938 0,-0.525 0.43,-0.937 0.98,-0.937 z m 3.93,0 v 0 c 0.55,0 0.98,0.412 0.98,0.937 0,0.525 -0.43,0.938 -0.98,0.938 v 0 c -0.55,0 -0.98,-0.413 -0.98,-0.938 0,-0.525 0.43,-0.937 0.98,-0.937 z m 3.92,0 v 0 c 0.55,0 0.99,0.412 0.99,0.937 0,0.525 -0.44,0.938 -0.99,0.938 v 0 c -0.55,0 -0.98,-0.413 -0.98,-0.938 0,-0.525 0.43,-0.937 0.98,-0.937 z m -126.97,8.437 -15.7,-7.5 15.7,-7.5 z m 125.6,-15 15.7,7.5 -15.7,7.5 z"
       stroke="#000000"
       stroke-width="0.6875"
       stroke-linejoin="bevel"
       stroke-miterlimit="10"
       fill-rule="evenodd"
       id="path88" /><text
       font-family="'Times New Roman', 'Times New Roman_MSFontService', sans-serif"
       font-weight="400"
       font-size="32px"
       id="text88"
       x="1121.7101"
       y="714">DLAG</text><path
       d="m 1237.63,728.1 v 0 c 0.55,0 0.94,0.375 0.94,0.9 0,0.525 -0.39,0.975 -0.94,0.975 v 0 c -0.55,0 -1.02,-0.45 -1.02,-0.975 0,-0.525 0.47,-0.9 1.02,-0.9 z m 3.93,0 v 0 c 0.55,0 1.02,0.375 1.02,0.9 0,0.525 -0.47,0.975 -1.02,0.975 v 0 c -0.55,0 -1.02,-0.45 -1.02,-0.975 0,-0.525 0.47,-0.9 1.02,-0.9 z m 3.93,0 v 0 c 0.55,0 1.02,0.375 1.02,0.9 0,0.525 -0.47,0.975 -1.02,0.975 v 0 c -0.55,0 -0.94,-0.45 -0.94,-0.975 0,-0.525 0.39,-0.9 0.94,-0.9 z m 3.93,0 v 0 c 0.55,0 1.03,0.375 1.03,0.9 0,0.525 -0.48,0.975 -1.03,0.975 v 0 c -0.55,0 -0.94,-0.45 -0.94,-0.975 0,-0.525 0.39,-0.9 0.94,-0.9 z m 3.94,0 v 0 c 0.55,0 1.02,0.375 1.02,0.9 0,0.525 -0.47,0.975 -1.02,0.975 v 0 c -0.56,0 -0.95,-0.45 -0.95,-0.975 0,-0.525 0.39,-0.9 0.95,-0.9 z m 3.93,0 v 0 c 0.55,0 1.02,0.375 1.02,0.9 0,0.525 -0.47,0.975 -1.02,0.975 v 0 c -0.55,0 -0.95,-0.45 -0.95,-0.975 0,-0.525 0.4,-0.9 0.95,-0.9 z m 3.93,0 v 0 c 0.55,0 1.02,0.375 1.02,0.9 0,0.525 -0.47,0.975 -1.02,0.975 v 0 c -0.55,0 -0.95,-0.45 -0.95,-0.975 0,-0.525 0.4,-0.9 0.95,-0.9 z m 3.93,0 v 0 c 0.55,0 1.02,0.375 1.02,0.9 0,0.525 -0.47,0.975 -1.02,0.975 v 0 c -0.55,0 -0.94,-0.45 -0.94,-0.975 0,-0.525 0.39,-0.9 0.94,-0.9 z m 3.93,0 v 0 c 0.55,0 1.02,0.375 1.02,0.9 0,0.525 -0.47,0.975 -1.02,0.975 v 0 c -0.55,0 -0.94,-0.45 -0.94,-0.975 0,-0.525 0.39,-0.9 0.94,-0.9 z m 3.93,0 v 0 c 0.55,0 1.02,0.375 1.02,0.9 0,0.525 -0.47,0.975 -1.02,0.975 v 0 c -0.55,0 -0.94,-0.45 -0.94,-0.975 0,-0.525 0.39,-0.9 0.94,-0.9 z m 3.93,0 v 0 c 0.55,0 1.02,0.375 1.02,0.9 0,0.525 -0.47,0.975 -1.02,0.975 v 0 c -0.55,0 -0.94,-0.45 -0.94,-0.975 0,-0.525 0.39,-0.9 0.94,-0.9 z m 3.93,0 v 0 c 0.55,0 1.03,0.375 1.03,0.9 0,0.525 -0.48,0.975 -1.03,0.975 v 0 c -0.55,0 -0.94,-0.45 -0.94,-0.975 0,-0.525 0.39,-0.9 0.94,-0.9 z m 3.94,0 v 0 c 0.55,0 1.02,0.375 1.02,0.9 0,0.525 -0.47,0.975 -1.02,0.975 v 0 c -0.56,0 -0.95,-0.45 -0.95,-0.975 0,-0.525 0.39,-0.9 0.95,-0.9 z m 3.93,0 v 0 c 0.55,0 1.02,0.375 1.02,0.9 0,0.525 -0.47,0.975 -1.02,0.975 v 0 c -0.55,0 -0.95,-0.45 -0.95,-0.975 0,-0.525 0.4,-0.9 0.95,-0.9 z m 3.93,0 v 0 c 0.55,0 1.02,0.375 1.02,0.9 0,0.525 -0.47,0.975 -1.02,0.975 v 0 c -0.55,0 -0.95,-0.45 -0.95,-0.975 0,-0.525 0.4,-0.9 0.95,-0.9 z m 3.93,0 v 0 c 0.55,0 1.02,0.375 1.02,0.9 0,0.525 -0.47,0.975 -1.02,0.975 v 0 c -0.55,0 -0.94,-0.45 -0.94,-0.975 0,-0.525 0.39,-0.9 0.94,-0.9 z m 3.93,0 v 0 c 0.55,0 1.02,0.375 1.02,0.9 0,0.525 -0.47,0.975 -1.02,0.975 v 0 c -0.55,0 -0.94,-0.45 -0.94,-0.975 0,-0.525 0.39,-0.9 0.94,-0.9 z m 3.93,0 v 0 c 0.55,0 1.02,0.375 1.02,0.9 0,0.525 -0.47,0.975 -1.02,0.975 v 0 c -0.55,0 -0.94,-0.45 -0.94,-0.975 0,-0.525 0.39,-0.9 0.94,-0.9 z m 3.93,0 v 0 c 0.55,0 1.02,0.375 1.02,0.9 0,0.525 -0.47,0.975 -1.02,0.975 v 0 c -0.55,0 -0.94,-0.45 -0.94,-0.975 0,-0.525 0.39,-0.9 0.94,-0.9 z m 3.93,0 v 0 c 0.55,0 1.03,0.375 1.03,0.9 0,0.525 -0.48,0.975 -1.03,0.975 v 0 c -0.47,0 -0.94,-0.45 -0.94,-0.975 0,-0.525 0.47,-0.9 0.94,-0.9 z m 3.94,0 v 0 c 0.55,0 1.02,0.375 1.02,0.9 0,0.525 -0.47,0.975 -1.02,0.975 v 0 c -0.48,0 -0.95,-0.45 -0.95,-0.975 0,-0.525 0.47,-0.9 0.95,-0.9 z m 3.93,0 v 0 c 0.55,0 1.02,0.375 1.02,0.9 0,0.525 -0.47,0.975 -1.02,0.975 v 0 c -0.48,0 -0.95,-0.45 -0.95,-0.975 0,-0.525 0.47,-0.9 0.95,-0.9 z m 3.93,0 h 0.08 c 0.47,0 0.94,0.375 0.94,0.9 0,0.525 -0.47,0.975 -0.94,0.975 h -0.08 c -0.47,0 -0.95,-0.45 -0.95,-0.975 0,-0.525 0.48,-0.9 0.95,-0.9 z m 4.01,0 v 0 c 0.47,0 0.94,0.375 0.94,0.9 0,0.525 -0.47,0.975 -0.94,0.975 v 0 c -0.55,0 -1.02,-0.45 -1.02,-0.975 0,-0.525 0.47,-0.9 1.02,-0.9 z m 3.93,0 v 0 c 0.47,0 0.94,0.375 0.94,0.9 0,0.525 -0.47,0.975 -0.94,0.975 v 0 c -0.55,0 -1.02,-0.45 -1.02,-0.975 0,-0.525 0.47,-0.9 1.02,-0.9 z m 3.93,0 v 0 c 0.47,0 0.94,0.375 0.94,0.9 0,0.525 -0.47,0.975 -0.94,0.975 v 0 c -0.55,0 -1.02,-0.45 -1.02,-0.975 0,-0.525 0.47,-0.9 1.02,-0.9 z m 3.93,0 v 0 c 0.55,0 0.94,0.375 0.94,0.9 0,0.525 -0.39,0.975 -0.94,0.975 v 0 c -0.55,0 -1.02,-0.45 -1.02,-0.975 0,-0.525 0.47,-0.9 1.02,-0.9 z m 3.93,0 v 0 c 0.55,0 0.95,0.375 0.95,0.9 0,0.525 -0.4,0.975 -0.95,0.975 v 0 c -0.55,0 -1.02,-0.45 -1.02,-0.975 0,-0.525 0.47,-0.9 1.02,-0.9 z m 3.93,0 v 0 c 0.55,0 0.95,0.375 0.95,0.9 0,0.525 -0.4,0.975 -0.95,0.975 v 0 c -0.55,0 -1.02,-0.45 -1.02,-0.975 0,-0.525 0.47,-0.9 1.02,-0.9 z m 3.93,0 v 0 c 0.56,0 0.95,0.375 0.95,0.9 0,0.525 -0.39,0.975 -0.95,0.975 v 0 c -0.55,0 -1.02,-0.45 -1.02,-0.975 0,-0.525 0.47,-0.9 1.02,-0.9 z m 3.94,0 v 0 c 0.55,0 0.94,0.375 0.94,0.9 0,0.525 -0.39,0.975 -0.94,0.975 v 0 c -0.55,0 -1.03,-0.45 -1.03,-0.975 0,-0.525 0.48,-0.9 1.03,-0.9 z m 3.93,0 v 0 c 0.55,0 0.94,0.375 0.94,0.9 0,0.525 -0.39,0.975 -0.94,0.975 v 0 c -0.55,0 -1.02,-0.45 -1.02,-0.975 0,-0.525 0.47,-0.9 1.02,-0.9 z m 3.93,0 v 0 c 0.55,0 0.94,0.375 0.94,0.9 0,0.525 -0.39,0.975 -0.94,0.975 v 0 c -0.55,0 -1.02,-0.45 -1.02,-0.975 0,-0.525 0.47,-0.9 1.02,-0.9 z m 3.93,0 v 0 c 0.55,0 0.94,0.375 0.94,0.9 0,0.525 -0.39,0.975 -0.94,0.975 v 0 c -0.55,0 -1.02,-0.45 -1.02,-0.975 0,-0.525 0.47,-0.9 1.02,-0.9 z m 3.93,0 v 0 c 0.55,0 0.94,0.375 0.94,0.9 0,0.525 -0.39,0.975 -0.94,0.975 v 0 c -0.55,0 -1.02,-0.45 -1.02,-0.975 0,-0.525 0.47,-0.9 1.02,-0.9 z m 3.93,0 v 0 c 0.55,0 0.95,0.375 0.95,0.9 0,0.525 -0.4,0.975 -0.95,0.975 v 0 c -0.55,0 -1.02,-0.45 -1.02,-0.975 0,-0.525 0.47,-0.9 1.02,-0.9 z m 3.93,0 v 0 c 0.55,0 0.95,0.375 0.95,0.9 0,0.525 -0.4,0.975 -0.95,0.975 v 0 c -0.55,0 -1.02,-0.45 -1.02,-0.975 0,-0.525 0.47,-0.9 1.02,-0.9 z m 3.93,0 v 0 c 0.56,0 0.95,0.375 0.95,0.9 0,0.525 -0.39,0.975 -0.95,0.975 v 0 c -0.55,0 -1.02,-0.45 -1.02,-0.975 0,-0.525 0.47,-0.9 1.02,-0.9 z m 3.94,0 v 0 c 0.55,0 0.94,0.375 0.94,0.9 0,0.525 -0.39,0.975 -0.94,0.975 v 0 c -0.55,0 -1.03,-0.45 -1.03,-0.975 0,-0.525 0.48,-0.9 1.03,-0.9 z m 3.93,0 v 0 c 0.55,0 0.94,0.375 0.94,0.9 0,0.525 -0.39,0.975 -0.94,0.975 v 0 c -0.55,0 -1.02,-0.45 -1.02,-0.975 0,-0.525 0.47,-0.9 1.02,-0.9 z m 3.93,0 v 0 c 0.55,0 0.94,0.375 0.94,0.9 0,0.525 -0.39,0.975 -0.94,0.975 v 0 c -0.55,0 -1.02,-0.45 -1.02,-0.975 0,-0.525 0.47,-0.9 1.02,-0.9 z m 3.93,0 v 0 c 0.55,0 0.94,0.375 0.94,0.9 0,0.525 -0.39,0.975 -0.94,0.975 v 0 c -0.55,0 -1.02,-0.45 -1.02,-0.975 0,-0.525 0.47,-0.9 1.02,-0.9 z m 3.93,0 v 0 c 0.55,0 1.02,0.375 1.02,0.9 0,0.525 -0.47,0.975 -1.02,0.975 v 0 c -0.55,0 -1.02,-0.45 -1.02,-0.975 0,-0.525 0.47,-0.9 1.02,-0.9 z m 3.93,0 v 0 c 0.55,0 1.02,0.375 1.02,0.9 0,0.525 -0.47,0.975 -1.02,0.975 v 0 c -0.55,0 -0.94,-0.45 -0.94,-0.975 0,-0.525 0.39,-0.9 0.94,-0.9 z m 3.93,0 v 0 c 0.55,0 1.03,0.375 1.03,0.9 0,0.525 -0.48,0.975 -1.03,0.975 v 0 c -0.55,0 -0.94,-0.45 -0.94,-0.975 0,-0.525 0.39,-0.9 0.94,-0.9 z m 3.93,0 v 0 c 0.56,0 1.03,0.375 1.03,0.9 0,0.525 -0.47,0.975 -1.03,0.975 v 0 c -0.55,0 -0.94,-0.45 -0.94,-0.975 0,-0.525 0.39,-0.9 0.94,-0.9 z m 3.94,0 v 0 c 0.55,0 1.02,0.375 1.02,0.9 0,0.525 -0.47,0.975 -1.02,0.975 v 0 c -0.55,0 -0.95,-0.45 -0.95,-0.975 0,-0.525 0.4,-0.9 0.95,-0.9 z m 3.93,0 v 0 c 0.55,0 1.02,0.375 1.02,0.9 0,0.525 -0.47,0.975 -1.02,0.975 v 0 c -0.55,0 -0.95,-0.45 -0.95,-0.975 0,-0.525 0.4,-0.9 0.95,-0.9 z m 3.93,0 v 0 c 0.55,0 1.02,0.375 1.02,0.9 0,0.525 -0.47,0.975 -1.02,0.975 v 0 c -0.55,0 -0.94,-0.45 -0.94,-0.975 0,-0.525 0.39,-0.9 0.94,-0.9 z m 3.93,0 v 0 c 0.55,0 1.02,0.375 1.02,0.9 0,0.525 -0.47,0.975 -1.02,0.975 v 0 c -0.55,0 -0.94,-0.45 -0.94,-0.975 0,-0.525 0.39,-0.9 0.94,-0.9 z m 3.93,0 v 0 c 0.55,0 1.02,0.375 1.02,0.9 0,0.525 -0.47,0.975 -1.02,0.975 v 0 c -0.55,0 -0.94,-0.45 -0.94,-0.975 0,-0.525 0.39,-0.9 0.94,-0.9 z m 3.93,0 v 0 c 0.55,0 1.02,0.375 1.02,0.9 0,0.525 -0.47,0.975 -1.02,0.975 v 0 c -0.55,0 -0.94,-0.45 -0.94,-0.975 0,-0.525 0.39,-0.9 0.94,-0.9 z m 3.93,0 v 0 c 0.55,0 1.03,0.375 1.03,0.9 0,0.525 -0.48,0.975 -1.03,0.975 v 0 c -0.55,0 -0.94,-0.45 -0.94,-0.975 0,-0.525 0.39,-0.9 0.94,-0.9 z m -201.91,8.4 -15.72,-7.5 15.72,-7.5 z m 199.55,-15 15.73,7.5 -15.73,7.5 z"
       stroke="#000000"
       stroke-width="0.6875"
       stroke-linejoin="bevel"
       stroke-miterlimit="10"
       fill-rule="evenodd"
       id="path89" /><text
       font-family="'Times New Roman', 'Times New Roman_MSFontService', sans-serif"
       font-weight="400"
       font-size="32px"
       id="text89"
       x="1304.1201"
       y="714">DLIFE</text><path
       d="m 1067,760 188.15,2.75"
       stroke="#000000"
       stroke-width="2.0625"
       stroke-linecap="round"
       stroke-linejoin="round"
       stroke-miterlimit="10"
       fill="none"
       fill-rule="evenodd"
       id="path90" /><path
       d="m 1225.5,866.475 v 5.851 c 0,0.546 -0.44,0.975 -1,0.975 -0.56,0 -1,-0.429 -1,-0.975 v -5.851 c 0,-0.546 0.44,-0.975 1,-0.975 0.56,0 1,0.429 1,0.975 z m 0,13.651 v 5.85 c 0,0.546 -0.44,0.975 -1,0.975 -0.56,0 -1,-0.429 -1,-0.975 v -5.85 c 0,-0.546 0.44,-0.975 1,-0.975 0.56,0 1,0.429 1,0.975 z m 0,13.651 v 5.85 c 0,0.546 -0.44,0.975 -1,0.975 -0.56,0 -1,-0.429 -1,-0.975 v -5.85 c 0,-0.546 0.44,-0.975 1,-0.975 0.56,0 1,0.429 1,0.975 z m 0,13.651 v 5.85 c 0,0.546 -0.44,0.975 -1,0.975 -0.56,0 -1,-0.429 -1,-0.975 v -5.85 c 0,-0.546 0.44,-0.975 1,-0.975 0.56,0 1,0.429 1,0.975 z m 0,13.651 v 5.85 c 0,0.546 -0.44,0.975 -1,0.975 -0.56,0 -1,-0.429 -1,-0.975 v -5.85 c 0,-0.547 0.44,-0.976 1,-0.976 0.56,0 1,0.429 1,0.976 z m 0,13.65 v 5.851 c 0,0.546 -0.44,0.975 -1,0.975 -0.56,0 -1,-0.429 -1,-0.975 v -5.851 c 0,-0.546 0.44,-0.975 1,-0.975 0.56,0 1,0.429 1,0.975 z m 0,13.651 v 5.851 c 0,0.546 -0.44,0.975 -1,0.975 -0.56,0 -1,-0.429 -1,-0.975 v -5.851 c 0,-0.546 0.44,-0.975 1,-0.975 0.56,0 1,0.429 1,0.975 z m 0,13.651 v 5.85 c 0,0.546 -0.44,0.976 -1,0.976 -0.56,0 -1,-0.43 -1,-0.976 v -5.85 c 0,-0.546 0.44,-0.975 1,-0.975 0.56,0 1,0.429 1,0.975 z m 0,13.651 v 5.85 c 0,0.546 -0.44,0.975 -1,0.975 -0.56,0 -1,-0.429 -1,-0.975 v -5.85 c 0,-0.546 0.44,-0.975 1,-0.975 0.56,0 1,0.429 1,0.975 z m 0,13.651 v 5.85 c 0,0.546 -0.44,0.975 -1,0.975 -0.56,0 -1,-0.429 -1,-0.975 v -5.85 c 0,-0.546 0.44,-0.975 1,-0.975 0.56,0 1,0.429 1,0.975 z m 0,13.647 v 5.85 c 0,0.55 -0.44,0.98 -1,0.98 -0.56,0 -1,-0.43 -1,-0.98 v -5.85 c 0,-0.54 0.44,-0.97 1,-0.97 0.56,0 1,0.43 1,0.97 z m 0,13.65 v 5.85 c 0,0.55 -0.44,0.98 -1,0.98 -0.56,0 -1,-0.43 -1,-0.98 v -5.85 c 0,-0.54 0.44,-0.97 1,-0.97 0.56,0 1,0.43 1,0.97 z m 0,13.66 v 5.85 c 0,0.54 -0.44,0.97 -1,0.97 -0.56,0 -1,-0.43 -1,-0.97 v -5.85 c 0,-0.55 0.44,-0.98 1,-0.98 0.56,0 1,0.43 1,0.98 z m 0,13.65 v 5.85 c 0,0.54 -0.44,0.97 -1,0.97 -0.56,0 -1,-0.43 -1,-0.97 v -5.85 c 0,-0.55 0.44,-0.98 1,-0.98 0.56,0 1,0.43 1,0.98 z m 0,13.65 v 5.85 c 0,0.54 -0.44,0.97 -1,0.97 -0.56,0 -1,-0.43 -1,-0.97 v -5.85 c 0,-0.55 0.44,-0.98 1,-0.98 0.56,0 1,0.43 1,0.98 z m 0,13.65 v 1.28 c 0,0.55 -0.44,0.98 -1,0.98 -0.56,0 -1,-0.43 -1,-0.98 v -1.28 c 0,-0.55 0.44,-0.98 1,-0.98 0.56,0 1,0.43 1,0.98 z"
       stroke="#000000"
       stroke-width="0.6875"
       stroke-linejoin="bevel"
       stroke-miterlimit="10"
       fill-rule="evenodd"
       id="path91" /><rect
       x="1583.0131"
       y="396.013"
       width="78.974487"
       height="103.97348"
       stroke="#000000"
       stroke-width="2.08852"
       stroke-linecap="round"
       stroke-miterlimit="8"
       fill="none"
       id="rect92"
       style="fill:url(#pattern115);fill-opacity:1" /><rect
       x="1583.0179"
       y="210.04919"
       width="78.964607"
       height="103.96361"
       stroke="#000000"
       stroke-width="2.09839"
       stroke-linecap="round"
       stroke-miterlimit="8"
       fill="none"
       id="rect94"
       style="fill:url(#pattern107);fill-opacity:1" /></g></svg>
