<?xml version="1.0" encoding="UTF-8" standalone="no"?>
<svg
   width="1765.6735"
   height="751.49121"
   xml:space="preserve"
   overflow="hidden"
   version="1.1"
   id="svg77"
   xmlns:xlink="http://www.w3.org/1999/xlink"
   xmlns="http://www.w3.org/2000/svg"
   xmlns:svg="http://www.w3.org/2000/svg"><defs
     id="defs77"><pattern
       xlink:href="#Checkerboard"
       preserveAspectRatio="xMidYMid"
       id="pattern114"
       patternTransform="scale(5)"
       x="0"
       y="0" /><pattern
       xlink:href="#Checkerboard"
       preserveAspectRatio="xMidYMid"
       id="pattern113"
       patternTransform="scale(5)"
       x="0"
       y="0" /><pattern
       xlink:href="#Checkerboard"
       preserveAspectRatio="xMidYMid"
       id="pattern112"
       patternTransform="scale(5)"
       x="0"
       y="0" /><pattern
       xlink:href="#Checkerboard"
       preserveAspectRatio="xMidYMid"
       id="pattern111"
       patternTransform="scale(5)"
       x="0"
       y="0" /><pattern
       xlink:href="#Checkerboard"
       preserveAspectRatio="xMidYMid"
       id="pattern109"
       patternTransform="scale(5)"
       x="0"
       y="0" /><pattern
       xlink:href="#Checkerboard"
       preserveAspectRatio="xMidYMid"
       id="pattern108"
       patternTransform="scale(5)"
       x="0"
       y="0" /><pattern
       xlink:href="#Checkerboard"
       preserveAspectRatio="xMidYMid"
       id="pattern107"
       patternTransform="scale(5)"
       x="0"
       y="0" /><pattern
       xlink:href="#Checkerboard"
       preserveAspectRatio="xMidYMid"
       id="pattern106"
       patternTransform="scale(5)"
       x="0"
       y="0" /><pattern
       xlink:href="#Checkerboard"
       preserveAspectRatio="xMidYMid"
       id="pattern103"
       patternTransform="scale(5)"
       x="0"
       y="0" /><pattern
       xlink:href="#Checkerboard"
       preserveAspectRatio="xMidYMid"
       id="pattern102"
       patternTransform="scale(5)"
       x="0"
       y="0" /><pattern
       xlink:href="#pattern98"
       preserveAspectRatio="xMidYMid"
       id="pattern101"
       patternTransform="scale(5)"
       x="0"
       y="0" /><pattern
       xlink:href="#pattern98"
       preserveAspectRatio="xMidYMid"
       id="pattern100"
       patternTransform="scale(5)"
       x="0"
       y="0" /><pattern
       xlink:href="#pattern98"
       preserveAspectRatio="xMidYMid"
       id="pattern99"
       patternTransform="scale(5)"
       x="0"
       y="0" /><pattern
       style="fill:#000000"
       patternUnits="userSpaceOnUse"
       width="2"
       height="2"
       patternTransform="translate(0,0) scale(10,10)"
       id="pattern98"
       preserveAspectRatio="xMidYMid">
      <rect
   style="stroke:none"
   x="0"
   y="0"
   width="1"
   height="1"
   id="rect97" />
      <rect
   style="stroke:none"
   x="1"
   y="1"
   width="1"
   height="1"
   id="rect98" />
    </pattern><pattern
       xlink:href="#Checkerboard"
       preserveAspectRatio="xMidYMid"
       id="pattern96"
       patternTransform="scale(5)"
       x="0"
       y="0" /><pattern
       xlink:href="#Checkerboard"
       preserveAspectRatio="xMidYMid"
       id="pattern95"
       patternTransform="scale(5)"
       x="0"
       y="0" /><pattern
       xlink:href="#Checkerboard"
       preserveAspectRatio="xMidYMid"
       id="pattern93"
       patternTransform="scale(5)"
       x="0"
       y="0" /><pattern
       xlink:href="#Strips1_1.5"
       preserveAspectRatio="xMidYMid"
       id="pattern91"
       patternTransform="matrix(3.5355339,3.5355339,-3.5355339,3.5355339,0,0)"
       x="0"
       y="0" /><pattern
       xlink:href="#Strips1_1.5"
       preserveAspectRatio="xMidYMid"
       id="pattern90"
       patternTransform="matrix(3.5355339,3.5355339,-3.5355339,3.5355339,0,0)"
       x="0"
       y="0" /><pattern
       xlink:href="#Strips1_1.5"
       preserveAspectRatio="xMidYMid"
       id="pattern89"
       patternTransform="matrix(3.5355339,3.5355339,-3.5355339,3.5355339,0,0)"
       x="0"
       y="0" /><pattern
       xlink:href="#Strips1_1.5"
       preserveAspectRatio="xMidYMid"
       id="pattern88"
       patternTransform="matrix(3.5355339,3.5355339,-3.5355339,3.5355339,0,0)"
       x="0"
       y="0" /><pattern
       xlink:href="#Strips1_1.5"
       preserveAspectRatio="xMidYMid"
       id="pattern87"
       patternTransform="matrix(3.5355339,3.5355339,-3.5355339,3.5355339,0,0)"
       x="0"
       y="0" /><pattern
       xlink:href="#Strips1_1.5"
       preserveAspectRatio="xMidYMid"
       id="pattern86"
       patternTransform="matrix(3.5355339,3.5355339,-3.5355339,3.5355339,0,0)"
       x="0"
       y="0" /><pattern
       xlink:href="#Strips1_1.5"
       preserveAspectRatio="xMidYMid"
       id="pattern85"
       patternTransform="matrix(3.5355339,3.5355339,-3.5355339,3.5355339,0,0)"
       x="0"
       y="0" /><pattern
       xlink:href="#Strips1_1.5"
       preserveAspectRatio="xMidYMid"
       id="pattern84"
       patternTransform="matrix(3.5355339,3.5355339,-3.5355339,3.5355339,0,0)"
       x="0"
       y="0" /><pattern
       xlink:href="#Checkerboard"
       preserveAspectRatio="xMidYMid"
       id="pattern83"
       patternTransform="scale(5)"
       x="0"
       y="0" /><pattern
       style="fill:#000000"
       patternUnits="userSpaceOnUse"
       width="2"
       height="2"
       patternTransform="translate(0,0) scale(10,10)"
       id="Checkerboard"
       preserveAspectRatio="xMidYMid">
      <rect
   style="stroke:none"
   x="0"
   y="0"
   width="1"
   height="1"
   id="rect209" />
      <rect
   style="stroke:none"
   x="1"
   y="1"
   width="1"
   height="1"
   id="rect211" />
    </pattern><pattern
       xlink:href="#Strips1_1.5"
       preserveAspectRatio="xMidYMid"
       id="pattern81"
       patternTransform="matrix(3.5355339,3.5355339,-3.5355339,3.5355339,0,0)"
       x="0"
       y="0" /><pattern
       patternUnits="userSpaceOnUse"
       width="2.5"
       height="1"
       patternTransform="translate(0,0) scale(2,2)"
       preserveAspectRatio="xMidYMid"
       id="Strips1_1.5"
       style="fill:#000000">
      <rect
   style="stroke:none"
   x="0"
   y="-0.5"
   width="1"
   height="2"
   id="rect140" />
    </pattern></defs><g
     id="g77"
     transform="translate(-211.20272,-183.85174)"><rect
       x="211.95546"
       y="184.60448"
       width="1764.168"
       height="749.98572"
       stroke="#000000"
       stroke-width="1.50548"
       stroke-miterlimit="8"
       fill="none"
       id="rect1" /><path
       d="M 487,828 H 1696.08"
       stroke="#000000"
       stroke-width="4.125"
       stroke-linejoin="round"
       stroke-miterlimit="10"
       fill="none"
       fill-rule="evenodd"
       id="path2" /><rect
       x="638.5"
       y="743.5"
       width="84.000198"
       height="84.999901"
       stroke="#000000"
       stroke-width="3.4375"
       stroke-linecap="round"
       stroke-miterlimit="8"
       fill="none"
       id="rect4"
       style="fill:url(#pattern91);fill-opacity:1" /><rect
       x="722.5"
       y="743.5"
       width="83.999901"
       height="84.999901"
       stroke="#000000"
       stroke-width="3.4375"
       stroke-linecap="round"
       stroke-miterlimit="8"
       fill="none"
       id="rect6"
       style="fill:url(#pattern99);fill-opacity:1" /><rect
       x="806.5"
       y="743.5"
       width="84.000198"
       height="84.999901"
       stroke="#000000"
       stroke-width="3.4375"
       stroke-linecap="round"
       stroke-miterlimit="8"
       fill="none"
       id="rect8"
       style="fill:url(#pattern103);fill-opacity:1" /><rect
       x="722.5"
       y="659.5"
       width="83.999901"
       height="83.999901"
       stroke="#000000"
       stroke-width="3.4375"
       stroke-linecap="round"
       stroke-miterlimit="8"
       fill="none"
       id="rect10"
       style="fill:url(#pattern90);fill-opacity:1" /><rect
       x="806.5"
       y="659.5"
       width="84.000198"
       height="83.999901"
       stroke="#000000"
       stroke-width="3.4375"
       stroke-linecap="round"
       stroke-miterlimit="8"
       fill="none"
       id="rect11" /><rect
       x="890.5"
       y="659.5"
       width="83.999901"
       height="83.999901"
       stroke="#000000"
       stroke-width="3.4375"
       stroke-linecap="round"
       stroke-miterlimit="8"
       fill="none"
       id="rect13"
       style="fill:url(#pattern102);fill-opacity:1" /><rect
       x="806.5"
       y="574.5"
       width="84.000198"
       height="85.000198"
       stroke="#000000"
       stroke-width="3.4375"
       stroke-linecap="round"
       stroke-miterlimit="8"
       fill="none"
       id="rect15"
       style="fill:url(#pattern89);fill-opacity:1" /><rect
       x="890.5"
       y="574.5"
       width="83.999901"
       height="85.000198"
       stroke="#000000"
       stroke-width="3.4375"
       stroke-linecap="round"
       stroke-miterlimit="8"
       fill="none"
       id="rect17"
       style="fill:url(#pattern95);fill-opacity:1" /><rect
       x="974.5"
       y="574.5"
       width="83.999802"
       height="85.000198"
       stroke="#000000"
       stroke-width="3.4375"
       stroke-linecap="round"
       stroke-miterlimit="8"
       fill="none"
       id="rect19"
       style="fill:url(#pattern101);fill-opacity:1" /><rect
       x="890.5"
       y="490.5"
       width="83.999901"
       height="83.999802"
       stroke="#000000"
       stroke-width="3.4375"
       stroke-linecap="round"
       stroke-miterlimit="8"
       fill="none"
       id="rect21"
       style="fill:url(#pattern84);fill-opacity:1" /><rect
       x="974.5"
       y="490.5"
       width="83.999802"
       height="83.999802"
       stroke="#000000"
       stroke-width="3.4375"
       stroke-linecap="round"
       stroke-miterlimit="8"
       fill="none"
       id="rect23"
       style="fill:url(#pattern93);fill-opacity:1" /><rect
       x="1058.5"
       y="490.5"
       width="84.000198"
       height="83.999802"
       stroke="#000000"
       stroke-width="3.4375"
       stroke-linecap="round"
       stroke-miterlimit="8"
       fill="none"
       id="rect25"
       style="fill:url(#pattern100);fill-opacity:1" /><path
       d="M 0,0 3.60892e-4,608.208"
       stroke="#000000"
       stroke-width="4.125"
       stroke-linejoin="round"
       stroke-miterlimit="10"
       fill="none"
       fill-rule="evenodd"
       transform="matrix(1,0,0,-1,806,878.208)"
       id="path25" /><path
       d="M 1226,289 V 897.208"
       stroke="#000000"
       stroke-width="4.125"
       stroke-linejoin="round"
       stroke-miterlimit="10"
       fill="none"
       fill-rule="evenodd"
       id="path26" /><path
       d="m 814.9,293.25 v 0 c 1.05,0 1.68,0.875 1.68,1.75 0,1.094 -0.63,1.75 -1.68,1.75 v 0 c -0.84,0 -1.68,-0.656 -1.68,-1.75 0,-0.875 0.84,-1.75 1.68,-1.75 z m 6.72,0 h 0.21 c 0.84,0 1.68,0.875 1.68,1.75 0,1.094 -0.84,1.75 -1.68,1.75 h -0.21 c -0.84,0 -1.68,-0.656 -1.68,-1.75 0,-0.875 0.84,-1.75 1.68,-1.75 z m 6.93,0 v 0 c 0.84,0 1.68,0.875 1.68,1.75 0,1.094 -0.84,1.75 -1.68,1.75 v 0 c -1.05,0 -1.68,-0.656 -1.68,-1.75 0,-0.875 0.63,-1.75 1.68,-1.75 z m 6.72,0 v 0 c 0.84,0 1.68,0.875 1.68,1.75 0,1.094 -0.84,1.75 -1.68,1.75 v 0 c -1.05,0 -1.68,-0.656 -1.68,-1.75 0,-0.875 0.63,-1.75 1.68,-1.75 z m 6.72,0 v 0 c 0.84,0 1.68,0.875 1.68,1.75 0,1.094 -0.84,1.75 -1.68,1.75 v 0 c -1.05,0 -1.68,-0.656 -1.68,-1.75 0,-0.875 0.63,-1.75 1.68,-1.75 z m 6.72,0 v 0 c 0.84,0 1.68,0.875 1.68,1.75 0,1.094 -0.84,1.75 -1.68,1.75 v 0 c -1.05,0 -1.68,-0.656 -1.68,-1.75 0,-0.875 0.63,-1.75 1.68,-1.75 z m 6.72,0 v 0 c 0.84,0 1.68,0.875 1.68,1.75 0,1.094 -0.84,1.75 -1.68,1.75 v 0 c -1.05,0 -1.68,-0.656 -1.68,-1.75 0,-0.875 0.63,-1.75 1.68,-1.75 z m 6.72,0 v 0 c 0.84,0 1.68,0.875 1.68,1.75 0,1.094 -0.84,1.75 -1.68,1.75 v 0 c -1.05,0 -1.68,-0.656 -1.68,-1.75 0,-0.875 0.63,-1.75 1.68,-1.75 z m 6.72,0 v 0 c 0.84,0 1.68,0.875 1.68,1.75 0,1.094 -0.84,1.75 -1.68,1.75 v 0 c -1.05,0 -1.68,-0.656 -1.68,-1.75 0,-0.875 0.63,-1.75 1.68,-1.75 z m 6.72,0 v 0 c 0.84,0 1.68,0.875 1.68,1.75 0,1.094 -0.84,1.75 -1.68,1.75 v 0 c -1.05,0 -1.68,-0.656 -1.68,-1.75 0,-0.875 0.63,-1.75 1.68,-1.75 z m 6.72,0 v 0 c 0.84,0 1.68,0.875 1.68,1.75 0,1.094 -0.84,1.75 -1.68,1.75 v 0 c -1.05,0 -1.68,-0.656 -1.68,-1.75 0,-0.875 0.63,-1.75 1.68,-1.75 z m 6.72,0 v 0 c 0.84,0 1.68,0.875 1.68,1.75 0,1.094 -0.84,1.75 -1.68,1.75 v 0 c -1.05,0 -1.68,-0.656 -1.68,-1.75 0,-0.875 0.63,-1.75 1.68,-1.75 z m 6.72,0 v 0 c 0.84,0 1.68,0.875 1.68,1.75 0,1.094 -0.84,1.75 -1.68,1.75 v 0 c -1.05,0 -1.68,-0.656 -1.68,-1.75 0,-0.875 0.63,-1.75 1.68,-1.75 z m 6.72,0 v 0 c 0.84,0 1.68,0.875 1.68,1.75 0,1.094 -0.84,1.75 -1.68,1.75 v 0 c -1.05,0 -1.68,-0.656 -1.68,-1.75 0,-0.875 0.63,-1.75 1.68,-1.75 z m 6.72,0 v 0 c 0.84,0 1.68,0.875 1.68,1.75 0,1.094 -0.84,1.75 -1.68,1.75 v 0 c -1.05,0 -1.68,-0.656 -1.68,-1.75 0,-0.875 0.63,-1.75 1.68,-1.75 z m 6.72,0 v 0 c 0.84,0 1.68,0.875 1.68,1.75 0,1.094 -0.84,1.75 -1.68,1.75 v 0 c -1.05,0 -1.68,-0.656 -1.68,-1.75 0,-0.875 0.63,-1.75 1.68,-1.75 z m 6.72,0 v 0 c 0.84,0 1.68,0.875 1.68,1.75 0,1.094 -0.84,1.75 -1.68,1.75 v 0 c -1.05,0 -1.68,-0.656 -1.68,-1.75 0,-0.875 0.63,-1.75 1.68,-1.75 z m 6.72,0 v 0 c 0.84,0 1.68,0.875 1.68,1.75 0,1.094 -0.84,1.75 -1.68,1.75 v 0 c -1.05,0 -1.68,-0.656 -1.68,-1.75 0,-0.875 0.63,-1.75 1.68,-1.75 z m 6.72,0 v 0 c 0.84,0 1.68,0.875 1.68,1.75 0,1.094 -0.84,1.75 -1.68,1.75 v 0 c -1.05,0 -1.68,-0.656 -1.68,-1.75 0,-0.875 0.63,-1.75 1.68,-1.75 z m 6.72,0 v 0 c 0.84,0 1.68,0.875 1.68,1.75 0,1.094 -0.84,1.75 -1.68,1.75 v 0 c -1.05,0 -1.68,-0.656 -1.68,-1.75 0,-0.875 0.63,-1.75 1.68,-1.75 z m 6.72,0 v 0 c 0.84,0 1.68,0.875 1.68,1.75 0,1.094 -0.84,1.75 -1.68,1.75 v 0 c -1.05,0 -1.68,-0.656 -1.68,-1.75 0,-0.875 0.63,-1.75 1.68,-1.75 z m 6.72,0 v 0 c 0.84,0 1.68,0.875 1.68,1.75 0,1.094 -0.84,1.75 -1.68,1.75 v 0 c -1.05,0 -1.68,-0.656 -1.68,-1.75 0,-0.875 0.63,-1.75 1.68,-1.75 z m 6.72,0 v 0 c 0.84,0 1.68,0.875 1.68,1.75 0,1.094 -0.84,1.75 -1.68,1.75 v 0 c -1.05,0 -1.68,-0.656 -1.68,-1.75 0,-0.875 0.63,-1.75 1.68,-1.75 z m 6.72,0 v 0 c 0.84,0 1.68,0.875 1.68,1.75 0,1.094 -0.84,1.75 -1.68,1.75 v 0 c -1.05,0 -1.68,-0.656 -1.68,-1.75 0,-0.875 0.63,-1.75 1.68,-1.75 z m 6.72,0 v 0 c 0.84,0 1.68,0.875 1.68,1.75 0,1.094 -0.84,1.75 -1.68,1.75 v 0 c -1.05,0 -1.68,-0.656 -1.68,-1.75 0,-0.875 0.63,-1.75 1.68,-1.75 z m 6.72,0 v 0 c 0.84,0 1.68,0.875 1.68,1.75 0,1.094 -0.84,1.75 -1.68,1.75 v 0 c -1.05,0 -1.68,-0.656 -1.68,-1.75 0,-0.875 0.63,-1.75 1.68,-1.75 z m 6.72,0 v 0 c 0.84,0 1.68,0.875 1.68,1.75 0,1.094 -0.84,1.75 -1.68,1.75 v 0 c -1.05,0 -1.68,-0.656 -1.68,-1.75 0,-0.875 0.63,-1.75 1.68,-1.75 z m 6.72,0 v 0 c 0.84,0 1.68,0.875 1.68,1.75 0,1.094 -0.84,1.75 -1.68,1.75 v 0 c -1.05,0 -1.68,-0.656 -1.68,-1.75 0,-0.875 0.63,-1.75 1.68,-1.75 z m 6.72,0 v 0 c 0.84,0 1.68,0.875 1.68,1.75 0,1.094 -0.84,1.75 -1.68,1.75 v 0 c -1.05,0 -1.68,-0.656 -1.68,-1.75 0,-0.875 0.63,-1.75 1.68,-1.75 z m 6.72,0 v 0 c 0.84,0 1.68,0.875 1.68,1.75 0,1.094 -0.84,1.75 -1.68,1.75 v 0 c -0.84,0 -1.68,-0.656 -1.68,-1.75 0,-0.875 0.84,-1.75 1.68,-1.75 z m 6.72,0 v 0 c 0.84,0 1.68,0.875 1.68,1.75 0,1.094 -0.84,1.75 -1.68,1.75 v 0 c -0.84,0 -1.68,-0.656 -1.68,-1.75 0,-0.875 0.84,-1.75 1.68,-1.75 z m 6.72,0 v 0 c 0.84,0 1.68,0.875 1.68,1.75 0,1.094 -0.84,1.75 -1.68,1.75 v 0 c -0.84,0 -1.68,-0.656 -1.68,-1.75 0,-0.875 0.84,-1.75 1.68,-1.75 z m 6.72,0 v 0 c 0.84,0 1.68,0.875 1.68,1.75 0,1.094 -0.84,1.75 -1.68,1.75 v 0 c -0.84,0 -1.68,-0.656 -1.68,-1.75 0,-0.875 0.84,-1.75 1.68,-1.75 z m 6.72,0 v 0 c 0.84,0 1.68,0.875 1.68,1.75 0,1.094 -0.84,1.75 -1.68,1.75 v 0 c -0.84,0 -1.68,-0.656 -1.68,-1.75 0,-0.875 0.84,-1.75 1.68,-1.75 z m 6.72,0 v 0 c 0.84,0 1.68,0.875 1.68,1.75 0,1.094 -0.84,1.75 -1.68,1.75 v 0 c -0.84,0 -1.68,-0.656 -1.68,-1.75 0,-0.875 0.84,-1.75 1.68,-1.75 z m 6.72,0 v 0 c 0.84,0 1.68,0.875 1.68,1.75 0,1.094 -0.84,1.75 -1.68,1.75 v 0 c -0.84,0 -1.68,-0.656 -1.68,-1.75 0,-0.875 0.84,-1.75 1.68,-1.75 z m 6.72,0 v 0 c 0.84,0 1.68,0.875 1.68,1.75 0,1.094 -0.84,1.75 -1.68,1.75 v 0 c -0.84,0 -1.68,-0.656 -1.68,-1.75 0,-0.875 0.84,-1.75 1.68,-1.75 z m 6.72,0 v 0 c 0.84,0 1.68,0.875 1.68,1.75 0,1.094 -0.84,1.75 -1.68,1.75 v 0 c -0.84,0 -1.68,-0.656 -1.68,-1.75 0,-0.875 0.84,-1.75 1.68,-1.75 z m 6.72,0 v 0 c 1.05,0 1.68,0.875 1.68,1.75 0,1.094 -0.63,1.75 -1.68,1.75 v 0 c -0.84,0 -1.68,-0.656 -1.68,-1.75 0,-0.875 0.84,-1.75 1.68,-1.75 z m 6.72,0 v 0 c 1.05,0 1.68,0.875 1.68,1.75 0,1.094 -0.63,1.75 -1.68,1.75 v 0 c -0.84,0 -1.68,-0.656 -1.68,-1.75 0,-0.875 0.84,-1.75 1.68,-1.75 z m 6.72,0 v 0 c 1.05,0 1.68,0.875 1.68,1.75 0,1.094 -0.63,1.75 -1.68,1.75 v 0 c -0.84,0 -1.68,-0.656 -1.68,-1.75 0,-0.875 0.84,-1.75 1.68,-1.75 z m 6.72,0 v 0 c 1.05,0 1.68,0.875 1.68,1.75 0,1.094 -0.63,1.75 -1.68,1.75 v 0 c -0.84,0 -1.68,-0.656 -1.68,-1.75 0,-0.875 0.84,-1.75 1.68,-1.75 z m 6.72,0 v 0 c 1.05,0 1.68,0.875 1.68,1.75 0,1.094 -0.63,1.75 -1.68,1.75 v 0 c -0.84,0 -1.68,-0.656 -1.68,-1.75 0,-0.875 0.84,-1.75 1.68,-1.75 z m 6.72,0 v 0 c 1.05,0 1.68,0.875 1.68,1.75 0,1.094 -0.63,1.75 -1.68,1.75 v 0 c -0.84,0 -1.68,-0.656 -1.68,-1.75 0,-0.875 0.84,-1.75 1.68,-1.75 z m 6.72,0 v 0 c 1.05,0 1.68,0.875 1.68,1.75 0,1.094 -0.63,1.75 -1.68,1.75 v 0 c -0.84,0 -1.68,-0.656 -1.68,-1.75 0,-0.875 0.84,-1.75 1.68,-1.75 z m 6.72,0 v 0 c 1.05,0 1.68,0.875 1.68,1.75 0,1.094 -0.63,1.75 -1.68,1.75 v 0 c -0.84,0 -1.68,-0.656 -1.68,-1.75 0,-0.875 0.84,-1.75 1.68,-1.75 z m 6.72,0 v 0 c 1.05,0 1.68,0.875 1.68,1.75 0,1.094 -0.63,1.75 -1.68,1.75 v 0 c -0.84,0 -1.68,-0.656 -1.68,-1.75 0,-0.875 0.84,-1.75 1.68,-1.75 z m 6.72,0 v 0 c 1.05,0 1.68,0.875 1.68,1.75 0,1.094 -0.63,1.75 -1.68,1.75 v 0 c -0.84,0 -1.68,-0.656 -1.68,-1.75 0,-0.875 0.84,-1.75 1.68,-1.75 z m 6.72,0 v 0 c 1.05,0 1.68,0.875 1.68,1.75 0,1.094 -0.63,1.75 -1.68,1.75 v 0 c -0.84,0 -1.68,-0.656 -1.68,-1.75 0,-0.875 0.84,-1.75 1.68,-1.75 z m 6.72,0 v 0 c 1.05,0 1.68,0.875 1.68,1.75 0,1.094 -0.63,1.75 -1.68,1.75 v 0 c -0.84,0 -1.68,-0.656 -1.68,-1.75 0,-0.875 0.84,-1.75 1.68,-1.75 z m 6.72,0 v 0 c 1.05,0 1.68,0.875 1.68,1.75 0,1.094 -0.63,1.75 -1.68,1.75 v 0 c -0.84,0 -1.68,-0.656 -1.68,-1.75 0,-0.875 0.84,-1.75 1.68,-1.75 z m 6.72,0 v 0 c 1.05,0 1.68,0.875 1.68,1.75 0,1.094 -0.63,1.75 -1.68,1.75 v 0 c -0.84,0 -1.68,-0.656 -1.68,-1.75 0,-0.875 0.84,-1.75 1.68,-1.75 z m 6.72,0 v 0 c 1.05,0 1.68,0.875 1.68,1.75 0,1.094 -0.63,1.75 -1.68,1.75 v 0 c -0.84,0 -1.68,-0.656 -1.68,-1.75 0,-0.875 0.84,-1.75 1.68,-1.75 z m 6.72,0 v 0 c 1.05,0 1.68,0.875 1.68,1.75 0,1.094 -0.63,1.75 -1.68,1.75 v 0 c -0.84,0 -1.68,-0.656 -1.68,-1.75 0,-0.875 0.84,-1.75 1.68,-1.75 z m 6.72,0 v 0 c 1.05,0 1.68,0.875 1.68,1.75 0,1.094 -0.63,1.75 -1.68,1.75 v 0 c -0.84,0 -1.68,-0.656 -1.68,-1.75 0,-0.875 0.84,-1.75 1.68,-1.75 z m 6.72,0 v 0 c 1.05,0 1.68,0.875 1.68,1.75 0,1.094 -0.63,1.75 -1.68,1.75 v 0 c -0.84,0 -1.68,-0.656 -1.68,-1.75 0,-0.875 0.84,-1.75 1.68,-1.75 z m 6.72,0 v 0 c 1.05,0 1.68,0.875 1.68,1.75 0,1.094 -0.63,1.75 -1.68,1.75 v 0 c -0.84,0 -1.68,-0.656 -1.68,-1.75 0,-0.875 0.84,-1.75 1.68,-1.75 z m 6.72,0 v 0 c 1.05,0 1.68,0.875 1.68,1.75 0,1.094 -0.63,1.75 -1.68,1.75 v 0 c -0.84,0 -1.68,-0.656 -1.68,-1.75 0,-0.875 0.84,-1.75 1.68,-1.75 z m 6.72,0 v 0 c 1.05,0 1.68,0.875 1.68,1.75 0,1.094 -0.63,1.75 -1.68,1.75 v 0 c -0.84,0 -1.68,-0.656 -1.68,-1.75 0,-0.875 0.84,-1.75 1.68,-1.75 z m 6.72,0 v 0 c 1.05,0 1.68,0.875 1.68,1.75 0,1.094 -0.63,1.75 -1.68,1.75 v 0 c -0.84,0 -1.68,-0.656 -1.68,-1.75 0,-0.875 0.84,-1.75 1.68,-1.75 z M 826.66,305.5 806.5,295 826.66,284.5 Z m 379.68,-21 20.16,10.5 -20.16,10.5 z"
       stroke="#000000"
       stroke-width="3.4375"
       stroke-linejoin="bevel"
       stroke-miterlimit="10"
       fill-rule="evenodd"
       id="path27" /><text
       font-family="'Times New Roman', 'Times New Roman_MSFontService', sans-serif"
       font-weight="400"
       font-size="32px"
       id="text28"
       x="830.66675"
       y="880">B(t)</text><g
       id="g80"
       transform="translate(-75.265875)"><text
         font-family="'Times New Roman', 'Times New Roman_MSFontService', sans-serif"
         font-weight="400"
         font-size="32px"
         transform="translate(1738.46,315)"
         id="text29">Investment</text><text
         font-family="Times New Roman,Times New Roman_MSFontService,sans-serif"
         font-weight="400"
         font-size="32"
         transform="translate(1738.46,356)"
         id="text30"
         style="font-style:normal;font-variant:normal;font-weight:normal;font-stretch:normal;font-size:32px;font-family:'Times New Roman', 'Times New Roman_MSFontService', sans-serif;-inkscape-font-specification:'Times New Roman, Times New Roman_MSFontService, sans-serif, Normal';font-variant-ligatures:normal;font-variant-caps:normal;font-variant-numeric:normal;font-variant-east-asian:normal"><tspan
           id="tspan80"
           x="0"
           y="0">and payment:</tspan></text></g><g
       id="g79"
       transform="translate(-75.00025)"><text
         font-family="'Times New Roman', 'Times New Roman_MSFontService', sans-serif"
         font-weight="400"
         font-size="32px"
         transform="translate(1738.46,478)"
         id="text33">Payment</text><text
         font-family="Times New Roman,Times New Roman_MSFontService,sans-serif"
         font-weight="400"
         font-size="32"
         transform="translate(1738.46,518)"
         id="text34"
         style="font-style:normal;font-variant:normal;font-weight:normal;font-stretch:normal;font-size:32px;font-family:'Times New Roman', 'Times New Roman_MSFontService', sans-serif;-inkscape-font-specification:'Times New Roman, Times New Roman_MSFontService, sans-serif, Normal';font-variant-ligatures:normal;font-variant-caps:normal;font-variant-numeric:normal;font-variant-east-asian:normal"><tspan
           id="tspan79"
           x="0"
           y="0">only:</tspan></text></g><rect
       x="1857.5"
       y="294.5"
       width="83.999901"
       height="84.999901"
       stroke="#000000"
       stroke-width="3.4375"
       stroke-linecap="round"
       stroke-miterlimit="8"
       fill="none"
       id="rect36"
       style="fill:url(#pattern81);fill-opacity:1" /><rect
       x="1857.5"
       y="455.5"
       width="83.999901"
       height="83.999802"
       stroke="#000000"
       stroke-width="3.4375"
       stroke-linecap="round"
       stroke-miterlimit="8"
       fill="none"
       id="rect38"
       style="fill:url(#pattern83);fill-opacity:1" /><rect
       x="806.5"
       y="659.5"
       width="84.000198"
       height="83.999901"
       stroke="#000000"
       stroke-width="3.4375"
       stroke-linecap="round"
       stroke-miterlimit="8"
       fill="none"
       id="rect40"
       style="fill:url(#pattern96);fill-opacity:1" /><text
       font-family="Times New Roman,Times New Roman_MSFontService,sans-serif"
       font-weight="700"
       font-size="41"
       id="text40"
       style="font-style:normal;font-variant:normal;font-weight:bold;font-stretch:normal;font-size:41px;font-family:'Times New Roman', 'Times New Roman_MSFontService', sans-serif;-inkscape-font-specification:'Times New Roman, Times New Roman_MSFontService, sans-serif, Bold';font-variant-ligatures:normal;font-variant-caps:normal;font-variant-numeric:normal;font-variant-east-asian:normal"
       x="256.37543"
       y="274"><tspan
         id="tspan1">Case 1.b Example:</tspan></text><text
       font-family="Times New Roman,Times New Roman_MSFontService,sans-serif"
       font-weight="400"
       font-size="32"
       id="text45"
       style="font-style:normal;font-variant:normal;font-weight:normal;font-stretch:normal;font-size:32px;font-family:'Times New Roman', 'Times New Roman_MSFontService', sans-serif;-inkscape-font-specification:'Times New Roman, Times New Roman_MSFontService, sans-serif, Normal';font-variant-ligatures:normal;font-variant-caps:normal;font-variant-numeric:normal;font-variant-east-asian:normal"
       x="256.37512"
       y="356"><tspan
         id="tspan77"
         x="256.37512"
         y="356">D=5, TLIFE=4, ELIFE=3</tspan></text><rect
       x="974.5"
       y="743.5"
       width="83.999802"
       height="84.999901"
       stroke="#000000"
       stroke-width="3.4375"
       stroke-linecap="round"
       stroke-miterlimit="8"
       fill="none"
       id="rect53"
       style="fill:url(#pattern88);fill-opacity:1" /><rect
       x="1058.5"
       y="743.5"
       width="84.000198"
       height="84.999901"
       stroke="#000000"
       stroke-width="3.4375"
       stroke-linecap="round"
       stroke-miterlimit="8"
       fill="none"
       id="rect55"
       style="fill:url(#pattern111);fill-opacity:1" /><rect
       x="1142.5"
       y="743.5"
       width="83.999901"
       height="84.999901"
       stroke="#000000"
       stroke-width="3.4375"
       stroke-linecap="round"
       stroke-miterlimit="8"
       fill="none"
       id="rect57"
       style="fill:url(#pattern112);fill-opacity:1" /><rect
       x="1058.5"
       y="659.5"
       width="84.000198"
       height="83.999901"
       stroke="#000000"
       stroke-width="3.4375"
       stroke-linecap="round"
       stroke-miterlimit="8"
       fill="none"
       id="rect59"
       style="fill:url(#pattern87);fill-opacity:1" /><rect
       x="1142.5"
       y="659.5"
       width="83.999901"
       height="83.999901"
       stroke="#000000"
       stroke-width="3.4375"
       stroke-linecap="round"
       stroke-miterlimit="8"
       fill="none"
       id="rect60" /><rect
       x="1226.5"
       y="659.5"
       width="83.999901"
       height="83.999901"
       stroke="#000000"
       stroke-width="3.4375"
       stroke-linecap="round"
       stroke-miterlimit="8"
       fill="none"
       id="rect62"
       style="fill:url(#pattern113);fill-opacity:1" /><rect
       x="1142.5"
       y="574.5"
       width="83.999901"
       height="85.000198"
       stroke="#000000"
       stroke-width="3.4375"
       stroke-linecap="round"
       stroke-miterlimit="8"
       fill="none"
       id="rect64"
       style="fill:url(#pattern86);fill-opacity:1" /><rect
       x="1226.5"
       y="574.5"
       width="83.999901"
       height="85.000198"
       stroke="#000000"
       stroke-width="3.4375"
       stroke-linecap="round"
       stroke-miterlimit="8"
       fill="none"
       id="rect66"
       style="fill:url(#pattern108);fill-opacity:1" /><rect
       x="1310.5"
       y="574.5"
       width="84.000198"
       height="85.000198"
       stroke="#000000"
       stroke-width="3.4375"
       stroke-linecap="round"
       stroke-miterlimit="8"
       fill="none"
       id="rect68"
       style="fill:url(#pattern114);fill-opacity:1" /><rect
       x="1226.5"
       y="490.5"
       width="83.999901"
       height="83.999802"
       stroke="#000000"
       stroke-width="3.4375"
       stroke-linecap="round"
       stroke-miterlimit="8"
       fill="none"
       id="rect70"
       style="fill:url(#pattern85);fill-opacity:1" /><rect
       x="1310.5"
       y="490.5"
       width="84.000198"
       height="83.999802"
       stroke="#000000"
       stroke-width="3.4375"
       stroke-linecap="round"
       stroke-miterlimit="8"
       fill="none"
       id="rect72"
       style="fill:url(#pattern107);fill-opacity:1" /><rect
       x="1394.5"
       y="490.5"
       width="82.999901"
       height="83.999802"
       stroke="#000000"
       stroke-width="3.4375"
       stroke-linecap="round"
       stroke-miterlimit="8"
       fill="none"
       id="rect74"
       style="fill-opacity:1;fill:url(#pattern106)" /><rect
       x="1142.5"
       y="659.5"
       width="83.999901"
       height="83.999901"
       stroke="#000000"
       stroke-width="3.4375"
       stroke-linecap="round"
       stroke-miterlimit="8"
       fill="none"
       id="rect76"
       style="fill:url(#pattern109);fill-opacity:1" /><path
       d="m 898.9,368.25 v 0 c 1.05,0 1.68,0.875 1.68,1.75 0,1.094 -0.63,1.75 -1.68,1.75 v 0 c -0.84,0 -1.68,-0.656 -1.68,-1.75 0,-0.875 0.84,-1.75 1.68,-1.75 z m 6.72,0 v 0 c 1.05,0 1.68,0.875 1.68,1.75 0,1.094 -0.63,1.75 -1.68,1.75 v 0 c -0.84,0 -1.68,-0.656 -1.68,-1.75 0,-0.875 0.84,-1.75 1.68,-1.75 z m 6.72,0 h 0.21 c 0.84,0 1.68,0.875 1.68,1.75 0,1.094 -0.84,1.75 -1.68,1.75 h -0.21 c -0.84,0 -1.68,-0.656 -1.68,-1.75 0,-0.875 0.84,-1.75 1.68,-1.75 z m 6.93,0 v 0 c 0.84,0 1.68,0.875 1.68,1.75 0,1.094 -0.84,1.75 -1.68,1.75 v 0 c -1.05,0 -1.68,-0.656 -1.68,-1.75 0,-0.875 0.63,-1.75 1.68,-1.75 z m 6.72,0 v 0 c 0.84,0 1.68,0.875 1.68,1.75 0,1.094 -0.84,1.75 -1.68,1.75 v 0 c -1.05,0 -1.68,-0.656 -1.68,-1.75 0,-0.875 0.63,-1.75 1.68,-1.75 z m 6.72,0 v 0 c 0.84,0 1.68,0.875 1.68,1.75 0,1.094 -0.84,1.75 -1.68,1.75 v 0 c -1.05,0 -1.68,-0.656 -1.68,-1.75 0,-0.875 0.63,-1.75 1.68,-1.75 z m 6.72,0 v 0 c 0.84,0 1.68,0.875 1.68,1.75 0,1.094 -0.84,1.75 -1.68,1.75 v 0 c -1.05,0 -1.68,-0.656 -1.68,-1.75 0,-0.875 0.63,-1.75 1.68,-1.75 z m 6.72,0 v 0 c 0.84,0 1.68,0.875 1.68,1.75 0,1.094 -0.84,1.75 -1.68,1.75 v 0 c -1.05,0 -1.68,-0.656 -1.68,-1.75 0,-0.875 0.63,-1.75 1.68,-1.75 z m 6.72,0 v 0 c 0.84,0 1.68,0.875 1.68,1.75 0,1.094 -0.84,1.75 -1.68,1.75 v 0 c -1.05,0 -1.68,-0.656 -1.68,-1.75 0,-0.875 0.63,-1.75 1.68,-1.75 z m 6.72,0 v 0 c 0.84,0 1.68,0.875 1.68,1.75 0,1.094 -0.84,1.75 -1.68,1.75 v 0 c -1.05,0 -1.68,-0.656 -1.68,-1.75 0,-0.875 0.63,-1.75 1.68,-1.75 z m 6.72,0 v 0 c 0.84,0 1.68,0.875 1.68,1.75 0,1.094 -0.84,1.75 -1.68,1.75 v 0 c -1.05,0 -1.68,-0.656 -1.68,-1.75 0,-0.875 0.63,-1.75 1.68,-1.75 z m 6.72,0 v 0 c 0.84,0 1.68,0.875 1.68,1.75 0,1.094 -0.84,1.75 -1.68,1.75 v 0 c -1.05,0 -1.68,-0.656 -1.68,-1.75 0,-0.875 0.63,-1.75 1.68,-1.75 z m 6.72,0 v 0 c 0.84,0 1.68,0.875 1.68,1.75 0,1.094 -0.84,1.75 -1.68,1.75 v 0 c -1.05,0 -1.68,-0.656 -1.68,-1.75 0,-0.875 0.63,-1.75 1.68,-1.75 z m 6.72,0 v 0 c 0.84,0 1.68,0.875 1.68,1.75 0,1.094 -0.84,1.75 -1.68,1.75 v 0 c -1.05,0 -1.68,-0.656 -1.68,-1.75 0,-0.875 0.63,-1.75 1.68,-1.75 z m 6.72,0 v 0 c 0.84,0 1.68,0.875 1.68,1.75 0,1.094 -0.84,1.75 -1.68,1.75 v 0 c -1.05,0 -1.68,-0.656 -1.68,-1.75 0,-0.875 0.63,-1.75 1.68,-1.75 z m 6.72,0 v 0 c 0.84,0 1.68,0.875 1.68,1.75 0,1.094 -0.84,1.75 -1.68,1.75 v 0 c -1.05,0 -1.68,-0.656 -1.68,-1.75 0,-0.875 0.63,-1.75 1.68,-1.75 z m 6.72,0 v 0 c 0.84,0 1.68,0.875 1.68,1.75 0,1.094 -0.84,1.75 -1.68,1.75 v 0 c -1.05,0 -1.68,-0.656 -1.68,-1.75 0,-0.875 0.63,-1.75 1.68,-1.75 z m 6.72,0 v 0 c 0.84,0 1.68,0.875 1.68,1.75 0,1.094 -0.84,1.75 -1.68,1.75 v 0 c -1.05,0 -1.68,-0.656 -1.68,-1.75 0,-0.875 0.63,-1.75 1.68,-1.75 z m 6.72,0 v 0 c 0.84,0 1.68,0.875 1.68,1.75 0,1.094 -0.84,1.75 -1.68,1.75 v 0 c -1.05,0 -1.68,-0.656 -1.68,-1.75 0,-0.875 0.63,-1.75 1.68,-1.75 z m 6.72,0 v 0 c 0.84,0 1.68,0.875 1.68,1.75 0,1.094 -0.84,1.75 -1.68,1.75 v 0 c -1.05,0 -1.68,-0.656 -1.68,-1.75 0,-0.875 0.63,-1.75 1.68,-1.75 z m 6.72,0 v 0 c 0.84,0 1.68,0.875 1.68,1.75 0,1.094 -0.84,1.75 -1.68,1.75 v 0 c -1.05,0 -1.68,-0.656 -1.68,-1.75 0,-0.875 0.63,-1.75 1.68,-1.75 z m 6.72,0 v 0 c 0.84,0 1.68,0.875 1.68,1.75 0,1.094 -0.84,1.75 -1.68,1.75 v 0 c -1.05,0 -1.68,-0.656 -1.68,-1.75 0,-0.875 0.63,-1.75 1.68,-1.75 z m 6.72,0 v 0 c 0.84,0 1.68,0.875 1.68,1.75 0,1.094 -0.84,1.75 -1.68,1.75 v 0 c -1.05,0 -1.68,-0.656 -1.68,-1.75 0,-0.875 0.63,-1.75 1.68,-1.75 z m 6.72,0 v 0 c 0.84,0 1.68,0.875 1.68,1.75 0,1.094 -0.84,1.75 -1.68,1.75 v 0 c -1.05,0 -1.68,-0.656 -1.68,-1.75 0,-0.875 0.63,-1.75 1.68,-1.75 z m 6.72,0 v 0 c 0.84,0 1.68,0.875 1.68,1.75 0,1.094 -0.84,1.75 -1.68,1.75 v 0 c -1.05,0 -1.68,-0.656 -1.68,-1.75 0,-0.875 0.63,-1.75 1.68,-1.75 z m 6.72,0 v 0 c 0.84,0 1.68,0.875 1.68,1.75 0,1.094 -0.84,1.75 -1.68,1.75 v 0 c -1.05,0 -1.68,-0.656 -1.68,-1.75 0,-0.875 0.63,-1.75 1.68,-1.75 z m 6.72,0 v 0 c 0.84,0 1.68,0.875 1.68,1.75 0,1.094 -0.84,1.75 -1.68,1.75 v 0 c -1.05,0 -1.68,-0.656 -1.68,-1.75 0,-0.875 0.63,-1.75 1.68,-1.75 z m 6.72,0 v 0 c 0.84,0 1.68,0.875 1.68,1.75 0,1.094 -0.84,1.75 -1.68,1.75 v 0 c -1.05,0 -1.68,-0.656 -1.68,-1.75 0,-0.875 0.63,-1.75 1.68,-1.75 z m 6.72,0 v 0 c 0.84,0 1.68,0.875 1.68,1.75 0,1.094 -0.84,1.75 -1.68,1.75 v 0 c -1.05,0 -1.68,-0.656 -1.68,-1.75 0,-0.875 0.63,-1.75 1.68,-1.75 z m 6.72,0 v 0 c 0.84,0 1.68,0.875 1.68,1.75 0,1.094 -0.84,1.75 -1.68,1.75 v 0 c -0.84,0 -1.68,-0.656 -1.68,-1.75 0,-0.875 0.84,-1.75 1.68,-1.75 z m 6.72,0 v 0 c 0.84,0 1.68,0.875 1.68,1.75 0,1.094 -0.84,1.75 -1.68,1.75 v 0 c -0.84,0 -1.68,-0.656 -1.68,-1.75 0,-0.875 0.84,-1.75 1.68,-1.75 z m 6.72,0 v 0 c 0.84,0 1.68,0.875 1.68,1.75 0,1.094 -0.84,1.75 -1.68,1.75 v 0 c -0.84,0 -1.68,-0.656 -1.68,-1.75 0,-0.875 0.84,-1.75 1.68,-1.75 z m 6.72,0 v 0 c 0.84,0 1.68,0.875 1.68,1.75 0,1.094 -0.84,1.75 -1.68,1.75 v 0 c -0.84,0 -1.68,-0.656 -1.68,-1.75 0,-0.875 0.84,-1.75 1.68,-1.75 z m 6.72,0 v 0 c 0.84,0 1.68,0.875 1.68,1.75 0,1.094 -0.84,1.75 -1.68,1.75 v 0 c -0.84,0 -1.68,-0.656 -1.68,-1.75 0,-0.875 0.84,-1.75 1.68,-1.75 z m 6.72,0 v 0 c 0.84,0 1.68,0.875 1.68,1.75 0,1.094 -0.84,1.75 -1.68,1.75 v 0 c -0.84,0 -1.68,-0.656 -1.68,-1.75 0,-0.875 0.84,-1.75 1.68,-1.75 z m 6.72,0 v 0 c 0.84,0 1.68,0.875 1.68,1.75 0,1.094 -0.84,1.75 -1.68,1.75 v 0 c -0.84,0 -1.68,-0.656 -1.68,-1.75 0,-0.875 0.84,-1.75 1.68,-1.75 z m 6.72,0 v 0 c 0.84,0 1.68,0.875 1.68,1.75 0,1.094 -0.84,1.75 -1.68,1.75 v 0 c -0.84,0 -1.68,-0.656 -1.68,-1.75 0,-0.875 0.84,-1.75 1.68,-1.75 z m 6.72,0 v 0 c 0.84,0 1.68,0.875 1.68,1.75 0,1.094 -0.84,1.75 -1.68,1.75 v 0 c -0.84,0 -1.68,-0.656 -1.68,-1.75 0,-0.875 0.84,-1.75 1.68,-1.75 z m 6.72,0 v 0 c 1.05,0 1.68,0.875 1.68,1.75 0,1.094 -0.63,1.75 -1.68,1.75 v 0 c -0.84,0 -1.68,-0.656 -1.68,-1.75 0,-0.875 0.84,-1.75 1.68,-1.75 z m 6.72,0 v 0 c 1.05,0 1.68,0.875 1.68,1.75 0,1.094 -0.63,1.75 -1.68,1.75 v 0 c -0.84,0 -1.68,-0.656 -1.68,-1.75 0,-0.875 0.84,-1.75 1.68,-1.75 z m 6.72,0 v 0 c 1.05,0 1.68,0.875 1.68,1.75 0,1.094 -0.63,1.75 -1.68,1.75 v 0 c -0.84,0 -1.68,-0.656 -1.68,-1.75 0,-0.875 0.84,-1.75 1.68,-1.75 z m 6.72,0 v 0 c 1.05,0 1.68,0.875 1.68,1.75 0,1.094 -0.63,1.75 -1.68,1.75 v 0 c -0.84,0 -1.68,-0.656 -1.68,-1.75 0,-0.875 0.84,-1.75 1.68,-1.75 z m 6.72,0 v 0 c 1.05,0 1.68,0.875 1.68,1.75 0,1.094 -0.63,1.75 -1.68,1.75 v 0 c -0.84,0 -1.68,-0.656 -1.68,-1.75 0,-0.875 0.84,-1.75 1.68,-1.75 z m 6.72,0 v 0 c 1.05,0 1.68,0.875 1.68,1.75 0,1.094 -0.63,1.75 -1.68,1.75 v 0 c -0.84,0 -1.68,-0.656 -1.68,-1.75 0,-0.875 0.84,-1.75 1.68,-1.75 z m 6.72,0 v 0 c 1.05,0 1.68,0.875 1.68,1.75 0,1.094 -0.63,1.75 -1.68,1.75 v 0 c -0.84,0 -1.68,-0.656 -1.68,-1.75 0,-0.875 0.84,-1.75 1.68,-1.75 z m 6.72,0 v 0 c 1.05,0 1.68,0.875 1.68,1.75 0,1.094 -0.63,1.75 -1.68,1.75 v 0 c -0.84,0 -1.68,-0.656 -1.68,-1.75 0,-0.875 0.84,-1.75 1.68,-1.75 z m 6.72,0 v 0 c 1.05,0 1.68,0.875 1.68,1.75 0,1.094 -0.63,1.75 -1.68,1.75 v 0 c -0.84,0 -1.68,-0.656 -1.68,-1.75 0,-0.875 0.84,-1.75 1.68,-1.75 z m 6.72,0 v 0 c 1.05,0 1.68,0.875 1.68,1.75 0,1.094 -0.63,1.75 -1.68,1.75 v 0 c -0.84,0 -1.68,-0.656 -1.68,-1.75 0,-0.875 0.84,-1.75 1.68,-1.75 z M 910.66,380.5 890.5,370 910.66,359.5 Z m 295.68,-21 20.16,10.5 -20.16,10.5 z"
       stroke="#000000"
       stroke-width="3.4375"
       stroke-linejoin="bevel"
       stroke-miterlimit="10"
       fill-rule="evenodd"
       id="path76" /><text
       font-family="'Times New Roman', 'Times New Roman_MSFontService', sans-serif"
       font-weight="400"
       font-size="32px"
       id="text76"
       x="998.42023"
       y="352">TLIFE</text><path
       d="m 898.9,453.833 v 0 c 1.05,0 1.68,0.625 1.68,1.667 0,0.833 -0.63,1.667 -1.68,1.667 v 0 c -0.84,0 -1.68,-0.834 -1.68,-1.667 0,-1.042 0.84,-1.667 1.68,-1.667 z m 6.72,0 v 0 c 1.05,0 1.68,0.625 1.68,1.667 0,0.833 -0.63,1.667 -1.68,1.667 v 0 c -0.84,0 -1.68,-0.834 -1.68,-1.667 0,-1.042 0.84,-1.667 1.68,-1.667 z m 6.72,0 h 0.21 c 0.84,0 1.68,0.625 1.68,1.667 0,0.833 -0.84,1.667 -1.68,1.667 h -0.21 c -0.84,0 -1.68,-0.834 -1.68,-1.667 0,-1.042 0.84,-1.667 1.68,-1.667 z m 6.93,0 v 0 c 0.84,0 1.68,0.625 1.68,1.667 0,0.833 -0.84,1.667 -1.68,1.667 v 0 c -1.05,0 -1.68,-0.834 -1.68,-1.667 0,-1.042 0.63,-1.667 1.68,-1.667 z m 6.72,0 v 0 c 0.84,0 1.68,0.625 1.68,1.667 0,0.833 -0.84,1.667 -1.68,1.667 v 0 c -1.05,0 -1.68,-0.834 -1.68,-1.667 0,-1.042 0.63,-1.667 1.68,-1.667 z m 6.72,0 v 0 c 0.84,0 1.68,0.625 1.68,1.667 0,0.833 -0.84,1.667 -1.68,1.667 v 0 c -1.05,0 -1.68,-0.834 -1.68,-1.667 0,-1.042 0.63,-1.667 1.68,-1.667 z m 6.72,0 v 0 c 0.84,0 1.68,0.625 1.68,1.667 0,0.833 -0.84,1.667 -1.68,1.667 v 0 c -1.05,0 -1.68,-0.834 -1.68,-1.667 0,-1.042 0.63,-1.667 1.68,-1.667 z m 6.72,0 v 0 c 0.84,0 1.68,0.625 1.68,1.667 0,0.833 -0.84,1.667 -1.68,1.667 v 0 c -1.05,0 -1.68,-0.834 -1.68,-1.667 0,-1.042 0.63,-1.667 1.68,-1.667 z m 6.72,0 v 0 c 0.84,0 1.68,0.625 1.68,1.667 0,0.833 -0.84,1.667 -1.68,1.667 v 0 c -1.05,0 -1.68,-0.834 -1.68,-1.667 0,-1.042 0.63,-1.667 1.68,-1.667 z m 6.72,0 v 0 c 0.84,0 1.68,0.625 1.68,1.667 0,0.833 -0.84,1.667 -1.68,1.667 v 0 c -1.05,0 -1.68,-0.834 -1.68,-1.667 0,-1.042 0.63,-1.667 1.68,-1.667 z m 6.72,0 v 0 c 0.84,0 1.68,0.625 1.68,1.667 0,0.833 -0.84,1.667 -1.68,1.667 v 0 c -1.05,0 -1.68,-0.834 -1.68,-1.667 0,-1.042 0.63,-1.667 1.68,-1.667 z m 6.72,0 v 0 c 0.84,0 1.68,0.625 1.68,1.667 0,0.833 -0.84,1.667 -1.68,1.667 v 0 c -1.05,0 -1.68,-0.834 -1.68,-1.667 0,-1.042 0.63,-1.667 1.68,-1.667 z m 6.72,0 v 0 c 0.84,0 1.68,0.625 1.68,1.667 0,0.833 -0.84,1.667 -1.68,1.667 v 0 c -1.05,0 -1.68,-0.834 -1.68,-1.667 0,-1.042 0.63,-1.667 1.68,-1.667 z m 6.72,0 v 0 c 0.84,0 1.68,0.625 1.68,1.667 0,0.833 -0.84,1.667 -1.68,1.667 v 0 c -1.05,0 -1.68,-0.834 -1.68,-1.667 0,-1.042 0.63,-1.667 1.68,-1.667 z m 6.72,0 v 0 c 0.84,0 1.68,0.625 1.68,1.667 0,0.833 -0.84,1.667 -1.68,1.667 v 0 c -1.05,0 -1.68,-0.834 -1.68,-1.667 0,-1.042 0.63,-1.667 1.68,-1.667 z m 6.72,0 v 0 c 0.84,0 1.68,0.625 1.68,1.667 0,0.833 -0.84,1.667 -1.68,1.667 v 0 c -1.05,0 -1.68,-0.834 -1.68,-1.667 0,-1.042 0.63,-1.667 1.68,-1.667 z m 6.72,0 v 0 c 0.84,0 1.68,0.625 1.68,1.667 0,0.833 -0.84,1.667 -1.68,1.667 v 0 c -1.05,0 -1.68,-0.834 -1.68,-1.667 0,-1.042 0.63,-1.667 1.68,-1.667 z m 6.72,0 v 0 c 0.84,0 1.68,0.625 1.68,1.667 0,0.833 -0.84,1.667 -1.68,1.667 v 0 c -1.05,0 -1.68,-0.834 -1.68,-1.667 0,-1.042 0.63,-1.667 1.68,-1.667 z m 6.72,0 v 0 c 0.84,0 1.68,0.625 1.68,1.667 0,0.833 -0.84,1.667 -1.68,1.667 v 0 c -1.05,0 -1.68,-0.834 -1.68,-1.667 0,-1.042 0.63,-1.667 1.68,-1.667 z m 6.72,0 v 0 c 0.84,0 1.68,0.625 1.68,1.667 0,0.833 -0.84,1.667 -1.68,1.667 v 0 c -1.05,0 -1.68,-0.834 -1.68,-1.667 0,-1.042 0.63,-1.667 1.68,-1.667 z m 6.72,0 v 0 c 0.84,0 1.68,0.625 1.68,1.667 0,0.833 -0.84,1.667 -1.68,1.667 v 0 c -1.05,0 -1.68,-0.834 -1.68,-1.667 0,-1.042 0.63,-1.667 1.68,-1.667 z m 6.72,0 v 0 c 0.84,0 1.68,0.625 1.68,1.667 0,0.833 -0.84,1.667 -1.68,1.667 v 0 c -1.05,0 -1.68,-0.834 -1.68,-1.667 0,-1.042 0.63,-1.667 1.68,-1.667 z m 6.72,0 v 0 c 0.84,0 1.68,0.625 1.68,1.667 0,0.833 -0.84,1.667 -1.68,1.667 v 0 c -1.05,0 -1.68,-0.834 -1.68,-1.667 0,-1.042 0.63,-1.667 1.68,-1.667 z m 6.72,0 v 0 c 0.84,0 1.68,0.625 1.68,1.667 0,0.833 -0.84,1.667 -1.68,1.667 v 0 c -1.05,0 -1.68,-0.834 -1.68,-1.667 0,-1.042 0.63,-1.667 1.68,-1.667 z m 6.72,0 v 0 c 0.84,0 1.68,0.625 1.68,1.667 0,0.833 -0.84,1.667 -1.68,1.667 v 0 c -1.05,0 -1.68,-0.834 -1.68,-1.667 0,-1.042 0.63,-1.667 1.68,-1.667 z m 6.72,0 v 0 c 0.84,0 1.68,0.625 1.68,1.667 0,0.833 -0.84,1.667 -1.68,1.667 v 0 c -1.05,0 -1.68,-0.834 -1.68,-1.667 0,-1.042 0.63,-1.667 1.68,-1.667 z m 6.72,0 v 0 c 0.84,0 1.68,0.625 1.68,1.667 0,0.833 -0.84,1.667 -1.68,1.667 v 0 c -1.05,0 -1.68,-0.834 -1.68,-1.667 0,-1.042 0.63,-1.667 1.68,-1.667 z m 6.72,0 v 0 c 0.84,0 1.68,0.625 1.68,1.667 0,0.833 -0.84,1.667 -1.68,1.667 v 0 c -1.05,0 -1.68,-0.834 -1.68,-1.667 0,-1.042 0.63,-1.667 1.68,-1.667 z m 6.72,0 v 0 c 0.84,0 1.68,0.625 1.68,1.667 0,0.833 -0.84,1.667 -1.68,1.667 v 0 c -1.05,0 -1.68,-0.834 -1.68,-1.667 0,-1.042 0.63,-1.667 1.68,-1.667 z m 6.72,0 v 0 c 0.84,0 1.68,0.625 1.68,1.667 0,0.833 -0.84,1.667 -1.68,1.667 v 0 c -0.84,0 -1.68,-0.834 -1.68,-1.667 0,-1.042 0.84,-1.667 1.68,-1.667 z m 6.72,0 v 0 c 0.84,0 1.68,0.625 1.68,1.667 0,0.833 -0.84,1.667 -1.68,1.667 v 0 c -0.84,0 -1.68,-0.834 -1.68,-1.667 0,-1.042 0.84,-1.667 1.68,-1.667 z m 6.72,0 v 0 c 0.84,0 1.68,0.625 1.68,1.667 0,0.833 -0.84,1.667 -1.68,1.667 v 0 c -0.84,0 -1.68,-0.834 -1.68,-1.667 0,-1.042 0.84,-1.667 1.68,-1.667 z m 6.72,0 v 0 c 0.84,0 1.68,0.625 1.68,1.667 0,0.833 -0.84,1.667 -1.68,1.667 v 0 c -0.84,0 -1.68,-0.834 -1.68,-1.667 0,-1.042 0.84,-1.667 1.68,-1.667 z m 6.72,0 v 0 c 0.84,0 1.68,0.625 1.68,1.667 0,0.833 -0.84,1.667 -1.68,1.667 v 0 c -0.84,0 -1.68,-0.834 -1.68,-1.667 0,-1.042 0.84,-1.667 1.68,-1.667 z m 6.72,0 v 0 c 0.84,0 1.68,0.625 1.68,1.667 0,0.833 -0.84,1.667 -1.68,1.667 v 0 c -0.84,0 -1.68,-0.834 -1.68,-1.667 0,-1.042 0.84,-1.667 1.68,-1.667 z m -216.93,11.667 -20.16,-10 20.16,-10 z m 211.68,-20 20.16,10 -20.16,10 z"
       stroke="#000000"
       stroke-width="3.4375"
       stroke-linejoin="bevel"
       stroke-miterlimit="10"
       fill-rule="evenodd"
       id="path77" /><text
       font-family="'Times New Roman', 'Times New Roman_MSFontService', sans-serif"
       font-weight="400"
       font-size="32px"
       id="text77"
       x="978.24976"
       y="440">ELIFE</text><text
       font-family="'Times New Roman', 'Times New Roman_MSFontService', sans-serif"
       font-weight="400"
       font-size="32px"
       id="text27"
       x="998.4201"
       y="278">D(t)</text></g></svg>
