<?xml version="1.0" encoding="UTF-8" standalone="no"?>
<svg
   width="1737.2472"
   height="738.58472"
   xml:space="preserve"
   overflow="hidden"
   version="1.1"
   id="svg63"
   xmlns:xlink="http://www.w3.org/1999/xlink"
   xmlns="http://www.w3.org/2000/svg"
   xmlns:svg="http://www.w3.org/2000/svg"><defs
     id="defs63"><pattern
       xlink:href="#Strips1_1.5"
       preserveAspectRatio="xMidYMid"
       id="pattern79"
       patternTransform="matrix(-3.5355339,3.5355339,-3.5355339,-3.5355339,0,0)"
       x="0"
       y="0" /><pattern
       xlink:href="#Strips1_1.5"
       preserveAspectRatio="xMidYMid"
       id="pattern78"
       patternTransform="matrix(-3.5355339,3.5355339,-3.5355339,-3.5355339,0,0)"
       x="0"
       y="0" /><pattern
       xlink:href="#Strips1_1.5"
       preserveAspectRatio="xMidYMid"
       id="pattern77"
       patternTransform="matrix(-3.5355339,3.5355339,-3.5355339,-3.5355339,0,0)"
       x="0"
       y="0" /><pattern
       xlink:href="#Strips1_1.5"
       preserveAspectRatio="xMidYMid"
       id="pattern76"
       patternTransform="matrix(-3.5355339,3.5355339,-3.5355339,-3.5355339,0,0)"
       x="0"
       y="0" /><pattern
       xlink:href="#Strips1_1.5"
       preserveAspectRatio="xMidYMid"
       id="pattern75"
       patternTransform="matrix(3.5355339,3.5355339,-3.5355339,3.5355339,0,0)"
       x="0"
       y="0" /><pattern
       xlink:href="#Strips1_1.5"
       preserveAspectRatio="xMidYMid"
       id="pattern74"
       patternTransform="matrix(3.5355339,3.5355339,-3.5355339,3.5355339,0,0)"
       x="0"
       y="0" /><pattern
       xlink:href="#Strips1_1.5"
       preserveAspectRatio="xMidYMid"
       id="pattern73"
       patternTransform="matrix(3.5355339,3.5355339,-3.5355339,3.5355339,0,0)"
       x="0"
       y="0" /><pattern
       xlink:href="#Strips1_1.5"
       preserveAspectRatio="xMidYMid"
       id="pattern72"
       patternTransform="matrix(3.5355339,3.5355339,-3.5355339,3.5355339,0,0)"
       x="0"
       y="0" /><pattern
       xlink:href="#Strips1_1.5"
       preserveAspectRatio="xMidYMid"
       id="pattern71"
       patternTransform="matrix(3.5355339,3.5355339,-3.5355339,3.5355339,0,0)"
       x="0"
       y="0" /><pattern
       xlink:href="#Strips1_1.5"
       preserveAspectRatio="xMidYMid"
       id="pattern70"
       patternTransform="matrix(-3.5355339,3.5355339,-3.5355339,-3.5355339,0,0)"
       x="0"
       y="0" /><pattern
       patternUnits="userSpaceOnUse"
       width="2.5"
       height="1"
       patternTransform="translate(0,0) scale(2,2)"
       preserveAspectRatio="xMidYMid"
       id="Strips1_1.5"
       style="fill:#000000">
      <rect
   style="stroke:none"
   x="0"
   y="-0.5"
   width="1"
   height="2"
   id="rect140" />
    </pattern></defs><g
     transform="translate(-157.29755,-110.58816)"
     id="g63"><rect
       x="158.06235"
       y="111.35295"
       width="1735.7177"
       height="737.05511"
       stroke="#000000"
       stroke-width="1.52959"
       stroke-miterlimit="8"
       fill="none"
       id="rect1" /><path
       d="M 498,759 H 1734.13"
       stroke="#000000"
       stroke-width="4.35417"
       stroke-linejoin="round"
       stroke-miterlimit="10"
       fill="none"
       fill-rule="evenodd"
       id="path2" /><rect
       x="652"
       y="682"
       width="85.999901"
       height="77"
       stroke="#000000"
       stroke-width="2.0625"
       stroke-linecap="round"
       stroke-miterlimit="8"
       fill="none"
       id="rect4"
       style="fill:url(#pattern74);fill-opacity:1" /><rect
       x="738"
       y="682"
       width="85.999901"
       height="77"
       stroke="#000000"
       stroke-width="2.0625"
       stroke-linecap="round"
       stroke-miterlimit="8"
       fill="none"
       id="rect5" /><rect
       x="824"
       y="682"
       width="85.999901"
       height="77"
       stroke="#000000"
       stroke-width="2.0625"
       stroke-linecap="round"
       stroke-miterlimit="8"
       fill="none"
       id="rect6" /><rect
       x="738"
       y="604"
       width="85.999901"
       height="78.000099"
       stroke="#000000"
       stroke-width="2.0625"
       stroke-linecap="round"
       stroke-miterlimit="8"
       fill="none"
       id="rect8"
       style="fill:url(#pattern73);fill-opacity:1" /><rect
       x="824"
       y="604"
       width="85.999901"
       height="78.000099"
       stroke="#000000"
       stroke-width="2.0625"
       stroke-linecap="round"
       stroke-miterlimit="8"
       fill="none"
       id="rect9" /><rect
       x="910"
       y="604"
       width="85.999901"
       height="78.000099"
       stroke="#000000"
       stroke-width="2.0625"
       stroke-linecap="round"
       stroke-miterlimit="8"
       fill="none"
       id="rect10" /><rect
       x="824"
       y="527"
       width="85.999901"
       height="77"
       stroke="#000000"
       stroke-width="2.0625"
       stroke-linecap="round"
       stroke-miterlimit="8"
       fill="none"
       id="rect12"
       style="fill:url(#pattern72);fill-opacity:1" /><rect
       x="910"
       y="527"
       width="85.999901"
       height="77"
       stroke="#000000"
       stroke-width="2.0625"
       stroke-linecap="round"
       stroke-miterlimit="8"
       fill="none"
       id="rect13" /><rect
       x="996"
       y="527"
       width="85.000298"
       height="77"
       stroke="#000000"
       stroke-width="2.0625"
       stroke-linecap="round"
       stroke-miterlimit="8"
       fill="none"
       id="rect14" /><rect
       x="910"
       y="449"
       width="85.999901"
       height="78.000099"
       stroke="#000000"
       stroke-width="2.0625"
       stroke-linecap="round"
       stroke-miterlimit="8"
       fill="none"
       id="rect16"
       style="fill:url(#pattern71);fill-opacity:1" /><rect
       x="996"
       y="449"
       width="85.000298"
       height="78.000099"
       stroke="#000000"
       stroke-width="2.0625"
       stroke-linecap="round"
       stroke-miterlimit="8"
       fill="none"
       id="rect17" /><rect
       x="1081"
       y="449"
       width="85.999901"
       height="78.000099"
       stroke="#000000"
       stroke-width="2.0625"
       stroke-linecap="round"
       stroke-miterlimit="8"
       fill="none"
       id="rect18" /><path
       d="M 0,0 3.60892e-4,557.333"
       stroke="#000000"
       stroke-width="4.35417"
       stroke-linejoin="round"
       stroke-miterlimit="10"
       fill="none"
       fill-rule="evenodd"
       transform="matrix(1,0,0,-1,824,805.333)"
       id="path18" /><path
       d="M 1167,248 V 805.333"
       stroke="#000000"
       stroke-width="4.35417"
       stroke-linejoin="round"
       stroke-miterlimit="10"
       fill="none"
       fill-rule="evenodd"
       id="path19" /><path
       d="m 830.645,324.976 h 331.715 c 0.6,0 1.07,0.482 1.07,1.004 0,0.562 -0.47,1.004 -1.07,1.004 H 830.645 c -0.601,0 -1.073,-0.442 -1.073,-1.004 0,-0.522 0.472,-1.004 1.073,-1.004 z m 16.6,11.243 -18.745,-10.239 18.745,-10.199 c 0.515,-0.281 1.158,-0.12 1.459,0.362 0.3,0.441 0.128,1.084 -0.386,1.365 l -17.159,9.355 v -1.726 l 17.159,9.355 c 0.514,0.281 0.686,0.884 0.386,1.366 -0.301,0.481 -0.944,0.642 -1.459,0.361 z m 298.505,-20.438 18.75,10.199 -18.75,10.239 c -0.51,0.281 -1.2,0.12 -1.45,-0.361 -0.3,-0.482 -0.13,-1.085 0.38,-1.366 l 17.16,-9.355 v 1.726 l -17.16,-9.355 c -0.51,-0.281 -0.68,-0.924 -0.38,-1.365 0.25,-0.482 0.94,-0.643 1.45,-0.362 z"
       stroke="#000000"
       stroke-width="0.6875"
       stroke-linejoin="bevel"
       stroke-miterlimit="10"
       fill-rule="evenodd"
       id="path20" /><text
       font-family="'Times New Roman', 'Times New Roman_MSFontService', sans-serif"
       font-weight="400"
       font-size="32px"
       id="text20"
       x="955.1001"
       y="312">D(t)</text><text
       font-family="'Times New Roman', 'Times New Roman_MSFontService', sans-serif"
       font-weight="400"
       font-size="32px"
       id="text21"
       x="845.10376"
       y="808">B(t)</text><text
       font-family="'Times New Roman', 'Times New Roman_MSFontService', sans-serif"
       font-weight="400"
       font-size="32px"
       id="text22"
       x="936.88977"
       y="808">M(t)</text><text
       font-family="Times New Roman,Times New Roman_MSFontService,sans-serif"
       font-weight="700"
       font-size="37"
       id="text23"
       style="font-style:normal;font-variant:normal;font-weight:bold;font-stretch:normal;font-size:37px;font-family:'Times New Roman', 'Times New Roman_MSFontService', sans-serif;-inkscape-font-specification:'Times New Roman, Times New Roman_MSFontService, sans-serif, Bold';font-variant-ligatures:normal;font-variant-caps:normal;font-variant-numeric:normal;font-variant-east-asian:normal"
       x="198.16728"
       y="197"><tspan
         id="tspan65"
         x="198.16728"
         y="197">Example III.1.a:</tspan></text><g
       id="g69"
       transform="translate(-75.00025)"><text
         font-family="Times New Roman,Times New Roman_MSFontService,sans-serif"
         font-weight="400"
         font-size="32"
         transform="translate(273.167,275)"
         id="text30"
         style="font-style:normal;font-variant:normal;font-weight:normal;font-stretch:normal;font-size:32px;font-family:'Times New Roman', 'Times New Roman_MSFontService', sans-serif;-inkscape-font-specification:'Times New Roman, Times New Roman_MSFontService, sans-serif, Normal';font-variant-ligatures:normal;font-variant-caps:normal;font-variant-numeric:normal;font-variant-east-asian:normal"><tspan
           id="tspan66"
           x="0"
           y="0">D(t)=4, TLIFE=5</tspan></text><text
         font-family="Times New Roman,Times New Roman_MSFontService,sans-serif"
         font-weight="400"
         font-size="32"
         transform="translate(273.167,312)"
         id="text35"
         style="font-style:normal;font-variant:normal;font-weight:normal;font-stretch:normal;font-size:32px;font-family:'Times New Roman', 'Times New Roman_MSFontService', sans-serif;-inkscape-font-specification:'Times New Roman, Times New Roman_MSFontService, sans-serif, Normal';font-variant-ligatures:normal;font-variant-caps:normal;font-variant-numeric:normal;font-variant-east-asian:normal"><tspan
           id="tspan67"
           x="0"
           y="0">M(t)=B(t)+1</tspan></text><text
         font-family="Times New Roman,Times New Roman_MSFontService,sans-serif"
         font-weight="400"
         font-size="32"
         transform="translate(273.167,349)"
         id="text37"
         style="font-style:normal;font-variant:normal;font-weight:normal;font-stretch:normal;font-size:32px;font-family:'Times New Roman', 'Times New Roman_MSFontService', sans-serif;-inkscape-font-specification:'Times New Roman, Times New Roman_MSFontService, sans-serif, Normal';font-variant-ligatures:normal;font-variant-caps:normal;font-variant-numeric:normal;font-variant-east-asian:normal"><tspan
           id="tspan68"
           x="0"
           y="0">DLIFE=DELIF=1</tspan></text></g><text
       font-family="Times New Roman,Times New Roman_MSFontService,sans-serif"
       font-weight="400"
       font-size="32"
       id="text39"
       style="font-style:normal;font-variant:normal;font-weight:normal;font-stretch:normal;font-size:32px;font-family:'Times New Roman', 'Times New Roman_MSFontService', sans-serif;-inkscape-font-specification:'Times New Roman, Times New Roman_MSFontService, sans-serif, Normal';font-variant-ligatures:normal;font-variant-caps:normal;font-variant-numeric:normal;font-variant-east-asian:normal"
       x="1497.5402"
       y="215"><tspan
         id="tspan64"
         x="1497.5402"
         y="215">Investment:</tspan></text><g
       id="g68"
       transform="translate(-74.999875)"><text
         font-family="'Times New Roman', 'Times New Roman_MSFontService', sans-serif"
         font-weight="400"
         font-size="32px"
         transform="translate(1554.67,326)"
         id="text41">Decommissioning</text><text
         font-family="Times New Roman,Times New Roman_MSFontService,sans-serif"
         font-weight="400"
         font-size="32"
         transform="translate(1554.67,363)"
         id="text42"
         style="font-style:normal;font-variant:normal;font-weight:normal;font-stretch:normal;font-size:32px;font-family:'Times New Roman', 'Times New Roman_MSFontService', sans-serif;-inkscape-font-specification:'Times New Roman, Times New Roman_MSFontService, sans-serif, Normal';font-variant-ligatures:normal;font-variant-caps:normal;font-variant-numeric:normal;font-variant-east-asian:normal"><tspan
           id="tspan63"
           x="0"
           y="0">and payment:</tspan></text></g><rect
       x="824"
       y="604"
       width="85.999901"
       height="78.000099"
       stroke="#000000"
       stroke-width="2.0625"
       stroke-linecap="round"
       stroke-miterlimit="8"
       fill="none"
       id="rect45" /><rect
       x="910"
       y="682"
       width="85.999901"
       height="77"
       stroke="#000000"
       stroke-width="2.0625"
       stroke-linecap="round"
       stroke-miterlimit="8"
       fill="none"
       id="rect46" /><rect
       x="996"
       y="682"
       width="85.000298"
       height="77"
       stroke="#000000"
       stroke-width="2.0625"
       stroke-linecap="round"
       stroke-miterlimit="8"
       fill="none"
       id="rect47" /><rect
       x="1081"
       y="604"
       width="85.999901"
       height="78.000099"
       stroke="#000000"
       stroke-width="2.0625"
       stroke-linecap="round"
       stroke-miterlimit="8"
       fill="none"
       id="rect48" /><rect
       x="1081"
       y="527"
       width="85.999901"
       height="77"
       stroke="#000000"
       stroke-width="2.0625"
       stroke-linecap="round"
       stroke-miterlimit="8"
       fill="none"
       id="rect49" /><rect
       x="1167"
       y="527"
       width="85.999901"
       height="77"
       stroke="#000000"
       stroke-width="2.0625"
       stroke-linecap="round"
       stroke-miterlimit="8"
       fill="none"
       id="rect50" /><rect
       x="1167"
       y="449"
       width="85.999901"
       height="78.000099"
       stroke="#000000"
       stroke-width="2.0625"
       stroke-linecap="round"
       stroke-miterlimit="8"
       fill="none"
       id="rect51" /><rect
       x="1253"
       y="449"
       width="85.999901"
       height="78.000099"
       stroke="#000000"
       stroke-width="2.0625"
       stroke-linecap="round"
       stroke-miterlimit="8"
       fill="none"
       id="rect52" /><rect
       x="996"
       y="604"
       width="85.000298"
       height="78.000099"
       stroke="#000000"
       stroke-width="2.0625"
       stroke-linecap="round"
       stroke-miterlimit="8"
       fill="none"
       id="rect53" /><rect
       x="1081"
       y="682"
       width="85.999901"
       height="77"
       stroke="#000000"
       stroke-width="2.0625"
       stroke-linecap="round"
       stroke-miterlimit="8"
       fill="none"
       id="rect55"
       style="fill:url(#pattern79);fill-opacity:1" /><rect
       x="1167"
       y="604"
       width="85.999901"
       height="78.000099"
       stroke="#000000"
       stroke-width="2.0625"
       stroke-linecap="round"
       stroke-miterlimit="8"
       fill="none"
       id="rect57"
       style="fill:url(#pattern78);fill-opacity:1" /><rect
       x="1253"
       y="527"
       width="85.999901"
       height="77"
       stroke="#000000"
       stroke-width="2.0625"
       stroke-linecap="round"
       stroke-miterlimit="8"
       fill="none"
       id="rect59"
       style="fill:url(#pattern77);fill-opacity:1" /><rect
       x="1339"
       y="449"
       width="85.999901"
       height="78.000099"
       stroke="#000000"
       stroke-width="2.0625"
       stroke-linecap="round"
       stroke-miterlimit="8"
       fill="none"
       id="rect61"
       style="fill:url(#pattern76);fill-opacity:1" /><rect
       x="1763"
       y="158"
       width="85.999901"
       height="77"
       stroke="#000000"
       stroke-width="2.0625"
       stroke-linecap="round"
       stroke-miterlimit="8"
       fill="none"
       id="rect44"
       style="fill:url(#pattern75);fill-opacity:1" /><rect
       x="1763"
       y="300"
       width="85.999901"
       height="77"
       stroke="#000000"
       stroke-width="2.0625"
       stroke-linecap="round"
       stroke-miterlimit="8"
       fill="none"
       id="rect63"
       style="fill:url(#pattern70);fill-opacity:1" /><path
       d="m 924.829,432.062 v 0 c 0.6,0 1.072,0.45 1.072,0.938 0,0.525 -0.472,0.937 -1.072,0.937 v 0 c -0.601,0 -1.073,-0.412 -1.073,-0.937 0,-0.488 0.472,-0.938 1.073,-0.938 z m 4.29,0 v 0 c 0.6,0 1.072,0.45 1.072,0.938 0,0.525 -0.472,0.937 -1.072,0.937 v 0 c -0.601,0 -1.073,-0.412 -1.073,-0.937 0,-0.488 0.472,-0.938 1.073,-0.938 z m 4.29,0 v 0 c 0.6,0 1.072,0.45 1.072,0.938 0,0.525 -0.472,0.937 -1.072,0.937 v 0 c -0.601,0 -1.073,-0.412 -1.073,-0.937 0,-0.488 0.472,-0.938 1.073,-0.938 z m 4.29,0 v 0 c 0.6,0 1.072,0.45 1.072,0.938 0,0.525 -0.472,0.937 -1.072,0.937 v 0 c -0.601,0 -1.073,-0.412 -1.073,-0.937 0,-0.488 0.472,-0.938 1.073,-0.938 z m 4.29,0 v 0 c 0.6,0 1.072,0.45 1.072,0.938 0,0.525 -0.472,0.937 -1.072,0.937 v 0 c -0.601,0 -1.073,-0.412 -1.073,-0.937 0,-0.488 0.472,-0.938 1.073,-0.938 z m 4.29,0 v 0 c 0.6,0 1.072,0.45 1.072,0.938 0,0.525 -0.472,0.937 -1.072,0.937 v 0 c -0.601,0 -1.073,-0.412 -1.073,-0.937 0,-0.488 0.472,-0.938 1.073,-0.938 z m 4.29,0 v 0 c 0.6,0 1.072,0.45 1.072,0.938 0,0.525 -0.472,0.937 -1.072,0.937 v 0 c -0.601,0 -1.073,-0.412 -1.073,-0.937 0,-0.488 0.472,-0.938 1.073,-0.938 z m 4.29,0 v 0 c 0.6,0 1.072,0.45 1.072,0.938 0,0.525 -0.472,0.937 -1.072,0.937 v 0 c -0.601,0 -1.073,-0.412 -1.073,-0.937 0,-0.488 0.472,-0.938 1.073,-0.938 z m 4.29,0 v 0 c 0.6,0 1.072,0.45 1.072,0.938 0,0.525 -0.472,0.937 -1.072,0.937 v 0 c -0.601,0 -1.073,-0.412 -1.073,-0.937 0,-0.488 0.472,-0.938 1.073,-0.938 z m 4.29,0 v 0 c 0.6,0 1.072,0.45 1.072,0.938 0,0.525 -0.472,0.937 -1.072,0.937 v 0 c -0.601,0 -1.073,-0.412 -1.073,-0.937 0,-0.488 0.472,-0.938 1.073,-0.938 z m 4.29,0 v 0 c 0.6,0 1.072,0.45 1.072,0.938 0,0.525 -0.472,0.937 -1.072,0.937 v 0 c -0.601,0 -1.073,-0.412 -1.073,-0.937 0,-0.488 0.472,-0.938 1.073,-0.938 z m 4.29,0 v 0 c 0.6,0 1.072,0.45 1.072,0.938 0,0.525 -0.472,0.937 -1.072,0.937 v 0 c -0.558,0 -1.073,-0.412 -1.073,-0.937 0,-0.488 0.515,-0.938 1.073,-0.938 z m 4.29,0 v 0 c 0.6,0 1.072,0.45 1.072,0.938 0,0.525 -0.472,0.937 -1.072,0.937 v 0 c -0.558,0 -1.073,-0.412 -1.073,-0.937 0,-0.488 0.515,-0.938 1.073,-0.938 z m 4.29,0 v 0 c 0.6,0 1.072,0.45 1.072,0.938 0,0.525 -0.472,0.937 -1.072,0.937 v 0 c -0.558,0 -1.073,-0.412 -1.073,-0.937 0,-0.488 0.515,-0.938 1.073,-0.938 z m 4.29,0 h 0.043 c 0.557,0 1.072,0.45 1.072,0.938 0,0.525 -0.515,0.937 -1.072,0.937 h -0.043 c -0.558,0 -1.073,-0.412 -1.073,-0.937 0,-0.488 0.515,-0.938 1.073,-0.938 z m 4.333,0 v 0 c 0.557,0 1.072,0.45 1.072,0.938 0,0.525 -0.515,0.937 -1.072,0.937 v 0 c -0.601,0 -1.073,-0.412 -1.073,-0.937 0,-0.488 0.472,-0.938 1.073,-0.938 z m 4.29,0 v 0 c 0.557,0 1.072,0.45 1.072,0.938 0,0.525 -0.515,0.937 -1.072,0.937 v 0 c -0.601,0 -1.073,-0.412 -1.073,-0.937 0,-0.488 0.472,-0.938 1.073,-0.938 z m 4.29,0 v 0 c 0.557,0 1.072,0.45 1.072,0.938 0,0.525 -0.515,0.937 -1.072,0.937 v 0 c -0.601,0 -1.073,-0.412 -1.073,-0.937 0,-0.488 0.472,-0.938 1.073,-0.938 z m 4.288,0 v 0 c 0.6,0 1.07,0.45 1.07,0.938 0,0.525 -0.47,0.937 -1.07,0.937 v 0 c -0.6,0 -1.07,-0.412 -1.07,-0.937 0,-0.488 0.47,-0.938 1.07,-0.938 z m 4.29,0 v 0 c 0.6,0 1.07,0.45 1.07,0.938 0,0.525 -0.47,0.937 -1.07,0.937 v 0 c -0.6,0 -1.07,-0.412 -1.07,-0.937 0,-0.488 0.47,-0.938 1.07,-0.938 z m 4.29,0 v 0 c 0.6,0 1.07,0.45 1.07,0.938 0,0.525 -0.47,0.937 -1.07,0.937 v 0 c -0.6,0 -1.07,-0.412 -1.07,-0.937 0,-0.488 0.47,-0.938 1.07,-0.938 z m 4.29,0 v 0 c 0.6,0 1.07,0.45 1.07,0.938 0,0.525 -0.47,0.937 -1.07,0.937 v 0 c -0.6,0 -1.07,-0.412 -1.07,-0.937 0,-0.488 0.47,-0.938 1.07,-0.938 z m 4.29,0 v 0 c 0.6,0 1.07,0.45 1.07,0.938 0,0.525 -0.47,0.937 -1.07,0.937 v 0 c -0.6,0 -1.07,-0.412 -1.07,-0.937 0,-0.488 0.47,-0.938 1.07,-0.938 z m 4.29,0 v 0 c 0.6,0 1.07,0.45 1.07,0.938 0,0.525 -0.47,0.937 -1.07,0.937 v 0 c -0.6,0 -1.07,-0.412 -1.07,-0.937 0,-0.488 0.47,-0.938 1.07,-0.938 z m 4.29,0 v 0 c 0.6,0 1.07,0.45 1.07,0.938 0,0.525 -0.47,0.937 -1.07,0.937 v 0 c -0.6,0 -1.07,-0.412 -1.07,-0.937 0,-0.488 0.47,-0.938 1.07,-0.938 z m 4.29,0 v 0 c 0.6,0 1.07,0.45 1.07,0.938 0,0.525 -0.47,0.937 -1.07,0.937 v 0 c -0.6,0 -1.07,-0.412 -1.07,-0.937 0,-0.488 0.47,-0.938 1.07,-0.938 z m 4.29,0 v 0 c 0.6,0 1.07,0.45 1.07,0.938 0,0.525 -0.47,0.937 -1.07,0.937 v 0 c -0.6,0 -1.07,-0.412 -1.07,-0.937 0,-0.488 0.47,-0.938 1.07,-0.938 z m 4.29,0 v 0 c 0.6,0 1.07,0.45 1.07,0.938 0,0.525 -0.47,0.937 -1.07,0.937 v 0 c -0.6,0 -1.07,-0.412 -1.07,-0.937 0,-0.488 0.47,-0.938 1.07,-0.938 z m 4.29,0 v 0 c 0.6,0 1.07,0.45 1.07,0.938 0,0.525 -0.47,0.937 -1.07,0.937 v 0 c -0.6,0 -1.07,-0.412 -1.07,-0.937 0,-0.488 0.47,-0.938 1.07,-0.938 z m 4.29,0 v 0 c 0.6,0 1.07,0.45 1.07,0.938 0,0.525 -0.47,0.937 -1.07,0.937 v 0 c -0.6,0 -1.07,-0.412 -1.07,-0.937 0,-0.488 0.47,-0.938 1.07,-0.938 z m 4.29,0 v 0 c 0.6,0 1.07,0.45 1.07,0.938 0,0.525 -0.47,0.937 -1.07,0.937 v 0 c -0.6,0 -1.07,-0.412 -1.07,-0.937 0,-0.488 0.47,-0.938 1.07,-0.938 z m 4.29,0 v 0 c 0.6,0 1.07,0.45 1.07,0.938 0,0.525 -0.47,0.937 -1.07,0.937 v 0 c -0.56,0 -1.07,-0.412 -1.07,-0.937 0,-0.488 0.51,-0.938 1.07,-0.938 z m 4.29,0 v 0 c 0.6,0 1.07,0.45 1.07,0.938 0,0.525 -0.47,0.937 -1.07,0.937 v 0 c -0.56,0 -1.07,-0.412 -1.07,-0.937 0,-0.488 0.51,-0.938 1.07,-0.938 z m 4.29,0 v 0 c 0.6,0 1.07,0.45 1.07,0.938 0,0.525 -0.47,0.937 -1.07,0.937 v 0 c -0.56,0 -1.07,-0.412 -1.07,-0.937 0,-0.488 0.51,-0.938 1.07,-0.938 z m 4.29,0 h 0.04 c 0.56,0 1.08,0.45 1.08,0.938 0,0.525 -0.52,0.937 -1.08,0.937 h -0.04 c -0.56,0 -1.07,-0.412 -1.07,-0.937 0,-0.488 0.51,-0.938 1.07,-0.938 z m 4.33,0 v 0 c 0.56,0 1.08,0.45 1.08,0.938 0,0.525 -0.52,0.937 -1.08,0.937 v 0 c -0.6,0 -1.07,-0.412 -1.07,-0.937 0,-0.488 0.47,-0.938 1.07,-0.938 z m 4.29,0 v 0 c 0.56,0 1.08,0.45 1.08,0.938 0,0.525 -0.52,0.937 -1.08,0.937 v 0 c -0.6,0 -1.07,-0.412 -1.07,-0.937 0,-0.488 0.47,-0.938 1.07,-0.938 z m 4.29,0 v 0 c 0.56,0 1.08,0.45 1.08,0.938 0,0.525 -0.52,0.937 -1.08,0.937 v 0 c -0.6,0 -1.07,-0.412 -1.07,-0.937 0,-0.488 0.47,-0.938 1.07,-0.938 z m 4.29,0 v 0 c 0.61,0 1.08,0.45 1.08,0.938 0,0.525 -0.47,0.937 -1.08,0.937 v 0 c -0.6,0 -1.07,-0.412 -1.07,-0.937 0,-0.488 0.47,-0.938 1.07,-0.938 z m 4.29,0 v 0 c 0.61,0 1.08,0.45 1.08,0.938 0,0.525 -0.47,0.937 -1.08,0.937 v 0 c -0.6,0 -1.07,-0.412 -1.07,-0.937 0,-0.488 0.47,-0.938 1.07,-0.938 z m 4.29,0 v 0 c 0.61,0 1.08,0.45 1.08,0.938 0,0.525 -0.47,0.937 -1.08,0.937 v 0 c -0.6,0 -1.07,-0.412 -1.07,-0.937 0,-0.488 0.47,-0.938 1.07,-0.938 z m 4.29,0 v 0 c 0.61,0 1.08,0.45 1.08,0.938 0,0.525 -0.47,0.937 -1.08,0.937 v 0 c -0.6,0 -1.07,-0.412 -1.07,-0.937 0,-0.488 0.47,-0.938 1.07,-0.938 z m 4.29,0 v 0 c 0.61,0 1.08,0.45 1.08,0.938 0,0.525 -0.47,0.937 -1.08,0.937 v 0 c -0.6,0 -1.07,-0.412 -1.07,-0.937 0,-0.488 0.47,-0.938 1.07,-0.938 z m 4.29,0 v 0 c 0.61,0 1.08,0.45 1.08,0.938 0,0.525 -0.47,0.937 -1.08,0.937 v 0 c -0.6,0 -1.07,-0.412 -1.07,-0.937 0,-0.488 0.47,-0.938 1.07,-0.938 z m 4.29,0 v 0 c 0.61,0 1.08,0.45 1.08,0.938 0,0.525 -0.47,0.937 -1.08,0.937 v 0 c -0.6,0 -1.07,-0.412 -1.07,-0.937 0,-0.488 0.47,-0.938 1.07,-0.938 z m 4.29,0 v 0 c 0.61,0 1.08,0.45 1.08,0.938 0,0.525 -0.47,0.937 -1.08,0.937 v 0 c -0.6,0 -1.07,-0.412 -1.07,-0.937 0,-0.488 0.47,-0.938 1.07,-0.938 z m 4.29,0 v 0 c 0.61,0 1.08,0.45 1.08,0.938 0,0.525 -0.47,0.937 -1.08,0.937 v 0 c -0.6,0 -1.07,-0.412 -1.07,-0.937 0,-0.488 0.47,-0.938 1.07,-0.938 z m 4.29,0 v 0 c 0.61,0 1.08,0.45 1.08,0.938 0,0.525 -0.47,0.937 -1.08,0.937 v 0 c -0.6,0 -1.07,-0.412 -1.07,-0.937 0,-0.488 0.47,-0.938 1.07,-0.938 z m 4.29,0 v 0 c 0.61,0 1.08,0.45 1.08,0.938 0,0.525 -0.47,0.937 -1.08,0.937 v 0 c -0.6,0 -1.07,-0.412 -1.07,-0.937 0,-0.488 0.47,-0.938 1.07,-0.938 z m 4.29,0 v 0 c 0.61,0 1.08,0.45 1.08,0.938 0,0.525 -0.47,0.937 -1.08,0.937 v 0 c -0.6,0 -1.07,-0.412 -1.07,-0.937 0,-0.488 0.47,-0.938 1.07,-0.938 z m 4.29,0 v 0 c 0.61,0 1.08,0.45 1.08,0.938 0,0.525 -0.47,0.937 -1.08,0.937 v 0 c -0.6,0 -1.07,-0.412 -1.07,-0.937 0,-0.488 0.47,-0.938 1.07,-0.938 z m 4.29,0 v 0 c 0.61,0 1.08,0.45 1.08,0.938 0,0.525 -0.47,0.937 -1.08,0.937 v 0 c -0.6,0 -1.07,-0.412 -1.07,-0.937 0,-0.488 0.47,-0.938 1.07,-0.938 z m 4.29,0 v 0 c 0.61,0 1.08,0.45 1.08,0.938 0,0.525 -0.47,0.937 -1.08,0.937 v 0 c -0.55,0 -1.07,-0.412 -1.07,-0.937 0,-0.488 0.52,-0.938 1.07,-0.938 z m 4.29,0 v 0 c 0.61,0 1.08,0.45 1.08,0.938 0,0.525 -0.47,0.937 -1.08,0.937 v 0 c -0.55,0 -1.07,-0.412 -1.07,-0.937 0,-0.488 0.52,-0.938 1.07,-0.938 z m 4.29,0 v 0 c 0.61,0 1.08,0.45 1.08,0.938 0,0.525 -0.47,0.937 -1.08,0.937 v 0 c -0.55,0 -1.07,-0.412 -1.07,-0.937 0,-0.488 0.52,-0.938 1.07,-0.938 z m 4.29,0 h 0.05 c 0.56,0 1.07,0.45 1.07,0.938 0,0.525 -0.51,0.937 -1.07,0.937 h -0.05 c -0.55,0 -1.07,-0.412 -1.07,-0.937 0,-0.488 0.52,-0.938 1.07,-0.938 z m 4.34,0 v 0 c 0.56,0 1.07,0.45 1.07,0.938 0,0.525 -0.51,0.937 -1.07,0.937 v 0 c -0.6,0 -1.08,-0.412 -1.08,-0.937 0,-0.488 0.48,-0.938 1.08,-0.938 z m 4.29,0 v 0 c 0.56,0 1.07,0.45 1.07,0.938 0,0.525 -0.51,0.937 -1.07,0.937 v 0 c -0.6,0 -1.08,-0.412 -1.08,-0.937 0,-0.488 0.48,-0.938 1.08,-0.938 z m 4.29,0 v 0 c 0.6,0 1.07,0.45 1.07,0.938 0,0.525 -0.47,0.937 -1.07,0.937 v 0 c -0.6,0 -1.08,-0.412 -1.08,-0.937 0,-0.488 0.48,-0.938 1.08,-0.938 z m 4.29,0 v 0 c 0.6,0 1.07,0.45 1.07,0.938 0,0.525 -0.47,0.937 -1.07,0.937 v 0 c -0.6,0 -1.08,-0.412 -1.08,-0.937 0,-0.488 0.48,-0.938 1.08,-0.938 z m 4.29,0 v 0 c 0.6,0 1.07,0.45 1.07,0.938 0,0.525 -0.47,0.937 -1.07,0.937 v 0 c -0.6,0 -1.08,-0.412 -1.08,-0.937 0,-0.488 0.48,-0.938 1.08,-0.938 z m 4.29,0 v 0 c 0.6,0 1.07,0.45 1.07,0.938 0,0.525 -0.47,0.937 -1.07,0.937 v 0 c -0.6,0 -1.08,-0.412 -1.08,-0.937 0,-0.488 0.48,-0.938 1.08,-0.938 z m 4.29,0 v 0 c 0.6,0 1.07,0.45 1.07,0.938 0,0.525 -0.47,0.937 -1.07,0.937 v 0 c -0.6,0 -1.08,-0.412 -1.08,-0.937 0,-0.488 0.48,-0.938 1.08,-0.938 z m 4.29,0 v 0 c 0.6,0 1.07,0.45 1.07,0.938 0,0.525 -0.47,0.937 -1.07,0.937 v 0 c -0.6,0 -1.08,-0.412 -1.08,-0.937 0,-0.488 0.48,-0.938 1.08,-0.938 z m 4.29,0 v 0 c 0.6,0 1.07,0.45 1.07,0.938 0,0.525 -0.47,0.937 -1.07,0.937 v 0 c -0.6,0 -1.08,-0.412 -1.08,-0.937 0,-0.488 0.48,-0.938 1.08,-0.938 z m 4.29,0 v 0 c 0.6,0 1.07,0.45 1.07,0.938 0,0.525 -0.47,0.937 -1.07,0.937 v 0 c -0.6,0 -1.08,-0.412 -1.08,-0.937 0,-0.488 0.48,-0.938 1.08,-0.938 z m 4.29,0 v 0 c 0.6,0 1.07,0.45 1.07,0.938 0,0.525 -0.47,0.937 -1.07,0.937 v 0 c -0.6,0 -1.08,-0.412 -1.08,-0.937 0,-0.488 0.48,-0.938 1.08,-0.938 z m 4.29,0 v 0 c 0.6,0 1.07,0.45 1.07,0.938 0,0.525 -0.47,0.937 -1.07,0.937 v 0 c -0.6,0 -1.08,-0.412 -1.08,-0.937 0,-0.488 0.48,-0.938 1.08,-0.938 z m 4.29,0 v 0 c 0.6,0 1.07,0.45 1.07,0.938 0,0.525 -0.47,0.937 -1.07,0.937 v 0 c -0.6,0 -1.08,-0.412 -1.08,-0.937 0,-0.488 0.48,-0.938 1.08,-0.938 z m 4.29,0 v 0 c 0.6,0 1.07,0.45 1.07,0.938 0,0.525 -0.47,0.937 -1.07,0.937 v 0 c -0.6,0 -1.08,-0.412 -1.08,-0.937 0,-0.488 0.48,-0.938 1.08,-0.938 z m 4.29,0 v 0 c 0.6,0 1.07,0.45 1.07,0.938 0,0.525 -0.47,0.937 -1.07,0.937 v 0 c -0.6,0 -1.08,-0.412 -1.08,-0.937 0,-0.488 0.48,-0.938 1.08,-0.938 z m 4.29,0 v 0 c 0.6,0 1.07,0.45 1.07,0.938 0,0.525 -0.47,0.937 -1.07,0.937 v 0 c -0.6,0 -1.08,-0.412 -1.08,-0.937 0,-0.488 0.48,-0.938 1.08,-0.938 z m 4.29,0 v 0 c 0.6,0 1.07,0.45 1.07,0.938 0,0.525 -0.47,0.937 -1.07,0.937 v 0 c -0.56,0 -1.08,-0.412 -1.08,-0.937 0,-0.488 0.52,-0.938 1.08,-0.938 z m 4.29,0 v 0 c 0.6,0 1.07,0.45 1.07,0.938 0,0.525 -0.47,0.937 -1.07,0.937 v 0 c -0.56,0 -1.08,-0.412 -1.08,-0.937 0,-0.488 0.52,-0.938 1.08,-0.938 z m 4.29,0 h 0.04 c 0.56,0 1.07,0.45 1.07,0.938 0,0.525 -0.51,0.937 -1.07,0.937 h -0.04 c -0.56,0 -1.08,-0.412 -1.08,-0.937 0,-0.488 0.52,-0.938 1.08,-0.938 z m 4.33,0 v 0 c 0.56,0 1.07,0.45 1.07,0.938 0,0.525 -0.51,0.937 -1.07,0.937 v 0 c -0.6,0 -1.07,-0.412 -1.07,-0.937 0,-0.488 0.47,-0.938 1.07,-0.938 z m 4.29,0 v 0 c 0.56,0 1.07,0.45 1.07,0.938 0,0.525 -0.51,0.937 -1.07,0.937 v 0 c -0.6,0 -1.07,-0.412 -1.07,-0.937 0,-0.488 0.47,-0.938 1.07,-0.938 z m 4.29,0 v 0 c 0.56,0 1.07,0.45 1.07,0.938 0,0.525 -0.51,0.937 -1.07,0.937 v 0 c -0.6,0 -1.07,-0.412 -1.07,-0.937 0,-0.488 0.47,-0.938 1.07,-0.938 z m 4.29,0 v 0 c 0.6,0 1.07,0.45 1.07,0.938 0,0.525 -0.47,0.937 -1.07,0.937 v 0 c -0.6,0 -1.07,-0.412 -1.07,-0.937 0,-0.488 0.47,-0.938 1.07,-0.938 z m 4.29,0 v 0 c 0.6,0 1.07,0.45 1.07,0.938 0,0.525 -0.47,0.937 -1.07,0.937 v 0 c -0.6,0 -1.07,-0.412 -1.07,-0.937 0,-0.488 0.47,-0.938 1.07,-0.938 z m 4.29,0 v 0 c 0.6,0 1.07,0.45 1.07,0.938 0,0.525 -0.47,0.937 -1.07,0.937 v 0 c -0.6,0 -1.07,-0.412 -1.07,-0.937 0,-0.488 0.47,-0.938 1.07,-0.938 z m 4.29,0 v 0 c 0.6,0 1.07,0.45 1.07,0.938 0,0.525 -0.47,0.937 -1.07,0.937 v 0 c -0.6,0 -1.07,-0.412 -1.07,-0.937 0,-0.488 0.47,-0.938 1.07,-0.938 z m 4.29,0 v 0 c 0.6,0 1.07,0.45 1.07,0.938 0,0.525 -0.47,0.937 -1.07,0.937 v 0 c -0.6,0 -1.07,-0.412 -1.07,-0.937 0,-0.488 0.47,-0.938 1.07,-0.938 z m 4.29,0 v 0 c 0.6,0 1.07,0.45 1.07,0.938 0,0.525 -0.47,0.937 -1.07,0.937 v 0 c -0.6,0 -1.07,-0.412 -1.07,-0.937 0,-0.488 0.47,-0.938 1.07,-0.938 z m 4.29,0 v 0 c 0.6,0 1.07,0.45 1.07,0.938 0,0.525 -0.47,0.937 -1.07,0.937 v 0 c -0.6,0 -1.07,-0.412 -1.07,-0.937 0,-0.488 0.47,-0.938 1.07,-0.938 z m 4.29,0 v 0 c 0.6,0 1.07,0.45 1.07,0.938 0,0.525 -0.47,0.937 -1.07,0.937 v 0 c -0.6,0 -1.07,-0.412 -1.07,-0.937 0,-0.488 0.47,-0.938 1.07,-0.938 z m 4.29,0 v 0 c 0.6,0 1.07,0.45 1.07,0.938 0,0.525 -0.47,0.937 -1.07,0.937 v 0 c -0.6,0 -1.07,-0.412 -1.07,-0.937 0,-0.488 0.47,-0.938 1.07,-0.938 z m 4.29,0 v 0 c 0.6,0 1.07,0.45 1.07,0.938 0,0.525 -0.47,0.937 -1.07,0.937 v 0 c -0.6,0 -1.07,-0.412 -1.07,-0.937 0,-0.488 0.47,-0.938 1.07,-0.938 z m 4.29,0 v 0 c 0.6,0 1.07,0.45 1.07,0.938 0,0.525 -0.47,0.937 -1.07,0.937 v 0 c -0.6,0 -1.07,-0.412 -1.07,-0.937 0,-0.488 0.47,-0.938 1.07,-0.938 z m 4.29,0 v 0 c 0.6,0 1.07,0.45 1.07,0.938 0,0.525 -0.47,0.937 -1.07,0.937 v 0 c -0.6,0 -1.07,-0.412 -1.07,-0.937 0,-0.488 0.47,-0.938 1.07,-0.938 z m 4.29,0 v 0 c 0.6,0 1.07,0.45 1.07,0.938 0,0.525 -0.47,0.937 -1.07,0.937 v 0 c -0.6,0 -1.07,-0.412 -1.07,-0.937 0,-0.488 0.47,-0.938 1.07,-0.938 z m 4.29,0 v 0 c 0.6,0 1.07,0.45 1.07,0.938 0,0.525 -0.47,0.937 -1.07,0.937 v 0 c -0.56,0 -1.07,-0.412 -1.07,-0.937 0,-0.488 0.51,-0.938 1.07,-0.938 z m 4.29,0 v 0 c 0.6,0 1.07,0.45 1.07,0.938 0,0.525 -0.47,0.937 -1.07,0.937 v 0 c -0.56,0 -1.07,-0.412 -1.07,-0.937 0,-0.488 0.51,-0.938 1.07,-0.938 z m 4.29,0 h 0.04 c 0.56,0 1.08,0.45 1.08,0.938 0,0.525 -0.52,0.937 -1.08,0.937 h -0.04 c -0.56,0 -1.07,-0.412 -1.07,-0.937 0,-0.488 0.51,-0.938 1.07,-0.938 z M 927.66,440.5 910.5,433 l 17.16,-7.5 z m 394.68,-15 17.16,7.5 -17.16,7.5 z"
       stroke="#000000"
       stroke-width="0.6875"
       stroke-linejoin="bevel"
       stroke-miterlimit="10"
       fill-rule="evenodd"
       id="path63" /><text
       font-family="'Times New Roman', 'Times New Roman_MSFontService', sans-serif"
       font-weight="400"
       font-size="32px"
       id="text63"
       x="1055.9403"
       y="419">TLIFE</text></g></svg>
