<?xml version="1.0" encoding="UTF-8" standalone="no"?>
<svg
   width="1772.2548"
   height="707.10938"
   xml:space="preserve"
   overflow="hidden"
   version="1.1"
   id="svg77"
   xmlns:xlink="http://www.w3.org/1999/xlink"
   xmlns="http://www.w3.org/2000/svg"
   xmlns:svg="http://www.w3.org/2000/svg"><defs
     id="defs77"><pattern
       xlink:href="#Strips1_1.5"
       preserveAspectRatio="xMidYMid"
       id="pattern101"
       patternTransform="matrix(-3.5355339,3.5355339,-3.5355339,-3.5355339,0,0)"
       x="0"
       y="0" /><pattern
       xlink:href="#Strips1_1.5"
       preserveAspectRatio="xMidYMid"
       id="pattern100"
       patternTransform="matrix(-3.5355339,3.5355339,-3.5355339,-3.5355339,0,0)"
       x="0"
       y="0" /><pattern
       xlink:href="#Strips1_1.5"
       preserveAspectRatio="xMidYMid"
       id="pattern99"
       patternTransform="matrix(-3.5355339,3.5355339,-3.5355339,-3.5355339,0,0)"
       x="0"
       y="0" /><pattern
       xlink:href="#Strips1_1.5"
       preserveAspectRatio="xMidYMid"
       id="pattern98"
       patternTransform="matrix(-3.5355339,3.5355339,-3.5355339,-3.5355339,0,0)"
       x="0"
       y="0" /><pattern
       xlink:href="#Strips1_1.5"
       preserveAspectRatio="xMidYMid"
       id="pattern97"
       patternTransform="matrix(-3.5355339,3.5355339,-3.5355339,-3.5355339,0,0)"
       x="0"
       y="0" /><pattern
       xlink:href="#Strips1_1.5"
       preserveAspectRatio="xMidYMid"
       id="pattern96"
       patternTransform="matrix(3.5355339,3.5355339,-3.5355339,3.5355339,0,0)"
       x="0"
       y="0" /><pattern
       xlink:href="#Strips1_1.5"
       preserveAspectRatio="xMidYMid"
       id="pattern95"
       patternTransform="matrix(3.5355339,3.5355339,-3.5355339,3.5355339,0,0)"
       x="0"
       y="0" /><pattern
       xlink:href="#Strips1_1.5"
       preserveAspectRatio="xMidYMid"
       id="pattern94"
       patternTransform="matrix(3.5355339,3.5355339,-3.5355339,3.5355339,0,0)"
       x="0"
       y="0" /><pattern
       xlink:href="#Strips1_1.5"
       preserveAspectRatio="xMidYMid"
       id="pattern93"
       patternTransform="matrix(3.5355339,3.5355339,-3.5355339,3.5355339,0,0)"
       x="0"
       y="0" /><pattern
       xlink:href="#Strips1_1.5"
       preserveAspectRatio="xMidYMid"
       id="pattern92"
       patternTransform="matrix(3.5355339,3.5355339,-3.5355339,3.5355339,0,0)"
       x="0"
       y="0" /><pattern
       patternUnits="userSpaceOnUse"
       width="2.5"
       height="1"
       patternTransform="translate(0,0) scale(2,2)"
       preserveAspectRatio="xMidYMid"
       id="Strips1_1.5"
       style="fill:#000000">
      <rect
   style="stroke:none"
   x="0"
   y="-0.5"
   width="1"
   height="2"
   id="rect140" />
    </pattern><pattern
       xlink:href="#pattern89"
       preserveAspectRatio="xMidYMid"
       id="pattern90"
       patternTransform="scale(5)"
       x="0"
       y="0" /><pattern
       style="fill:#000000"
       patternUnits="userSpaceOnUse"
       width="2"
       height="2"
       patternTransform="translate(0,0) scale(10,10)"
       id="pattern89"
       preserveAspectRatio="xMidYMid">
      <rect
   style="stroke:none"
   x="0"
   y="0"
   width="1"
   height="1"
   id="rect88" />
      <rect
   style="stroke:none"
   x="1"
   y="1"
   width="1"
   height="1"
   id="rect89" />
    </pattern><pattern
       xlink:href="#pattern84"
       preserveAspectRatio="xMidYMid"
       id="pattern87"
       patternTransform="scale(5)"
       x="0"
       y="0" /><pattern
       xlink:href="#pattern84"
       preserveAspectRatio="xMidYMid"
       id="pattern86"
       patternTransform="scale(5)"
       x="0"
       y="0" /><pattern
       xlink:href="#pattern84"
       preserveAspectRatio="xMidYMid"
       id="pattern85"
       patternTransform="scale(5)"
       x="0"
       y="0" /><pattern
       style="fill:#000000"
       patternUnits="userSpaceOnUse"
       width="2"
       height="2"
       patternTransform="translate(0,0) scale(10,10)"
       id="pattern84"
       preserveAspectRatio="xMidYMid">
      <rect
   style="stroke:none"
   x="0"
   y="0"
   width="1"
   height="1"
   id="rect83" />
      <rect
   style="stroke:none"
   x="1"
   y="1"
   width="1"
   height="1"
   id="rect84" />
    </pattern><pattern
       xlink:href="#Checkerboard"
       preserveAspectRatio="xMidYMid"
       id="pattern82"
       patternTransform="scale(5)"
       x="0"
       y="0" /><pattern
       style="fill:#000000"
       patternUnits="userSpaceOnUse"
       width="2"
       height="2"
       patternTransform="translate(0,0) scale(10,10)"
       id="Checkerboard"
       preserveAspectRatio="xMidYMid">
      <rect
   style="stroke:none"
   x="0"
   y="0"
   width="1"
   height="1"
   id="rect209" />
      <rect
   style="stroke:none"
   x="1"
   y="1"
   width="1"
   height="1"
   id="rect211" />
    </pattern></defs><g
     transform="translate(-217.55368,-205.12757)"
     id="g77"><rect
       x="218.28658"
       y="205.86047"
       width="1770.7889"
       height="705.64355"
       stroke="#000000"
       stroke-width="1.4658"
       stroke-miterlimit="8"
       fill="none"
       id="rect1" /><path
       d="M 488,826 H 1697.08"
       stroke="#000000"
       stroke-width="4.125"
       stroke-linejoin="round"
       stroke-miterlimit="10"
       fill="none"
       fill-rule="evenodd"
       id="path2" /><rect
       x="639"
       y="742"
       width="83.999901"
       height="83.999901"
       stroke="#000000"
       stroke-width="2.0625"
       stroke-linecap="round"
       stroke-miterlimit="8"
       fill="none"
       id="rect4"
       style="fill:url(#pattern94);fill-opacity:1" /><rect
       x="723"
       y="742"
       width="84.000198"
       height="83.999901"
       stroke="#000000"
       stroke-width="2.0625"
       stroke-linecap="round"
       stroke-miterlimit="8"
       fill="none"
       id="rect5" /><rect
       x="807"
       y="742"
       width="83.999901"
       height="83.999901"
       stroke="#000000"
       stroke-width="2.0625"
       stroke-linecap="round"
       stroke-miterlimit="8"
       fill="none"
       id="rect6" /><rect
       x="723"
       y="658"
       width="84.000198"
       height="84.000198"
       stroke="#000000"
       stroke-width="2.0625"
       stroke-linecap="round"
       stroke-miterlimit="8"
       fill="none"
       id="rect8"
       style="fill:url(#pattern95);fill-opacity:1" /><rect
       x="807"
       y="658"
       width="83.999901"
       height="84.000198"
       stroke="#000000"
       stroke-width="2.0625"
       stroke-linecap="round"
       stroke-miterlimit="8"
       fill="none"
       id="rect9" /><rect
       x="891"
       y="658"
       width="83.999901"
       height="84.000198"
       stroke="#000000"
       stroke-width="2.0625"
       stroke-linecap="round"
       stroke-miterlimit="8"
       fill="none"
       id="rect10" /><rect
       x="891"
       y="489"
       width="83.999901"
       height="84.999901"
       stroke="#000000"
       stroke-width="2.0625"
       stroke-linecap="round"
       stroke-miterlimit="8"
       fill="none"
       id="rect12"
       style="fill:url(#pattern93);fill-opacity:1" /><rect
       x="891"
       y="574"
       width="83.999901"
       height="83.999901"
       stroke="#000000"
       stroke-width="2.0625"
       stroke-linecap="round"
       stroke-miterlimit="8"
       fill="none"
       id="rect13" /><rect
       x="975"
       y="574"
       width="84.000198"
       height="83.999901"
       stroke="#000000"
       stroke-width="2.0625"
       stroke-linecap="round"
       stroke-miterlimit="8"
       fill="none"
       id="rect14" /><rect
       x="1865.9999"
       y="295"
       width="84.000496"
       height="84.000191"
       stroke="#000000"
       stroke-width="2.06251"
       stroke-linecap="round"
       stroke-miterlimit="8"
       fill="none"
       id="rect16"
       style="fill:url(#pattern92);fill-opacity:1" /><rect
       x="975"
       y="489"
       width="84.000198"
       height="84.999901"
       stroke="#000000"
       stroke-width="2.0625"
       stroke-linecap="round"
       stroke-miterlimit="8"
       fill="none"
       id="rect17" /><rect
       x="1059"
       y="489"
       width="83.999901"
       height="84.999901"
       stroke="#000000"
       stroke-width="2.0625"
       stroke-linecap="round"
       stroke-miterlimit="8"
       fill="none"
       id="rect18" /><path
       d="M 0,0 3.60892e-4,606.146"
       stroke="#000000"
       stroke-width="4.125"
       stroke-linejoin="round"
       stroke-miterlimit="10"
       fill="none"
       fill-rule="evenodd"
       transform="matrix(1,0,0,-1,807,876.146)"
       id="path18" /><path
       d="M 1227,270 V 876.146"
       stroke="#000000"
       stroke-width="4.125"
       stroke-linejoin="round"
       stroke-miterlimit="10"
       fill="none"
       fill-rule="evenodd"
       id="path19" /><path
       d="m 821.528,293.937 v 0 c 0.588,0 1.05,0.51 1.05,1.063 0,0.595 -0.462,1.062 -1.05,1.062 v 0 c -0.588,0 -1.05,-0.467 -1.05,-1.062 0,-0.553 0.462,-1.063 1.05,-1.063 z m 4.2,0 v 0 c 0.588,0 1.05,0.51 1.05,1.063 0,0.595 -0.462,1.062 -1.05,1.062 v 0 c -0.588,0 -1.05,-0.467 -1.05,-1.062 0,-0.553 0.462,-1.063 1.05,-1.063 z m 4.2,0 v 0 c 0.588,0 1.05,0.51 1.05,1.063 0,0.595 -0.462,1.062 -1.05,1.062 v 0 c -0.588,0 -1.05,-0.467 -1.05,-1.062 0,-0.553 0.462,-1.063 1.05,-1.063 z m 4.2,0 v 0 c 0.588,0 1.05,0.51 1.05,1.063 0,0.595 -0.462,1.062 -1.05,1.062 v 0 c -0.588,0 -1.05,-0.467 -1.05,-1.062 0,-0.553 0.462,-1.063 1.05,-1.063 z m 4.2,0 v 0 c 0.588,0 1.05,0.51 1.05,1.063 0,0.595 -0.462,1.062 -1.05,1.062 v 0 c -0.588,0 -1.05,-0.467 -1.05,-1.062 0,-0.553 0.462,-1.063 1.05,-1.063 z m 4.2,0 v 0 c 0.588,0 1.05,0.51 1.05,1.063 0,0.595 -0.462,1.062 -1.05,1.062 v 0 c -0.588,0 -1.05,-0.467 -1.05,-1.062 0,-0.553 0.462,-1.063 1.05,-1.063 z m 4.2,0 v 0 c 0.588,0 1.05,0.51 1.05,1.063 0,0.595 -0.462,1.062 -1.05,1.062 v 0 c -0.588,0 -1.05,-0.467 -1.05,-1.062 0,-0.553 0.462,-1.063 1.05,-1.063 z m 4.2,0 v 0 c 0.588,0 1.05,0.51 1.05,1.063 0,0.595 -0.462,1.062 -1.05,1.062 v 0 c -0.588,0 -1.05,-0.467 -1.05,-1.062 0,-0.553 0.462,-1.063 1.05,-1.063 z m 4.2,0 v 0 c 0.588,0 1.05,0.51 1.05,1.063 0,0.595 -0.462,1.062 -1.05,1.062 v 0 c -0.588,0 -1.05,-0.467 -1.05,-1.062 0,-0.553 0.462,-1.063 1.05,-1.063 z m 4.2,0 v 0 c 0.588,0 1.05,0.51 1.05,1.063 0,0.595 -0.462,1.062 -1.05,1.062 v 0 c -0.588,0 -1.05,-0.467 -1.05,-1.062 0,-0.553 0.462,-1.063 1.05,-1.063 z m 4.2,0 v 0 c 0.588,0 1.05,0.51 1.05,1.063 0,0.595 -0.462,1.062 -1.05,1.062 v 0 c -0.588,0 -1.05,-0.467 -1.05,-1.062 0,-0.553 0.462,-1.063 1.05,-1.063 z m 4.2,0 v 0 c 0.588,0 1.05,0.51 1.05,1.063 0,0.595 -0.462,1.062 -1.05,1.062 v 0 c -0.546,0 -1.05,-0.467 -1.05,-1.062 0,-0.553 0.504,-1.063 1.05,-1.063 z m 4.2,0 v 0 c 0.588,0 1.05,0.51 1.05,1.063 0,0.595 -0.462,1.062 -1.05,1.062 v 0 c -0.546,0 -1.05,-0.467 -1.05,-1.062 0,-0.553 0.504,-1.063 1.05,-1.063 z m 4.2,0 v 0 c 0.588,0 1.05,0.51 1.05,1.063 0,0.595 -0.462,1.062 -1.05,1.062 v 0 c -0.546,0 -1.05,-0.467 -1.05,-1.062 0,-0.553 0.504,-1.063 1.05,-1.063 z m 4.2,0 h 0.042 c 0.546,0 1.05,0.51 1.05,1.063 0,0.595 -0.504,1.062 -1.05,1.062 h -0.042 c -0.546,0 -1.05,-0.467 -1.05,-1.062 0,-0.553 0.504,-1.063 1.05,-1.063 z m 4.242,0 v 0 c 0.546,0 1.05,0.51 1.05,1.063 0,0.595 -0.504,1.062 -1.05,1.062 v 0 c -0.588,0 -1.05,-0.467 -1.05,-1.062 0,-0.553 0.462,-1.063 1.05,-1.063 z m 4.2,0 v 0 c 0.546,0 1.05,0.51 1.05,1.063 0,0.595 -0.504,1.062 -1.05,1.062 v 0 c -0.588,0 -1.05,-0.467 -1.05,-1.062 0,-0.553 0.462,-1.063 1.05,-1.063 z m 4.2,0 v 0 c 0.546,0 1.05,0.51 1.05,1.063 0,0.595 -0.504,1.062 -1.05,1.062 v 0 c -0.588,0 -1.05,-0.467 -1.05,-1.062 0,-0.553 0.462,-1.063 1.05,-1.063 z m 4.2,0 v 0 c 0.588,0 1.05,0.51 1.05,1.063 0,0.595 -0.462,1.062 -1.05,1.062 v 0 c -0.588,0 -1.05,-0.467 -1.05,-1.062 0,-0.553 0.462,-1.063 1.05,-1.063 z m 4.2,0 v 0 c 0.588,0 1.05,0.51 1.05,1.063 0,0.595 -0.462,1.062 -1.05,1.062 v 0 c -0.588,0 -1.05,-0.467 -1.05,-1.062 0,-0.553 0.462,-1.063 1.05,-1.063 z m 4.2,0 v 0 c 0.588,0 1.05,0.51 1.05,1.063 0,0.595 -0.462,1.062 -1.05,1.062 v 0 c -0.588,0 -1.05,-0.467 -1.05,-1.062 0,-0.553 0.462,-1.063 1.05,-1.063 z m 4.2,0 v 0 c 0.588,0 1.05,0.51 1.05,1.063 0,0.595 -0.462,1.062 -1.05,1.062 v 0 c -0.588,0 -1.05,-0.467 -1.05,-1.062 0,-0.553 0.462,-1.063 1.05,-1.063 z m 4.2,0 v 0 c 0.588,0 1.05,0.51 1.05,1.063 0,0.595 -0.462,1.062 -1.05,1.062 v 0 c -0.588,0 -1.05,-0.467 -1.05,-1.062 0,-0.553 0.462,-1.063 1.05,-1.063 z m 4.2,0 v 0 c 0.588,0 1.05,0.51 1.05,1.063 0,0.595 -0.462,1.062 -1.05,1.062 v 0 c -0.588,0 -1.05,-0.467 -1.05,-1.062 0,-0.553 0.462,-1.063 1.05,-1.063 z m 4.2,0 v 0 c 0.588,0 1.05,0.51 1.05,1.063 0,0.595 -0.462,1.062 -1.05,1.062 v 0 c -0.588,0 -1.05,-0.467 -1.05,-1.062 0,-0.553 0.462,-1.063 1.05,-1.063 z m 4.2,0 v 0 c 0.588,0 1.05,0.51 1.05,1.063 0,0.595 -0.462,1.062 -1.05,1.062 v 0 c -0.588,0 -1.05,-0.467 -1.05,-1.062 0,-0.553 0.462,-1.063 1.05,-1.063 z m 4.2,0 v 0 c 0.588,0 1.05,0.51 1.05,1.063 0,0.595 -0.462,1.062 -1.05,1.062 v 0 c -0.588,0 -1.05,-0.467 -1.05,-1.062 0,-0.553 0.462,-1.063 1.05,-1.063 z m 4.2,0 v 0 c 0.588,0 1.05,0.51 1.05,1.063 0,0.595 -0.462,1.062 -1.05,1.062 v 0 c -0.588,0 -1.05,-0.467 -1.05,-1.062 0,-0.553 0.462,-1.063 1.05,-1.063 z m 4.2,0 v 0 c 0.588,0 1.05,0.51 1.05,1.063 0,0.595 -0.462,1.062 -1.05,1.062 v 0 c -0.588,0 -1.05,-0.467 -1.05,-1.062 0,-0.553 0.462,-1.063 1.05,-1.063 z m 4.2,0 v 0 c 0.588,0 1.05,0.51 1.05,1.063 0,0.595 -0.462,1.062 -1.05,1.062 v 0 c -0.588,0 -1.05,-0.467 -1.05,-1.062 0,-0.553 0.462,-1.063 1.05,-1.063 z m 4.2,0 v 0 c 0.588,0 1.05,0.51 1.05,1.063 0,0.595 -0.462,1.062 -1.05,1.062 v 0 c -0.588,0 -1.05,-0.467 -1.05,-1.062 0,-0.553 0.462,-1.063 1.05,-1.063 z m 4.2,0 v 0 c 0.588,0 1.05,0.51 1.05,1.063 0,0.595 -0.462,1.062 -1.05,1.062 v 0 c -0.546,0 -1.05,-0.467 -1.05,-1.062 0,-0.553 0.504,-1.063 1.05,-1.063 z m 4.2,0 v 0 c 0.588,0 1.05,0.51 1.05,1.063 0,0.595 -0.462,1.062 -1.05,1.062 v 0 c -0.546,0 -1.05,-0.467 -1.05,-1.062 0,-0.553 0.504,-1.063 1.05,-1.063 z m 4.2,0 v 0 c 0.588,0 1.05,0.51 1.05,1.063 0,0.595 -0.462,1.062 -1.05,1.062 v 0 c -0.546,0 -1.05,-0.467 -1.05,-1.062 0,-0.553 0.504,-1.063 1.05,-1.063 z m 4.2,0 h 0.042 c 0.546,0 1.05,0.51 1.05,1.063 0,0.595 -0.504,1.062 -1.05,1.062 h -0.042 c -0.546,0 -1.05,-0.467 -1.05,-1.062 0,-0.553 0.504,-1.063 1.05,-1.063 z m 4.242,0 v 0 c 0.546,0 1.05,0.51 1.05,1.063 0,0.595 -0.504,1.062 -1.05,1.062 v 0 c -0.588,0 -1.05,-0.467 -1.05,-1.062 0,-0.553 0.462,-1.063 1.05,-1.063 z m 4.2,0 v 0 c 0.546,0 1.05,0.51 1.05,1.063 0,0.595 -0.504,1.062 -1.05,1.062 v 0 c -0.588,0 -1.05,-0.467 -1.05,-1.062 0,-0.553 0.462,-1.063 1.05,-1.063 z m 4.2,0 v 0 c 0.546,0 1.05,0.51 1.05,1.063 0,0.595 -0.504,1.062 -1.05,1.062 v 0 c -0.588,0 -1.05,-0.467 -1.05,-1.062 0,-0.553 0.462,-1.063 1.05,-1.063 z m 4.2,0 v 0 c 0.588,0 1.05,0.51 1.05,1.063 0,0.595 -0.462,1.062 -1.05,1.062 v 0 c -0.588,0 -1.05,-0.467 -1.05,-1.062 0,-0.553 0.462,-1.063 1.05,-1.063 z m 4.2,0 v 0 c 0.588,0 1.05,0.51 1.05,1.063 0,0.595 -0.462,1.062 -1.05,1.062 v 0 c -0.588,0 -1.05,-0.467 -1.05,-1.062 0,-0.553 0.462,-1.063 1.05,-1.063 z m 4.2,0 v 0 c 0.588,0 1.05,0.51 1.05,1.063 0,0.595 -0.462,1.062 -1.05,1.062 v 0 c -0.588,0 -1.05,-0.467 -1.05,-1.062 0,-0.553 0.462,-1.063 1.05,-1.063 z m 4.2,0 v 0 c 0.588,0 1.05,0.51 1.05,1.063 0,0.595 -0.462,1.062 -1.05,1.062 v 0 c -0.588,0 -1.05,-0.467 -1.05,-1.062 0,-0.553 0.462,-1.063 1.05,-1.063 z m 4.2,0 v 0 c 0.588,0 1.05,0.51 1.05,1.063 0,0.595 -0.462,1.062 -1.05,1.062 v 0 c -0.588,0 -1.05,-0.467 -1.05,-1.062 0,-0.553 0.462,-1.063 1.05,-1.063 z m 4.198,0 v 0 c 0.59,0 1.05,0.51 1.05,1.063 0,0.595 -0.46,1.062 -1.05,1.062 v 0 c -0.59,0 -1.05,-0.467 -1.05,-1.062 0,-0.553 0.46,-1.063 1.05,-1.063 z m 4.2,0 v 0 c 0.59,0 1.05,0.51 1.05,1.063 0,0.595 -0.46,1.062 -1.05,1.062 v 0 c -0.59,0 -1.05,-0.467 -1.05,-1.062 0,-0.553 0.46,-1.063 1.05,-1.063 z m 4.2,0 v 0 c 0.59,0 1.05,0.51 1.05,1.063 0,0.595 -0.46,1.062 -1.05,1.062 v 0 c -0.59,0 -1.05,-0.467 -1.05,-1.062 0,-0.553 0.46,-1.063 1.05,-1.063 z m 4.2,0 v 0 c 0.59,0 1.05,0.51 1.05,1.063 0,0.595 -0.46,1.062 -1.05,1.062 v 0 c -0.59,0 -1.05,-0.467 -1.05,-1.062 0,-0.553 0.46,-1.063 1.05,-1.063 z m 4.2,0 v 0 c 0.59,0 1.05,0.51 1.05,1.063 0,0.595 -0.46,1.062 -1.05,1.062 v 0 c -0.59,0 -1.05,-0.467 -1.05,-1.062 0,-0.553 0.46,-1.063 1.05,-1.063 z m 4.2,0 v 0 c 0.59,0 1.05,0.51 1.05,1.063 0,0.595 -0.46,1.062 -1.05,1.062 v 0 c -0.59,0 -1.05,-0.467 -1.05,-1.062 0,-0.553 0.46,-1.063 1.05,-1.063 z m 4.2,0 v 0 c 0.59,0 1.05,0.51 1.05,1.063 0,0.595 -0.46,1.062 -1.05,1.062 v 0 c -0.59,0 -1.05,-0.467 -1.05,-1.062 0,-0.553 0.46,-1.063 1.05,-1.063 z m 4.2,0 v 0 c 0.59,0 1.05,0.51 1.05,1.063 0,0.595 -0.46,1.062 -1.05,1.062 v 0 c -0.59,0 -1.05,-0.467 -1.05,-1.062 0,-0.553 0.46,-1.063 1.05,-1.063 z m 4.2,0 v 0 c 0.59,0 1.05,0.51 1.05,1.063 0,0.595 -0.46,1.062 -1.05,1.062 v 0 c -0.59,0 -1.05,-0.467 -1.05,-1.062 0,-0.553 0.46,-1.063 1.05,-1.063 z m 4.2,0 v 0 c 0.59,0 1.05,0.51 1.05,1.063 0,0.595 -0.46,1.062 -1.05,1.062 v 0 c -0.54,0 -1.05,-0.467 -1.05,-1.062 0,-0.553 0.51,-1.063 1.05,-1.063 z m 4.2,0 v 0 c 0.59,0 1.05,0.51 1.05,1.063 0,0.595 -0.46,1.062 -1.05,1.062 v 0 c -0.54,0 -1.05,-0.467 -1.05,-1.062 0,-0.553 0.51,-1.063 1.05,-1.063 z m 4.2,0 v 0 c 0.59,0 1.05,0.51 1.05,1.063 0,0.595 -0.46,1.062 -1.05,1.062 v 0 c -0.54,0 -1.05,-0.467 -1.05,-1.062 0,-0.553 0.51,-1.063 1.05,-1.063 z m 4.2,0 h 0.04 c 0.55,0 1.05,0.51 1.05,1.063 0,0.595 -0.5,1.062 -1.05,1.062 h -0.04 c -0.54,0 -1.05,-0.467 -1.05,-1.062 0,-0.553 0.51,-1.063 1.05,-1.063 z m 4.24,0 v 0 c 0.55,0 1.05,0.51 1.05,1.063 0,0.595 -0.5,1.062 -1.05,1.062 v 0 c -0.58,0 -1.05,-0.467 -1.05,-1.062 0,-0.553 0.47,-1.063 1.05,-1.063 z m 4.2,0 v 0 c 0.55,0 1.05,0.51 1.05,1.063 0,0.595 -0.5,1.062 -1.05,1.062 v 0 c -0.58,0 -1.05,-0.467 -1.05,-1.062 0,-0.553 0.47,-1.063 1.05,-1.063 z m 4.2,0 v 0 c 0.59,0 1.05,0.51 1.05,1.063 0,0.595 -0.46,1.062 -1.05,1.062 v 0 c -0.58,0 -1.05,-0.467 -1.05,-1.062 0,-0.553 0.47,-1.063 1.05,-1.063 z m 4.2,0 v 0 c 0.59,0 1.05,0.51 1.05,1.063 0,0.595 -0.46,1.062 -1.05,1.062 v 0 c -0.58,0 -1.05,-0.467 -1.05,-1.062 0,-0.553 0.47,-1.063 1.05,-1.063 z m 4.2,0 v 0 c 0.59,0 1.05,0.51 1.05,1.063 0,0.595 -0.46,1.062 -1.05,1.062 v 0 c -0.58,0 -1.05,-0.467 -1.05,-1.062 0,-0.553 0.47,-1.063 1.05,-1.063 z m 4.2,0 v 0 c 0.59,0 1.05,0.51 1.05,1.063 0,0.595 -0.46,1.062 -1.05,1.062 v 0 c -0.58,0 -1.05,-0.467 -1.05,-1.062 0,-0.553 0.47,-1.063 1.05,-1.063 z m 4.2,0 v 0 c 0.59,0 1.05,0.51 1.05,1.063 0,0.595 -0.46,1.062 -1.05,1.062 v 0 c -0.58,0 -1.05,-0.467 -1.05,-1.062 0,-0.553 0.47,-1.063 1.05,-1.063 z m 4.2,0 v 0 c 0.59,0 1.05,0.51 1.05,1.063 0,0.595 -0.46,1.062 -1.05,1.062 v 0 c -0.58,0 -1.05,-0.467 -1.05,-1.062 0,-0.553 0.47,-1.063 1.05,-1.063 z m 4.2,0 v 0 c 0.59,0 1.05,0.51 1.05,1.063 0,0.595 -0.46,1.062 -1.05,1.062 v 0 c -0.58,0 -1.05,-0.467 -1.05,-1.062 0,-0.553 0.47,-1.063 1.05,-1.063 z m 4.2,0 v 0 c 0.59,0 1.05,0.51 1.05,1.063 0,0.595 -0.46,1.062 -1.05,1.062 v 0 c -0.58,0 -1.05,-0.467 -1.05,-1.062 0,-0.553 0.47,-1.063 1.05,-1.063 z m 4.2,0 v 0 c 0.59,0 1.05,0.51 1.05,1.063 0,0.595 -0.46,1.062 -1.05,1.062 v 0 c -0.58,0 -1.05,-0.467 -1.05,-1.062 0,-0.553 0.47,-1.063 1.05,-1.063 z m 4.2,0 v 0 c 0.59,0 1.05,0.51 1.05,1.063 0,0.595 -0.46,1.062 -1.05,1.062 v 0 c -0.58,0 -1.05,-0.467 -1.05,-1.062 0,-0.553 0.47,-1.063 1.05,-1.063 z m 4.2,0 v 0 c 0.59,0 1.05,0.51 1.05,1.063 0,0.595 -0.46,1.062 -1.05,1.062 v 0 c -0.58,0 -1.05,-0.467 -1.05,-1.062 0,-0.553 0.47,-1.063 1.05,-1.063 z m 4.2,0 v 0 c 0.59,0 1.05,0.51 1.05,1.063 0,0.595 -0.46,1.062 -1.05,1.062 v 0 c -0.58,0 -1.05,-0.467 -1.05,-1.062 0,-0.553 0.47,-1.063 1.05,-1.063 z m 4.2,0 v 0 c 0.59,0 1.05,0.51 1.05,1.063 0,0.595 -0.46,1.062 -1.05,1.062 v 0 c -0.58,0 -1.05,-0.467 -1.05,-1.062 0,-0.553 0.47,-1.063 1.05,-1.063 z m 4.2,0 v 0 c 0.59,0 1.05,0.51 1.05,1.063 0,0.595 -0.46,1.062 -1.05,1.062 v 0 c -0.58,0 -1.05,-0.467 -1.05,-1.062 0,-0.553 0.47,-1.063 1.05,-1.063 z m 4.2,0 v 0 c 0.59,0 1.05,0.51 1.05,1.063 0,0.595 -0.46,1.062 -1.05,1.062 v 0 c -0.54,0 -1.05,-0.467 -1.05,-1.062 0,-0.553 0.51,-1.063 1.05,-1.063 z m 4.2,0 v 0 c 0.59,0 1.05,0.51 1.05,1.063 0,0.595 -0.46,1.062 -1.05,1.062 v 0 c -0.54,0 -1.05,-0.467 -1.05,-1.062 0,-0.553 0.51,-1.063 1.05,-1.063 z m 4.2,0 h 0.05 c 0.54,0 1.05,0.51 1.05,1.063 0,0.595 -0.51,1.062 -1.05,1.062 h -0.05 c -0.54,0 -1.05,-0.467 -1.05,-1.062 0,-0.553 0.51,-1.063 1.05,-1.063 z m 4.25,0 v 0 c 0.54,0 1.05,0.51 1.05,1.063 0,0.595 -0.51,1.062 -1.05,1.062 v 0 c -0.59,0 -1.05,-0.467 -1.05,-1.062 0,-0.553 0.46,-1.063 1.05,-1.063 z m 4.2,0 v 0 c 0.54,0 1.05,0.51 1.05,1.063 0,0.595 -0.51,1.062 -1.05,1.062 v 0 c -0.59,0 -1.05,-0.467 -1.05,-1.062 0,-0.553 0.46,-1.063 1.05,-1.063 z m 4.2,0 v 0 c 0.54,0 1.05,0.51 1.05,1.063 0,0.595 -0.51,1.062 -1.05,1.062 v 0 c -0.59,0 -1.05,-0.467 -1.05,-1.062 0,-0.553 0.46,-1.063 1.05,-1.063 z m 4.2,0 v 0 c 0.58,0 1.05,0.51 1.05,1.063 0,0.595 -0.47,1.062 -1.05,1.062 v 0 c -0.59,0 -1.05,-0.467 -1.05,-1.062 0,-0.553 0.46,-1.063 1.05,-1.063 z m 4.2,0 v 0 c 0.58,0 1.05,0.51 1.05,1.063 0,0.595 -0.47,1.062 -1.05,1.062 v 0 c -0.59,0 -1.05,-0.467 -1.05,-1.062 0,-0.553 0.46,-1.063 1.05,-1.063 z m 4.2,0 v 0 c 0.58,0 1.05,0.51 1.05,1.063 0,0.595 -0.47,1.062 -1.05,1.062 v 0 c -0.59,0 -1.05,-0.467 -1.05,-1.062 0,-0.553 0.46,-1.063 1.05,-1.063 z m 4.2,0 v 0 c 0.58,0 1.05,0.51 1.05,1.063 0,0.595 -0.47,1.062 -1.05,1.062 v 0 c -0.59,0 -1.05,-0.467 -1.05,-1.062 0,-0.553 0.46,-1.063 1.05,-1.063 z m 4.2,0 v 0 c 0.58,0 1.05,0.51 1.05,1.063 0,0.595 -0.47,1.062 -1.05,1.062 v 0 c -0.59,0 -1.05,-0.467 -1.05,-1.062 0,-0.553 0.46,-1.063 1.05,-1.063 z m 4.2,0 v 0 c 0.58,0 1.05,0.51 1.05,1.063 0,0.595 -0.47,1.062 -1.05,1.062 v 0 c -0.59,0 -1.05,-0.467 -1.05,-1.062 0,-0.553 0.46,-1.063 1.05,-1.063 z m 4.2,0 v 0 c 0.58,0 1.05,0.51 1.05,1.063 0,0.595 -0.47,1.062 -1.05,1.062 v 0 c -0.59,0 -1.05,-0.467 -1.05,-1.062 0,-0.553 0.46,-1.063 1.05,-1.063 z m 4.2,0 v 0 c 0.58,0 1.05,0.51 1.05,1.063 0,0.595 -0.47,1.062 -1.05,1.062 v 0 c -0.59,0 -1.05,-0.467 -1.05,-1.062 0,-0.553 0.46,-1.063 1.05,-1.063 z m 4.2,0 v 0 c 0.58,0 1.05,0.51 1.05,1.063 0,0.595 -0.47,1.062 -1.05,1.062 v 0 c -0.59,0 -1.05,-0.467 -1.05,-1.062 0,-0.553 0.46,-1.063 1.05,-1.063 z m 4.2,0 v 0 c 0.58,0 1.05,0.51 1.05,1.063 0,0.595 -0.47,1.062 -1.05,1.062 v 0 c -0.59,0 -1.05,-0.467 -1.05,-1.062 0,-0.553 0.46,-1.063 1.05,-1.063 z m 4.2,0 v 0 c 0.58,0 1.05,0.51 1.05,1.063 0,0.595 -0.47,1.062 -1.05,1.062 v 0 c -0.59,0 -1.05,-0.467 -1.05,-1.062 0,-0.553 0.46,-1.063 1.05,-1.063 z m 4.2,0 v 0 c 0.58,0 1.05,0.51 1.05,1.063 0,0.595 -0.47,1.062 -1.05,1.062 v 0 c -0.59,0 -1.05,-0.467 -1.05,-1.062 0,-0.553 0.46,-1.063 1.05,-1.063 z m 4.2,0 v 0 c 0.58,0 1.05,0.51 1.05,1.063 0,0.595 -0.47,1.062 -1.05,1.062 v 0 c -0.59,0 -1.05,-0.467 -1.05,-1.062 0,-0.553 0.46,-1.063 1.05,-1.063 z m 4.2,0 v 0 c 0.58,0 1.05,0.51 1.05,1.063 0,0.595 -0.47,1.062 -1.05,1.062 v 0 c -0.55,0 -1.05,-0.467 -1.05,-1.062 0,-0.553 0.5,-1.063 1.05,-1.063 z m 4.2,0 v 0 c 0.58,0 1.05,0.51 1.05,1.063 0,0.595 -0.47,1.062 -1.05,1.062 v 0 c -0.55,0 -1.05,-0.467 -1.05,-1.062 0,-0.553 0.5,-1.063 1.05,-1.063 z m 4.2,0 h 0.04 c 0.54,0 1.05,0.51 1.05,1.063 0,0.595 -0.51,1.062 -1.05,1.062 h -0.04 c -0.55,0 -1.05,-0.467 -1.05,-1.062 0,-0.553 0.5,-1.063 1.05,-1.063 z m -388,9.563 -16.8,-8.5 16.8,-8.5 z m 386.4,-17 16.8,8.5 -16.8,8.5 z"
       stroke="#000000"
       stroke-width="0.6875"
       stroke-linejoin="bevel"
       stroke-miterlimit="10"
       fill-rule="evenodd"
       id="path20" /><text
       font-family="'Times New Roman', 'Times New Roman_MSFontService', sans-serif"
       font-weight="400"
       font-size="32px"
       id="text20"
       x="998.65015"
       y="277">D(t)</text><text
       font-family="'Times New Roman', 'Times New Roman_MSFontService', sans-serif"
       font-weight="400"
       font-size="32px"
       id="text21"
       x="827.91675"
       y="877">B(t)</text><text
       font-family="Times New Roman,Times New Roman_MSFontService,sans-serif"
       font-weight="400"
       font-size="32"
       id="text22"
       style="font-style:normal;font-variant:normal;font-weight:normal;font-stretch:normal;font-size:32px;font-family:'Times New Roman', 'Times New Roman_MSFontService', sans-serif;-inkscape-font-specification:'Times New Roman, Times New Roman_MSFontService, sans-serif, Normal';font-variant-ligatures:normal;font-variant-caps:normal;font-variant-numeric:normal;font-variant-east-asian:normal"
       x="1683.4801"
       y="353"><tspan
         id="tspan81"
         x="1683.4801"
         y="353">Investment:</tspan></text><text
       font-family="'Times New Roman', 'Times New Roman_MSFontService', sans-serif"
       font-weight="400"
       font-size="32px"
       id="text24"
       x="1683.5001"
       y="514">Decommiss</text><text
       font-family="'Times New Roman', 'Times New Roman_MSFontService', sans-serif"
       font-weight="400"
       font-size="32px"
       id="text25"
       x="1684.2097"
       y="676">Both</text><rect
       x="807"
       y="574"
       width="83.999901"
       height="83.999901"
       stroke="#000000"
       stroke-width="2.0625"
       stroke-linecap="round"
       stroke-miterlimit="8"
       fill="none"
       id="rect26"
       style="fill:url(#pattern96);fill-opacity:1" /><rect
       x="807"
       y="658"
       width="83.999901"
       height="84.000198"
       stroke="#000000"
       stroke-width="2.0625"
       stroke-linecap="round"
       stroke-miterlimit="8"
       fill="none"
       id="rect27" /><text
       font-family="Times New Roman,Times New Roman_MSFontService,sans-serif"
       font-weight="700"
       font-size="41"
       id="text27"
       style="font-style:normal;font-variant:normal;font-weight:bold;font-stretch:normal;font-size:41px;font-family:'Times New Roman', 'Times New Roman_MSFontService', sans-serif;-inkscape-font-specification:'Times New Roman, Times New Roman_MSFontService, sans-serif, Bold';font-variant-ligatures:normal;font-variant-caps:normal;font-variant-numeric:normal;font-variant-east-asian:normal"
       x="258.89621"
       y="274"><tspan
         id="tspan80"
         x="258.89621"
         y="274">Example III.1.b</tspan></text><g
       id="g81"
       transform="translate(-74.999875)"><text
         font-family="Times New Roman,Times New Roman_MSFontService,sans-serif"
         font-weight="400"
         font-size="32"
         transform="translate(333.896,352)"
         id="text33"
         style="font-style:normal;font-variant:normal;font-weight:normal;font-stretch:normal;font-size:32px;font-family:'Times New Roman', 'Times New Roman_MSFontService', sans-serif;-inkscape-font-specification:'Times New Roman, Times New Roman_MSFontService, sans-serif, Normal';font-variant-ligatures:normal;font-variant-caps:normal;font-variant-numeric:normal;font-variant-east-asian:normal"><tspan
           id="tspan79"
           x="0"
           y="0">D=5, TLIFE=4</tspan></text><text
         font-family="Times New Roman,Times New Roman_MSFontService,sans-serif"
         font-weight="400"
         font-size="32"
         transform="translate(333.896,393)"
         id="text38"
         style="font-style:normal;font-variant:normal;font-weight:normal;font-stretch:normal;font-size:32px;font-family:'Times New Roman', 'Times New Roman_MSFontService', sans-serif;-inkscape-font-specification:'Times New Roman, Times New Roman_MSFontService, sans-serif, Normal';font-variant-ligatures:normal;font-variant-caps:normal;font-variant-numeric:normal;font-variant-east-asian:normal"><tspan
           id="tspan78"
           x="0"
           y="0">DLIFE=DELIF=1</tspan></text></g><text
       font-family="Times New Roman,Times New Roman_MSFontService,sans-serif"
       font-weight="400"
       font-size="32"
       id="text40"
       style="font-style:normal;font-variant:normal;font-weight:normal;font-stretch:normal;font-size:32px;font-family:'Times New Roman', 'Times New Roman_MSFontService', sans-serif;-inkscape-font-specification:'Times New Roman, Times New Roman_MSFontService, sans-serif, Normal';font-variant-ligatures:normal;font-variant-caps:normal;font-variant-numeric:normal;font-variant-east-asian:normal"
       x="258.89575"
       y="473"><tspan
         id="tspan77"
         x="258.89575"
         y="473">C=2</tspan></text><rect
       x="975"
       y="742"
       width="84.000198"
       height="83.999901"
       stroke="#000000"
       stroke-width="2.0625"
       stroke-linecap="round"
       stroke-miterlimit="8"
       fill="none"
       id="rect42"
       style="fill:url(#pattern87);fill-opacity:1" /><rect
       x="1059"
       y="742"
       width="83.999901"
       height="83.999901"
       stroke="#000000"
       stroke-width="2.0625"
       stroke-linecap="round"
       stroke-miterlimit="8"
       fill="none"
       id="rect43" /><rect
       x="1143"
       y="742"
       width="83.999901"
       height="83.999901"
       stroke="#000000"
       stroke-width="2.0625"
       stroke-linecap="round"
       stroke-miterlimit="8"
       fill="none"
       id="rect44" /><rect
       x="1059"
       y="658"
       width="83.999901"
       height="84.000198"
       stroke="#000000"
       stroke-width="2.0625"
       stroke-linecap="round"
       stroke-miterlimit="8"
       fill="none"
       id="rect46"
       style="fill:url(#pattern86);fill-opacity:1" /><rect
       x="1143"
       y="658"
       width="83.999901"
       height="84.000198"
       stroke="#000000"
       stroke-width="2.0625"
       stroke-linecap="round"
       stroke-miterlimit="8"
       fill="none"
       id="rect47" /><rect
       x="1227"
       y="658"
       width="84.000198"
       height="84.000198"
       stroke="#000000"
       stroke-width="2.0625"
       stroke-linecap="round"
       stroke-miterlimit="8"
       fill="none"
       id="rect48" /><rect
       x="1143"
       y="574"
       width="83.999901"
       height="83.999901"
       id="rect49"
       style="fill:url(#pattern82);fill-opacity:1" /><rect
       x="1227"
       y="574"
       width="84.000198"
       height="83.999901"
       stroke="#000000"
       stroke-width="2.0625"
       stroke-linecap="round"
       stroke-miterlimit="8"
       fill="none"
       id="rect51" /><rect
       x="1311"
       y="574"
       width="83.999901"
       height="83.999901"
       stroke="#000000"
       stroke-width="2.0625"
       stroke-linecap="round"
       stroke-miterlimit="8"
       fill="none"
       id="rect52" /><rect
       x="1227"
       y="489"
       width="84.000198"
       height="84.999901"
       stroke="#000000"
       stroke-width="2.0625"
       stroke-linecap="round"
       stroke-miterlimit="8"
       fill="none"
       id="rect54"
       style="fill:url(#pattern85);fill-opacity:1" /><rect
       x="1311"
       y="489"
       width="83.999901"
       height="84.999901"
       stroke="#000000"
       stroke-width="2.0625"
       stroke-linecap="round"
       stroke-miterlimit="8"
       fill="none"
       id="rect55" /><rect
       x="1395"
       y="489"
       width="84.000198"
       height="84.999901"
       stroke="#000000"
       stroke-width="2.0625"
       stroke-linecap="round"
       stroke-miterlimit="8"
       fill="none"
       id="rect56" /><rect
       x="1143"
       y="658"
       width="83.999901"
       height="84.000198"
       stroke="#000000"
       stroke-width="2.0625"
       stroke-linecap="round"
       stroke-miterlimit="8"
       fill="none"
       id="rect57" /><path
       d="m 905.528,448.277 v 0 c 0.378,0 0.672,0.34 0.672,0.723 0,0.382 -0.294,0.68 -0.672,0.68 v 0 c -0.378,0 -0.714,-0.298 -0.714,-0.68 0,-0.383 0.336,-0.723 0.714,-0.723 z m 2.772,0 h 0.042 c 0.378,0 0.672,0.34 0.672,0.723 0,0.382 -0.294,0.68 -0.672,0.68 H 908.3 c -0.378,0 -0.672,-0.298 -0.672,-0.68 0,-0.383 0.294,-0.723 0.672,-0.723 z m 2.814,0 v 0 c 0.378,0 0.714,0.34 0.714,0.723 0,0.382 -0.336,0.68 -0.714,0.68 v 0 c -0.378,0 -0.672,-0.298 -0.672,-0.68 0,-0.383 0.294,-0.723 0.672,-0.723 z m 2.814,0 v 0 c 0.378,0 0.714,0.34 0.714,0.723 0,0.382 -0.336,0.68 -0.714,0.68 v 0 c -0.378,0 -0.714,-0.298 -0.714,-0.68 0,-0.383 0.336,-0.723 0.714,-0.723 z m 2.814,0 v 0 c 0.378,0 0.672,0.34 0.672,0.723 0,0.382 -0.294,0.68 -0.672,0.68 v 0 c -0.42,0 -0.714,-0.298 -0.714,-0.68 0,-0.383 0.294,-0.723 0.714,-0.723 z m 2.772,0 v 0 c 0.42,0 0.714,0.34 0.714,0.723 0,0.382 -0.294,0.68 -0.714,0.68 v 0 c -0.378,0 -0.672,-0.298 -0.672,-0.68 0,-0.383 0.294,-0.723 0.672,-0.723 z m 2.814,0 v 0 c 0.378,0 0.714,0.34 0.714,0.723 0,0.382 -0.336,0.68 -0.714,0.68 v 0 c -0.378,0 -0.714,-0.298 -0.714,-0.68 0,-0.383 0.336,-0.723 0.714,-0.723 z m 2.814,0 v 0 c 0.378,0 0.672,0.34 0.672,0.723 0,0.382 -0.294,0.68 -0.672,0.68 v 0 c -0.42,0 -0.714,-0.298 -0.714,-0.68 0,-0.383 0.294,-0.723 0.714,-0.723 z m 2.772,0 v 0 c 0.42,0 0.714,0.34 0.714,0.723 0,0.382 -0.294,0.68 -0.714,0.68 v 0 c -0.378,0 -0.672,-0.298 -0.672,-0.68 0,-0.383 0.294,-0.723 0.672,-0.723 z m 2.814,0 v 0 c 0.378,0 0.714,0.34 0.714,0.723 0,0.382 -0.336,0.68 -0.714,0.68 v 0 c -0.378,0 -0.714,-0.298 -0.714,-0.68 0,-0.383 0.336,-0.723 0.714,-0.723 z m 2.814,0 v 0 c 0.378,0 0.672,0.34 0.672,0.723 0,0.382 -0.294,0.68 -0.672,0.68 v 0 c -0.378,0 -0.714,-0.298 -0.714,-0.68 0,-0.383 0.336,-0.723 0.714,-0.723 z m 2.772,0 h 0.042 c 0.378,0 0.672,0.34 0.672,0.723 0,0.382 -0.294,0.68 -0.672,0.68 h -0.042 c -0.378,0 -0.672,-0.298 -0.672,-0.68 0,-0.383 0.294,-0.723 0.672,-0.723 z m 2.814,0 v 0 c 0.378,0 0.714,0.34 0.714,0.723 0,0.382 -0.336,0.68 -0.714,0.68 v 0 c -0.378,0 -0.672,-0.298 -0.672,-0.68 0,-0.383 0.294,-0.723 0.672,-0.723 z m 2.814,0 v 0 c 0.378,0 0.714,0.34 0.714,0.723 0,0.382 -0.336,0.68 -0.714,0.68 v 0 c -0.378,0 -0.714,-0.298 -0.714,-0.68 0,-0.383 0.336,-0.723 0.714,-0.723 z m 2.814,0 v 0 c 0.378,0 0.672,0.34 0.672,0.723 0,0.382 -0.294,0.68 -0.672,0.68 v 0 c -0.42,0 -0.714,-0.298 -0.714,-0.68 0,-0.383 0.294,-0.723 0.714,-0.723 z m 2.772,0 v 0 c 0.42,0 0.714,0.34 0.714,0.723 0,0.382 -0.294,0.68 -0.714,0.68 v 0 c -0.378,0 -0.672,-0.298 -0.672,-0.68 0,-0.383 0.294,-0.723 0.672,-0.723 z m 2.814,0 v 0 c 0.378,0 0.714,0.34 0.714,0.723 0,0.382 -0.336,0.68 -0.714,0.68 v 0 c -0.378,0 -0.714,-0.298 -0.714,-0.68 0,-0.383 0.336,-0.723 0.714,-0.723 z m 2.814,0 v 0 c 0.378,0 0.672,0.34 0.672,0.723 0,0.382 -0.294,0.68 -0.672,0.68 v 0 c -0.42,0 -0.714,-0.298 -0.714,-0.68 0,-0.383 0.294,-0.723 0.714,-0.723 z m 2.772,0 v 0 c 0.42,0 0.714,0.34 0.714,0.723 0,0.382 -0.294,0.68 -0.714,0.68 v 0 c -0.378,0 -0.672,-0.298 -0.672,-0.68 0,-0.383 0.294,-0.723 0.672,-0.723 z m 2.814,0 v 0 c 0.378,0 0.714,0.34 0.714,0.723 0,0.382 -0.336,0.68 -0.714,0.68 v 0 c -0.378,0 -0.714,-0.298 -0.714,-0.68 0,-0.383 0.336,-0.723 0.714,-0.723 z m 2.814,0 v 0 c 0.378,0 0.672,0.34 0.672,0.723 0,0.382 -0.294,0.68 -0.672,0.68 v 0 c -0.378,0 -0.714,-0.298 -0.714,-0.68 0,-0.383 0.336,-0.723 0.714,-0.723 z m 2.772,0 h 0.042 c 0.378,0 0.672,0.34 0.672,0.723 0,0.382 -0.294,0.68 -0.672,0.68 h -0.042 c -0.378,0 -0.672,-0.298 -0.672,-0.68 0,-0.383 0.294,-0.723 0.672,-0.723 z m 2.814,0 v 0 c 0.378,0 0.714,0.34 0.714,0.723 0,0.382 -0.336,0.68 -0.714,0.68 v 0 c -0.378,0 -0.672,-0.298 -0.672,-0.68 0,-0.383 0.294,-0.723 0.672,-0.723 z m 2.814,0 v 0 c 0.378,0 0.714,0.34 0.714,0.723 0,0.382 -0.336,0.68 -0.714,0.68 v 0 c -0.378,0 -0.714,-0.298 -0.714,-0.68 0,-0.383 0.336,-0.723 0.714,-0.723 z m 2.814,0 v 0 c 0.378,0 0.672,0.34 0.672,0.723 0,0.382 -0.294,0.68 -0.672,0.68 v 0 c -0.42,0 -0.714,-0.298 -0.714,-0.68 0,-0.383 0.294,-0.723 0.714,-0.723 z m 2.772,0 v 0 c 0.42,0 0.714,0.34 0.714,0.723 0,0.382 -0.294,0.68 -0.714,0.68 v 0 c -0.378,0 -0.672,-0.298 -0.672,-0.68 0,-0.383 0.294,-0.723 0.672,-0.723 z m 2.814,0 v 0 c 0.378,0 0.714,0.34 0.714,0.723 0,0.382 -0.336,0.68 -0.714,0.68 v 0 c -0.378,0 -0.714,-0.298 -0.714,-0.68 0,-0.383 0.336,-0.723 0.714,-0.723 z m 2.814,0 v 0 c 0.378,0 0.672,0.34 0.672,0.723 0,0.382 -0.294,0.68 -0.672,0.68 v 0 c -0.42,0 -0.714,-0.298 -0.714,-0.68 0,-0.383 0.294,-0.723 0.714,-0.723 z m 2.772,0 v 0 c 0.42,0 0.714,0.34 0.714,0.723 0,0.382 -0.294,0.68 -0.714,0.68 v 0 c -0.378,0 -0.672,-0.298 -0.672,-0.68 0,-0.383 0.294,-0.723 0.672,-0.723 z m 2.814,0 v 0 c 0.378,0 0.714,0.34 0.714,0.723 0,0.382 -0.336,0.68 -0.714,0.68 v 0 c -0.378,0 -0.714,-0.298 -0.714,-0.68 0,-0.383 0.336,-0.723 0.714,-0.723 z m 2.814,0 v 0 c 0.378,0 0.672,0.34 0.672,0.723 0,0.382 -0.294,0.68 -0.672,0.68 v 0 c -0.378,0 -0.714,-0.298 -0.714,-0.68 0,-0.383 0.336,-0.723 0.714,-0.723 z m 2.772,0 h 0.042 c 0.378,0 0.672,0.34 0.672,0.723 0,0.382 -0.294,0.68 -0.672,0.68 h -0.042 c -0.378,0 -0.672,-0.298 -0.672,-0.68 0,-0.383 0.294,-0.723 0.672,-0.723 z m 2.814,0 v 0 c 0.378,0 0.714,0.34 0.714,0.723 0,0.382 -0.336,0.68 -0.714,0.68 v 0 c -0.378,0 -0.672,-0.298 -0.672,-0.68 0,-0.383 0.294,-0.723 0.672,-0.723 z m 2.814,0 v 0 c 0.378,0 0.714,0.34 0.714,0.723 0,0.382 -0.336,0.68 -0.714,0.68 v 0 c -0.378,0 -0.714,-0.298 -0.714,-0.68 0,-0.383 0.336,-0.723 0.714,-0.723 z m 2.81,0 v 0 c 0.38,0 0.68,0.34 0.68,0.723 0,0.382 -0.3,0.68 -0.68,0.68 v 0 c -0.42,0 -0.71,-0.298 -0.71,-0.68 0,-0.383 0.29,-0.723 0.71,-0.723 z m 2.78,0 v 0 c 0.42,0 0.71,0.34 0.71,0.723 0,0.382 -0.29,0.68 -0.71,0.68 v 0 c -0.38,0 -0.68,-0.298 -0.68,-0.68 0,-0.383 0.3,-0.723 0.68,-0.723 z m 2.81,0 v 0 c 0.38,0 0.71,0.34 0.71,0.723 0,0.382 -0.33,0.68 -0.71,0.68 v 0 c -0.38,0 -0.71,-0.298 -0.71,-0.68 0,-0.383 0.33,-0.723 0.71,-0.723 z m 2.81,0 v 0 c 0.38,0 0.68,0.34 0.68,0.723 0,0.382 -0.3,0.68 -0.68,0.68 v 0 c -0.42,0 -0.71,-0.298 -0.71,-0.68 0,-0.383 0.29,-0.723 0.71,-0.723 z m 2.78,0 v 0 c 0.42,0 0.71,0.34 0.71,0.723 0,0.382 -0.29,0.68 -0.71,0.68 v 0 c -0.38,0 -0.68,-0.298 -0.68,-0.68 0,-0.383 0.3,-0.723 0.68,-0.723 z m 2.81,0 v 0 c 0.38,0 0.71,0.34 0.71,0.723 0,0.382 -0.33,0.68 -0.71,0.68 v 0 c -0.38,0 -0.71,-0.298 -0.71,-0.68 0,-0.383 0.33,-0.723 0.71,-0.723 z m 2.81,0 v 0 c 0.38,0 0.68,0.34 0.68,0.723 0,0.382 -0.3,0.68 -0.68,0.68 v 0 c -0.37,0 -0.71,-0.298 -0.71,-0.68 0,-0.383 0.34,-0.723 0.71,-0.723 z m 2.78,0 h 0.04 c 0.38,0 0.67,0.34 0.67,0.723 0,0.382 -0.29,0.68 -0.67,0.68 h -0.04 c -0.38,0 -0.68,-0.298 -0.68,-0.68 0,-0.383 0.3,-0.723 0.68,-0.723 z m 2.81,0 v 0 c 0.38,0 0.71,0.34 0.71,0.723 0,0.382 -0.33,0.68 -0.71,0.68 v 0 c -0.38,0 -0.71,-0.298 -0.71,-0.68 0,-0.383 0.33,-0.723 0.71,-0.723 z m 2.81,0 v 0 c 0.38,0 0.72,0.34 0.72,0.723 0,0.382 -0.34,0.68 -0.72,0.68 v 0 c -0.37,0 -0.71,-0.298 -0.71,-0.68 0,-0.383 0.34,-0.723 0.71,-0.723 z m 2.82,0 v 0 c 0.38,0 0.67,0.34 0.67,0.723 0,0.382 -0.29,0.68 -0.67,0.68 v 0 c -0.42,0 -0.72,-0.298 -0.72,-0.68 0,-0.383 0.3,-0.723 0.72,-0.723 z m 2.77,0 v 0 c 0.42,0 0.71,0.34 0.71,0.723 0,0.382 -0.29,0.68 -0.71,0.68 v 0 c -0.38,0 -0.67,-0.298 -0.67,-0.68 0,-0.383 0.29,-0.723 0.67,-0.723 z m 2.81,0 v 0 c 0.38,0 0.72,0.34 0.72,0.723 0,0.382 -0.34,0.68 -0.72,0.68 v 0 c -0.37,0 -0.71,-0.298 -0.71,-0.68 0,-0.383 0.34,-0.723 0.71,-0.723 z m 2.82,0 v 0 c 0.38,0 0.67,0.34 0.67,0.723 0,0.382 -0.29,0.68 -0.67,0.68 v 0 c -0.42,0 -0.72,-0.298 -0.72,-0.68 0,-0.383 0.3,-0.723 0.72,-0.723 z m 2.77,0 v 0 c 0.42,0 0.71,0.34 0.71,0.723 0,0.382 -0.29,0.68 -0.71,0.68 v 0 c -0.38,0 -0.67,-0.298 -0.67,-0.68 0,-0.383 0.29,-0.723 0.67,-0.723 z m 2.81,0 v 0 c 0.38,0 0.72,0.34 0.72,0.723 0,0.382 -0.34,0.68 -0.72,0.68 v 0 c -0.37,0 -0.71,-0.298 -0.71,-0.68 0,-0.383 0.34,-0.723 0.71,-0.723 z m 2.82,0 v 0 c 0.38,0 0.67,0.34 0.67,0.723 0,0.382 -0.29,0.68 -0.67,0.68 v 0 c -0.38,0 -0.72,-0.298 -0.72,-0.68 0,-0.383 0.34,-0.723 0.72,-0.723 z m 2.77,0 v 0 c 0.42,0 0.71,0.34 0.71,0.723 0,0.382 -0.29,0.68 -0.71,0.68 v 0 c -0.38,0 -0.67,-0.298 -0.67,-0.68 0,-0.383 0.29,-0.723 0.67,-0.723 z m 2.81,0 v 0 c 0.38,0 0.72,0.34 0.72,0.723 0,0.382 -0.34,0.68 -0.72,0.68 v 0 c -0.37,0 -0.71,-0.298 -0.71,-0.68 0,-0.383 0.34,-0.723 0.71,-0.723 z m 2.82,0 v 0 c 0.38,0 0.71,0.34 0.71,0.723 0,0.382 -0.33,0.68 -0.71,0.68 v 0 c -0.38,0 -0.72,-0.298 -0.72,-0.68 0,-0.383 0.34,-0.723 0.72,-0.723 z m 2.81,0 v 0 c 0.38,0 0.67,0.34 0.67,0.723 0,0.382 -0.29,0.68 -0.67,0.68 v 0 c -0.42,0 -0.71,-0.298 -0.71,-0.68 0,-0.383 0.29,-0.723 0.71,-0.723 z m 2.77,0 v 0 c 0.38,0 0.72,0.34 0.72,0.723 0,0.382 -0.34,0.68 -0.72,0.68 v 0 c -0.37,0 -0.67,-0.298 -0.67,-0.68 0,-0.383 0.3,-0.723 0.67,-0.723 z m 2.82,0 v 0 c 0.38,0 0.71,0.34 0.71,0.723 0,0.382 -0.33,0.68 -0.71,0.68 v 0 c -0.38,0 -0.72,-0.298 -0.72,-0.68 0,-0.383 0.34,-0.723 0.72,-0.723 z m 2.81,0 v 0 c 0.38,0 0.67,0.34 0.67,0.723 0,0.382 -0.29,0.68 -0.67,0.68 v 0 c -0.42,0 -0.71,-0.298 -0.71,-0.68 0,-0.383 0.29,-0.723 0.71,-0.723 z m 2.77,0 v 0 c 0.42,0 0.72,0.34 0.72,0.723 0,0.382 -0.3,0.68 -0.72,0.68 v 0 c -0.37,0 -0.67,-0.298 -0.67,-0.68 0,-0.383 0.3,-0.723 0.67,-0.723 z m 2.82,0 v 0 c 0.38,0 0.71,0.34 0.71,0.723 0,0.382 -0.33,0.68 -0.71,0.68 v 0 c -0.38,0 -0.72,-0.298 -0.72,-0.68 0,-0.383 0.34,-0.723 0.72,-0.723 z m 2.81,0 v 0 c 0.38,0 0.67,0.34 0.67,0.723 0,0.382 -0.29,0.68 -0.67,0.68 v 0 c -0.38,0 -0.71,-0.298 -0.71,-0.68 0,-0.383 0.33,-0.723 0.71,-0.723 z m 2.77,0 h 0.05 c 0.37,0 0.67,0.34 0.67,0.723 0,0.382 -0.3,0.68 -0.67,0.68 h -0.05 c -0.37,0 -0.67,-0.298 -0.67,-0.68 0,-0.383 0.3,-0.723 0.67,-0.723 z m 2.82,0 v 0 c 0.38,0 0.71,0.34 0.71,0.723 0,0.382 -0.33,0.68 -0.71,0.68 v 0 c -0.38,0 -0.67,-0.298 -0.67,-0.68 0,-0.383 0.29,-0.723 0.67,-0.723 z m 2.81,0 v 0 c 0.38,0 0.72,0.34 0.72,0.723 0,0.382 -0.34,0.68 -0.72,0.68 v 0 c -0.38,0 -0.71,-0.298 -0.71,-0.68 0,-0.383 0.33,-0.723 0.71,-0.723 z m 2.82,0 v 0 c 0.37,0 0.67,0.34 0.67,0.723 0,0.382 -0.3,0.68 -0.67,0.68 v 0 c -0.42,0 -0.72,-0.298 -0.72,-0.68 0,-0.383 0.3,-0.723 0.72,-0.723 z m 2.77,0 v 0 c 0.42,0 0.71,0.34 0.71,0.723 0,0.382 -0.29,0.68 -0.71,0.68 v 0 c -0.38,0 -0.67,-0.298 -0.67,-0.68 0,-0.383 0.29,-0.723 0.67,-0.723 z m 2.81,0 v 0 c 0.38,0 0.72,0.34 0.72,0.723 0,0.382 -0.34,0.68 -0.72,0.68 v 0 c -0.38,0 -0.71,-0.298 -0.71,-0.68 0,-0.383 0.33,-0.723 0.71,-0.723 z m 2.82,0 v 0 c 0.37,0 0.67,0.34 0.67,0.723 0,0.382 -0.3,0.68 -0.67,0.68 v 0 c -0.42,0 -0.72,-0.298 -0.72,-0.68 0,-0.383 0.3,-0.723 0.72,-0.723 z m 2.77,0 v 0 c 0.42,0 0.71,0.34 0.71,0.723 0,0.382 -0.29,0.68 -0.71,0.68 v 0 c -0.38,0 -0.67,-0.298 -0.67,-0.68 0,-0.383 0.29,-0.723 0.67,-0.723 z m 2.81,0 v 0 c 0.38,0 0.72,0.34 0.72,0.723 0,0.382 -0.34,0.68 -0.72,0.68 v 0 c -0.38,0 -0.71,-0.298 -0.71,-0.68 0,-0.383 0.33,-0.723 0.71,-0.723 z m 2.82,0 v 0 c 0.37,0 0.67,0.34 0.67,0.723 0,0.382 -0.3,0.68 -0.67,0.68 v 0 c -0.38,0 -0.72,-0.298 -0.72,-0.68 0,-0.383 0.34,-0.723 0.72,-0.723 z m 2.77,0 h 0.04 c 0.38,0 0.67,0.34 0.67,0.723 0,0.382 -0.29,0.68 -0.67,0.68 h -0.04 c -0.38,0 -0.67,-0.298 -0.67,-0.68 0,-0.383 0.29,-0.723 0.67,-0.723 z m 2.81,0 v 0 c 0.38,0 0.72,0.34 0.72,0.723 0,0.382 -0.34,0.68 -0.72,0.68 v 0 c -0.38,0 -0.67,-0.298 -0.67,-0.68 0,-0.383 0.29,-0.723 0.67,-0.723 z m 2.82,0 v 0 c 0.37,0 0.71,0.34 0.71,0.723 0,0.382 -0.34,0.68 -0.71,0.68 v 0 c -0.38,0 -0.72,-0.298 -0.72,-0.68 0,-0.383 0.34,-0.723 0.72,-0.723 z m 2.81,0 v 0 c 0.38,0 0.67,0.34 0.67,0.723 0,0.382 -0.29,0.68 -0.67,0.68 v 0 c -0.42,0 -0.71,-0.298 -0.71,-0.68 0,-0.383 0.29,-0.723 0.71,-0.723 z m 2.77,0 v 0 c 0.42,0 0.72,0.34 0.72,0.723 0,0.382 -0.3,0.68 -0.72,0.68 v 0 c -0.38,0 -0.67,-0.298 -0.67,-0.68 0,-0.383 0.29,-0.723 0.67,-0.723 z m 2.82,0 v 0 c 0.37,0 0.71,0.34 0.71,0.723 0,0.382 -0.34,0.68 -0.71,0.68 v 0 c -0.38,0 -0.72,-0.298 -0.72,-0.68 0,-0.383 0.34,-0.723 0.72,-0.723 z m 2.81,0 v 0 c 0.38,0 0.67,0.34 0.67,0.723 0,0.382 -0.29,0.68 -0.67,0.68 v 0 c -0.42,0 -0.71,-0.298 -0.71,-0.68 0,-0.383 0.29,-0.723 0.71,-0.723 z m 2.77,0 v 0 c 0.42,0 0.72,0.34 0.72,0.723 0,0.382 -0.3,0.68 -0.72,0.68 v 0 c -0.38,0 -0.67,-0.298 -0.67,-0.68 0,-0.383 0.29,-0.723 0.67,-0.723 z m 2.82,0 v 0 c 0.37,0 0.71,0.34 0.71,0.723 0,0.382 -0.34,0.68 -0.71,0.68 v 0 c -0.38,0 -0.72,-0.298 -0.72,-0.68 0,-0.383 0.34,-0.723 0.72,-0.723 z m 2.81,0 v 0 c 0.38,0 0.67,0.34 0.67,0.723 0,0.382 -0.29,0.68 -0.67,0.68 v 0 c -0.38,0 -0.71,-0.298 -0.71,-0.68 0,-0.383 0.33,-0.723 0.71,-0.723 z m 2.77,0 h 0.04 c 0.38,0 0.68,0.34 0.68,0.723 0,0.382 -0.3,0.68 -0.68,0.68 h -0.04 c -0.38,0 -0.67,-0.298 -0.67,-0.68 0,-0.383 0.29,-0.723 0.67,-0.723 z m 2.82,0 v 0 c 0.37,0 0.71,0.34 0.71,0.723 0,0.382 -0.34,0.68 -0.71,0.68 v 0 c -0.38,0 -0.68,-0.298 -0.68,-0.68 0,-0.383 0.3,-0.723 0.68,-0.723 z m 2.81,0 v 0 c 0.38,0 0.71,0.34 0.71,0.723 0,0.382 -0.33,0.68 -0.71,0.68 v 0 c -0.38,0 -0.71,-0.298 -0.71,-0.68 0,-0.383 0.33,-0.723 0.71,-0.723 z m 2.81,0 v 0 c 0.38,0 0.68,0.34 0.68,0.723 0,0.382 -0.3,0.68 -0.68,0.68 v 0 c -0.42,0 -0.71,-0.298 -0.71,-0.68 0,-0.383 0.29,-0.723 0.71,-0.723 z m 2.78,0 v 0 c 0.42,0 0.71,0.34 0.71,0.723 0,0.382 -0.29,0.68 -0.71,0.68 v 0 c -0.38,0 -0.68,-0.298 -0.68,-0.68 0,-0.383 0.3,-0.723 0.68,-0.723 z m 2.81,0 v 0 c 0.38,0 0.71,0.34 0.71,0.723 0,0.382 -0.33,0.68 -0.71,0.68 v 0 c -0.38,0 -0.71,-0.298 -0.71,-0.68 0,-0.383 0.33,-0.723 0.71,-0.723 z m 2.81,0 v 0 c 0.38,0 0.68,0.34 0.68,0.723 0,0.382 -0.3,0.68 -0.68,0.68 v 0 c -0.42,0 -0.71,-0.298 -0.71,-0.68 0,-0.383 0.29,-0.723 0.71,-0.723 z m 2.78,0 v 0 c 0.42,0 0.71,0.34 0.71,0.723 0,0.382 -0.29,0.68 -0.71,0.68 v 0 c -0.38,0 -0.68,-0.298 -0.68,-0.68 0,-0.383 0.3,-0.723 0.68,-0.723 z m 2.81,0 v 0 c 0.38,0 0.71,0.34 0.71,0.723 0,0.382 -0.33,0.68 -0.71,0.68 v 0 c -0.38,0 -0.71,-0.298 -0.71,-0.68 0,-0.383 0.33,-0.723 0.71,-0.723 z m 2.81,0 v 0 c 0.38,0 0.72,0.34 0.72,0.723 0,0.382 -0.34,0.68 -0.72,0.68 v 0 c -0.37,0 -0.71,-0.298 -0.71,-0.68 0,-0.383 0.34,-0.723 0.71,-0.723 z m 2.82,0 v 0 c 0.38,0 0.67,0.34 0.67,0.723 0,0.382 -0.29,0.68 -0.67,0.68 v 0 c -0.42,0 -0.72,-0.298 -0.72,-0.68 0,-0.383 0.3,-0.723 0.72,-0.723 z m 2.77,0 v 0 c 0.38,0 0.71,0.34 0.71,0.723 0,0.382 -0.33,0.68 -0.71,0.68 v 0 c -0.38,0 -0.67,-0.298 -0.67,-0.68 0,-0.383 0.29,-0.723 0.67,-0.723 z m 2.81,0 v 0 c 0.38,0 0.72,0.34 0.72,0.723 0,0.382 -0.34,0.68 -0.72,0.68 v 0 c -0.37,0 -0.71,-0.298 -0.71,-0.68 0,-0.383 0.34,-0.723 0.71,-0.723 z m 2.82,0 v 0 c 0.38,0 0.67,0.34 0.67,0.723 0,0.382 -0.29,0.68 -0.67,0.68 v 0 c -0.42,0 -0.72,-0.298 -0.72,-0.68 0,-0.383 0.3,-0.723 0.72,-0.723 z m 2.77,0 v 0 c 0.42,0 0.71,0.34 0.71,0.723 0,0.382 -0.29,0.68 -0.71,0.68 v 0 c -0.38,0 -0.67,-0.298 -0.67,-0.68 0,-0.383 0.29,-0.723 0.67,-0.723 z m 2.81,0 v 0 c 0.38,0 0.72,0.34 0.72,0.723 0,0.382 -0.34,0.68 -0.72,0.68 v 0 c -0.37,0 -0.71,-0.298 -0.71,-0.68 0,-0.383 0.34,-0.723 0.71,-0.723 z m 2.82,0 v 0 c 0.38,0 0.67,0.34 0.67,0.723 0,0.382 -0.29,0.68 -0.67,0.68 v 0 c -0.38,0 -0.72,-0.298 -0.72,-0.68 0,-0.383 0.34,-0.723 0.72,-0.723 z m 2.77,0 v 0 c 0.42,0 0.71,0.34 0.71,0.723 0,0.382 -0.29,0.68 -0.71,0.68 v 0 c -0.38,0 -0.67,-0.298 -0.67,-0.68 0,-0.383 0.29,-0.723 0.67,-0.723 z m 2.81,0 v 0 c 0.38,0 0.72,0.34 0.72,0.723 0,0.382 -0.34,0.68 -0.72,0.68 v 0 c -0.37,0 -0.71,-0.298 -0.71,-0.68 0,-0.383 0.34,-0.723 0.71,-0.723 z m 2.82,0 v 0 c 0.38,0 0.71,0.34 0.71,0.723 0,0.382 -0.33,0.68 -0.71,0.68 v 0 c -0.38,0 -0.72,-0.298 -0.72,-0.68 0,-0.383 0.34,-0.723 0.72,-0.723 z m 2.81,0 v 0 c 0.38,0 0.67,0.34 0.67,0.723 0,0.382 -0.29,0.68 -0.67,0.68 v 0 c -0.42,0 -0.71,-0.298 -0.71,-0.68 0,-0.383 0.29,-0.723 0.71,-0.723 z m 2.77,0 v 0 c 0.38,0 0.72,0.34 0.72,0.723 0,0.382 -0.34,0.68 -0.72,0.68 v 0 c -0.37,0 -0.67,-0.298 -0.67,-0.68 0,-0.383 0.3,-0.723 0.67,-0.723 z m 2.82,0 v 0 c 0.38,0 0.71,0.34 0.71,0.723 0,0.382 -0.33,0.68 -0.71,0.68 v 0 c -0.38,0 -0.72,-0.298 -0.72,-0.68 0,-0.383 0.34,-0.723 0.72,-0.723 z m 2.81,0 v 0 c 0.38,0 0.67,0.34 0.67,0.723 0,0.382 -0.29,0.68 -0.67,0.68 v 0 c -0.42,0 -0.71,-0.298 -0.71,-0.68 0,-0.383 0.29,-0.723 0.71,-0.723 z m 2.77,0 v 0 c 0.42,0 0.72,0.34 0.72,0.723 0,0.382 -0.3,0.68 -0.72,0.68 v 0 c -0.37,0 -0.67,-0.298 -0.67,-0.68 0,-0.383 0.3,-0.723 0.67,-0.723 z m 2.82,0 v 0 c 0.38,0 0.71,0.34 0.71,0.723 0,0.382 -0.33,0.68 -0.71,0.68 v 0 c -0.38,0 -0.72,-0.298 -0.72,-0.68 0,-0.383 0.34,-0.723 0.72,-0.723 z m 2.81,0 v 0 c 0.38,0 0.67,0.34 0.67,0.723 0,0.382 -0.29,0.68 -0.67,0.68 v 0 c -0.38,0 -0.71,-0.298 -0.71,-0.68 0,-0.383 0.33,-0.723 0.71,-0.723 z m 2.77,0 v 0 c 0.42,0 0.72,0.34 0.72,0.723 0,0.382 -0.3,0.68 -0.72,0.68 v 0 c -0.37,0 -0.67,-0.298 -0.67,-0.68 0,-0.383 0.3,-0.723 0.67,-0.723 z m 2.82,0 v 0 c 0.38,0 0.71,0.34 0.71,0.723 0,0.382 -0.33,0.68 -0.71,0.68 v 0 c -0.38,0 -0.72,-0.298 -0.72,-0.68 0,-0.383 0.34,-0.723 0.72,-0.723 z M 908.3,457.5 891.5,449 l 16.8,-8.5 z m 302.4,-17 16.8,8.5 -16.8,8.5 z"
       stroke="#000000"
       stroke-width="0.6875"
       stroke-linejoin="bevel"
       stroke-miterlimit="10"
       fill-rule="evenodd"
       id="path57" /><text
       font-family="'Times New Roman', 'Times New Roman_MSFontService', sans-serif"
       font-weight="400"
       font-size="32px"
       id="text57"
       x="1034.1703"
       y="412">TLIFE</text><rect
       x="1866"
       y="449"
       width="84.000198"
       height="84.000198"
       stroke="#000000"
       stroke-width="2.0625"
       stroke-linecap="round"
       stroke-miterlimit="8"
       fill="none"
       id="rect59"
       style="fill:url(#pattern97);fill-opacity:1" /><rect
       x="1311"
       y="742"
       width="83.999901"
       height="83.999901"
       stroke="#000000"
       stroke-width="2.0625"
       stroke-linecap="round"
       stroke-miterlimit="8"
       fill="none"
       id="rect61"
       style="fill:url(#pattern101);fill-opacity:1" /><rect
       x="1395"
       y="658"
       width="84.000198"
       height="84.000198"
       stroke="#000000"
       stroke-width="2.0625"
       stroke-linecap="round"
       stroke-miterlimit="8"
       fill="none"
       id="rect63"
       style="fill:url(#pattern100);fill-opacity:1" /><rect
       x="1479"
       y="574"
       width="83.999901"
       height="83.999901"
       stroke="#000000"
       stroke-width="2.0625"
       stroke-linecap="round"
       stroke-miterlimit="8"
       fill="none"
       id="rect65"
       style="fill:url(#pattern99);fill-opacity:1" /><rect
       x="1563"
       y="489"
       width="83.999901"
       height="84.999901"
       stroke="#000000"
       stroke-width="2.0625"
       stroke-linecap="round"
       stroke-miterlimit="8"
       fill="none"
       id="rect67"
       style="fill:url(#pattern98);fill-opacity:1" /><rect
       x="1866"
       y="610"
       width="84.000198"
       height="83.999901"
       stroke="#000000"
       stroke-width="2.0625"
       stroke-linecap="round"
       stroke-miterlimit="8"
       fill="none"
       id="rect69"
       style="fill:url(#pattern90);fill-opacity:1" /><rect
       x="891"
       y="742"
       width="83.999901"
       height="83.999901"
       stroke="#000000"
       stroke-width="2.0625"
       stroke-linecap="round"
       stroke-miterlimit="8"
       fill="none"
       id="rect70" /><rect
       x="975"
       y="658"
       width="84.000198"
       height="84.000198"
       stroke="#000000"
       stroke-width="2.0625"
       stroke-linecap="round"
       stroke-miterlimit="8"
       fill="none"
       id="rect71" /><rect
       x="1059"
       y="574"
       width="83.999901"
       height="83.999901"
       stroke="#000000"
       stroke-width="2.0625"
       stroke-linecap="round"
       stroke-miterlimit="8"
       fill="none"
       id="rect72" /><rect
       x="1143"
       y="489"
       width="83.999901"
       height="84.999901"
       stroke="#000000"
       stroke-width="2.0625"
       stroke-linecap="round"
       stroke-miterlimit="8"
       fill="none"
       id="rect73" /><rect
       x="1227"
       y="742"
       width="84.000198"
       height="83.999901"
       stroke="#000000"
       stroke-width="2.0625"
       stroke-linecap="round"
       stroke-miterlimit="8"
       fill="none"
       id="rect74" /><rect
       x="1311"
       y="658"
       width="83.999901"
       height="84.000198"
       stroke="#000000"
       stroke-width="2.0625"
       stroke-linecap="round"
       stroke-miterlimit="8"
       fill="none"
       id="rect75" /><rect
       x="1395"
       y="574"
       width="84.000198"
       height="83.999901"
       stroke="#000000"
       stroke-width="2.0625"
       stroke-linecap="round"
       stroke-miterlimit="8"
       fill="none"
       id="rect76" /><rect
       x="1479"
       y="489"
       width="83.999901"
       height="84.999901"
       stroke="#000000"
       stroke-width="2.0625"
       stroke-linecap="round"
       stroke-miterlimit="8"
       fill="none"
       id="rect77" /></g></svg>
