<?xml version="1.0" encoding="UTF-8" standalone="no"?>
<svg
   width="1980"
   height="991"
   xml:space="preserve"
   overflow="hidden"
   version="1.1"
   id="svg109"
   xmlns="http://www.w3.org/2000/svg"
   xmlns:svg="http://www.w3.org/2000/svg"><defs
     id="defs109" /><g
     id="g109"><g
       id="g130"><path
         d="M391.5 258.5 808.125 482.854"
         stroke="#000000"
         stroke-width="3.20833"
         stroke-linejoin="round"
         stroke-miterlimit="10"
         fill="none"
         fill-rule="evenodd"
         id="path1" /><path
         d="M802 490.804 837 498 813.064 472 802 490.804Z"
         fill-rule="evenodd"
         id="path2" /></g><g
       id="g129"><path
         d="M0 0 396.229 13.0625"
         stroke="#000000"
         stroke-width="3.20833"
         stroke-linejoin="round"
         stroke-miterlimit="10"
         fill="none"
         fill-rule="evenodd"
         transform="matrix(1 0 0 -1 397.5 541.562)"
         id="path3" /><path
         d="M792.921 539 827 527.189 792 517 792.921 539Z"
         fill-rule="evenodd"
         id="path4" /></g><path
       d="M285.5 246.5C285.5 215.02 312.139 189.5 345 189.5 377.861 189.5 404.5 215.02 404.5 246.5 404.5 277.98 377.861 303.5 345 303.5 312.139 303.5 285.5 277.98 285.5 246.5Z"
       stroke="#000000"
       stroke-width="3.20833"
       stroke-linejoin="round"
       stroke-miterlimit="10"
       fill="#FFFFFF"
       fill-rule="evenodd"
       id="path5" /><g
       id="g128"
       transform="translate(-75.000211)"><text
         font-family="Arial, Arial_MSFontService, sans-serif"
         font-weight="400"
         font-size="46px"
         transform="translate(385.458,261)"
         id="text5">R</text><text
         font-family="Arial,Arial_MSFontService,sans-serif"
         font-weight="400"
         font-size="28"
         transform="translate(420.292,266)"
         id="text6"
         style="font-style:normal;font-variant:normal;font-weight:normal;font-stretch:normal;font-size:28px;font-family:Arial, Arial_MSFontService, sans-serif;-inkscape-font-specification:'Arial, Arial_MSFontService, sans-serif, Normal';font-variant-ligatures:normal;font-variant-caps:normal;font-variant-numeric:normal;font-variant-east-asian:normal"><tspan
           id="tspan127"
           x="0"
           y="0">S1</tspan></text></g><path
       d="M285.5 389.5C285.5 358.02 312.139 332.5 345 332.5 377.861 332.5 404.5 358.02 404.5 389.5 404.5 420.98 377.861 446.5 345 446.5 312.139 446.5 285.5 420.98 285.5 389.5Z"
       stroke="#000000"
       stroke-width="3.20833"
       stroke-linejoin="round"
       stroke-miterlimit="10"
       fill="#FFFFFF"
       fill-rule="evenodd"
       id="path7" /><g
       id="g127"
       transform="translate(-75.000211)"><text
         font-family="Arial, Arial_MSFontService, sans-serif"
         font-weight="400"
         font-size="46px"
         transform="translate(385.458,404)"
         id="text8">R</text><text
         font-family="Arial,Arial_MSFontService,sans-serif"
         font-weight="400"
         font-size="28"
         transform="translate(420.292,408)"
         id="text9"
         style="font-style:normal;font-variant:normal;font-weight:normal;font-stretch:normal;font-size:28px;font-family:Arial, Arial_MSFontService, sans-serif;-inkscape-font-specification:'Arial, Arial_MSFontService, sans-serif, Normal';font-variant-ligatures:normal;font-variant-caps:normal;font-variant-numeric:normal;font-variant-east-asian:normal"><tspan
           id="tspan126"
           x="0"
           y="0">S2</tspan></text></g><path
       d="M285.5 540.5C285.5 509.02 312.139 483.5 345 483.5 377.861 483.5 404.5 509.02 404.5 540.5 404.5 571.98 377.861 597.5 345 597.5 312.139 597.5 285.5 571.98 285.5 540.5Z"
       stroke="#000000"
       stroke-width="3.20833"
       stroke-linejoin="round"
       stroke-miterlimit="10"
       fill="#FFFFFF"
       fill-rule="evenodd"
       id="path10" /><g
       id="g126"
       transform="translate(-75.000211)"><text
         font-family="Arial, Arial_MSFontService, sans-serif"
         font-weight="400"
         font-size="46px"
         transform="translate(385.458,555)"
         id="text11">R</text><text
         font-family="Arial,Arial_MSFontService,sans-serif"
         font-weight="400"
         font-size="28"
         transform="translate(420.292,560)"
         id="text12"
         style="font-style:normal;font-variant:normal;font-weight:normal;font-stretch:normal;font-size:28px;font-family:Arial, Arial_MSFontService, sans-serif;-inkscape-font-specification:'Arial, Arial_MSFontService, sans-serif, Normal';font-variant-ligatures:normal;font-variant-caps:normal;font-variant-numeric:normal;font-variant-east-asian:normal"><tspan
           id="tspan125"
           x="0"
           y="0">S3</tspan></text></g><path
       d="M285.5 804.5C285.5 773.02 312.139 747.5 345 747.5 377.861 747.5 404.5 773.02 404.5 804.5 404.5 835.98 377.861 861.5 345 861.5 312.139 861.5 285.5 835.98 285.5 804.5Z"
       stroke="#000000"
       stroke-width="3.20833"
       stroke-linejoin="round"
       stroke-miterlimit="10"
       fill="#FFFFFF"
       fill-rule="evenodd"
       id="path13" /><g
       id="g125"
       transform="translate(-75.000211)"><text
         font-family="Arial, Arial_MSFontService, sans-serif"
         font-weight="400"
         font-size="46px"
         transform="translate(380.646,820)"
         id="text14">R</text><text
         font-family="Arial,Arial_MSFontService,sans-serif"
         font-weight="400"
         font-size="28"
         transform="translate(415.479,824)"
         id="text15"
         style="font-style:normal;font-variant:normal;font-weight:normal;font-stretch:normal;font-size:28px;font-family:Arial, Arial_MSFontService, sans-serif;-inkscape-font-specification:'Arial, Arial_MSFontService, sans-serif, Normal';font-variant-ligatures:normal;font-variant-caps:normal;font-variant-numeric:normal;font-variant-east-asian:normal"><tspan
           id="tspan124"
           x="0"
           y="0">Sm</tspan></text></g><g
       id="g124"><path
         d="M348 617.045 348 616.591 347.571 616.136 346.929 615.454 346.5 615 346.5 615 346.071 615.454 345.643 616.136 345 616.591 345 627.955 345 628.636 345.643 629.091 346.071 629.546 346.5 630 346.929 630 347.571 629.546 348 629.091 348 628.636 348 617.045Z"
         fill-rule="evenodd"
         id="path16" /><path
         d="M348 638.364 348 637.909 348 637.454 347.571 637 346.929 637 346.5 637 346.071 637 345.643 637.454 345 637.909 345 649.955 345 650.409 345.643 650.864 346.071 651.318 346.5 652 346.929 652 347.571 651.318 348 650.864 348 650.409 348 638.364Z"
         fill-rule="evenodd"
         id="path17" /><path
         d="M348 659.591 348 658.909 348 658.454 347.571 658 346.929 658 346.5 658 346.071 658 345.643 658.454 345 658.909 345 670.955 345 671.409 345.643 672.091 346.071 672.546 346.5 673 346.929 673 347.571 672.546 348 672.091 348 671.409 348 659.591Z"
         fill-rule="evenodd"
         id="path18" /><path
         d="M348 680.591 348 680.136 348 679.682 347.571 679 346.929 679 346.5 679 346.071 679 345.643 679.682 345 680.136 345 692.182 345 692.636 345.643 693.091 346.071 693.545 346.5 694 346.929 694 347.571 693.545 348 693.091 348 692.636 348 680.591Z"
         fill-rule="evenodd"
         id="path19" /><path
         d="M348 701.364 348 700.909 348 700.454 347.571 700 346.929 700 346.5 700 346.071 700 345.643 700.454 345 700.909 345 712.955 345 713.409 345.643 713.864 346.071 714.545 346.5 715 346.929 715 347.571 714.545 348 713.864 348 713.409 348 701.364Z"
         fill-rule="evenodd"
         id="path20" /><path
         d="M348 722.581 348 721.903 348 721.451 347.571 721 346.929 721 346.5 721 346.071 721 345.643 721.451 345 721.903 345 726.419 345 726.419 345.643 726.871 346.071 727.548 346.5 728 346.5 728 346.929 727.548 347.571 726.871 348 726.871 348 722.581Z"
         fill-rule="evenodd"
         id="path21" /></g><g
       id="g123"><path
         d="M403.5 407.5 796.063 499.625"
         stroke="#000000"
         stroke-width="3.20833"
         stroke-linejoin="round"
         stroke-miterlimit="10"
         fill="none"
         fill-rule="evenodd"
         id="path22" /><path
         d="M792 510 828 508 797.308 490 792 510Z"
         fill-rule="evenodd"
         id="path23" /></g><path
       d="M186.5 525C186.5 294.974 257.463 108.5 345 108.5 432.537 108.5 503.5 294.974 503.5 525 503.5 755.027 432.537 941.5 345 941.5 257.463 941.5 186.5 755.027 186.5 525Z"
       stroke="#000000"
       stroke-width="3.20833"
       stroke-linejoin="round"
       stroke-miterlimit="10"
       fill="none"
       fill-rule="evenodd"
       id="path24" /><text
       font-family="Arial,Arial_MSFontService,sans-serif"
       font-weight="700"
       font-size="46"
       id="text24"
       style="font-style:normal;font-variant:normal;font-weight:bold;font-stretch:normal;font-size:46px;font-family:Arial, Arial_MSFontService, sans-serif;-inkscape-font-specification:'Arial, Arial_MSFontService, sans-serif, Bold';font-variant-ligatures:normal;font-variant-caps:normal;font-variant-numeric:normal;font-variant-east-asian:normal"
       x="171.81189"
       y="90"><tspan
         id="tspan122"
         x="171.81189"
         y="90">Supply regions</tspan></text><text
       font-family="Arial, Arial_MSFontService, sans-serif"
       font-style="italic"
       font-weight="400"
       font-size="46px"
       id="text27"
       x="500.8956"
       y="254">Export</text><path
       d="M825.5 527.5C825.5 496.02 852.363 470.5 885.5 470.5 918.637 470.5 945.5 496.02 945.5 527.5 945.5 558.98 918.637 584.5 885.5 584.5 852.363 584.5 825.5 558.98 825.5 527.5Z"
       stroke="#000000"
       stroke-width="3.20833"
       stroke-linejoin="round"
       stroke-miterlimit="10"
       fill="#FFFFFF"
       fill-rule="evenodd"
       id="path27" /><g
       id="g122"
       transform="translate(-75.000211)"><text
         font-family="Arial, Arial_MSFontService, sans-serif"
         font-weight="400"
         font-size="46px"
         transform="translate(930.875,544)"
         id="text28">R</text><text
         font-family="Arial, Arial_MSFontService, sans-serif"
         font-weight="400"
         font-size="32px"
         transform="translate(965.708,551)"
         id="text29">M</text></g><g
       id="g121"><path
         d="M0 0 417.771 214.5"
         stroke="#000000"
         stroke-width="3.20833"
         stroke-linejoin="round"
         stroke-miterlimit="10"
         fill="none"
         fill-rule="evenodd"
         transform="matrix(1 0 0 -1 390.5 773)"
         id="path29" /><path
         d="M811.548 569 837 543 801 549.5 811.548 569Z"
         fill-rule="evenodd"
         id="path30" /></g><text
       font-family="Arial, Arial_MSFontService, sans-serif"
       font-style="italic"
       font-weight="400"
       font-size="46px"
       id="text30"
       x="813.47906"
       y="420">Import</text><g
       id="g120"><path
         d="M1011 5.04552 1011 4.59098 1010.57 4.13644 1009.93 3.45464 1009.5 3.0001 1009.5 3.0001 1009.07 3.45464 1008.64 4.13644 1008 4.59098 1008 15.9544 1008 16.6363 1008.64 17.0908 1009.07 17.5453 1009.5 17.9999 1009.93 17.9999 1010.57 17.5453 1011 17.0908 1011 16.6363 1011 5.04552Z"
         fill-rule="evenodd"
         id="path31" /><path
         d="M1011 25.3637 1011 24.9091 1011 24.4546 1010.57 24.0001 1009.93 24.0001 1009.5 24.0001 1009.07 24.0001 1008.64 24.4546 1008 24.9091 1008 36.9544 1008 37.409 1008.64 37.8635 1009.07 38.318 1009.5 38.9998 1009.93 38.9998 1010.57 38.318 1011 37.8635 1011 37.409 1011 25.3637Z"
         fill-rule="evenodd"
         id="path32" /><path
         d="M1011 46.591 1011 45.9091 1011 45.4546 1010.57 45 1009.93 45 1009.5 45 1009.07 45 1008.64 45.4546 1008 45.9091 1008 57.9547 1008 58.4092 1008.64 58.8638 1009.07 59.5456 1009.5 60.0002 1009.93 60.0002 1010.57 59.5456 1011 58.8638 1011 58.4092 1011 46.591Z"
         fill-rule="evenodd"
         id="path33" /><path
         d="M1011 67.5909 1011 67.1364 1011 66.4546 1010.57 66 1009.93 66 1009.5 66 1009.07 66 1008.64 66.4546 1008 67.1364 1008 78.9547 1008 79.6365 1008.64 80.091 1009.07 80.5456 1009.5 81.0001 1009.93 81.0001 1010.57 80.5456 1011 80.091 1011 79.6365 1011 67.5909Z"
         fill-rule="evenodd"
         id="path34" /><path
         d="M1011 88.3636 1011 87.9091 1011 87.4545 1010.57 87 1009.93 87 1009.5 87 1009.07 87 1008.64 87.4545 1008 87.9091 1008 99.9546 1008 100.409 1008.64 100.864 1009.07 101.318 1009.5 102 1009.93 102 1010.57 101.318 1011 100.864 1011 100.409 1011 88.3636Z"
         fill-rule="evenodd"
         id="path35" /><path
         d="M1011 109.697 1011 108.97 1011 108.485 1010.57 108 1009.93 108 1009.5 108 1009.07 108 1008.64 108.485 1008 108.97 1008 121.818 1008 122.303 1008.64 123.03 1009.07 123.515 1009.5 124 1009.93 124 1010.57 123.515 1011 123.03 1011 122.303 1011 109.697Z"
         fill-rule="evenodd"
         id="path36" /><path
         d="M1011 130.697 1011 130.212 1011 129.727 1010.57 129 1009.93 129 1009.5 129 1009.07 129 1008.64 129.727 1008 130.212 1008 143.061 1008 143.546 1008.64 144.03 1009.07 144.515 1009.5 145 1009.93 145 1010.57 144.515 1011 144.03 1011 143.546 1011 130.697Z"
         fill-rule="evenodd"
         id="path37" /><path
         d="M1011 152.364 1011 151.909 1011 151.454 1010.57 151 1009.93 151 1009.5 151 1009.07 151 1008.64 151.454 1008 151.909 1008 163.955 1008 164.409 1008.64 164.864 1009.07 165.545 1009.5 166 1009.93 166 1010.57 165.545 1011 164.864 1011 164.409 1011 152.364Z"
         fill-rule="evenodd"
         id="path38" /><path
         d="M1011 173.591 1011 172.909 1011 172.454 1010.57 172 1009.93 172 1009.5 172 1009.07 172 1008.64 172.454 1008 172.909 1008 184.955 1008 185.409 1008.64 186.091 1009.07 186.545 1009.5 187 1009.93 187 1010.57 186.545 1011 186.091 1011 185.409 1011 173.591Z"
         fill-rule="evenodd"
         id="path39" /><path
         d="M1011 194.591 1011 194.136 1011 193.682 1010.57 193 1009.93 193 1009.5 193 1009.07 193 1008.64 193.682 1008 194.136 1008 206.182 1008 206.636 1008.64 207.091 1009.07 207.545 1009.5 208 1009.93 208 1010.57 207.545 1011 207.091 1011 206.636 1011 194.591Z"
         fill-rule="evenodd"
         id="path40" /><path
         d="M1011 215.364 1011 214.909 1011 214.455 1010.57 214 1009.93 214 1009.5 214 1009.07 214 1008.64 214.455 1008 214.909 1008 226.955 1008 227.409 1008.64 227.864 1009.07 228.545 1009.5 229 1009.93 229 1010.57 228.545 1011 227.864 1011 227.409 1011 215.364Z"
         fill-rule="evenodd"
         id="path41" /><path
         d="M1011 236.591 1011 236.136 1011 235.455 1010.57 235 1009.93 235 1009.5 235 1009.07 235 1008.64 235.455 1008 236.136 1008 247.954 1008 248.636 1008.64 249.091 1009.07 249.545 1009.5 250 1009.93 250 1010.57 249.545 1011 249.091 1011 248.636 1011 236.591Z"
         fill-rule="evenodd"
         id="path42" /><path
         d="M1011 258.364 1011 257.909 1011 257.455 1010.57 257 1009.93 257 1009.5 257 1009.07 257 1008.64 257.455 1008 257.909 1008 269.954 1008 270.409 1008.64 270.864 1009.07 271.318 1009.5 272 1009.93 272 1010.57 271.318 1011 270.864 1011 270.409 1011 258.364Z"
         fill-rule="evenodd"
         id="path43" /><path
         d="M1011 279.364 1011 278.909 1011 278.455 1010.57 278 1009.93 278 1009.5 278 1009.07 278 1008.64 278.455 1008 278.909 1008 290.954 1008 291.409 1008.64 291.864 1009.07 292.545 1009.5 293 1009.93 293 1010.57 292.545 1011 291.864 1011 291.409 1011 279.364Z"
         fill-rule="evenodd"
         id="path44" /><path
         d="M1011 300.591 1011 300.136 1011 299.455 1010.57 299 1009.93 299 1009.5 299 1009.07 299 1008.64 299.455 1008 300.136 1008 311.954 1008 312.636 1008.64 313.091 1009.07 313.545 1009.5 314 1009.93 314 1010.57 313.545 1011 313.091 1011 312.636 1011 300.591Z"
         fill-rule="evenodd"
         id="path45" /><path
         d="M1011 321.364 1011 320.909 1011 320.455 1010.57 320 1009.93 320 1009.5 320 1009.07 320 1008.64 320.455 1008 320.909 1008 332.955 1008 333.409 1008.64 333.864 1009.07 334.318 1009.5 335 1009.93 335 1010.57 334.318 1011 333.864 1011 333.409 1011 321.364Z"
         fill-rule="evenodd"
         id="path46" /><path
         d="M1011 342.591 1011 341.909 1011 341.455 1010.57 341 1009.93 341 1009.5 341 1009.07 341 1008.64 341.455 1008 341.909 1008 353.955 1008 354.409 1008.64 355.091 1009.07 355.546 1009.5 356 1009.93 356 1010.57 355.546 1011 355.091 1011 354.409 1011 342.591Z"
         fill-rule="evenodd"
         id="path47" /><path
         d="M1011 363.591 1011 363.136 1011 362.682 1010.57 362 1009.93 362 1009.5 362 1009.07 362 1008.64 362.682 1008 363.136 1008 375.182 1008 375.636 1008.64 376.091 1009.07 376.546 1009.5 377 1009.93 377 1010.57 376.546 1011 376.091 1011 375.636 1011 363.591Z"
         fill-rule="evenodd"
         id="path48" /><path
         d="M1011 385.364 1011 384.909 1011 384.455 1010.57 384 1009.93 384 1009.5 384 1009.07 384 1008.64 384.455 1008 384.909 1008 396.955 1008 397.409 1008.64 397.864 1009.07 398.318 1009.5 399 1009.93 399 1010.57 398.318 1011 397.864 1011 397.409 1011 385.364Z"
         fill-rule="evenodd"
         id="path49" /><path
         d="M1011 406.591 1011 405.909 1011 405.454 1010.57 405 1009.93 405 1009.5 405 1009.07 405 1008.64 405.454 1008 405.909 1008 417.955 1008 418.409 1008.64 419.091 1009.07 419.546 1009.5 420 1009.93 420 1010.57 419.546 1011 419.091 1011 418.409 1011 406.591Z"
         fill-rule="evenodd"
         id="path50" /><path
         d="M1011 427.591 1011 427.136 1011 426.682 1010.57 426 1009.93 426 1009.5 426 1009.07 426 1008.64 426.682 1008 427.136 1008 439.182 1008 439.636 1008.64 440.091 1009.07 440.546 1009.5 441 1009.93 441 1010.57 440.546 1011 440.091 1011 439.636 1011 427.591Z"
         fill-rule="evenodd"
         id="path51" /><path
         d="M1011 448.364 1011 447.909 1011 447.454 1010.57 447 1009.93 447 1009.5 447 1009.07 447 1008.64 447.454 1008 447.909 1008 459.955 1008 460.409 1008.64 460.864 1009.07 461.545 1009.5 462 1009.93 462 1010.57 461.545 1011 460.864 1011 460.409 1011 448.364Z"
         fill-rule="evenodd"
         id="path52" /><path
         d="M1011 469.591 1011 469.136 1011 468.454 1010.57 468 1009.93 468 1009.5 468 1009.07 468 1008.64 468.454 1008 469.136 1008 480.954 1008 481.636 1008.64 482.091 1009.07 482.545 1009.5 483 1009.93 483 1010.57 482.545 1011 482.091 1011 481.636 1011 469.591Z"
         fill-rule="evenodd"
         id="path53" /><path
         d="M1011 491.292 1011 490.861 1011 490.431 1010.57 490 1009.93 490 1009.5 490 1009.07 490 1008.64 490.431 1008 490.861 1008 502.277 1008 502.708 1008.64 503.138 1009.07 503.569 1009.5 504 1009.93 504 1010.57 503.569 1011 503.138 1011 502.708 1011 491.292Z"
         fill-rule="evenodd"
         id="path54" /><path
         d="M1011 512.364 1011 511.909 1011 511.455 1010.57 511 1009.93 511 1009.5 511 1009.07 511 1008.64 511.455 1008 511.909 1008 523.955 1008 524.409 1008.64 524.864 1009.07 525.545 1009.5 526 1009.93 526 1010.57 525.545 1011 524.864 1011 524.409 1011 512.364Z"
         fill-rule="evenodd"
         id="path55" /><path
         d="M1011 533.591 1011 533.136 1011 532.455 1010.57 532 1009.93 532 1009.5 532 1009.07 532 1008.64 532.455 1008 533.136 1008 544.954 1008 545.636 1008.64 546.091 1009.07 546.545 1009.5 547 1009.93 547 1010.57 546.545 1011 546.091 1011 545.636 1011 533.591Z"
         fill-rule="evenodd"
         id="path56" /><path
         d="M1011 554.364 1011 553.909 1011 553.455 1010.57 553 1009.93 553 1009.5 553 1009.07 553 1008.64 553.455 1008 553.909 1008 565.954 1008 566.409 1008.64 566.864 1009.07 567.318 1009.5 568 1009.93 568 1010.57 567.318 1011 566.864 1011 566.409 1011 554.364Z"
         fill-rule="evenodd"
         id="path57" /><path
         d="M1011 575.591 1011 574.909 1011 574.455 1010.57 574 1009.93 574 1009.5 574 1009.07 574 1008.64 574.455 1008 574.909 1008 586.954 1008 587.409 1008.64 588.091 1009.07 588.545 1009.5 589 1009.93 589 1010.57 588.545 1011 588.091 1011 587.409 1011 575.591Z"
         fill-rule="evenodd"
         id="path58" /><path
         d="M1011 596.591 1011 596.136 1011 595.682 1010.57 595 1009.93 595 1009.5 595 1009.07 595 1008.64 595.682 1008 596.136 1008 607.955 1008 608.637 1008.64 609.091 1009.07 609.546 1009.5 610 1009.93 610 1010.57 609.546 1011 609.091 1011 608.637 1011 596.591Z"
         fill-rule="evenodd"
         id="path59" /><path
         d="M1011 617.455 1011 616.97 1011 616.485 1010.57 616 1009.93 616 1009.5 616 1009.07 616 1008.64 616.485 1008 616.97 1008 629.818 1008 630.303 1008.64 630.788 1009.07 631.273 1009.5 632 1009.93 632 1010.57 631.273 1011 630.788 1011 630.303 1011 617.455Z"
         fill-rule="evenodd"
         id="path60" /><path
         d="M1011 639.591 1011 638.909 1011 638.455 1010.57 638 1009.93 638 1009.5 638 1009.07 638 1008.64 638.455 1008 638.909 1008 650.955 1008 651.409 1008.64 652.091 1009.07 652.546 1009.5 653 1009.93 653 1010.57 652.546 1011 652.091 1011 651.409 1011 639.591Z"
         fill-rule="evenodd"
         id="path61" /><path
         d="M1011 660.591 1011 660.136 1011 659.682 1010.57 659 1009.93 659 1009.5 659 1009.07 659 1008.64 659.682 1008 660.136 1008 672.182 1008 672.636 1008.64 673.091 1009.07 673.546 1009.5 674 1009.93 674 1010.57 673.546 1011 673.091 1011 672.636 1011 660.591Z"
         fill-rule="evenodd"
         id="path62" /><path
         d="M1011 681.364 1011 680.909 1011 680.454 1010.57 680 1009.93 680 1009.5 680 1009.07 680 1008.64 680.454 1008 680.909 1008 692.955 1008 693.409 1008.64 693.864 1009.07 694.546 1009.5 695 1009.93 695 1010.57 694.546 1011 693.864 1011 693.409 1011 681.364Z"
         fill-rule="evenodd"
         id="path63" /><path
         d="M1011 702.591 1011 702.136 1011 701.454 1010.57 701 1009.93 701 1009.5 701 1009.07 701 1008.64 701.454 1008 702.136 1008 713.955 1008 714.636 1008.64 715.091 1009.07 715.545 1009.5 716 1009.93 716 1010.57 715.545 1011 715.091 1011 714.636 1011 702.591Z"
         fill-rule="evenodd"
         id="path64" /><path
         d="M1011 723.591 1011 723.136 1011 722.682 1010.57 722 1009.93 722 1009.5 722 1009.07 722 1008.64 722.682 1008 723.136 1008 735.182 1008 735.636 1008.64 736.091 1009.07 736.545 1009.5 737 1009.93 737 1010.57 736.545 1011 736.091 1011 735.636 1011 723.591Z"
         fill-rule="evenodd"
         id="path65" /><path
         d="M1011 744.454 1011 743.97 1011 743.485 1010.57 743 1009.93 743 1009.5 743 1009.07 743 1008.64 743.485 1008 743.97 1008 756.818 1008 757.303 1008.64 757.788 1009.07 758.515 1009.5 759 1009.93 759 1010.57 758.515 1011 757.788 1011 757.303 1011 744.454Z"
         fill-rule="evenodd"
         id="path66" /><path
         d="M1011 766.591 1011 766.136 1011 765.454 1010.57 765 1009.93 765 1009.5 765 1009.07 765 1008.64 765.454 1008 766.136 1008 777.954 1008 778.636 1008.64 779.091 1009.07 779.545 1009.5 780 1009.93 780 1010.57 779.545 1011 779.091 1011 778.636 1011 766.591Z"
         fill-rule="evenodd"
         id="path67" /><path
         d="M1011 787.364 1011 786.909 1011 786.455 1010.57 786 1009.93 786 1009.5 786 1009.07 786 1008.64 786.455 1008 786.909 1008 798.955 1008 799.409 1008.64 799.864 1009.07 800.318 1009.5 801 1009.93 801 1010.57 800.318 1011 799.864 1011 799.409 1011 787.364Z"
         fill-rule="evenodd"
         id="path68" /><path
         d="M1011 808.591 1011 807.909 1011 807.455 1010.57 807 1009.93 807 1009.5 807 1009.07 807 1008.64 807.455 1008 807.909 1008 819.954 1008 820.409 1008.64 821.091 1009.07 821.545 1009.5 822 1009.93 822 1010.57 821.545 1011 821.091 1011 820.409 1011 808.591Z"
         fill-rule="evenodd"
         id="path69" /><path
         d="M1011 829.591 1011 829.136 1011 828.455 1010.57 828 1009.93 828 1009.5 828 1009.07 828 1008.64 828.455 1008 829.136 1008 840.954 1008 841.636 1008.64 842.091 1009.07 842.545 1009.5 843 1009.93 843 1010.57 842.545 1011 842.091 1011 841.636 1011 829.591Z"
         fill-rule="evenodd"
         id="path70" /><path
         d="M1011 850.364 1011 849.909 1011 849.455 1010.57 849 1009.93 849 1009.5 849 1009.07 849 1008.64 849.455 1008 849.909 1008 861.954 1008 862.409 1008.64 862.863 1009.07 863.318 1009.5 864 1009.93 864 1010.57 863.318 1011 862.863 1011 862.409 1011 850.364Z"
         fill-rule="evenodd"
         id="path71" /><path
         d="M1011 871.697 1011 870.97 1011 870.485 1010.57 870 1009.93 870 1009.5 870 1009.07 870 1008.64 870.485 1008 870.97 1008 883.818 1008 884.303 1008.64 885.03 1009.07 885.515 1009.5 886 1009.93 886 1010.57 885.515 1011 885.03 1011 884.303 1011 871.697Z"
         fill-rule="evenodd"
         id="path72" /><path
         d="M1011 892.697 1011 892.212 1011 891.727 1010.57 891 1009.93 891 1009.5 891 1009.07 891 1008.64 891.727 1008 892.212 1008 905.061 1008 905.546 1008.64 906.03 1009.07 906.515 1009.5 907 1009.93 907 1010.57 906.515 1011 906.03 1011 905.546 1011 892.697Z"
         fill-rule="evenodd"
         id="path73" /><path
         d="M1011 914.364 1011 913.909 1011 913.455 1010.57 913 1009.93 913 1009.5 913 1009.07 913 1008.64 913.455 1008 913.909 1008 925.955 1008 926.409 1008.64 926.864 1009.07 927.546 1009.5 928 1009.93 928 1010.57 927.546 1011 926.864 1011 926.409 1011 914.364Z"
         fill-rule="evenodd"
         id="path74" /><path
         d="M1011 935.591 1011 934.909 1011 934.454 1010.57 934 1009.93 934 1009.5 934 1009.07 934 1008.64 934.454 1008 934.909 1008 946.955 1008 947.409 1008.64 948.091 1009.07 948.546 1009.5 949 1009.93 949 1010.57 948.546 1011 948.091 1011 947.409 1011 935.591Z"
         fill-rule="evenodd"
         id="path75" /><path
         d="M1011 956.591 1011 956.136 1011 955.682 1010.57 955 1009.93 955 1009.5 955 1009.07 955 1008.64 955.682 1008 956.136 1008 968.182 1008 968.636 1008.64 969.091 1009.07 969.546 1009.5 970 1009.93 970 1010.57 969.546 1011 969.091 1011 968.636 1011 956.591Z"
         fill-rule="evenodd"
         id="path76" /><path
         d="M1011 977.358 1011 976.906 1011 976.453 1010.57 976 1009.93 976 1009.5 976 1009.07 976 1008.64 976.453 1008 976.906 1008 986.415 1008 986.415 1008.64 986.868 1009.07 987.321 1009.5 988 1009.5 988 1009.93 987.321 1010.57 986.868 1011 986.868 1011 977.358Z"
         fill-rule="evenodd"
         id="path77" /></g><g
       id="g119"><path
         d="M1185.5 548.5 1587.92 765.75"
         stroke="#000000"
         stroke-width="3.20833"
         stroke-linejoin="round"
         stroke-miterlimit="10"
         fill="none"
         fill-rule="evenodd"
         id="path78" /><path
         d="M1581 774.08 1617 781 1592.08 756 1581 774.08Z"
         fill-rule="evenodd"
         id="path79" /></g><g
       id="g118"><path
         d="M0 0 418.229 112.979"
         stroke="#000000"
         stroke-width="3.20833"
         stroke-linejoin="round"
         stroke-miterlimit="10"
         fill="none"
         fill-rule="evenodd"
         transform="matrix(-1 0 0 1 1575.73 407.5)"
         id="path80" /><path
         d="M1577.7 418 1608 397.933 1572 397 1577.7 418Z"
         fill-rule="evenodd"
         id="path81" /></g><g
       id="g117"><path
         d="M1579.5 531.021 1128.5 528.5"
         stroke="#000000"
         stroke-width="3.20833"
         stroke-linejoin="round"
         stroke-miterlimit="10"
         fill="none"
         fill-rule="evenodd"
         id="path82" /><path
         d="M1578 541 1612 530.39 1578 520 1578 541Z"
         fill-rule="evenodd"
         id="path83" /></g><g
       id="g116"><path
         d="M0 0 428.771 233.75"
         stroke="#000000"
         stroke-width="3.20833"
         stroke-linejoin="round"
         stroke-miterlimit="10"
         fill="none"
         fill-rule="evenodd"
         transform="matrix(1 0 0 -1 1158.5 514.25)"
         id="path84" /><path
         d="M1591.01 291 1616 265 1580 272.526 1591.01 291Z"
         fill-rule="evenodd"
         id="path85" /></g><path
       d="M1609.5 240.5C1609.5 209.02 1636.14 183.5 1669 183.5 1701.86 183.5 1728.5 209.02 1728.5 240.5 1728.5 271.98 1701.86 297.5 1669 297.5 1636.14 297.5 1609.5 271.98 1609.5 240.5Z"
       stroke="#000000"
       stroke-width="3.20833"
       stroke-linejoin="round"
       stroke-miterlimit="10"
       fill="#FFFFFF"
       fill-rule="evenodd"
       id="path86" /><g
       id="g115"
       transform="translate(-77.000211)"><text
         font-family="Arial, Arial_MSFontService, sans-serif"
         font-weight="400"
         font-size="46px"
         transform="translate(1708.67,255)"
         id="text86">R</text><text
         font-family="Arial,Arial_MSFontService,sans-serif"
         font-weight="400"
         font-size="28"
         transform="translate(1743.5,260)"
         id="text87"
         style="font-style:normal;font-variant:normal;font-weight:normal;font-stretch:normal;font-size:28px;font-family:Arial, Arial_MSFontService, sans-serif;-inkscape-font-specification:'Arial, Arial_MSFontService, sans-serif, Normal';font-variant-ligatures:normal;font-variant-caps:normal;font-variant-numeric:normal;font-variant-east-asian:normal"><tspan
           id="tspan114"
           x="0"
           y="0">D1</tspan></text></g><path
       d="M1609.5 383.5C1609.5 352.02 1636.14 326.5 1669 326.5 1701.86 326.5 1728.5 352.02 1728.5 383.5 1728.5 414.98 1701.86 440.5 1669 440.5 1636.14 440.5 1609.5 414.98 1609.5 383.5Z"
       stroke="#000000"
       stroke-width="3.20833"
       stroke-linejoin="round"
       stroke-miterlimit="10"
       fill="#FFFFFF"
       fill-rule="evenodd"
       id="path88" /><g
       id="g114"
       transform="translate(-77.000211)"><text
         font-family="Arial, Arial_MSFontService, sans-serif"
         font-weight="400"
         font-size="46px"
         transform="translate(1708.67,398)"
         id="text89">R</text><text
         font-family="Arial,Arial_MSFontService,sans-serif"
         font-weight="400"
         font-size="28"
         transform="translate(1743.5,403)"
         id="text90"
         style="font-style:normal;font-variant:normal;font-weight:normal;font-stretch:normal;font-size:28px;font-family:Arial, Arial_MSFontService, sans-serif;-inkscape-font-specification:'Arial, Arial_MSFontService, sans-serif, Normal';font-variant-ligatures:normal;font-variant-caps:normal;font-variant-numeric:normal;font-variant-east-asian:normal"><tspan
           id="tspan113"
           x="0"
           y="0">D2</tspan></text></g><path
       d="M1609.5 534.5C1609.5 503.02 1636.14 477.5 1669 477.5 1701.86 477.5 1728.5 503.02 1728.5 534.5 1728.5 565.98 1701.86 591.5 1669 591.5 1636.14 591.5 1609.5 565.98 1609.5 534.5Z"
       stroke="#000000"
       stroke-width="3.20833"
       stroke-linejoin="round"
       stroke-miterlimit="10"
       fill="#FFFFFF"
       fill-rule="evenodd"
       id="path91" /><g
       id="g113"
       transform="translate(-77.000211)"><text
         font-family="Arial, Arial_MSFontService, sans-serif"
         font-weight="400"
         font-size="46px"
         transform="translate(1708.67,549)"
         id="text92">R</text><text
         font-family="Arial,Arial_MSFontService,sans-serif"
         font-weight="400"
         font-size="28"
         transform="translate(1743.5,554)"
         id="text93"
         style="font-style:normal;font-variant:normal;font-weight:normal;font-stretch:normal;font-size:28px;font-family:Arial, Arial_MSFontService, sans-serif;-inkscape-font-specification:'Arial, Arial_MSFontService, sans-serif, Normal';font-variant-ligatures:normal;font-variant-caps:normal;font-variant-numeric:normal;font-variant-east-asian:normal"><tspan
           id="tspan112"
           x="0"
           y="0">D3</tspan></text></g><path
       d="M1609.5 798.5C1609.5 767.02 1636.14 741.5 1669 741.5 1701.86 741.5 1728.5 767.02 1728.5 798.5 1728.5 829.98 1701.86 855.5 1669 855.5 1636.14 855.5 1609.5 829.98 1609.5 798.5Z"
       stroke="#000000"
       stroke-width="3.20833"
       stroke-linejoin="round"
       stroke-miterlimit="10"
       fill="#FFFFFF"
       fill-rule="evenodd"
       id="path94" /><g
       id="g112"
       transform="translate(-75.000211)"><text
         font-family="Arial, Arial_MSFontService, sans-serif"
         font-weight="400"
         font-size="46px"
         transform="translate(1707.06,816)"
         id="text95">R</text><text
         font-family="Arial, Arial_MSFontService, sans-serif"
         font-weight="400"
         font-size="32px"
         transform="translate(1741.9,822)"
         id="text96">Dn</text></g><g
       id="g111"><path
         d="M1672 611.046 1672 610.364 1671.57 609.909 1670.93 609.455 1670.5 609 1670.5 609 1670.07 609.455 1669.43 609.909 1669 610.364 1669 621.954 1669 622.409 1669.43 622.864 1670.07 623.545 1670.5 624 1670.93 624 1671.57 623.545 1672 622.864 1672 622.409 1672 611.046Z"
         fill-rule="evenodd"
         id="path96" /><path
         d="M1672 631.697 1672 631.212 1672 630.485 1671.57 630 1670.93 630 1670.5 630 1670.07 630 1669.43 630.485 1669 631.212 1669 643.818 1669 644.545 1669.43 645.03 1670.07 645.515 1670.5 646 1670.93 646 1671.57 645.515 1672 645.03 1672 644.545 1672 631.697Z"
         fill-rule="evenodd"
         id="path97" /><path
         d="M1672 653.364 1672 652.909 1672 652.455 1671.57 652 1670.93 652 1670.5 652 1670.07 652 1669.43 652.455 1669 652.909 1669 664.954 1669 665.409 1669.43 665.864 1670.07 666.318 1670.5 667 1670.93 667 1671.57 666.318 1672 665.864 1672 665.409 1672 653.364Z"
         fill-rule="evenodd"
         id="path98" /><path
         d="M1672 674.591 1672 673.909 1672 673.455 1671.57 673 1670.93 673 1670.5 673 1670.07 673 1669.43 673.455 1669 673.909 1669 685.954 1669 686.409 1669.43 687.091 1670.07 687.545 1670.5 688 1670.93 688 1671.57 687.545 1672 687.091 1672 686.409 1672 674.591Z"
         fill-rule="evenodd"
         id="path99" /><path
         d="M1672 695.591 1672 695.136 1672 694.682 1671.57 694 1670.93 694 1670.5 694 1670.07 694 1669.43 694.682 1669 695.136 1669 707.182 1669 707.637 1669.43 708.091 1670.07 708.546 1670.5 709 1670.93 709 1671.57 708.546 1672 708.091 1672 707.637 1672 695.591Z"
         fill-rule="evenodd"
         id="path100" /><path
         d="M1672 716.455 1672 715.97 1672 715.485 1671.57 715 1670.93 715 1670.5 715 1670.07 715 1669.43 715.485 1669 715.97 1669 721.303 1669 721.303 1669.43 721.788 1670.07 722.273 1670.5 723 1670.5 723 1670.93 722.273 1671.57 721.788 1672 721.788 1672 716.455Z"
         fill-rule="evenodd"
         id="path101" /></g><path
       d="M1506.5 521.5C1506.5 291.75 1577.46 105.5 1665 105.5 1752.54 105.5 1823.5 291.75 1823.5 521.5 1823.5 751.25 1752.54 937.5 1665 937.5 1577.46 937.5 1506.5 751.25 1506.5 521.5Z"
       stroke="#000000"
       stroke-width="3.20833"
       stroke-linejoin="round"
       stroke-miterlimit="10"
       fill="none"
       fill-rule="evenodd"
       id="path102" /><text
       font-family="Arial,Arial_MSFontService,sans-serif"
       font-weight="700"
       font-size="46"
       id="text102"
       style="font-style:normal;font-variant:normal;font-weight:bold;font-stretch:normal;font-size:46px;font-family:Arial, Arial_MSFontService, sans-serif;-inkscape-font-specification:'Arial, Arial_MSFontService, sans-serif, Bold';font-variant-ligatures:normal;font-variant-caps:normal;font-variant-numeric:normal;font-variant-east-asian:normal"
       x="1472.3698"
       y="87"><tspan
         id="tspan111"
         x="1472.3698"
         y="87">Demand regions</tspan></text><text
       font-family="Arial,Arial_MSFontService,sans-serif"
       font-style="italic"
       font-weight="400"
       font-size="46"
       id="text105"
       style="font-style:italic;font-variant:normal;font-weight:normal;font-stretch:normal;font-size:46px;font-family:Arial, Arial_MSFontService, sans-serif;-inkscape-font-specification:'Arial, Arial_MSFontService, sans-serif, Italic';font-variant-ligatures:normal;font-variant-caps:normal;font-variant-numeric:normal;font-variant-east-asian:normal"
       x="1344.2301"
       y="254"><tspan
         id="tspan110"
         x="1344.2301"
         y="254">Import</tspan></text><path
       d="M1074.5 527.5C1074.5 496.02 1101.36 470.5 1134.5 470.5 1167.64 470.5 1194.5 496.02 1194.5 527.5 1194.5 558.98 1167.64 584.5 1134.5 584.5 1101.36 584.5 1074.5 558.98 1074.5 527.5Z"
       stroke="#000000"
       stroke-width="3.20833"
       stroke-linejoin="round"
       stroke-miterlimit="10"
       fill="#FFFFFF"
       fill-rule="evenodd"
       id="path106" /><g
       id="g110"
       transform="translate(-75.000211)"><text
         font-family="Arial, Arial_MSFontService, sans-serif"
         font-weight="400"
         font-size="46px"
         transform="translate(1180.21,544)"
         id="text107">R</text><text
         font-family="Arial, Arial_MSFontService, sans-serif"
         font-weight="400"
         font-size="32px"
         transform="translate(1215.04,551)"
         id="text108">M</text></g><text
       font-family="Arial, Arial_MSFontService, sans-serif"
       font-style="italic"
       font-weight="400"
       font-size="46px"
       id="text109"
       x="1061.4396"
       y="420">Export</text></g></svg>
