<?xml version="1.0" encoding="UTF-8" standalone="no"?>
<svg
   width="1798.1932"
   height="871.19073"
   xml:space="preserve"
   overflow="hidden"
   version="1.1"
   id="svg79"
   xmlns:xlink="http://www.w3.org/1999/xlink"
   xmlns="http://www.w3.org/2000/svg"
   xmlns:svg="http://www.w3.org/2000/svg"><defs
     id="defs1"><pattern
       xlink:href="#Checkerboard"
       preserveAspectRatio="xMidYMid"
       id="pattern102"
       patternTransform="matrix(5,0,0,5,121.74578,83.654653)"
       x="0"
       y="0" /><pattern
       xlink:href="#Checkerboard"
       preserveAspectRatio="xMidYMid"
       id="pattern101"
       patternTransform="matrix(5,0,0,5,121.74578,83.654653)"
       x="0"
       y="0" /><pattern
       xlink:href="#Checkerboard"
       preserveAspectRatio="xMidYMid"
       id="pattern100"
       patternTransform="matrix(5,0,0,5,121.74578,83.654653)"
       x="0"
       y="0" /><pattern
       xlink:href="#Checkerboard"
       preserveAspectRatio="xMidYMid"
       id="pattern98"
       patternTransform="matrix(5,0,0,5,121.74578,83.654653)"
       x="0"
       y="0" /><pattern
       xlink:href="#Checkerboard"
       preserveAspectRatio="xMidYMid"
       id="pattern96"
       patternTransform="matrix(5,0,0,5,121.74578,83.654653)"
       x="0"
       y="0" /><pattern
       xlink:href="#Checkerboard"
       preserveAspectRatio="xMidYMid"
       id="pattern95"
       patternTransform="matrix(5,0,0,5,121.74578,83.654653)"
       x="0"
       y="0" /><pattern
       xlink:href="#Checkerboard"
       preserveAspectRatio="xMidYMid"
       id="pattern94"
       patternTransform="matrix(5,0,0,5,121.74578,83.654653)"
       x="0"
       y="0" /><pattern
       xlink:href="#Checkerboard"
       preserveAspectRatio="xMidYMid"
       id="pattern93"
       patternTransform="matrix(5,0,0,5,121.74578,83.654653)"
       x="0"
       y="0" /><pattern
       xlink:href="#Checkerboard"
       preserveAspectRatio="xMidYMid"
       id="pattern92"
       patternTransform="matrix(5,0,0,5,121.74578,83.654653)"
       x="0"
       y="0" /><pattern
       style="fill:#000000"
       patternUnits="userSpaceOnUse"
       width="2"
       height="2"
       patternTransform="translate(0,0) scale(10,10)"
       id="Checkerboard"
       preserveAspectRatio="xMidYMid">
      <rect
   style="stroke:none"
   x="0"
   y="0"
   width="1"
   height="1"
   id="rect209" />
      <rect
   style="stroke:none"
   x="1"
   y="1"
   width="1"
   height="1"
   id="rect211" />
    </pattern><pattern
       xlink:href="#Strips1_1.5"
       preserveAspectRatio="xMidYMid"
       id="pattern90"
       patternTransform="matrix(3.5355339,3.5355339,-3.5355339,3.5355339,121.74578,83.654653)"
       x="0"
       y="0" /><pattern
       xlink:href="#Strips1_1.5"
       preserveAspectRatio="xMidYMid"
       id="pattern89"
       patternTransform="matrix(3.5355339,3.5355339,-3.5355339,3.5355339,121.74578,83.654653)"
       x="0"
       y="0" /><pattern
       xlink:href="#Strips1_1.5"
       preserveAspectRatio="xMidYMid"
       id="pattern88"
       patternTransform="matrix(3.5355339,3.5355339,-3.5355339,3.5355339,121.74578,83.654653)"
       x="0"
       y="0" /><pattern
       xlink:href="#Strips1_1.5"
       preserveAspectRatio="xMidYMid"
       id="pattern87"
       patternTransform="matrix(3.5355339,3.5355339,-3.5355339,3.5355339,121.74578,83.654653)"
       x="0"
       y="0" /><pattern
       xlink:href="#Strips1_1.5"
       preserveAspectRatio="xMidYMid"
       id="pattern86"
       patternTransform="matrix(3.5355339,3.5355339,-3.5355339,3.5355339,121.74578,83.654653)"
       x="0"
       y="0" /><pattern
       patternUnits="userSpaceOnUse"
       width="2.5"
       height="1"
       patternTransform="translate(0,0) scale(2,2)"
       preserveAspectRatio="xMidYMid"
       id="Strips1_1.5"
       style="fill:#000000">
      <rect
   style="stroke:none"
   x="0"
   y="-0.5"
   width="1"
   height="2"
   id="rect140" />
    </pattern><clipPath
       id="clip0"><rect
         x="-1"
         y="-1"
         width="2062"
         height="1554"
         id="rect1" /></clipPath></defs><g
     clip-path="url(#clip0)"
     transform="translate(-120.74578,-82.654653)"
     id="g79"><rect
       x="121.54677"
       y="83.455643"
       width="1796.5913"
       height="869.58875"
       stroke="#000000"
       stroke-width="1.60198"
       stroke-miterlimit="8"
       fill="none"
       id="rect2" /><path
       d="M 498,846 H 1733.67"
       stroke="#000000"
       stroke-width="4.35417"
       stroke-linejoin="round"
       stroke-miterlimit="10"
       fill="none"
       fill-rule="evenodd"
       id="path3" /><rect
       x="652.5"
       y="760.5"
       width="85.999901"
       height="86.000298"
       stroke="#000000"
       stroke-width="3.4375"
       stroke-linecap="round"
       stroke-miterlimit="8"
       fill="none"
       id="rect5"
       style="fill:url(#pattern90);fill-opacity:1" /><rect
       x="738.5"
       y="760.5"
       width="86.000298"
       height="86.000298"
       stroke="#000000"
       stroke-width="3.4375"
       stroke-linecap="round"
       stroke-miterlimit="8"
       fill="none"
       id="rect7"
       style="fill:url(#pattern100);fill-opacity:1" /><rect
       x="824.5"
       y="760.5"
       width="85.999901"
       height="86.000298"
       stroke="#000000"
       stroke-width="3.4375"
       stroke-linecap="round"
       stroke-miterlimit="8"
       fill="none"
       id="rect9"
       style="fill:url(#pattern101);fill-opacity:1" /><rect
       x="738.5"
       y="674.5"
       width="86.000298"
       height="85.999901"
       stroke="#000000"
       stroke-width="3.4375"
       stroke-linecap="round"
       stroke-miterlimit="8"
       fill="none"
       id="rect11"
       style="fill:url(#pattern89);fill-opacity:1" /><rect
       x="824.5"
       y="674.5"
       width="85.999901"
       height="85.999901"
       stroke="#000000"
       stroke-width="3.4375"
       stroke-linecap="round"
       stroke-miterlimit="8"
       fill="none"
       id="rect12"
       style="fill:url(#pattern98);fill-opacity:1" /><rect
       x="910.5"
       y="674.5"
       width="85.999901"
       height="85.999901"
       stroke="#000000"
       stroke-width="3.4375"
       stroke-linecap="round"
       stroke-miterlimit="8"
       fill="none"
       id="rect14"
       style="fill:url(#pattern102);fill-opacity:1" /><rect
       x="824.5"
       y="588.5"
       width="85.999901"
       height="85.999901"
       stroke="#000000"
       stroke-width="3.4375"
       stroke-linecap="round"
       stroke-miterlimit="8"
       fill="none"
       id="rect16"
       style="fill:url(#pattern88);fill-opacity:1" /><rect
       x="910.5"
       y="588.5"
       width="85.999901"
       height="85.999901"
       stroke="#000000"
       stroke-width="3.4375"
       stroke-linecap="round"
       stroke-miterlimit="8"
       fill="none"
       id="rect18"
       style="fill:url(#pattern96);fill-opacity:1" /><rect
       x="996.5"
       y="588.5"
       width="84.999901"
       height="85.999901"
       stroke="#000000"
       stroke-width="3.4375"
       stroke-linecap="round"
       stroke-miterlimit="8"
       fill="none"
       id="rect20"
       style="fill:url(#pattern95);fill-opacity:1" /><rect
       x="910.5"
       y="501.5"
       width="85.999901"
       height="87"
       stroke="#000000"
       stroke-width="3.4375"
       stroke-linecap="round"
       stroke-miterlimit="8"
       fill="none"
       id="rect22"
       style="fill:url(#pattern87);fill-opacity:1" /><rect
       x="996.5"
       y="501.5"
       width="84.999901"
       height="87"
       stroke="#000000"
       stroke-width="3.4375"
       stroke-linecap="round"
       stroke-miterlimit="8"
       fill="none"
       id="rect24"
       style="fill:url(#pattern94);fill-opacity:1" /><rect
       x="1081.5"
       y="501.5"
       width="85.999901"
       height="87"
       stroke="#000000"
       stroke-width="3.4375"
       stroke-linecap="round"
       stroke-miterlimit="8"
       fill="none"
       id="rect26"
       style="fill:url(#pattern93);fill-opacity:1" /><path
       d="M 0,0 3.60892e-4,620.812"
       stroke="#000000"
       stroke-width="4.35417"
       stroke-linejoin="round"
       stroke-miterlimit="10"
       fill="none"
       fill-rule="evenodd"
       transform="matrix(1,0,0,-1,652,897.813)"
       id="path26" /><path
       d="M 1339,296 V 916.583"
       stroke="#000000"
       stroke-width="4.35417"
       stroke-linejoin="round"
       stroke-miterlimit="10"
       fill="none"
       fill-rule="evenodd"
       id="path27" /><path
       d="m 661.087,287.25 v 0 c 1.074,0 1.718,0.875 1.718,1.75 0,1.094 -0.644,1.75 -1.718,1.75 v 0 c -0.858,0 -1.717,-0.656 -1.717,-1.75 0,-0.875 0.859,-1.75 1.717,-1.75 z m 6.87,0 h 0.215 c 0.859,0 1.718,0.875 1.718,1.75 0,1.094 -0.859,1.75 -1.718,1.75 h -0.215 c -0.858,0 -1.717,-0.656 -1.717,-1.75 0,-0.875 0.859,-1.75 1.717,-1.75 z m 7.085,0 v 0 c 0.859,0 1.718,0.875 1.718,1.75 0,1.094 -0.859,1.75 -1.718,1.75 v 0 c -1.073,0 -1.717,-0.656 -1.717,-1.75 0,-0.875 0.644,-1.75 1.717,-1.75 z m 6.87,0 v 0 c 0.859,0 1.718,0.875 1.718,1.75 0,1.094 -0.859,1.75 -1.718,1.75 v 0 c -1.073,0 -1.717,-0.656 -1.717,-1.75 0,-0.875 0.644,-1.75 1.717,-1.75 z m 6.87,0 v 0 c 0.859,0 1.718,0.875 1.718,1.75 0,1.094 -0.859,1.75 -1.718,1.75 v 0 c -1.073,0 -1.717,-0.656 -1.717,-1.75 0,-0.875 0.644,-1.75 1.717,-1.75 z m 6.87,0 v 0 c 0.859,0 1.718,0.875 1.718,1.75 0,1.094 -0.859,1.75 -1.718,1.75 v 0 c -1.073,0 -1.717,-0.656 -1.717,-1.75 0,-0.875 0.644,-1.75 1.717,-1.75 z m 6.87,0 v 0 c 0.859,0 1.718,0.875 1.718,1.75 0,1.094 -0.859,1.75 -1.718,1.75 v 0 c -1.073,0 -1.717,-0.656 -1.717,-1.75 0,-0.875 0.644,-1.75 1.717,-1.75 z m 6.87,0 v 0 c 0.859,0 1.718,0.875 1.718,1.75 0,1.094 -0.859,1.75 -1.718,1.75 v 0 c -1.073,0 -1.717,-0.656 -1.717,-1.75 0,-0.875 0.644,-1.75 1.717,-1.75 z m 6.87,0 v 0 c 0.859,0 1.718,0.875 1.718,1.75 0,1.094 -0.859,1.75 -1.718,1.75 v 0 c -1.073,0 -1.717,-0.656 -1.717,-1.75 0,-0.875 0.644,-1.75 1.717,-1.75 z m 6.87,0 v 0 c 0.859,0 1.718,0.875 1.718,1.75 0,1.094 -0.859,1.75 -1.718,1.75 v 0 c -1.073,0 -1.717,-0.656 -1.717,-1.75 0,-0.875 0.644,-1.75 1.717,-1.75 z m 6.87,0 v 0 c 0.859,0 1.718,0.875 1.718,1.75 0,1.094 -0.859,1.75 -1.718,1.75 v 0 c -1.073,0 -1.717,-0.656 -1.717,-1.75 0,-0.875 0.644,-1.75 1.717,-1.75 z m 6.87,0 v 0 c 0.859,0 1.718,0.875 1.718,1.75 0,1.094 -0.859,1.75 -1.718,1.75 v 0 c -1.073,0 -1.717,-0.656 -1.717,-1.75 0,-0.875 0.644,-1.75 1.717,-1.75 z m 6.87,0 v 0 c 0.859,0 1.718,0.875 1.718,1.75 0,1.094 -0.859,1.75 -1.718,1.75 v 0 c -1.073,0 -1.717,-0.656 -1.717,-1.75 0,-0.875 0.644,-1.75 1.717,-1.75 z m 6.87,0 v 0 c 0.859,0 1.718,0.875 1.718,1.75 0,1.094 -0.859,1.75 -1.718,1.75 v 0 c -1.073,0 -1.717,-0.656 -1.717,-1.75 0,-0.875 0.644,-1.75 1.717,-1.75 z m 6.87,0 v 0 c 0.859,0 1.718,0.875 1.718,1.75 0,1.094 -0.859,1.75 -1.718,1.75 v 0 c -1.073,0 -1.717,-0.656 -1.717,-1.75 0,-0.875 0.644,-1.75 1.717,-1.75 z m 6.87,0 v 0 c 0.859,0 1.718,0.875 1.718,1.75 0,1.094 -0.859,1.75 -1.718,1.75 v 0 c -1.073,0 -1.717,-0.656 -1.717,-1.75 0,-0.875 0.644,-1.75 1.717,-1.75 z m 6.87,0 v 0 c 0.859,0 1.718,0.875 1.718,1.75 0,1.094 -0.859,1.75 -1.718,1.75 v 0 c -1.073,0 -1.717,-0.656 -1.717,-1.75 0,-0.875 0.644,-1.75 1.717,-1.75 z m 6.87,0 v 0 c 0.859,0 1.718,0.875 1.718,1.75 0,1.094 -0.859,1.75 -1.718,1.75 v 0 c -1.073,0 -1.717,-0.656 -1.717,-1.75 0,-0.875 0.644,-1.75 1.717,-1.75 z m 6.87,0 v 0 c 0.859,0 1.718,0.875 1.718,1.75 0,1.094 -0.859,1.75 -1.718,1.75 v 0 c -1.073,0 -1.717,-0.656 -1.717,-1.75 0,-0.875 0.644,-1.75 1.717,-1.75 z m 6.87,0 v 0 c 0.859,0 1.718,0.875 1.718,1.75 0,1.094 -0.859,1.75 -1.718,1.75 v 0 c -1.073,0 -1.717,-0.656 -1.717,-1.75 0,-0.875 0.644,-1.75 1.717,-1.75 z m 6.87,0 v 0 c 0.859,0 1.718,0.875 1.718,1.75 0,1.094 -0.859,1.75 -1.718,1.75 v 0 c -1.073,0 -1.717,-0.656 -1.717,-1.75 0,-0.875 0.644,-1.75 1.717,-1.75 z m 6.87,0 v 0 c 0.859,0 1.718,0.875 1.718,1.75 0,1.094 -0.859,1.75 -1.718,1.75 v 0 c -1.073,0 -1.717,-0.656 -1.717,-1.75 0,-0.875 0.644,-1.75 1.717,-1.75 z m 6.87,0 v 0 c 0.859,0 1.718,0.875 1.718,1.75 0,1.094 -0.859,1.75 -1.718,1.75 v 0 c -1.073,0 -1.717,-0.656 -1.717,-1.75 0,-0.875 0.644,-1.75 1.717,-1.75 z m 6.87,0 v 0 c 0.859,0 1.718,0.875 1.718,1.75 0,1.094 -0.859,1.75 -1.718,1.75 v 0 c -1.073,0 -1.717,-0.656 -1.717,-1.75 0,-0.875 0.644,-1.75 1.717,-1.75 z m 6.87,0 v 0 c 0.859,0 1.718,0.875 1.718,1.75 0,1.094 -0.859,1.75 -1.718,1.75 v 0 c -1.073,0 -1.717,-0.656 -1.717,-1.75 0,-0.875 0.644,-1.75 1.717,-1.75 z m 6.87,0 v 0 c 0.859,0 1.718,0.875 1.718,1.75 0,1.094 -0.859,1.75 -1.718,1.75 v 0 c -1.073,0 -1.717,-0.656 -1.717,-1.75 0,-0.875 0.644,-1.75 1.717,-1.75 z m 6.87,0 v 0 c 0.859,0 1.718,0.875 1.718,1.75 0,1.094 -0.859,1.75 -1.718,1.75 v 0 c -1.073,0 -1.717,-0.656 -1.717,-1.75 0,-0.875 0.644,-1.75 1.717,-1.75 z m 6.87,0 v 0 c 0.859,0 1.718,0.875 1.718,1.75 0,1.094 -0.859,1.75 -1.718,1.75 v 0 c -1.073,0 -1.717,-0.656 -1.717,-1.75 0,-0.875 0.644,-1.75 1.717,-1.75 z m 6.87,0 v 0 c 0.859,0 1.718,0.875 1.718,1.75 0,1.094 -0.859,1.75 -1.718,1.75 v 0 c -1.073,0 -1.717,-0.656 -1.717,-1.75 0,-0.875 0.644,-1.75 1.717,-1.75 z m 6.87,0 v 0 c 0.859,0 1.718,0.875 1.718,1.75 0,1.094 -0.859,1.75 -1.718,1.75 v 0 c -0.859,0 -1.717,-0.656 -1.717,-1.75 0,-0.875 0.858,-1.75 1.717,-1.75 z m 6.87,0 v 0 c 0.859,0 1.718,0.875 1.718,1.75 0,1.094 -0.859,1.75 -1.718,1.75 v 0 c -0.859,0 -1.717,-0.656 -1.717,-1.75 0,-0.875 0.858,-1.75 1.717,-1.75 z m 6.87,0 v 0 c 0.859,0 1.718,0.875 1.718,1.75 0,1.094 -0.859,1.75 -1.718,1.75 v 0 c -0.859,0 -1.717,-0.656 -1.717,-1.75 0,-0.875 0.858,-1.75 1.717,-1.75 z m 6.87,0 v 0 c 0.859,0 1.718,0.875 1.718,1.75 0,1.094 -0.859,1.75 -1.718,1.75 v 0 c -0.859,0 -1.717,-0.656 -1.717,-1.75 0,-0.875 0.858,-1.75 1.717,-1.75 z m 6.87,0 v 0 c 0.859,0 1.718,0.875 1.718,1.75 0,1.094 -0.859,1.75 -1.718,1.75 v 0 c -0.859,0 -1.717,-0.656 -1.717,-1.75 0,-0.875 0.858,-1.75 1.717,-1.75 z m 6.87,0 v 0 c 0.859,0 1.718,0.875 1.718,1.75 0,1.094 -0.859,1.75 -1.718,1.75 v 0 c -0.859,0 -1.717,-0.656 -1.717,-1.75 0,-0.875 0.858,-1.75 1.717,-1.75 z m 6.87,0 v 0 c 0.859,0 1.718,0.875 1.718,1.75 0,1.094 -0.859,1.75 -1.718,1.75 v 0 c -0.859,0 -1.717,-0.656 -1.717,-1.75 0,-0.875 0.858,-1.75 1.717,-1.75 z m 6.87,0 v 0 c 0.859,0 1.718,0.875 1.718,1.75 0,1.094 -0.859,1.75 -1.718,1.75 v 0 c -0.859,0 -1.717,-0.656 -1.717,-1.75 0,-0.875 0.858,-1.75 1.717,-1.75 z m 6.87,0 v 0 c 0.859,0 1.718,0.875 1.718,1.75 0,1.094 -0.859,1.75 -1.718,1.75 v 0 c -0.859,0 -1.717,-0.656 -1.717,-1.75 0,-0.875 0.858,-1.75 1.717,-1.75 z m 6.87,0 v 0 c 1.074,0 1.718,0.875 1.718,1.75 0,1.094 -0.644,1.75 -1.718,1.75 v 0 c -0.859,0 -1.717,-0.656 -1.717,-1.75 0,-0.875 0.858,-1.75 1.717,-1.75 z m 6.87,0 v 0 c 1.074,0 1.718,0.875 1.718,1.75 0,1.094 -0.644,1.75 -1.718,1.75 v 0 c -0.859,0 -1.717,-0.656 -1.717,-1.75 0,-0.875 0.858,-1.75 1.717,-1.75 z m 6.87,0 v 0 c 1.074,0 1.718,0.875 1.718,1.75 0,1.094 -0.644,1.75 -1.718,1.75 v 0 c -0.859,0 -1.717,-0.656 -1.717,-1.75 0,-0.875 0.858,-1.75 1.717,-1.75 z m 6.87,0 v 0 c 1.074,0 1.718,0.875 1.718,1.75 0,1.094 -0.644,1.75 -1.718,1.75 v 0 c -0.859,0 -1.717,-0.656 -1.717,-1.75 0,-0.875 0.858,-1.75 1.717,-1.75 z m 6.87,0 v 0 c 1.074,0 1.718,0.875 1.718,1.75 0,1.094 -0.644,1.75 -1.718,1.75 v 0 c -0.859,0 -1.717,-0.656 -1.717,-1.75 0,-0.875 0.858,-1.75 1.717,-1.75 z m 6.87,0 v 0 c 1.074,0 1.718,0.875 1.718,1.75 0,1.094 -0.644,1.75 -1.718,1.75 v 0 c -0.859,0 -1.717,-0.656 -1.717,-1.75 0,-0.875 0.858,-1.75 1.717,-1.75 z m 6.87,0 v 0 c 1.074,0 1.718,0.875 1.718,1.75 0,1.094 -0.644,1.75 -1.718,1.75 v 0 c -0.859,0 -1.717,-0.656 -1.717,-1.75 0,-0.875 0.858,-1.75 1.717,-1.75 z m 6.87,0 v 0 c 1.074,0 1.718,0.875 1.718,1.75 0,1.094 -0.644,1.75 -1.718,1.75 v 0 c -0.859,0 -1.717,-0.656 -1.717,-1.75 0,-0.875 0.858,-1.75 1.717,-1.75 z m 6.87,0 v 0 c 1.074,0 1.718,0.875 1.718,1.75 0,1.094 -0.644,1.75 -1.718,1.75 v 0 c -0.859,0 -1.717,-0.656 -1.717,-1.75 0,-0.875 0.858,-1.75 1.717,-1.75 z m 6.87,0 v 0 c 1.074,0 1.718,0.875 1.718,1.75 0,1.094 -0.644,1.75 -1.718,1.75 v 0 c -0.859,0 -1.717,-0.656 -1.717,-1.75 0,-0.875 0.858,-1.75 1.717,-1.75 z m 6.87,0 v 0 c 1.074,0 1.718,0.875 1.718,1.75 0,1.094 -0.644,1.75 -1.718,1.75 v 0 c -0.859,0 -1.717,-0.656 -1.717,-1.75 0,-0.875 0.858,-1.75 1.717,-1.75 z m 6.87,0 v 0 c 1.074,0 1.718,0.875 1.718,1.75 0,1.094 -0.644,1.75 -1.718,1.75 v 0 c -0.859,0 -1.717,-0.656 -1.717,-1.75 0,-0.875 0.858,-1.75 1.717,-1.75 z m 6.868,0 v 0 c 1.08,0 1.72,0.875 1.72,1.75 0,1.094 -0.64,1.75 -1.72,1.75 v 0 c -0.86,0 -1.72,-0.656 -1.72,-1.75 0,-0.875 0.86,-1.75 1.72,-1.75 z m 6.87,0 v 0 c 1.08,0 1.72,0.875 1.72,1.75 0,1.094 -0.64,1.75 -1.72,1.75 v 0 c -0.86,0 -1.72,-0.656 -1.72,-1.75 0,-0.875 0.86,-1.75 1.72,-1.75 z m 6.87,0 v 0 c 1.08,0 1.72,0.875 1.72,1.75 0,1.094 -0.64,1.75 -1.72,1.75 v 0 c -0.86,0 -1.72,-0.656 -1.72,-1.75 0,-0.875 0.86,-1.75 1.72,-1.75 z m 6.87,0 v 0 c 1.08,0 1.72,0.875 1.72,1.75 0,1.094 -0.64,1.75 -1.72,1.75 v 0 c -0.86,0 -1.72,-0.656 -1.72,-1.75 0,-0.875 0.86,-1.75 1.72,-1.75 z m 6.87,0 v 0 c 1.08,0 1.72,0.875 1.72,1.75 0,1.094 -0.64,1.75 -1.72,1.75 v 0 c -0.86,0 -1.72,-0.656 -1.72,-1.75 0,-0.875 0.86,-1.75 1.72,-1.75 z m 6.87,0 v 0 c 1.08,0 1.72,0.875 1.72,1.75 0,1.094 -0.64,1.75 -1.72,1.75 v 0 c -0.86,0 -1.72,-0.656 -1.72,-1.75 0,-0.875 0.86,-1.75 1.72,-1.75 z m 6.87,0 v 0 c 1.08,0 1.72,0.875 1.72,1.75 0,1.094 -0.64,1.75 -1.72,1.75 v 0 c -0.86,0 -1.72,-0.656 -1.72,-1.75 0,-0.875 0.86,-1.75 1.72,-1.75 z m 6.87,0 v 0 c 1.08,0 1.72,0.875 1.72,1.75 0,1.094 -0.64,1.75 -1.72,1.75 v 0 c -0.86,0 -1.72,-0.656 -1.72,-1.75 0,-0.875 0.86,-1.75 1.72,-1.75 z m 6.87,0 v 0 c 1.08,0 1.72,0.875 1.72,1.75 0,1.094 -0.64,1.75 -1.72,1.75 v 0 c -0.86,0 -1.72,-0.656 -1.72,-1.75 0,-0.875 0.86,-1.75 1.72,-1.75 z m 6.87,0 v 0 c 1.08,0 1.72,0.875 1.72,1.75 0,1.094 -0.64,1.75 -1.72,1.75 v 0 c -0.86,0 -1.72,-0.656 -1.72,-1.75 0,-0.875 0.86,-1.75 1.72,-1.75 z m 6.87,0 v 0 c 1.08,0 1.72,0.875 1.72,1.75 0,1.094 -0.64,1.75 -1.72,1.75 v 0 c -0.86,0 -1.72,-0.656 -1.72,-1.75 0,-0.875 0.86,-1.75 1.72,-1.75 z m 6.87,0 v 0 c 1.08,0 1.72,0.875 1.72,1.75 0,1.094 -0.64,1.75 -1.72,1.75 v 0 c -0.86,0 -1.72,-0.656 -1.72,-1.75 0,-0.875 0.86,-1.75 1.72,-1.75 z m 6.87,0 v 0 c 1.08,0 1.72,0.875 1.72,1.75 0,1.094 -0.64,1.75 -1.72,1.75 v 0 c -0.86,0 -1.72,-0.656 -1.72,-1.75 0,-0.875 0.86,-1.75 1.72,-1.75 z m 6.87,0 v 0 c 1.08,0 1.72,0.875 1.72,1.75 0,1.094 -0.64,1.75 -1.72,1.75 v 0 c -0.86,0 -1.72,-0.656 -1.72,-1.75 0,-0.875 0.86,-1.75 1.72,-1.75 z m 6.87,0 v 0 c 1.08,0 1.72,0.875 1.72,1.75 0,1.094 -0.64,1.75 -1.72,1.75 v 0 c -0.86,0 -1.72,-0.656 -1.72,-1.75 0,-0.875 0.86,-1.75 1.72,-1.75 z m 6.87,0 h 0.22 c 0.86,0 1.71,0.875 1.71,1.75 0,1.094 -0.85,1.75 -1.71,1.75 h -0.22 c -0.86,0 -1.72,-0.656 -1.72,-1.75 0,-0.875 0.86,-1.75 1.72,-1.75 z m 7.09,0 v 0 c 0.86,0 1.71,0.875 1.71,1.75 0,1.094 -0.85,1.75 -1.71,1.75 v 0 c -1.08,0 -1.72,-0.656 -1.72,-1.75 0,-0.875 0.64,-1.75 1.72,-1.75 z m 6.87,0 v 0 c 0.86,0 1.71,0.875 1.71,1.75 0,1.094 -0.85,1.75 -1.71,1.75 v 0 c -1.08,0 -1.72,-0.656 -1.72,-1.75 0,-0.875 0.64,-1.75 1.72,-1.75 z m 6.87,0 v 0 c 0.86,0 1.71,0.875 1.71,1.75 0,1.094 -0.85,1.75 -1.71,1.75 v 0 c -1.08,0 -1.72,-0.656 -1.72,-1.75 0,-0.875 0.64,-1.75 1.72,-1.75 z m 6.87,0 v 0 c 0.86,0 1.71,0.875 1.71,1.75 0,1.094 -0.85,1.75 -1.71,1.75 v 0 c -1.08,0 -1.72,-0.656 -1.72,-1.75 0,-0.875 0.64,-1.75 1.72,-1.75 z m 6.87,0 v 0 c 0.86,0 1.71,0.875 1.71,1.75 0,1.094 -0.85,1.75 -1.71,1.75 v 0 c -1.08,0 -1.72,-0.656 -1.72,-1.75 0,-0.875 0.64,-1.75 1.72,-1.75 z m 6.87,0 v 0 c 0.86,0 1.71,0.875 1.71,1.75 0,1.094 -0.85,1.75 -1.71,1.75 v 0 c -1.08,0 -1.72,-0.656 -1.72,-1.75 0,-0.875 0.64,-1.75 1.72,-1.75 z m 6.87,0 v 0 c 0.86,0 1.71,0.875 1.71,1.75 0,1.094 -0.85,1.75 -1.71,1.75 v 0 c -1.08,0 -1.72,-0.656 -1.72,-1.75 0,-0.875 0.64,-1.75 1.72,-1.75 z m 6.87,0 v 0 c 0.86,0 1.71,0.875 1.71,1.75 0,1.094 -0.85,1.75 -1.71,1.75 v 0 c -1.08,0 -1.72,-0.656 -1.72,-1.75 0,-0.875 0.64,-1.75 1.72,-1.75 z m 6.87,0 v 0 c 0.86,0 1.71,0.875 1.71,1.75 0,1.094 -0.85,1.75 -1.71,1.75 v 0 c -1.08,0 -1.72,-0.656 -1.72,-1.75 0,-0.875 0.64,-1.75 1.72,-1.75 z m 6.87,0 v 0 c 0.86,0 1.71,0.875 1.71,1.75 0,1.094 -0.85,1.75 -1.71,1.75 v 0 c -1.08,0 -1.72,-0.656 -1.72,-1.75 0,-0.875 0.64,-1.75 1.72,-1.75 z m 6.87,0 v 0 c 0.86,0 1.71,0.875 1.71,1.75 0,1.094 -0.85,1.75 -1.71,1.75 v 0 c -1.08,0 -1.72,-0.656 -1.72,-1.75 0,-0.875 0.64,-1.75 1.72,-1.75 z m 6.87,0 v 0 c 0.86,0 1.71,0.875 1.71,1.75 0,1.094 -0.85,1.75 -1.71,1.75 v 0 c -1.08,0 -1.72,-0.656 -1.72,-1.75 0,-0.875 0.64,-1.75 1.72,-1.75 z m 6.87,0 v 0 c 0.86,0 1.71,0.875 1.71,1.75 0,1.094 -0.85,1.75 -1.71,1.75 v 0 c -1.08,0 -1.72,-0.656 -1.72,-1.75 0,-0.875 0.64,-1.75 1.72,-1.75 z m 6.87,0 v 0 c 0.86,0 1.71,0.875 1.71,1.75 0,1.094 -0.85,1.75 -1.71,1.75 v 0 c -1.08,0 -1.72,-0.656 -1.72,-1.75 0,-0.875 0.64,-1.75 1.72,-1.75 z m 6.87,0 v 0 c 0.86,0 1.71,0.875 1.71,1.75 0,1.094 -0.85,1.75 -1.71,1.75 v 0 c -1.08,0 -1.72,-0.656 -1.72,-1.75 0,-0.875 0.64,-1.75 1.72,-1.75 z m 6.87,0 v 0 c 0.86,0 1.71,0.875 1.71,1.75 0,1.094 -0.85,1.75 -1.71,1.75 v 0 c -1.08,0 -1.72,-0.656 -1.72,-1.75 0,-0.875 0.64,-1.75 1.72,-1.75 z m 6.87,0 v 0 c 0.86,0 1.71,0.875 1.71,1.75 0,1.094 -0.85,1.75 -1.71,1.75 v 0 c -1.08,0 -1.72,-0.656 -1.72,-1.75 0,-0.875 0.64,-1.75 1.72,-1.75 z m 6.87,0 v 0 c 0.86,0 1.71,0.875 1.71,1.75 0,1.094 -0.85,1.75 -1.71,1.75 v 0 c -1.08,0 -1.72,-0.656 -1.72,-1.75 0,-0.875 0.64,-1.75 1.72,-1.75 z m 6.87,0 v 0 c 0.86,0 1.71,0.875 1.71,1.75 0,1.094 -0.85,1.75 -1.71,1.75 v 0 c -1.08,0 -1.72,-0.656 -1.72,-1.75 0,-0.875 0.64,-1.75 1.72,-1.75 z m 6.87,0 v 0 c 0.86,0 1.71,0.875 1.71,1.75 0,1.094 -0.85,1.75 -1.71,1.75 v 0 c -1.08,0 -1.72,-0.656 -1.72,-1.75 0,-0.875 0.64,-1.75 1.72,-1.75 z m 6.87,0 v 0 c 0.86,0 1.71,0.875 1.71,1.75 0,1.094 -0.85,1.75 -1.71,1.75 v 0 c -1.08,0 -1.72,-0.656 -1.72,-1.75 0,-0.875 0.64,-1.75 1.72,-1.75 z m 6.87,0 v 0 c 0.86,0 1.71,0.875 1.71,1.75 0,1.094 -0.85,1.75 -1.71,1.75 v 0 c -1.08,0 -1.72,-0.656 -1.72,-1.75 0,-0.875 0.64,-1.75 1.72,-1.75 z m 6.87,0 v 0 c 0.86,0 1.71,0.875 1.71,1.75 0,1.094 -0.85,1.75 -1.71,1.75 v 0 c -1.08,0 -1.72,-0.656 -1.72,-1.75 0,-0.875 0.64,-1.75 1.72,-1.75 z m 6.87,0 v 0 c 0.86,0 1.71,0.875 1.71,1.75 0,1.094 -0.85,1.75 -1.71,1.75 v 0 c -1.08,0 -1.72,-0.656 -1.72,-1.75 0,-0.875 0.64,-1.75 1.72,-1.75 z m 6.87,0 v 0 c 0.86,0 1.71,0.875 1.71,1.75 0,1.094 -0.85,1.75 -1.71,1.75 v 0 c -1.08,0 -1.72,-0.656 -1.72,-1.75 0,-0.875 0.64,-1.75 1.72,-1.75 z m 6.87,0 v 0 c 0.86,0 1.71,0.875 1.71,1.75 0,1.094 -0.85,1.75 -1.71,1.75 v 0 c -0.86,0 -1.72,-0.656 -1.72,-1.75 0,-0.875 0.86,-1.75 1.72,-1.75 z m 6.87,0 v 0 c 0.86,0 1.71,0.875 1.71,1.75 0,1.094 -0.85,1.75 -1.71,1.75 v 0 c -0.86,0 -1.72,-0.656 -1.72,-1.75 0,-0.875 0.86,-1.75 1.72,-1.75 z m 6.87,0 v 0 c 0.86,0 1.71,0.875 1.71,1.75 0,1.094 -0.85,1.75 -1.71,1.75 v 0 c -0.86,0 -1.72,-0.656 -1.72,-1.75 0,-0.875 0.86,-1.75 1.72,-1.75 z m 6.87,0 v 0 c 0.86,0 1.71,0.875 1.71,1.75 0,1.094 -0.85,1.75 -1.71,1.75 v 0 c -0.86,0 -1.72,-0.656 -1.72,-1.75 0,-0.875 0.86,-1.75 1.72,-1.75 z m 6.87,0 v 0 c 0.86,0 1.71,0.875 1.71,1.75 0,1.094 -0.85,1.75 -1.71,1.75 v 0 c -0.86,0 -1.72,-0.656 -1.72,-1.75 0,-0.875 0.86,-1.75 1.72,-1.75 z m 6.87,0 v 0 c 0.86,0 1.71,0.875 1.71,1.75 0,1.094 -0.85,1.75 -1.71,1.75 v 0 c -0.86,0 -1.72,-0.656 -1.72,-1.75 0,-0.875 0.86,-1.75 1.72,-1.75 z m 6.87,0 v 0 c 0.86,0 1.71,0.875 1.71,1.75 0,1.094 -0.85,1.75 -1.71,1.75 v 0 c -0.86,0 -1.72,-0.656 -1.72,-1.75 0,-0.875 0.86,-1.75 1.72,-1.75 z M 673.11,299.5 652.5,289 673.11,278.5 Z m 645.78,-21 20.61,10.5 -20.61,10.5 z"
       stroke="#000000"
       stroke-width="3.4375"
       stroke-linejoin="bevel"
       stroke-miterlimit="10"
       fill-rule="evenodd"
       id="path28" /><text
       font-family="'Times New Roman', 'Times New Roman_MSFontService', sans-serif"
       font-weight="400"
       font-size="37px"
       id="text28"
       x="983.05969"
       y="265">D(t)</text><text
       font-family="'Times New Roman', 'Times New Roman_MSFontService', sans-serif"
       font-weight="400"
       font-size="37px"
       id="text29"
       x="663.83276"
       y="903">B(t)</text><text
       font-family="Times New Roman,Times New Roman_MSFontService,sans-serif"
       font-weight="700"
       font-size="41"
       id="text30"
       style="font-style:normal;font-variant:normal;font-weight:bold;font-stretch:normal;font-size:41px;font-family:'Times New Roman', 'Times New Roman_MSFontService', sans-serif;-inkscape-font-specification:'Times New Roman, Times New Roman_MSFontService, sans-serif, Bold';font-variant-ligatures:normal;font-variant-caps:normal;font-variant-numeric:normal;font-variant-east-asian:normal"
       x="159.20842"
       y="342"><tspan
         id="tspan84"
         x="159.20842"
         y="342">Case 2.a Example:</tspan></text><g
       id="g83"
       transform="translate(-75.000324)"><text
         font-family="Times New Roman,Times New Roman_MSFontService,sans-serif"
         font-weight="400"
         font-size="37"
         transform="translate(234.208,430)"
         id="text35"
         style="font-style:normal;font-variant:normal;font-weight:normal;font-stretch:normal;font-size:37px;font-family:'Times New Roman', 'Times New Roman_MSFontService', sans-serif;-inkscape-font-specification:'Times New Roman, Times New Roman_MSFontService, sans-serif, Normal';font-variant-ligatures:normal;font-variant-caps:normal;font-variant-numeric:normal;font-variant-east-asian:normal"><tspan
           id="tspan83"
           x="0"
           y="0">D(t)=8, ILED=4</tspan></text><text
         font-family="Times New Roman,Times New Roman_MSFontService,sans-serif"
         font-weight="400"
         font-size="37"
         transform="translate(234.208,472)"
         id="text40"
         style="font-style:normal;font-variant:normal;font-weight:normal;font-stretch:normal;font-size:37px;font-family:'Times New Roman', 'Times New Roman_MSFontService', sans-serif;-inkscape-font-specification:'Times New Roman, Times New Roman_MSFontService, sans-serif, Normal';font-variant-ligatures:normal;font-variant-caps:normal;font-variant-numeric:normal;font-variant-east-asian:normal"><tspan
           id="tspan82"
           x="0"
           y="0">TLIFE=6, ELIFE=3</tspan></text></g><g
       id="g81"
       transform="translate(-85.000387)"><text
         font-family="'Times New Roman', 'Times New Roman_MSFontService', sans-serif"
         font-weight="400"
         font-size="37px"
         transform="translate(1662.37,158)"
         id="text44">Investment</text><text
         font-family="Times New Roman,Times New Roman_MSFontService,sans-serif"
         font-weight="400"
         font-size="37"
         transform="translate(1662.37,199)"
         id="text46"
         style="font-style:normal;font-variant:normal;font-weight:normal;font-stretch:normal;font-size:37px;font-family:'Times New Roman', 'Times New Roman_MSFontService', sans-serif;-inkscape-font-specification:'Times New Roman, Times New Roman_MSFontService, sans-serif, Normal';font-variant-ligatures:normal;font-variant-caps:normal;font-variant-numeric:normal;font-variant-east-asian:normal"><tspan
           id="tspan80"
           x="0"
           y="0">and payment:</tspan></text></g><g
       id="g80"
       transform="translate(-85.000258)"><text
         font-family="'Times New Roman', 'Times New Roman_MSFontService', sans-serif"
         font-weight="400"
         font-size="37px"
         transform="translate(1662.37,323)"
         id="text48">Payment</text><text
         font-family="Times New Roman,Times New Roman_MSFontService,sans-serif"
         font-weight="400"
         font-size="37"
         transform="translate(1662.37,365)"
         id="text49"
         style="font-style:normal;font-variant:normal;font-weight:normal;font-stretch:normal;font-size:37px;font-family:'Times New Roman', 'Times New Roman_MSFontService', sans-serif;-inkscape-font-specification:'Times New Roman, Times New Roman_MSFontService, sans-serif, Normal';font-variant-ligatures:normal;font-variant-caps:normal;font-variant-numeric:normal;font-variant-east-asian:normal"><tspan
           id="tspan81"
           x="0"
           y="0">only:</tspan></text></g><rect
       x="1789.5"
       y="129.5"
       width="85.999901"
       height="85.999901"
       stroke="#000000"
       stroke-width="3.4375"
       stroke-linecap="round"
       stroke-miterlimit="8"
       fill="none"
       id="rect51"
       style="fill:url(#pattern86);fill-opacity:1;stroke:#000000;stroke-width:3.438;stroke-dasharray:none;stroke-opacity:1" /><rect
       x="1789.5"
       y="292.5"
       width="85.999901"
       height="87"
       stroke="#000000"
       stroke-width="3.4375"
       stroke-linecap="round"
       stroke-miterlimit="8"
       fill="none"
       id="rect53"
       style="fill:url(#pattern92);fill-opacity:1" /><rect
       x="910.5"
       y="760.5"
       width="85.999901"
       height="86.000298"
       stroke="#000000"
       stroke-width="3.4375"
       stroke-linecap="round"
       stroke-miterlimit="8"
       fill="none"
       id="rect56" /><rect
       x="996.5"
       y="760.5"
       width="84.999901"
       height="86.000298"
       stroke="#000000"
       stroke-width="3.4375"
       stroke-linecap="round"
       stroke-miterlimit="8"
       fill="none"
       id="rect57" /><rect
       x="1081.5"
       y="760.5"
       width="85.999901"
       height="86.000298"
       stroke="#000000"
       stroke-width="3.4375"
       stroke-linecap="round"
       stroke-miterlimit="8"
       fill="none"
       id="rect58" /><rect
       x="1167.5"
       y="760.5"
       width="86.000198"
       height="86.000298"
       stroke="#000000"
       stroke-width="3.4375"
       stroke-linecap="round"
       stroke-miterlimit="8"
       fill="none"
       id="rect59" /><rect
       x="1253.5"
       y="760.5"
       width="85.999901"
       height="86.000298"
       stroke="#000000"
       stroke-width="3.4375"
       stroke-linecap="round"
       stroke-miterlimit="8"
       fill="none"
       id="rect60" /><rect
       x="996.5"
       y="674.5"
       width="84.999901"
       height="85.999901"
       stroke="#000000"
       stroke-width="3.4375"
       stroke-linecap="round"
       stroke-miterlimit="8"
       fill="none"
       id="rect61" /><rect
       x="1081.5"
       y="674.5"
       width="85.999901"
       height="85.999901"
       stroke="#000000"
       stroke-width="3.4375"
       stroke-linecap="round"
       stroke-miterlimit="8"
       fill="none"
       id="rect62" /><rect
       x="1167.5"
       y="674.5"
       width="86.000198"
       height="85.999901"
       stroke="#000000"
       stroke-width="3.4375"
       stroke-linecap="round"
       stroke-miterlimit="8"
       fill="none"
       id="rect63" /><rect
       x="1253.5"
       y="674.5"
       width="85.999901"
       height="85.999901"
       stroke="#000000"
       stroke-width="3.4375"
       stroke-linecap="round"
       stroke-miterlimit="8"
       fill="none"
       id="rect64" /><rect
       x="1081.5"
       y="588.5"
       width="85.999901"
       height="85.999901"
       stroke="#000000"
       stroke-width="3.4375"
       stroke-linecap="round"
       stroke-miterlimit="8"
       fill="none"
       id="rect65" /><rect
       x="1167.5"
       y="588.5"
       width="86.000198"
       height="85.999901"
       stroke="#000000"
       stroke-width="3.4375"
       stroke-linecap="round"
       stroke-miterlimit="8"
       fill="none"
       id="rect66" /><rect
       x="1253.5"
       y="588.5"
       width="85.999901"
       height="85.999901"
       stroke="#000000"
       stroke-width="3.4375"
       stroke-linecap="round"
       stroke-miterlimit="8"
       fill="none"
       id="rect67" /><rect
       x="1167.5"
       y="501.5"
       width="86.000198"
       height="87"
       stroke="#000000"
       stroke-width="3.4375"
       stroke-linecap="round"
       stroke-miterlimit="8"
       fill="none"
       id="rect68" /><rect
       x="1253.5"
       y="501.5"
       width="85.999901"
       height="87"
       stroke="#000000"
       stroke-width="3.4375"
       stroke-linecap="round"
       stroke-miterlimit="8"
       fill="none"
       id="rect69" /><rect
       x="1339.5"
       y="760.5"
       width="85.999901"
       height="86.000298"
       stroke="#000000"
       stroke-width="3.4375"
       stroke-linecap="round"
       stroke-miterlimit="8"
       fill="none"
       id="rect70" /><rect
       x="1425.5"
       y="760.5"
       width="85.999901"
       height="86.000298"
       stroke="#000000"
       stroke-width="3.4375"
       stroke-linecap="round"
       stroke-miterlimit="8"
       fill="none"
       id="rect71" /><rect
       x="1339.5"
       y="674.5"
       width="85.999901"
       height="85.999901"
       stroke="#000000"
       stroke-width="3.4375"
       stroke-linecap="round"
       stroke-miterlimit="8"
       fill="none"
       id="rect72" /><rect
       x="1425.5"
       y="674.5"
       width="85.999901"
       height="85.999901"
       stroke="#000000"
       stroke-width="3.4375"
       stroke-linecap="round"
       stroke-miterlimit="8"
       fill="none"
       id="rect73" /><rect
       x="1339.5"
       y="588.5"
       width="85.999901"
       height="85.999901"
       stroke="#000000"
       stroke-width="3.4375"
       stroke-linecap="round"
       stroke-miterlimit="8"
       fill="none"
       id="rect74" /><rect
       x="1425.5"
       y="588.5"
       width="85.999901"
       height="85.999901"
       stroke="#000000"
       stroke-width="3.4375"
       stroke-linecap="round"
       stroke-miterlimit="8"
       fill="none"
       id="rect75" /><rect
       x="1339.5"
       y="501.5"
       width="85.999901"
       height="87"
       stroke="#000000"
       stroke-width="3.4375"
       stroke-linecap="round"
       stroke-miterlimit="8"
       fill="none"
       id="rect76" /><rect
       x="1425.5"
       y="501.5"
       width="85.999901"
       height="87"
       stroke="#000000"
       stroke-width="3.4375"
       stroke-linecap="round"
       stroke-miterlimit="8"
       fill="none"
       id="rect77" /><path
       d="m 661.1,364.25 v 0 c 1.075,0 1.72,0.875 1.72,1.75 0,1.094 -0.645,1.75 -1.72,1.75 v 0 c -0.86,0 -1.72,-0.656 -1.72,-1.75 0,-0.875 0.86,-1.75 1.72,-1.75 z m 6.88,0 h 0.215 c 0.86,0 1.72,0.875 1.72,1.75 0,1.094 -0.86,1.75 -1.72,1.75 h -0.215 c -0.86,0 -1.72,-0.656 -1.72,-1.75 0,-0.875 0.86,-1.75 1.72,-1.75 z m 7.095,0 v 0 c 0.86,0 1.72,0.875 1.72,1.75 0,1.094 -0.86,1.75 -1.72,1.75 v 0 c -1.075,0 -1.72,-0.656 -1.72,-1.75 0,-0.875 0.645,-1.75 1.72,-1.75 z m 6.88,0 v 0 c 0.86,0 1.72,0.875 1.72,1.75 0,1.094 -0.86,1.75 -1.72,1.75 v 0 c -1.075,0 -1.72,-0.656 -1.72,-1.75 0,-0.875 0.645,-1.75 1.72,-1.75 z m 6.88,0 v 0 c 0.86,0 1.72,0.875 1.72,1.75 0,1.094 -0.86,1.75 -1.72,1.75 v 0 c -1.075,0 -1.72,-0.656 -1.72,-1.75 0,-0.875 0.645,-1.75 1.72,-1.75 z m 6.88,0 v 0 c 0.86,0 1.72,0.875 1.72,1.75 0,1.094 -0.86,1.75 -1.72,1.75 v 0 c -1.075,0 -1.72,-0.656 -1.72,-1.75 0,-0.875 0.645,-1.75 1.72,-1.75 z m 6.88,0 v 0 c 0.86,0 1.72,0.875 1.72,1.75 0,1.094 -0.86,1.75 -1.72,1.75 v 0 c -1.075,0 -1.72,-0.656 -1.72,-1.75 0,-0.875 0.645,-1.75 1.72,-1.75 z m 6.88,0 v 0 c 0.86,0 1.72,0.875 1.72,1.75 0,1.094 -0.86,1.75 -1.72,1.75 v 0 c -1.075,0 -1.72,-0.656 -1.72,-1.75 0,-0.875 0.645,-1.75 1.72,-1.75 z m 6.88,0 v 0 c 0.86,0 1.72,0.875 1.72,1.75 0,1.094 -0.86,1.75 -1.72,1.75 v 0 c -1.075,0 -1.72,-0.656 -1.72,-1.75 0,-0.875 0.645,-1.75 1.72,-1.75 z m 6.88,0 v 0 c 0.86,0 1.72,0.875 1.72,1.75 0,1.094 -0.86,1.75 -1.72,1.75 v 0 c -1.075,0 -1.72,-0.656 -1.72,-1.75 0,-0.875 0.645,-1.75 1.72,-1.75 z m 6.88,0 v 0 c 0.86,0 1.72,0.875 1.72,1.75 0,1.094 -0.86,1.75 -1.72,1.75 v 0 c -1.075,0 -1.72,-0.656 -1.72,-1.75 0,-0.875 0.645,-1.75 1.72,-1.75 z m 6.88,0 v 0 c 0.86,0 1.72,0.875 1.72,1.75 0,1.094 -0.86,1.75 -1.72,1.75 v 0 c -1.075,0 -1.72,-0.656 -1.72,-1.75 0,-0.875 0.645,-1.75 1.72,-1.75 z m 6.88,0 v 0 c 0.86,0 1.72,0.875 1.72,1.75 0,1.094 -0.86,1.75 -1.72,1.75 v 0 c -1.075,0 -1.72,-0.656 -1.72,-1.75 0,-0.875 0.645,-1.75 1.72,-1.75 z m 6.88,0 v 0 c 0.86,0 1.72,0.875 1.72,1.75 0,1.094 -0.86,1.75 -1.72,1.75 v 0 c -1.075,0 -1.72,-0.656 -1.72,-1.75 0,-0.875 0.645,-1.75 1.72,-1.75 z m 6.88,0 v 0 c 0.86,0 1.72,0.875 1.72,1.75 0,1.094 -0.86,1.75 -1.72,1.75 v 0 c -1.075,0 -1.72,-0.656 -1.72,-1.75 0,-0.875 0.645,-1.75 1.72,-1.75 z m 6.88,0 v 0 c 0.86,0 1.72,0.875 1.72,1.75 0,1.094 -0.86,1.75 -1.72,1.75 v 0 c -1.075,0 -1.72,-0.656 -1.72,-1.75 0,-0.875 0.645,-1.75 1.72,-1.75 z m 6.88,0 v 0 c 0.86,0 1.72,0.875 1.72,1.75 0,1.094 -0.86,1.75 -1.72,1.75 v 0 c -1.075,0 -1.72,-0.656 -1.72,-1.75 0,-0.875 0.645,-1.75 1.72,-1.75 z m 6.88,0 v 0 c 0.86,0 1.72,0.875 1.72,1.75 0,1.094 -0.86,1.75 -1.72,1.75 v 0 c -1.075,0 -1.72,-0.656 -1.72,-1.75 0,-0.875 0.645,-1.75 1.72,-1.75 z m 6.88,0 v 0 c 0.86,0 1.72,0.875 1.72,1.75 0,1.094 -0.86,1.75 -1.72,1.75 v 0 c -1.075,0 -1.72,-0.656 -1.72,-1.75 0,-0.875 0.645,-1.75 1.72,-1.75 z m 6.88,0 v 0 c 0.86,0 1.72,0.875 1.72,1.75 0,1.094 -0.86,1.75 -1.72,1.75 v 0 c -1.075,0 -1.72,-0.656 -1.72,-1.75 0,-0.875 0.645,-1.75 1.72,-1.75 z m 6.88,0 v 0 c 0.86,0 1.72,0.875 1.72,1.75 0,1.094 -0.86,1.75 -1.72,1.75 v 0 c -1.075,0 -1.72,-0.656 -1.72,-1.75 0,-0.875 0.645,-1.75 1.72,-1.75 z m 6.88,0 v 0 c 0.86,0 1.72,0.875 1.72,1.75 0,1.094 -0.86,1.75 -1.72,1.75 v 0 c -1.075,0 -1.72,-0.656 -1.72,-1.75 0,-0.875 0.645,-1.75 1.72,-1.75 z m 6.88,0 v 0 c 0.86,0 1.72,0.875 1.72,1.75 0,1.094 -0.86,1.75 -1.72,1.75 v 0 c -1.075,0 -1.72,-0.656 -1.72,-1.75 0,-0.875 0.645,-1.75 1.72,-1.75 z m 6.88,0 v 0 c 0.86,0 1.72,0.875 1.72,1.75 0,1.094 -0.86,1.75 -1.72,1.75 v 0 c -1.075,0 -1.72,-0.656 -1.72,-1.75 0,-0.875 0.645,-1.75 1.72,-1.75 z m 6.88,0 v 0 c 0.86,0 1.72,0.875 1.72,1.75 0,1.094 -0.86,1.75 -1.72,1.75 v 0 c -1.075,0 -1.72,-0.656 -1.72,-1.75 0,-0.875 0.645,-1.75 1.72,-1.75 z m 6.88,0 v 0 c 0.86,0 1.72,0.875 1.72,1.75 0,1.094 -0.86,1.75 -1.72,1.75 v 0 c -1.075,0 -1.72,-0.656 -1.72,-1.75 0,-0.875 0.645,-1.75 1.72,-1.75 z m 6.88,0 v 0 c 0.86,0 1.72,0.875 1.72,1.75 0,1.094 -0.86,1.75 -1.72,1.75 v 0 c -1.075,0 -1.72,-0.656 -1.72,-1.75 0,-0.875 0.645,-1.75 1.72,-1.75 z m 6.88,0 v 0 c 0.86,0 1.72,0.875 1.72,1.75 0,1.094 -0.86,1.75 -1.72,1.75 v 0 c -1.075,0 -1.72,-0.656 -1.72,-1.75 0,-0.875 0.645,-1.75 1.72,-1.75 z m 6.88,0 v 0 c 0.86,0 1.72,0.875 1.72,1.75 0,1.094 -0.86,1.75 -1.72,1.75 v 0 c -1.075,0 -1.72,-0.656 -1.72,-1.75 0,-0.875 0.645,-1.75 1.72,-1.75 z m 6.88,0 v 0 c 0.86,0 1.72,0.875 1.72,1.75 0,1.094 -0.86,1.75 -1.72,1.75 v 0 c -0.86,0 -1.72,-0.656 -1.72,-1.75 0,-0.875 0.86,-1.75 1.72,-1.75 z m 6.88,0 v 0 c 0.86,0 1.72,0.875 1.72,1.75 0,1.094 -0.86,1.75 -1.72,1.75 v 0 c -0.86,0 -1.72,-0.656 -1.72,-1.75 0,-0.875 0.86,-1.75 1.72,-1.75 z m 6.88,0 v 0 c 0.86,0 1.72,0.875 1.72,1.75 0,1.094 -0.86,1.75 -1.72,1.75 v 0 c -0.86,0 -1.72,-0.656 -1.72,-1.75 0,-0.875 0.86,-1.75 1.72,-1.75 z m 6.88,0 v 0 c 0.86,0 1.72,0.875 1.72,1.75 0,1.094 -0.86,1.75 -1.72,1.75 v 0 c -0.86,0 -1.72,-0.656 -1.72,-1.75 0,-0.875 0.86,-1.75 1.72,-1.75 z m 6.88,0 v 0 c 0.86,0 1.72,0.875 1.72,1.75 0,1.094 -0.86,1.75 -1.72,1.75 v 0 c -0.86,0 -1.72,-0.656 -1.72,-1.75 0,-0.875 0.86,-1.75 1.72,-1.75 z m 6.88,0 v 0 c 0.86,0 1.72,0.875 1.72,1.75 0,1.094 -0.86,1.75 -1.72,1.75 v 0 c -0.86,0 -1.72,-0.656 -1.72,-1.75 0,-0.875 0.86,-1.75 1.72,-1.75 z m 6.88,0 v 0 c 0.86,0 1.72,0.875 1.72,1.75 0,1.094 -0.86,1.75 -1.72,1.75 v 0 c -0.86,0 -1.72,-0.656 -1.72,-1.75 0,-0.875 0.86,-1.75 1.72,-1.75 z m 6.88,0 v 0 c 0.86,0 1.72,0.875 1.72,1.75 0,1.094 -0.86,1.75 -1.72,1.75 v 0 c -0.86,0 -1.72,-0.656 -1.72,-1.75 0,-0.875 0.86,-1.75 1.72,-1.75 z m 6.88,0 v 0 c 0.86,0 1.72,0.875 1.72,1.75 0,1.094 -0.86,1.75 -1.72,1.75 v 0 c -0.86,0 -1.72,-0.656 -1.72,-1.75 0,-0.875 0.86,-1.75 1.72,-1.75 z m 6.88,0 v 0 c 1.075,0 1.72,0.875 1.72,1.75 0,1.094 -0.645,1.75 -1.72,1.75 v 0 c -0.86,0 -1.72,-0.656 -1.72,-1.75 0,-0.875 0.86,-1.75 1.72,-1.75 z m 6.88,0 v 0 c 1.075,0 1.72,0.875 1.72,1.75 0,1.094 -0.645,1.75 -1.72,1.75 v 0 c -0.86,0 -1.72,-0.656 -1.72,-1.75 0,-0.875 0.86,-1.75 1.72,-1.75 z m 6.88,0 v 0 c 1.075,0 1.72,0.875 1.72,1.75 0,1.094 -0.645,1.75 -1.72,1.75 v 0 c -0.86,0 -1.72,-0.656 -1.72,-1.75 0,-0.875 0.86,-1.75 1.72,-1.75 z m 6.88,0 v 0 c 1.075,0 1.72,0.875 1.72,1.75 0,1.094 -0.645,1.75 -1.72,1.75 v 0 c -0.86,0 -1.72,-0.656 -1.72,-1.75 0,-0.875 0.86,-1.75 1.72,-1.75 z m 6.88,0 v 0 c 1.075,0 1.72,0.875 1.72,1.75 0,1.094 -0.645,1.75 -1.72,1.75 v 0 c -0.86,0 -1.72,-0.656 -1.72,-1.75 0,-0.875 0.86,-1.75 1.72,-1.75 z m 6.88,0 v 0 c 1.075,0 1.72,0.875 1.72,1.75 0,1.094 -0.645,1.75 -1.72,1.75 v 0 c -0.86,0 -1.72,-0.656 -1.72,-1.75 0,-0.875 0.86,-1.75 1.72,-1.75 z m 6.88,0 v 0 c 1.075,0 1.72,0.875 1.72,1.75 0,1.094 -0.645,1.75 -1.72,1.75 v 0 c -0.86,0 -1.72,-0.656 -1.72,-1.75 0,-0.875 0.86,-1.75 1.72,-1.75 z m 6.88,0 v 0 c 1.075,0 1.72,0.875 1.72,1.75 0,1.094 -0.645,1.75 -1.72,1.75 v 0 c -0.86,0 -1.72,-0.656 -1.72,-1.75 0,-0.875 0.86,-1.75 1.72,-1.75 z m 6.88,0 v 0 c 1.075,0 1.72,0.875 1.72,1.75 0,1.094 -0.645,1.75 -1.72,1.75 v 0 c -0.86,0 -1.72,-0.656 -1.72,-1.75 0,-0.875 0.86,-1.75 1.72,-1.75 z m 6.88,0 v 0 c 1.075,0 1.72,0.875 1.72,1.75 0,1.094 -0.645,1.75 -1.72,1.75 v 0 c -0.86,0 -1.72,-0.656 -1.72,-1.75 0,-0.875 0.86,-1.75 1.72,-1.75 z M 673.14,376.5 652.5,366 673.14,355.5 Z m 302.72,-21 20.64,10.5 -20.64,10.5 z"
       stroke="#000000"
       stroke-width="3.4375"
       stroke-linejoin="bevel"
       stroke-miterlimit="10"
       fill-rule="evenodd"
       id="path55" /><text
       font-family="'Times New Roman', 'Times New Roman_MSFontService', sans-serif"
       font-weight="400"
       font-size="37px"
       id="text55"
       x="797.66663"
       y="355">ILED</text><path
       d="m 1005.08,390.833 v 0 c 1.08,0 1.72,0.834 1.72,1.667 0,1.042 -0.64,1.667 -1.72,1.667 v 0 c -0.85,0 -1.71,-0.625 -1.71,-1.667 0,-0.833 0.86,-1.667 1.71,-1.667 z m 6.87,0 v 0 c 1.07,0 1.72,0.834 1.72,1.667 0,1.042 -0.65,1.667 -1.72,1.667 v 0 c -0.86,0 -1.72,-0.625 -1.72,-1.667 0,-0.833 0.86,-1.667 1.72,-1.667 z m 6.87,0 h 0.21 c 0.86,0 1.72,0.834 1.72,1.667 0,1.042 -0.86,1.667 -1.72,1.667 h -0.21 c -0.86,0 -1.72,-0.625 -1.72,-1.667 0,-0.833 0.86,-1.667 1.72,-1.667 z m 7.08,0 v 0 c 0.86,0 1.71,0.834 1.71,1.667 0,1.042 -0.85,1.667 -1.71,1.667 v 0 c -1.07,0 -1.72,-0.625 -1.72,-1.667 0,-0.833 0.65,-1.667 1.72,-1.667 z m 6.86,0 v 0 c 0.86,0 1.72,0.834 1.72,1.667 0,1.042 -0.86,1.667 -1.72,1.667 v 0 c -1.07,0 -1.71,-0.625 -1.71,-1.667 0,-0.833 0.64,-1.667 1.71,-1.667 z m 6.87,0 v 0 c 0.86,0 1.72,0.834 1.72,1.667 0,1.042 -0.86,1.667 -1.72,1.667 v 0 c -1.07,0 -1.72,-0.625 -1.72,-1.667 0,-0.833 0.65,-1.667 1.72,-1.667 z m 6.87,0 v 0 c 0.86,0 1.71,0.834 1.71,1.667 0,1.042 -0.85,1.667 -1.71,1.667 v 0 c -1.07,0 -1.72,-0.625 -1.72,-1.667 0,-0.833 0.65,-1.667 1.72,-1.667 z m 6.86,0 v 0 c 0.86,0 1.72,0.834 1.72,1.667 0,1.042 -0.86,1.667 -1.72,1.667 v 0 c -1.07,0 -1.71,-0.625 -1.71,-1.667 0,-0.833 0.64,-1.667 1.71,-1.667 z m 6.87,0 v 0 c 0.86,0 1.72,0.834 1.72,1.667 0,1.042 -0.86,1.667 -1.72,1.667 v 0 c -1.07,0 -1.72,-0.625 -1.72,-1.667 0,-0.833 0.65,-1.667 1.72,-1.667 z m 6.87,0 v 0 c 0.86,0 1.71,0.834 1.71,1.667 0,1.042 -0.85,1.667 -1.71,1.667 v 0 c -1.07,0 -1.72,-0.625 -1.72,-1.667 0,-0.833 0.65,-1.667 1.72,-1.667 z m 6.86,0 v 0 c 0.86,0 1.72,0.834 1.72,1.667 0,1.042 -0.86,1.667 -1.72,1.667 v 0 c -1.07,0 -1.71,-0.625 -1.71,-1.667 0,-0.833 0.64,-1.667 1.71,-1.667 z m 6.87,0 v 0 c 0.86,0 1.72,0.834 1.72,1.667 0,1.042 -0.86,1.667 -1.72,1.667 v 0 c -1.07,0 -1.72,-0.625 -1.72,-1.667 0,-0.833 0.65,-1.667 1.72,-1.667 z m 6.87,0 v 0 c 0.86,0 1.71,0.834 1.71,1.667 0,1.042 -0.85,1.667 -1.71,1.667 v 0 c -1.08,0 -1.72,-0.625 -1.72,-1.667 0,-0.833 0.64,-1.667 1.72,-1.667 z m 6.86,0 v 0 c 0.86,0 1.72,0.834 1.72,1.667 0,1.042 -0.86,1.667 -1.72,1.667 v 0 c -1.07,0 -1.71,-0.625 -1.71,-1.667 0,-0.833 0.64,-1.667 1.71,-1.667 z m 6.87,0 v 0 c 0.86,0 1.72,0.834 1.72,1.667 0,1.042 -0.86,1.667 -1.72,1.667 v 0 c -1.07,0 -1.72,-0.625 -1.72,-1.667 0,-0.833 0.65,-1.667 1.72,-1.667 z m 6.87,0 v 0 c 0.86,0 1.71,0.834 1.71,1.667 0,1.042 -0.85,1.667 -1.71,1.667 v 0 c -1.07,0 -1.72,-0.625 -1.72,-1.667 0,-0.833 0.65,-1.667 1.72,-1.667 z m 6.86,0 v 0 c 0.86,0 1.72,0.834 1.72,1.667 0,1.042 -0.86,1.667 -1.72,1.667 v 0 c -1.07,0 -1.71,-0.625 -1.71,-1.667 0,-0.833 0.64,-1.667 1.71,-1.667 z m 6.87,0 v 0 c 0.86,0 1.72,0.834 1.72,1.667 0,1.042 -0.86,1.667 -1.72,1.667 v 0 c -1.07,0 -1.72,-0.625 -1.72,-1.667 0,-0.833 0.65,-1.667 1.72,-1.667 z m 6.87,0 v 0 c 0.86,0 1.71,0.834 1.71,1.667 0,1.042 -0.85,1.667 -1.71,1.667 v 0 c -1.07,0 -1.72,-0.625 -1.72,-1.667 0,-0.833 0.65,-1.667 1.72,-1.667 z m 6.86,0 v 0 c 0.86,0 1.72,0.834 1.72,1.667 0,1.042 -0.86,1.667 -1.72,1.667 v 0 c -1.07,0 -1.71,-0.625 -1.71,-1.667 0,-0.833 0.64,-1.667 1.71,-1.667 z m 6.87,0 v 0 c 0.86,0 1.72,0.834 1.72,1.667 0,1.042 -0.86,1.667 -1.72,1.667 v 0 c -1.07,0 -1.72,-0.625 -1.72,-1.667 0,-0.833 0.65,-1.667 1.72,-1.667 z m 6.87,0 v 0 c 0.86,0 1.71,0.834 1.71,1.667 0,1.042 -0.85,1.667 -1.71,1.667 v 0 c -1.07,0 -1.72,-0.625 -1.72,-1.667 0,-0.833 0.65,-1.667 1.72,-1.667 z m 6.86,0 v 0 c 0.86,0 1.72,0.834 1.72,1.667 0,1.042 -0.86,1.667 -1.72,1.667 v 0 c -1.07,0 -1.71,-0.625 -1.71,-1.667 0,-0.833 0.64,-1.667 1.71,-1.667 z m 6.87,0 v 0 c 0.86,0 1.72,0.834 1.72,1.667 0,1.042 -0.86,1.667 -1.72,1.667 v 0 c -1.07,0 -1.72,-0.625 -1.72,-1.667 0,-0.833 0.65,-1.667 1.72,-1.667 z m 6.87,0 v 0 c 0.86,0 1.71,0.834 1.71,1.667 0,1.042 -0.85,1.667 -1.71,1.667 v 0 c -1.07,0 -1.72,-0.625 -1.72,-1.667 0,-0.833 0.65,-1.667 1.72,-1.667 z m 6.86,0 v 0 c 0.86,0 1.72,0.834 1.72,1.667 0,1.042 -0.86,1.667 -1.72,1.667 v 0 c -1.07,0 -1.71,-0.625 -1.71,-1.667 0,-0.833 0.64,-1.667 1.71,-1.667 z m 6.87,0 v 0 c 0.86,0 1.72,0.834 1.72,1.667 0,1.042 -0.86,1.667 -1.72,1.667 v 0 c -1.07,0 -1.72,-0.625 -1.72,-1.667 0,-0.833 0.65,-1.667 1.72,-1.667 z m 6.87,0 v 0 c 0.86,0 1.71,0.834 1.71,1.667 0,1.042 -0.85,1.667 -1.71,1.667 v 0 c -1.08,0 -1.72,-0.625 -1.72,-1.667 0,-0.833 0.64,-1.667 1.72,-1.667 z m 6.86,0 v 0 c 0.86,0 1.72,0.834 1.72,1.667 0,1.042 -0.86,1.667 -1.72,1.667 v 0 c -1.07,0 -1.71,-0.625 -1.71,-1.667 0,-0.833 0.64,-1.667 1.71,-1.667 z m 6.87,0 v 0 c 0.86,0 1.72,0.834 1.72,1.667 0,1.042 -0.86,1.667 -1.72,1.667 v 0 c -0.86,0 -1.72,-0.625 -1.72,-1.667 0,-0.833 0.86,-1.667 1.72,-1.667 z m 6.87,0 v 0 c 0.86,0 1.71,0.834 1.71,1.667 0,1.042 -0.85,1.667 -1.71,1.667 v 0 c -0.86,0 -1.72,-0.625 -1.72,-1.667 0,-0.833 0.86,-1.667 1.72,-1.667 z m 6.86,0 v 0 c 0.86,0 1.72,0.834 1.72,1.667 0,1.042 -0.86,1.667 -1.72,1.667 v 0 c -0.85,0 -1.71,-0.625 -1.71,-1.667 0,-0.833 0.86,-1.667 1.71,-1.667 z m 6.87,0 v 0 c 0.86,0 1.72,0.834 1.72,1.667 0,1.042 -0.86,1.667 -1.72,1.667 v 0 c -0.86,0 -1.72,-0.625 -1.72,-1.667 0,-0.833 0.86,-1.667 1.72,-1.667 z m 6.87,0 v 0 c 0.86,0 1.71,0.834 1.71,1.667 0,1.042 -0.85,1.667 -1.71,1.667 v 0 c -0.86,0 -1.72,-0.625 -1.72,-1.667 0,-0.833 0.86,-1.667 1.72,-1.667 z m 6.86,0 v 0 c 0.86,0 1.72,0.834 1.72,1.667 0,1.042 -0.86,1.667 -1.72,1.667 v 0 c -0.85,0 -1.71,-0.625 -1.71,-1.667 0,-0.833 0.86,-1.667 1.71,-1.667 z m 6.87,0 v 0 c 0.86,0 1.72,0.834 1.72,1.667 0,1.042 -0.86,1.667 -1.72,1.667 v 0 c -0.86,0 -1.72,-0.625 -1.72,-1.667 0,-0.833 0.86,-1.667 1.72,-1.667 z m 6.87,0 v 0 c 0.86,0 1.71,0.834 1.71,1.667 0,1.042 -0.85,1.667 -1.71,1.667 v 0 c -0.86,0 -1.72,-0.625 -1.72,-1.667 0,-0.833 0.86,-1.667 1.72,-1.667 z m 6.86,0 v 0 c 0.86,0 1.72,0.834 1.72,1.667 0,1.042 -0.86,1.667 -1.72,1.667 v 0 c -0.85,0 -1.71,-0.625 -1.71,-1.667 0,-0.833 0.86,-1.667 1.71,-1.667 z m 6.87,0 v 0 c 0.86,0 1.72,0.834 1.72,1.667 0,1.042 -0.86,1.667 -1.72,1.667 v 0 c -0.86,0 -1.72,-0.625 -1.72,-1.667 0,-0.833 0.86,-1.667 1.72,-1.667 z m 6.87,0 v 0 c 1.07,0 1.71,0.834 1.71,1.667 0,1.042 -0.64,1.667 -1.71,1.667 v 0 c -0.86,0 -1.72,-0.625 -1.72,-1.667 0,-0.833 0.86,-1.667 1.72,-1.667 z m 6.86,0 v 0 c 1.08,0 1.72,0.834 1.72,1.667 0,1.042 -0.64,1.667 -1.72,1.667 v 0 c -0.85,0 -1.71,-0.625 -1.71,-1.667 0,-0.833 0.86,-1.667 1.71,-1.667 z m 6.87,0 v 0 c 1.07,0 1.72,0.834 1.72,1.667 0,1.042 -0.65,1.667 -1.72,1.667 v 0 c -0.86,0 -1.72,-0.625 -1.72,-1.667 0,-0.833 0.86,-1.667 1.72,-1.667 z m 6.87,0 v 0 c 1.07,0 1.71,0.834 1.71,1.667 0,1.042 -0.64,1.667 -1.71,1.667 v 0 c -0.86,0 -1.72,-0.625 -1.72,-1.667 0,-0.833 0.86,-1.667 1.72,-1.667 z m 6.86,0 v 0 c 1.08,0 1.72,0.834 1.72,1.667 0,1.042 -0.64,1.667 -1.72,1.667 v 0 c -0.85,0 -1.71,-0.625 -1.71,-1.667 0,-0.833 0.86,-1.667 1.71,-1.667 z m 6.87,0 v 0 c 1.07,0 1.72,0.834 1.72,1.667 0,1.042 -0.65,1.667 -1.72,1.667 v 0 c -0.86,0 -1.72,-0.625 -1.72,-1.667 0,-0.833 0.86,-1.667 1.72,-1.667 z m 6.87,0 v 0 c 1.07,0 1.71,0.834 1.71,1.667 0,1.042 -0.64,1.667 -1.71,1.667 v 0 c -0.86,0 -1.72,-0.625 -1.72,-1.667 0,-0.833 0.86,-1.667 1.72,-1.667 z m 6.86,0 v 0 c 1.08,0 1.72,0.834 1.72,1.667 0,1.042 -0.64,1.667 -1.72,1.667 v 0 c -0.85,0 -1.71,-0.625 -1.71,-1.667 0,-0.833 0.86,-1.667 1.71,-1.667 z m 6.87,0 v 0 c 1.07,0 1.72,0.834 1.72,1.667 0,1.042 -0.65,1.667 -1.72,1.667 v 0 c -0.86,0 -1.72,-0.625 -1.72,-1.667 0,-0.833 0.86,-1.667 1.72,-1.667 z m 6.87,0 v 0 c 1.07,0 1.71,0.834 1.71,1.667 0,1.042 -0.64,1.667 -1.71,1.667 v 0 c -0.86,0 -1.72,-0.625 -1.72,-1.667 0,-0.833 0.86,-1.667 1.72,-1.667 z m 6.86,0 v 0 c 1.08,0 1.72,0.834 1.72,1.667 0,1.042 -0.64,1.667 -1.72,1.667 v 0 c -0.85,0 -1.71,-0.625 -1.71,-1.667 0,-0.833 0.86,-1.667 1.71,-1.667 z m 6.87,0 v 0 c 1.07,0 1.72,0.834 1.72,1.667 0,1.042 -0.65,1.667 -1.72,1.667 v 0 c -0.86,0 -1.72,-0.625 -1.72,-1.667 0,-0.833 0.86,-1.667 1.72,-1.667 z m 6.87,0 v 0 c 1.07,0 1.71,0.834 1.71,1.667 0,1.042 -0.64,1.667 -1.71,1.667 v 0 c -0.86,0 -1.72,-0.625 -1.72,-1.667 0,-0.833 0.86,-1.667 1.72,-1.667 z m 6.86,0 v 0 c 1.08,0 1.72,0.834 1.72,1.667 0,1.042 -0.64,1.667 -1.72,1.667 v 0 c -0.85,0 -1.71,-0.625 -1.71,-1.667 0,-0.833 0.86,-1.667 1.71,-1.667 z m 6.87,0 v 0 c 1.07,0 1.72,0.834 1.72,1.667 0,1.042 -0.65,1.667 -1.72,1.667 v 0 c -0.86,0 -1.72,-0.625 -1.72,-1.667 0,-0.833 0.86,-1.667 1.72,-1.667 z m 6.87,0 v 0 c 1.07,0 1.71,0.834 1.71,1.667 0,1.042 -0.64,1.667 -1.71,1.667 v 0 c -0.86,0 -1.72,-0.625 -1.72,-1.667 0,-0.833 0.86,-1.667 1.72,-1.667 z m 6.86,0 v 0 c 1.08,0 1.72,0.834 1.72,1.667 0,1.042 -0.64,1.667 -1.72,1.667 v 0 c -0.85,0 -1.71,-0.625 -1.71,-1.667 0,-0.833 0.86,-1.667 1.71,-1.667 z m 6.87,0 v 0 c 1.07,0 1.72,0.834 1.72,1.667 0,1.042 -0.65,1.667 -1.72,1.667 v 0 c -0.86,0 -1.72,-0.625 -1.72,-1.667 0,-0.833 0.86,-1.667 1.72,-1.667 z m 6.87,0 v 0 c 1.07,0 1.71,0.834 1.71,1.667 0,1.042 -0.64,1.667 -1.71,1.667 v 0 c -0.86,0 -1.72,-0.625 -1.72,-1.667 0,-0.833 0.86,-1.667 1.72,-1.667 z m 6.86,0 v 0 c 1.08,0 1.72,0.834 1.72,1.667 0,1.042 -0.64,1.667 -1.72,1.667 v 0 c -0.85,0 -1.71,-0.625 -1.71,-1.667 0,-0.833 0.86,-1.667 1.71,-1.667 z m 6.87,0 v 0 c 1.07,0 1.72,0.834 1.72,1.667 0,1.042 -0.65,1.667 -1.72,1.667 v 0 c -0.86,0 -1.72,-0.625 -1.72,-1.667 0,-0.833 0.86,-1.667 1.72,-1.667 z m 6.87,0 v 0 c 1.07,0 1.71,0.834 1.71,1.667 0,1.042 -0.64,1.667 -1.71,1.667 v 0 c -0.86,0 -1.72,-0.625 -1.72,-1.667 0,-0.833 0.86,-1.667 1.72,-1.667 z m 6.86,0 v 0 c 1.08,0 1.72,0.834 1.72,1.667 0,1.042 -0.64,1.667 -1.72,1.667 v 0 c -0.85,0 -1.71,-0.625 -1.71,-1.667 0,-0.833 0.86,-1.667 1.71,-1.667 z m 6.87,0 v 0 c 1.07,0 1.72,0.834 1.72,1.667 0,1.042 -0.65,1.667 -1.72,1.667 v 0 c -0.86,0 -1.72,-0.625 -1.72,-1.667 0,-0.833 0.86,-1.667 1.72,-1.667 z m 6.87,0 v 0 c 1.07,0 1.71,0.834 1.71,1.667 0,1.042 -0.64,1.667 -1.71,1.667 v 0 c -0.86,0 -1.72,-0.625 -1.72,-1.667 0,-0.833 0.86,-1.667 1.72,-1.667 z m 6.86,0 h 0.22 c 0.86,0 1.72,0.834 1.72,1.667 0,1.042 -0.86,1.667 -1.72,1.667 h -0.22 c -0.85,0 -1.71,-0.625 -1.71,-1.667 0,-0.833 0.86,-1.667 1.71,-1.667 z m 7.09,0 v 0 c 0.85,0 1.71,0.834 1.71,1.667 0,1.042 -0.86,1.667 -1.71,1.667 v 0 c -1.08,0 -1.72,-0.625 -1.72,-1.667 0,-0.833 0.64,-1.667 1.72,-1.667 z m 6.86,0 v 0 c 0.86,0 1.72,0.834 1.72,1.667 0,1.042 -0.86,1.667 -1.72,1.667 v 0 c -1.07,0 -1.71,-0.625 -1.71,-1.667 0,-0.833 0.64,-1.667 1.71,-1.667 z m 6.87,0 v 0 c 0.86,0 1.72,0.834 1.72,1.667 0,1.042 -0.86,1.667 -1.72,1.667 v 0 c -1.07,0 -1.72,-0.625 -1.72,-1.667 0,-0.833 0.65,-1.667 1.72,-1.667 z m 6.87,0 v 0 c 0.85,0 1.71,0.834 1.71,1.667 0,1.042 -0.86,1.667 -1.71,1.667 v 0 c -1.08,0 -1.72,-0.625 -1.72,-1.667 0,-0.833 0.64,-1.667 1.72,-1.667 z m 6.86,0 v 0 c 0.86,0 1.72,0.834 1.72,1.667 0,1.042 -0.86,1.667 -1.72,1.667 v 0 c -1.07,0 -1.71,-0.625 -1.71,-1.667 0,-0.833 0.64,-1.667 1.71,-1.667 z m 6.87,0 v 0 c 0.86,0 1.72,0.834 1.72,1.667 0,1.042 -0.86,1.667 -1.72,1.667 v 0 c -1.07,0 -1.72,-0.625 -1.72,-1.667 0,-0.833 0.65,-1.667 1.72,-1.667 z m 6.87,0 v 0 c 0.85,0 1.71,0.834 1.71,1.667 0,1.042 -0.86,1.667 -1.71,1.667 v 0 c -1.08,0 -1.72,-0.625 -1.72,-1.667 0,-0.833 0.64,-1.667 1.72,-1.667 z m 6.86,0 v 0 c 0.86,0 1.72,0.834 1.72,1.667 0,1.042 -0.86,1.667 -1.72,1.667 v 0 c -1.07,0 -1.71,-0.625 -1.71,-1.667 0,-0.833 0.64,-1.667 1.71,-1.667 z m -482.81,11.667 -20.6,-10 20.6,-10 z m 473.8,-20 20.6,10 -20.6,10 z"
       stroke="#000000"
       stroke-width="3.4375"
       stroke-linejoin="bevel"
       stroke-miterlimit="10"
       fill-rule="evenodd"
       id="path77" /><text
       font-family="'Times New Roman', 'Times New Roman_MSFontService', sans-serif"
       font-weight="400"
       font-size="37px"
       id="text77"
       x="1192.5199"
       y="379">TLIFE</text><path
       d="M 0,0 3.60892e-4,135.667"
       stroke="#000000"
       stroke-width="3.4375"
       stroke-linecap="round"
       stroke-linejoin="round"
       stroke-miterlimit="10"
       fill="none"
       fill-rule="evenodd"
       transform="matrix(1,0,0,-1,996.5,502.167)"
       id="path78" /><path
       d="m 919.067,481.833 h 10.28 c 1.071,0 1.713,0.834 1.713,1.667 0,1.042 -0.642,1.667 -1.713,1.667 h -10.28 c -0.857,0 -1.714,-0.625 -1.714,-1.667 0,-0.833 0.857,-1.667 1.714,-1.667 z m 23.986,0 h 10.28 c 1.071,0 1.714,0.834 1.714,1.667 0,1.042 -0.643,1.667 -1.714,1.667 h -10.28 c -0.856,0 -1.713,-0.625 -1.713,-1.667 0,-0.833 0.857,-1.667 1.713,-1.667 z m 23.987,0 h 10.28 c 1.071,0 1.713,0.834 1.713,1.667 0,1.042 -0.642,1.667 -1.713,1.667 h -10.28 c -0.857,0 -1.713,-0.625 -1.713,-1.667 0,-0.833 0.856,-1.667 1.713,-1.667 z m 23.987,0 h 10.283 c 1.07,0 1.71,0.834 1.71,1.667 0,1.042 -0.64,1.667 -1.71,1.667 h -10.283 c -0.857,0 -1.714,-0.625 -1.714,-1.667 0,-0.833 0.857,-1.667 1.714,-1.667 z m 23.983,0 h 10.28 c 1.07,0 1.72,0.834 1.72,1.667 0,1.042 -0.65,1.667 -1.72,1.667 h -10.28 c -0.85,0 -1.71,-0.625 -1.71,-1.667 0,-0.833 0.86,-1.667 1.71,-1.667 z m 23.99,0 h 10.28 c 1.07,0 1.71,0.834 1.71,1.667 0,1.042 -0.64,1.667 -1.71,1.667 H 1039 c -0.86,0 -1.71,-0.625 -1.71,-1.667 0,-0.833 0.85,-1.667 1.71,-1.667 z m 23.99,0 h 10.28 c 1.07,0 1.71,0.834 1.71,1.667 0,1.042 -0.64,1.667 -1.71,1.667 h -10.28 c -0.86,0 -1.72,-0.625 -1.72,-1.667 0,-0.833 0.86,-1.667 1.72,-1.667 z m 23.98,0 h 10.28 c 1.07,0 1.72,0.834 1.72,1.667 0,1.042 -0.65,1.667 -1.72,1.667 h -10.28 c -0.85,0 -1.71,-0.625 -1.71,-1.667 0,-0.833 0.86,-1.667 1.71,-1.667 z m 23.99,0 h 10.28 c 1.07,0 1.71,0.834 1.71,1.667 0,1.042 -0.64,1.667 -1.71,1.667 h -10.28 c -0.86,0 -1.71,-0.625 -1.71,-1.667 0,-0.833 0.85,-1.667 1.71,-1.667 z m 23.99,0 h 10.28 c 1.07,0 1.71,0.834 1.71,1.667 0,1.042 -0.64,1.667 -1.71,1.667 h -10.28 c -0.86,0 -1.72,-0.625 -1.72,-1.667 0,-0.833 0.86,-1.667 1.72,-1.667 z m 23.98,0 v 0 c 1.07,0 1.72,0.834 1.72,1.667 0,1.042 -0.65,1.667 -1.72,1.667 v 0 c -0.85,0 -1.71,-0.625 -1.71,-1.667 0,-0.833 0.86,-1.667 1.71,-1.667 z m -227.87,11.667 -20.56,-10 20.56,-10 z m 215.88,-20 20.56,10 -20.56,10 z"
       stroke="#000000"
       stroke-width="3.4375"
       stroke-linejoin="bevel"
       stroke-miterlimit="10"
       fill-rule="evenodd"
       id="path79" /><text
       font-family="'Times New Roman', 'Times New Roman_MSFontService', sans-serif"
       font-weight="400"
       font-size="37px"
       id="text79"
       x="1000.2502"
       y="472">ELIFE</text></g></svg>
