<?xml version="1.0" encoding="UTF-8" standalone="no"?>
<svg
   width="1852.7424"
   height="732.22144"
   xml:space="preserve"
   overflow="hidden"
   version="1.1"
   id="svg74"
   xmlns:xlink="http://www.w3.org/1999/xlink"
   xmlns="http://www.w3.org/2000/svg"
   xmlns:svg="http://www.w3.org/2000/svg"><defs
     id="defs74"><pattern
       xlink:href="#Strips1_1.5"
       preserveAspectRatio="xMidYMid"
       id="pattern102"
       patternTransform="matrix(0,5,-5,0,0,0)"
       x="0"
       y="0"
       height="2.2" /><pattern
       xlink:href="#Strips1_1.5"
       preserveAspectRatio="xMidYMid"
       id="pattern101"
       patternTransform="matrix(0,5,-5,0,0,0)"
       x="0"
       y="0"
       height="2.2" /><pattern
       xlink:href="#Strips1_1.5"
       preserveAspectRatio="xMidYMid"
       id="pattern100"
       patternTransform="matrix(0,5,-5,0,0,0)"
       x="0"
       y="0"
       height="2.2" /><pattern
       xlink:href="#Strips1_1.5"
       preserveAspectRatio="xMidYMid"
       id="pattern99"
       patternTransform="matrix(0,5,-5,0,0,0)"
       x="0"
       y="0"
       height="2.2" /><pattern
       xlink:href="#Strips1_1.5"
       preserveAspectRatio="xMidYMid"
       id="pattern98"
       patternTransform="matrix(0,5,-5,0,0,0)"
       x="0"
       y="0"
       height="2.2" /><pattern
       xlink:href="#Strips1_1.5"
       preserveAspectRatio="xMidYMid"
       id="pattern97"
       patternTransform="matrix(0,5,-5,0,0,0)"
       x="0"
       y="0"
       height="2.2" /><pattern
       xlink:href="#Strips1_1.5"
       preserveAspectRatio="xMidYMid"
       id="pattern96"
       patternTransform="matrix(0,5,-5,0,0,0)"
       x="0"
       y="0"
       height="2.2" /><pattern
       xlink:href="#Strips1_1.5"
       preserveAspectRatio="xMidYMid"
       id="pattern95"
       patternTransform="matrix(0,5,-5,0,0,0)"
       x="0"
       y="0"
       height="2.2" /><pattern
       xlink:href="#Strips1_1.5"
       preserveAspectRatio="xMidYMid"
       id="pattern94"
       patternTransform="matrix(0,5,-5,0,0,0)"
       x="0"
       y="0"
       height="2.2" /><pattern
       xlink:href="#Strips1_1.5"
       preserveAspectRatio="xMidYMid"
       id="pattern93"
       patternTransform="matrix(0,5,-5,0,0,0)"
       x="0"
       y="0"
       height="2.2" /><pattern
       xlink:href="#Strips1_1.5"
       preserveAspectRatio="xMidYMid"
       id="pattern92"
       patternTransform="matrix(0,5,-5,0,0,0)"
       x="0"
       y="0"
       height="2.2" /><pattern
       xlink:href="#Strips1_1.5"
       preserveAspectRatio="xMidYMid"
       id="pattern91"
       patternTransform="matrix(0,5,-5,0,0,0)"
       x="0"
       y="0"
       height="2.2" /><pattern
       xlink:href="#Strips1_1.5"
       preserveAspectRatio="xMidYMid"
       id="pattern90"
       patternTransform="matrix(0,5,-5,0,0,0)"
       x="0"
       y="0"
       height="2.2" /><pattern
       xlink:href="#Strips1_1.5"
       preserveAspectRatio="xMidYMid"
       id="pattern89"
       patternTransform="matrix(0,5,-5,0,0,0)"
       x="0"
       y="0"
       height="2.2" /><pattern
       xlink:href="#Strips1_1.5"
       preserveAspectRatio="xMidYMid"
       id="pattern88"
       patternTransform="matrix(0,5,-5,0,0,0)"
       x="0"
       y="0"
       height="2.2" /><pattern
       xlink:href="#Strips1_1.5"
       preserveAspectRatio="xMidYMid"
       id="pattern87"
       patternTransform="matrix(0,5,-5,0,0,0)"
       x="0"
       y="0"
       height="2.2" /><pattern
       xlink:href="#Strips1_1.5"
       preserveAspectRatio="xMidYMid"
       id="pattern86"
       patternTransform="matrix(0,5,-5,0,0,0)"
       x="0"
       y="0"
       height="2.2" /><pattern
       xlink:href="#Strips1_1.5"
       preserveAspectRatio="xMidYMid"
       id="pattern85"
       patternTransform="matrix(3.5355339,3.5355339,-3.5355339,3.5355339,0,0)"
       x="0"
       y="0" /><pattern
       xlink:href="#Strips1_1.5"
       preserveAspectRatio="xMidYMid"
       id="pattern84"
       patternTransform="matrix(3.5355339,3.5355339,-3.5355339,3.5355339,0,0)"
       x="0"
       y="0" /><pattern
       xlink:href="#Strips1_1.5"
       preserveAspectRatio="xMidYMid"
       id="pattern83"
       patternTransform="matrix(3.5355339,3.5355339,-3.5355339,3.5355339,0,0)"
       x="0"
       y="0" /><pattern
       xlink:href="#Strips1_1.5"
       preserveAspectRatio="xMidYMid"
       id="pattern82"
       patternTransform="matrix(3.5355339,3.5355339,-3.5355339,3.5355339,0,0)"
       x="0"
       y="0" /><pattern
       xlink:href="#Strips1_1.5"
       preserveAspectRatio="xMidYMid"
       id="pattern81"
       patternTransform="matrix(3.5355339,3.5355339,-3.5355339,3.5355339,0,0)"
       x="0"
       y="0" /><pattern
       patternUnits="userSpaceOnUse"
       width="2.5"
       height="1"
       patternTransform="translate(0,0) scale(2,2)"
       preserveAspectRatio="xMidYMid"
       id="Strips1_1.5"
       style="fill:#000000">
      <rect
   style="stroke:none"
   x="0"
   y="-0.5"
   width="1"
   height="2"
   id="rect140" />
    </pattern></defs><g
     transform="translate(-123.58939,-243.01673)"
     id="g74"><rect
       x="124.30325"
       y="243.73059"
       width="1851.3147"
       height="730.7937"
       stroke="#000000"
       stroke-width="1.42773"
       stroke-miterlimit="8"
       fill="none"
       id="rect1" /><path
       d="M 520.5,881.5 H 1812.08"
       stroke="#000000"
       stroke-width="4.58333"
       stroke-linejoin="round"
       stroke-miterlimit="10"
       fill="none"
       fill-rule="evenodd"
       id="path2" /><rect
       x="682"
       y="791"
       width="89"
       height="90.000099"
       stroke="#000000"
       stroke-width="2.29167"
       stroke-linecap="round"
       stroke-miterlimit="8"
       fill="none"
       id="rect4"
       style="fill:url(#pattern85);fill-opacity:1" /><rect
       x="771"
       y="701"
       width="90.000099"
       height="90.000099"
       stroke="#000000"
       stroke-width="2.29167"
       stroke-linecap="round"
       stroke-miterlimit="8"
       fill="none"
       id="rect10"
       style="fill:url(#pattern84);fill-opacity:1" /><rect
       x="861"
       y="611"
       width="90.000099"
       height="90.000099"
       stroke="#000000"
       stroke-width="2.29167"
       stroke-linecap="round"
       stroke-miterlimit="8"
       fill="none"
       id="rect15"
       style="fill:url(#pattern83);fill-opacity:1" /><rect
       x="951"
       y="522"
       width="88.999702"
       height="88.999702"
       stroke="#000000"
       stroke-width="2.29167"
       stroke-linecap="round"
       stroke-miterlimit="8"
       fill="none"
       id="rect21"
       style="fill:url(#pattern82);fill-opacity:1" /><path
       d="M 0,0 3.60892e-4,647.396"
       stroke="#000000"
       stroke-width="4.58333"
       stroke-linejoin="round"
       stroke-miterlimit="10"
       fill="none"
       fill-rule="evenodd"
       transform="matrix(1,0,0,-1,861.5,935.896)"
       id="path25" /><path
       d="M 1220.5,288.5 V 935.896"
       stroke="#000000"
       stroke-width="4.58333"
       stroke-linejoin="round"
       stroke-miterlimit="10"
       fill="none"
       fill-rule="evenodd"
       id="path26" /><path
       d="m 876.488,377.375 h 6.731 c 0.629,0 1.122,0.54 1.122,1.125 0,0.63 -0.493,1.125 -1.122,1.125 h -6.731 c -0.628,0 -1.122,-0.495 -1.122,-1.125 0,-0.585 0.494,-1.125 1.122,-1.125 z m 15.706,0 h 6.732 c 0.628,0 1.122,0.54 1.122,1.125 0,0.63 -0.494,1.125 -1.122,1.125 h -6.732 c -0.628,0 -1.121,-0.495 -1.121,-1.125 0,-0.585 0.493,-1.125 1.121,-1.125 z m 15.707,0 h 6.731 c 0.628,0 1.122,0.54 1.122,1.125 0,0.63 -0.494,1.125 -1.122,1.125 h -6.731 c -0.629,0 -1.122,-0.495 -1.122,-1.125 0,-0.585 0.493,-1.125 1.122,-1.125 z m 15.706,0 h 6.731 c 0.628,0 1.122,0.54 1.122,1.125 0,0.63 -0.494,1.125 -1.122,1.125 h -6.731 c -0.628,0 -1.122,-0.495 -1.122,-1.125 0,-0.585 0.494,-1.125 1.122,-1.125 z m 15.706,0 h 6.731 c 0.629,0 1.122,0.54 1.122,1.125 0,0.63 -0.493,1.125 -1.122,1.125 h -6.731 c -0.628,0 -1.122,-0.495 -1.122,-1.125 0,-0.585 0.494,-1.125 1.122,-1.125 z m 15.707,0 h 6.731 c 0.628,0 1.122,0.54 1.122,1.125 0,0.63 -0.494,1.125 -1.122,1.125 h -6.731 c -0.629,0 -1.122,-0.495 -1.122,-1.125 0,-0.585 0.493,-1.125 1.122,-1.125 z m 15.706,0 h 6.731 c 0.628,0 1.122,0.54 1.122,1.125 0,0.63 -0.494,1.125 -1.122,1.125 h -6.731 c -0.628,0 -1.122,-0.495 -1.122,-1.125 0,-0.585 0.494,-1.125 1.122,-1.125 z m 15.706,0 h 6.731 c 0.629,0 1.122,0.54 1.122,1.125 0,0.63 -0.493,1.125 -1.122,1.125 h -6.731 c -0.628,0 -1.122,-0.495 -1.122,-1.125 0,-0.585 0.494,-1.125 1.122,-1.125 z m 15.708,0 h 6.73 c 0.63,0 1.12,0.54 1.12,1.125 0,0.63 -0.49,1.125 -1.12,1.125 h -6.73 c -0.63,0 -1.12,-0.495 -1.12,-1.125 0,-0.585 0.49,-1.125 1.12,-1.125 z m 15.7,0 h 6.74 c 0.62,0 1.12,0.54 1.12,1.125 0,0.63 -0.5,1.125 -1.12,1.125 h -6.74 c -0.62,0 -1.12,-0.495 -1.12,-1.125 0,-0.585 0.5,-1.125 1.12,-1.125 z m 15.71,0 h 6.73 c 0.63,0 1.12,0.54 1.12,1.125 0,0.63 -0.49,1.125 -1.12,1.125 h -6.73 c -0.63,0 -1.12,-0.495 -1.12,-1.125 0,-0.585 0.49,-1.125 1.12,-1.125 z m 15.71,0 h 6.73 c 0.63,0 1.12,0.54 1.12,1.125 0,0.63 -0.49,1.125 -1.12,1.125 h -6.73 c -0.63,0 -1.12,-0.495 -1.12,-1.125 0,-0.585 0.49,-1.125 1.12,-1.125 z m 15.7,0 h 6.73 c 0.63,0 1.13,0.54 1.13,1.125 0,0.63 -0.5,1.125 -1.13,1.125 h -6.73 c -0.62,0 -1.12,-0.495 -1.12,-1.125 0,-0.585 0.5,-1.125 1.12,-1.125 z m 15.71,0 h 6.73 c 0.63,0 1.12,0.54 1.12,1.125 0,0.63 -0.49,1.125 -1.12,1.125 h -6.73 c -0.63,0 -1.12,-0.495 -1.12,-1.125 0,-0.585 0.49,-1.125 1.12,-1.125 z m 15.71,0 h 6.73 c 0.63,0 1.12,0.54 1.12,1.125 0,0.63 -0.49,1.125 -1.12,1.125 h -6.73 c -0.63,0 -1.13,-0.495 -1.13,-1.125 0,-0.585 0.5,-1.125 1.13,-1.125 z m 15.7,0 h 6.73 c 0.63,0 1.13,0.54 1.13,1.125 0,0.63 -0.5,1.125 -1.13,1.125 h -6.73 c -0.63,0 -1.12,-0.495 -1.12,-1.125 0,-0.585 0.49,-1.125 1.12,-1.125 z m 15.71,0 h 6.73 c 0.63,0 1.12,0.54 1.12,1.125 0,0.63 -0.49,1.125 -1.12,1.125 h -6.73 c -0.63,0 -1.12,-0.495 -1.12,-1.125 0,-0.585 0.49,-1.125 1.12,-1.125 z m 15.7,0 h 6.74 c 0.62,0 1.12,0.54 1.12,1.125 0,0.63 -0.5,1.125 -1.12,1.125 h -6.74 c -0.62,0 -1.12,-0.495 -1.12,-1.125 0,-0.585 0.5,-1.125 1.12,-1.125 z m 15.71,0 h 6.73 c 0.63,0 1.12,0.54 1.12,1.125 0,0.63 -0.49,1.125 -1.12,1.125 h -6.73 c -0.63,0 -1.12,-0.495 -1.12,-1.125 0,-0.585 0.49,-1.125 1.12,-1.125 z m 15.71,0 h 6.73 c 0.63,0 1.12,0.54 1.12,1.125 0,0.63 -0.49,1.125 -1.12,1.125 h -6.73 c -0.63,0 -1.12,-0.495 -1.12,-1.125 0,-0.585 0.49,-1.125 1.12,-1.125 z m 15.7,0 h 6.73 c 0.63,0 1.13,0.54 1.13,1.125 0,0.63 -0.5,1.125 -1.13,1.125 h -6.73 c -0.62,0 -1.12,-0.495 -1.12,-1.125 0,-0.585 0.5,-1.125 1.12,-1.125 z m -311.16,10.125 -17.95,-9 17.95,-9 z m 323.1,-18 17.95,9 -17.95,9 z"
       stroke="#000000"
       stroke-width="0.6875"
       stroke-linejoin="bevel"
       stroke-miterlimit="10"
       fill-rule="evenodd"
       id="path27" /><text
       font-family="'Times New Roman', 'Times New Roman_MSFontService', sans-serif"
       font-weight="400"
       font-size="37px"
       id="text27"
       x="997.72968"
       y="360">D(t)</text><text
       font-family="'Times New Roman', 'Times New Roman_MSFontService', sans-serif"
       font-weight="400"
       font-size="37px"
       id="text28"
       x="882.91675"
       y="937">B(t)</text><text
       font-family="'Times New Roman', 'Times New Roman_MSFontService', sans-serif"
       font-weight="400"
       font-size="37px"
       id="text29"
       x="987.82971"
       y="937">M(t)</text><text
       font-family="Times New Roman,Times New Roman_MSFontService,sans-serif"
       font-weight="700"
       font-size="41"
       id="text30"
       style="font-style:normal;font-variant:normal;font-weight:bold;font-stretch:normal;font-size:41px;font-family:'Times New Roman', 'Times New Roman_MSFontService', sans-serif;-inkscape-font-specification:'Times New Roman, Times New Roman_MSFontService, sans-serif, Bold';font-variant-ligatures:normal;font-variant-caps:normal;font-variant-numeric:normal;font-variant-east-asian:normal"
       x="164.70821"
       y="354"><tspan
         id="tspan80"
         x="164.70821"
         y="354">Example IV.1.a:</tspan></text><g
       id="g79"
       transform="translate(-75.000258)"><text
         font-family="Times New Roman,Times New Roman_MSFontService,sans-serif"
         font-weight="400"
         font-size="37"
         transform="translate(239.708,442)"
         id="text37"
         style="font-style:normal;font-variant:normal;font-weight:normal;font-stretch:normal;font-size:37px;font-family:'Times New Roman', 'Times New Roman_MSFontService', sans-serif;-inkscape-font-specification:'Times New Roman, Times New Roman_MSFontService, sans-serif, Normal';font-variant-ligatures:normal;font-variant-caps:normal;font-variant-numeric:normal;font-variant-east-asian:normal"><tspan
           id="tspan79"
           x="0"
           y="0">D(t)=4, TLIFE=5</tspan></text><text
         font-family="Times New Roman,Times New Roman_MSFontService,sans-serif"
         font-weight="400"
         font-size="37"
         transform="translate(239.708,485)"
         id="text42"
         style="font-style:normal;font-variant:normal;font-weight:normal;font-stretch:normal;font-size:37px;font-family:'Times New Roman', 'Times New Roman_MSFontService', sans-serif;-inkscape-font-specification:'Times New Roman, Times New Roman_MSFontService, sans-serif, Normal';font-variant-ligatures:normal;font-variant-caps:normal;font-variant-numeric:normal;font-variant-east-asian:normal"><tspan
           id="tspan78"
           x="0"
           y="0">M(t)=B(t)+1</tspan></text></g><g
       id="g77"
       transform="translate(-102.00039,-27.99957)"><text
         font-family="Times New Roman,Times New Roman_MSFontService,sans-serif"
         font-weight="400"
         font-size="37"
         transform="translate(1620.9,353)"
         id="text44"
         style="font-style:normal;font-variant:normal;font-weight:normal;font-stretch:normal;font-size:37px;font-family:'Times New Roman', 'Times New Roman_MSFontService', sans-serif;-inkscape-font-specification:'Times New Roman, Times New Roman_MSFontService, sans-serif, Normal';font-variant-ligatures:normal;font-variant-caps:normal;font-variant-numeric:normal;font-variant-east-asian:normal"><tspan
           id="tspan77"
           x="0"
           y="0">Investment and fixed</tspan></text><text
         font-family="Times New Roman,Times New Roman_MSFontService,sans-serif"
         font-weight="400"
         font-size="37"
         transform="translate(1620.9,396)"
         id="text47"
         style="font-style:normal;font-variant:normal;font-weight:normal;font-stretch:normal;font-size:37px;font-family:'Times New Roman', 'Times New Roman_MSFontService', sans-serif;-inkscape-font-specification:'Times New Roman, Times New Roman_MSFontService, sans-serif, Normal';font-variant-ligatures:normal;font-variant-caps:normal;font-variant-numeric:normal;font-variant-east-asian:normal"><tspan
           id="tspan76"
           x="0"
           y="0">cost payment:</tspan></text></g><g
       id="g75"
       transform="translate(-102.00019,-9.9995703)"><text
         font-family="Times New Roman,Times New Roman_MSFontService,sans-serif"
         font-weight="400"
         font-size="37"
         transform="translate(1620.9,482)"
         id="text50"
         style="font-style:normal;font-variant:normal;font-weight:normal;font-stretch:normal;font-size:37px;font-family:'Times New Roman', 'Times New Roman_MSFontService', sans-serif;-inkscape-font-specification:'Times New Roman, Times New Roman_MSFontService, sans-serif, Normal';font-variant-ligatures:normal;font-variant-caps:normal;font-variant-numeric:normal;font-variant-east-asian:normal"><tspan
           id="tspan75"
           x="0"
           y="0">Fixed Cost</tspan></text><text
         font-family="Times New Roman,Times New Roman_MSFontService,sans-serif"
         font-weight="400"
         font-size="37"
         transform="translate(1620.9,525)"
         id="text52"
         style="font-style:normal;font-variant:normal;font-weight:normal;font-stretch:normal;font-size:37px;font-family:'Times New Roman', 'Times New Roman_MSFontService', sans-serif;-inkscape-font-specification:'Times New Roman, Times New Roman_MSFontService, sans-serif, Normal';font-variant-ligatures:normal;font-variant-caps:normal;font-variant-numeric:normal;font-variant-east-asian:normal"><tspan
           id="tspan74"
           x="0"
           y="0">Payment only</tspan></text></g><rect
       x="771"
       y="791"
       width="90.000099"
       height="90.000099"
       stroke="#000000"
       stroke-width="2.29167"
       stroke-linecap="round"
       stroke-miterlimit="8"
       fill="none"
       id="rect6"
       style="fill:url(#pattern97);fill-opacity:1" /><rect
       x="861"
       y="791"
       width="90.000099"
       height="90.000099"
       stroke="#000000"
       stroke-width="2.29167"
       stroke-linecap="round"
       stroke-miterlimit="8"
       fill="none"
       id="rect8"
       style="fill:url(#pattern98);fill-opacity:1" /><rect
       x="951"
       y="701"
       width="88.999702"
       height="90.000099"
       stroke="#000000"
       stroke-width="2.29167"
       stroke-linecap="round"
       stroke-miterlimit="8"
       fill="none"
       id="rect13"
       style="fill:url(#pattern99);fill-opacity:1" /><rect
       x="951"
       y="611"
       width="88.999702"
       height="90.000099"
       stroke="#000000"
       stroke-width="2.29167"
       stroke-linecap="round"
       stroke-miterlimit="8"
       fill="none"
       id="rect17"
       style="fill:url(#pattern100);fill-opacity:1" /><rect
       x="1040"
       y="611"
       width="90.000099"
       height="90.000099"
       stroke="#000000"
       stroke-width="2.29167"
       stroke-linecap="round"
       stroke-miterlimit="8"
       fill="none"
       id="rect19"
       style="fill:url(#pattern101);fill-opacity:1" /><rect
       x="1130"
       y="522"
       width="90.000099"
       height="88.999702"
       stroke="#000000"
       stroke-width="2.29167"
       stroke-linecap="round"
       stroke-miterlimit="8"
       fill="none"
       id="rect25"
       style="fill:url(#pattern102);fill-opacity:1" /><rect
       x="1040"
       y="522"
       width="90.000099"
       height="88.999702"
       stroke="#000000"
       stroke-width="2.29167"
       stroke-linecap="round"
       stroke-miterlimit="8"
       fill="none"
       id="rect23"
       style="fill:url(#pattern87);fill-opacity:1" /><rect
       x="861"
       y="701"
       width="90.000099"
       height="90.000099"
       stroke="#000000"
       stroke-width="2.29167"
       stroke-linecap="round"
       stroke-miterlimit="8"
       fill="none"
       id="rect58"
       style="fill:url(#pattern88);fill-opacity:1" /><rect
       x="951"
       y="791"
       width="88.999702"
       height="90.000099"
       stroke="#000000"
       stroke-width="2.29167"
       stroke-linecap="round"
       stroke-miterlimit="8"
       fill="none"
       id="rect60"
       style="fill:url(#pattern89);fill-opacity:1" /><rect
       x="1040"
       y="791"
       width="90.000099"
       height="90.000099"
       stroke="#000000"
       stroke-width="2.29167"
       stroke-linecap="round"
       stroke-miterlimit="8"
       fill="none"
       id="rect62"
       style="fill:url(#pattern90);fill-opacity:1" /><rect
       x="1130"
       y="701"
       width="90.000099"
       height="90.000099"
       stroke="#000000"
       stroke-width="2.29167"
       stroke-linecap="round"
       stroke-miterlimit="8"
       fill="none"
       id="rect64"
       style="fill:url(#pattern91);fill-opacity:1" /><rect
       x="1130"
       y="611"
       width="90.000099"
       height="90.000099"
       stroke="#000000"
       stroke-width="2.29167"
       stroke-linecap="round"
       stroke-miterlimit="8"
       fill="none"
       id="rect66"
       style="fill:url(#pattern92);fill-opacity:1" /><rect
       x="1220"
       y="611"
       width="89"
       height="90.000099"
       stroke="#000000"
       stroke-width="2.29167"
       stroke-linecap="round"
       stroke-miterlimit="8"
       fill="none"
       id="rect68"
       style="fill:url(#pattern93);fill-opacity:1" /><rect
       x="1220"
       y="522"
       width="89"
       height="88.999702"
       stroke="#000000"
       stroke-width="2.29167"
       stroke-linecap="round"
       stroke-miterlimit="8"
       fill="none"
       id="rect70"
       style="fill:url(#pattern94);fill-opacity:1" /><rect
       x="1309"
       y="522"
       width="90.000099"
       height="88.999702"
       stroke="#000000"
       stroke-width="2.29167"
       stroke-linecap="round"
       stroke-miterlimit="8"
       fill="none"
       id="rect72"
       style="fill:url(#pattern95);fill-opacity:1" /><rect
       x="1040"
       y="701"
       width="90.000099"
       height="90.000099"
       stroke="#000000"
       stroke-width="2.29167"
       stroke-linecap="round"
       stroke-miterlimit="8"
       fill="none"
       id="rect74"
       style="fill:url(#pattern96);fill-opacity:1" /><path
       d="m 966.463,501.813 v 0 c 0.627,0 1.12,0.57 1.12,1.187 0,0.665 -0.493,1.188 -1.12,1.188 v 0 c -0.627,0 -1.12,-0.523 -1.12,-1.188 0,-0.617 0.493,-1.187 1.12,-1.187 z m 4.48,0 v 0 c 0.627,0 1.12,0.57 1.12,1.187 0,0.665 -0.493,1.188 -1.12,1.188 v 0 c -0.627,0 -1.12,-0.523 -1.12,-1.188 0,-0.617 0.493,-1.187 1.12,-1.187 z m 4.48,0 v 0 c 0.627,0 1.12,0.57 1.12,1.187 0,0.665 -0.493,1.188 -1.12,1.188 v 0 c -0.627,0 -1.12,-0.523 -1.12,-1.188 0,-0.617 0.493,-1.187 1.12,-1.187 z m 4.48,0 v 0 c 0.627,0 1.12,0.57 1.12,1.187 0,0.665 -0.493,1.188 -1.12,1.188 v 0 c -0.627,0 -1.12,-0.523 -1.12,-1.188 0,-0.617 0.493,-1.187 1.12,-1.187 z m 4.48,0 v 0 c 0.627,0 1.12,0.57 1.12,1.187 0,0.665 -0.493,1.188 -1.12,1.188 v 0 c -0.627,0 -1.12,-0.523 -1.12,-1.188 0,-0.617 0.493,-1.187 1.12,-1.187 z m 4.48,0 v 0 c 0.627,0 1.12,0.57 1.12,1.187 0,0.665 -0.493,1.188 -1.12,1.188 v 0 c -0.627,0 -1.12,-0.523 -1.12,-1.188 0,-0.617 0.493,-1.187 1.12,-1.187 z m 4.48,0 v 0 c 0.627,0 1.12,0.57 1.12,1.187 0,0.665 -0.493,1.188 -1.12,1.188 v 0 c -0.627,0 -1.12,-0.523 -1.12,-1.188 0,-0.617 0.493,-1.187 1.12,-1.187 z m 4.48,0 v 0 c 0.627,0 1.12,0.57 1.12,1.187 0,0.665 -0.493,1.188 -1.12,1.188 v 0 c -0.627,0 -1.12,-0.523 -1.12,-1.188 0,-0.617 0.493,-1.187 1.12,-1.187 z m 4.477,0 v 0 c 0.63,0 1.12,0.57 1.12,1.187 0,0.665 -0.49,1.188 -1.12,1.188 v 0 c -0.62,0 -1.12,-0.523 -1.12,-1.188 0,-0.617 0.5,-1.187 1.12,-1.187 z m 4.48,0 v 0 c 0.63,0 1.12,0.57 1.12,1.187 0,0.665 -0.49,1.188 -1.12,1.188 v 0 c -0.62,0 -1.12,-0.523 -1.12,-1.188 0,-0.617 0.5,-1.187 1.12,-1.187 z m 4.48,0 v 0 c 0.63,0 1.12,0.57 1.12,1.187 0,0.665 -0.49,1.188 -1.12,1.188 v 0 c -0.62,0 -1.12,-0.523 -1.12,-1.188 0,-0.617 0.5,-1.187 1.12,-1.187 z m 4.48,0 v 0 c 0.63,0 1.12,0.57 1.12,1.187 0,0.665 -0.49,1.188 -1.12,1.188 v 0 c -0.58,0 -1.12,-0.523 -1.12,-1.188 0,-0.617 0.54,-1.187 1.12,-1.187 z m 4.48,0 v 0 c 0.63,0 1.12,0.57 1.12,1.187 0,0.665 -0.49,1.188 -1.12,1.188 v 0 c -0.58,0 -1.12,-0.523 -1.12,-1.188 0,-0.617 0.54,-1.187 1.12,-1.187 z m 4.48,0 v 0 c 0.63,0 1.12,0.57 1.12,1.187 0,0.665 -0.49,1.188 -1.12,1.188 v 0 c -0.58,0 -1.12,-0.523 -1.12,-1.188 0,-0.617 0.54,-1.187 1.12,-1.187 z m 4.48,0 h 0.05 c 0.58,0 1.12,0.57 1.12,1.187 0,0.665 -0.54,1.188 -1.12,1.188 h -0.05 c -0.58,0 -1.12,-0.523 -1.12,-1.188 0,-0.617 0.54,-1.187 1.12,-1.187 z m 4.53,0 v 0 c 0.58,0 1.12,0.57 1.12,1.187 0,0.665 -0.54,1.188 -1.12,1.188 v 0 c -0.63,0 -1.12,-0.523 -1.12,-1.188 0,-0.617 0.49,-1.187 1.12,-1.187 z m 4.48,0 v 0 c 0.58,0 1.12,0.57 1.12,1.187 0,0.665 -0.54,1.188 -1.12,1.188 v 0 c -0.63,0 -1.12,-0.523 -1.12,-1.188 0,-0.617 0.49,-1.187 1.12,-1.187 z m 4.48,0 v 0 c 0.58,0 1.12,0.57 1.12,1.187 0,0.665 -0.54,1.188 -1.12,1.188 v 0 c -0.63,0 -1.12,-0.523 -1.12,-1.188 0,-0.617 0.49,-1.187 1.12,-1.187 z m 4.48,0 v 0 c 0.63,0 1.12,0.57 1.12,1.187 0,0.665 -0.49,1.188 -1.12,1.188 v 0 c -0.63,0 -1.12,-0.523 -1.12,-1.188 0,-0.617 0.49,-1.187 1.12,-1.187 z m 4.48,0 v 0 c 0.63,0 1.12,0.57 1.12,1.187 0,0.665 -0.49,1.188 -1.12,1.188 v 0 c -0.63,0 -1.12,-0.523 -1.12,-1.188 0,-0.617 0.49,-1.187 1.12,-1.187 z m 4.48,0 v 0 c 0.63,0 1.12,0.57 1.12,1.187 0,0.665 -0.49,1.188 -1.12,1.188 v 0 c -0.63,0 -1.12,-0.523 -1.12,-1.188 0,-0.617 0.49,-1.187 1.12,-1.187 z m 4.48,0 v 0 c 0.63,0 1.12,0.57 1.12,1.187 0,0.665 -0.49,1.188 -1.12,1.188 v 0 c -0.63,0 -1.12,-0.523 -1.12,-1.188 0,-0.617 0.49,-1.187 1.12,-1.187 z m 4.48,0 v 0 c 0.63,0 1.12,0.57 1.12,1.187 0,0.665 -0.49,1.188 -1.12,1.188 v 0 c -0.63,0 -1.12,-0.523 -1.12,-1.188 0,-0.617 0.49,-1.187 1.12,-1.187 z m 4.48,0 v 0 c 0.63,0 1.12,0.57 1.12,1.187 0,0.665 -0.49,1.188 -1.12,1.188 v 0 c -0.63,0 -1.12,-0.523 -1.12,-1.188 0,-0.617 0.49,-1.187 1.12,-1.187 z m 4.48,0 v 0 c 0.63,0 1.12,0.57 1.12,1.187 0,0.665 -0.49,1.188 -1.12,1.188 v 0 c -0.63,0 -1.12,-0.523 -1.12,-1.188 0,-0.617 0.49,-1.187 1.12,-1.187 z m 4.48,0 v 0 c 0.63,0 1.12,0.57 1.12,1.187 0,0.665 -0.49,1.188 -1.12,1.188 v 0 c -0.63,0 -1.12,-0.523 -1.12,-1.188 0,-0.617 0.49,-1.187 1.12,-1.187 z m 4.48,0 v 0 c 0.63,0 1.12,0.57 1.12,1.187 0,0.665 -0.49,1.188 -1.12,1.188 v 0 c -0.63,0 -1.12,-0.523 -1.12,-1.188 0,-0.617 0.49,-1.187 1.12,-1.187 z m 4.48,0 v 0 c 0.63,0 1.12,0.57 1.12,1.187 0,0.665 -0.49,1.188 -1.12,1.188 v 0 c -0.63,0 -1.12,-0.523 -1.12,-1.188 0,-0.617 0.49,-1.187 1.12,-1.187 z m 4.48,0 v 0 c 0.63,0 1.12,0.57 1.12,1.187 0,0.665 -0.49,1.188 -1.12,1.188 v 0 c -0.63,0 -1.12,-0.523 -1.12,-1.188 0,-0.617 0.49,-1.187 1.12,-1.187 z m 4.48,0 v 0 c 0.63,0 1.12,0.57 1.12,1.187 0,0.665 -0.49,1.188 -1.12,1.188 v 0 c -0.63,0 -1.12,-0.523 -1.12,-1.188 0,-0.617 0.49,-1.187 1.12,-1.187 z m 4.48,0 v 0 c 0.63,0 1.12,0.57 1.12,1.187 0,0.665 -0.49,1.188 -1.12,1.188 v 0 c -0.63,0 -1.12,-0.523 -1.12,-1.188 0,-0.617 0.49,-1.187 1.12,-1.187 z m 4.48,0 v 0 c 0.63,0 1.12,0.57 1.12,1.187 0,0.665 -0.49,1.188 -1.12,1.188 v 0 c -0.58,0 -1.12,-0.523 -1.12,-1.188 0,-0.617 0.54,-1.187 1.12,-1.187 z m 4.48,0 v 0 c 0.63,0 1.12,0.57 1.12,1.187 0,0.665 -0.49,1.188 -1.12,1.188 v 0 c -0.58,0 -1.12,-0.523 -1.12,-1.188 0,-0.617 0.54,-1.187 1.12,-1.187 z m 4.48,0 v 0 c 0.63,0 1.12,0.57 1.12,1.187 0,0.665 -0.49,1.188 -1.12,1.188 v 0 c -0.58,0 -1.12,-0.523 -1.12,-1.188 0,-0.617 0.54,-1.187 1.12,-1.187 z m 4.48,0 h 0.04 c 0.59,0 1.12,0.57 1.12,1.187 0,0.665 -0.53,1.188 -1.12,1.188 h -0.04 c -0.58,0 -1.12,-0.523 -1.12,-1.188 0,-0.617 0.54,-1.187 1.12,-1.187 z m 4.52,0 v 0 c 0.59,0 1.12,0.57 1.12,1.187 0,0.665 -0.53,1.188 -1.12,1.188 v 0 c -0.62,0 -1.12,-0.523 -1.12,-1.188 0,-0.617 0.5,-1.187 1.12,-1.187 z m 4.48,0 v 0 c 0.59,0 1.12,0.57 1.12,1.187 0,0.665 -0.53,1.188 -1.12,1.188 v 0 c -0.62,0 -1.12,-0.523 -1.12,-1.188 0,-0.617 0.5,-1.187 1.12,-1.187 z m 4.48,0 v 0 c 0.59,0 1.12,0.57 1.12,1.187 0,0.665 -0.53,1.188 -1.12,1.188 v 0 c -0.62,0 -1.12,-0.523 -1.12,-1.188 0,-0.617 0.5,-1.187 1.12,-1.187 z m 4.48,0 v 0 c 0.63,0 1.12,0.57 1.12,1.187 0,0.665 -0.49,1.188 -1.12,1.188 v 0 c -0.62,0 -1.12,-0.523 -1.12,-1.188 0,-0.617 0.5,-1.187 1.12,-1.187 z m 4.48,0 v 0 c 0.63,0 1.12,0.57 1.12,1.187 0,0.665 -0.49,1.188 -1.12,1.188 v 0 c -0.62,0 -1.12,-0.523 -1.12,-1.188 0,-0.617 0.5,-1.187 1.12,-1.187 z m 4.48,0 v 0 c 0.63,0 1.12,0.57 1.12,1.187 0,0.665 -0.49,1.188 -1.12,1.188 v 0 c -0.62,0 -1.12,-0.523 -1.12,-1.188 0,-0.617 0.5,-1.187 1.12,-1.187 z m 4.48,0 v 0 c 0.63,0 1.12,0.57 1.12,1.187 0,0.665 -0.49,1.188 -1.12,1.188 v 0 c -0.62,0 -1.12,-0.523 -1.12,-1.188 0,-0.617 0.5,-1.187 1.12,-1.187 z m 4.48,0 v 0 c 0.63,0 1.12,0.57 1.12,1.187 0,0.665 -0.49,1.188 -1.12,1.188 v 0 c -0.62,0 -1.12,-0.523 -1.12,-1.188 0,-0.617 0.5,-1.187 1.12,-1.187 z m 4.48,0 v 0 c 0.63,0 1.12,0.57 1.12,1.187 0,0.665 -0.49,1.188 -1.12,1.188 v 0 c -0.62,0 -1.12,-0.523 -1.12,-1.188 0,-0.617 0.5,-1.187 1.12,-1.187 z m 4.48,0 v 0 c 0.63,0 1.12,0.57 1.12,1.187 0,0.665 -0.49,1.188 -1.12,1.188 v 0 c -0.62,0 -1.12,-0.523 -1.12,-1.188 0,-0.617 0.5,-1.187 1.12,-1.187 z m 4.48,0 v 0 c 0.63,0 1.12,0.57 1.12,1.187 0,0.665 -0.49,1.188 -1.12,1.188 v 0 c -0.62,0 -1.12,-0.523 -1.12,-1.188 0,-0.617 0.5,-1.187 1.12,-1.187 z m 4.48,0 v 0 c 0.63,0 1.12,0.57 1.12,1.187 0,0.665 -0.49,1.188 -1.12,1.188 v 0 c -0.62,0 -1.12,-0.523 -1.12,-1.188 0,-0.617 0.5,-1.187 1.12,-1.187 z m 4.48,0 v 0 c 0.63,0 1.12,0.57 1.12,1.187 0,0.665 -0.49,1.188 -1.12,1.188 v 0 c -0.62,0 -1.12,-0.523 -1.12,-1.188 0,-0.617 0.5,-1.187 1.12,-1.187 z m 4.48,0 v 0 c 0.63,0 1.12,0.57 1.12,1.187 0,0.665 -0.49,1.188 -1.12,1.188 v 0 c -0.62,0 -1.12,-0.523 -1.12,-1.188 0,-0.617 0.5,-1.187 1.12,-1.187 z m 4.48,0 v 0 c 0.63,0 1.12,0.57 1.12,1.187 0,0.665 -0.49,1.188 -1.12,1.188 v 0 c -0.62,0 -1.12,-0.523 -1.12,-1.188 0,-0.617 0.5,-1.187 1.12,-1.187 z m 4.48,0 v 0 c 0.63,0 1.12,0.57 1.12,1.187 0,0.665 -0.49,1.188 -1.12,1.188 v 0 c -0.62,0 -1.12,-0.523 -1.12,-1.188 0,-0.617 0.5,-1.187 1.12,-1.187 z m 4.48,0 v 0 c 0.63,0 1.12,0.57 1.12,1.187 0,0.665 -0.49,1.188 -1.12,1.188 v 0 c -0.62,0 -1.12,-0.523 -1.12,-1.188 0,-0.617 0.5,-1.187 1.12,-1.187 z m 4.48,0 v 0 c 0.63,0 1.12,0.57 1.12,1.187 0,0.665 -0.49,1.188 -1.12,1.188 v 0 c -0.58,0 -1.12,-0.523 -1.12,-1.188 0,-0.617 0.54,-1.187 1.12,-1.187 z m 4.48,0 v 0 c 0.63,0 1.12,0.57 1.12,1.187 0,0.665 -0.49,1.188 -1.12,1.188 v 0 c -0.58,0 -1.12,-0.523 -1.12,-1.188 0,-0.617 0.54,-1.187 1.12,-1.187 z m 4.48,0 v 0 c 0.63,0 1.12,0.57 1.12,1.187 0,0.665 -0.49,1.188 -1.12,1.188 v 0 c -0.58,0 -1.12,-0.523 -1.12,-1.188 0,-0.617 0.54,-1.187 1.12,-1.187 z m 4.48,0 h 0.05 c 0.58,0 1.12,0.57 1.12,1.187 0,0.665 -0.54,1.188 -1.12,1.188 h -0.05 c -0.58,0 -1.12,-0.523 -1.12,-1.188 0,-0.617 0.54,-1.187 1.12,-1.187 z m 4.53,0 v 0 c 0.58,0 1.12,0.57 1.12,1.187 0,0.665 -0.54,1.188 -1.12,1.188 v 0 c -0.63,0 -1.12,-0.523 -1.12,-1.188 0,-0.617 0.49,-1.187 1.12,-1.187 z m 4.48,0 v 0 c 0.58,0 1.12,0.57 1.12,1.187 0,0.665 -0.54,1.188 -1.12,1.188 v 0 c -0.63,0 -1.12,-0.523 -1.12,-1.188 0,-0.617 0.49,-1.187 1.12,-1.187 z m 4.48,0 v 0 c 0.62,0 1.12,0.57 1.12,1.187 0,0.665 -0.5,1.188 -1.12,1.188 v 0 c -0.63,0 -1.12,-0.523 -1.12,-1.188 0,-0.617 0.49,-1.187 1.12,-1.187 z m 4.48,0 v 0 c 0.62,0 1.12,0.57 1.12,1.187 0,0.665 -0.5,1.188 -1.12,1.188 v 0 c -0.63,0 -1.12,-0.523 -1.12,-1.188 0,-0.617 0.49,-1.187 1.12,-1.187 z m 4.48,0 v 0 c 0.62,0 1.12,0.57 1.12,1.187 0,0.665 -0.5,1.188 -1.12,1.188 v 0 c -0.63,0 -1.12,-0.523 -1.12,-1.188 0,-0.617 0.49,-1.187 1.12,-1.187 z m 4.48,0 v 0 c 0.62,0 1.12,0.57 1.12,1.187 0,0.665 -0.5,1.188 -1.12,1.188 v 0 c -0.63,0 -1.12,-0.523 -1.12,-1.188 0,-0.617 0.49,-1.187 1.12,-1.187 z m 4.48,0 v 0 c 0.62,0 1.12,0.57 1.12,1.187 0,0.665 -0.5,1.188 -1.12,1.188 v 0 c -0.63,0 -1.12,-0.523 -1.12,-1.188 0,-0.617 0.49,-1.187 1.12,-1.187 z m 4.48,0 v 0 c 0.62,0 1.12,0.57 1.12,1.187 0,0.665 -0.5,1.188 -1.12,1.188 v 0 c -0.63,0 -1.12,-0.523 -1.12,-1.188 0,-0.617 0.49,-1.187 1.12,-1.187 z m 4.48,0 v 0 c 0.62,0 1.12,0.57 1.12,1.187 0,0.665 -0.5,1.188 -1.12,1.188 v 0 c -0.63,0 -1.12,-0.523 -1.12,-1.188 0,-0.617 0.49,-1.187 1.12,-1.187 z m 4.48,0 v 0 c 0.62,0 1.12,0.57 1.12,1.187 0,0.665 -0.5,1.188 -1.12,1.188 v 0 c -0.63,0 -1.12,-0.523 -1.12,-1.188 0,-0.617 0.49,-1.187 1.12,-1.187 z m 4.48,0 v 0 c 0.62,0 1.12,0.57 1.12,1.187 0,0.665 -0.5,1.188 -1.12,1.188 v 0 c -0.63,0 -1.12,-0.523 -1.12,-1.188 0,-0.617 0.49,-1.187 1.12,-1.187 z m 4.48,0 v 0 c 0.62,0 1.12,0.57 1.12,1.187 0,0.665 -0.5,1.188 -1.12,1.188 v 0 c -0.63,0 -1.12,-0.523 -1.12,-1.188 0,-0.617 0.49,-1.187 1.12,-1.187 z m 4.48,0 v 0 c 0.62,0 1.12,0.57 1.12,1.187 0,0.665 -0.5,1.188 -1.12,1.188 v 0 c -0.63,0 -1.12,-0.523 -1.12,-1.188 0,-0.617 0.49,-1.187 1.12,-1.187 z m 4.48,0 v 0 c 0.62,0 1.12,0.57 1.12,1.187 0,0.665 -0.5,1.188 -1.12,1.188 v 0 c -0.63,0 -1.12,-0.523 -1.12,-1.188 0,-0.617 0.49,-1.187 1.12,-1.187 z m 4.48,0 v 0 c 0.62,0 1.12,0.57 1.12,1.187 0,0.665 -0.5,1.188 -1.12,1.188 v 0 c -0.63,0 -1.12,-0.523 -1.12,-1.188 0,-0.617 0.49,-1.187 1.12,-1.187 z m 4.48,0 v 0 c 0.62,0 1.12,0.57 1.12,1.187 0,0.665 -0.5,1.188 -1.12,1.188 v 0 c -0.63,0 -1.12,-0.523 -1.12,-1.188 0,-0.617 0.49,-1.187 1.12,-1.187 z m 4.48,0 v 0 c 0.62,0 1.12,0.57 1.12,1.187 0,0.665 -0.5,1.188 -1.12,1.188 v 0 c -0.58,0 -1.12,-0.523 -1.12,-1.188 0,-0.617 0.54,-1.187 1.12,-1.187 z m 4.48,0 v 0 c 0.62,0 1.12,0.57 1.12,1.187 0,0.665 -0.5,1.188 -1.12,1.188 v 0 c -0.58,0 -1.12,-0.523 -1.12,-1.188 0,-0.617 0.54,-1.187 1.12,-1.187 z m 4.48,0 h 0.04 c 0.58,0 1.12,0.57 1.12,1.187 0,0.665 -0.54,1.188 -1.12,1.188 h -0.04 c -0.58,0 -1.12,-0.523 -1.12,-1.188 0,-0.617 0.54,-1.187 1.12,-1.187 z m 4.52,0 v 0 c 0.58,0 1.12,0.57 1.12,1.187 0,0.665 -0.54,1.188 -1.12,1.188 v 0 c -0.62,0 -1.12,-0.523 -1.12,-1.188 0,-0.617 0.5,-1.187 1.12,-1.187 z m 4.48,0 v 0 c 0.58,0 1.12,0.57 1.12,1.187 0,0.665 -0.54,1.188 -1.12,1.188 v 0 c -0.62,0 -1.12,-0.523 -1.12,-1.188 0,-0.617 0.5,-1.187 1.12,-1.187 z m 4.48,0 v 0 c 0.58,0 1.12,0.57 1.12,1.187 0,0.665 -0.54,1.188 -1.12,1.188 v 0 c -0.62,0 -1.12,-0.523 -1.12,-1.188 0,-0.617 0.5,-1.187 1.12,-1.187 z m 4.48,0 v 0 c 0.63,0 1.12,0.57 1.12,1.187 0,0.665 -0.49,1.188 -1.12,1.188 v 0 c -0.62,0 -1.12,-0.523 -1.12,-1.188 0,-0.617 0.5,-1.187 1.12,-1.187 z m 4.48,0 v 0 c 0.63,0 1.12,0.57 1.12,1.187 0,0.665 -0.49,1.188 -1.12,1.188 v 0 c -0.62,0 -1.12,-0.523 -1.12,-1.188 0,-0.617 0.5,-1.187 1.12,-1.187 z m 4.48,0 v 0 c 0.63,0 1.12,0.57 1.12,1.187 0,0.665 -0.49,1.188 -1.12,1.188 v 0 c -0.62,0 -1.12,-0.523 -1.12,-1.188 0,-0.617 0.5,-1.187 1.12,-1.187 z m 4.48,0 v 0 c 0.63,0 1.12,0.57 1.12,1.187 0,0.665 -0.49,1.188 -1.12,1.188 v 0 c -0.62,0 -1.12,-0.523 -1.12,-1.188 0,-0.617 0.5,-1.187 1.12,-1.187 z m 4.48,0 v 0 c 0.63,0 1.12,0.57 1.12,1.187 0,0.665 -0.49,1.188 -1.12,1.188 v 0 c -0.62,0 -1.12,-0.523 -1.12,-1.188 0,-0.617 0.5,-1.187 1.12,-1.187 z m 4.48,0 v 0 c 0.63,0 1.12,0.57 1.12,1.187 0,0.665 -0.49,1.188 -1.12,1.188 v 0 c -0.62,0 -1.12,-0.523 -1.12,-1.188 0,-0.617 0.5,-1.187 1.12,-1.187 z m 4.48,0 v 0 c 0.63,0 1.12,0.57 1.12,1.187 0,0.665 -0.49,1.188 -1.12,1.188 v 0 c -0.62,0 -1.12,-0.523 -1.12,-1.188 0,-0.617 0.5,-1.187 1.12,-1.187 z m 4.48,0 v 0 c 0.63,0 1.12,0.57 1.12,1.187 0,0.665 -0.49,1.188 -1.12,1.188 v 0 c -0.62,0 -1.12,-0.523 -1.12,-1.188 0,-0.617 0.5,-1.187 1.12,-1.187 z m 4.48,0 v 0 c 0.63,0 1.12,0.57 1.12,1.187 0,0.665 -0.49,1.188 -1.12,1.188 v 0 c -0.62,0 -1.12,-0.523 -1.12,-1.188 0,-0.617 0.5,-1.187 1.12,-1.187 z m 4.48,0 v 0 c 0.63,0 1.12,0.57 1.12,1.187 0,0.665 -0.49,1.188 -1.12,1.188 v 0 c -0.62,0 -1.12,-0.523 -1.12,-1.188 0,-0.617 0.5,-1.187 1.12,-1.187 z m 4.48,0 v 0 c 0.63,0 1.12,0.57 1.12,1.187 0,0.665 -0.49,1.188 -1.12,1.188 v 0 c -0.62,0 -1.12,-0.523 -1.12,-1.188 0,-0.617 0.5,-1.187 1.12,-1.187 z m 4.48,0 v 0 c 0.63,0 1.12,0.57 1.12,1.187 0,0.665 -0.49,1.188 -1.12,1.188 v 0 c -0.62,0 -1.12,-0.523 -1.12,-1.188 0,-0.617 0.5,-1.187 1.12,-1.187 z m 4.48,0 v 0 c 0.63,0 1.12,0.57 1.12,1.187 0,0.665 -0.49,1.188 -1.12,1.188 v 0 c -0.62,0 -1.12,-0.523 -1.12,-1.188 0,-0.617 0.5,-1.187 1.12,-1.187 z m 4.48,0 v 0 c 0.63,0 1.12,0.57 1.12,1.187 0,0.665 -0.49,1.188 -1.12,1.188 v 0 c -0.58,0 -1.12,-0.523 -1.12,-1.188 0,-0.617 0.54,-1.187 1.12,-1.187 z m 4.48,0 v 0 c 0.63,0 1.12,0.57 1.12,1.187 0,0.665 -0.49,1.188 -1.12,1.188 v 0 c -0.58,0 -1.12,-0.523 -1.12,-1.188 0,-0.617 0.54,-1.187 1.12,-1.187 z m 4.48,0 h 0.05 c 0.58,0 1.12,0.57 1.12,1.187 0,0.665 -0.54,1.188 -1.12,1.188 h -0.05 c -0.58,0 -1.12,-0.523 -1.12,-1.188 0,-0.617 0.54,-1.187 1.12,-1.187 z M 969.42,512.5 951.5,503 l 17.92,-9.5 z m 412.16,-19 17.92,9.5 -17.92,9.5 z"
       stroke="#000000"
       stroke-width="0.6875"
       stroke-linejoin="bevel"
       stroke-miterlimit="10"
       fill-rule="evenodd"
       id="path74" /><rect
       x="1842"
       y="288"
       width="89.999802"
       height="90.000099"
       stroke="#000000"
       stroke-width="2.29167"
       stroke-linecap="round"
       stroke-miterlimit="8"
       fill="none"
       id="rect54"
       style="fill:url(#pattern81);fill-opacity:1" /><rect
       x="1842"
       y="438"
       width="89.999802"
       height="90.000099"
       stroke="#000000"
       stroke-width="2.29167"
       stroke-linecap="round"
       stroke-miterlimit="8"
       fill="none"
       id="rect56"
       style="fill:url(#pattern86);fill-opacity:1" /><text
       font-family="'Times New Roman', 'Times New Roman_MSFontService', sans-serif"
       font-weight="400"
       font-size="37px"
       id="text74"
       x="1099.9399"
       y="485">TLIFE</text></g></svg>
