<svg width="960" height="720" xmlns="http://www.w3.org/2000/svg" xmlns:xlink="http://www.w3.org/1999/xlink" overflow="hidden"><g><rect x="0" y="0" width="960" height="720" fill="#FFFFFF"/><path d="M64.5001 248.5 448.5 248.5" stroke="#000000" stroke-width="1.33333" stroke-linejoin="round" stroke-miterlimit="10" fill="none" fill-rule="evenodd"/><path d="M80.5001 240.5 80.5002 264.5" stroke="#000000" stroke-width="1.33333" stroke-linejoin="round" stroke-miterlimit="10" fill="none" fill-rule="evenodd"/><path d="M432.5 240.5 432.5 264.5" stroke="#000000" stroke-width="1.33333" stroke-linejoin="round" stroke-miterlimit="10" fill="none" fill-rule="evenodd"/><text font-family="Times New Roman,Times New Roman_MSFontService,sans-serif" font-weight="400" font-size="32" transform="translate(240 274)">t</text><text font-family="Times New Roman,Times New Roman_MSFontService,sans-serif" font-weight="400" font-size="32" transform="translate(72 74)">Case I</text><path d="M69.8312 159.833 451.168 159.833 451.168 161.167 69.8312 161.167ZM69.8334 160.5 72.5001 164.5 64.5001 160.5 72.5001 156.5ZM451.167 160.5 448.5 156.5 456.5 160.5 448.5 164.5Z"/><path d="M520.5 248.5 904.5 248.5" stroke="#000000" stroke-width="1.33333" stroke-linejoin="round" stroke-miterlimit="10" fill="none" fill-rule="evenodd"/><path d="M536.5 240.5 536.5 264.5" stroke="#000000" stroke-width="1.33333" stroke-linejoin="round" stroke-miterlimit="10" fill="none" fill-rule="evenodd"/><path d="M888.5 240.5 888.5 264.5" stroke="#000000" stroke-width="1.33333" stroke-linejoin="round" stroke-miterlimit="10" fill="none" fill-rule="evenodd"/><text font-family="Times New Roman,Times New Roman_MSFontService,sans-serif" font-weight="400" font-size="32" transform="translate(696 274)">t</text><text font-family="Times New Roman,Times New Roman_MSFontService,sans-serif" font-weight="400" font-size="32" transform="translate(528 74)">Case II</text><path d="M661.832 159.833 907.167 159.833 907.167 161.167 661.832 161.167ZM661.833 160.5 664.5 164.5 656.5 160.5 664.5 156.5ZM907.167 160.5 904.5 156.5 912.5 160.5 904.5 164.5Z"/><path d="M64.5001 608.5 448.5 608.5" stroke="#000000" stroke-width="1.33333" stroke-linejoin="round" stroke-miterlimit="10" fill="none" fill-rule="evenodd"/><path d="M80.5001 600.5 80.5002 624.5" stroke="#000000" stroke-width="1.33333" stroke-linejoin="round" stroke-miterlimit="10" fill="none" fill-rule="evenodd"/><path d="M432.5 600.5 432.5 624.5" stroke="#000000" stroke-width="1.33333" stroke-linejoin="round" stroke-miterlimit="10" fill="none" fill-rule="evenodd"/><text font-family="Times New Roman,Times New Roman_MSFontService,sans-serif" font-weight="400" font-size="32" transform="translate(240 634)">t</text><text font-family="Times New Roman,Times New Roman_MSFontService,sans-serif" font-weight="400" font-size="32" transform="translate(72 434)">Case III</text><path d="M69.8328 519.833 275.167 519.833 275.167 521.167 69.8328 521.167ZM69.8334 520.5 72.5001 524.5 64.5001 520.5 72.5001 516.5ZM275.167 520.5 272.5 516.5 280.5 520.5 272.5 524.5Z"/><path d="M520.5 608.5 904.5 608.5" stroke="#000000" stroke-width="1.33333" stroke-linejoin="round" stroke-miterlimit="10" fill="none" fill-rule="evenodd"/><path d="M536.5 600.5 536.5 624.5" stroke="#000000" stroke-width="1.33333" stroke-linejoin="round" stroke-miterlimit="10" fill="none" fill-rule="evenodd"/><path d="M888.5 600.5 888.5 624.5" stroke="#000000" stroke-width="1.33333" stroke-linejoin="round" stroke-miterlimit="10" fill="none" fill-rule="evenodd"/><text font-family="Times New Roman,Times New Roman_MSFontService,sans-serif" font-weight="400" font-size="32" transform="translate(696 634)">t</text><text font-family="Times New Roman,Times New Roman_MSFontService,sans-serif" font-weight="400" font-size="32" transform="translate(528 434)">Case IV</text><path d="M573.833 519.833 619.167 519.833 619.167 521.167 573.833 521.167ZM573.833 520.5 576.5 524.5 568.5 520.5 576.5 516.5ZM619.167 520.5 616.5 516.5 624.5 520.5 616.5 524.5Z"/><text font-family="Times New Roman,Times New Roman_MSFontService,sans-serif" font-weight="400" font-size="21" transform="translate(184 154)">NCAP_CLED</text><path d="M693.833 519.833 739.167 519.833 739.167 521.167 693.833 521.167ZM693.833 520.5 696.5 524.5 688.5 520.5 696.5 516.5ZM739.167 520.5 736.5 516.5 744.5 520.5 736.5 524.5Z"/><path d="M813.833 519.833 859.167 519.833 859.167 521.167 813.833 521.167ZM813.833 520.5 816.5 524.5 808.5 520.5 816.5 516.5ZM859.167 520.5 856.5 516.5 864.5 520.5 856.5 524.5Z"/></g></svg>