<?xml version="1.0" encoding="UTF-8" standalone="no"?>
<svg
   width="1712.142"
   height="952.52258"
   xml:space="preserve"
   overflow="hidden"
   version="1.1"
   id="svg26"
   xmlns="http://www.w3.org/2000/svg"
   xmlns:svg="http://www.w3.org/2000/svg"><defs
     id="defs26" /><g
     id="g26"
     transform="translate(-223.2258,-267.87097)"><rect
       x="223.2258"
       y="267.87097"
       width="1712.142"
       height="952.52258"
       fill="#ffffff"
       id="rect1"
       style="stroke-width:0.711227" /><rect
       x="380.5"
       y="583.5"
       width="433"
       height="190"
       stroke="#000000"
       stroke-width="2.97917"
       stroke-linecap="round"
       stroke-miterlimit="8"
       fill="none"
       id="rect2" /><path
       d="m 311.5,669.5 h 68.979"
       stroke="#000000"
       stroke-width="2.97917"
       stroke-linejoin="round"
       stroke-miterlimit="10"
       fill="none"
       fill-rule="evenodd"
       id="path2" /><path
       d="M 311.5,497.5 V 842.625"
       stroke="#000000"
       stroke-width="2.97917"
       stroke-linejoin="round"
       stroke-miterlimit="10"
       fill="none"
       fill-rule="evenodd"
       id="path3" /><path
       d="m 813,635 h 346.04"
       stroke="#0066ff"
       stroke-width="5.72917"
       stroke-linejoin="round"
       stroke-miterlimit="10"
       fill="none"
       fill-rule="evenodd"
       id="path4" /><path
       d="m 813,721 h 415.25"
       stroke="#0066ff"
       stroke-width="5.72917"
       stroke-linejoin="round"
       stroke-miterlimit="10"
       fill="none"
       fill-rule="evenodd"
       id="path5" /><path
       d="M 1159.5,497.5 V 842.625"
       stroke="#000000"
       stroke-width="2.97917"
       stroke-linejoin="round"
       stroke-miterlimit="10"
       fill="none"
       fill-rule="evenodd"
       id="path6" /><path
       d="M 1228.5,497.5 V 842.625"
       stroke="#000000"
       stroke-width="2.97917"
       stroke-linejoin="round"
       stroke-miterlimit="10"
       fill="none"
       fill-rule="evenodd"
       id="path7" /><text
       font-family="Arial, Arial_MSFontService, sans-serif"
       font-weight="400"
       font-size="41px"
       transform="translate(1210.46,481)"
       id="text7">GSL</text><text
       font-family="Arial, Arial_MSFontService, sans-serif"
       font-weight="400"
       font-size="41px"
       transform="translate(1105.27,481)"
       id="text8">DSL</text><text
       font-family="Arial, Arial_MSFontService, sans-serif"
       font-weight="400"
       font-size="41px"
       transform="translate(280.5,481)"
       id="text9">OIL</text><text
       font-family="Arial, Arial_MSFontService, sans-serif"
       font-weight="400"
       font-size="41px"
       transform="translate(525.456,669)"
       id="text10">Refinery </text><text
       font-family="Arial, Arial_MSFontService, sans-serif"
       font-weight="400"
       font-size="41px"
       transform="translate(559.831,722)"
       id="text11">SRE</text><text
       font-family="Arial, Arial_MSFontService, sans-serif"
       font-style="italic"
       font-weight="400"
       font-size="41px"
       transform="translate(1301.21,655)"
       id="text12">All commodities </text><text
       font-family="Arial, Arial_MSFontService, sans-serif"
       font-style="italic"
       font-weight="400"
       font-size="41px"
       transform="translate(1301.21,708)"
       id="text13">in PJ</text><text
       font-family="Arial, Arial_MSFontService, sans-serif"
       font-style="italic"
       font-weight="400"
       font-size="41px"
       transform="translate(453.521,533)"
       id="text14">Activity in PJ</text><text
       fill="#333399"
       font-family="Arial, Arial_MSFontService, sans-serif"
       font-style="italic"
       font-weight="400"
       font-size="41px"
       transform="translate(765.829,448)"
       id="text15">Commodity group </text><text
       fill="#333399"
       font-family="Arial, Arial_MSFontService, sans-serif"
       font-style="italic"
       font-weight="400"
       font-size="41px"
       transform="translate(843.746,501)"
       id="text16">CG_SRE</text><path
       d="m 918.554,513.5 5.479,5.962 5.25,5.963 2.51,3.21 2.74,2.982 2.282,3.21 2.283,3.211 2.282,3.21 2.283,3.211 2.054,3.44 1.826,3.439 1.826,3.44 1.37,3.669 1.37,3.67 1.369,3.669 0.457,2.064 0.456,2.064 0.457,2.293 0.228,2.064 0.228,2.522 0.228,2.294 0.457,4.815 v 5.045 5.046 5.045 l -0.228,5.045 -0.457,5.045 -0.228,4.816 -0.228,2.293 -0.229,2.293 -0.228,2.064 v 2.064 l -0.456,4.128 -2.739,-0.23 0.228,-4.127 0.228,-2.064 0.228,-2.064 v -2.293 l 0.229,-2.294 0.456,-4.815 0.228,-4.816 0.229,-5.045 0.228,-5.045 v -5.046 l -0.228,-4.815 -0.229,-4.816 -0.228,-2.293 -0.228,-2.294 -0.457,-2.064 -0.228,-2.063 -0.456,-2.064 -0.457,-1.835 -1.141,-3.669 -1.37,-3.44 -1.598,-3.669 -1.597,-3.211 -1.827,-3.439 -2.054,-3.211 -2.054,-3.211 -2.283,-3.21 -2.282,-3.211 -2.283,-2.981 -2.511,-2.981 -2.511,-2.981 -5.25,-6.192 -5.478,-5.733 z m 39.946,110.763 -6.391,11.237 -5.022,-11.925 z"
       stroke="#000000"
       stroke-width="0.229167"
       stroke-linejoin="bevel"
       stroke-miterlimit="10"
       fill-rule="evenodd"
       id="path16" /><path
       d="m 935.645,513.5 11.218,4.805 11.446,4.806 10.989,4.805 10.989,5.034 5.494,2.517 5.266,2.517 5.265,2.517 5.038,2.517 5.26,2.517 4.81,2.517 4.81,2.746 4.81,2.517 4.58,2.746 4.57,2.517 4.35,2.746 4.13,2.746 4.12,2.746 3.89,2.974 3.66,2.746 3.43,2.975 3.44,2.746 2.98,2.975 2.97,3.203 2.75,2.975 2.52,3.203 2.29,2.975 2.06,3.432 1.83,3.204 0.68,1.602 0.69,1.83 0.69,1.831 0.46,1.83 0.45,1.831 0.46,2.059 0.23,1.831 0.23,2.059 v 1.831 2.059 2.06 2.059 l -0.46,4.348 -0.68,4.119 -0.69,4.576 -1.15,4.348 -1.14,4.347 -1.6,4.577 -1.38,4.347 -1.83,4.577 -1.83,4.348 -1.83,4.347 -1.83,4.577 -2.06,4.118 -2.06,4.348 -1.84,4.119 -2.06,4.119 -2.06,3.89 -1.83,3.89 -1.83,3.661 -1.83,3.432 -1.6,3.433 -1.61,2.974 -2.06,4.577 -2.51,-1.144 2.06,-4.577 1.37,-3.203 1.83,-3.433 1.6,-3.432 2.06,-3.661 1.84,-3.89 2.06,-3.89 1.83,-3.89 2.06,-4.119 2.06,-4.348 1.83,-4.118 2.06,-4.348 1.83,-4.348 1.6,-4.576 1.84,-4.348 1.37,-4.347 1.37,-4.348 1.38,-4.348 0.91,-4.347 0.92,-4.119 0.46,-4.119 0.45,-4.119 0.23,-2.059 v -1.831 -2.059 l -0.23,-1.831 -0.23,-1.83 -0.22,-1.831 -0.23,-1.831 -0.46,-1.601 -0.46,-1.831 -0.46,-1.602 -0.68,-1.601 -0.69,-1.602 -1.83,-3.204 -1.83,-2.974 -2.29,-3.204 -2.29,-2.975 -2.75,-2.974 -2.75,-2.975 -3.2,-2.746 -3.21,-2.975 -3.43,-2.745 -3.66,-2.746 -3.67,-2.746 -4.12,-2.746 -4.12,-2.746 -4.35,-2.746 -4.35,-2.746 -4.58,-2.517 -4.8,-2.517 -4.81,-2.746 -4.81,-2.517 -5.04,-2.517 -5.261,-2.517 -5.037,-2.517 -5.494,-2.517 -5.266,-2.517 -10.988,-4.805 -11.218,-4.805 -11.218,-5.035 -11.218,-4.805 z m 112.635,199.534 -9.61,8.466 -0.92,-12.814 z"
       stroke="#000000"
       stroke-width="0.229167"
       stroke-linejoin="bevel"
       stroke-miterlimit="10"
       fill-rule="evenodd"
       id="path17" /><text
       fill="#003300"
       font-family="Arial, Arial_MSFontService, sans-serif"
       font-style="italic"
       font-weight="400"
       font-size="41px"
       transform="translate(280.5,399)"
       id="text17">Oil</text><text
       fill="#003300"
       font-family="Arial, Arial_MSFontService, sans-serif"
       font-style="italic"
       font-weight="400"
       font-size="41px"
       transform="translate(1024.38,347)"
       id="text18">Diesel</text><text
       fill="#003300"
       font-family="Arial, Arial_MSFontService, sans-serif"
       font-style="italic"
       font-weight="400"
       font-size="41px"
       transform="translate(1283.79,347)"
       id="text19">Gasoline</text><path
       d="m 1107,362 17.42,68.979"
       stroke="#000000"
       stroke-width="2.0625"
       stroke-linecap="round"
       stroke-linejoin="round"
       stroke-miterlimit="10"
       fill="none"
       fill-rule="evenodd"
       id="path19" /><path
       d="M 0,0 86.3958,68.9792"
       stroke="#000000"
       stroke-width="2.0625"
       stroke-linecap="round"
       stroke-linejoin="round"
       stroke-miterlimit="10"
       fill="none"
       fill-rule="evenodd"
       transform="matrix(-1,0,0,1,1349.4,362)"
       id="path20" /><text
       fill="#333399"
       font-family="Arial, Arial_MSFontService, sans-serif"
       font-style="italic"
       font-weight="400"
       font-size="41px"
       transform="translate(591.937,951)"
       id="text20">COM_GMAP(r,cg,c) = {UTOPIA.CG_SRE.DSL, UTOPIA.CG_SRE.GSL}</text><text
       fill="#333399"
       font-family="Arial, Arial_MSFontService, sans-serif"
       font-style="italic"
       font-weight="400"
       font-size="41px"
       transform="translate(591.937,1037)"
       id="text21">PRC_CG(r,p,cg) = {UTOPIA.SRE.CG_SRE}</text><text
       fill="#333399"
       font-family="Arial, Arial_MSFontService, sans-serif"
       font-style="italic"
       font-weight="400"
       font-size="41px"
       transform="translate(591.937,1158)"
       id="text22">PRC_ACTUNT(r,p,cg,u) = {UTOPIA.SRE.CG_SRE.PJ}</text><text
       fill="#003300"
       font-family="Arial, Arial_MSFontService, sans-serif"
       font-style="italic"
       font-weight="400"
       font-size="41px"
       transform="translate(302.202,970)"
       id="text23">Definition of </text><text
       fill="#003300"
       font-family="Arial, Arial_MSFontService, sans-serif"
       font-style="italic"
       font-weight="400"
       font-size="41px"
       transform="translate(252.954,1023)"
       id="text24">commodity group</text><text
       fill="#003300"
       font-family="Arial, Arial_MSFontService, sans-serif"
       font-style="italic"
       font-weight="400"
       font-size="41px"
       transform="translate(299.463,1121)"
       id="text25">Definition of </text><text
       fill="#003300"
       font-family="Arial, Arial_MSFontService, sans-serif"
       font-style="italic"
       font-weight="400"
       font-size="41px"
       transform="translate(267.403,1175)"
       id="text26">process activity</text></g></svg>
