<?xml version="1.0" encoding="UTF-8" standalone="no"?>
<svg
   width="2097.8916"
   height="1783.9163"
   xml:space="preserve"
   overflow="hidden"
   version="1.1"
   id="svg199"
   xmlns="http://www.w3.org/2000/svg"
   xmlns:svg="http://www.w3.org/2000/svg"><defs
     id="defs199" /><g
     id="g199"
     transform="translate(-146.36453,-30.492611)"><rect
       x="146.36453"
       y="30.492611"
       width="2097.8916"
       height="1783.9163"
       fill="#ffffff"
       id="rect1"
       style="stroke-width:0.903649" /><g
       id="g203"><path
         d="M 0,0 245.896,244.979"
         stroke="#000000"
         stroke-width="2.29167"
         stroke-linejoin="round"
         stroke-miterlimit="10"
         fill="none"
         fill-rule="evenodd"
         transform="matrix(-1,0,0,1,653.896,186)"
         id="path2" /><path
         d="M 0,0 140.479,244.979"
         stroke="#000000"
         stroke-width="2.29167"
         stroke-linejoin="round"
         stroke-miterlimit="10"
         fill="none"
         fill-rule="evenodd"
         transform="matrix(-1,0,0,1,407.479,431)"
         id="path3" /><path
         d="M 0,0 105.188,244.979"
         stroke="#000000"
         stroke-width="2.29167"
         stroke-linejoin="round"
         stroke-miterlimit="10"
         fill="none"
         fill-rule="evenodd"
         transform="matrix(-1,0,0,1,899.188,431)"
         id="path4" /><path
         d="M 654,186 934.729,430.979"
         stroke="#000000"
         stroke-width="2.29167"
         stroke-linejoin="round"
         stroke-miterlimit="10"
         fill="none"
         fill-rule="evenodd"
         id="path5" /><path
         d="M 408,431 530.833,675.979"
         stroke="#000000"
         stroke-width="2.29167"
         stroke-linejoin="round"
         stroke-miterlimit="10"
         fill="none"
         fill-rule="evenodd"
         id="path6" /><path
         d="m 899,431 158.12,244.979"
         stroke="#000000"
         stroke-width="2.29167"
         stroke-linejoin="round"
         stroke-miterlimit="10"
         fill="none"
         fill-rule="evenodd"
         id="path7" /><path
         d="m 653.443,134 -2.857,0.229 h -2.513 l -2.628,0.344 -2.628,0.459 -2.513,0.573 -2.628,0.917 -2.514,0.802 -2.285,0.803 -2.285,1.031 -2.171,1.261 -2.285,1.147 -2.057,1.49 -2.056,1.49 -2.057,1.375 -1.828,1.72 -1.942,1.834 -1.828,1.834 -1.371,1.834 -1.714,2.063 -1.371,2.064 -1.486,2.063 -1.256,2.063 -1.257,2.293 -1.028,2.407 -0.8,2.293 -0.8,2.407 -0.8,2.522 -0.457,2.636 -0.571,2.751 -0.229,2.407 -0.228,2.637 v 2.751 2.866 l 0.228,2.407 0.229,2.751 0.571,2.636 0.457,2.522 0.8,2.407 0.8,2.522 0.8,2.293 1.028,2.178 1.257,2.522 1.256,2.292 1.486,2.064 1.371,1.948 1.714,1.949 1.371,2.063 1.828,1.834 1.942,1.605 1.828,1.605 2.057,1.719 2.056,1.376 2.057,1.49 2.285,1.032 2.171,1.261 2.285,1.146 2.285,0.917 2.514,0.802 2.628,0.573 2.513,0.688 2.628,0.573 2.628,0.23 2.513,0.229 h 2.857 2.742 l 2.399,-0.229 2.742,-0.23 2.628,-0.573 2.742,-0.688 2.4,-0.573 2.513,-0.802 2.285,-0.917 2.4,-1.146 2.285,-1.261 2.056,-1.032 2.057,-1.49 2.057,-1.376 2.056,-1.719 1.828,-1.605 1.828,-1.605 1.943,-1.834 1.371,-2.063 1.714,-1.949 1.371,-1.948 1.485,-2.064 1.257,-2.292 1.142,-2.522 1.029,-2.178 0.914,-2.293 0.799,-2.522 0.8,-2.407 0.457,-2.522 0.572,-2.636 0.228,-2.751 0.229,-2.407 0.228,-2.866 -0.228,-2.751 -0.229,-2.637 -0.228,-2.407 -0.572,-2.751 -0.457,-2.636 -0.8,-2.522 -0.799,-2.407 -0.914,-2.293 -1.029,-2.407 -1.142,-2.293 -1.257,-2.063 -1.485,-2.063 -1.371,-2.064 -1.714,-2.063 -1.371,-1.834 -1.943,-1.834 -1.828,-1.834 -1.828,-1.72 -2.056,-1.375 -2.057,-1.49 -2.057,-1.49 -2.056,-1.147 -2.285,-1.261 -2.4,-1.031 -2.285,-0.803 -2.513,-0.802 -2.4,-0.917 -2.742,-0.573 -2.628,-0.459 -2.742,-0.344 h -2.399 z"
         fill="#ffffff"
         fill-rule="evenodd"
         id="path8"
         style="stroke:#000000;stroke-opacity:1;stroke-width:2;stroke-dasharray:none" /><path
         d="m 407.942,379 h -2.883 l -2.422,0.229 -2.769,0.344 -2.653,0.459 -2.537,0.573 -2.653,0.917 -2.307,0.802 -2.537,0.803 -2.192,1.031 -2.307,1.261 -2.307,1.147 -2.076,1.49 -2.076,1.49 -1.845,1.376 -2.077,1.719 -1.845,1.834 -1.961,1.834 -1.384,1.834 -1.73,2.063 -1.384,2.064 -1.5,2.063 -1.268,2.063 -1.269,2.293 -1.038,2.407 -0.808,2.293 -0.807,2.407 -0.807,2.522 -0.462,2.636 -0.577,2.751 -0.23,2.408 -0.231,2.636 v 2.751 2.637 l 0.231,2.636 0.23,2.751 0.577,2.637 0.462,2.521 0.807,2.408 0.807,2.521 0.808,2.293 1.038,2.178 1.269,2.292 1.268,2.522 1.5,2.064 1.384,1.948 1.73,1.949 1.384,2.063 1.961,1.834 1.845,1.605 2.077,1.605 1.845,1.719 2.076,1.376 2.076,1.261 2.307,1.261 2.307,1.261 2.192,1.031 2.537,1.032 2.307,0.802 2.653,0.574 2.537,0.687 2.653,0.573 2.769,0.23 2.422,0.229 h 2.883 2.769 l 2.652,-0.229 2.538,-0.23 2.653,-0.573 2.768,-0.687 2.422,-0.574 2.538,-0.802 2.307,-1.032 2.422,-1.031 2.307,-1.261 2.076,-1.261 2.076,-1.261 2.076,-1.376 2.076,-1.719 1.846,-1.605 1.961,-1.605 1.845,-1.834 1.615,-2.063 1.499,-1.949 1.385,-1.948 1.499,-2.064 1.269,-2.522 1.269,-2.292 1.038,-2.178 0.807,-2.293 0.807,-2.521 0.808,-2.408 0.461,-2.521 0.577,-2.637 0.461,-2.751 v -2.636 L 461,431.5 l -0.231,-2.751 v -2.636 l -0.461,-2.408 -0.577,-2.751 -0.461,-2.636 -0.808,-2.522 -0.807,-2.407 -0.807,-2.293 -1.038,-2.407 -1.269,-2.293 -1.269,-2.063 -1.499,-2.063 -1.385,-2.064 -1.499,-2.063 -1.615,-1.834 -1.845,-1.834 -1.961,-1.834 -1.846,-1.719 -2.076,-1.376 -2.076,-1.49 -2.076,-1.49 -2.076,-1.147 -2.307,-1.261 -2.422,-1.031 -2.307,-0.803 -2.538,-0.802 -2.422,-0.917 -2.768,-0.573 -2.653,-0.459 -2.538,-0.344 -2.652,-0.229 z"
         fill="#c0c0c0"
         fill-rule="evenodd"
         id="path10"
         style="stroke:#000000;stroke-opacity:1;stroke-width:2;stroke-dasharray:none" /><path
         d="m 899.5,379 h -2.86 l -2.516,0.229 -2.631,0.344 -2.745,0.687 -2.402,0.343 -2.745,0.916 -2.402,0.802 -2.287,0.801 -2.288,1.031 -2.287,1.259 -2.174,1.145 -2.058,1.489 -2.059,1.488 -2.059,1.375 -1.945,1.717 -1.83,1.832 -1.601,1.832 -1.716,1.832 -1.601,2.061 -1.487,2.061 -1.372,2.061 -1.259,2.062 -1.258,2.29 -1.029,2.404 -0.801,2.29 -0.8,2.405 -0.915,2.748 -0.344,2.404 -0.686,2.749 -0.114,2.404 -0.229,2.634 v 2.977 2.404 l 0.229,2.634 0.114,2.748 0.686,2.634 0.344,2.633 0.915,2.29 0.8,2.519 0.801,2.29 1.029,2.405 1.258,2.29 1.259,2.29 1.372,2.061 1.487,1.947 1.601,1.946 1.716,2.061 1.601,1.832 1.83,1.833 1.945,1.374 2.059,1.717 2.059,1.374 2.058,1.26 2.174,1.259 2.287,1.26 2.288,1.03 2.287,1.031 2.402,0.801 2.745,0.573 2.402,0.687 2.745,0.572 2.631,0.229 2.516,0.229 2.86,0.115 2.745,-0.115 2.402,-0.229 2.745,-0.229 2.631,-0.572 2.631,-0.687 2.516,-0.573 2.516,-0.801 2.173,-1.031 2.517,-1.03 2.287,-1.26 2.059,-1.259 2.059,-1.26 2.059,-1.374 2.059,-1.717 1.83,-1.374 1.83,-1.833 1.83,-1.832 1.487,-2.061 1.601,-1.946 1.487,-1.947 1.487,-2.061 1.144,-2.29 1.258,-2.29 1.029,-2.405 0.915,-2.29 0.801,-2.519 0.801,-2.29 0.457,-2.633 0.572,-2.634 0.229,-2.748 0.228,-2.634 0.115,-2.404 -0.115,-2.977 -0.228,-2.634 -0.229,-2.404 -0.572,-2.749 -0.457,-2.404 -0.801,-2.748 -0.801,-2.405 -0.915,-2.29 -1.029,-2.404 -1.258,-2.29 -1.144,-2.062 -1.487,-2.061 -1.487,-2.061 -1.601,-2.061 -1.487,-1.832 -1.83,-1.832 -1.83,-1.832 -1.83,-1.717 -2.059,-1.375 -2.059,-1.488 -2.059,-1.489 -2.059,-1.145 -2.287,-1.259 -2.517,-1.031 -2.173,-0.801 -2.516,-0.802 -2.516,-0.916 -2.631,-0.343 -2.631,-0.687 -2.745,-0.344 -2.402,-0.229 z"
         fill="#c0c0c0"
         fill-rule="evenodd"
         id="path12"
         style="stroke:#000000;stroke-opacity:1;stroke-width:2;stroke-dasharray:none" /><path
         d="m 267.386,624 h -2.625 l -2.739,0.229 -2.625,0.344 -2.511,0.459 -2.397,0.573 -2.739,0.917 -2.397,0.802 -2.282,0.803 -2.511,1.031 -2.055,1.261 -2.282,1.146 -2.055,1.491 -2.168,1.49 -1.94,1.375 -1.826,1.72 -2.055,1.605 -1.598,2.063 -1.712,1.834 -1.597,2.063 -1.256,2.064 -1.369,2.063 -1.256,2.063 -1.255,2.293 -1.027,2.407 -0.799,2.293 -1.028,2.407 -0.684,2.522 -0.571,2.636 -0.457,2.751 -0.342,2.407 -0.228,2.637 v 2.751 2.636 l 0.228,2.637 0.342,2.751 0.457,2.636 0.571,2.522 0.684,2.408 1.028,2.521 0.799,2.293 1.027,2.178 1.255,2.293 1.256,2.521 1.369,2.064 1.256,1.948 1.597,1.949 1.712,2.063 1.598,1.834 2.055,1.605 1.826,1.605 1.94,1.719 2.168,1.376 2.055,1.261 2.282,1.261 2.055,1.261 2.511,1.031 2.282,1.032 2.397,0.803 2.739,0.573 2.397,0.687 2.511,0.344 2.625,0.459 2.739,0.229 h 2.625 2.739 l 2.625,-0.229 2.625,-0.459 2.739,-0.344 2.397,-0.687 2.511,-0.573 2.511,-0.803 2.168,-1.032 2.511,-1.031 2.283,-1.261 2.054,-1.261 2.283,-1.261 2.054,-1.376 1.826,-1.719 1.826,-1.605 2.054,-1.605 1.598,-1.834 1.712,-2.063 1.598,-1.949 1.255,-1.948 1.484,-2.064 1.141,-2.521 1.256,-2.293 1.027,-2.178 1.027,-2.293 0.913,-2.521 0.571,-2.408 0.571,-2.522 0.456,-2.636 0.457,-2.751 0.114,-2.637 0.228,-2.636 -0.228,-2.751 -0.114,-2.637 -0.457,-2.407 -0.456,-2.751 -0.571,-2.636 -0.571,-2.522 -0.913,-2.407 -1.027,-2.293 -1.027,-2.407 -1.256,-2.293 -1.141,-2.063 -1.484,-2.063 -1.255,-2.064 -1.598,-2.063 -1.712,-1.834 -1.598,-2.063 -2.054,-1.605 -1.826,-1.72 -1.826,-1.375 -2.054,-1.49 -2.283,-1.491 -2.054,-1.146 -2.283,-1.261 -2.511,-1.031 -2.168,-0.803 -2.511,-0.802 -2.511,-0.917 -2.397,-0.573 -2.739,-0.459 -2.625,-0.344 -2.625,-0.229 z"
         fill="#ffffff"
         fill-rule="evenodd"
         id="path14"
         style="stroke:#000000;stroke-opacity:1;stroke-width:2;stroke-dasharray:none" /><path
         d="m 530.885,624 h -2.65 l -2.765,0.229 -2.65,0.344 -2.535,0.459 -2.42,0.573 -2.765,0.917 -2.419,0.802 -2.305,0.803 -2.535,1.031 -2.073,1.261 -2.305,1.146 -2.074,1.491 -2.304,1.49 -1.844,1.375 -1.843,1.72 -2.074,1.605 -1.613,2.063 -1.728,1.834 -1.613,2.063 -1.268,2.064 -1.498,2.063 -1.152,2.063 -1.267,2.293 -1.037,2.407 -0.807,2.293 -1.036,2.407 -0.692,2.522 -0.576,2.636 -0.461,2.751 -0.345,2.407 -0.231,2.637 v 2.751 2.636 l 0.231,2.637 0.345,2.751 0.461,2.636 0.576,2.522 0.692,2.408 1.036,2.521 0.807,2.293 1.037,2.178 1.267,2.293 1.152,2.521 1.498,2.064 1.268,1.948 1.613,1.949 1.728,2.063 1.613,1.834 2.074,1.605 1.843,1.605 1.844,1.719 2.304,1.376 2.074,1.261 2.305,1.261 2.073,1.261 2.535,1.031 2.305,1.032 2.419,0.803 2.765,0.573 2.42,0.687 2.535,0.344 2.65,0.459 2.765,0.229 h 2.65 2.65 l 2.765,-0.229 2.65,-0.459 2.765,-0.344 2.42,-0.687 2.535,-0.573 2.419,-0.803 2.305,-1.032 2.534,-1.031 2.305,-1.261 2.074,-1.261 2.304,-1.261 2.074,-1.376 1.843,-1.719 1.844,-1.605 2.074,-1.605 1.613,-1.834 1.728,-2.063 1.613,-1.949 1.267,-1.948 1.498,-2.064 1.152,-2.521 1.268,-2.293 1.037,-2.178 1.037,-2.293 0.806,-2.521 0.692,-2.408 0.576,-2.522 0.46,-2.636 0.346,-2.751 0.231,-2.637 0.23,-2.636 -0.23,-2.751 -0.231,-2.637 -0.346,-2.407 -0.46,-2.751 -0.576,-2.636 -0.692,-2.522 -0.806,-2.407 -1.037,-2.293 -1.037,-2.407 -1.268,-2.293 -1.152,-2.063 -1.498,-2.063 -1.267,-2.064 -1.613,-2.063 -1.728,-1.834 -1.613,-2.063 -2.074,-1.605 -1.844,-1.72 -1.843,-1.375 -2.074,-1.49 -2.304,-1.491 -2.074,-1.146 -2.305,-1.261 -2.534,-1.031 -2.305,-0.803 -2.419,-0.802 -2.535,-0.917 -2.42,-0.573 -2.765,-0.459 -2.65,-0.344 -2.765,-0.229 z"
         fill="#ffffff"
         fill-rule="evenodd"
         id="path16"
         style="stroke:#000000;stroke-opacity:1;stroke-width:2;stroke-dasharray:none" /><path
         d="m 794.115,624 h -2.995 l -2.65,0.229 -2.65,0.344 -2.535,0.459 -2.535,0.573 -2.65,0.917 -2.535,0.802 -2.189,0.803 -2.535,1.031 -2.074,1.261 -2.304,1.146 -2.074,1.491 -2.304,1.49 -1.844,1.375 -1.843,1.72 -2.074,1.605 -1.613,2.063 -1.728,1.834 -1.613,2.063 -1.268,2.064 -1.498,2.063 -1.267,2.063 -1.152,2.293 -1.037,2.407 -0.922,2.293 -1.037,2.407 -0.576,2.522 -0.576,2.636 -0.461,2.751 -0.461,2.407 -0.115,2.637 v 2.751 2.636 l 0.115,2.637 0.461,2.751 0.461,2.636 0.576,2.522 0.576,2.408 1.037,2.521 0.922,2.293 1.037,2.178 1.152,2.293 1.267,2.521 1.498,2.064 1.268,1.948 1.613,1.949 1.728,2.063 1.613,1.834 2.074,1.605 1.843,1.605 1.844,1.719 2.304,1.376 2.074,1.261 2.304,1.261 2.074,1.261 2.535,1.031 2.189,1.032 2.535,0.803 2.65,0.573 2.535,0.687 2.535,0.344 2.65,0.459 2.65,0.229 h 2.995 2.42 l 2.765,-0.229 2.65,-0.459 2.765,-0.344 2.42,-0.687 2.535,-0.573 2.419,-0.803 2.304,-1.032 2.535,-1.031 2.305,-1.261 2.074,-1.261 2.189,-1.261 2.074,-1.376 1.958,-1.719 1.844,-1.605 2.074,-1.605 1.613,-1.834 1.728,-2.063 1.613,-1.949 1.267,-1.948 1.383,-2.064 1.267,-2.521 1.268,-2.293 1.037,-2.178 1.037,-2.293 0.806,-2.521 0.691,-2.408 0.577,-2.522 0.46,-2.636 0.346,-2.751 0.231,-2.637 0.23,-2.636 -0.23,-2.751 -0.231,-2.637 -0.346,-2.407 -0.46,-2.751 -0.577,-2.636 -0.691,-2.522 -0.806,-2.407 -1.037,-2.293 -1.037,-2.407 -1.268,-2.293 -1.267,-2.063 -1.383,-2.063 -1.267,-2.064 -1.613,-2.063 -1.728,-1.834 -1.613,-2.063 -2.074,-1.605 -1.844,-1.72 -1.958,-1.375 -2.074,-1.49 -2.189,-1.491 -2.074,-1.146 -2.305,-1.261 -2.535,-1.031 -2.304,-0.803 -2.419,-0.802 -2.535,-0.917 -2.42,-0.573 -2.765,-0.459 -2.65,-0.344 -2.765,-0.229 z"
         fill="#ffffff"
         fill-rule="evenodd"
         id="path18"
         style="stroke:#000000;stroke-opacity:1;stroke-width:2;stroke-dasharray:none" /><path
         d="m 1057.61,624 h -2.96 l -2.63,0.229 -2.62,0.343 -2.51,0.687 -2.51,0.344 -2.63,0.916 -2.51,0.801 -2.28,0.802 -2.17,1.031 -2.28,1.259 -2.29,1.145 -2.05,1.489 -2.28,1.488 -1.83,1.374 -1.83,1.718 -2.05,1.603 -1.48,2.061 -1.83,1.832 -1.48,2.061 -1.37,2.061 -1.49,2.061 -1.25,2.061 -1.14,2.29 -1.03,2.405 -0.91,2.29 -1.03,2.405 -0.57,2.748 -0.57,2.404 -0.46,2.748 -0.46,2.405 -0.11,2.634 v 2.977 2.404 l 0.11,2.634 0.46,2.748 0.46,2.634 0.57,2.519 0.57,2.404 1.03,2.519 0.91,2.29 1.03,2.405 1.14,2.29 1.25,2.29 1.49,2.061 1.37,1.947 1.48,1.946 1.83,2.061 1.48,1.833 2.05,1.832 1.83,1.374 1.83,1.717 2.28,1.374 2.05,1.26 2.29,1.259 2.28,1.26 2.17,1.03 2.28,1.031 2.51,0.802 2.63,0.572 2.51,0.687 2.51,0.344 2.62,0.458 2.63,0.229 2.96,0.114 2.4,-0.114 2.74,-0.229 2.63,-0.458 2.62,-0.344 2.51,-0.687 2.51,-0.572 2.4,-0.802 2.28,-1.031 2.51,-1.03 2.17,-1.26 2.05,-1.259 2.29,-1.26 2.05,-1.374 1.83,-1.717 2.17,-1.374 1.82,-1.832 1.6,-1.833 1.71,-2.061 1.6,-1.946 1.26,-1.947 1.36,-2.061 1.26,-2.29 1.26,-2.29 1.02,-2.405 1.03,-2.29 0.8,-2.519 0.68,-2.404 0.57,-2.519 0.46,-2.634 0.34,-2.748 0.23,-2.634 0.23,-2.404 -0.23,-2.977 -0.23,-2.634 -0.34,-2.405 -0.46,-2.748 -0.57,-2.404 -0.68,-2.748 -0.8,-2.405 -1.03,-2.29 -1.02,-2.405 -1.26,-2.29 -1.26,-2.061 -1.36,-2.061 -1.26,-2.061 -1.6,-2.061 -1.71,-1.832 -1.6,-2.061 -1.82,-1.603 -2.17,-1.718 -1.83,-1.374 -2.05,-1.488 -2.29,-1.489 -2.05,-1.145 -2.17,-1.259 -2.51,-1.031 -2.28,-0.802 -2.4,-0.801 -2.51,-0.916 -2.51,-0.344 -2.62,-0.687 -2.63,-0.343 -2.74,-0.229 z"
         fill="#ffffff"
         fill-rule="evenodd"
         id="path20"
         style="stroke:#000000;stroke-opacity:1;stroke-width:2;stroke-dasharray:none" /></g><g
       id="g215"><text
         font-family="Arial, Arial_MSFontService, sans-serif"
         font-style="italic"
         font-weight="700"
         font-size="28px"
         transform="translate(763.583,178)"
         id="text21">ANNUAL</text><text
         font-family="Arial, Arial_MSFontService, sans-serif"
         font-style="italic"
         font-weight="700"
         font-size="28px"
         transform="translate(727.604,214)"
         id="text22">(G_YRFR=1.0)</text></g><g
       id="g214"><text
         font-family="Arial, Arial_MSFontService, sans-serif"
         font-style="italic"
         font-weight="700"
         font-size="28px"
         transform="translate(268.583,318)"
         id="text23">WI</text><text
         font-family="Arial, Arial_MSFontService, sans-serif"
         font-style="italic"
         font-weight="700"
         font-size="28px"
         transform="translate(188.833,354)"
         id="text24">(G_YRFR=0.6)</text></g><g
       id="g213"><text
         font-family="Arial, Arial_MSFontService, sans-serif"
         font-style="italic"
         font-weight="700"
         font-size="28px"
         transform="translate(239.25,791)"
         id="text25">WID </text><text
         font-family="Arial, Arial_MSFontService, sans-serif"
         font-style="italic"
         font-weight="700"
         font-size="28px"
         transform="translate(165.917,826)"
         id="text26">(G_YRFR=0.25)</text></g><g
       id="g212"><text
         font-family="Arial, Arial_MSFontService, sans-serif"
         font-style="italic"
         font-weight="700"
         font-size="28px"
         transform="translate(502.562,791)"
         id="text27">WIN </text><text
         font-family="Arial, Arial_MSFontService, sans-serif"
         font-style="italic"
         font-weight="700"
         font-size="28px"
         transform="translate(429.229,826)"
         id="text28">(G_YRFR=0.35)</text></g><g
       id="g211"><text
         font-family="Arial, Arial_MSFontService, sans-serif"
         font-style="italic"
         font-weight="700"
         font-size="28px"
         transform="translate(755.104,791)"
         id="text29">SUD </text><text
         font-family="Arial, Arial_MSFontService, sans-serif"
         font-style="italic"
         font-weight="700"
         font-size="28px"
         transform="translate(684.062,826)"
         id="text30">(G_YRFR=0.15)</text></g><g
       id="g210"><text
         font-family="Arial, Arial_MSFontService, sans-serif"
         font-style="italic"
         font-weight="700"
         font-size="28px"
         transform="translate(1026.9,791)"
         id="text31">SUN </text><text
         font-family="Arial, Arial_MSFontService, sans-serif"
         font-style="italic"
         font-weight="700"
         font-size="28px"
         transform="translate(955.854,826)"
         id="text32">(G_YRFR=0.25)</text></g><g
       id="g209"><text
         font-family="Arial, Arial_MSFontService, sans-serif"
         font-style="italic"
         font-weight="700"
         font-size="28px"
         transform="translate(986.104,318)"
         id="text33">SU</text><text
         font-family="Arial, Arial_MSFontService, sans-serif"
         font-style="italic"
         font-weight="700"
         font-size="28px"
         transform="translate(908.646,354)"
         id="text34">(G_YRFR=0.4)</text></g><text
       font-family="Arial, Arial_MSFontService, sans-serif"
       font-weight="700"
       font-size="28px"
       transform="translate(341.458,186)"
       id="text35">Given value = 1.0</text><g
       id="g208"><text
         font-family="Arial, Arial_MSFontService, sans-serif"
         font-weight="700"
         font-size="28px"
         transform="translate(481.937,400)"
         id="text36">Given</text><text
         font-family="Arial, Arial_MSFontService, sans-serif"
         font-weight="700"
         font-size="28px"
         transform="translate(481.937,435)"
         id="text37">value = none</text></g><g
       id="g207"><text
         font-family="Arial, Arial_MSFontService, sans-serif"
         font-weight="700"
         font-size="37px"
         transform="translate(200.979,421)"
         id="text38">Target</text><text
         font-family="Arial, Arial_MSFontService, sans-serif"
         font-weight="700"
         font-size="37px"
         transform="translate(200.979,463)"
         id="text39">level</text></g><g
       id="g206"><text
         font-family="Arial, Arial_MSFontService, sans-serif"
         font-weight="700"
         font-size="28px"
         transform="translate(973.271,400)"
         id="text40">Given</text><text
         font-family="Arial, Arial_MSFontService, sans-serif"
         font-weight="700"
         font-size="28px"
         transform="translate(973.271,435)"
         id="text41">value = none</text></g><g
       id="g205"><text
         font-family="Arial, Arial_MSFontService, sans-serif"
         font-weight="700"
         font-size="28px"
         transform="translate(481.937,484)"
         id="text42">Inherited</text><text
         font-family="Arial, Arial_MSFontService, sans-serif"
         font-weight="700"
         font-size="28px"
         transform="translate(481.937,519)"
         id="text43">value = 0.6</text></g><g
       id="g204"><text
         font-family="Arial, Arial_MSFontService, sans-serif"
         font-weight="700"
         font-size="28px"
         transform="translate(976.479,488)"
         id="text44">Inherited</text><text
         font-family="Arial, Arial_MSFontService, sans-serif"
         font-weight="700"
         font-size="28px"
         transform="translate(976.479,523)"
         id="text45">value = 0.4</text></g><text
       font-family="Arial, Arial_MSFontService, sans-serif"
       font-weight="700"
       font-size="41px"
       transform="translate(446.875,97)"
       id="text46">Weighted Inheritance</text><g
       id="g202"><path
         d="M 0,0 245.667,244.979"
         stroke="#000000"
         stroke-width="2.29167"
         stroke-linejoin="round"
         stroke-miterlimit="10"
         fill="none"
         fill-rule="evenodd"
         transform="matrix(-1,0,0,1,1706.67,186)"
         id="path46" /><path
         d="M 0,0 140.25,244.979"
         stroke="#000000"
         stroke-width="2.29167"
         stroke-linejoin="round"
         stroke-miterlimit="10"
         fill="none"
         fill-rule="evenodd"
         transform="matrix(-1,0,0,1,1461.25,431)"
         id="path47" /><path
         d="M 0,0 105.188,244.979"
         stroke="#000000"
         stroke-width="2.29167"
         stroke-linejoin="round"
         stroke-miterlimit="10"
         fill="none"
         fill-rule="evenodd"
         transform="matrix(-1,0,0,1,1953.19,431)"
         id="path48" /><path
         d="m 1707,186 280.96,244.979"
         stroke="#000000"
         stroke-width="2.29167"
         stroke-linejoin="round"
         stroke-miterlimit="10"
         fill="none"
         fill-rule="evenodd"
         id="path49" /><path
         d="m 1461,431 123.06,244.979"
         stroke="#000000"
         stroke-width="2.29167"
         stroke-linejoin="round"
         stroke-miterlimit="10"
         fill="none"
         fill-rule="evenodd"
         id="path50" /><path
         d="m 1953,431 158.12,244.979"
         stroke="#000000"
         stroke-width="2.29167"
         stroke-linejoin="round"
         stroke-miterlimit="10"
         fill="none"
         fill-rule="evenodd"
         id="path51" /><path
         d="m 1707,134 h -2.89 -2.54 l -2.65,0.344 -2.77,0.689 -2.43,0.344 -2.77,0.918 -2.31,0.803 -2.19,0.804 -2.54,1.032 -2.31,1.263 -2.31,1.147 -2.08,1.492 -2.08,1.492 -1.85,1.377 -2.08,1.836 -1.84,1.721 -1.73,1.836 -1.62,1.836 -1.62,2.066 -1.5,2.066 -1.5,2.065 -1.15,2.295 -1.04,2.181 -1.27,2.295 -0.81,2.295 -0.93,2.41 -0.8,2.754 -0.35,2.409 -0.69,2.755 -0.23,2.409 -0.12,2.64 v 2.983 2.64 l 0.12,2.41 0.23,2.754 0.69,2.639 0.35,2.639 0.8,2.295 0.93,2.525 0.81,2.295 1.27,2.41 1.04,2.295 1.15,2.295 1.5,2.066 1.5,1.95 1.62,1.951 1.62,2.066 1.73,1.836 1.84,1.836 2.08,1.377 1.85,1.721 2.08,1.377 2.08,1.492 2.31,1.033 2.31,1.262 2.54,1.148 2.19,0.918 2.31,0.803 2.77,0.574 2.43,0.688 2.77,0.574 2.65,0.23 2.54,0.229 2.89,0.115 2.66,-0.115 2.77,-0.229 2.42,-0.23 2.77,-0.574 2.66,-0.688 2.54,-0.574 2.42,-0.803 2.31,-0.918 2.54,-1.148 2.31,-1.262 2.08,-1.033 2.08,-1.492 2.08,-1.377 2.08,-1.721 1.84,-1.377 1.85,-1.836 1.85,-1.836 1.73,-2.066 1.39,-1.951 1.5,-1.95 1.38,-2.066 1.27,-2.295 1.27,-2.295 1.04,-2.41 0.81,-2.295 0.81,-2.525 0.92,-2.295 0.35,-2.639 0.69,-2.639 0.35,-2.754 v -2.41 l 0.23,-2.64 -0.23,-2.983 v -2.64 l -0.35,-2.409 -0.69,-2.755 -0.35,-2.409 -0.92,-2.754 -0.81,-2.41 -0.81,-2.295 -1.04,-2.295 -1.27,-2.181 -1.27,-2.295 -1.38,-2.065 -1.5,-2.066 -1.39,-2.066 -1.73,-1.836 -1.85,-1.836 -1.85,-1.721 -1.84,-1.836 -2.08,-1.377 -2.08,-1.492 -2.08,-1.492 -2.08,-1.147 -2.31,-1.263 -2.54,-1.032 -2.31,-0.804 -2.42,-0.803 -2.54,-0.918 -2.66,-0.344 -2.77,-0.689 -2.42,-0.344 h -2.77 z"
         fill="#ffffff"
         fill-rule="evenodd"
         id="path52"
         style="stroke:#000000;stroke-opacity:1;stroke-width:2;stroke-dasharray:none" /><path
         d="m 1461,379 h -2.89 l -2.54,0.229 -2.65,0.344 -2.77,0.687 -2.43,0.343 -2.54,0.916 -2.42,0.802 -2.31,0.801 -2.31,1.031 -2.54,1.259 -2.2,1.145 -2.19,1.489 -2.08,1.488 -1.85,1.375 -2.08,1.717 -1.84,1.832 -1.62,1.832 -1.73,1.832 -1.62,2.061 -1.5,2.061 -1.38,2.061 -1.04,2.062 -1.27,2.29 -1.27,2.404 -0.81,2.29 -0.81,2.405 -0.69,2.748 -0.58,2.404 -0.69,2.749 -0.12,2.404 -0.23,2.634 v 2.977 2.404 l 0.23,2.634 0.12,2.748 0.69,2.634 0.58,2.633 0.69,2.29 0.81,2.519 0.81,2.29 1.27,2.405 1.27,2.29 1.04,2.29 1.38,2.061 1.5,1.947 1.62,1.946 1.73,2.061 1.62,1.832 1.84,1.833 2.08,1.374 1.85,1.717 2.08,1.374 2.19,1.26 2.2,1.259 2.54,1.26 2.31,1.03 2.31,1.031 2.42,0.801 2.54,0.573 2.43,0.687 2.77,0.572 2.65,0.229 2.54,0.229 2.89,0.115 2.66,-0.115 2.77,-0.229 2.42,-0.229 2.77,-0.572 2.66,-0.687 2.54,-0.573 2.42,-0.801 2.31,-1.031 2.54,-1.03 2.31,-1.26 2.08,-1.259 2.08,-1.26 2.08,-1.374 2.08,-1.717 1.84,-1.374 1.85,-1.833 1.85,-1.832 1.73,-2.061 1.39,-1.946 1.5,-1.947 1.5,-2.061 1.15,-2.29 1.27,-2.29 1.04,-2.405 0.81,-2.29 0.93,-2.519 0.8,-2.29 0.35,-2.633 0.69,-2.634 0.35,-2.748 v -2.634 l 0.23,-2.404 -0.23,-2.977 v -2.634 l -0.35,-2.404 -0.69,-2.749 -0.35,-2.404 -0.8,-2.748 -0.93,-2.405 -0.81,-2.29 -1.04,-2.404 -1.27,-2.29 -1.15,-2.062 -1.5,-2.061 -1.5,-2.061 -1.39,-2.061 -1.73,-1.832 -1.85,-1.832 -1.85,-1.832 -1.84,-1.717 -2.08,-1.375 -2.08,-1.488 -2.08,-1.489 -2.08,-1.145 -2.31,-1.259 -2.54,-1.031 -2.31,-0.801 -2.42,-0.802 -2.54,-0.916 -2.66,-0.343 -2.77,-0.687 -2.42,-0.344 -2.77,-0.229 z"
         fill="#c0c0c0"
         fill-rule="evenodd"
         id="path54"
         style="stroke:#000000;stroke-opacity:1;stroke-width:2;stroke-dasharray:none" /><path
         d="m 1952.56,379 h -2.97 l -2.4,0.229 -2.74,0.344 -2.63,0.687 -2.52,0.343 -2.62,0.916 -2.29,0.802 -2.4,0.801 -2.28,1.031 -2.29,1.259 -2.28,1.145 -2.06,1.489 -2.06,1.488 -1.83,1.375 -2.05,1.832 -1.83,1.717 -1.71,1.832 -1.6,1.832 -1.72,2.061 -1.37,2.061 -1.48,2.061 -1.26,2.291 -1.14,2.175 -1.03,2.29 -0.92,2.29 -0.79,2.405 -0.8,2.748 -0.46,2.404 -0.57,2.749 -0.23,2.404 -0.23,2.634 v 2.977 2.404 l 0.23,2.634 0.23,2.748 0.57,2.634 0.46,2.633 0.8,2.29 0.79,2.519 0.92,2.29 1.03,2.405 1.14,2.29 1.26,2.29 1.48,2.061 1.37,1.947 1.72,1.946 1.6,2.061 1.71,1.832 1.83,1.833 2.05,1.374 1.83,1.717 2.06,1.374 2.06,1.26 2.28,1.259 2.29,1.26 2.28,1.03 2.4,1.031 2.29,0.801 2.62,0.573 2.52,0.687 2.63,0.572 2.74,0.229 2.4,0.229 2.97,0.115 2.62,-0.115 2.63,-0.229 2.52,-0.229 2.62,-0.572 2.75,-0.687 2.51,-0.573 2.4,-0.801 2.28,-1.031 2.52,-1.03 2.17,-1.26 2.06,-1.259 2.05,-1.26 2.06,-1.374 2.06,-1.717 1.94,-1.374 1.83,-1.833 1.82,-1.832 1.6,-2.061 1.49,-1.946 1.48,-1.947 1.37,-2.061 1.26,-2.29 1.26,-2.29 1.03,-2.405 0.8,-2.29 0.8,-2.519 0.8,-2.29 0.45,-2.633 0.57,-2.634 0.23,-2.748 0.23,-2.634 0.23,-2.404 -0.23,-2.977 -0.23,-2.634 -0.23,-2.404 -0.57,-2.749 -0.45,-2.404 -0.8,-2.748 -0.8,-2.405 -0.8,-2.29 -1.03,-2.29 -1.26,-2.175 -1.26,-2.291 -1.37,-2.061 -1.48,-2.061 -1.49,-2.061 -1.6,-1.832 -1.82,-1.832 -1.83,-1.717 -1.94,-1.832 -2.06,-1.375 -2.06,-1.488 -2.05,-1.489 -2.06,-1.145 -2.17,-1.259 -2.52,-1.031 -2.28,-0.801 -2.4,-0.802 -2.51,-0.916 -2.75,-0.343 -2.62,-0.687 -2.52,-0.344 -2.63,-0.229 z"
         fill="#c0c0c0"
         fill-rule="evenodd"
         id="path56"
         style="stroke:#000000;stroke-opacity:1;stroke-width:2;stroke-dasharray:none" /><path
         d="m 1320.56,624 h -2.85 l -2.63,0.229 -2.73,0.343 -2.4,0.687 -2.5,0.344 -2.63,0.916 -2.5,0.801 -2.28,0.802 -2.17,1.031 -2.28,1.259 -2.28,1.145 -2.05,1.489 -2.28,1.488 -1.83,1.374 -1.82,1.718 -2.05,1.603 -1.49,2.061 -1.82,1.832 -1.48,2.061 -1.37,2.061 -1.48,2.061 -1.26,2.061 -1.25,2.29 -1.03,2.405 -0.79,2.29 -1.03,2.405 -0.57,2.748 -0.68,2.404 -0.35,2.748 -0.45,2.405 -0.23,2.634 v 2.977 2.404 l 0.23,2.634 0.45,2.748 0.35,2.634 0.68,2.519 0.57,2.404 1.03,2.519 0.79,2.29 1.03,2.405 1.25,2.29 1.26,2.29 1.48,2.061 1.37,1.947 1.48,1.946 1.82,2.061 1.49,1.833 2.05,1.832 1.82,1.374 1.83,1.717 2.28,1.374 2.05,1.26 2.28,1.259 2.28,1.26 2.17,1.03 2.28,1.031 2.5,0.802 2.63,0.572 2.5,0.687 2.4,0.344 2.73,0.458 2.63,0.229 2.85,0.114 2.51,-0.114 2.62,-0.229 2.73,-0.458 2.63,-0.344 2.5,-0.687 2.51,-0.572 2.4,-0.802 2.28,-1.031 2.5,-1.03 2.17,-1.26 2.05,-1.259 2.28,-1.26 2.05,-1.374 1.83,-1.717 2.05,-1.374 1.94,-1.832 1.6,-1.833 1.59,-2.061 1.71,-1.946 1.37,-1.947 1.25,-2.061 1.26,-2.29 1.25,-2.29 1.03,-2.405 1.02,-2.29 0.8,-2.519 0.57,-2.404 0.69,-2.519 0.34,-2.634 0.45,-2.748 0.23,-2.634 0.23,-2.404 -0.23,-2.977 -0.23,-2.634 -0.45,-2.405 -0.34,-2.748 -0.69,-2.404 -0.57,-2.748 -0.8,-2.405 -1.02,-2.29 -1.03,-2.405 -1.25,-2.29 -1.26,-2.061 -1.25,-2.061 -1.37,-2.061 -1.71,-2.061 -1.59,-1.832 -1.6,-2.061 -1.94,-1.603 -2.05,-1.718 -1.83,-1.374 -2.05,-1.488 -2.28,-1.489 -2.05,-1.145 -2.17,-1.259 -2.5,-1.031 -2.28,-0.802 -2.4,-0.801 -2.51,-0.916 -2.5,-0.344 -2.63,-0.687 -2.73,-0.343 -2.62,-0.229 z"
         fill="#ffffff"
         fill-rule="evenodd"
         id="path58"
         style="stroke:#000000;stroke-opacity:1;stroke-width:2;stroke-dasharray:none" /><path
         d="m 1584.06,624 h -2.88 l -2.65,0.229 -2.76,0.343 -2.42,0.687 -2.53,0.344 -2.65,0.916 -2.53,0.801 -2.3,0.802 -2.3,1.031 -2.19,1.259 -2.3,1.145 -2.07,1.489 -2.3,1.488 -1.84,1.374 -1.85,1.832 -2.07,1.489 -1.49,2.061 -1.85,1.832 -1.49,2.061 -1.38,2.061 -1.5,2.061 -1.26,2.29 -1.27,2.176 -1.04,2.29 -0.8,2.29 -1.04,2.405 -0.57,2.748 -0.69,2.404 -0.35,2.748 -0.46,2.405 -0.23,2.634 v 2.977 2.404 l 0.23,2.634 0.46,2.748 0.35,2.634 0.69,2.519 0.57,2.404 1.04,2.519 0.8,2.29 1.04,2.405 1.27,2.29 1.26,2.29 1.5,2.061 1.38,1.947 1.49,1.946 1.85,2.061 1.49,1.833 2.07,1.832 1.85,1.374 1.84,1.717 2.3,1.374 2.07,1.26 2.3,1.259 2.19,1.26 2.3,1.03 2.3,1.031 2.53,0.802 2.65,0.572 2.53,0.687 2.42,0.344 2.76,0.458 2.65,0.229 2.88,0.114 2.53,-0.114 2.65,-0.229 2.76,-0.458 2.65,-0.344 2.53,-0.687 2.42,-0.572 2.53,-0.802 2.3,-1.031 2.42,-1.03 2.3,-1.26 2.07,-1.259 2.3,-1.26 2.07,-1.374 1.84,-1.717 2.08,-1.374 1.84,-1.832 1.72,-1.833 1.62,-2.061 1.72,-1.946 1.38,-1.947 1.27,-2.061 1.26,-2.29 1.27,-2.29 1.04,-2.405 1.03,-2.29 0.81,-2.519 0.57,-2.404 0.69,-2.519 0.35,-2.634 0.46,-2.748 0.23,-2.634 0.23,-2.404 -0.23,-2.977 -0.23,-2.634 -0.46,-2.405 -0.35,-2.748 -0.69,-2.404 -0.57,-2.748 -0.81,-2.405 -1.03,-2.29 -1.04,-2.29 -1.27,-2.176 -1.26,-2.29 -1.27,-2.061 -1.38,-2.061 -1.72,-2.061 -1.62,-1.832 -1.72,-2.061 -1.84,-1.489 -2.08,-1.832 -1.84,-1.374 -2.07,-1.488 -2.3,-1.489 -2.07,-1.145 -2.3,-1.259 -2.42,-1.031 -2.3,-0.802 -2.53,-0.801 -2.42,-0.916 -2.53,-0.344 -2.65,-0.687 -2.76,-0.343 -2.65,-0.229 z"
         fill="#ffffff"
         fill-rule="evenodd"
         id="path60"
         style="stroke:#000000;stroke-opacity:1;stroke-width:2;stroke-dasharray:none" /><path
         d="m 1847.61,624 h -2.85 l -2.62,0.229 -2.74,0.343 -2.4,0.687 -2.51,0.344 -2.63,0.916 -2.51,0.801 -2.28,0.802 -2.28,1.031 -2.17,1.259 -2.28,1.145 -2.06,1.489 -2.28,1.488 -1.83,1.374 -1.94,1.832 -2.05,1.489 -1.37,2.061 -1.83,1.832 -1.48,2.061 -1.48,2.061 -1.37,2.061 -1.26,2.29 -1.25,2.176 -1.03,2.29 -0.8,2.29 -1.03,2.405 -0.57,2.748 -0.68,2.404 -0.35,2.748 -0.45,2.405 -0.23,2.634 v 2.977 2.404 l 0.23,2.634 0.45,2.748 0.35,2.634 0.68,2.519 0.57,2.404 1.03,2.519 0.8,2.29 1.03,2.405 1.25,2.29 1.26,2.29 1.37,2.061 1.48,1.947 1.48,1.946 1.83,2.061 1.37,1.833 2.05,1.832 1.94,1.374 1.83,1.717 2.28,1.374 2.06,1.26 2.28,1.259 2.17,1.26 2.28,1.03 2.28,1.031 2.51,0.802 2.63,0.572 2.51,0.687 2.4,0.344 2.74,0.458 2.62,0.229 2.85,0.114 2.51,-0.114 2.63,-0.229 2.74,-0.458 2.62,-0.344 2.51,-0.687 2.4,-0.572 2.51,-0.802 2.29,-1.031 2.39,-1.03 2.28,-1.26 2.06,-1.259 2.28,-1.26 2.06,-1.374 1.82,-1.717 2.06,-1.374 1.82,-1.832 1.71,-1.833 1.6,-2.061 1.71,-1.946 1.37,-1.947 1.26,-2.061 1.25,-2.29 1.26,-2.29 1.03,-2.405 1.02,-2.29 0.8,-2.519 0.57,-2.404 0.69,-2.519 0.34,-2.634 0.46,-2.748 0.23,-2.634 0.11,-2.404 -0.11,-2.977 -0.23,-2.634 -0.46,-2.405 -0.34,-2.748 -0.69,-2.404 -0.57,-2.748 -0.8,-2.405 -1.02,-2.29 -1.03,-2.29 -1.26,-2.176 -1.25,-2.29 -1.26,-2.061 -1.37,-2.061 -1.71,-2.061 -1.6,-1.832 -1.71,-2.061 -1.82,-1.489 -2.06,-1.832 -1.82,-1.374 -2.06,-1.488 -2.28,-1.489 -2.06,-1.145 -2.28,-1.259 -2.39,-1.031 -2.29,-0.802 -2.51,-0.801 -2.4,-0.916 -2.51,-0.344 -2.62,-0.687 -2.74,-0.343 -2.63,-0.229 z"
         fill="#ffffff"
         fill-rule="evenodd"
         id="path62"
         style="stroke:#000000;stroke-opacity:1;stroke-width:2;stroke-dasharray:none" /><path
         d="m 2110.61,624 h -2.85 l -2.74,0.229 -2.62,0.343 -2.51,0.687 -2.4,0.344 -2.74,0.916 -2.4,0.801 -2.28,0.802 -2.28,1.031 -2.28,1.259 -2.17,1.145 -2.06,1.489 -2.28,1.488 -1.83,1.374 -1.94,1.832 -2.05,1.489 -1.37,2.061 -1.83,1.832 -1.48,2.061 -1.48,2.061 -1.37,2.061 -1.26,2.29 -1.25,2.176 -1.03,2.29 -0.8,2.29 -1.03,2.405 -0.68,2.748 -0.34,2.404 -0.69,2.748 -0.34,2.405 -0.23,2.634 v 2.977 2.404 l 0.23,2.634 0.34,2.748 0.69,2.634 0.34,2.519 0.68,2.404 1.03,2.519 0.8,2.29 1.03,2.405 1.25,2.29 1.26,2.29 1.37,2.061 1.48,1.947 1.48,1.946 1.83,2.061 1.37,1.833 2.05,1.832 1.94,1.374 1.83,1.717 2.28,1.374 2.06,1.26 2.17,1.259 2.28,1.26 2.28,1.03 2.28,1.031 2.4,0.802 2.74,0.572 2.4,0.687 2.51,0.344 2.62,0.458 2.74,0.229 2.85,0.114 2.51,-0.114 2.63,-0.229 2.74,-0.458 2.62,-0.344 2.51,-0.687 2.4,-0.572 2.51,-0.802 2.29,-1.031 2.39,-1.03 2.28,-1.26 2.06,-1.259 2.28,-1.26 2.06,-1.374 1.82,-1.717 2.06,-1.374 1.82,-1.832 1.71,-1.833 1.6,-2.061 1.6,-1.946 1.48,-1.947 1.26,-2.061 1.25,-2.29 1.15,-2.29 1.02,-2.405 1.03,-2.29 0.91,-2.519 0.57,-2.404 0.69,-2.519 0.34,-2.634 0.46,-2.748 0.23,-2.634 0.11,-2.404 -0.11,-2.977 -0.23,-2.634 -0.46,-2.405 -0.34,-2.748 -0.69,-2.404 -0.57,-2.748 -0.91,-2.405 -1.03,-2.29 -1.02,-2.29 -1.15,-2.176 -1.25,-2.29 -1.26,-2.061 -1.48,-2.061 -1.6,-2.061 -1.6,-1.832 -1.71,-2.061 -1.82,-1.489 -2.06,-1.832 -1.82,-1.374 -2.06,-1.488 -2.28,-1.489 -2.06,-1.145 -2.28,-1.259 -2.39,-1.031 -2.29,-0.802 -2.51,-0.801 -2.4,-0.916 -2.51,-0.344 -2.62,-0.687 -2.74,-0.343 -2.63,-0.229 z"
         fill="#ffffff"
         fill-rule="evenodd"
         id="path64"
         style="stroke:#000000;stroke-opacity:1;stroke-width:2;stroke-dasharray:none" /></g><g
       id="g227"><text
         font-family="Arial, Arial_MSFontService, sans-serif"
         font-style="italic"
         font-weight="700"
         font-size="28px"
         transform="translate(1816.6,178)"
         id="text65">ANNUAL</text><text
         font-family="Arial, Arial_MSFontService, sans-serif"
         font-style="italic"
         font-weight="700"
         font-size="28px"
         transform="translate(1780.85,214)"
         id="text66">(G_YRFR=1.0)</text></g><g
       id="g226"><text
         font-family="Arial, Arial_MSFontService, sans-serif"
         font-style="italic"
         font-weight="700"
         font-size="28px"
         transform="translate(1321.83,318)"
         id="text67">WI</text><text
         font-family="Arial, Arial_MSFontService, sans-serif"
         font-style="italic"
         font-weight="700"
         font-size="28px"
         transform="translate(1242.08,354)"
         id="text68">(G_YRFR=0.6)</text></g><g
       id="g225"><text
         font-family="Arial, Arial_MSFontService, sans-serif"
         font-style="italic"
         font-weight="700"
         font-size="28px"
         transform="translate(1292.27,791)"
         id="text69">WID </text><text
         font-family="Arial, Arial_MSFontService, sans-serif"
         font-style="italic"
         font-weight="700"
         font-size="28px"
         transform="translate(1219.17,826)"
         id="text70">(G_YRFR=0.25)</text></g><g
       id="g224"><text
         font-family="Arial, Arial_MSFontService, sans-serif"
         font-style="italic"
         font-weight="700"
         font-size="28px"
         transform="translate(1555.58,791)"
         id="text71">WIN </text><text
         font-family="Arial, Arial_MSFontService, sans-serif"
         font-style="italic"
         font-weight="700"
         font-size="28px"
         transform="translate(1482.48,826)"
         id="text72">(G_YRFR=0.35)</text></g><g
       id="g223"><text
         font-family="Arial, Arial_MSFontService, sans-serif"
         font-style="italic"
         font-weight="700"
         font-size="28px"
         transform="translate(1808.35,791)"
         id="text73">SUD </text><text
         font-family="Arial, Arial_MSFontService, sans-serif"
         font-style="italic"
         font-weight="700"
         font-size="28px"
         transform="translate(1737.31,826)"
         id="text74">(G_YRFR=0.15)</text></g><g
       id="g222"><text
         font-family="Arial, Arial_MSFontService, sans-serif"
         font-style="italic"
         font-weight="700"
         font-size="28px"
         transform="translate(2079.92,791)"
         id="text75">SUN </text><text
         font-family="Arial, Arial_MSFontService, sans-serif"
         font-style="italic"
         font-weight="700"
         font-size="28px"
         transform="translate(2009.1,826)"
         id="text76">(G_YRFR=0.25)</text></g><g
       id="g221"><text
         font-family="Arial, Arial_MSFontService, sans-serif"
         font-style="italic"
         font-weight="700"
         font-size="28px"
         transform="translate(2039.35,318)"
         id="text77">SU</text><text
         font-family="Arial, Arial_MSFontService, sans-serif"
         font-style="italic"
         font-weight="700"
         font-size="28px"
         transform="translate(1961.67,354)"
         id="text78">(G_YRFR=0.4)</text></g><text
       font-family="Arial, Arial_MSFontService, sans-serif"
       font-weight="700"
       font-size="28px"
       transform="translate(1394.71,186)"
       id="text79">Given value = 1.0</text><g
       id="g220"><text
         font-family="Arial, Arial_MSFontService, sans-serif"
         font-weight="700"
         font-size="28px"
         transform="translate(1534.96,400)"
         id="text80">Given</text><text
         font-family="Arial, Arial_MSFontService, sans-serif"
         font-weight="700"
         font-size="28px"
         transform="translate(1534.96,435)"
         id="text81">value = none</text></g><g
       id="g219"><text
         font-family="Arial, Arial_MSFontService, sans-serif"
         font-weight="700"
         font-size="37px"
         transform="translate(1254.23,421)"
         id="text82">Target</text><text
         font-family="Arial, Arial_MSFontService, sans-serif"
         font-weight="700"
         font-size="37px"
         transform="translate(1254.23,463)"
         id="text83">level</text></g><g
       id="g218"><text
         font-family="Arial, Arial_MSFontService, sans-serif"
         font-weight="700"
         font-size="28px"
         transform="translate(2026.52,400)"
         id="text84">Given</text><text
         font-family="Arial, Arial_MSFontService, sans-serif"
         font-weight="700"
         font-size="28px"
         transform="translate(2026.52,435)"
         id="text85">value = none</text></g><g
       id="g217"><text
         font-family="Arial, Arial_MSFontService, sans-serif"
         font-weight="700"
         font-size="28px"
         transform="translate(1534.96,484)"
         id="text86">Inherited</text><text
         font-family="Arial, Arial_MSFontService, sans-serif"
         font-weight="700"
         font-size="28px"
         transform="translate(1534.96,519)"
         id="text87">value = 1.0</text></g><g
       id="g216"><text
         font-family="Arial, Arial_MSFontService, sans-serif"
         font-weight="700"
         font-size="28px"
         transform="translate(2029.73,488)"
         id="text88">Inherited</text><text
         font-family="Arial, Arial_MSFontService, sans-serif"
         font-weight="700"
         font-size="28px"
         transform="translate(2029.73,523)"
         id="text89">value = 1.0</text></g><text
       font-family="Arial, Arial_MSFontService, sans-serif"
       font-weight="700"
       font-size="41px"
       transform="translate(1534.04,97)"
       id="text90">Direct Inheritance</text><path
       d="m 601,357.614 h 26.164 V 266 h 52.672 v 91.614 H 706 L 653.443,388 Z"
       fill-rule="evenodd"
       id="path90" /><path
       d="m 1654,357.614 h 26.33 V 266 h 53.23 v 91.614 H 1760 L 1707,388 Z"
       fill-rule="evenodd"
       id="path92" /><g
       id="g201"><path
         d="M 0,0 245.896,244.979"
         stroke="#000000"
         stroke-width="2.29167"
         stroke-linejoin="round"
         stroke-miterlimit="10"
         fill="none"
         fill-rule="evenodd"
         transform="matrix(-1,0,0,1,653.896,1048)"
         id="path94" /><path
         d="M 0,0 140.479,244.75"
         stroke="#000000"
         stroke-width="2.29167"
         stroke-linejoin="round"
         stroke-miterlimit="10"
         fill="none"
         fill-rule="evenodd"
         transform="matrix(-1,0,0,1,407.479,1293)"
         id="path95" /><path
         d="M 0,0 105.188,244.75"
         stroke="#000000"
         stroke-width="2.29167"
         stroke-linejoin="round"
         stroke-miterlimit="10"
         fill="none"
         fill-rule="evenodd"
         transform="matrix(-1,0,0,1,899.188,1293)"
         id="path96" /><path
         d="m 654,1048 280.729,244.98"
         stroke="#000000"
         stroke-width="2.29167"
         stroke-linejoin="round"
         stroke-miterlimit="10"
         fill="none"
         fill-rule="evenodd"
         id="path97" /><path
         d="m 408,1293 122.833,244.75"
         stroke="#000000"
         stroke-width="2.29167"
         stroke-linejoin="round"
         stroke-miterlimit="10"
         fill="none"
         fill-rule="evenodd"
         id="path98" /><path
         d="m 899,1293 158.12,244.75"
         stroke="#000000"
         stroke-width="2.29167"
         stroke-linejoin="round"
         stroke-miterlimit="10"
         fill="none"
         fill-rule="evenodd"
         id="path99" /><path
         d="m 653.443,995 -2.857,0.229 -2.513,0.115 -2.628,0.458 -2.628,0.458 -2.513,0.572 -2.628,0.573 -2.514,1.03 -2.285,0.916 -2.285,1.029 -2.171,1.15 -2.285,1.26 -2.057,1.48 -2.056,1.15 -2.057,1.72 -1.828,1.6 -1.942,1.6 -1.828,2.06 -1.371,1.95 -1.714,1.83 -1.371,2.06 -1.486,2.18 -1.256,2.06 -1.257,2.29 -1.028,2.52 -0.8,2.18 -0.8,2.51 -0.8,2.52 -0.457,2.41 -0.571,2.63 -0.229,2.75 -0.228,2.63 v 2.52 2.87 l 0.228,2.63 0.229,2.63 0.571,2.52 0.457,2.52 0.8,2.63 0.8,2.41 0.8,2.29 1.028,2.29 1.257,2.29 1.256,2.17 1.486,2.07 1.371,2.29 1.714,1.83 1.371,1.83 1.828,2.06 1.942,1.49 1.828,1.83 2.057,1.49 2.056,1.37 2.057,1.49 2.285,1.26 2.171,1.15 2.285,1.03 2.285,0.8 2.514,0.92 2.628,0.8 2.513,0.34 2.628,0.69 2.628,0.34 2.513,0.23 h 2.857 2.742 l 2.399,-0.23 2.742,-0.34 2.628,-0.69 2.742,-0.34 2.4,-0.8 2.513,-0.92 2.285,-0.8 2.4,-1.03 2.285,-1.15 2.056,-1.26 2.057,-1.49 2.057,-1.37 2.056,-1.49 1.828,-1.83 1.828,-1.49 1.943,-2.06 1.371,-1.83 1.714,-1.83 1.371,-2.29 1.485,-2.07 1.257,-2.17 1.142,-2.29 1.029,-2.29 0.914,-2.29 0.799,-2.41 0.8,-2.63 0.457,-2.52 0.572,-2.52 0.228,-2.63 0.229,-2.63 0.228,-2.87 -0.228,-2.52 -0.229,-2.63 -0.228,-2.75 -0.572,-2.63 -0.457,-2.41 -0.8,-2.52 -0.799,-2.51 -0.914,-2.18 -1.029,-2.52 -1.142,-2.29 -1.257,-2.06 -1.485,-2.18 -1.371,-2.06 -1.714,-1.83 -1.371,-1.95 -1.943,-2.06 -1.828,-1.6 -1.828,-1.6 -2.056,-1.72 -2.057,-1.15 -2.057,-1.48 -2.056,-1.26 -2.285,-1.15 -2.4,-1.029 -2.285,-0.916 -2.513,-1.03 -2.4,-0.573 -2.742,-0.572 -2.628,-0.458 -2.742,-0.458 -2.399,-0.115 z"
         fill="#ffffff"
         fill-rule="evenodd"
         id="path100"
         style="stroke:#000000;stroke-opacity:1;stroke-width:2;stroke-dasharray:none" /><path
         d="m 407.942,1240 -2.883,0.23 h -2.422 l -2.769,0.34 -2.653,0.46 -2.537,0.58 -2.653,0.8 -2.307,0.92 -2.537,0.8 -2.192,1.03 -2.307,1.27 -2.307,1.14 -2.076,1.5 -2.076,1.37 -1.845,1.49 -2.077,1.61 -1.845,1.84 -1.961,1.95 -1.384,1.83 -1.73,2.07 -1.384,2.07 -1.5,2.06 -1.268,2.07 -1.269,2.18 -1.038,2.52 -0.808,2.3 -0.807,2.41 -0.807,2.52 -0.462,2.64 -0.577,2.64 -0.23,2.52 -0.231,2.64 v 2.76 2.64 l 0.231,2.64 0.23,2.75 0.577,2.64 0.462,2.52 0.807,2.41 0.807,2.53 0.808,2.18 1.038,2.29 1.269,2.3 1.268,2.29 1.5,2.18 1.384,2.07 1.73,1.84 1.384,2.06 1.961,1.95 1.845,1.61 2.077,1.61 1.845,1.72 2.076,1.37 2.076,1.27 2.307,1.26 2.307,1.26 2.192,0.92 2.537,1.03 2.307,0.92 2.653,0.57 2.537,0.58 2.653,0.46 2.769,0.46 2.422,0.11 h 2.883 2.769 l 2.652,-0.11 2.538,-0.46 2.653,-0.46 2.768,-0.58 2.422,-0.57 2.538,-0.92 2.307,-1.03 2.422,-0.92 2.307,-1.26 2.076,-1.26 2.076,-1.27 2.076,-1.37 2.076,-1.72 1.846,-1.61 1.961,-1.61 1.845,-1.95 1.615,-2.06 1.499,-1.84 1.385,-2.07 1.499,-2.18 1.269,-2.29 1.269,-2.3 1.038,-2.29 0.807,-2.18 0.807,-2.53 0.808,-2.41 0.461,-2.52 0.577,-2.64 0.461,-2.75 v -2.64 l 0.231,-2.64 -0.231,-2.76 v -2.64 l -0.461,-2.52 -0.577,-2.64 -0.461,-2.64 -0.808,-2.52 -0.807,-2.41 -0.807,-2.3 -1.038,-2.52 -1.269,-2.18 -1.269,-2.07 -1.499,-2.06 -1.385,-2.07 -1.499,-2.07 -1.615,-1.83 -1.845,-1.95 -1.961,-1.84 -1.846,-1.61 -2.076,-1.49 -2.076,-1.37 -2.076,-1.5 -2.076,-1.14 -2.307,-1.27 -2.422,-1.03 -2.307,-0.8 -2.538,-0.92 -2.422,-0.8 -2.768,-0.58 -2.653,-0.46 -2.538,-0.34 h -2.652 z"
         fill="#c0c0c0"
         fill-rule="evenodd"
         id="path102"
         style="stroke:#000000;stroke-opacity:1;stroke-width:2;stroke-dasharray:none" /><path
         d="m 899.5,1240 h -2.86 -2.516 l -2.631,0.34 -2.745,0.69 -2.402,0.35 -2.745,0.8 -2.402,0.92 -2.287,0.8 -2.288,1.03 -2.287,1.27 -2.174,1.14 -2.058,1.5 -2.059,1.37 -2.059,1.49 -1.945,1.61 -1.83,1.84 -1.601,1.95 -1.716,1.83 -1.601,2.07 -1.487,2.07 -1.372,2.06 -1.259,2.07 -1.258,2.18 -1.029,2.52 -0.801,2.3 -0.8,2.41 -0.915,2.75 -0.344,2.41 -0.686,2.64 -0.114,2.52 -0.229,2.64 v 2.87 2.53 l 0.229,2.64 0.114,2.75 0.686,2.64 0.344,2.52 0.915,2.41 0.8,2.53 0.801,2.18 1.029,2.52 1.258,2.3 1.259,2.06 1.372,2.18 1.487,2.07 1.601,1.84 1.716,2.06 1.601,1.95 1.83,1.61 1.945,1.61 2.059,1.72 2.059,1.37 2.058,1.27 2.174,1.26 2.287,1.26 2.288,0.92 2.287,1.03 2.402,0.92 2.745,0.57 2.402,0.58 2.745,0.46 2.631,0.46 2.516,0.11 2.86,0.23 2.745,-0.23 2.402,-0.11 2.745,-0.46 2.631,-0.46 2.631,-0.58 2.516,-0.57 2.516,-0.92 2.173,-1.03 2.517,-0.92 2.287,-1.26 2.059,-1.26 2.059,-1.27 2.059,-1.37 2.059,-1.72 1.83,-1.61 1.83,-1.61 1.83,-1.95 1.487,-2.06 1.601,-1.84 1.487,-2.07 1.487,-2.18 1.144,-2.06 1.258,-2.3 1.029,-2.52 0.915,-2.18 0.801,-2.53 0.801,-2.41 0.457,-2.52 0.572,-2.64 0.229,-2.75 0.228,-2.64 0.115,-2.53 -0.115,-2.87 -0.228,-2.64 -0.229,-2.52 -0.572,-2.64 -0.457,-2.41 -0.801,-2.75 -0.801,-2.41 -0.915,-2.3 -1.029,-2.52 -1.258,-2.18 -1.144,-2.07 -1.487,-2.06 -1.487,-2.07 -1.601,-2.07 -1.487,-1.83 -1.83,-1.95 -1.83,-1.84 -1.83,-1.61 -2.059,-1.49 -2.059,-1.37 -2.059,-1.5 -2.059,-1.14 -2.287,-1.27 -2.517,-1.03 -2.173,-0.8 -2.516,-0.92 -2.516,-0.8 -2.631,-0.35 -2.631,-0.69 -2.745,-0.34 h -2.402 z"
         fill="#c0c0c0"
         fill-rule="evenodd"
         id="path104"
         style="stroke:#000000;stroke-opacity:1;stroke-width:2;stroke-dasharray:none" /><path
         d="m 267.386,1485 -2.625,0.23 -2.739,0.23 -2.625,0.11 -2.511,0.46 -2.397,0.8 -2.739,0.69 -2.397,0.8 -2.282,0.81 -2.511,1.26 -2.055,1.26 -2.282,0.92 -2.055,1.49 -2.168,1.49 -1.94,1.6 -1.826,1.49 -2.055,1.83 -1.598,1.84 -1.712,2.06 -1.597,1.84 -1.256,2.06 -1.369,2.06 -1.256,2.3 -1.255,2.17 -1.027,2.53 -0.799,2.29 -1.028,2.18 -0.684,2.52 -0.571,2.63 -0.457,2.76 -0.342,2.63 -0.228,2.41 v 2.75 2.87 l 0.228,2.63 0.342,2.52 0.457,2.64 0.571,2.52 0.684,2.64 1.028,2.52 0.799,2.18 1.027,2.29 1.255,2.29 1.256,2.3 1.369,2.06 1.256,1.95 1.597,2.06 1.712,1.95 1.598,1.83 2.055,1.61 1.826,1.6 1.94,1.72 2.168,1.38 2.055,1.49 2.282,1.26 2.055,1.26 2.511,0.92 2.282,0.91 2.397,0.81 2.739,0.8 2.397,0.46 2.511,0.57 2.625,0.23 2.739,0.23 h 2.625 2.739 l 2.625,-0.23 2.625,-0.23 2.739,-0.57 2.397,-0.46 2.511,-0.8 2.511,-0.81 2.168,-0.91 2.511,-0.92 2.283,-1.26 2.054,-1.26 2.283,-1.49 2.054,-1.38 1.826,-1.72 1.826,-1.6 2.054,-1.61 1.598,-1.83 1.712,-1.95 1.598,-2.06 1.255,-1.95 1.484,-2.06 1.141,-2.3 1.256,-2.29 1.027,-2.29 1.027,-2.18 0.913,-2.52 0.571,-2.64 0.571,-2.52 0.456,-2.64 0.457,-2.52 0.114,-2.63 0.228,-2.87 -0.228,-2.75 -0.114,-2.41 -0.457,-2.63 -0.456,-2.76 -0.571,-2.63 -0.571,-2.52 -0.913,-2.18 -1.027,-2.29 -1.027,-2.53 -1.256,-2.17 -1.141,-2.3 -1.484,-2.06 -1.255,-2.06 -1.598,-1.84 -1.712,-2.06 -1.598,-1.84 -2.054,-1.83 -1.826,-1.49 -1.826,-1.6 -2.054,-1.49 -2.283,-1.49 -2.054,-0.92 -2.283,-1.26 -2.511,-1.26 -2.168,-0.81 -2.511,-0.8 -2.511,-0.69 -2.397,-0.8 -2.739,-0.46 -2.625,-0.11 -2.625,-0.23 z"
         fill="#ffffff"
         fill-rule="evenodd"
         id="path106"
         style="stroke:#000000;stroke-opacity:1;stroke-width:2;stroke-dasharray:none" /><path
         d="m 530.885,1485 -2.65,0.23 -2.765,0.23 -2.65,0.11 -2.535,0.46 -2.42,0.8 -2.765,0.69 -2.419,0.8 -2.305,0.81 -2.535,1.26 -2.073,1.26 -2.305,0.92 -2.074,1.49 -2.304,1.49 -1.844,1.6 -1.843,1.49 -2.074,1.83 -1.613,1.84 -1.728,2.06 -1.613,1.84 -1.268,2.06 -1.498,2.06 -1.152,2.3 -1.267,2.17 -1.037,2.53 -0.807,2.29 -1.036,2.18 -0.692,2.52 -0.576,2.63 -0.461,2.76 -0.345,2.63 -0.231,2.41 v 2.75 2.87 l 0.231,2.63 0.345,2.52 0.461,2.64 0.576,2.52 0.692,2.64 1.036,2.52 0.807,2.18 1.037,2.29 1.267,2.29 1.152,2.3 1.498,2.06 1.268,1.95 1.613,2.06 1.728,1.95 1.613,1.83 2.074,1.61 1.843,1.6 1.844,1.72 2.304,1.38 2.074,1.49 2.305,1.26 2.073,1.26 2.535,0.92 2.305,0.91 2.419,0.81 2.765,0.8 2.42,0.46 2.535,0.57 2.65,0.23 2.765,0.23 h 2.65 2.65 l 2.765,-0.23 2.65,-0.23 2.765,-0.57 2.42,-0.46 2.535,-0.8 2.419,-0.81 2.305,-0.91 2.534,-0.92 2.305,-1.26 2.074,-1.26 2.304,-1.49 2.074,-1.38 1.843,-1.72 1.844,-1.6 2.074,-1.61 1.613,-1.83 1.728,-1.95 1.613,-2.06 1.267,-1.95 1.498,-2.06 1.152,-2.3 1.268,-2.29 1.037,-2.29 1.037,-2.18 0.806,-2.52 0.692,-2.64 0.576,-2.52 0.46,-2.64 0.346,-2.52 0.231,-2.63 0.23,-2.87 -0.23,-2.75 -0.231,-2.41 -0.346,-2.63 -0.46,-2.76 -0.576,-2.63 -0.692,-2.52 -0.806,-2.18 -1.037,-2.29 -1.037,-2.53 -1.268,-2.17 -1.152,-2.3 -1.498,-2.06 -1.267,-2.06 -1.613,-1.84 -1.728,-2.06 -1.613,-1.84 -2.074,-1.83 -1.844,-1.49 -1.843,-1.6 -2.074,-1.49 -2.304,-1.49 -2.074,-0.92 -2.305,-1.26 -2.534,-1.26 -2.305,-0.81 -2.419,-0.8 -2.535,-0.69 -2.42,-0.8 -2.765,-0.46 -2.65,-0.11 -2.765,-0.23 z"
         fill="#ffffff"
         fill-rule="evenodd"
         id="path108"
         style="stroke:#000000;stroke-opacity:1;stroke-width:2;stroke-dasharray:none" /><path
         d="m 794.115,1485 -2.995,0.23 -2.65,0.23 -2.65,0.11 -2.535,0.46 -2.535,0.8 -2.65,0.69 -2.535,0.8 -2.189,0.81 -2.535,1.26 -2.074,1.26 -2.304,0.92 -2.074,1.49 -2.304,1.49 -1.844,1.6 -1.843,1.49 -2.074,1.83 -1.613,1.84 -1.728,2.06 -1.613,1.84 -1.268,2.06 -1.498,2.06 -1.267,2.3 -1.152,2.17 -1.037,2.53 -0.922,2.29 -1.037,2.18 -0.576,2.52 -0.576,2.63 -0.461,2.76 -0.461,2.63 -0.115,2.41 v 2.75 2.87 l 0.115,2.63 0.461,2.52 0.461,2.64 0.576,2.52 0.576,2.64 1.037,2.52 0.922,2.18 1.037,2.29 1.152,2.29 1.267,2.3 1.498,2.06 1.268,1.95 1.613,2.06 1.728,1.95 1.613,1.83 2.074,1.61 1.843,1.6 1.844,1.72 2.304,1.38 2.074,1.49 2.304,1.26 2.074,1.26 2.535,0.92 2.189,0.91 2.535,0.81 2.65,0.8 2.535,0.46 2.535,0.57 2.65,0.23 2.65,0.23 h 2.995 2.42 l 2.765,-0.23 2.65,-0.23 2.765,-0.57 2.42,-0.46 2.535,-0.8 2.419,-0.81 2.304,-0.91 2.535,-0.92 2.305,-1.26 2.074,-1.26 2.189,-1.49 2.074,-1.38 1.958,-1.72 1.844,-1.6 2.074,-1.61 1.613,-1.83 1.728,-1.95 1.613,-2.06 1.267,-1.95 1.383,-2.06 1.267,-2.3 1.268,-2.29 1.037,-2.29 1.037,-2.18 0.806,-2.52 0.691,-2.64 0.577,-2.52 0.46,-2.64 0.346,-2.52 0.231,-2.63 0.23,-2.87 -0.23,-2.75 -0.231,-2.41 -0.346,-2.63 -0.46,-2.76 -0.577,-2.63 -0.691,-2.52 -0.806,-2.18 -1.037,-2.29 -1.037,-2.53 -1.268,-2.17 -1.267,-2.3 -1.383,-2.06 -1.267,-2.06 -1.613,-1.84 -1.728,-2.06 -1.613,-1.84 -2.074,-1.83 -1.844,-1.49 -1.958,-1.6 -2.074,-1.49 -2.189,-1.49 -2.074,-0.92 -2.305,-1.26 -2.535,-1.26 -2.304,-0.81 -2.419,-0.8 -2.535,-0.69 -2.42,-0.8 -2.765,-0.46 -2.65,-0.11 -2.765,-0.23 z"
         fill="#ffffff"
         fill-rule="evenodd"
         id="path110"
         style="stroke:#000000;stroke-opacity:1;stroke-width:2;stroke-dasharray:none" /><path
         d="m 1057.61,1485 h -2.96 l -2.63,0.23 -2.62,0.11 -2.51,0.69 -2.51,0.58 -2.63,0.69 -2.51,0.8 -2.28,0.8 -2.17,1.26 -2.28,1.27 -2.29,0.91 -2.05,1.5 -2.28,1.49 -1.83,1.6 -1.83,1.5 -2.05,1.83 -1.48,1.84 -1.83,2.06 -1.48,1.84 -1.37,2.07 -1.49,2.06 -1.25,2.3 -1.14,2.18 -1.03,2.52 -0.91,2.3 -1.03,2.18 -0.57,2.75 -0.57,2.41 -0.46,2.75 -0.46,2.64 -0.11,2.41 v 2.99 2.64 l 0.11,2.64 0.46,2.52 0.46,2.64 0.57,2.75 0.57,2.41 1.03,2.53 0.91,2.18 1.03,2.52 1.14,2.3 1.25,2.06 1.49,2.07 1.37,1.95 1.48,2.07 1.83,1.95 1.48,1.83 2.05,1.84 1.83,1.38 1.83,1.72 2.28,1.37 2.05,1.5 2.29,1.26 2.28,1.26 2.17,0.92 2.28,0.92 2.51,0.8 2.63,0.8 2.51,0.46 2.51,0.58 2.62,0.23 2.63,0.23 2.96,0.11 2.4,-0.11 2.74,-0.23 2.63,-0.23 2.62,-0.58 2.51,-0.46 2.51,-0.8 2.4,-0.8 2.28,-0.92 2.51,-0.92 2.17,-1.26 2.05,-1.26 2.29,-1.5 2.05,-1.37 1.83,-1.72 2.17,-1.38 1.82,-1.84 1.6,-1.83 1.71,-1.95 1.6,-2.07 1.26,-1.95 1.36,-2.07 1.26,-2.06 1.26,-2.3 1.02,-2.52 1.03,-2.18 0.8,-2.53 0.68,-2.41 0.57,-2.75 0.46,-2.64 0.34,-2.52 0.23,-2.64 0.23,-2.64 -0.23,-2.99 -0.23,-2.41 -0.34,-2.64 -0.46,-2.75 -0.57,-2.41 -0.68,-2.75 -0.8,-2.18 -1.03,-2.3 -1.02,-2.52 -1.26,-2.18 -1.26,-2.3 -1.36,-2.06 -1.26,-2.07 -1.6,-1.84 -1.71,-2.06 -1.6,-1.84 -1.82,-1.83 -2.17,-1.5 -1.83,-1.6 -2.05,-1.49 -2.29,-1.5 -2.05,-0.91 -2.17,-1.27 -2.51,-1.26 -2.28,-0.8 -2.4,-0.8 -2.51,-0.69 -2.51,-0.58 -2.62,-0.69 -2.63,-0.11 -2.74,-0.23 z"
         fill="#ffffff"
         fill-rule="evenodd"
         id="path112"
         style="stroke:#000000;stroke-opacity:1;stroke-width:2;stroke-dasharray:none" /></g><g
       id="g243"><text
         font-family="Arial, Arial_MSFontService, sans-serif"
         font-style="italic"
         font-weight="700"
         font-size="28px"
         transform="translate(763.583,1040)"
         id="text113">ANNUAL</text><text
         font-family="Arial, Arial_MSFontService, sans-serif"
         font-style="italic"
         font-weight="700"
         font-size="28px"
         transform="translate(727.604,1075)"
         id="text114">(G_YRFR=1.0)</text></g><g
       id="g242"><text
         font-family="Arial, Arial_MSFontService, sans-serif"
         font-style="italic"
         font-weight="700"
         font-size="28px"
         transform="translate(268.583,1180)"
         id="text115">WI</text><text
         font-family="Arial, Arial_MSFontService, sans-serif"
         font-style="italic"
         font-weight="700"
         font-size="28px"
         transform="translate(188.833,1215)"
         id="text116">(G_YRFR=0.6)</text></g><g
       id="g241"><text
         font-family="Arial, Arial_MSFontService, sans-serif"
         font-style="italic"
         font-weight="700"
         font-size="28px"
         transform="translate(239.25,1652)"
         id="text117">WID </text><text
         font-family="Arial, Arial_MSFontService, sans-serif"
         font-style="italic"
         font-weight="700"
         font-size="28px"
         transform="translate(165.917,1688)"
         id="text118">(G_YRFR=0.25)</text></g><g
       id="g240"><text
         font-family="Arial, Arial_MSFontService, sans-serif"
         font-style="italic"
         font-weight="700"
         font-size="28px"
         transform="translate(502.562,1652)"
         id="text119">WIN </text><text
         font-family="Arial, Arial_MSFontService, sans-serif"
         font-style="italic"
         font-weight="700"
         font-size="28px"
         transform="translate(429.229,1688)"
         id="text120">(G_YRFR=0.35)</text></g><g
       id="g239"><text
         font-family="Arial, Arial_MSFontService, sans-serif"
         font-style="italic"
         font-weight="700"
         font-size="28px"
         transform="translate(755.104,1652)"
         id="text121">SUD </text><text
         font-family="Arial, Arial_MSFontService, sans-serif"
         font-style="italic"
         font-weight="700"
         font-size="28px"
         transform="translate(684.062,1688)"
         id="text122">(G_YRFR=0.15)</text></g><g
       id="g238"><text
         font-family="Arial, Arial_MSFontService, sans-serif"
         font-style="italic"
         font-weight="700"
         font-size="28px"
         transform="translate(1026.9,1652)"
         id="text123">SUN </text><text
         font-family="Arial, Arial_MSFontService, sans-serif"
         font-style="italic"
         font-weight="700"
         font-size="28px"
         transform="translate(955.854,1688)"
         id="text124">(G_YRFR=0.25)</text></g><g
       id="g237"><text
         font-family="Arial, Arial_MSFontService, sans-serif"
         font-style="italic"
         font-weight="700"
         font-size="28px"
         transform="translate(986.104,1180)"
         id="text125">SU</text><text
         font-family="Arial, Arial_MSFontService, sans-serif"
         font-style="italic"
         font-weight="700"
         font-size="28px"
         transform="translate(908.646,1215)"
         id="text126">(G_YRFR=0.4)</text></g><g
       id="g236"><text
         font-family="Arial, Arial_MSFontService, sans-serif"
         font-weight="700"
         font-size="28px"
         transform="translate(481.937,1262)"
         id="text127">Given</text><text
         font-family="Arial, Arial_MSFontService, sans-serif"
         font-weight="700"
         font-size="28px"
         transform="translate(481.937,1297)"
         id="text128">value = none</text></g><g
       id="g235"><text
         font-family="Arial, Arial_MSFontService, sans-serif"
         font-weight="700"
         font-size="37px"
         transform="translate(200.979,1283)"
         id="text129">Target</text><text
         font-family="Arial, Arial_MSFontService, sans-serif"
         font-weight="700"
         font-size="37px"
         transform="translate(200.979,1325)"
         id="text130">level</text></g><g
       id="g234"><text
         font-family="Arial, Arial_MSFontService, sans-serif"
         font-weight="700"
         font-size="28px"
         transform="translate(973.271,1262)"
         id="text131">Given</text><text
         font-family="Arial, Arial_MSFontService, sans-serif"
         font-weight="700"
         font-size="28px"
         transform="translate(973.271,1297)"
         id="text132">value = none</text></g><g
       id="g233"><text
         font-family="Arial, Arial_MSFontService, sans-serif"
         font-weight="700"
         font-size="28px"
         transform="translate(481.937,1346)"
         id="text133">Aggregated</text><text
         font-family="Arial, Arial_MSFontService, sans-serif"
         font-weight="700"
         font-size="28px"
         transform="translate(481.937,1381)"
         id="text134">value = 1.58</text></g><g
       id="g232"><text
         font-family="Arial, Arial_MSFontService, sans-serif"
         font-weight="700"
         font-size="28px"
         transform="translate(976.479,1349)"
         id="text135">Aggregated</text><text
         font-family="Arial, Arial_MSFontService, sans-serif"
         font-weight="700"
         font-size="28px"
         transform="translate(976.479,1384)"
         id="text136">value = 3.63</text></g><text
       font-family="Arial, Arial_MSFontService, sans-serif"
       font-weight="700"
       font-size="41px"
       transform="translate(446.875,959)"
       id="text137">Weighted Aggregation</text><g
       id="g231"><text
         font-family="Arial, Arial_MSFontService, sans-serif"
         font-weight="700"
         font-size="28px"
         transform="translate(200.979,1740)"
         id="text138">Given</text><text
         font-family="Arial, Arial_MSFontService, sans-serif"
         font-weight="700"
         font-size="28px"
         transform="translate(200.979,1775)"
         id="text139">value = 1.0</text></g><g
       id="g230"><text
         font-family="Arial, Arial_MSFontService, sans-serif"
         font-weight="700"
         font-size="28px"
         transform="translate(467.5,1740)"
         id="text140">Given</text><text
         font-family="Arial, Arial_MSFontService, sans-serif"
         font-weight="700"
         font-size="28px"
         transform="translate(467.5,1775)"
         id="text141">value = 2.0</text></g><g
       id="g229"><text
         font-family="Arial, Arial_MSFontService, sans-serif"
         font-weight="700"
         font-size="28px"
         transform="translate(712.937,1740)"
         id="text142">Given</text><text
         font-family="Arial, Arial_MSFontService, sans-serif"
         font-weight="700"
         font-size="28px"
         transform="translate(712.937,1775)"
         id="text143">value = 3.0</text></g><g
       id="g228"><text
         font-family="Arial, Arial_MSFontService, sans-serif"
         font-weight="700"
         font-size="28px"
         transform="translate(990.917,1740)"
         id="text144">Given</text><text
         font-family="Arial, Arial_MSFontService, sans-serif"
         font-weight="700"
         font-size="28px"
         transform="translate(990.917,1775)"
         id="text145">value = 4.0</text></g><g
       id="g200"><path
         d="M 0,0 245.667,244.979"
         stroke="#000000"
         stroke-width="2.29167"
         stroke-linejoin="round"
         stroke-miterlimit="10"
         fill="none"
         fill-rule="evenodd"
         transform="matrix(-1,0,0,1,1698.67,1048)"
         id="path145" /><path
         d="M 0,0 140.25,244.75"
         stroke="#000000"
         stroke-width="2.29167"
         stroke-linejoin="round"
         stroke-miterlimit="10"
         fill="none"
         fill-rule="evenodd"
         transform="matrix(-1,0,0,1,1452.25,1293)"
         id="path146" /><path
         d="M 0,0 105.188,244.75"
         stroke="#000000"
         stroke-width="2.29167"
         stroke-linejoin="round"
         stroke-miterlimit="10"
         fill="none"
         fill-rule="evenodd"
         transform="matrix(-1,0,0,1,1944.19,1293)"
         id="path147" /><path
         d="m 1698,1048 280.96,244.98"
         stroke="#000000"
         stroke-width="2.29167"
         stroke-linejoin="round"
         stroke-miterlimit="10"
         fill="none"
         fill-rule="evenodd"
         id="path148" /><path
         d="m 1453,1293 123.06,244.75"
         stroke="#000000"
         stroke-width="2.29167"
         stroke-linejoin="round"
         stroke-miterlimit="10"
         fill="none"
         fill-rule="evenodd"
         id="path149" /><path
         d="m 1944,1293 158.12,244.75"
         stroke="#000000"
         stroke-width="2.29167"
         stroke-linejoin="round"
         stroke-miterlimit="10"
         fill="none"
         fill-rule="evenodd"
         id="path150" /><path
         d="m 1698.5,996 h -2.63 l -2.75,0.113 -2.63,0.455 -2.74,0.455 -2.4,0.568 -2.29,0.568 -2.52,1.023 -2.4,0.908 -2.29,1.02 -2.28,1.14 -2.29,1.25 -2.29,1.48 -2.06,1.14 -1.83,1.7 -2.06,1.82 -1.6,1.36 -1.83,2.05 -1.71,1.93 -1.38,1.82 -1.71,2.05 -1.26,2.16 -1.14,2.27 -1.03,2.27 -1.26,2.27 -1.03,2.16 -0.8,2.51 -0.69,2.61 -0.57,2.27 -0.46,2.62 -0.23,2.72 -0.34,2.62 v 2.61 2.73 l 0.34,2.62 0.23,2.61 0.46,2.5 0.57,2.61 0.69,2.5 0.8,2.39 1.03,2.27 1.26,2.51 1.03,2.15 1.14,2.05 1.26,2.05 1.71,2.27 1.38,1.82 1.71,1.82 1.83,2.04 1.6,1.71 2.06,1.59 1.83,1.48 2.06,1.36 2.29,1.48 2.29,1.25 2.28,1.14 2.29,1.02 2.4,0.79 2.52,0.91 2.29,0.8 2.4,0.34 2.74,0.68 2.63,0.34 2.75,0.23 h 2.63 2.63 l 2.97,-0.23 2.41,-0.34 2.51,-0.68 2.63,-0.34 2.52,-0.8 2.4,-0.91 2.52,-0.79 2.29,-1.02 2.28,-1.14 2.06,-1.25 2.29,-1.48 1.83,-1.36 2.29,-1.48 1.83,-1.59 1.83,-1.71 1.6,-2.04 1.71,-1.82 1.38,-1.82 1.71,-2.27 1.38,-2.05 1.25,-2.05 1.03,-2.15 1.03,-2.51 1.03,-2.27 0.8,-2.39 0.92,-2.5 0.34,-2.61 0.69,-2.5 0.11,-2.61 0.23,-2.62 v -2.73 -2.61 l -0.23,-2.62 -0.11,-2.72 -0.69,-2.62 -0.34,-2.27 -0.92,-2.61 -0.8,-2.51 -1.03,-2.16 -1.03,-2.27 -1.03,-2.27 -1.25,-2.27 -1.38,-2.16 -1.71,-2.05 -1.38,-1.82 -1.71,-1.93 -1.6,-2.05 -1.83,-1.36 -1.83,-1.82 -2.29,-1.7 -1.83,-1.14 -2.29,-1.48 -2.06,-1.25 -2.28,-1.14 -2.29,-1.02 -2.52,-0.908 -2.4,-1.023 -2.52,-0.568 -2.63,-0.568 -2.51,-0.455 -2.41,-0.455 -2.97,-0.113 z"
         fill="#ffffff"
         fill-rule="evenodd"
         id="path151"
         style="stroke-width:2;stroke-dasharray:none;stroke:#000000;stroke-opacity:1" /><path
         d="m 1452.5,1240 h -2.63 -2.75 l -2.63,0.34 -2.63,0.69 -2.51,0.35 -2.29,0.8 -2.4,0.92 -2.52,0.8 -2.29,1.03 -2.28,1.27 -2.29,1.14 -2.18,1.5 -2.05,1.37 -1.95,1.49 -2.06,1.61 -1.6,1.84 -1.83,1.95 -1.71,1.83 -1.61,2.07 -1.48,2.07 -1.15,2.06 -1.25,2.07 -1.26,2.18 -1.03,2.52 -1.03,2.3 -0.8,2.41 -0.69,2.75 -0.57,2.41 -0.46,2.64 -0.34,2.52 -0.23,2.64 v 2.87 2.53 l 0.23,2.64 0.34,2.75 0.46,2.64 0.57,2.52 0.69,2.41 0.8,2.53 1.03,2.18 1.03,2.52 1.26,2.3 1.25,2.06 1.15,2.18 1.48,2.07 1.61,1.84 1.71,2.06 1.83,1.95 1.6,1.61 2.06,1.61 1.95,1.72 2.05,1.37 2.18,1.27 2.29,1.26 2.28,1.26 2.29,0.92 2.52,1.03 2.4,0.92 2.29,0.57 2.51,0.58 2.63,0.46 2.63,0.46 2.75,0.11 2.63,0.23 2.75,-0.23 2.63,-0.11 2.63,-0.46 2.51,-0.46 2.63,-0.58 2.52,-0.57 2.52,-0.92 2.4,-1.03 2.29,-0.92 2.28,-1.26 2.06,-1.26 2.29,-1.27 2.06,-1.37 2.06,-1.72 1.83,-1.61 1.83,-1.61 1.71,-1.95 1.6,-2.06 1.49,-1.84 1.6,-2.07 1.26,-2.18 1.37,-2.06 1.03,-2.3 1.03,-2.52 1.03,-2.18 0.92,-2.53 0.57,-2.41 0.57,-2.52 0.46,-2.64 0.46,-2.75 0.11,-2.64 v -2.53 -2.87 l -0.11,-2.64 -0.46,-2.52 -0.46,-2.64 -0.57,-2.41 -0.57,-2.75 -0.92,-2.41 -1.03,-2.3 -1.03,-2.52 -1.03,-2.18 -1.37,-2.07 -1.26,-2.06 -1.6,-2.07 -1.49,-2.07 -1.6,-1.83 -1.71,-1.95 -1.83,-1.84 -1.83,-1.61 -2.06,-1.49 -2.06,-1.37 -2.29,-1.5 -2.06,-1.14 -2.28,-1.27 -2.29,-1.03 -2.4,-0.8 -2.52,-0.92 -2.52,-0.8 -2.63,-0.35 -2.51,-0.69 -2.63,-0.34 h -2.63 z"
         fill="#c0c0c0"
         fill-rule="evenodd"
         id="path153"
         style="stroke:#000000;stroke-opacity:1;stroke-width:2;stroke-dasharray:none" /><path
         d="m 1944.5,1240 h -2.75 -2.63 l -2.63,0.34 -2.74,0.69 -2.4,0.35 -2.52,0.8 -2.29,0.92 -2.4,0.8 -2.29,1.03 -2.28,1.27 -2.52,1.14 -2.06,1.5 -2.06,1.37 -1.83,1.49 -2.06,1.84 -1.6,1.61 -1.94,1.95 -1.6,1.83 -1.49,2.07 -1.6,2.07 -1.26,2.06 -1.26,2.18 -1.14,2.3 -1.03,2.29 -1.03,2.3 -0.92,2.41 -0.57,2.75 -0.57,2.41 -0.46,2.64 -0.23,2.52 -0.34,2.64 v 2.87 2.53 l 0.34,2.64 0.23,2.75 0.46,2.64 0.57,2.52 0.57,2.41 0.92,2.53 1.03,2.18 1.03,2.52 1.14,2.3 1.26,2.06 1.26,2.18 1.6,2.07 1.49,1.84 1.6,2.06 1.94,1.95 1.6,1.61 2.06,1.61 1.83,1.72 2.06,1.37 2.06,1.27 2.52,1.26 2.28,1.26 2.29,0.92 2.4,1.03 2.29,0.92 2.52,0.57 2.4,0.58 2.74,0.46 2.63,0.46 2.63,0.11 2.75,0.23 2.63,-0.23 2.86,-0.11 2.52,-0.46 2.51,-0.46 2.63,-0.58 2.52,-0.57 2.4,-0.92 2.52,-1.03 2.29,-0.92 2.28,-1.26 2.06,-1.26 2.18,-1.27 1.94,-1.37 2.17,-1.72 1.95,-1.61 1.83,-1.61 1.6,-1.95 1.71,-2.06 1.38,-1.84 1.71,-2.07 1.38,-2.18 1.25,-2.06 1.03,-2.3 1.03,-2.52 1.03,-2.18 0.8,-2.53 0.8,-2.41 0.46,-2.52 0.57,-2.64 0.23,-2.75 0.23,-2.64 v -2.53 -2.87 l -0.23,-2.64 -0.23,-2.52 -0.57,-2.64 -0.46,-2.41 -0.8,-2.75 -0.8,-2.41 -1.03,-2.3 -1.03,-2.29 -1.03,-2.3 -1.25,-2.18 -1.38,-2.06 -1.71,-2.07 -1.38,-2.07 -1.71,-1.83 -1.6,-1.95 -1.83,-1.61 -1.95,-1.84 -2.17,-1.49 -1.94,-1.37 -2.18,-1.5 -2.06,-1.14 -2.28,-1.27 -2.29,-1.03 -2.52,-0.8 -2.4,-0.92 -2.52,-0.8 -2.63,-0.35 -2.51,-0.69 -2.52,-0.34 h -2.86 z"
         fill="#c0c0c0"
         fill-rule="evenodd"
         id="path155"
         style="stroke:#000000;stroke-opacity:1;stroke-width:2;stroke-dasharray:none" /><path
         d="m 1312.56,1485 h -2.97 l -2.63,0.23 -2.51,0.11 -2.63,0.69 -2.52,0.58 -2.4,0.69 -2.51,0.8 -2.4,0.8 -2.28,1.26 -2.29,1.27 -2.28,0.91 -2.06,1.5 -2.06,1.49 -2.05,1.6 -1.83,1.5 -1.83,1.83 -1.71,1.84 -1.83,2.06 -1.49,1.84 -1.37,2.07 -1.48,2.06 -1.26,2.3 -1.14,2.18 -1.03,2.52 -0.92,2.3 -0.79,2.18 -0.8,2.75 -0.46,2.41 -0.57,2.75 -0.46,2.64 v 2.41 2.99 2.64 2.64 l 0.46,2.52 0.57,2.64 0.46,2.75 0.8,2.41 0.79,2.53 0.92,2.18 1.03,2.52 1.14,2.3 1.26,2.06 1.48,2.07 1.37,1.95 1.49,2.07 1.83,1.95 1.71,1.83 1.83,1.84 1.83,1.38 2.05,1.72 2.06,1.37 2.06,1.5 2.28,1.26 2.29,1.26 2.28,0.92 2.4,0.92 2.51,0.8 2.4,0.8 2.52,0.46 2.63,0.58 2.51,0.23 2.63,0.23 2.97,0.11 2.4,-0.11 2.74,-0.23 2.63,-0.23 2.62,-0.58 2.75,-0.46 2.28,-0.8 2.4,-0.8 2.51,-0.92 2.29,-0.92 2.28,-1.26 2.18,-1.26 2.28,-1.5 1.83,-1.37 2.06,-1.72 2.05,-1.38 1.72,-1.84 1.82,-1.83 1.49,-1.95 1.6,-2.07 1.6,-1.95 1.03,-2.07 1.48,-2.06 1.03,-2.3 1.26,-2.52 1.03,-2.18 0.57,-2.53 0.68,-2.41 0.8,-2.75 0.34,-2.64 0.23,-2.52 0.23,-2.64 0.23,-2.64 -0.23,-2.99 -0.23,-2.41 -0.23,-2.64 -0.34,-2.75 -0.8,-2.41 -0.68,-2.75 -0.57,-2.18 -1.03,-2.3 -1.26,-2.52 -1.03,-2.18 -1.48,-2.3 -1.03,-2.06 -1.6,-2.07 -1.6,-1.84 -1.49,-2.06 -1.82,-1.84 -1.72,-1.83 -2.05,-1.5 -2.06,-1.6 -1.83,-1.49 -2.28,-1.5 -2.18,-0.91 -2.28,-1.27 -2.29,-1.26 -2.51,-0.8 -2.4,-0.8 -2.28,-0.69 -2.75,-0.58 -2.62,-0.69 -2.63,-0.11 -2.74,-0.23 z"
         fill="#ffffff"
         fill-rule="evenodd"
         id="path157"
         style="stroke:#000000;stroke-opacity:1;stroke-width:2;stroke-dasharray:none" /><path
         d="m 1575.44,1485 h -2.62 l -2.86,0.23 -2.51,0.11 -2.63,0.69 -2.52,0.58 -2.4,0.69 -2.51,0.8 -2.51,0.8 -2.17,1.26 -2.29,1.27 -2.28,0.91 -2.06,1.5 -2.06,1.49 -2.05,1.6 -1.83,1.61 -1.83,1.72 -1.71,1.84 -1.83,2.06 -1.26,1.84 -1.6,2.07 -1.48,2.06 -1.26,2.3 -1.03,2.18 -1.03,2.52 -1.03,2.3 -0.79,2.18 -0.8,2.75 -0.46,2.41 -0.57,2.75 -0.23,2.64 -0.23,2.41 v 2.99 2.64 l 0.23,2.64 0.23,2.52 0.57,2.64 0.46,2.75 0.8,2.41 0.79,2.53 1.03,2.18 1.03,2.52 1.03,2.3 1.26,2.06 1.48,2.07 1.6,1.95 1.26,2.07 1.83,1.95 1.71,1.83 1.83,1.84 1.83,1.38 2.05,1.72 2.06,1.37 2.06,1.5 2.28,1.26 2.29,1.26 2.17,0.92 2.51,0.92 2.51,0.8 2.4,0.8 2.52,0.46 2.63,0.58 2.51,0.23 2.86,0.23 2.62,0.11 2.52,-0.11 2.85,-0.23 2.74,-0.23 2.4,-0.58 2.75,-0.46 2.28,-0.8 2.4,-0.8 2.51,-0.92 2.29,-0.92 2.17,-1.26 2.29,-1.26 2.28,-1.5 1.83,-1.37 2.06,-1.72 2.05,-1.38 1.72,-1.84 1.82,-1.83 1.37,-1.95 1.72,-2.07 1.6,-1.95 1.25,-2.07 1.26,-2.06 1.03,-2.3 1.26,-2.52 1.03,-2.18 0.79,-2.53 0.58,-2.41 0.68,-2.75 0.34,-2.64 0.23,-2.52 0.46,-2.64 v -2.64 -2.99 l -0.46,-2.41 -0.23,-2.64 -0.34,-2.75 -0.68,-2.41 -0.58,-2.75 -0.79,-2.18 -1.03,-2.3 -1.26,-2.52 -1.03,-2.18 -1.26,-2.3 -1.25,-2.06 -1.6,-2.07 -1.72,-1.84 -1.37,-2.06 -1.82,-1.84 -1.72,-1.72 -2.05,-1.61 -2.06,-1.6 -1.83,-1.49 -2.28,-1.5 -2.29,-0.91 -2.17,-1.27 -2.29,-1.26 -2.51,-0.8 -2.4,-0.8 -2.28,-0.69 -2.75,-0.58 -2.4,-0.69 -2.74,-0.11 -2.85,-0.23 z"
         fill="#ffffff"
         fill-rule="evenodd"
         id="path159"
         style="stroke-width:2;stroke-dasharray:none;stroke:#000000;stroke-opacity:1" /><path
         d="m 1838.94,1485 h -2.65 l -2.88,0.23 -2.54,0.11 -2.65,0.69 -2.54,0.58 -2.42,0.69 -2.54,0.8 -2.54,0.8 -2.31,1.26 -2.19,1.27 -2.3,0.91 -2.08,1.5 -2.08,1.49 -2.07,1.6 -1.85,1.61 -1.96,1.72 -1.61,1.84 -1.85,2.06 -1.27,1.84 -1.61,2.07 -1.5,2.06 -1.27,2.3 -1.04,2.18 -1.04,2.52 -1.04,2.3 -0.8,2.18 -0.81,2.75 -0.46,2.41 -0.58,2.75 -0.23,2.64 -0.23,2.41 v 2.99 2.64 l 0.23,2.64 0.23,2.52 0.58,2.64 0.46,2.75 0.81,2.41 0.8,2.53 1.04,2.18 1.04,2.52 1.04,2.3 1.27,2.06 1.5,2.07 1.61,1.95 1.27,2.07 1.85,1.95 1.61,1.83 1.96,1.84 1.85,1.38 2.07,1.72 2.08,1.37 2.08,1.5 2.3,1.26 2.19,1.26 2.31,0.92 2.54,0.92 2.54,0.8 2.42,0.8 2.54,0.46 2.65,0.58 2.54,0.23 2.88,0.23 2.65,0.11 2.77,-0.11 2.65,-0.23 2.77,-0.23 2.42,-0.58 2.77,-0.46 2.19,-0.8 2.54,-0.8 2.54,-0.92 2.19,-0.92 2.31,-1.26 2.3,-1.26 2.31,-1.5 1.85,-1.37 2.07,-1.72 2.08,-1.38 1.73,-1.84 1.84,-1.83 1.39,-1.95 1.73,-2.07 1.61,-1.95 1.27,-2.07 1.27,-2.06 1.04,-2.3 1.27,-2.52 1.04,-2.18 0.8,-2.53 0.58,-2.41 0.69,-2.75 0.35,-2.64 0.23,-2.52 0.46,-2.64 v -2.64 -2.99 l -0.46,-2.41 -0.23,-2.64 -0.35,-2.75 -0.69,-2.41 -0.58,-2.75 -0.8,-2.18 -1.04,-2.3 -1.27,-2.52 -1.04,-2.18 -1.27,-2.3 -1.27,-2.06 -1.61,-2.07 -1.73,-1.84 -1.39,-2.06 -1.84,-1.84 -1.73,-1.72 -2.08,-1.61 -2.07,-1.6 -1.85,-1.49 -2.31,-1.5 -2.3,-0.91 -2.31,-1.27 -2.19,-1.26 -2.54,-0.8 -2.54,-0.8 -2.19,-0.69 -2.77,-0.58 -2.42,-0.69 -2.77,-0.11 -2.65,-0.23 z"
         fill="#ffffff"
         fill-rule="evenodd"
         id="path161"
         style="stroke:#000000;stroke-opacity:1;stroke-width:2;stroke-dasharray:none" /><path
         d="m 2102.5,1485 h -2.63 l -2.86,0.23 -2.52,0.11 -2.63,0.69 -2.51,0.58 -2.52,0.69 -2.4,0.8 -2.52,0.8 -2.29,1.26 -2.17,1.27 -2.29,0.91 -2.06,1.5 -2.05,1.49 -2.06,1.6 -1.83,1.61 -1.95,1.72 -1.6,1.84 -1.83,2.06 -1.26,1.84 -1.71,2.07 -1.38,2.06 -1.25,2.3 -1.03,2.18 -1.03,2.52 -1.03,2.3 -0.8,2.18 -0.8,2.75 -0.46,2.41 -0.57,2.75 -0.23,2.64 -0.23,2.41 v 2.99 2.64 l 0.23,2.64 0.23,2.52 0.57,2.64 0.46,2.75 0.8,2.41 0.8,2.53 1.03,2.18 1.03,2.52 1.03,2.3 1.25,2.06 1.38,2.07 1.71,1.95 1.26,2.07 1.83,1.95 1.6,1.83 1.95,1.84 1.83,1.38 2.06,1.72 2.05,1.37 2.06,1.5 2.29,1.26 2.17,1.26 2.29,0.92 2.52,0.92 2.4,0.8 2.52,0.8 2.51,0.46 2.63,0.58 2.52,0.23 2.86,0.23 2.63,0.11 2.75,-0.11 2.63,-0.23 2.63,-0.23 2.51,-0.58 2.75,-0.46 2.17,-0.8 2.52,-0.8 2.51,-0.92 2.18,-0.92 2.28,-1.26 2.29,-1.26 2.29,-1.5 1.83,-1.37 2.06,-1.72 2.06,-1.38 1.6,-1.84 1.94,-1.83 1.38,-1.95 1.71,-2.07 1.6,-1.95 1.26,-2.07 1.26,-2.06 1.03,-2.3 1.14,-2.52 1.03,-2.18 0.92,-2.53 0.57,-2.41 0.57,-2.75 0.46,-2.64 0.23,-2.52 0.34,-2.64 v -2.64 -2.99 l -0.34,-2.41 -0.23,-2.64 -0.46,-2.75 -0.57,-2.41 -0.57,-2.75 -0.92,-2.18 -1.03,-2.3 -1.14,-2.52 -1.03,-2.18 -1.26,-2.3 -1.26,-2.06 -1.6,-2.07 -1.71,-1.84 -1.38,-2.06 -1.94,-1.84 -1.6,-1.72 -2.06,-1.61 -2.06,-1.6 -1.83,-1.49 -2.29,-1.5 -2.29,-0.91 -2.28,-1.27 -2.18,-1.26 -2.51,-0.8 -2.52,-0.8 -2.17,-0.69 -2.75,-0.58 -2.51,-0.69 -2.63,-0.11 -2.63,-0.23 z"
         fill="#ffffff"
         fill-rule="evenodd"
         id="path163"
         style="stroke:#000000;stroke-opacity:1;stroke-width:2;stroke-dasharray:none" /></g><g
       id="g259"><text
         font-family="Arial, Arial_MSFontService, sans-serif"
         font-style="italic"
         font-weight="700"
         font-size="28px"
         transform="translate(1808.35,1040)"
         id="text164">ANNUAL</text><text
         font-family="Arial, Arial_MSFontService, sans-serif"
         font-style="italic"
         font-weight="700"
         font-size="28px"
         transform="translate(1772.37,1075)"
         id="text165">(G_YRFR=1.0)</text></g><g
       id="g258"><text
         font-family="Arial, Arial_MSFontService, sans-serif"
         font-style="italic"
         font-weight="700"
         font-size="28px"
         transform="translate(1313.35,1180)"
         id="text166">WI</text><text
         font-family="Arial, Arial_MSFontService, sans-serif"
         font-style="italic"
         font-weight="700"
         font-size="28px"
         transform="translate(1233.83,1215)"
         id="text167">(G_YRFR=0.6)</text></g><g
       id="g257"><text
         font-family="Arial, Arial_MSFontService, sans-serif"
         font-style="italic"
         font-weight="700"
         font-size="28px"
         transform="translate(1284.02,1652)"
         id="text168">WID </text><text
         font-family="Arial, Arial_MSFontService, sans-serif"
         font-style="italic"
         font-weight="700"
         font-size="28px"
         transform="translate(1210.69,1688)"
         id="text169">(G_YRFR=0.25)</text></g><g
       id="g256"><text
         font-family="Arial, Arial_MSFontService, sans-serif"
         font-style="italic"
         font-weight="700"
         font-size="28px"
         transform="translate(1547.1,1652)"
         id="text170">WIN </text><text
         font-family="Arial, Arial_MSFontService, sans-serif"
         font-style="italic"
         font-weight="700"
         font-size="28px"
         transform="translate(1474,1688)"
         id="text171">(G_YRFR=0.35)</text></g><g
       id="g255"><text
         font-family="Arial, Arial_MSFontService, sans-serif"
         font-style="italic"
         font-weight="700"
         font-size="28px"
         transform="translate(1799.87,1652)"
         id="text172">SUD </text><text
         font-family="Arial, Arial_MSFontService, sans-serif"
         font-style="italic"
         font-weight="700"
         font-size="28px"
         transform="translate(1728.83,1688)"
         id="text173">(G_YRFR=0.15)</text></g><g
       id="g254"><text
         font-family="Arial, Arial_MSFontService, sans-serif"
         font-style="italic"
         font-weight="700"
         font-size="28px"
         transform="translate(2071.44,1652)"
         id="text174">SUN </text><text
         font-family="Arial, Arial_MSFontService, sans-serif"
         font-style="italic"
         font-weight="700"
         font-size="28px"
         transform="translate(2000.62,1688)"
         id="text175">(G_YRFR=0.25)</text></g><g
       id="g253"><text
         font-family="Arial, Arial_MSFontService, sans-serif"
         font-style="italic"
         font-weight="700"
         font-size="28px"
         transform="translate(2030.87,1180)"
         id="text176">SU</text><text
         font-family="Arial, Arial_MSFontService, sans-serif"
         font-style="italic"
         font-weight="700"
         font-size="28px"
         transform="translate(1953.42,1215)"
         id="text177">(G_YRFR=0.4)</text></g><g
       id="g252"><text
         font-family="Arial, Arial_MSFontService, sans-serif"
         font-weight="700"
         font-size="28px"
         transform="translate(1526.48,1262)"
         id="text178">Given</text><text
         font-family="Arial, Arial_MSFontService, sans-serif"
         font-weight="700"
         font-size="28px"
         transform="translate(1526.48,1297)"
         id="text179">value = none</text></g><g
       id="g251"><text
         font-family="Arial, Arial_MSFontService, sans-serif"
         font-weight="700"
         font-size="37px"
         transform="translate(1245.75,1283)"
         id="text180">Target</text><text
         font-family="Arial, Arial_MSFontService, sans-serif"
         font-weight="700"
         font-size="37px"
         transform="translate(1245.75,1325)"
         id="text181">level</text></g><g
       id="g250"><text
         font-family="Arial, Arial_MSFontService, sans-serif"
         font-weight="700"
         font-size="28px"
         transform="translate(2018.04,1262)"
         id="text182">Given</text><text
         font-family="Arial, Arial_MSFontService, sans-serif"
         font-weight="700"
         font-size="28px"
         transform="translate(2018.04,1297)"
         id="text183">value = none</text></g><g
       id="g249"><text
         font-family="Arial, Arial_MSFontService, sans-serif"
         font-weight="700"
         font-size="28px"
         transform="translate(1526.48,1346)"
         id="text184">Aggregated</text><text
         font-family="Arial, Arial_MSFontService, sans-serif"
         font-weight="700"
         font-size="28px"
         transform="translate(1526.48,1381)"
         id="text185">value = 3.0</text></g><g
       id="g248"><text
         font-family="Arial, Arial_MSFontService, sans-serif"
         font-weight="700"
         font-size="28px"
         transform="translate(2021.25,1349)"
         id="text186">Aggregated</text><text
         font-family="Arial, Arial_MSFontService, sans-serif"
         font-weight="700"
         font-size="28px"
         transform="translate(2021.25,1384)"
         id="text187">value = 7.0</text></g><text
       font-family="Arial, Arial_MSFontService, sans-serif"
       font-weight="700"
       font-size="41px"
       transform="translate(1482.48,959)"
       id="text188">Standard Aggregation</text><g
       id="g247"><text
         font-family="Arial, Arial_MSFontService, sans-serif"
         font-weight="700"
         font-size="28px"
         transform="translate(1245.75,1740)"
         id="text189">Given</text><text
         font-family="Arial, Arial_MSFontService, sans-serif"
         font-weight="700"
         font-size="28px"
         transform="translate(1245.75,1775)"
         id="text190">value = 1.0</text></g><g
       id="g246"><text
         font-family="Arial, Arial_MSFontService, sans-serif"
         font-weight="700"
         font-size="28px"
         transform="translate(1512.04,1740)"
         id="text191">Given</text><text
         font-family="Arial, Arial_MSFontService, sans-serif"
         font-weight="700"
         font-size="28px"
         transform="translate(1512.04,1775)"
         id="text192">value = 2.0</text></g><g
       id="g245"><text
         font-family="Arial, Arial_MSFontService, sans-serif"
         font-weight="700"
         font-size="28px"
         transform="translate(1757.94,1740)"
         id="text193">Given</text><text
         font-family="Arial, Arial_MSFontService, sans-serif"
         font-weight="700"
         font-size="28px"
         transform="translate(1757.94,1775)"
         id="text194">value = 3.0</text></g><g
       id="g244"><text
         font-family="Arial, Arial_MSFontService, sans-serif"
         font-weight="700"
         font-size="28px"
         transform="translate(2035.69,1740)"
         id="text195">Given</text><text
         font-family="Arial, Arial_MSFontService, sans-serif"
         font-weight="700"
         font-size="28px"
         transform="translate(2035.69,1775)"
         id="text196">value = 4.0</text></g><path
       d="m 601,1437.75 h 26.164 V 1530 h 52.672 v -92.25 H 706 L 653.443,1407 Z"
       fill-rule="evenodd"
       id="path196" /><path
       d="m 1654,1437.75 h 26.33 V 1530 h 53.23 v -92.25 H 1760 L 1707,1407 Z"
       fill-rule="evenodd"
       id="path198" /></g></svg>
