<?xml version="1.0" encoding="UTF-8" standalone="no"?>
<svg
   width="1706.0406"
   height="943.01105"
   xml:space="preserve"
   overflow="hidden"
   version="1.1"
   id="svg26"
   xmlns="http://www.w3.org/2000/svg"
   xmlns:svg="http://www.w3.org/2000/svg"><defs
     id="defs26" /><g
     id="g26"
     transform="translate(-317.93103,-573.41132)"><rect
       x="317.93103"
       y="573.41132"
       width="1706.0406"
       height="943.01105"
       fill="#ffffff"
       id="rect1"
       style="stroke-width:0.634261" /><path
       d="m 346,1041 c 0,-245.214 85.961,-444 192,-444 106.039,0 192,198.786 192,444 0,245.21 -85.961,444 -192,444 -106.039,0 -192,-198.79 -192,-444 z"
       stroke="#000000"
       stroke-width="2.29167"
       stroke-linejoin="round"
       stroke-miterlimit="10"
       fill="#dddddd"
       fill-rule="evenodd"
       id="path1" /><path
       d="m 1614,1041 c 0,-245.214 85.96,-444 192,-444 106.04,0 192,198.786 192,444 0,245.21 -85.96,444 -192,444 -106.04,0 -192,-198.79 -192,-444 z"
       stroke="#000000"
       stroke-width="2.29167"
       stroke-linejoin="round"
       stroke-miterlimit="10"
       fill="#dddddd"
       fill-rule="evenodd"
       id="path2" /><text
       font-family="Arial, Arial_MSFontService, sans-serif"
       font-style="italic"
       font-weight="700"
       font-size="46px"
       transform="translate(461.918,715)"
       id="text2">Supply </text><text
       font-family="Arial, Arial_MSFontService, sans-serif"
       font-style="italic"
       font-weight="700"
       font-size="46px"
       transform="translate(455.547,774)"
       id="text3">regions</text><text
       font-family="Arial, Arial_MSFontService, sans-serif"
       font-style="italic"
       font-weight="700"
       font-size="46px"
       transform="translate(1719.09,715)"
       id="text4">Demand </text><text
       font-family="Arial, Arial_MSFontService, sans-serif"
       font-style="italic"
       font-weight="700"
       font-size="46px"
       transform="translate(1726.72,774)"
       id="text5">regions</text><path
       d="m 1037,1108.5 c 0,-79.81 60.44,-144.5 135,-144.5 74.56,0 135,64.69 135,144.5 0,79.81 -60.44,144.5 -135,144.5 -74.56,0 -135,-64.69 -135,-144.5 z"
       stroke="#000000"
       stroke-width="2.29167"
       stroke-linejoin="round"
       stroke-miterlimit="10"
       fill="#00cc99"
       fill-rule="evenodd"
       id="path5" /><text
       font-family="Arial, Arial_MSFontService, sans-serif"
       font-weight="700"
       font-size="37px"
       transform="translate(1068.36,1098)"
       id="text6">Marketplace </text><text
       font-family="Arial, Arial_MSFontService, sans-serif"
       font-weight="700"
       font-size="37px"
       transform="translate(1093.92,1145)"
       id="text7">Region C</text><path
       d="m 423,906 c 0,-42.526 51.711,-77 115.5,-77 63.789,0 115.5,34.474 115.5,77 0,42.526 -51.711,77 -115.5,77 C 474.711,983 423,948.526 423,906 Z"
       stroke="#000000"
       stroke-width="2.29167"
       stroke-linejoin="round"
       stroke-miterlimit="10"
       fill="#00cc99"
       fill-rule="evenodd"
       id="path7" /><text
       font-family="Arial, Arial_MSFontService, sans-serif"
       font-weight="700"
       font-size="37px"
       transform="translate(453.521,921)"
       id="text8">Region A</text><path
       d="m 423,1099 c 0,-42.53 51.711,-77 115.5,-77 63.789,0 115.5,34.47 115.5,77 0,42.53 -51.711,77 -115.5,77 -63.789,0 -115.5,-34.47 -115.5,-77 z"
       stroke="#000000"
       stroke-width="2.29167"
       stroke-linejoin="round"
       stroke-miterlimit="10"
       fill="#00cc99"
       fill-rule="evenodd"
       id="path8" /><text
       font-family="Arial, Arial_MSFontService, sans-serif"
       font-weight="700"
       font-size="37px"
       transform="translate(453.521,1113)"
       id="text9">Region B</text><path
       d="m 423,1291.5 c 0,-42.8 51.711,-77.5 115.5,-77.5 63.789,0 115.5,34.7 115.5,77.5 0,42.8 -51.711,77.5 -115.5,77.5 -63.789,0 -115.5,-34.7 -115.5,-77.5 z"
       stroke="#000000"
       stroke-width="2.29167"
       stroke-linejoin="round"
       stroke-miterlimit="10"
       fill="#00cc99"
       fill-rule="evenodd"
       id="path9" /><text
       font-family="Arial, Arial_MSFontService, sans-serif"
       font-weight="700"
       font-size="37px"
       transform="translate(453.521,1306)"
       id="text10">Region D</text><path
       d="m 1691,906 c 0,-42.526 51.71,-77 115.5,-77 63.79,0 115.5,34.474 115.5,77 0,42.526 -51.71,77 -115.5,77 -63.79,0 -115.5,-34.474 -115.5,-77 z"
       stroke="#000000"
       stroke-width="2.29167"
       stroke-linejoin="round"
       stroke-miterlimit="10"
       fill="#00cc99"
       fill-rule="evenodd"
       id="path10" /><text
       font-family="Arial, Arial_MSFontService, sans-serif"
       font-weight="700"
       font-size="37px"
       transform="translate(1721.5,921)"
       id="text11">Region D</text><path
       d="m 1691,1099 c 0,-42.53 51.71,-77 115.5,-77 63.79,0 115.5,34.47 115.5,77 0,42.53 -51.71,77 -115.5,77 -63.79,0 -115.5,-34.47 -115.5,-77 z"
       stroke="#000000"
       stroke-width="2.29167"
       stroke-linejoin="round"
       stroke-miterlimit="10"
       fill="#00cc99"
       fill-rule="evenodd"
       id="path11" /><text
       font-family="Arial, Arial_MSFontService, sans-serif"
       font-weight="700"
       font-size="37px"
       transform="translate(1722.65,1113)"
       id="text12">Region E</text><path
       d="m 1691,1291.5 c 0,-42.8 51.71,-77.5 115.5,-77.5 63.79,0 115.5,34.7 115.5,77.5 0,42.8 -51.71,77.5 -115.5,77.5 -63.79,0 -115.5,-34.7 -115.5,-77.5 z"
       stroke="#000000"
       stroke-width="2.29167"
       stroke-linejoin="round"
       stroke-miterlimit="10"
       fill="#00cc99"
       fill-rule="evenodd"
       id="path12" /><text
       font-family="Arial, Arial_MSFontService, sans-serif"
       font-weight="700"
       font-size="37px"
       transform="translate(1723.56,1306)"
       id="text13">Region F</text><g
       id="g30"><path
         d="m 653,906 380.65,126.96"
         stroke="#000000"
         stroke-width="2.29167"
         stroke-linejoin="round"
         stroke-miterlimit="10"
         fill="none"
         fill-rule="evenodd"
         id="path13" /><path
         d="m 1029,1045 28,-4.08 -19.9,-19.92 z"
         fill-rule="evenodd"
         id="path14" /></g><g
       id="g32"><path
         d="m 653,1105.0002 h 360.25"
         stroke="#000000"
         stroke-width="2.29167"
         stroke-linejoin="round"
         stroke-miterlimit="10"
         fill="none"
         fill-rule="evenodd"
         id="path15" /><path
         d="m 1013,1116.4113 24,-12.725 -24,-12.275 z"
         fill-rule="evenodd"
         id="path16"
         style="stroke-width:5" /></g><g
       id="g29"><path
         d="M 0,0 380.417,108.625"
         stroke="#000000"
         stroke-width="2.29167"
         stroke-linejoin="round"
         stroke-miterlimit="10"
         fill="none"
         fill-rule="evenodd"
         transform="matrix(1,0,0,-1,653,1291.62)"
         id="path17" /><path
         d="M 1035.94,1195 1057,1176.16 1029,1171 Z"
         fill-rule="evenodd"
         id="path18" /></g><g
       id="g28"><path
         d="M 0,0 380.646,126.958"
         stroke="#000000"
         stroke-width="2.29167"
         stroke-linejoin="round"
         stroke-miterlimit="10"
         fill="none"
         fill-rule="evenodd"
         transform="matrix(1,0,0,-1,1287,1040.96)"
         id="path19" /><path
         d="M 1671.17,927 1691,905.774 1663,902 Z"
         fill-rule="evenodd"
         id="path20" /></g><g
       id="g31"><path
         d="m 1306,1105.0002 h 360.25"
         stroke="#000000"
         stroke-width="2.29167"
         stroke-linejoin="round"
         stroke-miterlimit="10"
         fill="none"
         fill-rule="evenodd"
         id="path21" /><path
         d="m 1666,1116.4113 25,-12.725 -25,-12.275 z"
         fill-rule="evenodd"
         id="path22"
         style="stroke-width:5" /></g><g
       id="g27"><path
         d="m 1287,1176 380.19,108.85"
         stroke="#000000"
         stroke-width="2.29167"
         stroke-linejoin="round"
         stroke-miterlimit="10"
         fill="none"
         fill-rule="evenodd"
         id="path23" /><path
         d="m 1663,1297 28,-5.61 -21,-18.39 z"
         fill-rule="evenodd"
         id="path24" /></g><text
       font-family="Arial, Arial_MSFontService, sans-serif"
       font-style="italic"
       font-weight="400"
       font-size="46px"
       transform="translate(866.479,1368)"
       id="text24">The same region may occur on </text><text
       font-family="Arial, Arial_MSFontService, sans-serif"
       font-style="italic"
       font-weight="400"
       font-size="46px"
       transform="translate(866.479,1427)"
       id="text25"
       style="-inkscape-font-specification:'Arial, Arial_MSFontService, sans-serif, Italic';font-family:Arial, Arial_MSFontService, sans-serif;font-weight:normal;font-style:italic;font-stretch:normal;font-variant:normal;font-size:46px;font-variant-ligatures:normal;font-variant-caps:normal;font-variant-numeric:normal;font-variant-east-asian:normal"><tspan
         id="tspan26">the supply and demand side.</tspan></text></g></svg>
