<?xml version="1.0" encoding="UTF-8" standalone="no"?>
<svg
   width="1632.3546"
   height="894.04688"
   xml:space="preserve"
   overflow="hidden"
   version="1.1"
   id="svg32"
   xmlns="http://www.w3.org/2000/svg"
   xmlns:svg="http://www.w3.org/2000/svg"><defs
     id="defs32" /><g
     id="g32"
     transform="translate(-58.721676,-291.4335)"><rect
       x="58.721676"
       y="291.4335"
       width="1632.3546"
       height="894.04688"
       fill="#ffffff"
       id="rect1"
       style="stroke-width:0.815681" /><path
       d="M 85.9999,1009 H 1644.1"
       stroke="#000000"
       stroke-width="1.83333"
       stroke-linecap="round"
       stroke-linejoin="round"
       stroke-miterlimit="10"
       fill="none"
       fill-rule="evenodd"
       id="path1" /><path
       d="m 129,355 v 653.81"
       stroke="#000000"
       stroke-width="1.83333"
       stroke-linecap="round"
       stroke-linejoin="round"
       stroke-miterlimit="10"
       fill="none"
       fill-rule="evenodd"
       id="path2" /><path
       d="m 1086,341 v 668.02"
       stroke="#000000"
       stroke-width="1.83333"
       stroke-linecap="round"
       stroke-linejoin="round"
       stroke-miterlimit="10"
       fill="none"
       fill-rule="evenodd"
       id="path3" /><path
       d="m 800,1009 c 0,-23.17 -16.261,-42 -36.31,-42 H 400.345 C 380.296,967 364,985.83 364,1009"
       stroke="#000000"
       stroke-width="1.83333"
       stroke-linecap="round"
       stroke-linejoin="round"
       stroke-miterlimit="10"
       fill="none"
       fill-rule="evenodd"
       id="path4" /><path
       d="m 1236,1009 c 0,-23.17 -16.22,-42 -36.31,-42 H 836.381 C 816.296,967 800,985.83 800,1009"
       stroke="#000000"
       stroke-width="1.83333"
       stroke-linecap="round"
       stroke-linejoin="round"
       stroke-miterlimit="10"
       fill="none"
       fill-rule="evenodd"
       id="path5" /><text
       font-family="Arial, Arial_MSFontService, sans-serif"
       font-weight="400"
       font-size="41px"
       id="text5"
       x="203.20827"
       y="961">ILED</text><path
       d="m 134.281,966.074 h 218.438 c 0.499,0 0.89,0.436 0.89,0.908 0,0.508 -0.391,0.908 -0.89,0.908 H 134.281 c -0.499,0 -0.891,-0.4 -0.891,-0.908 0,-0.472 0.392,-0.908 0.891,-0.908 z m 13.783,10.172 -15.564,-9.264 15.564,-9.228 c 0.428,-0.254 0.962,-0.109 1.211,0.327 0.25,0.4 0.107,0.981 -0.32,1.235 l -14.247,8.465 v -1.562 l 14.247,8.465 c 0.427,0.254 0.57,0.799 0.32,1.235 -0.249,0.436 -0.783,0.581 -1.211,0.327 z m 190.871,-18.492 15.565,9.228 -15.565,9.264 c -0.427,0.254 -0.997,0.109 -1.211,-0.327 -0.249,-0.436 -0.107,-0.981 0.321,-1.235 l 14.247,-8.465 v 1.562 l -14.247,-8.465 c -0.428,-0.254 -0.57,-0.835 -0.321,-1.235 0.214,-0.436 0.784,-0.581 1.211,-0.327 z"
       stroke="#000000"
       stroke-width="0.6875"
       stroke-linejoin="bevel"
       stroke-miterlimit="10"
       fill-rule="evenodd"
       id="path6" /><text
       font-family="Arial, Arial_MSFontService, sans-serif"
       font-weight="400"
       font-size="41px"
       id="text6"
       x="532.06207"
       y="939">TLIFE</text><text
       font-family="Arial, Arial_MSFontService, sans-serif"
       font-weight="400"
       font-size="41px"
       id="text7"
       x="949.38007"
       y="939">TLIFE</text><path
       d="m 129,1009 c 0,23.76 35.745,43 79.774,43 h 797.486 c 44.03,0 79.74,-19.24 79.74,-43"
       stroke="#000000"
       stroke-width="1.83333"
       stroke-linecap="round"
       stroke-linejoin="round"
       stroke-miterlimit="10"
       fill="none"
       fill-rule="evenodd"
       id="path7" /><text
       font-family="Arial,Arial_MSFontService,sans-serif"
       font-weight="400"
       font-size="41"
       id="text8"
       style="font-style:normal;font-variant:normal;font-weight:normal;font-stretch:normal;font-size:41px;font-family:Arial, Arial_MSFontService, sans-serif;-inkscape-font-specification:'Arial, Arial_MSFontService, sans-serif, Normal';font-variant-ligatures:normal;font-variant-caps:normal;font-variant-numeric:normal;font-variant-east-asian:normal"
       x="577.89594"
       y="1146"><tspan
         id="tspan35"
         x="577.89594"
         y="1146">D(v)</tspan></text><path
       d="m 356.5,1009.61 v -5.35 c 0,-0.46 0.48,-0.89 1,-0.89 0.56,0 1,0.43 1,0.89 v 5.35 c 0,0.5 -0.44,0.89 -1,0.89 -0.52,0 -1,-0.39 -1,-0.89 z m 0,-12.48 v -5.347 c 0,-0.464 0.48,-0.892 1,-0.892 0.56,0 1,0.428 1,0.892 v 5.347 c 0,0.5 -0.44,0.892 -1,0.892 -0.52,0 -1,-0.392 -1,-0.892 z m 0,-12.478 v -5.348 c 0,-0.463 0.48,-0.891 1,-0.891 0.56,0 1,0.428 1,0.891 v 5.348 c 0,0.499 -0.44,0.892 -1,0.892 -0.52,0 -1,-0.393 -1,-0.892 z m 0,-12.478 v -5.348 c 0,-0.463 0.48,-0.891 1,-0.891 0.56,0 1,0.428 1,0.891 v 5.348 c 0,0.499 -0.44,0.891 -1,0.891 -0.52,0 -1,-0.392 -1,-0.891 z m 0,-12.478 v -5.348 c 0,-0.464 0.48,-0.892 1,-0.892 0.56,0 1,0.428 1,0.892 v 5.348 c 0,0.499 -0.44,0.891 -1,0.891 -0.52,0 -1,-0.392 -1,-0.891 z m 0,-12.479 v -5.347 c 0,-0.464 0.48,-0.892 1,-0.892 0.56,0 1,0.428 1,0.892 v 5.347 c 0,0.499 -0.44,0.892 -1,0.892 -0.52,0 -1,-0.393 -1,-0.892 z m 0,-12.478 v -5.348 c 0,-0.463 0.48,-0.891 1,-0.891 0.56,0 1,0.428 1,0.891 v 5.348 c 0,0.499 -0.44,0.891 -1,0.891 -0.52,0 -1,-0.392 -1,-0.891 z"
       stroke="#000000"
       stroke-width="0.6875"
       stroke-linejoin="bevel"
       stroke-miterlimit="10"
       fill-rule="evenodd"
       id="path9" /><path
       d="M 0,0 3.60892e-4,369.646"
       stroke="#000000"
       stroke-width="1.83333"
       stroke-linecap="round"
       stroke-linejoin="round"
       stroke-miterlimit="10"
       fill="none"
       fill-rule="evenodd"
       transform="matrix(1,0,0,-1,357,1009.65)"
       id="path10" /><path
       d="M 0,0 3.60892e-4,369.646"
       stroke="#000000"
       stroke-width="1.83333"
       stroke-linecap="round"
       stroke-linejoin="round"
       stroke-miterlimit="10"
       fill="none"
       fill-rule="evenodd"
       transform="matrix(1,0,0,-1,800,1009.65)"
       id="path11" /><path
       d="M 0,0 3.60892e-4,369.646"
       stroke="#000000"
       stroke-width="1.83333"
       stroke-linecap="round"
       stroke-linejoin="round"
       stroke-miterlimit="10"
       fill="none"
       fill-rule="evenodd"
       transform="matrix(1,0,0,-1,1244,1009.65)"
       id="path12" /><path
       d="m 357.5,640.5 h 886.42"
       stroke="#000000"
       stroke-width="7.10417"
       stroke-linejoin="round"
       stroke-miterlimit="10"
       fill="none"
       fill-rule="evenodd"
       id="path13" /><path
       d="m 357.609,641.5 h -5.349 c -0.464,0 -0.892,-0.44 -0.892,-1 0,-0.52 0.428,-1 0.892,-1 h 5.349 c 0.499,0 0.891,0.48 0.891,1 0,0.56 -0.392,1 -0.891,1 z m -12.481,0 h -5.349 c -0.463,0 -0.891,-0.44 -0.891,-1 0,-0.52 0.428,-1 0.891,-1 h 5.349 c 0.499,0 0.891,0.48 0.891,1 0,0.56 -0.392,1 -0.891,1 z m -12.481,0 h -5.349 c -0.463,0 -0.891,-0.44 -0.891,-1 0,-0.52 0.428,-1 0.891,-1 h 5.349 c 0.5,0 0.892,0.48 0.892,1 0,0.56 -0.392,1 -0.892,1 z m -12.48,0 h -5.349 c -0.464,0 -0.892,-0.44 -0.892,-1 0,-0.52 0.428,-1 0.892,-1 h 5.349 c 0.499,0 0.891,0.48 0.891,1 0,0.56 -0.392,1 -0.891,1 z m -12.481,0 h -5.349 c -0.463,0 -0.891,-0.44 -0.891,-1 0,-0.52 0.428,-1 0.891,-1 h 5.349 c 0.499,0 0.892,0.48 0.892,1 0,0.56 -0.393,1 -0.892,1 z m -12.481,0 h -5.348 c -0.464,0 -0.892,-0.44 -0.892,-1 0,-0.52 0.428,-1 0.892,-1 h 5.348 c 0.5,0 0.892,0.48 0.892,1 0,0.56 -0.392,1 -0.892,1 z m -12.48,0 h -5.349 c -0.464,0 -0.891,-0.44 -0.891,-1 0,-0.52 0.427,-1 0.891,-1 h 5.349 c 0.499,0 0.891,0.48 0.891,1 0,0.56 -0.392,1 -0.891,1 z m -12.481,0 h -5.349 c -0.463,0 -0.891,-0.44 -0.891,-1 0,-0.52 0.428,-1 0.891,-1 h 5.349 c 0.499,0 0.892,0.48 0.892,1 0,0.56 -0.393,1 -0.892,1 z m -12.48,0 h -5.349 c -0.464,0 -0.892,-0.44 -0.892,-1 0,-0.52 0.428,-1 0.892,-1 h 5.349 c 0.499,0 0.891,0.48 0.891,1 0,0.56 -0.392,1 -0.891,1 z m -12.481,0 h -5.349 c -0.463,0 -0.891,-0.44 -0.891,-1 0,-0.52 0.428,-1 0.891,-1 h 5.349 c 0.499,0 0.891,0.48 0.891,1 0,0.56 -0.392,1 -0.891,1 z m -12.481,0 h -5.348 c -0.464,0 -0.892,-0.44 -0.892,-1 0,-0.52 0.428,-1 0.892,-1 h 5.348 c 0.5,0 0.892,0.48 0.892,1 0,0.56 -0.392,1 -0.892,1 z m -12.48,0 h -5.349 c -0.464,0 -0.892,-0.44 -0.892,-1 0,-0.52 0.428,-1 0.892,-1 h 5.349 c 0.499,0 0.891,0.48 0.891,1 0,0.56 -0.392,1 -0.891,1 z m -12.481,0 h -5.349 c -0.463,0 -0.891,-0.44 -0.891,-1 0,-0.52 0.428,-1 0.891,-1 h 5.349 c 0.499,0 0.892,0.48 0.892,1 0,0.56 -0.393,1 -0.892,1 z m -12.48,0 h -5.349 c -0.464,0 -0.892,-0.44 -0.892,-1 0,-0.52 0.428,-1 0.892,-1 h 5.349 c 0.499,0 0.891,0.48 0.891,1 0,0.56 -0.392,1 -0.891,1 z m -12.481,0 h -5.349 c -0.463,0 -0.891,-0.44 -0.891,-1 0,-0.52 0.428,-1 0.891,-1 h 5.349 c 0.499,0 0.891,0.48 0.891,1 0,0.56 -0.392,1 -0.891,1 z m -12.481,0 h -5.349 c -0.463,0 -0.891,-0.44 -0.891,-1 0,-0.52 0.428,-1 0.891,-1 h 5.349 c 0.499,0 0.892,0.48 0.892,1 0,0.56 -0.393,1 -0.892,1 z m -12.48,0 h -5.349 c -0.464,0 -0.892,-0.44 -0.892,-1 0,-0.52 0.428,-1 0.892,-1 h 5.349 c 0.499,0 0.891,0.48 0.891,1 0,0.56 -0.392,1 -0.891,1 z m -12.481,0 h -5.349 c -0.463,0 -0.891,-0.44 -0.891,-1 0,-0.52 0.428,-1 0.891,-1 h 5.349 c 0.499,0 0.892,0.48 0.892,1 0,0.56 -0.393,1 -0.892,1 z m -12.481,0 h -3.565 c -0.464,0 -0.892,-0.44 -0.892,-1 0,-0.52 0.428,-1 0.892,-1 h 3.565 c 0.5,0 0.892,0.48 0.892,1 0,0.56 -0.392,1 -0.892,1 z"
       stroke="#000000"
       stroke-width="0.6875"
       stroke-linejoin="bevel"
       stroke-miterlimit="10"
       fill-rule="evenodd"
       id="path14" /><text
       font-family="Arial, Arial_MSFontService, sans-serif"
       font-weight="400"
       font-size="41px"
       id="text14"
       x="512.58282"
       y="623">VAR_NCAP</text><path
       d="m 129.5,708.5 h 21.526 v 5 H 129.5 Z m 37.556,0 h 21.298 v 5 h -21.298 z m 37.557,0 h 21.297 v 5 h -21.297 z m 37.327,0 h 21.526 v 5 H 241.94 Z m 37.556,0 h 21.527 v 5 h -21.527 z m 37.557,0 h 21.297 v 5 h -21.297 z m 37.556,0 h 21.297 v 5 h -21.297 z m 37.328,0 h 21.526 v 5 h -21.526 z m 37.556,0 h 21.526 v 5 h -21.526 z m 37.556,0 h 21.297 v 5 h -21.297 z m 37.557,0 h 21.297 v 5 h -21.297 z m 37.327,0 h 21.526 v 5 h -21.526 z m 37.556,0 h 21.527 v 5 h -21.527 z m 37.557,0 h 21.297 v 5 h -21.297 z m 37.556,0 h 21.297 v 5 h -21.297 z m 37.327,0 h 21.527 v 5 h -21.527 z m 37.557,0 h 21.526 v 5 h -21.526 z m 37.556,0 h 21.297 v 5 h -21.297 z m 37.556,0 h 21.298 v 5 h -21.298 z m 37.328,0 h 21.526 v 5 h -21.526 z m 37.556,0 h 21.526 v 5 h -21.526 z m 37.556,0 h 21.298 v 5 h -21.298 z m 37.328,0 h 21.526 v 5 h -21.526 z m 37.556,0 h 21.528 v 5 h -21.528 z m 37.558,0 H 1051 v 5 h -21.52 z m 37.55,0 h 19.47 v 5 h -19.47 z"
       stroke="#000000"
       stroke-width="0.6875"
       stroke-linejoin="bevel"
       stroke-miterlimit="10"
       fill-rule="evenodd"
       id="path15" /><path
       d="m 1086,1009 c 0,23.79 16.02,43 35.75,43 h 357.5 c 19.81,0 35.75,-19.21 35.75,-43"
       stroke="#000000"
       stroke-width="1.83333"
       stroke-linecap="round"
       stroke-linejoin="round"
       stroke-miterlimit="10"
       fill="none"
       fill-rule="evenodd"
       id="path16" /><path
       d="m 1515,370 v 639.6"
       stroke="#000000"
       stroke-width="1.83333"
       stroke-linecap="round"
       stroke-linejoin="round"
       stroke-miterlimit="10"
       fill="none"
       fill-rule="evenodd"
       id="path17" /><text
       font-family="Arial,Arial_MSFontService,sans-serif"
       font-weight="400"
       font-size="41"
       id="text17"
       style="font-style:normal;font-variant:normal;font-weight:normal;font-stretch:normal;font-size:41px;font-family:Arial, Arial_MSFontService, sans-serif;-inkscape-font-specification:'Arial, Arial_MSFontService, sans-serif, Normal';font-variant-ligatures:normal;font-variant-caps:normal;font-variant-numeric:normal;font-variant-east-asian:normal"
       x="1278.2299"
       y="1146"><tspan
         id="tspan34"
         x="1278.2299"
         y="1146">D(v+1)</tspan></text><path
       d="m 1086.5,864.5 h 21.54 v 6 h -21.54 z m 37.58,0 h 21.55 v 6 h -21.55 z m 37.59,0 h 21.54 v 6 h -21.54 z m 37.58,0 h 21.31 v 6 h -21.31 z m 37.35,0 h 21.55 v 6 h -21.55 z m 37.59,0 h 21.54 v 6 h -21.54 z m 37.58,0 h 21.31 v 6 h -21.31 z m 37.58,0 h 21.32 v 6 h -21.32 z m 37.36,0 h 21.54 v 6 h -21.54 z m 37.58,0 h 21.54 v 6 h -21.54 z m 37.59,0 h 21.31 v 6 h -21.31 z m 37.58,0 h 16.04 v 6 h -16.04 z"
       stroke="#000000"
       stroke-width="0.6875"
       stroke-linejoin="bevel"
       stroke-miterlimit="10"
       fill-rule="evenodd"
       id="path19" /><text
       font-family="Arial,Arial_MSFontService,sans-serif"
       font-weight="700"
       font-size="32"
       id="text20"
       style="font-style:normal;font-variant:normal;font-weight:bold;font-stretch:normal;font-size:32px;font-family:Arial, Arial_MSFontService, sans-serif;-inkscape-font-specification:'Arial, Arial_MSFontService, sans-serif, Bold';font-variant-ligatures:normal;font-variant-caps:normal;font-variant-numeric:normal;font-variant-east-asian:normal"
       x="520.14624"
       y="739"><tspan
         id="tspan33"
         x="520.14624"
         y="739">Resulting average capacity in period v</tspan></text><text
       font-family="Arial,Arial_MSFontService,sans-serif"
       font-weight="700"
       font-size="32"
       id="text26"
       style="font-style:normal;font-variant:normal;font-weight:bold;font-stretch:normal;font-size:32px;font-family:Arial, Arial_MSFontService, sans-serif;-inkscape-font-specification:'Arial, Arial_MSFontService, sans-serif, Bold';font-variant-ligatures:normal;font-variant-caps:normal;font-variant-numeric:normal;font-variant-east-asian:normal"
       x="1049.5203"
       y="850"><tspan
         id="tspan32"
         x="1049.5203"
         y="850">Resulting average capacity in period v+1</tspan></text></g></svg>
