<?xml version="1.0" encoding="UTF-8" standalone="no"?>
<svg
   width="1480"
   height="1145"
   xml:space="preserve"
   overflow="hidden"
   version="1.1"
   id="svg80"
   xmlns="http://www.w3.org/2000/svg"
   xmlns:svg="http://www.w3.org/2000/svg"><defs
     id="defs80" /><g
     id="g80"
     transform="translate(-195.01847)"><g
       id="g105"><path
         d="M 450.5,292.5 861.396,523.271"
         stroke="#000000"
         stroke-width="3.20833"
         stroke-linejoin="round"
         stroke-miterlimit="10"
         fill="none"
         fill-rule="evenodd"
         id="path1" /><path
         d="M 855,532.097 890,539 865.909,513 Z"
         fill-rule="evenodd"
         id="path2" /></g><g
       id="g104"><path
         d="m 987.5,591.5 396.92,222.979"
         stroke="#000000"
         stroke-width="3.20833"
         stroke-linejoin="round"
         stroke-miterlimit="10"
         fill="none"
         fill-rule="evenodd"
         id="path3" /><path
         d="m 1377,823.097 35,6.903 -24.02,-26 z"
         fill-rule="evenodd"
         id="path4" /></g><g
       id="g103"><path
         d="M 0,0 413.187,115.958"
         stroke="#000000"
         stroke-width="3.20833"
         stroke-linejoin="round"
         stroke-miterlimit="10"
         fill="none"
         fill-rule="evenodd"
         transform="matrix(-1,0,0,1,1372.69,446.5)"
         id="path5" /><path
         d="M 1374.68,457 1404,437.369 1369,436 Z"
         fill-rule="evenodd"
         id="path6" /></g><g
       id="g102"><path
         d="M 1374.85,572.563 930.5,570.5"
         stroke="#000000"
         stroke-width="3.20833"
         stroke-linejoin="round"
         stroke-miterlimit="10"
         fill="none"
         fill-rule="evenodd"
         id="path7" /><path
         d="M 1374,584 1408,572.856 1374,561 Z"
         fill-rule="evenodd"
         id="path8" /></g><g
       id="g101"><path
         d="M 0,0 391.188,12.8333"
         stroke="#000000"
         stroke-width="3.20833"
         stroke-linejoin="round"
         stroke-miterlimit="10"
         fill="none"
         fill-rule="evenodd"
         transform="matrix(1,0,0,-1,456.5,583.333)"
         id="path9" /><path
         d="M 846.167,582 880,569.67 845,559 Z"
         fill-rule="evenodd"
         id="path10" /></g><g
       id="g100"><path
         d="M 0,0 422.812,240.396"
         stroke="#000000"
         stroke-width="3.20833"
         stroke-linejoin="round"
         stroke-miterlimit="10"
         fill="none"
         fill-rule="evenodd"
         transform="matrix(1,0,0,-1,960.5,555.896)"
         id="path11" /><path
         d="m 1387.05,327 23.95,-27 -35,7.448 z"
         fill-rule="evenodd"
         id="path12" /></g><path
       d="m 345.5,281 c 0,-32.309 26.191,-58.5 58.5,-58.5 32.309,0 58.5,26.191 58.5,58.5 0,32.309 -26.191,58.5 -58.5,58.5 -32.309,0 -58.5,-26.191 -58.5,-58.5 z"
       stroke="#000000"
       stroke-width="3.20833"
       stroke-linejoin="round"
       stroke-miterlimit="10"
       fill="#ffffff"
       fill-rule="evenodd"
       id="path13" /><g
       id="g99"
       transform="translate(-69.999741)"><text
         font-family="Arial, Arial_MSFontService, sans-serif"
         font-weight="400"
         font-size="46px"
         transform="translate(445.5,295)"
         id="text13">R</text><text
         font-family="Arial,Arial_MSFontService,sans-serif"
         font-weight="400"
         font-size="32"
         transform="translate(479.875,304)"
         id="text14"
         style="font-style:normal;font-variant:normal;font-weight:normal;font-stretch:normal;font-size:32px;font-family:Arial, Arial_MSFontService, sans-serif;-inkscape-font-specification:'Arial, Arial_MSFontService, sans-serif, Normal';font-variant-ligatures:normal;font-variant-caps:normal;font-variant-numeric:normal;font-variant-east-asian:normal"><tspan
           id="tspan98"
           x="0"
           y="0">S1</tspan></text></g><path
       d="m 345.5,427 c 0,-32.309 26.191,-58.5 58.5,-58.5 32.309,0 58.5,26.191 58.5,58.5 0,32.309 -26.191,58.5 -58.5,58.5 -32.309,0 -58.5,-26.191 -58.5,-58.5 z"
       stroke="#000000"
       stroke-width="3.20833"
       stroke-linejoin="round"
       stroke-miterlimit="10"
       fill="#ffffff"
       fill-rule="evenodd"
       id="path15" /><g
       id="g98"
       transform="translate(-69.999741)"><text
         font-family="Arial, Arial_MSFontService, sans-serif"
         font-weight="400"
         font-size="46px"
         transform="translate(445.5,441)"
         id="text16">R</text><text
         font-family="Arial,Arial_MSFontService,sans-serif"
         font-weight="400"
         font-size="32"
         transform="translate(479.875,451)"
         id="text17"
         style="font-style:normal;font-variant:normal;font-weight:normal;font-stretch:normal;font-size:32px;font-family:Arial, Arial_MSFontService, sans-serif;-inkscape-font-specification:'Arial, Arial_MSFontService, sans-serif, Normal';font-variant-ligatures:normal;font-variant-caps:normal;font-variant-numeric:normal;font-variant-east-asian:normal"><tspan
           id="tspan97"
           x="0"
           y="0">S2</tspan></text></g><path
       d="m 345.5,583 c 0,-32.309 26.191,-58.5 58.5,-58.5 32.309,0 58.5,26.191 58.5,58.5 0,32.309 -26.191,58.5 -58.5,58.5 -32.309,0 -58.5,-26.191 -58.5,-58.5 z"
       stroke="#000000"
       stroke-width="3.20833"
       stroke-linejoin="round"
       stroke-miterlimit="10"
       fill="#ffffff"
       fill-rule="evenodd"
       id="path18" /><g
       id="g97"
       transform="translate(-69.999741)"><text
         font-family="Arial, Arial_MSFontService, sans-serif"
         font-weight="400"
         font-size="46px"
         transform="translate(445.5,597)"
         id="text19">R</text><text
         font-family="Arial,Arial_MSFontService,sans-serif"
         font-weight="400"
         font-size="32"
         transform="translate(479.875,606)"
         id="text20"
         style="font-style:normal;font-variant:normal;font-weight:normal;font-stretch:normal;font-size:32px;font-family:Arial, Arial_MSFontService, sans-serif;-inkscape-font-specification:'Arial, Arial_MSFontService, sans-serif, Normal';font-variant-ligatures:normal;font-variant-caps:normal;font-variant-numeric:normal;font-variant-east-asian:normal"><tspan
           id="tspan96"
           x="0"
           y="0">S3</tspan></text></g><path
       d="m 345.5,855 c 0,-32.309 26.191,-58.5 58.5,-58.5 32.309,0 58.5,26.191 58.5,58.5 0,32.308 -26.191,58.5 -58.5,58.5 -32.309,0 -58.5,-26.192 -58.5,-58.5 z"
       stroke="#000000"
       stroke-width="3.20833"
       stroke-linejoin="round"
       stroke-miterlimit="10"
       fill="#ffffff"
       fill-rule="evenodd"
       id="path21" /><g
       id="g96"
       transform="translate(-69.999741)"><text
         font-family="Arial, Arial_MSFontService, sans-serif"
         font-weight="400"
         font-size="46px"
         transform="translate(440.917,869)"
         id="text22">R</text><text
         font-family="Arial,Arial_MSFontService,sans-serif"
         font-weight="400"
         font-size="32"
         transform="translate(475.292,878)"
         id="text23"
         style="font-style:normal;font-variant:normal;font-weight:normal;font-stretch:normal;font-size:32px;font-family:Arial, Arial_MSFontService, sans-serif;-inkscape-font-specification:'Arial, Arial_MSFontService, sans-serif, Normal';font-variant-ligatures:normal;font-variant-caps:normal;font-variant-numeric:normal;font-variant-east-asian:normal"><tspan
           id="tspan95"
           x="0"
           y="0">Sm</tspan></text></g><g
       id="g95"><path
         d="m 407,662.118 v -0.471 l -0.643,-0.706 -0.428,-0.47 L 405.5,660 v 0 l -0.429,0.471 -0.643,0.47 -0.428,0.706 v 12.236 0.47 l 0.428,0.471 0.643,0.47 0.429,0.706 h 0.429 l 0.428,-0.706 0.643,-0.47 v -0.471 z"
         fill-rule="evenodd"
         id="path24" /><path
         d="m 407,683.544 v -0.662 -0.441 L 406.357,682 h -0.428 -0.429 -0.429 l -0.643,0.441 -0.428,0.441 v 12.133 0.441 l 0.428,0.441 0.643,0.441 0.429,0.662 h 0.429 l 0.428,-0.662 0.643,-0.441 v -0.441 z"
         fill-rule="evenodd"
         id="path25" /><path
         d="m 407,705.544 v -0.662 -0.441 L 406.357,704 h -0.428 -0.429 -0.429 l -0.643,0.441 -0.428,0.441 v 12.133 0.441 l 0.428,0.441 0.643,0.441 0.429,0.662 h 0.429 l 0.428,-0.662 0.643,-0.441 v -0.441 z"
         fill-rule="evenodd"
         id="path26" /><path
         d="m 407,726.647 v -0.706 -0.47 L 406.357,725 h -0.428 -0.429 -0.429 l -0.643,0.471 -0.428,0.47 v 12.941 0.471 l 0.428,0.471 0.643,0.47 0.429,0.706 h 0.429 l 0.428,-0.706 0.643,-0.47 v -0.471 z"
         fill-rule="evenodd"
         id="path27" /><path
         d="m 407,748.647 v -0.706 -0.47 L 406.357,747 h -0.428 -0.429 -0.429 l -0.643,0.471 -0.428,0.47 v 12.941 0.471 l 0.428,0.471 0.643,0.47 0.429,0.706 h 0.429 l 0.428,-0.706 0.643,-0.47 v -0.471 z"
         fill-rule="evenodd"
         id="path28" /><path
         d="m 407,770.647 v -0.706 -0.47 L 406.357,769 h -0.428 -0.429 -0.429 l -0.643,0.471 -0.428,0.47 v 5.412 0 l 0.428,0.47 0.643,0.471 0.429,0.706 v 0 l 0.429,-0.706 0.428,-0.471 H 407 Z"
         fill-rule="evenodd"
         id="path29" /></g><path
       d="m 1405.5,274.5 c 0,-32.585 26.42,-59 59,-59 32.58,0 59,26.415 59,59 0,32.585 -26.42,59 -59,59 -32.58,0 -59,-26.415 -59,-59 z"
       stroke="#000000"
       stroke-width="3.20833"
       stroke-linejoin="round"
       stroke-miterlimit="10"
       fill="#ffffff"
       fill-rule="evenodd"
       id="path30" /><g
       id="g94"
       transform="translate(-69.999741)"><text
         font-family="Arial, Arial_MSFontService, sans-serif"
         font-weight="400"
         font-size="46px"
         transform="translate(1504.71,288)"
         id="text30">R</text><text
         font-family="Arial,Arial_MSFontService,sans-serif"
         font-weight="400"
         font-size="32"
         transform="translate(1539.08,298)"
         id="text31"
         style="font-style:normal;font-variant:normal;font-weight:normal;font-stretch:normal;font-size:32px;font-family:Arial, Arial_MSFontService, sans-serif;-inkscape-font-specification:'Arial, Arial_MSFontService, sans-serif, Normal';font-variant-ligatures:normal;font-variant-caps:normal;font-variant-numeric:normal;font-variant-east-asian:normal"><tspan
           id="tspan93"
           x="0"
           y="0">D1</tspan></text></g><path
       d="m 1405.5,422 c 0,-32.309 26.42,-58.5 59,-58.5 32.58,0 59,26.191 59,58.5 0,32.309 -26.42,58.5 -59,58.5 -32.58,0 -59,-26.191 -59,-58.5 z"
       stroke="#000000"
       stroke-width="3.20833"
       stroke-linejoin="round"
       stroke-miterlimit="10"
       fill="#ffffff"
       fill-rule="evenodd"
       id="path32" /><g
       id="g93"
       transform="translate(-69.999741)"><text
         font-family="Arial, Arial_MSFontService, sans-serif"
         font-weight="400"
         font-size="46px"
         transform="translate(1504.71,435)"
         id="text33">R</text><text
         font-family="Arial,Arial_MSFontService,sans-serif"
         font-weight="400"
         font-size="32"
         transform="translate(1539.08,444)"
         id="text34"
         style="font-style:normal;font-variant:normal;font-weight:normal;font-stretch:normal;font-size:32px;font-family:Arial, Arial_MSFontService, sans-serif;-inkscape-font-specification:'Arial, Arial_MSFontService, sans-serif, Normal';font-variant-ligatures:normal;font-variant-caps:normal;font-variant-numeric:normal;font-variant-east-asian:normal"><tspan
           id="tspan92"
           x="0"
           y="0">D2</tspan></text></g><path
       d="m 1405.5,577 c 0,-32.309 26.42,-58.5 59,-58.5 32.58,0 59,26.191 59,58.5 0,32.309 -26.42,58.5 -59,58.5 -32.58,0 -59,-26.191 -59,-58.5 z"
       stroke="#000000"
       stroke-width="3.20833"
       stroke-linejoin="round"
       stroke-miterlimit="10"
       fill="#ffffff"
       fill-rule="evenodd"
       id="path35" /><g
       id="g92"
       transform="translate(-69.999741)"><text
         font-family="Arial, Arial_MSFontService, sans-serif"
         font-weight="400"
         font-size="46px"
         transform="translate(1504.71,590)"
         id="text36">R</text><text
         font-family="Arial,Arial_MSFontService,sans-serif"
         font-weight="400"
         font-size="32"
         transform="translate(1539.08,600)"
         id="text37"
         style="font-style:normal;font-variant:normal;font-weight:normal;font-stretch:normal;font-size:32px;font-family:Arial, Arial_MSFontService, sans-serif;-inkscape-font-specification:'Arial, Arial_MSFontService, sans-serif, Normal';font-variant-ligatures:normal;font-variant-caps:normal;font-variant-numeric:normal;font-variant-east-asian:normal"><tspan
           id="tspan91"
           x="0"
           y="0">D3</tspan></text></g><path
       d="m 1405.5,849 c 0,-32.309 26.42,-58.5 59,-58.5 32.58,0 59,26.191 59,58.5 0,32.309 -26.42,58.5 -59,58.5 -32.58,0 -59,-26.191 -59,-58.5 z"
       stroke="#000000"
       stroke-width="3.20833"
       stroke-linejoin="round"
       stroke-miterlimit="10"
       fill="#ffffff"
       fill-rule="evenodd"
       id="path38" /><g
       id="g91"
       transform="translate(-69.999741)"><text
         font-family="Arial, Arial_MSFontService, sans-serif"
         font-weight="400"
         font-size="46px"
         transform="translate(1503.1,864)"
         id="text39">R</text><text
         font-family="Arial, Arial_MSFontService, sans-serif"
         font-weight="400"
         font-size="32px"
         transform="translate(1537.48,871)"
         id="text40">Dn</text></g><g
       id="g89"><path
         d="m 1467,656.118 v -0.471 l -0.46,-0.706 -0.46,-0.47 -0.7,-0.471 v 0 l -0.46,0.471 -0.46,0.47 -0.46,0.706 v 12.235 0.471 l 0.46,0.471 0.46,0.705 0.46,0.471 h 0.7 l 0.46,-0.471 0.46,-0.705 v -0.471 z"
         fill-rule="evenodd"
         id="path40" /><path
         d="m 1467,677.647 v -0.706 -0.47 L 1466.54,676 h -0.46 -0.7 -0.46 l -0.46,0.471 -0.46,0.47 v 12.941 0.471 l 0.46,0.471 0.46,0.705 0.46,0.471 h 0.7 l 0.46,-0.471 0.46,-0.705 v -0.471 z"
         fill-rule="evenodd"
         id="path41" /><path
         d="m 1467,699.544 v -0.661 -0.442 L 1466.54,698 h -0.46 -0.7 -0.46 l -0.46,0.441 -0.46,0.442 v 12.132 0.441 l 0.46,0.441 0.46,0.441 0.46,0.662 h 0.7 l 0.46,-0.662 0.46,-0.441 v -0.441 z"
         fill-rule="evenodd"
         id="path42" /><path
         d="m 1467,721.544 v -0.661 -0.442 L 1466.54,720 h -0.46 -0.7 -0.46 l -0.46,0.441 -0.46,0.442 v 12.132 0.441 l 0.46,0.441 0.46,0.441 0.46,0.662 h 0.7 l 0.46,-0.662 0.46,-0.441 v -0.441 z"
         fill-rule="evenodd"
         id="path43" /><path
         d="m 1467,742.647 v -0.706 -0.47 L 1466.54,741 h -0.46 -0.7 -0.46 l -0.46,0.471 -0.46,0.47 v 12.941 0.471 l 0.46,0.47 0.46,0.471 0.46,0.706 h 0.7 l 0.46,-0.706 0.46,-0.471 v -0.47 z"
         fill-rule="evenodd"
         id="path44" /><path
         d="m 1467,764.531 v -0.656 -0.437 L 1466.54,763 h -0.46 -0.7 -0.46 l -0.46,0.438 -0.46,0.437 v 4.594 0 l 0.46,0.437 0.46,0.438 0.46,0.656 v 0 l 0.7,-0.656 0.46,-0.438 h 0.46 z"
         fill-rule="evenodd"
         id="path45" /></g><g
       id="g90"><path
         d="m 462.5,446.5 387.062,95.333"
         stroke="#000000"
         stroke-width="3.20833"
         stroke-linejoin="round"
         stroke-miterlimit="10"
         fill="none"
         fill-rule="evenodd"
         id="path46" /><path
         d="M 845,552 881,549.946 850.342,531 Z"
         fill-rule="evenodd"
         id="path47" /></g><path
       d="m 248.5,567 c 0,-236.102 69.844,-427.5 156,-427.5 86.157,0 156,191.398 156,427.5 0,236.102 -69.843,427.5 -156,427.5 -86.156,0 -156,-191.398 -156,-427.5 z"
       stroke="#000000"
       stroke-width="3.20833"
       stroke-linejoin="round"
       stroke-miterlimit="10"
       fill="none"
       fill-rule="evenodd"
       id="path48" /><path
       d="m 1304.5,563.5 c 0,-236.378 69.84,-428 156,-428 86.16,0 156,191.622 156,428 0,236.378 -69.84,428 -156,428 -86.16,0 -156,-191.622 -156,-428 z"
       stroke="#000000"
       stroke-width="3.20833"
       stroke-linejoin="round"
       stroke-miterlimit="10"
       fill="none"
       fill-rule="evenodd"
       id="path49" /><g
       id="g88"><path
         d="m 1273.5,992.5 -18.11,15.14 -18.79,14.45 -19.26,13.07 -19.25,11.93 -20.17,11.46 -20.4,10.33 -20.86,9.4 -21.31,8.26 -21.32,7.11 -21.32,6.42 -21.77,5.04 -22.47,4.82 -21.77,2.98 -22.463,2.53 -22.233,1.6 -22.462,0.46 -22.463,-0.46 -21.775,-1.6 -22.462,-2.07 -22.234,-3.44 -21.775,-4.36 -22.004,-5.5 -21.316,-6.42 -21.317,-7.11 -21.316,-8.26 -20.858,-9.4 -20.171,-9.87 -19.941,-11.46 -19.712,-11.93 -18.795,-13.53 -18.566,-13.99 -18.337,-14.912"
         stroke="#000000"
         stroke-width="3.20833"
         stroke-linejoin="round"
         stroke-miterlimit="10"
         fill="none"
         fill-rule="evenodd"
         id="path50" /><path
         d="m 1285.44,1005 13.56,-35 -37,10.227 z"
         fill-rule="evenodd"
         id="path51" /><path
         d="M 618,981.077 582,970 l 12.906,36 z"
         fill-rule="evenodd"
         id="path52" /></g><g
       id="g87"
       transform="translate(-69.999936)"><text
         font-family="Arial,Arial_MSFontService,sans-serif"
         font-weight="400"
         font-size="46"
         transform="translate(699.875,869)"
         id="text52"
         style="font-style:normal;font-variant:normal;font-weight:normal;font-stretch:normal;font-size:46px;font-family:Arial, Arial_MSFontService, sans-serif;-inkscape-font-specification:'Arial, Arial_MSFontService, sans-serif, Normal';font-variant-ligatures:normal;font-variant-caps:normal;font-variant-numeric:normal;font-variant-east-asian:normal"><tspan
           id="tspan87"
           x="0"
           y="0">Supply and demand sets may</tspan></text><text
         font-family="Arial,Arial_MSFontService,sans-serif"
         font-weight="400"
         font-size="46"
         transform="translate(780.542,924)"
         id="text58"
         style="font-style:normal;font-variant:normal;font-weight:normal;font-stretch:normal;font-size:46px;font-family:Arial, Arial_MSFontService, sans-serif;-inkscape-font-specification:'Arial, Arial_MSFontService, sans-serif, Normal';font-variant-ligatures:normal;font-variant-caps:normal;font-variant-numeric:normal;font-variant-east-asian:normal"><tspan
           id="tspan86"
           x="0"
           y="0">contain same regions;</tspan></text><text
         font-family="Arial,Arial_MSFontService,sans-serif"
         font-weight="400"
         font-size="46"
         transform="translate(786.271,979)"
         id="text62"
         style="font-style:normal;font-variant:normal;font-weight:normal;font-stretch:normal;font-size:46px;font-family:Arial, Arial_MSFontService, sans-serif;-inkscape-font-specification:'Arial, Arial_MSFontService, sans-serif, Normal';font-variant-ligatures:normal;font-variant-caps:normal;font-variant-numeric:normal;font-variant-east-asian:normal"><tspan
           id="tspan85"
           x="0"
           y="0">one of them may also</tspan></text><text
         font-family="Arial,Arial_MSFontService,sans-serif"
         font-weight="400"
         font-size="46"
         transform="translate(916.437,1033)"
         id="text67"
         style="font-style:normal;font-variant:normal;font-weight:normal;font-stretch:normal;font-size:46px;font-family:Arial, Arial_MSFontService, sans-serif;-inkscape-font-specification:'Arial, Arial_MSFontService, sans-serif, Normal';font-variant-ligatures:normal;font-variant-caps:normal;font-variant-numeric:normal;font-variant-east-asian:normal"><tspan
           id="tspan84"
           x="0"
           y="0">be empty</tspan></text></g><g
       id="g83"
       transform="translate(-69.999757)"><text
         font-family="Arial,Arial_MSFontService,sans-serif"
         font-weight="700"
         font-size="46"
         transform="translate(401.958,64)"
         id="text69"
         style="font-style:normal;font-variant:normal;font-weight:bold;font-stretch:normal;font-size:46px;font-family:Arial, Arial_MSFontService, sans-serif;-inkscape-font-specification:'Arial, Arial_MSFontService, sans-serif, Bold';font-variant-ligatures:normal;font-variant-caps:normal;font-variant-numeric:normal;font-variant-east-asian:normal"><tspan
           id="tspan83"
           x="0"
           y="0">Supply</tspan></text><text
         font-family="Arial, Arial_MSFontService, sans-serif"
         font-weight="700"
         font-size="46px"
         id="text71"
         x="394.625"
         y="119">regions</text></g><g
       id="g82"
       transform="translate(-69.999749)"><text
         font-family="Arial, Arial_MSFontService, sans-serif"
         font-weight="700"
         font-size="46px"
         transform="translate(1446.96,58)"
         id="text72">Demand</text><text
         font-family="Arial, Arial_MSFontService, sans-serif"
         font-weight="700"
         font-size="46px"
         transform="translate(1454.75,113)"
         id="text73">regions</text></g><text
       font-family="Arial, Arial_MSFontService, sans-serif"
       font-style="italic"
       font-weight="400"
       font-size="46px"
       id="text74"
       x="563.41705"
       y="287">Export</text><text
       font-family="Arial,Arial_MSFontService,sans-serif"
       font-style="italic"
       font-weight="400"
       font-size="46"
       id="text75"
       style="font-style:italic;font-variant:normal;font-weight:normal;font-stretch:normal;font-size:46px;font-family:Arial, Arial_MSFontService, sans-serif;-inkscape-font-specification:'Arial, Arial_MSFontService, sans-serif, Italic';font-variant-ligatures:normal;font-variant-caps:normal;font-variant-numeric:normal;font-variant-east-asian:normal"
       x="1149.6195"
       y="287"><tspan
         id="tspan81"
         x="1149.6195"
         y="287">Import</tspan></text><path
       d="m 878.5,570 c 0,-32.309 26.415,-58.5 59,-58.5 32.585,0 59,26.191 59,58.5 0,32.309 -26.415,58.5 -59,58.5 -32.585,0 -59,-26.191 -59,-58.5 z"
       stroke="#000000"
       stroke-width="3.20833"
       stroke-linejoin="round"
       stroke-miterlimit="10"
       fill="#ffffff"
       fill-rule="evenodd"
       id="path76" /><g
       id="g106"
       transform="translate(-69.999741)"><text
         font-family="Arial, Arial_MSFontService, sans-serif"
         font-weight="400"
         font-size="46px"
         transform="translate(983.354,585)"
         id="text77">R</text><text
         font-family="Arial, Arial_MSFontService, sans-serif"
         font-weight="400"
         font-size="32px"
         transform="translate(1017.73,593)"
         id="text78">M</text></g><g
       id="g81"><path
         d="M 0,0 411.583,220.229"
         stroke="#000000"
         stroke-width="3.20833"
         stroke-linejoin="round"
         stroke-miterlimit="10"
         fill="none"
         fill-rule="evenodd"
         transform="matrix(1,0,0,-1,449.5,821.729)"
         id="path78" /><path
         d="M 864.362,613 889,586 l -35,6.809 z"
         fill-rule="evenodd"
         id="path79" /></g><text
       font-family="Arial,Arial_MSFontService,sans-serif"
       font-style="italic"
       font-weight="400"
       font-size="46"
       id="text79"
       style="font-style:italic;font-variant:normal;font-weight:normal;font-stretch:normal;font-size:46px;font-family:Arial, Arial_MSFontService, sans-serif;-inkscape-font-specification:'Arial, Arial_MSFontService, sans-serif, Italic';font-variant-ligatures:normal;font-variant-caps:normal;font-variant-numeric:normal;font-variant-east-asian:normal"
       x="796.47852"
       y="458"><tspan
         id="tspan80"
         x="796.47852"
         y="458">Import/Export</tspan></text></g></svg>
