<?xml version="1.0" encoding="UTF-8" standalone="no"?>
<svg
   width="1738.6229"
   height="682.07373"
   xml:space="preserve"
   overflow="hidden"
   version="1.1"
   id="svg66"
   xmlns:xlink="http://www.w3.org/1999/xlink"
   xmlns="http://www.w3.org/2000/svg"
   xmlns:svg="http://www.w3.org/2000/svg"><defs
     id="defs1"><pattern
       xlink:href="#Checkerboard"
       preserveAspectRatio="xMidYMid"
       id="pattern172"
       patternTransform="scale(5)"
       x="0"
       y="0" /><pattern
       xlink:href="#Checkerboard"
       preserveAspectRatio="xMidYMid"
       id="pattern171"
       patternTransform="scale(5)"
       x="0"
       y="0" /><pattern
       xlink:href="#Strips1_1.5"
       preserveAspectRatio="xMidYMid"
       id="pattern169"
       patternTransform="matrix(3.5355339,3.5355339,-3.5355339,3.5355339,0,0)"
       x="0"
       y="0" /><pattern
       xlink:href="#Strips1_1.5"
       preserveAspectRatio="xMidYMid"
       id="pattern168"
       patternTransform="matrix(3.5355339,3.5355339,-3.5355339,3.5355339,0,0)"
       x="0"
       y="0" /><pattern
       xlink:href="#Strips1_1.5"
       preserveAspectRatio="xMidYMid"
       id="pattern167"
       patternTransform="matrix(3.5355339,3.5355339,-3.5355339,3.5355339,0,0)"
       x="0"
       y="0" /><pattern
       xlink:href="#Checkerboard"
       preserveAspectRatio="xMidYMid"
       id="pattern165"
       patternTransform="scale(5)"
       x="0"
       y="0" /><linearGradient
       id="swatch164"><stop
         style="stop-color:#000000;stop-opacity:1;"
         offset="0"
         id="stop164" /></linearGradient><pattern
       xlink:href="#Checkerboard"
       preserveAspectRatio="xMidYMid"
       id="pattern164"
       patternTransform="scale(5)"
       x="0"
       y="0" /><pattern
       xlink:href="#Checkerboard"
       preserveAspectRatio="xMidYMid"
       id="pattern163"
       patternTransform="scale(5)"
       x="0"
       y="0" /><pattern
       xlink:href="#Checkerboard"
       preserveAspectRatio="xMidYMid"
       id="pattern162"
       patternTransform="scale(5)"
       x="0"
       y="0" /><pattern
       xlink:href="#Checkerboard"
       preserveAspectRatio="xMidYMid"
       id="pattern161"
       patternTransform="scale(5)"
       x="0"
       y="0" /><pattern
       xlink:href="#Checkerboard"
       preserveAspectRatio="xMidYMid"
       id="pattern160"
       patternTransform="scale(5)"
       x="0"
       y="0" /><pattern
       xlink:href="#pattern158"
       preserveAspectRatio="xMidYMid"
       id="pattern159"
       patternTransform="matrix(3.5355339,3.5355339,-3.5355339,3.5355339,0,0)"
       x="0"
       y="0" /><pattern
       patternUnits="userSpaceOnUse"
       width="2.5"
       height="1"
       patternTransform="translate(0,0) scale(2,2)"
       preserveAspectRatio="xMidYMid"
       id="pattern158"
       style="fill:#000000">
      <rect
   style="stroke:none"
   x="0"
   y="-0.5"
   width="1"
   height="2"
   id="rect157" />
    </pattern><pattern
       xlink:href="#Checkerboard"
       preserveAspectRatio="xMidYMid"
       id="pattern153"
       patternTransform="scale(5)"
       x="0"
       y="0" /><pattern
       style="fill:#000000"
       patternUnits="userSpaceOnUse"
       width="2"
       height="2"
       patternTransform="translate(0,0) scale(10,10)"
       id="Checkerboard"
       preserveAspectRatio="xMidYMid">
      <rect
   style="stroke:none"
   x="0"
   y="0"
   width="1"
   height="1"
   id="rect209" />
      <rect
   style="stroke:none"
   x="1"
   y="1"
   width="1"
   height="1"
   id="rect211" />
    </pattern><clipPath
       clipPathUnits="userSpaceOnUse"
       id="clipPath15"><rect
         style="fill:none;stroke:#000000;stroke-linecap:butt;stroke-linejoin:bevel;paint-order:stroke markers fill;stop-color:#000000"
         id="rect15-7"
         width="45.034248"
         height="38.955639"
         x="262.48285"
         y="121.00073" /></clipPath><clipPath
       clipPathUnits="userSpaceOnUse"
       id="clipPath27"><rect
         style="fill:none;stroke:#000000;stroke-width:0.999999;stroke-linecap:butt;stroke-linejoin:bevel;paint-order:stroke markers fill;stop-color:#000000"
         id="rect28-6"
         width="46.160622"
         height="39.922417"
         x="86.574379"
         y="420.06253" /></clipPath><linearGradient
       id="swatch80"><stop
         style="stop-color:#ff7c80;stop-opacity:1;"
         offset="0"
         id="stop80" /></linearGradient><pattern
       xlink:href="#Strips1_1.5"
       preserveAspectRatio="xMidYMid"
       id="pattern80"
       patternTransform="matrix(3.5355339,3.5355339,-3.5355339,3.5355339,0,0)"
       x="0"
       y="0" /><pattern
       patternUnits="userSpaceOnUse"
       width="2.5"
       height="1"
       patternTransform="translate(0,0) scale(2,2)"
       preserveAspectRatio="xMidYMid"
       id="Strips1_1.5"
       style="fill:#000000">
      <rect
   style="stroke:none"
   x="0"
   y="-0.5"
   width="1"
   height="2"
   id="rect140" />
    </pattern><clipPath
       id="clip0"><rect
         x="-1"
         y="-1"
         width="2155"
         height="1402"
         id="rect1" /></clipPath></defs><g
     clip-path="url(#clip0)"
     transform="translate(-203.20762,-200.55367)"
     id="g66"><rect
       x="203.92554"
       y="201.27159"
       width="1737.1871"
       height="680.63788"
       stroke="#000000"
       stroke-width="1.43584"
       stroke-miterlimit="8"
       fill="none"
       id="rect2" /><path
       d="M 521.5,763.5 H 1813.54"
       stroke="#000000"
       stroke-width="4.58333"
       stroke-linejoin="round"
       stroke-miterlimit="10"
       fill="none"
       fill-rule="evenodd"
       id="path3" /><rect
       x="683"
       y="686"
       width="89.000099"
       height="77"
       stroke="#000000"
       stroke-width="3.66667"
       stroke-linecap="round"
       stroke-miterlimit="8"
       fill="none"
       id="rect5"
       style="fill:url(#pattern169);fill-opacity:1" /><rect
       x="772"
       y="686"
       width="90.000099"
       height="77"
       stroke="#000000"
       stroke-width="3.66667"
       stroke-linecap="round"
       stroke-miterlimit="8"
       fill="none"
       id="rect7"
       style="fill:url(#pattern164);fill-opacity:1" /><rect
       x="862"
       y="686"
       width="89.999702"
       height="77"
       stroke="#000000"
       stroke-width="3.66667"
       stroke-linecap="round"
       stroke-miterlimit="8"
       fill="none"
       id="rect9"
       style="fill:url(#pattern165);fill-opacity:1" /><rect
       x="772"
       y="608"
       width="90.000099"
       height="78"
       stroke="#000000"
       stroke-width="3.66667"
       stroke-linecap="round"
       stroke-miterlimit="8"
       fill="none"
       id="rect11"
       style="fill:url(#pattern168);fill-opacity:1" /><rect
       x="862"
       y="608"
       width="89.999702"
       height="78"
       stroke="#000000"
       stroke-width="3.66667"
       stroke-linecap="round"
       stroke-miterlimit="8"
       fill="none"
       id="rect12" /><rect
       x="952"
       y="608"
       width="90.000099"
       height="78"
       stroke="#000000"
       stroke-width="3.66667"
       stroke-linecap="round"
       stroke-miterlimit="8"
       fill="none"
       id="rect14"
       style="fill:url(#pattern172);fill-opacity:1" /><rect
       x="862"
       y="608"
       width="89.999702"
       height="78"
       stroke="#000000"
       stroke-width="3.66667"
       stroke-linecap="round"
       stroke-miterlimit="8"
       fill="none"
       id="rect57"
       style="fill:url(#pattern163);fill-opacity:1" /><rect
       x="862"
       y="530"
       width="89.999702"
       height="78.000099"
       stroke="#000000"
       stroke-width="3.66667"
       stroke-linecap="round"
       stroke-miterlimit="8"
       fill="none"
       id="rect16"
       style="fill:url(#pattern167);fill-opacity:1" /><rect
       x="952"
       y="530"
       width="90.000099"
       height="78.000099"
       stroke="#000000"
       stroke-width="3.66667"
       stroke-linecap="round"
       stroke-miterlimit="8"
       fill="none"
       id="rect18"
       style="fill:url(#pattern162);fill-opacity:1" /><rect
       x="1042"
       y="530"
       width="89"
       height="78.000099"
       stroke="#000000"
       stroke-width="3.66667"
       stroke-linecap="round"
       stroke-miterlimit="8"
       fill="none"
       id="rect20"
       style="fill:url(#pattern171);fill-opacity:1" /><rect
       x="952"
       y="452"
       width="90.000099"
       height="78"
       stroke="#000000"
       stroke-width="3.66667"
       stroke-linecap="round"
       stroke-miterlimit="8"
       fill="none"
       id="rect22"
       style="stroke-width:3.667;stroke-dasharray:none;fill:url(#pattern159);fill-opacity:1" /><rect
       x="1042"
       y="452"
       width="89"
       height="78"
       stroke="#000000"
       stroke-width="3.66667"
       stroke-linecap="round"
       stroke-miterlimit="8"
       fill="none"
       id="rect24"
       style="fill:url(#pattern160);fill-opacity:1" /><rect
       x="1131"
       y="452"
       width="90.000099"
       height="78"
       stroke="#000000"
       stroke-width="3.66667"
       stroke-linecap="round"
       stroke-miterlimit="8"
       fill="none"
       id="rect26"
       style="fill:url(#pattern161);fill-opacity:1" /><path
       d="M 0,0 3.60892e-4,559.625"
       stroke="#000000"
       stroke-width="4.58333"
       stroke-linejoin="round"
       stroke-miterlimit="10"
       fill="none"
       fill-rule="evenodd"
       transform="matrix(1,0,0,-1,862.5,810.125)"
       id="path26" /><path
       d="M 1221.5,250.5 V 810.125"
       stroke="#000000"
       stroke-width="4.58333"
       stroke-linejoin="round"
       stroke-miterlimit="10"
       fill="none"
       fill-rule="evenodd"
       id="path27" /><path
       d="m 874.79397,304.91449 h 10.56042 c 1.10016,0 1.76007,0.59394 1.76007,1.58551 0,0.79326 -0.65991,1.58551 -1.76007,1.58551 h -10.56042 c -0.87955,0 -1.76007,-0.79225 -1.76007,-1.58551 0,-0.99157 0.88052,-1.58551 1.76007,-1.58551 z m 24.64098,0 h 10.56042 c 1.10016,0 1.76007,0.59394 1.76007,1.58551 0,0.79326 -0.65991,1.58551 -1.76007,1.58551 h -10.56042 c -0.87955,0 -1.76007,-0.79225 -1.76007,-1.58551 0,-0.99157 0.88052,-1.58551 1.76007,-1.58551 z m 24.64097,0 h 10.56042 c 1.10016,0 1.76007,0.59394 1.76007,1.58551 0,0.79326 -0.65991,1.58551 -1.76007,1.58551 h -10.56042 c -0.88053,0 -1.76007,-0.79225 -1.76007,-1.58551 0,-0.99157 0.87954,-1.58551 1.76007,-1.58551 z m 24.64098,0 h 10.56042 c 1.10016,0 1.76007,0.59394 1.76007,1.58551 0,0.79326 -0.65991,1.58551 -1.76007,1.58551 H 948.7169 c -0.88053,0 -1.76007,-0.79225 -1.76007,-1.58551 0,-0.99157 0.87954,-1.58551 1.76007,-1.58551 z m 24.64097,0 h 10.56042 c 1.10016,0 1.76007,0.59394 1.76007,1.58551 0,0.79326 -0.65991,1.58551 -1.76007,1.58551 h -10.56042 c -0.88053,0 -1.76007,-0.79225 -1.76007,-1.58551 0,-0.99157 0.87954,-1.58551 1.76007,-1.58551 z m 24.63605,0 h 10.56048 c 1.108,0 1.765,0.59394 1.765,1.58551 0,0.79326 -0.657,1.58551 -1.765,1.58551 h -10.56048 c -0.87265,0 -1.75514,-0.79225 -1.75514,-1.58551 0,-0.99157 0.88249,-1.58551 1.75514,-1.58551 z m 24.64108,0 h 10.5604 c 1.108,0 1.765,0.59394 1.765,1.58551 0,0.79326 -0.657,1.58551 -1.765,1.58551 h -10.5604 c -0.8727,0 -1.7552,-0.79225 -1.7552,-1.58551 0,-0.99157 0.8825,-1.58551 1.7552,-1.58551 z m 24.641,0 h 10.5604 c 1.108,0 1.765,0.59394 1.765,1.58551 0,0.79326 -0.657,1.58551 -1.765,1.58551 h -10.5604 c -0.8727,0 -1.7552,-0.79225 -1.7552,-1.58551 0,-0.99157 0.8825,-1.58551 1.7552,-1.58551 z m 24.6409,0 h 10.5605 c 1.108,0 1.765,0.59394 1.765,1.58551 0,0.79326 -0.657,1.58551 -1.765,1.58551 h -10.5605 c -0.8726,0 -1.7551,-0.79225 -1.7551,-1.58551 0,-0.99157 0.8825,-1.58551 1.7551,-1.58551 z m 24.641,0 h 10.5604 c 1.1081,0 1.7651,0.59394 1.7651,1.58551 0,0.79326 -0.657,1.58551 -1.7651,1.58551 h -10.5604 c -0.8726,0 -1.7551,-0.79225 -1.7551,-1.58551 0,-0.99157 0.8825,-1.58551 1.7551,-1.58551 z m 24.641,0 h 10.5604 c 1.1081,0 1.7649,0.59394 1.7649,1.58551 0,0.79326 -0.6568,1.58551 -1.7649,1.58551 h -10.5604 c -0.8727,0 -1.7551,-0.79225 -1.7551,-1.58551 0,-0.99157 0.8824,-1.58551 1.7551,-1.58551 z m 24.641,0 h 10.5604 c 1.1079,0 1.7649,0.59394 1.7649,1.58551 0,0.79326 -0.657,1.58551 -1.7649,1.58551 h -10.5604 c -0.8727,0 -1.7552,-0.79225 -1.7552,-1.58551 0,-0.99157 0.8825,-1.58551 1.7552,-1.58551 z m 24.641,0 h 10.5603 c 1.108,0 1.765,0.59394 1.765,1.58551 0,0.79326 -0.657,1.58551 -1.765,1.58551 h -10.5603 c -0.8727,0 -1.7553,-0.79225 -1.7553,-1.58551 0,-0.99157 0.8826,-1.58551 1.7553,-1.58551 z m 24.6409,0 h 10.5604 c 1.108,0 1.765,0.59394 1.765,1.58551 0,0.79326 -0.657,1.58551 -1.765,1.58551 h -10.5604 c -0.8727,0 -1.7552,-0.79225 -1.7552,-1.58551 0,-0.99157 0.8825,-1.58551 1.7552,-1.58551 z m -308.00734,11.1006 -21.12083,-9.51509 21.12083,-9.51509 z m 309.77234,-19.03018 21.1208,9.51509 -21.1208,9.51509 z"
       stroke="#000000"
       stroke-width="3.6337"
       stroke-linejoin="bevel"
       stroke-miterlimit="10"
       fill-rule="evenodd"
       id="path28" /><text
       font-family="'Times New Roman', 'Times New Roman_MSFontService', sans-serif"
       font-weight="400"
       font-size="32px"
       id="text28"
       x="999.55975"
       y="294">D(t)</text><g
       id="g70"
       transform="translate(-74.99963)"><text
         font-family="'Times New Roman', 'Times New Roman_MSFontService', sans-serif"
         font-weight="400"
         font-size="32px"
         transform="translate(963.187,814)"
         id="text29">B(t)</text><text
         font-family="'Times New Roman', 'Times New Roman_MSFontService', sans-serif"
         font-weight="400"
         font-size="32px"
         transform="translate(1054.97,814)"
         id="text30">M(t)</text></g><text
       font-family="'Times New Roman', 'Times New Roman_MSFontService', sans-serif"
       font-weight="700"
       font-size="37px"
       transform="translate(242,308)"
       id="text31"
       style="-inkscape-font-specification:'Times New Roman, Times New Roman_MSFontService, sans-serif, Bold';font-family:'Times New Roman', 'Times New Roman_MSFontService', sans-serif;font-weight:bold;font-style:normal;font-stretch:normal;font-variant:normal;font-size:37px;font-variant-ligatures:normal;font-variant-caps:normal;font-variant-numeric:normal;font-variant-east-asian:normal"><tspan
         id="tspan70">Case 1.a Example:</tspan></text><g
       id="g69"><text
         font-family="'Times New Roman', 'Times New Roman_MSFontService', sans-serif"
         font-weight="400"
         font-size="32px"
         transform="translate(242,388)"
         id="text37"
         style="-inkscape-font-specification:'Times New Roman, Times New Roman_MSFontService, sans-serif, Normal';font-family:'Times New Roman', 'Times New Roman_MSFontService', sans-serif;font-weight:normal;font-style:normal;font-stretch:normal;font-variant:normal;font-size:32px;font-variant-ligatures:normal;font-variant-caps:normal;font-variant-numeric:normal;font-variant-east-asian:normal"><tspan
           id="tspan69">D(t)=4, TLIFE=5, ELIFE=3</tspan></text><text
         font-family="'Times New Roman', 'Times New Roman_MSFontService', sans-serif"
         font-weight="400"
         font-size="32px"
         transform="translate(242,425)"
         id="text44"
         style="-inkscape-font-specification:'Times New Roman, Times New Roman_MSFontService, sans-serif, Normal';font-family:'Times New Roman', 'Times New Roman_MSFontService', sans-serif;font-weight:normal;font-style:normal;font-stretch:normal;font-variant:normal;font-size:32px;font-variant-ligatures:normal;font-variant-caps:normal;font-variant-numeric:normal;font-variant-east-asian:normal"><tspan
           id="tspan68">M(t)=B(t)+1</tspan></text></g><g
       id="g68"
       transform="translate(-75.189255)"><text
         font-family="'Times New Roman', 'Times New Roman_MSFontService', sans-serif"
         font-weight="400"
         font-size="32px"
         transform="translate(1684.6,266)"
         id="text46">Investment</text><text
         font-family="'Times New Roman', 'Times New Roman_MSFontService', sans-serif"
         font-weight="400"
         font-size="32px"
         transform="translate(1684.6,304)"
         id="text47"
         style="font-style:normal;font-variant:normal;font-weight:normal;font-stretch:normal;font-size:32px;font-family:'Times New Roman', 'Times New Roman_MSFontService', sans-serif;-inkscape-font-specification:'Times New Roman, Times New Roman_MSFontService, sans-serif, Normal';font-variant-ligatures:normal;font-variant-caps:normal;font-variant-numeric:normal;font-variant-east-asian:normal"><tspan
           id="tspan67"
           x="0"
           y="0">and payment:</tspan></text></g><g
       id="g67"
       transform="translate(-74.92363)"><text
         font-family="'Times New Roman', 'Times New Roman_MSFontService', sans-serif"
         font-weight="400"
         font-size="32px"
         transform="translate(1684.6,416)"
         id="text50">Payment</text><text
         font-family="'Times New Roman', 'Times New Roman_MSFontService', sans-serif"
         font-weight="400"
         font-size="32px"
         transform="translate(1684.6,453)"
         id="text52"
         style="font-style:normal;font-variant:normal;font-weight:normal;font-stretch:normal;font-size:32px;font-family:'Times New Roman', 'Times New Roman_MSFontService', sans-serif;-inkscape-font-specification:'Times New Roman, Times New Roman_MSFontService, sans-serif, Normal';font-variant-ligatures:normal;font-variant-caps:normal;font-variant-numeric:normal;font-variant-east-asian:normal"><tspan
           id="tspan66"
           x="0"
           y="0">only:</tspan></text></g><rect
       x="1813"
       y="245"
       width="90.000099"
       height="78"
       stroke="#000000"
       stroke-width="3.66667"
       stroke-linecap="round"
       stroke-miterlimit="8"
       fill="none"
       id="rect53"
       style="fill:url(#pattern80);fill-opacity:1;stroke-width:3.667;stroke-dasharray:none" /><rect
       x="1813"
       y="393"
       width="90.000099"
       height="77"
       stroke="#000000"
       stroke-width="3.66667"
       stroke-linecap="round"
       stroke-miterlimit="8"
       fill="none"
       id="rect55"
       style="fill:url(#pattern153);fill-opacity:1;opacity:1" /><rect
       x="1221"
       y="452"
       width="90.000099"
       height="78"
       stroke="#000000"
       stroke-width="3.66667"
       stroke-linecap="round"
       stroke-miterlimit="8"
       fill="none"
       id="rect58" /><rect
       x="1311"
       y="452"
       width="89"
       height="78"
       stroke="#000000"
       stroke-width="3.66667"
       stroke-linecap="round"
       stroke-miterlimit="8"
       fill="none"
       id="rect59" /><rect
       x="1131"
       y="530"
       width="90.000099"
       height="78.000099"
       stroke="#000000"
       stroke-width="3.66667"
       stroke-linecap="round"
       stroke-miterlimit="8"
       fill="none"
       id="rect60" /><rect
       x="1221"
       y="530"
       width="90.000099"
       height="78.000099"
       stroke="#000000"
       stroke-width="3.66667"
       stroke-linecap="round"
       stroke-miterlimit="8"
       fill="none"
       id="rect61" /><rect
       x="1042"
       y="608"
       width="89"
       height="78"
       stroke="#000000"
       stroke-width="3.66667"
       stroke-linecap="round"
       stroke-miterlimit="8"
       fill="none"
       id="rect62" /><rect
       x="1131"
       y="608"
       width="90.000099"
       height="78"
       stroke="#000000"
       stroke-width="3.66667"
       stroke-linecap="round"
       stroke-miterlimit="8"
       fill="none"
       id="rect63" /><rect
       x="952"
       y="686"
       width="90.000099"
       height="77"
       stroke="#000000"
       stroke-width="3.66667"
       stroke-linecap="round"
       stroke-miterlimit="8"
       fill="none"
       id="rect64" /><rect
       x="1042"
       y="686"
       width="89"
       height="77"
       stroke="#000000"
       stroke-width="3.66667"
       stroke-linecap="round"
       stroke-miterlimit="8"
       fill="none"
       id="rect65" /><path
       d="m 960.96,378.5 h 10.752 c 1.12,0 1.792,0.75 1.792,1.5 0,0.938 -0.672,1.5 -1.792,1.5 H 960.96 c -0.896,0 -1.792,-0.562 -1.792,-1.5 0,-0.75 0.896,-1.5 1.792,-1.5 z m 25.088,0 H 996.8 c 1.12,0 1.792,0.75 1.792,1.5 0,0.938 -0.672,1.5 -1.792,1.5 h -10.752 c -0.896,0 -1.792,-0.562 -1.792,-1.5 0,-0.75 0.896,-1.5 1.792,-1.5 z m 25.092,0 h 10.75 c 1.12,0 1.79,0.75 1.79,1.5 0,0.938 -0.67,1.5 -1.79,1.5 h -10.75 c -0.9,0 -1.8,-0.562 -1.8,-1.5 0,-0.75 0.9,-1.5 1.8,-1.5 z m 25.08,0 h 10.76 c 1.12,0 1.79,0.75 1.79,1.5 0,0.938 -0.67,1.5 -1.79,1.5 h -10.76 c -0.89,0 -1.79,-0.562 -1.79,-1.5 0,-0.75 0.9,-1.5 1.79,-1.5 z m 25.09,0 h 10.75 c 1.12,0 1.8,0.75 1.8,1.5 0,0.938 -0.68,1.5 -1.8,1.5 h -10.75 c -0.89,0 -1.79,-0.562 -1.79,-1.5 0,-0.75 0.9,-1.5 1.79,-1.5 z m 25.09,0 h 10.75 c 1.12,0 1.79,0.75 1.79,1.5 0,0.938 -0.67,1.5 -1.79,1.5 h -10.75 c -0.9,0 -1.79,-0.562 -1.79,-1.5 0,-0.75 0.89,-1.5 1.79,-1.5 z m 25.09,0 h 10.75 c 1.12,0 1.79,0.75 1.79,1.5 0,0.938 -0.67,1.5 -1.79,1.5 h -10.75 c -0.9,0 -1.79,-0.562 -1.79,-1.5 0,-0.75 0.89,-1.5 1.79,-1.5 z m 25.09,0 h 10.75 c 1.12,0 1.79,0.75 1.79,1.5 0,0.938 -0.67,1.5 -1.79,1.5 h -10.75 c -0.9,0 -1.8,-0.562 -1.8,-1.5 0,-0.75 0.9,-1.5 1.8,-1.5 z m 25.08,0 h 10.76 c 1.12,0 1.79,0.75 1.79,1.5 0,0.938 -0.67,1.5 -1.79,1.5 h -10.76 c -0.89,0 -1.79,-0.562 -1.79,-1.5 0,-0.75 0.9,-1.5 1.79,-1.5 z m 25.09,0 h 10.75 c 1.12,0 1.8,0.75 1.8,1.5 0,0.938 -0.68,1.5 -1.8,1.5 h -10.75 c -0.89,0 -1.79,-0.562 -1.79,-1.5 0,-0.75 0.9,-1.5 1.79,-1.5 z m 25.09,0 h 10.75 c 1.12,0 1.79,0.75 1.79,1.5 0,0.938 -0.67,1.5 -1.79,1.5 h -10.75 c -0.9,0 -1.79,-0.562 -1.79,-1.5 0,-0.75 0.89,-1.5 1.79,-1.5 z m 25.09,0 h 10.75 c 1.12,0 1.79,0.75 1.79,1.5 0,0.938 -0.67,1.5 -1.79,1.5 h -10.75 c -0.9,0 -1.79,-0.562 -1.79,-1.5 0,-0.75 0.89,-1.5 1.79,-1.5 z m 25.09,0 h 10.75 c 1.12,0 1.79,0.75 1.79,1.5 0,0.938 -0.67,1.5 -1.79,1.5 h -10.75 c -0.9,0 -1.8,-0.562 -1.8,-1.5 0,-0.75 0.9,-1.5 1.8,-1.5 z m 25.08,0 h 10.76 c 1.12,0 1.79,0.75 1.79,1.5 0,0.938 -0.67,1.5 -1.79,1.5 h -10.76 c -0.89,0 -1.79,-0.562 -1.79,-1.5 0,-0.75 0.9,-1.5 1.79,-1.5 z m 25.09,0 h 10.75 c 1.12,0 1.8,0.75 1.8,1.5 0,0.938 -0.68,1.5 -1.8,1.5 h -10.75 c -0.89,0 -1.79,-0.562 -1.79,-1.5 0,-0.75 0.9,-1.5 1.79,-1.5 z m 25.09,0 h 10.75 c 1.12,0 1.79,0.75 1.79,1.5 0,0.938 -0.67,1.5 -1.79,1.5 h -10.75 c -0.9,0 -1.79,-0.562 -1.79,-1.5 0,-0.75 0.89,-1.5 1.79,-1.5 z m 25.09,0 h 10.75 c 1.12,0 1.79,0.75 1.79,1.5 0,0.938 -0.67,1.5 -1.79,1.5 h -10.75 c -0.9,0 -1.79,-0.562 -1.79,-1.5 0,-0.75 0.89,-1.5 1.79,-1.5 z m 25.09,0 h 3.58 c 1.12,0 1.79,0.75 1.79,1.5 0,0.938 -0.67,1.5 -1.79,1.5 h -3.58 c -0.9,0 -1.8,-0.562 -1.8,-1.5 0,-0.75 0.9,-1.5 1.8,-1.5 z M 973.504,389 952,380 l 21.504,-9 z m 404.996,-18 21.5,9 -21.5,9 z"
       stroke="#000000"
       stroke-width="3.66667"
       stroke-linejoin="bevel"
       stroke-miterlimit="10"
       fill-rule="evenodd"
       id="path65" /><text
       font-family="'Times New Roman', 'Times New Roman_MSFontService', sans-serif"
       font-weight="400"
       font-size="32px"
       id="text65"
       x="1103.5999"
       y="366">TLIFE</text><path
       d="m 960.966,434.5 h 10.761 c 1.12,0 1.793,0.75 1.793,1.5 0,0.938 -0.673,1.5 -1.793,1.5 h -10.761 c -0.896,0 -1.793,-0.562 -1.793,-1.5 0,-0.75 0.897,-1.5 1.793,-1.5 z m 25.107,0 h 10.76 c 1.121,0 1.794,0.75 1.794,1.5 0,0.938 -0.673,1.5 -1.794,1.5 h -10.76 c -0.896,0 -1.793,-0.562 -1.793,-1.5 0,-0.75 0.897,-1.5 1.793,-1.5 z m 25.107,0 h 10.76 c 1.12,0 1.79,0.75 1.79,1.5 0,0.938 -0.67,1.5 -1.79,1.5 h -10.76 c -0.9,0 -1.79,-0.562 -1.79,-1.5 0,-0.75 0.89,-1.5 1.79,-1.5 z m 25.11,0 h 10.76 c 1.12,0 1.79,0.75 1.79,1.5 0,0.938 -0.67,1.5 -1.79,1.5 h -10.76 c -0.9,0 -1.8,-0.562 -1.8,-1.5 0,-0.75 0.9,-1.5 1.8,-1.5 z m 25.1,0 h 10.76 c 1.12,0 1.8,0.75 1.8,1.5 0,0.938 -0.68,1.5 -1.8,1.5 h -10.76 c -0.89,0 -1.79,-0.562 -1.79,-1.5 0,-0.75 0.9,-1.5 1.79,-1.5 z m 25.11,0 h 10.76 c 1.12,0 1.79,0.75 1.79,1.5 0,0.938 -0.67,1.5 -1.79,1.5 h -10.76 c -0.9,0 -1.79,-0.562 -1.79,-1.5 0,-0.75 0.89,-1.5 1.79,-1.5 z m 25.11,0 h 10.76 c 1.12,0 1.79,0.75 1.79,1.5 0,0.938 -0.67,1.5 -1.79,1.5 h -10.76 c -0.9,0 -1.8,-0.562 -1.8,-1.5 0,-0.75 0.9,-1.5 1.8,-1.5 z m 25.1,0 h 10.76 c 1.12,0 1.8,0.75 1.8,1.5 0,0.938 -0.68,1.5 -1.8,1.5 h -10.76 c -0.89,0 -1.79,-0.562 -1.79,-1.5 0,-0.75 0.9,-1.5 1.79,-1.5 z m 25.11,0 h 10.76 c 1.12,0 1.79,0.75 1.79,1.5 0,0.938 -0.67,1.5 -1.79,1.5 h -10.76 c -0.9,0 -1.79,-0.562 -1.79,-1.5 0,-0.75 0.89,-1.5 1.79,-1.5 z m 25.11,0 h 10.76 c 1.12,0 1.79,0.75 1.79,1.5 0,0.938 -0.67,1.5 -1.79,1.5 h -10.76 c -0.9,0 -1.8,-0.562 -1.8,-1.5 0,-0.75 0.9,-1.5 1.8,-1.5 z m 25.1,0 v 0 c 1.12,0 1.8,0.75 1.8,1.5 0,0.938 -0.68,1.5 -1.8,1.5 v 0 c -0.89,0 -1.79,-0.562 -1.79,-1.5 0,-0.75 0.9,-1.5 1.79,-1.5 z M 973.52,445 952,436 l 21.52,-9 z m 225.96,-18 21.52,9 -21.52,9 z"
       stroke="#000000"
       stroke-width="3.66667"
       stroke-linejoin="bevel"
       stroke-miterlimit="10"
       fill-rule="evenodd"
       id="path66" /><text
       font-family="'Times New Roman', 'Times New Roman_MSFontService', sans-serif"
       font-weight="400"
       font-size="32px"
       id="text66"
       x="1074.9603"
       y="427.00018">ELIFE</text></g></svg>
